<svg id="discord_icon" xmlns="http://www.w3.org/2000/svg" width="48" height="48" viewBox="0 0 48 48">
  <path id="路径_543" data-name="路径 543" d="M0,24A24,24,0,1,0,24,0,24,24,0,0,0,0,24Z" fill="#eaaa00"/>
  <path id="Vector_3_" data-name="Vector (3)" d="M23.7,1.742A23.327,23.327,0,0,0,18,0a.088.088,0,0,0-.092.042A15.887,15.887,0,0,0,17.2,1.48a21.66,21.66,0,0,0-6.4,0,14.418,14.418,0,0,0-.72-1.435A.09.09,0,0,0,9.989,0a23.31,23.31,0,0,0-5.7,1.739.082.082,0,0,0-.037.031A22.966,22.966,0,0,0,.116,17.455a.094.094,0,0,0,.036.064A23.369,23.369,0,0,0,7.143,21a.091.091,0,0,0,.1-.03,16.128,16.128,0,0,0,1.43-2.29.086.086,0,0,0-.017-.1.087.087,0,0,0-.031-.019A15.386,15.386,0,0,1,6.44,17.53a.086.086,0,0,1-.031-.03.088.088,0,0,1-.005-.083.088.088,0,0,1,.027-.033c.147-.108.294-.222.434-.335a.087.087,0,0,1,.044-.019.086.086,0,0,1,.047.007,16.806,16.806,0,0,0,14.071,0,.087.087,0,0,1,.048-.008.088.088,0,0,1,.045.018c.14.114.286.227.434.336a.089.089,0,0,1,.027.033.087.087,0,0,1-.034.113,14.4,14.4,0,0,1-2.185,1.023.086.086,0,0,0-.031.02.087.087,0,0,0-.02.031.086.086,0,0,0-.006.036.088.088,0,0,0,.01.036,18.3,18.3,0,0,0,1.429,2.289.09.09,0,0,0,.1.033,23.29,23.29,0,0,0,7-3.478.089.089,0,0,0,.037-.063,22.821,22.821,0,0,0-4.14-15.682A.07.07,0,0,0,23.7,1.742ZM9.356,14.325A2.666,2.666,0,0,1,6.84,11.548,2.65,2.65,0,0,1,9.356,8.772a2.636,2.636,0,0,1,2.516,2.777,2.65,2.65,0,0,1-2.516,2.777Zm9.3,0a2.665,2.665,0,0,1-2.516-2.777A2.65,2.65,0,0,1,18.66,8.772a2.636,2.636,0,0,1,2.516,2.777,2.643,2.643,0,0,1-2.516,2.777Z" transform="translate(10.001 13)"/>
</svg>