<svg xmlns="http://www.w3.org/2000/svg" width="20" height="20" viewBox="0 0 20 20">
  <defs>
    <style>
      .cls-1 {
        fill: #fff;
      }
    </style>
  </defs>
  <g id="gihub_icon" transform="translate(-3 -3)">
    <path id="路径_5" data-name="路径 5" class="cls-1" d="M13,23A10,10,0,1,0,3,13,10,10,0,0,0,13,23Z"/>
    <path id="github" d="M7,12.616A7,7,0,0,0,4.787,26.258c.35.065.479-.152.479-.337,0-.167-.006-.718-.01-1.3-1.947.423-2.358-.826-2.358-.826a1.854,1.854,0,0,0-.777-1.024c-.635-.435.048-.426.048-.426a1.471,1.471,0,0,1,1.073.721,1.49,1.49,0,0,0,2.037.582,1.49,1.49,0,0,1,.444-.936c-1.555-.177-3.189-.777-3.189-3.459a2.709,2.709,0,0,1,.721-1.879,2.514,2.514,0,0,1,.068-1.852s.588-.188,1.926.718a6.634,6.634,0,0,1,3.506,0c1.336-.906,1.923-.718,1.923-.718a2.513,2.513,0,0,1,.069,1.852,2.7,2.7,0,0,1,.72,1.879c0,2.689-1.638,3.28-3.2,3.454A1.673,1.673,0,0,1,8.744,24c0,.937-.008,1.69-.008,1.921,0,.186.126.4.481.336A7,7,0,0,0,7,12.616Z" transform="translate(6 -6.616)"/>
  </g>
</svg>
