<svg xmlns="http://www.w3.org/2000/svg" width="20" height="20" viewBox="0 0 20 20">
  <defs>
    <style>
      .cls-1 {
        fill: #eaaa00;
      }
    </style>
  </defs>
  <g id="telegram_icon" transform="translate(-3 -3)">
    <path id="路径_5" data-name="路径 5" class="cls-1" d="M13,23A10,10,0,1,0,3,13,10,10,0,0,0,13,23Z"/>
    <path id="路径_6" data-name="路径 6" d="M7.979,13.884q4.81-2.1,6.415-2.763c3.055-1.271,3.69-1.491,4.1-1.5a.724.724,0,0,1,.426.128.464.464,0,0,1,.157.3,1.938,1.938,0,0,1,.018.433c-.166,1.739-.882,5.96-1.246,7.908-.154.824-.458,1.1-.752,1.128-.639.059-1.124-.422-1.743-.828-.968-.635-1.515-1.03-2.455-1.649-1.086-.716-.382-1.109.237-1.752.162-.168,2.976-2.728,3.031-2.96a.225.225,0,0,0-.051-.194.254.254,0,0,0-.228-.022q-.146.033-4.64,3.067a2.089,2.089,0,0,1-1.193.441,7.855,7.855,0,0,1-1.71-.4c-.689-.224-1.236-.342-1.189-.723Q7.2,14.195,7.979,13.884Z" transform="translate(-0.827 -1.095)"/>
  </g>
</svg>
