<svg xmlns="http://www.w3.org/2000/svg" width="20" height="20" viewBox="0 0 20 20">
  <defs>
    <style>
      .cls-1 {
        fill: #fff;
      }
    </style>
  </defs>
  <g id="twitter_icon" transform="translate(-3 -3)">
    <path id="路径_5" data-name="路径 5" class="cls-1" d="M13,23A10,10,0,1,0,3,13,10,10,0,0,0,13,23Z"/>
    <path id="twitter" d="M134.28,184.309a7.889,7.889,0,0,0,3.5.906,2.659,2.659,0,0,1,1.27-3.071,2.609,2.609,0,0,1,3.17.647s.328-.09.571-.18.6-.251.6-.251l-.579,1.038.892-.095a3.485,3.485,0,0,1-.467.489,6.933,6.933,0,0,0-.5.5,8.311,8.311,0,0,1-1.215,4.532,7.259,7.259,0,0,1-5.6,3.4,7.069,7.069,0,0,1-4.161-.776,7.422,7.422,0,0,0,1.8-.333,10.441,10.441,0,0,0,1.712-.98,6.6,6.6,0,0,1-1.952-.944,2.937,2.937,0,0,1-.644-.8l1.417-.019a7.19,7.19,0,0,1-1.914-1.425,2.936,2.936,0,0,1-.478-1.239l1.09.442a6.245,6.245,0,0,1-1.035-2.2,2.5,2.5,0,0,1,.166-1.48A5.487,5.487,0,0,0,134.28,184.309Z" transform="translate(-124.7 -173.844)"/>
  </g>
</svg>
