<svg id="whitepaper_icon" xmlns="http://www.w3.org/2000/svg" width="20" height="20" viewBox="0 0 20 20">
  <defs>
    <style>
      .cls-1 {
        fill: #eaaa00;
      }
    </style>
  </defs>
  <path id="路径_7" data-name="路径 7" class="cls-1" d="M10,20A10,10,0,1,0,0,10,10,10,0,0,0,10,20Z"/>
  <path id="路径_8" data-name="路径 8" d="M102.374,86.136v9.091a.908.908,0,0,0,.908.909h7.534c.412,0,.639-.255.639-.724a.653.653,0,0,0-.639-.639h-6.654a.455.455,0,0,1,0-.909h6.384a.908.908,0,0,0,.908-.909V86.136a.908.908,0,0,0-.908-.909h-3.178v4.316a.239.239,0,0,1-.066.164.229.229,0,0,1-.322,0c-.059-.062-.974-.823-.974-.823s-.915.761-.974.823a.229.229,0,0,1-.322,0,.239.239,0,0,1-.066-.164V85.227h-1.362A.908.908,0,0,0,102.374,86.136Z" transform="translate(-96.914 -80.682)"/>
</svg>
