<svg xmlns="http://www.w3.org/2000/svg" width="660" height="440" viewBox="0 0 660 440"><path fill="none" d="M0 0h660v440H0z" data-name="矩形 87"/><g data-name="Flowchart_1"><path fill="#003232" d="M208.78 386.04v9.558h-1.464l-5.271-6.472v6.472h-1.761v-9.558h1.461l5.271 6.472v-6.472Zm10.419 8.07v1.488h-7.169v-9.558h6.978v1.489h-5.2v2.485h4.608v1.461h-4.615v2.635Zm5.626 1.625a7.292 7.292 0 0 1-2.137-.314 4.46 4.46 0 0 1-1.632-.833l.614-1.379a4.84 4.84 0 0 0 1.441.758 5.238 5.238 0 0 0 1.714.294 2.961 2.961 0 0 0 1.591-.342 1.034 1.034 0 0 0 .526-.9.873.873 0 0 0-.294-.676 2.061 2.061 0 0 0-.744-.416q-.451-.15-1.229-.341a14.324 14.324 0 0 1-1.768-.519 2.91 2.91 0 0 1-1.162-.818 2.189 2.189 0 0 1-.485-1.5 2.55 2.55 0 0 1 .43-1.441 2.91 2.91 0 0 1 1.3-1.031 5.255 5.255 0 0 1 2.126-.373 6.858 6.858 0 0 1 1.72.218 4.756 4.756 0 0 1 1.461.628l-.56 1.379a5.523 5.523 0 0 0-1.311-.56 4.9 4.9 0 0 0-1.325-.191 2.767 2.767 0 0 0-1.563.355 1.1 1.1 0 0 0-.512.942.852.852 0 0 0 .29.674 2.121 2.121 0 0 0 .744.41q.451.15 1.229.341a12.932 12.932 0 0 1 1.748.512 2.993 2.993 0 0 1 1.167.812 2.141 2.141 0 0 1 .485 1.475 2.518 2.518 0 0 1-.43 1.43 2.926 2.926 0 0 1-1.3 1.024 5.305 5.305 0 0 1-2.134.382Zm8.111-8.193h-3.168v-1.5h8.111v1.5h-3.168v8.056h-1.775Zm15.348-1.5a5.292 5.292 0 0 1 2.164.41 3.147 3.147 0 0 1 1.413 1.174 3.285 3.285 0 0 1 .492 1.816 3.294 3.294 0 0 1-.492 1.807 3.132 3.132 0 0 1-1.413 1.181 5.292 5.292 0 0 1-2.164.41h-2.158v2.758h-1.775v-9.558Zm-.082 5.3a2.727 2.727 0 0 0 1.761-.493 1.713 1.713 0 0 0 .6-1.406 1.713 1.713 0 0 0-.6-1.406 2.727 2.727 0 0 0-1.761-.492h-2.076v3.8Zm8-1.966a2.844 2.844 0 0 1 2.594-1.147v1.62a2.167 2.167 0 0 0-.4-.041 2.062 2.062 0 0 0-1.557.58 2.314 2.314 0 0 0-.56 1.673v3.537h-1.707v-7.291h1.625Zm7.933 6.322a4.137 4.137 0 0 1-1.994-.478 3.485 3.485 0 0 1-1.384-1.335 3.76 3.76 0 0 1-.5-1.932 3.723 3.723 0 0 1 .5-1.925 3.5 3.5 0 0 1 1.386-1.325 4.137 4.137 0 0 1 1.994-.478 4.166 4.166 0 0 1 2.007.478 3.5 3.5 0 0 1 1.386 1.325 3.723 3.723 0 0 1 .5 1.925 3.76 3.76 0 0 1-.5 1.932 3.485 3.485 0 0 1-1.386 1.331 4.166 4.166 0 0 1-2.008.478Zm0-1.461a2.085 2.085 0 0 0 1.558-.632 2.261 2.261 0 0 0 .614-1.656 2.261 2.261 0 0 0-.614-1.652 2.085 2.085 0 0 0-1.557-.628 2.063 2.063 0 0 0-1.55.628 2.276 2.276 0 0 0-.607 1.652 2.276 2.276 0 0 0 .608 1.656 2.063 2.063 0 0 0 1.549.628Zm10.255-6.008a3.871 3.871 0 0 1 1.9.464 3.348 3.348 0 0 1 1.326 1.307 3.9 3.9 0 0 1 .476 1.949 3.942 3.942 0 0 1-.476 1.963 3.336 3.336 0 0 1-1.32 1.318 3.871 3.871 0 0 1-1.9.464 3.527 3.527 0 0 1-1.38-.259 2.641 2.641 0 0 1-1.045-.778v.942h-1.625v-10.132h1.707v3.728a2.866 2.866 0 0 1 1.031-.724 3.378 3.378 0 0 1 1.307-.246Zm-.19 6.004a2.063 2.063 0 0 0 1.55-.628 2.276 2.276 0 0 0 .607-1.656 2.276 2.276 0 0 0-.608-1.652 2.063 2.063 0 0 0-1.55-.628 2.2 2.2 0 0 0-1.106.28 2.023 2.023 0 0 0-.777.8 2.444 2.444 0 0 0-.287 1.2 2.444 2.444 0 0 0 .287 1.205 2.023 2.023 0 0 0 .778.8 2.2 2.2 0 0 0 1.106.279Zm8.889-6.008a3.555 3.555 0 0 1 2.465.771 2.982 2.982 0 0 1 .853 2.328v4.274h-1.611v-.887a1.986 1.986 0 0 1-.894.731 3.5 3.5 0 0 1-1.4.253 3.429 3.429 0 0 1-1.434-.28 2.215 2.215 0 0 1-.949-.778 1.975 1.975 0 0 1-.334-1.128 1.931 1.931 0 0 1 .731-1.577 3.628 3.628 0 0 1 2.3-.594h1.884v-.109a1.494 1.494 0 0 0-.457-1.174 1.979 1.979 0 0 0-1.359-.41 3.922 3.922 0 0 0-1.208.191 2.969 2.969 0 0 0-1 .533l-.669-1.243a4.143 4.143 0 0 1 1.379-.669 6.136 6.136 0 0 1 1.703-.232Zm-.232 6.224a2.2 2.2 0 0 0 1.14-.294 1.6 1.6 0 0 0 .7-.84v-.847h-1.761q-1.475 0-1.475.969a.87.87 0 0 0 .369.737 1.69 1.69 0 0 0 1.027.275Zm10.459-6.224a3.871 3.871 0 0 1 1.9.464 3.348 3.348 0 0 1 1.323 1.311 3.9 3.9 0 0 1 .477 1.949 3.942 3.942 0 0 1-.477 1.963 3.336 3.336 0 0 1-1.318 1.318 3.871 3.871 0 0 1-1.9.464 3.527 3.527 0 0 1-1.372-.259 2.641 2.641 0 0 1-1.045-.778v.942h-1.625v-10.132h1.707v3.728a2.866 2.866 0 0 1 1.03-.724 3.378 3.378 0 0 1 1.3-.246Zm-.191 6.008a2.063 2.063 0 0 0 1.55-.628 2.276 2.276 0 0 0 .608-1.656 2.276 2.276 0 0 0-.608-1.652 2.063 2.063 0 0 0-1.55-.628 2.2 2.2 0 0 0-1.109.28 2.023 2.023 0 0 0-.778.8 2.444 2.444 0 0 0-.287 1.2 2.444 2.444 0 0 0 .287 1.2 2.023 2.023 0 0 0 .778.8 2.2 2.2 0 0 0 1.109.284Zm6.2-5.926h1.707v7.291h-1.707Zm.86-1.2a1.1 1.1 0 0 1-.778-.294.959.959 0 0 1-.314-.731.959.959 0 0 1 .313-.733 1.1 1.1 0 0 1 .778-.294 1.127 1.127 0 0 1 .778.28.9.9 0 0 1 .314.7 1.03 1.03 0 0 1-.307.758 1.063 1.063 0 0 1-.784.312Zm3.769-1.639h1.706v10.13h-1.706Zm4.629 2.84h1.706v7.29h-1.707Zm.86-1.2a1.1 1.1 0 0 1-.778-.294.959.959 0 0 1-.314-.731.959.959 0 0 1 .313-.734 1.1 1.1 0 0 1 .778-.294 1.127 1.127 0 0 1 .778.28.9.9 0 0 1 .314.7 1.03 1.03 0 0 1-.307.758 1.063 1.063 0 0 1-.784.312Zm6.021 8.586a6.528 6.528 0 0 1-1.734-.232 4.363 4.363 0 0 1-1.352-.587l.655-1.3a4.214 4.214 0 0 0 1.183.528 4.907 4.907 0 0 0 1.359.2q1.529 0 1.529-.806a.538.538 0 0 0-.388-.534 6.719 6.719 0 0 0-1.252-.287 10.137 10.137 0 0 1-1.468-.314 2.253 2.253 0 0 1-.98-.621 1.735 1.735 0 0 1-.416-1.236 1.943 1.943 0 0 1 .864-1.656 3.946 3.946 0 0 1 2.342-.624 6.758 6.758 0 0 1 1.5.171 4.211 4.211 0 0 1 1.229.457l-.655 1.3a4.043 4.043 0 0 0-2.089-.546 2.316 2.316 0 0 0-1.14.225.672.672 0 0 0-.389.594.593.593 0 0 0 .416.58 6.618 6.618 0 0 0 1.29.321 9.957 9.957 0 0 1 1.434.314 2.244 2.244 0 0 1 .963.6 1.675 1.675 0 0 1 .4 1.2 1.9 1.9 0 0 1-.888 1.639 4.185 4.185 0 0 1-2.413.614Zm9.845-.492a2.009 2.009 0 0 1-.731.369 3.29 3.29 0 0 1-.908.123 2.577 2.577 0 0 1-1.854-.628 2.417 2.417 0 0 1-.655-1.83v-3.509h-1.2v-1.366h1.2v-1.665h1.707v1.666h1.948v1.365h-1.951v3.468a1.154 1.154 0 0 0 .259.812.974.974 0 0 0 .751.28 1.5 1.5 0 0 0 .956-.3Zm2.089-6.9h1.707v7.296h-1.706Zm.86-1.2a1.1 1.1 0 0 1-.778-.294.959.959 0 0 1-.314-.731.959.959 0 0 1 .314-.731 1.1 1.1 0 0 1 .778-.294 1.127 1.127 0 0 1 .778.28.9.9 0 0 1 .314.7 1.03 1.03 0 0 1-.307.758 1.063 1.063 0 0 1-.784.315Zm7.114 8.589a4.275 4.275 0 0 1-2.035-.478 3.509 3.509 0 0 1-1.405-1.328 3.72 3.72 0 0 1-.505-1.936 3.684 3.684 0 0 1 .505-1.925 3.535 3.535 0 0 1 1.4-1.325 4.264 4.264 0 0 1 2.041-.478 3.933 3.933 0 0 1 1.891.437 2.835 2.835 0 0 1 1.222 1.26l-1.311.765a2.082 2.082 0 0 0-.785-.758 2.147 2.147 0 0 0-1.031-.253 2.16 2.16 0 0 0-1.584.621 2.229 2.229 0 0 0-.628 1.656 2.242 2.242 0 0 0 .622 1.663 2.154 2.154 0 0 0 1.591.621 2.147 2.147 0 0 0 1.03-.253 2.082 2.082 0 0 0 .785-.758l1.311.765a2.955 2.955 0 0 1-1.235 1.262 3.854 3.854 0 0 1-1.878.445Zm18.626-9.651-4.165 9.558h-1.747l-4.179-9.558h1.925l3.184 7.374 3.209-7.374Zm1.6 2.267h1.707v7.291h-1.709Zm.86-1.2a1.1 1.1 0 0 1-.778-.294.959.959 0 0 1-.314-.731.959.959 0 0 1 .314-.731 1.1 1.1 0 0 1 .778-.294 1.127 1.127 0 0 1 .778.28.9.9 0 0 1 .314.7 1.03 1.03 0 0 1-.307.758 1.063 1.063 0 0 1-.787.31Zm5.394 2.267a2.844 2.844 0 0 1 2.594-1.147v1.622a2.167 2.167 0 0 0-.4-.041 2.062 2.062 0 0 0-1.557.58 2.314 2.314 0 0 0-.56 1.673v3.537h-1.704v-7.291h1.625Zm9.381 5.831a2.009 2.009 0 0 1-.731.369 3.29 3.29 0 0 1-.908.123 2.577 2.577 0 0 1-1.857-.628 2.417 2.417 0 0 1-.655-1.83v-3.512h-1.2v-1.366h1.2v-1.665h1.704v1.666h1.953v1.365h-1.953v3.468a1.154 1.154 0 0 0 .259.812.974.974 0 0 0 .751.28 1.5 1.5 0 0 0 .956-.3Zm9.149-6.9v7.293h-1.628v-.928a2.716 2.716 0 0 1-1.024.758 3.3 3.3 0 0 1-1.325.266 3.169 3.169 0 0 1-2.3-.812 3.206 3.206 0 0 1-.84-2.41v-4.165h1.707v3.932a2.113 2.113 0 0 0 .444 1.468 1.626 1.626 0 0 0 1.263.485 1.913 1.913 0 0 0 1.454-.567 2.276 2.276 0 0 0 .539-1.632v-3.686Zm5.708-.082a3.555 3.555 0 0 1 2.465.771 2.982 2.982 0 0 1 .853 2.328v4.276h-1.615v-.887a1.986 1.986 0 0 1-.894.731 3.5 3.5 0 0 1-1.4.253 3.429 3.429 0 0 1-1.434-.28 2.215 2.215 0 0 1-.949-.778 1.975 1.975 0 0 1-.334-1.128 1.931 1.931 0 0 1 .734-1.577 3.628 3.628 0 0 1 2.3-.594h1.884v-.109a1.494 1.494 0 0 0-.457-1.174 1.979 1.979 0 0 0-1.359-.41 3.922 3.922 0 0 0-1.208.191 2.969 2.969 0 0 0-1 .533l-.669-1.243a4.143 4.143 0 0 1 1.379-.669 6.136 6.136 0 0 1 1.701-.232Zm-.236 6.226a2.2 2.2 0 0 0 1.14-.294 1.6 1.6 0 0 0 .7-.84v-.847h-1.758q-1.475 0-1.475.969a.87.87 0 0 0 .369.737 1.69 1.69 0 0 0 1.024.275Zm6.418-8.985h1.707v10.134h-1.707Zm18.024 10.134-.014-6.336-3.14 5.244h-.792l-3.14-5.157v6.249h-1.694v-9.558h1.461l3.8 6.336 3.728-6.336h1.461l.014 9.558Zm7.565-7.374a3.555 3.555 0 0 1 2.465.771 2.982 2.982 0 0 1 .853 2.328v4.275h-1.611v-.887a1.986 1.986 0 0 1-.894.731 3.5 3.5 0 0 1-1.4.253 3.429 3.429 0 0 1-1.434-.28 2.215 2.215 0 0 1-.949-.778 1.975 1.975 0 0 1-.335-1.127 1.931 1.931 0 0 1 .731-1.577 3.628 3.628 0 0 1 2.3-.594h1.884v-.11a1.494 1.494 0 0 0-.457-1.174 1.979 1.979 0 0 0-1.359-.41 3.922 3.922 0 0 0-1.208.191 2.969 2.969 0 0 0-1 .533l-.669-1.243a4.143 4.143 0 0 1 1.379-.669 6.136 6.136 0 0 1 1.704-.232Zm-.232 6.225a2.2 2.2 0 0 0 1.14-.294 1.6 1.6 0 0 0 .7-.84v-.847h-1.761q-1.475 0-1.475.969a.87.87 0 0 0 .369.737 1.69 1.69 0 0 0 1.027.275Zm9.831 1.243a4.275 4.275 0 0 1-2.035-.478 3.509 3.509 0 0 1-1.409-1.329 3.72 3.72 0 0 1-.5-1.936 3.684 3.684 0 0 1 .505-1.925 3.535 3.535 0 0 1 1.4-1.325 4.264 4.264 0 0 1 2.041-.478 3.933 3.933 0 0 1 1.891.437 2.835 2.835 0 0 1 1.222 1.256l-1.311.765a2.082 2.082 0 0 0-.785-.758 2.147 2.147 0 0 0-1.031-.253 2.16 2.16 0 0 0-1.584.621 2.229 2.229 0 0 0-.628 1.659 2.242 2.242 0 0 0 .62 1.664 2.154 2.154 0 0 0 1.591.621 2.147 2.147 0 0 0 1.031-.253 2.082 2.082 0 0 0 .785-.758l1.311.765a2.955 2.955 0 0 1-1.236 1.262 3.854 3.854 0 0 1-1.878.445Zm9.34-7.469a3.047 3.047 0 0 1 2.212.806 3.178 3.178 0 0 1 .833 2.39v4.179h-1.707v-3.959a2.047 2.047 0 0 0-.451-1.441 1.666 1.666 0 0 0-1.284-.485 1.97 1.97 0 0 0-1.488.567 2.259 2.259 0 0 0-.546 1.632v3.686h-1.707v-10.131h1.707v3.682a2.776 2.776 0 0 1 1.045-.69 3.834 3.834 0 0 1 1.386-.234Zm5.9.082h1.707v7.293H442.7Zm.86-1.2a1.1 1.1 0 0 1-.778-.294.959.959 0 0 1-.314-.731.959.959 0 0 1 .314-.731 1.1 1.1 0 0 1 .778-.294 1.127 1.127 0 0 1 .778.28.9.9 0 0 1 .314.7 1.03 1.03 0 0 1-.307.758 1.063 1.063 0 0 1-.786.312Zm7.906 1.12a3.047 3.047 0 0 1 2.212.806 3.178 3.178 0 0 1 .833 2.39v4.177h-1.707v-3.959a2.047 2.047 0 0 0-.451-1.441 1.666 1.666 0 0 0-1.284-.485 1.97 1.97 0 0 0-1.488.567 2.259 2.259 0 0 0-.546 1.632v3.686h-1.707v-7.291h1.625v.942a2.668 2.668 0 0 1 1.065-.765 3.833 3.833 0 0 1 1.447-.259Zm12.822 3.769q0 .178-.027.505h-5.721a1.983 1.983 0 0 0 .785 1.277 2.574 2.574 0 0 0 1.576.473 2.658 2.658 0 0 0 1.98-.792l.915 1.051a3.083 3.083 0 0 1-1.243.888 4.526 4.526 0 0 1-1.693.3 4.506 4.506 0 0 1-2.116-.478 3.442 3.442 0 0 1-1.414-1.333 3.76 3.76 0 0 1-.5-1.932 3.815 3.815 0 0 1 .486-1.919 3.438 3.438 0 0 1 1.345-1.331 3.924 3.924 0 0 1 1.939-.478 3.826 3.826 0 0 1 1.9.471 3.336 3.336 0 0 1 1.316 1.324 4.016 4.016 0 0 1 .471 1.974Zm-3.687-2.4a2.059 2.059 0 0 0-1.386.485 2.039 2.039 0 0 0-.69 1.29h4.137a2.012 2.012 0 0 0-.669-1.284 2.035 2.035 0 0 0-1.393-.495Z" data-name="路径 521"/><path fill="#003232" d="M574.738 288.063a.719.719 0 0 1-.522-.211.718.718 0 0 1-.216-.535.722.722 0 0 1 .212-.54.723.723 0 0 1 .526-.207.723.723 0 0 1 .526.207.722.722 0 0 1 .211.54.718.718 0 0 1-.216.535.719.719 0 0 1-.521.211Zm2.245 0a.719.719 0 0 1-.526-.211.718.718 0 0 1-.216-.536.722.722 0 0 1 .211-.54.723.723 0 0 1 .531-.207.723.723 0 0 1 .527.207.722.722 0 0 1 .211.54.718.718 0 0 1-.216.535.719.719 0 0 1-.522.212Zm2.25 0a.719.719 0 0 1-.522-.211.718.718 0 0 1-.216-.535.722.722 0 0 1 .212-.54.723.723 0 0 1 .526-.207.723.723 0 0 1 .527.207.722.722 0 0 1 .212.54.718.718 0 0 1-.216.535.719.719 0 0 1-.528.211Z" data-name="路径 520"/><path fill="#003232" d="M564.36 268.471h1.016v2.3a3.23 3.23 0 0 1-1.041.545 3.993 3.993 0 0 1-1.219.194 3.3 3.3 0 0 1-1.6-.384 2.853 2.853 0 0 1-1.115-1.061 2.921 2.921 0 0 1-.4-1.528 2.921 2.921 0 0 1 .4-1.528 2.846 2.846 0 0 1 1.119-1.061 3.338 3.338 0 0 1 1.606-.384 3.507 3.507 0 0 1 1.321.239 2.593 2.593 0 0 1 1 .7l-.677.661a2.172 2.172 0 0 0-1.594-.661 2.252 2.252 0 0 0-1.086.256 1.867 1.867 0 0 0-.743.718 2.067 2.067 0 0 0-.268 1.057 2.035 2.035 0 0 0 .268 1.041 1.924 1.924 0 0 0 .743.727 2.178 2.178 0 0 0 1.078.264 2.325 2.325 0 0 0 1.189-.3Zm4.427-1.5a2.15 2.15 0 0 1 1.491.467 1.8 1.8 0 0 1 .516 1.408v2.582h-.978v-.537a1.2 1.2 0 0 1-.541.442 2.114 2.114 0 0 1-.846.153 2.074 2.074 0 0 1-.867-.169 1.34 1.34 0 0 1-.574-.471 1.2 1.2 0 0 1-.2-.681 1.168 1.168 0 0 1 .442-.954 2.194 2.194 0 0 1 1.392-.359h1.14v-.066a.9.9 0 0 0-.277-.71 1.2 1.2 0 0 0-.822-.248 2.372 2.372 0 0 0-.731.116 1.8 1.8 0 0 0-.607.322l-.4-.752a2.506 2.506 0 0 1 .834-.4 3.711 3.711 0 0 1 1.027-.146Zm-.14 3.766a1.333 1.333 0 0 0 .69-.178.966.966 0 0 0 .425-.508v-.512h-1.066q-.892 0-.892.586a.526.526 0 0 0 .223.446 1.022 1.022 0 0 0 .619.163Zm9.447-3.769a1.794 1.794 0 0 1 1.322.483 1.958 1.958 0 0 1 .486 1.449v2.528h-1.032v-2.395a1.291 1.291 0 0 0-.254-.872.923.923 0 0 0-.735-.293 1.076 1.076 0 0 0-.834.343 1.4 1.4 0 0 0-.314.979v2.238h-1.034v-2.395a1.291 1.291 0 0 0-.256-.871.923.923 0 0 0-.735-.293 1.08 1.08 0 0 0-.838.339 1.408 1.408 0 0 0-.31.983v2.237h-1.032v-4.41h.983v.562a1.605 1.605 0 0 1 .619-.454 2.1 2.1 0 0 1 .826-.157 2 2 0 0 1 .88.186 1.428 1.428 0 0 1 .607.549 1.838 1.838 0 0 1 .7-.541 2.28 2.28 0 0 1 .951-.195Zm7.73 2.279q0 .107-.017.306h-3.46a1.2 1.2 0 0 0 .475.772 1.557 1.557 0 0 0 .954.285 1.607 1.607 0 0 0 1.2-.479l.553.636a1.864 1.864 0 0 1-.754.533 2.737 2.737 0 0 1-1.024.182 2.725 2.725 0 0 1-1.28-.282 2.082 2.082 0 0 1-.855-.809 2.274 2.274 0 0 1-.3-1.169 2.308 2.308 0 0 1 .293-1.16 2.08 2.08 0 0 1 .813-.805 2.373 2.373 0 0 1 1.173-.289 2.314 2.314 0 0 1 1.152.285 2.018 2.018 0 0 1 .793.8 2.429 2.429 0 0 1 .284 1.194Zm-2.23-1.453a1.245 1.245 0 0 0-.838.293 1.233 1.233 0 0 0-.417.78h2.5a1.217 1.217 0 0 0-.4-.776 1.231 1.231 0 0 0-.845-.297Zm4.806-1.247v1.759h2.791v.908H588.4v2.214h-1.073v-5.781h4.22v.9Zm4.418.471h1.032v4.41h-1.034Zm.52-.727a.663.663 0 0 1-.471-.178.58.58 0 0 1-.19-.442.58.58 0 0 1 .19-.442.663.663 0 0 1 .471-.178.682.682 0 0 1 .471.169.546.546 0 0 1 .19.425.623.623 0 0 1-.183.455.643.643 0 0 1-.477.191Z" data-name="路径 519"/><path fill="#7d7d7d" d="M569.134 259a3.825 3.825 0 0 1-2.925-1.237 4.341 4.341 0 0 1-1.209-2.9q0-.225.028-.506a3.556 3.556 0 0 1 .084-.506l2.363-9.451a4.482 4.482 0 0 1 1.617-2.444 4.341 4.341 0 0 1 2.742-.956H582.8a4.341 4.341 0 0 1 2.742.956 4.482 4.482 0 0 1 1.621 2.444l2.362 9.45q.056.253.1.52a3.334 3.334 0 0 1 .042.52A4.106 4.106 0 0 1 585.5 259a4.131 4.131 0 0 1-2.194-.619 3.89 3.89 0 0 1-1.519-1.688l-.787-1.631a.846.846 0 0 0-.408-.436 1.4 1.4 0 0 0-.6-.127h-5.345a1.4 1.4 0 0 0-.6.127.846.846 0 0 0-.408.436l-.787 1.631a3.89 3.89 0 0 1-1.519 1.688 4.131 4.131 0 0 1-2.199.619Zm.084-1.688a2.365 2.365 0 0 0 2.138-1.35l.787-1.6a2.736 2.736 0 0 1 2.5-1.547h5.344a2.708 2.708 0 0 1 1.462.422 3.078 3.078 0 0 1 1.069 1.125l.788 1.6a2.365 2.365 0 0 0 2.137 1.35 2.544 2.544 0 0 0 1.716-.661 2.268 2.268 0 0 0 .788-1.73q0-.141-.014-.323a1.462 1.462 0 0 0-.07-.352l-2.363-9.421a2.733 2.733 0 0 0-2.7-2.138h-10.966a2.733 2.733 0 0 0-2.7 2.138l-2.362 9.422q-.028.112-.084.647a2.19 2.19 0 0 0 .788 1.744 2.617 2.617 0 0 0 1.744.675Zm9.788-8.719a.809.809 0 0 1-.591-.253.842.842 0 0 1-.253-.619.764.764 0 0 1 .253-.577.868.868 0 0 1 .619-.239.786.786 0 0 1 .577.239.82.82 0 0 1 .239.6.833.833 0 0 1-.239.591.8.8 0 0 1-.605.259Zm2.25-2.25a.809.809 0 0 1-.591-.253.842.842 0 0 1-.253-.619.764.764 0 0 1 .253-.577.868.868 0 0 1 .619-.239.786.786 0 0 1 .577.239.82.82 0 0 1 .239.6.833.833 0 0 1-.239.591.8.8 0 0 1-.605.259Zm0 4.5a.809.809 0 0 1-.591-.253.842.842 0 0 1-.253-.619.764.764 0 0 1 .253-.577.868.868 0 0 1 .619-.239.786.786 0 0 1 .577.239.82.82 0 0 1 .239.6.833.833 0 0 1-.239.591.8.8 0 0 1-.605.259Zm2.25-2.25a.809.809 0 0 1-.591-.253.842.842 0 0 1-.253-.619.764.764 0 0 1 .253-.577.868.868 0 0 1 .619-.239.786.786 0 0 1 .577.239.82.82 0 0 1 .239.6.833.833 0 0 1-.239.591.8.8 0 0 1-.605.259Zm-10.125 1.829a.721.721 0 0 1-.7-.7v-1.269h-1.268a.703.703 0 0 1 0-1.406h1.265v-1.266a.703.703 0 0 1 1.406 0v1.266h1.266a.703.703 0 0 1 0 1.406h-1.266v1.266a.721.721 0 0 1-.7.7Z"/><path fill="#003232" d="M573.447 212.7v6.128h-.937l-3.379-4.15v4.15H568V212.7h.937l3.379 4.15v-4.15Zm3.222.954v1.865h2.957v.963h-2.959v2.346h-1.138V212.7h4.474v.954Zm6.163.009H580.8v-.963h5.2v.963h-2.031v5.165h-1.138Z" data-name="路径 518"/><path fill="#7d7d7d" d="M577 207a8.708 8.708 0 0 1-3.487-.709 9.068 9.068 0 0 1-4.8-4.8 9.035 9.035 0 0 1 .007-7.046 8.965 8.965 0 0 1 1.969-2.857 9.081 9.081 0 0 1 2.925-1.9A9.379 9.379 0 0 1 577.2 189a9.572 9.572 0 0 1 3.375.6 8.929 8.929 0 0 1 2.8 1.654 7.947 7.947 0 0 1 1.913 2.509 7.157 7.157 0 0 1 .712 3.18 5.16 5.16 0 0 1-1.417 3.836 5.1 5.1 0 0 1-3.758 1.406h-1.687a.92.92 0 0 0-.7.315 1 1 0 0 0-.293.7 1.656 1.656 0 0 0 .326 1.035 1.587 1.587 0 0 1 .326.99 1.756 1.756 0 0 1-.472 1.316A1.821 1.821 0 0 1 577 207Zm0-9Zm-5.242.585a1.153 1.153 0 1 0-.788-.338 1.079 1.079 0 0 0 .788.338Zm2.835-3.825a1.114 1.114 0 0 0 .788-1.913 1.114 1.114 0 1 0-1.576 1.575 1.079 1.079 0 0 0 .788.338Zm4.815 0a1.114 1.114 0 0 0 .787-1.913 1.114 1.114 0 1 0-1.575 1.575 1.079 1.079 0 0 0 .788.338Zm2.947 3.825a1.153 1.153 0 1 0-.788-.338 1.079 1.079 0 0 0 .788.338ZM577 205.65a.484.484 0 0 0 .349-.1.447.447 0 0 0 .1-.326.764.764 0 0 0-.326-.585 1.561 1.561 0 0 1-.326-1.193 2.717 2.717 0 0 1 .675-1.823 2.155 2.155 0 0 1 1.71-.788h1.642a3.86 3.86 0 0 0 2.768-1 3.792 3.792 0 0 0 1.057-2.891 5.836 5.836 0 0 0-2.249-4.783 8.051 8.051 0 0 0-5.2-1.811 7.7 7.7 0 0 0-5.566 2.216A7.278 7.278 0 0 0 569.35 198a7.372 7.372 0 0 0 2.239 5.411A7.372 7.372 0 0 0 577 205.65Z"/><path fill="#003232" d="M567 158.669h2.624a3.765 3.765 0 0 1 1.706.373 2.76 2.76 0 0 1 1.157 1.058 2.984 2.984 0 0 1 .412 1.57 2.984 2.984 0 0 1-.412 1.573 2.76 2.76 0 0 1-1.157 1.057 3.765 3.765 0 0 1-1.706.373H567Zm2.572 5.059a2.547 2.547 0 0 0 1.162-.253 1.81 1.81 0 0 0 .772-.72 2.128 2.128 0 0 0 .27-1.085 2.128 2.128 0 0 0-.27-1.085 1.81 1.81 0 0 0-.772-.72 2.547 2.547 0 0 0-1.162-.253h-1.457v4.115Zm9.14-1.32q0 .111-.017.317h-3.593a1.245 1.245 0 0 0 .493.8 1.616 1.616 0 0 0 .99.3 1.669 1.669 0 0 0 1.243-.5l.574.66a1.936 1.936 0 0 1-.78.557 2.842 2.842 0 0 1-1.062.189 2.829 2.829 0 0 1-1.329-.3 2.161 2.161 0 0 1-.887-.836 2.361 2.361 0 0 1-.313-1.213 2.4 2.4 0 0 1 .3-1.2 2.159 2.159 0 0 1 .845-.836 2.464 2.464 0 0 1 1.217-.3 2.4 2.4 0 0 1 1.2.3 2.1 2.1 0 0 1 .823.832 2.522 2.522 0 0 1 .296 1.23Zm-2.315-1.508a1.293 1.293 0 0 0-.87.3 1.28 1.28 0 0 0-.433.81h2.6a1.263 1.263 0 0 0-.427-.803 1.278 1.278 0 0 0-.87-.307Zm4.99-1.3v1.83h2.9v.943h-2.9v2.3h-1.115v-6h4.382v.927Zm4.587.489h1.072v4.582h-1.072Zm.54-.754a.688.688 0 0 1-.489-.184.6.6 0 0 1-.2-.459.6.6 0 0 1 .2-.459.688.688 0 0 1 .489-.184.708.708 0 0 1 .489.176.567.567 0 0 1 .2.442.647.647 0 0 1-.193.476.668.668 0 0 1-.496.195Z" data-name="路径 517"/><path fill="#7d7d7d" d="M570.97 150.3v-7.628h1.35v7.628Zm5.445 0v-7.628h1.35v7.628ZM568 153v-1.35h18V153Zm13.68-2.7v-7.628h1.35v7.628ZM568 141.323v-1.193l9-5.13 9 5.13v1.193Zm3.015-1.35Zm0 0h11.97L577 136.55Z"/><path fill="#01d9ca" fill-rule="evenodd" d="m537.471 211.871.155.155-5.81 5.8-.645-.645 4.887-4.879h-63.876v-.922h63.87l-4.911-4.9.652-.651 5.862 5.858Z"/><path fill="#01d9ca" d="M409.755 324.019V325h-4.244v-6.3h4.13v.981h-3.08v1.638h2.732v.963h-2.732v1.737Zm5.076.981-1.536-2.394-1.52 2.394h-1.2l2.1-3.213-1.983-3.087h1.188l1.447 2.241 1.431-2.241h1.14l-1.98 3.042 2.125 3.258Zm5.933-3.636v.972l-3.726 1.611v-.936l2.789-1.161-2.789-1.161v-.936Zm1.446-1.053h3.726v.9h-3.726Zm0 2.178h3.726v.9h-3.726Zm9.651 1.53V325h-4.243v-6.3h4.13v.981h-3.08v1.638h2.732v.963h-2.731v1.737Zm2.627-4.338v1.919h2.732v.99h-2.732V325h-1.051v-6.3h4.13v.981Zm5.412 7.065a6.9 6.9 0 0 1-.732-1.9 10.061 10.061 0 0 1-.258-2.312 10.119 10.119 0 0 1 .255-2.317 6.76 6.76 0 0 1 .735-1.895h.962a8.524 8.524 0 0 0-.723 2 10.114 10.114 0 0 0-.23 2.21 10.114 10.114 0 0 0 .23 2.209 8.524 8.524 0 0 0 .723 2Zm5.864-1.746-1.536-2.394-1.519 2.394h-1.2l2.1-3.213-1.984-3.087h1.188l1.447 2.241 1.431-2.241h1.14l-1.98 3.042 2.125 3.258Zm1.859 1.746a8.643 8.643 0 0 0 .727-2.007 9.964 9.964 0 0 0 .234-2.2 9.964 9.964 0 0 0-.234-2.205 8.643 8.643 0 0 0-.727-2.007h.962a6.627 6.627 0 0 1 .732 1.885 10.161 10.161 0 0 1 .255 2.327 10.044 10.044 0 0 1-.255 2.317 6.907 6.907 0 0 1-.732 1.895Z" data-name="路径 516"/><path fill="#003232" d="M404.209 297.681v1.919h2.816v.99h-2.816V303h-1.083v-6.3h4.257v.981Zm8.722.513V303h-.991v-.612a1.673 1.673 0 0 1-.625.5 1.882 1.882 0 0 1-.808.176 1.851 1.851 0 0 1-1.4-.535 2.215 2.215 0 0 1-.512-1.589v-2.746h1.041v2.592a1.469 1.469 0 0 0 .271.967.954.954 0 0 0 .771.32 1.123 1.123 0 0 0 .887-.374 1.578 1.578 0 0 0 .329-1.075v-2.43Zm4.307-.054a1.781 1.781 0 0 1 1.35.531 2.2 2.2 0 0 1 .512 1.575V303h-1.041v-2.61a1.422 1.422 0 0 0-.275-.95.977.977 0 0 0-.784-.319 1.155 1.155 0 0 0-.908.374 1.564 1.564 0 0 0-.333 1.075V303h-1.041v-4.806h.991v.621a1.639 1.639 0 0 1 .65-.5 2.185 2.185 0 0 1 .879-.175Zm5.681 4.923a2.452 2.452 0 0 1-1.241-.315 2.221 2.221 0 0 1-.858-.877 2.606 2.606 0 0 1-.308-1.271 2.58 2.58 0 0 1 .308-1.272 2.238 2.238 0 0 1 .854-.873 2.446 2.446 0 0 1 1.245-.315 2.255 2.255 0 0 1 1.154.288 1.811 1.811 0 0 1 .746.828l-.8.5a1.32 1.32 0 0 0-.479-.5 1.233 1.233 0 0 0-.629-.167 1.267 1.267 0 0 0-.966.409 1.536 1.536 0 0 0-.384 1.102 1.546 1.546 0 0 0 .379 1.093 1.264 1.264 0 0 0 .971.407 1.233 1.233 0 0 0 .629-.167 1.32 1.32 0 0 0 .479-.5l.8.5a1.886 1.886 0 0 1-.754.833 2.211 2.211 0 0 1-1.146.297Zm5.948-.324a1.2 1.2 0 0 1-.446.243 1.868 1.868 0 0 1-.554.081 1.5 1.5 0 0 1-1.132-.414 1.669 1.669 0 0 1-.4-1.206v-2.313h-.735v-.9h.733v-1.1h1.041v1.1h1.191v.9h-1.189v2.286a.8.8 0 0 0 .158.536.571.571 0 0 0 .458.184.87.87 0 0 0 .583-.2Zm1.275-4.545h1.041V303h-1.041Zm.525-.794a.642.642 0 0 1-.475-.194.657.657 0 0 1-.192-.479.657.657 0 0 1 .192-.482.642.642 0 0 1 .475-.193.658.658 0 0 1 .475.184.617.617 0 0 1 .192.464.708.708 0 0 1-.187.5.624.624 0 0 1-.48.2Zm4.298 5.663a2.374 2.374 0 0 1-1.216-.315 2.209 2.209 0 0 1-.849-.877 2.635 2.635 0 0 1-.3-1.271 2.609 2.609 0 0 1 .3-1.269 2.217 2.217 0 0 1 .846-.873 2.374 2.374 0 0 1 1.219-.318 2.39 2.39 0 0 1 1.225.315 2.217 2.217 0 0 1 .846.873 2.609 2.609 0 0 1 .304 1.272 2.635 2.635 0 0 1-.3 1.273 2.209 2.209 0 0 1-.846.877 2.39 2.39 0 0 1-1.229.313Zm0-.963a1.225 1.225 0 0 0 .95-.414 1.56 1.56 0 0 0 .375-1.086 1.56 1.56 0 0 0-.375-1.089 1.225 1.225 0 0 0-.95-.414 1.213 1.213 0 0 0-.946.414 1.571 1.571 0 0 0-.37 1.089 1.571 1.571 0 0 0 .371 1.086 1.213 1.213 0 0 0 .945.414Zm6.315-3.96a1.781 1.781 0 0 1 1.35.531 2.2 2.2 0 0 1 .508 1.575V303H442.1v-2.61a1.422 1.422 0 0 0-.275-.95.977.977 0 0 0-.783-.319 1.155 1.155 0 0 0-.908.374 1.564 1.564 0 0 0-.334 1.075V303h-1.044v-4.806h.991v.621a1.639 1.639 0 0 1 .65-.5 2.185 2.185 0 0 1 .883-.175Zm11.6-1.44v6.3h-.891l-3.22-4.266V303h-1.075v-6.3h.891l3.215 4.266V296.7Z" data-name="路径 515"/><path fill="#7d7d7d" d="m421.496 280.301 2.363 1q.4-.8.858-1.583t.97-1.493l-1.761-.354Zm3.433 1.805 2.964 2.964a17.521 17.521 0 0 0 2.385-1.315 11.59 11.59 0 0 0 1.806-1.428 12.541 12.541 0 0 0 2.652-3.7 11.159 11.159 0 0 0 .914-4.28 11.159 11.159 0 0 0-4.28.914 12.541 12.541 0 0 0-3.7 2.652 11.59 11.59 0 0 0-1.427 1.805 17.521 17.521 0 0 0-1.315 2.385Zm5.1-2.14a1.588 1.588 0 1 1 1.1.446 1.5 1.5 0 0 1-1.096-.446Zm-.334 8.537 2.43-2.43-.357-1.761q-.713.513-1.493.97t-1.583.858Zm7.27-15.469a12.887 12.887 0 0 1-.758 5.528 13.549 13.549 0 0 1-3.165 4.7l-.045.045-.045.045.49 2.452a1.267 1.267 0 0 1-.033.646 1.377 1.377 0 0 1-.345.557l-3.814 3.837-1.891-4.417-3.79-3.786-4.413-1.895 3.834-3.811a1.377 1.377 0 0 1 .56-.346 1.267 1.267 0 0 1 .646-.033l2.452.49a.175.175 0 0 1 .045-.033.175.175 0 0 0 .045-.033 13.69 13.69 0 0 1 4.7-3.176 12.774 12.774 0 0 1 5.527-.77Zm-16.315 12.304a2.632 2.632 0 0 1 1.906-.791 2.627 2.627 0 0 1 2.674 2.674 2.632 2.632 0 0 1-.791 1.906 4.349 4.349 0 0 1-1.794.958 24.289 24.289 0 0 1-3.644.713 26.028 26.028 0 0 1 .7-3.655 4.266 4.266 0 0 1 .949-1.805Zm.936.958a2.953 2.953 0 0 0-.557 1.048 11.21 11.21 0 0 0-.423 1.828 11.209 11.209 0 0 0 1.828-.424 2.953 2.953 0 0 0 1.048-.557 1.254 1.254 0 0 0 .435-.947 1.335 1.335 0 0 0-1.382-1.382 1.254 1.254 0 0 0-.947.435Z"/><path fill="#003232" d="M425.755 258.063a.719.719 0 0 1-.522-.211.718.718 0 0 1-.216-.535.722.722 0 0 1 .212-.54.723.723 0 0 1 .526-.207.723.723 0 0 1 .526.207.722.722 0 0 1 .211.54.718.718 0 0 1-.216.535.719.719 0 0 1-.521.211Zm2.245 0a.719.719 0 0 1-.526-.211.718.718 0 0 1-.216-.536.722.722 0 0 1 .211-.54.723.723 0 0 1 .531-.207.723.723 0 0 1 .527.207.722.722 0 0 1 .211.54.718.718 0 0 1-.216.535.719.719 0 0 1-.522.212Zm2.25 0a.719.719 0 0 1-.522-.211.718.718 0 0 1-.216-.535.722.722 0 0 1 .212-.54.723.723 0 0 1 .526-.207.723.723 0 0 1 .527.207.722.722 0 0 1 .212.54.718.718 0 0 1-.216.535.719.719 0 0 1-.528.211Z" data-name="路径 514"/><path fill="#003232" d="M404.582 236.681v1.919h2.818v.99h-2.815V242H403.5v-6.3h4.256v.981Zm8.72.513V242h-.991v-.612a1.673 1.673 0 0 1-.625.5 1.881 1.881 0 0 1-.808.176 1.85 1.85 0 0 1-1.4-.535 2.216 2.216 0 0 1-.512-1.589v-2.746H410v2.592a1.469 1.469 0 0 0 .271.967.954.954 0 0 0 .77.32 1.122 1.122 0 0 0 .887-.374 1.578 1.578 0 0 0 .329-1.075v-2.43Zm4.306-.054a1.781 1.781 0 0 1 1.349.531 2.2 2.2 0 0 1 .508 1.575V242h-1.041v-2.61a1.422 1.422 0 0 0-.275-.95.976.976 0 0 0-.783-.319 1.155 1.155 0 0 0-.908.374 1.565 1.565 0 0 0-.333 1.075V242h-1.041v-4.806h.991v.621a1.638 1.638 0 0 1 .65-.5 2.184 2.184 0 0 1 .883-.175Zm5.68 4.923a2.451 2.451 0 0 1-1.241-.315 2.221 2.221 0 0 1-.858-.877 2.607 2.607 0 0 1-.308-1.271 2.581 2.581 0 0 1 .308-1.269 2.237 2.237 0 0 1 .854-.873 2.444 2.444 0 0 1 1.245-.318 2.254 2.254 0 0 1 1.153.288 1.811 1.811 0 0 1 .745.828l-.8.5a1.32 1.32 0 0 0-.479-.5 1.232 1.232 0 0 0-.629-.167 1.267 1.267 0 0 0-.966.409 1.536 1.536 0 0 0-.382 1.102 1.546 1.546 0 0 0 .379 1.093 1.263 1.263 0 0 0 .97.409 1.232 1.232 0 0 0 .629-.167 1.32 1.32 0 0 0 .479-.5l.8.5a1.886 1.886 0 0 1-.754.833 2.21 2.21 0 0 1-1.145.295Zm5.946-.324a1.194 1.194 0 0 1-.446.243 1.867 1.867 0 0 1-.554.081 1.5 1.5 0 0 1-1.134-.414 1.669 1.669 0 0 1-.4-1.206v-2.313h-.733v-.9h.733v-1.1h1.041v1.1h1.191v.9h-1.189v2.286a.8.8 0 0 0 .158.536.57.57 0 0 0 .458.184.869.869 0 0 0 .583-.2Zm1.274-4.545h1.041V242h-1.041Zm.525-.794a.641.641 0 0 1-.475-.194.657.657 0 0 1-.192-.482.657.657 0 0 1 .192-.482.641.641 0 0 1 .475-.193.658.658 0 0 1 .475.184.617.617 0 0 1 .192.467.708.708 0 0 1-.187.5.624.624 0 0 1-.48.2Zm4.297 5.663a2.373 2.373 0 0 1-1.216-.315 2.209 2.209 0 0 1-.845-.877 2.635 2.635 0 0 1-.3-1.273 2.609 2.609 0 0 1 .3-1.269 2.217 2.217 0 0 1 .845-.873 2.373 2.373 0 0 1 1.216-.316 2.389 2.389 0 0 1 1.224.315 2.217 2.217 0 0 1 .845.873 2.609 2.609 0 0 1 .301 1.272 2.635 2.635 0 0 1-.3 1.273 2.209 2.209 0 0 1-.845.877 2.389 2.389 0 0 1-1.225.313Zm0-.963a1.225 1.225 0 0 0 .949-.414 1.56 1.56 0 0 0 .375-1.086 1.56 1.56 0 0 0-.374-1.092 1.225 1.225 0 0 0-.949-.414 1.212 1.212 0 0 0-.945.414 1.571 1.571 0 0 0-.372 1.092 1.571 1.571 0 0 0 .371 1.089 1.212 1.212 0 0 0 .945.411Zm6.313-3.96a1.781 1.781 0 0 1 1.349.531 2.2 2.2 0 0 1 .508 1.575V242h-1.041v-2.61a1.422 1.422 0 0 0-.275-.95.976.976 0 0 0-.783-.319 1.155 1.155 0 0 0-.908.374 1.565 1.565 0 0 0-.333 1.075V242h-1.04v-4.806h.991v.621a1.638 1.638 0 0 1 .65-.5 2.184 2.184 0 0 1 .882-.175Zm9.111 4.95a3.089 3.089 0 0 1-1.595-.418 2.967 2.967 0 0 1-1.116-1.157 3.41 3.41 0 0 1-.4-1.665 3.382 3.382 0 0 1 .408-1.665 3 3 0 0 1 1.12-1.156 3.089 3.089 0 0 1 1.595-.418 3.111 3.111 0 0 1 1.308.27 2.687 2.687 0 0 1 1 .783l-.7.711a1.974 1.974 0 0 0-1.557-.738 2.055 2.055 0 0 0-1.074.284 1.969 1.969 0 0 0-.743.786 2.407 2.407 0 0 0-.27 1.143 2.407 2.407 0 0 0 .27 1.143 1.969 1.969 0 0 0 .741.788 2.055 2.055 0 0 0 1.074.283 1.965 1.965 0 0 0 1.557-.747l.7.72a2.678 2.678 0 0 1-1 .783 3.139 3.139 0 0 1-1.318.27Z" data-name="路径 513"/><path fill="#7d7d7d" d="m421.496 219.301 2.363 1q.4-.8.858-1.583t.97-1.493l-1.761-.354Zm3.433 1.805 2.964 2.964a17.521 17.521 0 0 0 2.385-1.315 11.59 11.59 0 0 0 1.806-1.428 12.541 12.541 0 0 0 2.652-3.7 11.159 11.159 0 0 0 .914-4.28 11.159 11.159 0 0 0-4.28.914 12.541 12.541 0 0 0-3.7 2.652 11.59 11.59 0 0 0-1.427 1.805 17.521 17.521 0 0 0-1.315 2.385Zm5.1-2.14a1.588 1.588 0 1 1 1.1.446 1.5 1.5 0 0 1-1.096-.446Zm-.334 8.537 2.43-2.43-.357-1.761q-.713.513-1.493.97t-1.583.858Zm7.27-15.469a12.887 12.887 0 0 1-.758 5.528 13.549 13.549 0 0 1-3.165 4.7l-.045.045-.045.045.49 2.452a1.267 1.267 0 0 1-.033.646 1.377 1.377 0 0 1-.345.557l-3.814 3.837-1.891-4.417-3.79-3.786-4.413-1.895 3.834-3.811a1.377 1.377 0 0 1 .56-.346 1.267 1.267 0 0 1 .646-.033l2.452.49a.175.175 0 0 1 .045-.033.175.175 0 0 0 .045-.033 13.69 13.69 0 0 1 4.7-3.176 12.774 12.774 0 0 1 5.527-.77Zm-16.315 12.304a2.632 2.632 0 0 1 1.906-.791 2.627 2.627 0 0 1 2.674 2.674 2.632 2.632 0 0 1-.791 1.906 4.349 4.349 0 0 1-1.794.958 24.289 24.289 0 0 1-3.644.713 26.028 26.028 0 0 1 .7-3.655 4.266 4.266 0 0 1 .949-1.805Zm.936.958a2.953 2.953 0 0 0-.557 1.048 11.21 11.21 0 0 0-.423 1.828 11.209 11.209 0 0 0 1.828-.424 2.953 2.953 0 0 0 1.048-.557 1.254 1.254 0 0 0 .435-.947 1.335 1.335 0 0 0-1.382-1.382 1.254 1.254 0 0 0-.947.435Z" data-name="icon_Function"/><path fill="#003232" d="M404.429 190.681v1.919h2.816v.99h-2.816V196h-1.083v-6.3h4.254v.981Zm8.722.513V196h-.991v-.612a1.673 1.673 0 0 1-.625.5 1.882 1.882 0 0 1-.808.176 1.851 1.851 0 0 1-1.4-.535 2.215 2.215 0 0 1-.512-1.589v-2.746h1.041v2.592a1.469 1.469 0 0 0 .271.967.954.954 0 0 0 .771.32 1.123 1.123 0 0 0 .887-.374 1.578 1.578 0 0 0 .329-1.075v-2.43Zm4.307-.054a1.781 1.781 0 0 1 1.35.531 2.2 2.2 0 0 1 .508 1.575V196h-1.041v-2.61a1.422 1.422 0 0 0-.275-.949.977.977 0 0 0-.783-.319 1.155 1.155 0 0 0-.908.374 1.564 1.564 0 0 0-.333 1.075V196h-1.041v-4.806h.991v.621a1.639 1.639 0 0 1 .65-.5 2.185 2.185 0 0 1 .882-.175Zm5.682 4.923a2.452 2.452 0 0 1-1.24-.315 2.221 2.221 0 0 1-.858-.877 2.606 2.606 0 0 1-.31-1.271 2.58 2.58 0 0 1 .308-1.269 2.238 2.238 0 0 1 .854-.873 2.446 2.446 0 0 1 1.246-.318 2.255 2.255 0 0 1 1.154.288 1.811 1.811 0 0 1 .746.828l-.8.5a1.32 1.32 0 0 0-.479-.5 1.233 1.233 0 0 0-.629-.167 1.267 1.267 0 0 0-.966.409 1.536 1.536 0 0 0-.384 1.102 1.546 1.546 0 0 0 .379 1.093 1.264 1.264 0 0 0 .971.407 1.233 1.233 0 0 0 .629-.167 1.32 1.32 0 0 0 .479-.5l.8.5a1.886 1.886 0 0 1-.754.833 2.211 2.211 0 0 1-1.146.297Zm5.948-.324a1.2 1.2 0 0 1-.446.243 1.868 1.868 0 0 1-.554.081 1.5 1.5 0 0 1-1.133-.414 1.669 1.669 0 0 1-.4-1.206v-2.313h-.733v-.9h.733v-1.1h1.045v1.1h1.191v.9H427.6v2.286a.8.8 0 0 0 .158.536.571.571 0 0 0 .458.184.87.87 0 0 0 .583-.2Zm1.274-4.545h1.038V196h-1.038Zm.525-.794a.642.642 0 0 1-.475-.194.657.657 0 0 1-.192-.482.657.657 0 0 1 .192-.482.642.642 0 0 1 .475-.193.658.658 0 0 1 .475.184.617.617 0 0 1 .192.464.708.708 0 0 1-.187.5.624.624 0 0 1-.48.203Zm4.299 5.663a2.374 2.374 0 0 1-1.216-.315 2.209 2.209 0 0 1-.846-.877 2.635 2.635 0 0 1-.304-1.271 2.609 2.609 0 0 1 .3-1.269 2.217 2.217 0 0 1 .846-.873 2.374 2.374 0 0 1 1.22-.318 2.39 2.39 0 0 1 1.225.315 2.217 2.217 0 0 1 .846.873 2.609 2.609 0 0 1 .303 1.272 2.635 2.635 0 0 1-.3 1.273 2.209 2.209 0 0 1-.846.877 2.39 2.39 0 0 1-1.228.313Zm0-.963a1.225 1.225 0 0 0 .95-.414 1.56 1.56 0 0 0 .374-1.086 1.56 1.56 0 0 0-.375-1.089 1.225 1.225 0 0 0-.95-.414 1.213 1.213 0 0 0-.946.414 1.571 1.571 0 0 0-.369 1.089 1.571 1.571 0 0 0 .37 1.086 1.213 1.213 0 0 0 .946.414Zm6.314-3.96a1.781 1.781 0 0 1 1.35.531 2.2 2.2 0 0 1 .508 1.575V196h-1.041v-2.61a1.422 1.422 0 0 0-.275-.95.977.977 0 0 0-.783-.319 1.155 1.155 0 0 0-.908.374 1.564 1.564 0 0 0-.333 1.075V196h-1.042v-4.806h.991v.621a1.639 1.639 0 0 1 .65-.5 2.185 2.185 0 0 1 .883-.175Zm10.547 1.584a1.543 1.543 0 0 1 .766.572 1.679 1.679 0 0 1 .283.994 1.5 1.5 0 0 1-.583 1.265 2.763 2.763 0 0 1-1.7.445h-2.9v-6.3h2.732a2.533 2.533 0 0 1 1.591.437 1.441 1.441 0 0 1 .558 1.2 1.677 1.677 0 0 1-.2.828 1.419 1.419 0 0 1-.547.559ZM449 190.618v1.737h1.533a1.467 1.467 0 0 0 .871-.221.745.745 0 0 0 .3-.643.754.754 0 0 0-.3-.653 1.467 1.467 0 0 0-.871-.22Zm1.747 4.464q1.258 0 1.258-.909t-1.258-.909H449v1.818Z" data-name="路径 512"/><path fill="#7d7d7d" d="m421.496 173.301 2.363 1q.4-.8.858-1.583t.97-1.493l-1.761-.354Zm3.433 1.805 2.964 2.964a17.521 17.521 0 0 0 2.385-1.315 11.59 11.59 0 0 0 1.806-1.428 12.541 12.541 0 0 0 2.652-3.7 11.159 11.159 0 0 0 .914-4.28 11.159 11.159 0 0 0-4.28.914 12.541 12.541 0 0 0-3.7 2.652 11.59 11.59 0 0 0-1.427 1.805 17.521 17.521 0 0 0-1.315 2.385Zm5.1-2.14a1.588 1.588 0 1 1 1.1.446 1.5 1.5 0 0 1-1.096-.446Zm-.334 8.537 2.43-2.43-.357-1.761q-.713.513-1.493.97t-1.583.858Zm7.27-15.469a12.887 12.887 0 0 1-.758 5.528 13.549 13.549 0 0 1-3.165 4.7l-.045.045-.045.045.49 2.452a1.267 1.267 0 0 1-.033.646 1.377 1.377 0 0 1-.345.557l-3.814 3.837-1.891-4.417-3.79-3.786-4.413-1.895 3.834-3.811a1.377 1.377 0 0 1 .56-.346 1.267 1.267 0 0 1 .646-.033l2.452.49a.175.175 0 0 1 .045-.033.175.175 0 0 0 .045-.033 13.69 13.69 0 0 1 4.7-3.176 12.774 12.774 0 0 1 5.527-.77Zm-16.315 12.304a2.632 2.632 0 0 1 1.906-.791 2.627 2.627 0 0 1 2.674 2.674 2.632 2.632 0 0 1-.791 1.906 4.349 4.349 0 0 1-1.794.958 24.289 24.289 0 0 1-3.644.713 26.028 26.028 0 0 1 .7-3.655 4.266 4.266 0 0 1 .949-1.805Zm.936.958a2.953 2.953 0 0 0-.557 1.048 11.21 11.21 0 0 0-.423 1.828 11.209 11.209 0 0 0 1.828-.424 2.953 2.953 0 0 0 1.048-.557 1.254 1.254 0 0 0 .435-.947 1.335 1.335 0 0 0-1.382-1.382 1.254 1.254 0 0 0-.947.435Z" data-name="icon_Function"/><path fill="#003232" d="M405.462 145.681v1.919h2.761v.99h-2.761V151H404.4v-6.3h4.174v.981Zm8.552.513V151h-.972v-.612a1.647 1.647 0 0 1-.613.5 1.815 1.815 0 0 1-.792.176 1.8 1.8 0 0 1-1.376-.535 2.244 2.244 0 0 1-.5-1.589v-2.746h1.021v2.592a1.49 1.49 0 0 0 .265.967.927.927 0 0 0 .756.32 1.091 1.091 0 0 0 .87-.374 1.6 1.6 0 0 0 .323-1.075v-2.43Zm4.223-.054a1.729 1.729 0 0 1 1.323.531 2.224 2.224 0 0 1 .5 1.575V151h-1.021v-2.61a1.441 1.441 0 0 0-.27-.95.949.949 0 0 0-.769-.319 1.122 1.122 0 0 0-.89.374 1.585 1.585 0 0 0-.327 1.075V151h-1.021v-4.806h.972v.621a1.611 1.611 0 0 1 .637-.5 2.106 2.106 0 0 1 .866-.175Zm5.571 4.923a2.367 2.367 0 0 1-1.217-.315 2.2 2.2 0 0 1-.841-.877 2.648 2.648 0 0 1-.3-1.273 2.622 2.622 0 0 1 .3-1.269 2.218 2.218 0 0 1 .837-.873 2.361 2.361 0 0 1 1.221-.316 2.177 2.177 0 0 1 1.131.288 1.8 1.8 0 0 1 .731.828l-.784.5a1.309 1.309 0 0 0-.47-.5 1.19 1.19 0 0 0-.616-.162 1.231 1.231 0 0 0-.947.409 1.554 1.554 0 0 0-.377 1.097 1.565 1.565 0 0 0 .372 1.093 1.227 1.227 0 0 0 .952.407 1.19 1.19 0 0 0 .617-.167 1.309 1.309 0 0 0 .47-.5l.784.5a1.873 1.873 0 0 1-.739.833 2.135 2.135 0 0 1-1.124.297Zm5.832-.324a1.165 1.165 0 0 1-.44.243 1.8 1.8 0 0 1-.54.081 1.457 1.457 0 0 1-1.111-.414 1.69 1.69 0 0 1-.392-1.206v-2.313h-.719v-.9h.719v-1.1h1.021v1.1h1.168v.9h-1.168v2.286a.812.812 0 0 0 .155.536.554.554 0 0 0 .449.184.842.842 0 0 0 .572-.2Zm1.25-4.545h1.021V151h-1.022Zm.51-.794a.623.623 0 0 1-.466-.194.664.664 0 0 1-.188-.482.664.664 0 0 1 .188-.482.623.623 0 0 1 .466-.19.638.638 0 0 1 .466.184.623.623 0 0 1 .188.464.716.716 0 0 1-.184.5.606.606 0 0 1-.47.2Zm4.219 5.663a2.292 2.292 0 0 1-1.193-.315 2.191 2.191 0 0 1-.826-.877 2.677 2.677 0 0 1-.3-1.271 2.651 2.651 0 0 1 .3-1.269 2.2 2.2 0 0 1 .829-.873 2.292 2.292 0 0 1 1.19-.318 2.308 2.308 0 0 1 1.2.315 2.2 2.2 0 0 1 .829.873 2.651 2.651 0 0 1 .3 1.269 2.677 2.677 0 0 1-.3 1.273 2.191 2.191 0 0 1-.829.877 2.308 2.308 0 0 1-1.2.316Zm0-.963a1.191 1.191 0 0 0 .931-.414 1.579 1.579 0 0 0 .368-1.086 1.579 1.579 0 0 0-.368-1.092 1.191 1.191 0 0 0-.931-.414 1.179 1.179 0 0 0-.927.414 1.591 1.591 0 0 0-.364 1.092 1.591 1.591 0 0 0 .363 1.089 1.179 1.179 0 0 0 .928.411Zm6.191-3.96a1.729 1.729 0 0 1 1.323.531 2.224 2.224 0 0 1 .5 1.575V151h-1.022v-2.61a1.441 1.441 0 0 0-.27-.95.949.949 0 0 0-.768-.319 1.122 1.122 0 0 0-.89.374 1.585 1.585 0 0 0-.327 1.075V151h-1.021v-4.806h.972v.621a1.611 1.611 0 0 1 .637-.5 2.106 2.106 0 0 1 .866-.175Zm10 3.4h-2.861l-.564 1.46h-1.094l2.573-6.3h1.046l2.581 6.3h-1.111Zm-.351-.918-1.081-2.752-1.07 2.754Z" data-name="路径 511"/><path fill="#7d7d7d" d="m421.496 127.301 2.363 1q.4-.8.858-1.583t.97-1.493l-1.761-.354Zm3.433 1.805 2.964 2.964a17.521 17.521 0 0 0 2.385-1.315 11.59 11.59 0 0 0 1.806-1.428 12.541 12.541 0 0 0 2.652-3.7 11.159 11.159 0 0 0 .914-4.28 11.159 11.159 0 0 0-4.28.914 12.541 12.541 0 0 0-3.7 2.652 11.59 11.59 0 0 0-1.427 1.805 17.521 17.521 0 0 0-1.315 2.385Zm5.1-2.14a1.588 1.588 0 1 1 1.1.446 1.5 1.5 0 0 1-1.096-.446Zm-.334 8.537 2.43-2.43-.357-1.761q-.713.513-1.493.97t-1.583.858Zm7.27-15.469a12.887 12.887 0 0 1-.758 5.528 13.549 13.549 0 0 1-3.165 4.7l-.045.045-.045.045.49 2.452a1.267 1.267 0 0 1-.033.646 1.377 1.377 0 0 1-.345.557l-3.814 3.837-1.891-4.417-3.79-3.786-4.413-1.895 3.834-3.811a1.377 1.377 0 0 1 .56-.346 1.267 1.267 0 0 1 .646-.033l2.452.49a.175.175 0 0 1 .045-.033.175.175 0 0 0 .045-.033 13.69 13.69 0 0 1 4.7-3.176 12.774 12.774 0 0 1 5.527-.77Zm-16.315 12.304a2.632 2.632 0 0 1 1.906-.791 2.627 2.627 0 0 1 2.674 2.674 2.632 2.632 0 0 1-.791 1.906 4.349 4.349 0 0 1-1.794.958 24.289 24.289 0 0 1-3.644.713 26.028 26.028 0 0 1 .7-3.655 4.266 4.266 0 0 1 .949-1.805Zm.936.958a2.953 2.953 0 0 0-.557 1.048 11.21 11.21 0 0 0-.423 1.828 11.209 11.209 0 0 0 1.828-.424 2.953 2.953 0 0 0 1.048-.557 1.254 1.254 0 0 0 .435-.947 1.335 1.335 0 0 0-1.382-1.382 1.254 1.254 0 0 0-.947.435Z" data-name="icon_Function"/><path fill="#01d9ca" fill-rule="evenodd" d="m385.471 211.871.155.155-5.81 5.8-.645-.645 4.887-4.879h-63.876v-.922h63.87l-4.911-4.9.652-.651 5.862 5.858Z" data-name="about_arrow_icon"/><path fill="#003232" d="M239.453 220.7a3.145 3.145 0 0 1 1.349.27 1.993 1.993 0 0 1 .881.774 2.259 2.259 0 0 1 .306 1.2 2.265 2.265 0 0 1-.306 1.192 1.984 1.984 0 0 1-.881.779 3.145 3.145 0 0 1-1.349.27h-1.345V227H237v-6.3Zm-.053 3.492a1.635 1.635 0 0 0 1.1-.324 1.159 1.159 0 0 0 .375-.927 1.159 1.159 0 0 0-.375-.927 1.635 1.635 0 0 0-1.1-.324h-1.294v2.5Zm4.989-1.3a1.738 1.738 0 0 1 1.618-.756v1.071a1.281 1.281 0 0 0-.247-.027 1.248 1.248 0 0 0-.971.382 1.58 1.58 0 0 0-.349 1.1V227h-1.064v-4.806h1.013Zm4.949 4.171a2.468 2.468 0 0 1-1.243-.315 2.232 2.232 0 0 1-.864-.877 2.589 2.589 0 0 1-.311-1.271 2.564 2.564 0 0 1 .311-1.269 2.24 2.24 0 0 1 .864-.873 2.468 2.468 0 0 1 1.243-.315 2.485 2.485 0 0 1 1.252.315 2.24 2.24 0 0 1 .864.873 2.564 2.564 0 0 1 .31 1.269 2.589 2.589 0 0 1-.311 1.273 2.232 2.232 0 0 1-.864.877 2.485 2.485 0 0 1-1.251.313Zm0-.963a1.265 1.265 0 0 0 .971-.414 1.54 1.54 0 0 0 .382-1.086 1.54 1.54 0 0 0-.383-1.089 1.265 1.265 0 0 0-.971-.414 1.252 1.252 0 0 0-.966.414 1.55 1.55 0 0 0-.379 1.089 1.55 1.55 0 0 0 .379 1.089 1.252 1.252 0 0 0 .967.411Zm6.394-3.96a2.31 2.31 0 0 1 1.188.306 2.15 2.15 0 0 1 .822.864 2.691 2.691 0 0 1 .3 1.287 2.717 2.717 0 0 1-.3 1.291 2.143 2.143 0 0 1-.822.869 2.31 2.31 0 0 1-1.188.306 2.1 2.1 0 0 1-.856-.171 1.657 1.657 0 0 1-.651-.513V227h-1.013v-6.678h1.064v2.457a1.79 1.79 0 0 1 .643-.477 2.007 2.007 0 0 1 .812-.162Zm-.12 3.96a1.252 1.252 0 0 0 .966-.414 1.55 1.55 0 0 0 .379-1.086 1.55 1.55 0 0 0-.379-1.089 1.252 1.252 0 0 0-.966-.414 1.311 1.311 0 0 0-.69.184 1.3 1.3 0 0 0-.485.527 1.685 1.685 0 0 0-.179.792 1.685 1.685 0 0 0 .179.792 1.3 1.3 0 0 0 .485.527 1.311 1.311 0 0 0 .69.181Zm5.543-3.96a2.139 2.139 0 0 1 1.537.509 2.029 2.029 0 0 1 .532 1.535V227h-1v-.585a1.256 1.256 0 0 1-.558.481 2.077 2.077 0 0 1-.873.167 2.039 2.039 0 0 1-.894-.185 1.4 1.4 0 0 1-.599-.513 1.356 1.356 0 0 1-.209-.742 1.3 1.3 0 0 1 .455-1.04 2.172 2.172 0 0 1 1.435-.391h1.175v-.072a1.015 1.015 0 0 0-.285-.774 1.19 1.19 0 0 0-.847-.27 2.325 2.325 0 0 0-.753.126 1.821 1.821 0 0 0-.626.351l-.417-.819a2.528 2.528 0 0 1 .86-.441 3.633 3.633 0 0 1 1.067-.153Zm-.145 4.1a1.317 1.317 0 0 0 .711-.193 1.041 1.041 0 0 0 .438-.554v-.558h-1.1q-.919 0-.919.639a.585.585 0 0 0 .23.486 1.012 1.012 0 0 0 .64.184Zm6.522-4.1a2.31 2.31 0 0 1 1.188.306 2.15 2.15 0 0 1 .822.864 2.691 2.691 0 0 1 .3 1.287 2.717 2.717 0 0 1-.3 1.291 2.143 2.143 0 0 1-.822.869 2.31 2.31 0 0 1-1.188.306 2.1 2.1 0 0 1-.856-.171 1.657 1.657 0 0 1-.651-.513V227h-1.013v-6.678h1.064v2.457a1.79 1.79 0 0 1 .643-.477 2.007 2.007 0 0 1 .813-.162Zm-.12 3.96a1.252 1.252 0 0 0 .966-.414 1.55 1.55 0 0 0 .38-1.086 1.55 1.55 0 0 0-.379-1.089 1.252 1.252 0 0 0-.966-.414 1.311 1.311 0 0 0-.69.184 1.3 1.3 0 0 0-.485.527 1.685 1.685 0 0 0-.179.792 1.685 1.685 0 0 0 .179.792 1.3 1.3 0 0 0 .485.527 1.311 1.311 0 0 0 .689.181Zm3.865-3.906h1.064V227h-1.064Zm.536-.792a.663.663 0 0 1-.485-.194.65.65 0 0 1-.2-.482.65.65 0 0 1 .2-.482.663.663 0 0 1 .485-.193.681.681 0 0 1 .485.184.61.61 0 0 1 .2.464.7.7 0 0 1-.192.5.644.644 0 0 1-.492.201Zm2.35-1.08h1.064V227h-1.063Zm2.887 1.872h1.064V227h-1.064Zm.536-.792a.663.663 0 0 1-.486-.193.65.65 0 0 1-.2-.482.65.65 0 0 1 .2-.482.663.663 0 0 1 .485-.193.681.681 0 0 1 .485.184.61.61 0 0 1 .2.464.7.7 0 0 1-.192.5.644.644 0 0 1-.492.2Zm3.755 5.661a3.865 3.865 0 0 1-1.081-.153 2.649 2.649 0 0 1-.843-.387l.409-.855a2.56 2.56 0 0 0 .736.347 2.906 2.906 0 0 0 .847.13q.954 0 .954-.531a.353.353 0 0 0-.243-.351 4 4 0 0 0-.779-.189 6.027 6.027 0 0 1-.915-.207 1.4 1.4 0 0 1-.613-.409 1.185 1.185 0 0 1-.26-.814 1.3 1.3 0 0 1 .541-1.094 2.362 2.362 0 0 1 1.46-.41 4 4 0 0 1 .937.113 2.54 2.54 0 0 1 .766.3l-.409.855a2.416 2.416 0 0 0-1.3-.36 1.378 1.378 0 0 0-.711.148.445.445 0 0 0-.243.392.39.39 0 0 0 .26.383 3.947 3.947 0 0 0 .8.211 5.922 5.922 0 0 1 .896.208 1.391 1.391 0 0 1 .6.4 1.144 1.144 0 0 1 .25.788 1.273 1.273 0 0 1-.552 1.08 2.5 2.5 0 0 1-1.507.405Zm6.139-.324a1.229 1.229 0 0 1-.455.243 1.948 1.948 0 0 1-.566.081 1.554 1.554 0 0 1-1.159-.414 1.647 1.647 0 0 1-.409-1.206v-2.313h-.749v-.9h.749v-1.1h1.065v1.1h1.217v.9h-1.217v2.286a.789.789 0 0 0 .162.536.589.589 0 0 0 .468.184.9.9 0 0 0 .6-.2Zm1.3-4.545h1.066V227h-1.064Zm.539-.794a.663.663 0 0 1-.485-.194.65.65 0 0 1-.2-.482.65.65 0 0 1 .2-.482.663.663 0 0 1 .485-.193.681.681 0 0 1 .485.184.61.61 0 0 1 .196.467.7.7 0 0 1-.192.5.644.644 0 0 1-.489.2Zm4.435 5.663a2.549 2.549 0 0 1-1.268-.315 2.245 2.245 0 0 1-.877-.877 2.561 2.561 0 0 1-.315-1.271 2.536 2.536 0 0 1 .315-1.269 2.261 2.261 0 0 1 .873-.873 2.543 2.543 0 0 1 1.273-.315 2.345 2.345 0 0 1 1.179.288 1.825 1.825 0 0 1 .762.828l-.817.5a1.333 1.333 0 0 0-.49-.5 1.281 1.281 0 0 0-.643-.167 1.309 1.309 0 0 0-.988.409 1.516 1.516 0 0 0-.391 1.099 1.526 1.526 0 0 0 .387 1.093 1.305 1.305 0 0 0 .992.409 1.281 1.281 0 0 0 .643-.167 1.333 1.333 0 0 0 .49-.5l.817.5a1.9 1.9 0 0 1-.771.833 2.3 2.3 0 0 1-1.171.295Zm10.03-1.521H300.8l-.584 1.458h-1.141l2.682-6.3h1.09l2.69 6.3h-1.157Zm-.366-.918-1.124-2.754-1.116 2.754Zm4.563 2.439a3.865 3.865 0 0 1-1.081-.153 2.649 2.649 0 0 1-.843-.387l.409-.855a2.56 2.56 0 0 0 .736.347 2.906 2.906 0 0 0 .847.13q.951 0 .951-.531a.353.353 0 0 0-.243-.351 4 4 0 0 0-.779-.189 6.027 6.027 0 0 1-.915-.207 1.4 1.4 0 0 1-.613-.409 1.185 1.185 0 0 1-.26-.814 1.3 1.3 0 0 1 .541-1.094 2.362 2.362 0 0 1 1.46-.41 4 4 0 0 1 .937.113 2.54 2.54 0 0 1 .766.3l-.409.855a2.416 2.416 0 0 0-1.3-.36 1.378 1.378 0 0 0-.711.148.445.445 0 0 0-.243.392.39.39 0 0 0 .26.383 3.947 3.947 0 0 0 .8.211 5.922 5.922 0 0 1 .894.207 1.391 1.391 0 0 1 .6.4 1.144 1.144 0 0 1 .251.792 1.273 1.273 0 0 1-.553 1.08 2.5 2.5 0 0 1-1.502.402Zm4.81 0a3.865 3.865 0 0 1-1.081-.153 2.649 2.649 0 0 1-.843-.387l.409-.855a2.56 2.56 0 0 0 .736.347 2.906 2.906 0 0 0 .847.13q.954 0 .954-.531a.353.353 0 0 0-.243-.351 4 4 0 0 0-.779-.189 6.027 6.027 0 0 1-.915-.207 1.4 1.4 0 0 1-.613-.409 1.185 1.185 0 0 1-.263-.815 1.3 1.3 0 0 1 .541-1.094 2.362 2.362 0 0 1 1.459-.409 4 4 0 0 1 .937.113 2.54 2.54 0 0 1 .766.3l-.409.855a2.416 2.416 0 0 0-1.3-.36 1.378 1.378 0 0 0-.711.148.445.445 0 0 0-.243.392.39.39 0 0 0 .26.383 3.946 3.946 0 0 0 .8.211 5.922 5.922 0 0 1 .9.208 1.39 1.39 0 0 1 .6.4 1.144 1.144 0 0 1 .251.792 1.273 1.273 0 0 1-.551 1.076 2.5 2.5 0 0 1-1.509.405Zm7.679-2.439q0 .117-.017.333h-3.567a1.32 1.32 0 0 0 .49.842 1.545 1.545 0 0 0 .983.31 1.612 1.612 0 0 0 1.235-.522l.57.693a1.929 1.929 0 0 1-.775.585 2.687 2.687 0 0 1-1.056.2 2.685 2.685 0 0 1-1.32-.315 2.2 2.2 0 0 1-.881-.877 2.589 2.589 0 0 1-.31-1.273 2.629 2.629 0 0 1 .3-1.265 2.207 2.207 0 0 1 .839-.878 2.342 2.342 0 0 1 1.209-.315 2.284 2.284 0 0 1 1.188.311 2.145 2.145 0 0 1 .817.873 2.77 2.77 0 0 1 .296 1.298Zm-2.3-1.584a1.242 1.242 0 0 0-.864.319 1.368 1.368 0 0 0-.43.851h2.58a1.352 1.352 0 0 0-.417-.846 1.228 1.228 0 0 0-.867-.324Zm6.479 3.7a1.229 1.229 0 0 1-.455.243 1.948 1.948 0 0 1-.566.081 1.554 1.554 0 0 1-1.158-.414 1.647 1.647 0 0 1-.409-1.206v-2.314h-.749v-.9h.749v-1.1h1.064v1.1h1.217v.9h-1.215v2.286a.789.789 0 0 0 .162.536.589.589 0 0 0 .468.184.9.9 0 0 0 .6-.2Z" data-name="路径 510"/><path fill="#7d7d7d" d="M279.348 212.458h1.237v-1.17a3.76 3.76 0 0 0 2.138-.844 2.342 2.342 0 0 0 .765-1.834 2.674 2.674 0 0 0-.653-1.867 6.274 6.274 0 0 0-2.2-1.373 9.656 9.656 0 0 1-1.89-.967 1.35 1.35 0 0 1-.585-1.147 1.336 1.336 0 0 1 .506-1.1 2.156 2.156 0 0 1 1.384-.4 2.133 2.133 0 0 1 1.17.315 2.464 2.464 0 0 1 .832.945l1.08-.518a3.2 3.2 0 0 0-1.012-1.238 3.056 3.056 0 0 0-1.485-.54v-1.155h-1.243v1.148a3 3 0 0 0-1.811.844 2.348 2.348 0 0 0-.664 1.7 2.328 2.328 0 0 0 .675 1.755 6.54 6.54 0 0 0 2.025 1.215 7.814 7.814 0 0 1 2.07 1.136 1.614 1.614 0 0 1 .563 1.249 1.371 1.371 0 0 1-.6 1.159 2.457 2.457 0 0 1-1.5.439 2.606 2.606 0 0 1-1.564-.495 2.566 2.566 0 0 1-.956-1.35l-1.148.382a4.711 4.711 0 0 0 1.159 1.631 4.192 4.192 0 0 0 1.7.866ZM280 215a8.708 8.708 0 0 1-3.487-.709 9.068 9.068 0 0 1-4.8-4.8 8.99 8.99 0 0 1 0-7 8.994 8.994 0 0 1 1.931-2.858 9.226 9.226 0 0 1 2.868-1.924 8.99 8.99 0 0 1 7 0 8.986 8.986 0 0 1 4.779 4.781 8.99 8.99 0 0 1 0 7 9.226 9.226 0 0 1-1.924 2.869 8.994 8.994 0 0 1-2.858 1.935A8.764 8.764 0 0 1 280 215Zm0-1.35a7.361 7.361 0 0 0 5.423-2.239A7.391 7.391 0 0 0 287.65 206a7.38 7.38 0 0 0-2.227-5.422A7.38 7.38 0 0 0 280 198.35a7.391 7.391 0 0 0-5.411 2.227A7.361 7.361 0 0 0 272.35 206a7.372 7.372 0 0 0 2.239 5.411A7.372 7.372 0 0 0 280 213.65Zm0-7.65Z"/><path fill="#01d9ca" d="M197.816 203.09a3.333 3.333 0 0 1-1.666-.419 3.031 3.031 0 0 1-1.165-1.161 3.3 3.3 0 0 1-.423-1.66 3.3 3.3 0 0 1 .423-1.661 3.031 3.031 0 0 1 1.165-1.16 3.333 3.333 0 0 1 1.666-.419 3.333 3.333 0 0 1 1.666.418 3.04 3.04 0 0 1 1.166 1.157 3.288 3.288 0 0 1 .423 1.665 3.288 3.288 0 0 1-.423 1.665 3.04 3.04 0 0 1-1.165 1.156 3.333 3.333 0 0 1-1.667.419Zm0-1.026a2.11 2.11 0 0 0 1.084-.283 2.011 2.011 0 0 0 .76-.792 2.346 2.346 0 0 0 .28-1.139 2.346 2.346 0 0 0-.276-1.138 2.011 2.011 0 0 0-.764-.792 2.11 2.11 0 0 0-1.088-.284 2.11 2.11 0 0 0-1.088.284 2.011 2.011 0 0 0-.76.792 2.346 2.346 0 0 0-.276 1.138 2.346 2.346 0 0 0 .276 1.138 2.011 2.011 0 0 0 .76.792 2.11 2.11 0 0 0 1.092.284Zm10.429.936-.009-4.176-1.986 3.456h-.5l-1.985-3.4V203h-1.07v-6.3h.924l2.4 4.176 2.355-4.176h.926l.006 6.3Zm8.675 0-.008-4.176-1.986 3.456h-.5l-1.986-3.402V203h-1.071v-6.3h.924l2.4 4.176 2.357-4.176h.924l.008 6.3Z" data-name="路径 509"/><path fill="#01d9ca" fill-rule="evenodd" d="m238.471 211.871.155.155-5.81 5.8-.645-.645 4.887-4.879h-63.876v-.922h63.87l-4.911-4.9.652-.651 5.862 5.858Z" data-name="about_arrow_icon"/><path fill="#003232" d="M65.506 227.09a4.3 4.3 0 0 1-1.33-.207 2.723 2.723 0 0 1-1.015-.549l.382-.909a2.959 2.959 0 0 0 .9.5 3.1 3.1 0 0 0 1.066.194 1.759 1.759 0 0 0 .99-.225.69.69 0 0 0 .327-.594.591.591 0 0 0-.183-.446 1.265 1.265 0 0 0-.463-.274q-.28-.1-.765-.225a8.539 8.539 0 0 1-1.1-.342 1.814 1.814 0 0 1-.722-.536 1.5 1.5 0 0 1-.3-.985 1.753 1.753 0 0 1 .268-.95 1.834 1.834 0 0 1 .807-.679 3.109 3.109 0 0 1 1.321-.252 4.041 4.041 0 0 1 1.07.144 2.876 2.876 0 0 1 .909.414l-.348.909a3.337 3.337 0 0 0-.816-.369 2.892 2.892 0 0 0-.824-.126 1.645 1.645 0 0 0-.973.234.734.734 0 0 0-.319.621.577.577 0 0 0 .183.441 1.3 1.3 0 0 0 .463.27q.28.1.765.225a7.708 7.708 0 0 1 1.087.337 1.865 1.865 0 0 1 .726.536 1.466 1.466 0 0 1 .3.972 1.731 1.731 0 0 1-.268.945 1.842 1.842 0 0 1-.811.675 3.138 3.138 0 0 1-1.327.251Zm6.55-.351a1.226 1.226 0 0 1-.455.243 1.94 1.94 0 0 1-.565.081 1.549 1.549 0 0 1-1.155-.414 1.649 1.649 0 0 1-.408-1.206v-2.313h-.748v-.9h.748v-1.1h1.062v1.1h1.215v.9h-1.215v2.286a.79.79 0 0 0 .161.536.588.588 0 0 0 .467.184.9.9 0 0 0 .595-.2Zm3.186.324a2.458 2.458 0 0 1-1.242-.315 2.229 2.229 0 0 1-.862-.877 2.594 2.594 0 0 1-.31-1.273 2.568 2.568 0 0 1 .31-1.269 2.238 2.238 0 0 1 .862-.874 2.458 2.458 0 0 1 1.24-.315 2.475 2.475 0 0 1 1.249.315 2.238 2.238 0 0 1 .862.873 2.568 2.568 0 0 1 .31 1.269 2.593 2.593 0 0 1-.31 1.273 2.229 2.229 0 0 1-.862.877 2.475 2.475 0 0 1-1.247.316Zm0-.963a1.261 1.261 0 0 0 .968-.414 1.542 1.542 0 0 0 .382-1.086 1.542 1.542 0 0 0-.382-1.089 1.261 1.261 0 0 0-.968-.414 1.248 1.248 0 0 0-.964.414 1.552 1.552 0 0 0-.378 1.089 1.552 1.552 0 0 0 .378 1.089 1.248 1.248 0 0 0 .964.411Zm5.947.963a2.539 2.539 0 0 1-1.266-.315 2.243 2.243 0 0 1-.875-.877 2.566 2.566 0 0 1-.315-1.271 2.54 2.54 0 0 1 .314-1.269 2.259 2.259 0 0 1 .871-.873 2.533 2.533 0 0 1 1.27-.315 2.336 2.336 0 0 1 1.177.288 1.824 1.824 0 0 1 .76.828l-.816.5a1.332 1.332 0 0 0-.488-.5 1.276 1.276 0 0 0-.641-.167 1.3 1.3 0 0 0-.985.409 1.518 1.518 0 0 0-.395 1.099 1.528 1.528 0 0 0 .387 1.093 1.3 1.3 0 0 0 .99.409 1.276 1.276 0 0 0 .641-.167 1.332 1.332 0 0 0 .488-.5l.816.5a1.9 1.9 0 0 1-.769.833 2.29 2.29 0 0 1-1.164.295ZM87 222.14a1.836 1.836 0 0 1 1.376.531 2.169 2.169 0 0 1 .518 1.575V227h-1.062v-2.61a1.4 1.4 0 0 0-.28-.95 1.006 1.006 0 0 0-.8-.319 1.189 1.189 0 0 0-.926.374 1.544 1.544 0 0 0-.34 1.075V227h-1.062v-6.678h1.062v2.43a1.723 1.723 0 0 1 .65-.454 2.266 2.266 0 0 1 .864-.158Zm5.4 0a2.132 2.132 0 0 1 1.533.509 2.032 2.032 0 0 1 .531 1.535V227h-1v-.585a1.254 1.254 0 0 1-.556.481 2.068 2.068 0 0 1-.871.167 2.03 2.03 0 0 1-.892-.185 1.4 1.4 0 0 1-.59-.513 1.358 1.358 0 0 1-.208-.742 1.3 1.3 0 0 1 .455-1.04 2.164 2.164 0 0 1 1.431-.391h1.172v-.072a1.016 1.016 0 0 0-.285-.774 1.185 1.185 0 0 0-.845-.27 2.315 2.315 0 0 0-.752.126 1.816 1.816 0 0 0-.624.351l-.416-.819a2.521 2.521 0 0 1 .858-.441 3.618 3.618 0 0 1 1.059-.153Zm-.144 4.1a1.312 1.312 0 0 0 .709-.193 1.04 1.04 0 0 0 .438-.554v-.558h-1.1q-.918 0-.918.639a.585.585 0 0 0 .229.486 1.008 1.008 0 0 0 .644.184Zm5.395.819a3.849 3.849 0 0 1-1.077-.149 2.641 2.641 0 0 1-.841-.387l.408-.855a2.552 2.552 0 0 0 .735.347 2.894 2.894 0 0 0 .845.13q.952 0 .951-.531a.353.353 0 0 0-.242-.351 3.985 3.985 0 0 0-.777-.189 6 6 0 0 1-.913-.207 1.394 1.394 0 0 1-.612-.409 1.186 1.186 0 0 1-.259-.814 1.3 1.3 0 0 1 .539-1.094 2.353 2.353 0 0 1 1.457-.41 3.98 3.98 0 0 1 .935.113 2.531 2.531 0 0 1 .765.3l-.408.855a2.407 2.407 0 0 0-1.3-.36 1.373 1.373 0 0 0-.709.148.445.445 0 0 0-.242.392.39.39 0 0 0 .259.383 3.932 3.932 0 0 0 .8.211 5.9 5.9 0 0 1 .892.207 1.387 1.387 0 0 1 .6.4 1.145 1.145 0 0 1 .251.792 1.274 1.274 0 0 1-.552 1.08 2.493 2.493 0 0 1-1.503.402Zm6.125-.324a1.225 1.225 0 0 1-.455.243 1.94 1.94 0 0 1-.565.081 1.549 1.549 0 0 1-1.156-.41 1.649 1.649 0 0 1-.4-1.206v-2.313h-.748v-.9h.748v-1.1h1.062v1.1h1.215v.9h-1.215v2.286a.79.79 0 0 0 .161.536.588.588 0 0 0 .467.184.9.9 0 0 0 .595-.2Zm1.3-4.545h1.062V227h-1.062Zm.535-.792a.661.661 0 0 1-.484-.194.65.65 0 0 1-.2-.482.65.65 0 0 1 .2-.482.661.661 0 0 1 .484-.193.678.678 0 0 1 .484.184.611.611 0 0 1 .2.464.7.7 0 0 1-.191.5.642.642 0 0 1-.491.205Zm4.428 5.665a2.539 2.539 0 0 1-1.266-.315 2.242 2.242 0 0 1-.875-.877 2.566 2.566 0 0 1-.314-1.271 2.54 2.54 0 0 1 .316-1.272 2.259 2.259 0 0 1 .871-.873 2.533 2.533 0 0 1 1.27-.315 2.336 2.336 0 0 1 1.177.288 1.824 1.824 0 0 1 .76.828l-.816.5a1.332 1.332 0 0 0-.488-.5 1.276 1.276 0 0 0-.641-.167 1.3 1.3 0 0 0-.985.409 1.518 1.518 0 0 0-.393 1.102 1.528 1.528 0 0 0 .387 1.093 1.3 1.3 0 0 0 .99.409 1.276 1.276 0 0 0 .641-.167 1.332 1.332 0 0 0 .488-.5l.816.5a1.9 1.9 0 0 1-.769.833 2.29 2.29 0 0 1-1.169.295Zm6.151-6.363h1.1v6.3h-1.1Zm5.61 1.44a1.836 1.836 0 0 1 1.376.531 2.169 2.169 0 0 1 .518 1.575V227h-1.064v-2.61a1.4 1.4 0 0 0-.28-.95 1.006 1.006 0 0 0-.8-.319 1.19 1.19 0 0 0-.926.374 1.544 1.544 0 0 0-.34 1.075V227h-1.062v-4.806h1.011v.621a1.667 1.667 0 0 1 .663-.5 2.267 2.267 0 0 1 .904-.175Zm5.514-.972q-.671 0-.671.774v.288h1.249v.9h-1.218V227h-1.062v-3.87h-.748v-.9h.748v-.306a1.7 1.7 0 0 1 .424-1.224 1.576 1.576 0 0 1 1.2-.445 1.569 1.569 0 0 1 .96.261l-.3.846a.976.976 0 0 0-.585-.194Zm3.686 5.895a2.458 2.458 0 0 1-1.24-.315 2.229 2.229 0 0 1-.86-.877 2.594 2.594 0 0 1-.315-1.271 2.568 2.568 0 0 1 .315-1.272 2.238 2.238 0 0 1 .862-.873 2.458 2.458 0 0 1 1.238-.315 2.475 2.475 0 0 1 1.249.315 2.238 2.238 0 0 1 .862.873 2.568 2.568 0 0 1 .308 1.272 2.594 2.594 0 0 1-.31 1.273 2.229 2.229 0 0 1-.862.877 2.475 2.475 0 0 1-1.247.313Zm0-.963a1.261 1.261 0 0 0 .968-.414 1.542 1.542 0 0 0 .381-1.086 1.542 1.542 0 0 0-.382-1.089 1.261 1.261 0 0 0-.967-.417 1.248 1.248 0 0 0-.964.414 1.552 1.552 0 0 0-.38 1.092 1.552 1.552 0 0 0 .378 1.089 1.248 1.248 0 0 0 .966.411Zm4.874-3.2a1.733 1.733 0 0 1 1.614-.76v1.071a1.275 1.275 0 0 0-.246-.027 1.244 1.244 0 0 0-.968.382 1.582 1.582 0 0 0-.348 1.1V227h-1.063v-4.806h1.011Zm8.666-.76a1.788 1.788 0 0 1 1.359.527 2.213 2.213 0 0 1 .5 1.579V227h-1.061v-2.61a1.465 1.465 0 0 0-.263-.95.924.924 0 0 0-.756-.319 1.078 1.078 0 0 0-.858.374 1.583 1.583 0 0 0-.323 1.066V227h-1.062v-2.61a1.465 1.465 0 0 0-.263-.95.924.924 0 0 0-.756-.319 1.081 1.081 0 0 0-.862.369 1.594 1.594 0 0 0-.319 1.071V227h-1.062v-4.806h1.011v.612a1.661 1.661 0 0 1 .637-.5 2.058 2.058 0 0 1 .85-.171 1.956 1.956 0 0 1 .9.2 1.5 1.5 0 0 1 .624.6 1.909 1.909 0 0 1 .722-.589 2.233 2.233 0 0 1 .982-.206Zm5.378 0a2.132 2.132 0 0 1 1.533.509 2.032 2.032 0 0 1 .531 1.535V227h-1v-.585a1.254 1.254 0 0 1-.556.481 2.068 2.068 0 0 1-.871.167 2.031 2.031 0 0 1-.892-.185 1.4 1.4 0 0 1-.59-.513 1.358 1.358 0 0 1-.208-.742 1.3 1.3 0 0 1 .455-1.04 2.164 2.164 0 0 1 1.431-.391h1.169v-.072a1.016 1.016 0 0 0-.285-.774 1.185 1.185 0 0 0-.845-.27 2.315 2.315 0 0 0-.752.126 1.816 1.816 0 0 0-.624.351l-.414-.819a2.521 2.521 0 0 1 .858-.441 3.618 3.618 0 0 1 1.059-.153Zm-.144 4.1a1.312 1.312 0 0 0 .709-.193 1.04 1.04 0 0 0 .437-.547v-.558h-1.1q-.918 0-.918.639a.585.585 0 0 0 .229.486 1.008 1.008 0 0 0 .642.177Zm6.72.5a1.225 1.225 0 0 1-.455.243 1.94 1.94 0 0 1-.565.081 1.549 1.549 0 0 1-1.155-.414 1.649 1.649 0 0 1-.408-1.206v-2.314h-.748v-.9h.748v-1.1h1.062v1.1h1.215v.9h-1.216v2.286a.79.79 0 0 0 .161.536.588.588 0 0 0 .467.184.9.9 0 0 0 .595-.2Zm1.3-4.545h1.062V227h-1.063Zm.535-.792a.661.661 0 0 1-.484-.194.65.65 0 0 1-.2-.482.65.65 0 0 1 .2-.482.661.661 0 0 1 .484-.193.678.678 0 0 1 .484.184.611.611 0 0 1 .2.464.7.7 0 0 1-.191.5.642.642 0 0 1-.494.2Zm4.383 5.66a2.458 2.458 0 0 1-1.24-.315 2.229 2.229 0 0 1-.862-.877 2.594 2.594 0 0 1-.31-1.271 2.568 2.568 0 0 1 .31-1.269 2.238 2.238 0 0 1 .862-.873 2.458 2.458 0 0 1 1.24-.315 2.475 2.475 0 0 1 1.249.315 2.238 2.238 0 0 1 .862.873 2.568 2.568 0 0 1 .31 1.269 2.593 2.593 0 0 1-.31 1.273 2.229 2.229 0 0 1-.862.877 2.475 2.475 0 0 1-1.249.313Zm0-.963a1.261 1.261 0 0 0 .968-.414 1.542 1.542 0 0 0 .382-1.086 1.542 1.542 0 0 0-.382-1.089 1.261 1.261 0 0 0-.968-.414 1.248 1.248 0 0 0-.964.414 1.552 1.552 0 0 0-.379 1.089 1.552 1.552 0 0 0 .378 1.089 1.248 1.248 0 0 0 .965.411Zm6.44-3.96a1.836 1.836 0 0 1 1.376.531 2.169 2.169 0 0 1 .518 1.575V227h-1.062v-2.61a1.4 1.4 0 0 0-.28-.95 1.006 1.006 0 0 0-.8-.319 1.19 1.19 0 0 0-.926.374 1.544 1.544 0 0 0-.34 1.075V227h-1.061v-4.806h1.011v.621a1.667 1.667 0 0 1 .663-.5 2.267 2.267 0 0 1 .9-.175Zm7.648-.459v1.919h2.871v.99H176.8V227h-1.1v-6.3h4.341v.981Zm4.63-1.359h1.062V227h-1.065Zm4.916 6.741a2.458 2.458 0 0 1-1.24-.315 2.229 2.229 0 0 1-.862-.877 2.594 2.594 0 0 1-.31-1.273 2.568 2.568 0 0 1 .31-1.269 2.238 2.238 0 0 1 .862-.873 2.458 2.458 0 0 1 1.24-.315 2.475 2.475 0 0 1 1.249.315 2.238 2.238 0 0 1 .862.873 2.568 2.568 0 0 1 .31 1.269 2.594 2.594 0 0 1-.31 1.273 2.229 2.229 0 0 1-.862.877 2.475 2.475 0 0 1-1.249.315Zm0-.963a1.261 1.261 0 0 0 .968-.414 1.542 1.542 0 0 0 .386-1.086 1.542 1.542 0 0 0-.382-1.089 1.261 1.261 0 0 0-.968-.414 1.248 1.248 0 0 0-.964.414A1.552 1.552 0 0 0 185 224.6a1.552 1.552 0 0 0 .378 1.089 1.248 1.248 0 0 0 .968.411Zm10.815-3.906L195.487 227h-1.019l-1.168-3.312-1.194 3.312h-1.019l-1.665-4.806h1l1.2 3.546 1.249-3.546h.892l1.223 3.564 1.232-3.564Z" data-name="路径 508"/><path fill="#7d7d7d" d="M126.478 210.781h7.044v-1.312h-7.044Zm0-3.719h7.044v-1.312h-7.044Zm-2.165 7.438a1.346 1.346 0 0 1-1.313-1.312v-14.875a1.346 1.346 0 0 1 1.313-1.313h7.9l4.787 4.791v11.4a1.346 1.346 0 0 1-1.313 1.309Zm7.24-12.119v-4.068h-7.24v14.875h11.374v-10.807Zm-7.24-4.068Z"/></g></svg>