<svg xmlns="http://www.w3.org/2000/svg" width="660" height="440" viewBox="0 0 660 440">
  <g id="Flowchart_1" transform="translate(-1047 -66)">
    <rect id="矩形_87" data-name="矩形 87" width="660" height="440" transform="translate(1047 66)" fill="none"/>
    <g id="Flowchart_1-2" data-name="Flowchart_1" transform="translate(587 38)">
      <path id="路径_521" data-name="路径 521" d="M-97.536-7.509V2.049H-99l-5.271-6.472V2.049h-1.761V-7.509h1.461L-99.3-1.037V-7.509ZM-87.117.561V2.049h-7.169V-7.509h6.978V-6.02h-5.2v2.485H-87.9v1.461h-4.615V.561Zm5.626,1.625a7.292,7.292,0,0,1-2.137-.314,4.46,4.46,0,0,1-1.632-.833l.614-1.379a4.84,4.84,0,0,0,1.441.758,5.238,5.238,0,0,0,1.714.294A2.961,2.961,0,0,0-79.9.37a1.034,1.034,0,0,0,.526-.9.873.873,0,0,0-.294-.676,2.061,2.061,0,0,0-.744-.416q-.451-.15-1.229-.341a14.324,14.324,0,0,1-1.768-.519A2.91,2.91,0,0,1-84.571-3.3a2.189,2.189,0,0,1-.485-1.5,2.55,2.55,0,0,1,.43-1.441,2.91,2.91,0,0,1,1.3-1.031A5.255,5.255,0,0,1-81.2-7.645a6.858,6.858,0,0,1,1.72.218,4.756,4.756,0,0,1,1.461.628l-.56,1.379a5.523,5.523,0,0,0-1.311-.56,4.9,4.9,0,0,0-1.325-.191,2.767,2.767,0,0,0-1.563.355,1.1,1.1,0,0,0-.512.942A.852.852,0,0,0-83-4.2a2.121,2.121,0,0,0,.744.41q.451.15,1.229.341a12.932,12.932,0,0,1,1.748.512,2.993,2.993,0,0,1,1.167.812,2.141,2.141,0,0,1,.485,1.475A2.518,2.518,0,0,1-78.057.78a2.926,2.926,0,0,1-1.3,1.024A5.305,5.305,0,0,1-81.491,2.186Zm8.111-8.193h-3.168v-1.5h8.111v1.5h-3.168V2.049h-1.775Zm15.348-1.5a5.292,5.292,0,0,1,2.164.41,3.147,3.147,0,0,1,1.413,1.174,3.285,3.285,0,0,1,.492,1.816A3.294,3.294,0,0,1-54.455-2.3a3.132,3.132,0,0,1-1.413,1.181,5.292,5.292,0,0,1-2.164.41H-60.19V2.049h-1.775V-7.509Zm-.082,5.3A2.727,2.727,0,0,0-56.353-2.7a1.713,1.713,0,0,0,.6-1.406,1.713,1.713,0,0,0-.6-1.406,2.727,2.727,0,0,0-1.761-.492H-60.19v3.8Zm8-1.966a2.844,2.844,0,0,1,2.594-1.147V-3.7a2.167,2.167,0,0,0-.4-.041,2.062,2.062,0,0,0-1.557.58,2.314,2.314,0,0,0-.56,1.673V2.049h-1.707V-5.242h1.625Zm7.933,6.322a4.137,4.137,0,0,1-1.994-.478A3.485,3.485,0,0,1-45.559.336a3.76,3.76,0,0,1-.5-1.932,3.723,3.723,0,0,1,.5-1.925,3.5,3.5,0,0,1,1.386-1.325,4.137,4.137,0,0,1,1.994-.478,4.166,4.166,0,0,1,2.007.478,3.5,3.5,0,0,1,1.386,1.325,3.723,3.723,0,0,1,.5,1.925,3.76,3.76,0,0,1-.5,1.932,3.485,3.485,0,0,1-1.386,1.331A4.166,4.166,0,0,1-42.18,2.145Zm0-1.461A2.085,2.085,0,0,0-40.623.056,2.261,2.261,0,0,0-40.009-1.6a2.261,2.261,0,0,0-.614-1.652,2.085,2.085,0,0,0-1.557-.628,2.063,2.063,0,0,0-1.55.628A2.276,2.276,0,0,0-44.337-1.6,2.276,2.276,0,0,0-43.729.056,2.063,2.063,0,0,0-42.18.684Zm10.255-6.008a3.871,3.871,0,0,1,1.9.464A3.348,3.348,0,0,1-28.7-3.549,3.9,3.9,0,0,1-28.224-1.6,3.942,3.942,0,0,1-28.7.363,3.336,3.336,0,0,1-30.02,1.681a3.871,3.871,0,0,1-1.9.464A3.527,3.527,0,0,1-33.3,1.886a2.641,2.641,0,0,1-1.045-.778v.942h-1.625V-8.082h1.707v3.728a2.866,2.866,0,0,1,1.031-.724A3.378,3.378,0,0,1-31.925-5.324ZM-32.116.684a2.063,2.063,0,0,0,1.55-.628A2.276,2.276,0,0,0-29.959-1.6a2.276,2.276,0,0,0-.608-1.652,2.063,2.063,0,0,0-1.55-.628,2.2,2.2,0,0,0-1.106.28A2.023,2.023,0,0,0-34-2.8a2.444,2.444,0,0,0-.287,1.2A2.444,2.444,0,0,0-34-.395a2.023,2.023,0,0,0,.778.8A2.2,2.2,0,0,0-32.116.684Zm8.889-6.008a3.555,3.555,0,0,1,2.465.771,2.982,2.982,0,0,1,.853,2.328V2.049H-21.52V1.162a1.986,1.986,0,0,1-.894.731,3.5,3.5,0,0,1-1.4.253,3.429,3.429,0,0,1-1.434-.28,2.215,2.215,0,0,1-.949-.778A1.975,1.975,0,0,1-26.531-.04,1.931,1.931,0,0,1-25.8-1.617a3.628,3.628,0,0,1,2.3-.594h1.884V-2.32a1.494,1.494,0,0,0-.457-1.174,1.979,1.979,0,0,0-1.359-.41,3.922,3.922,0,0,0-1.208.191,2.969,2.969,0,0,0-1,.533l-.669-1.243a4.143,4.143,0,0,1,1.379-.669A6.136,6.136,0,0,1-23.227-5.324ZM-23.459.9a2.2,2.2,0,0,0,1.14-.294,1.6,1.6,0,0,0,.7-.84v-.847h-1.761q-1.475,0-1.475.969a.87.87,0,0,0,.369.737A1.69,1.69,0,0,0-23.459.9ZM-13-5.324a3.871,3.871,0,0,1,1.9.464A3.348,3.348,0,0,1-9.777-3.549,3.9,3.9,0,0,1-9.3-1.6,3.942,3.942,0,0,1-9.777.363a3.336,3.336,0,0,1-1.318,1.318,3.871,3.871,0,0,1-1.9.464,3.527,3.527,0,0,1-1.372-.259,2.641,2.641,0,0,1-1.045-.778v.942h-1.625V-8.082h1.707v3.728A2.866,2.866,0,0,1-14.3-5.078,3.378,3.378,0,0,1-13-5.324ZM-13.191.684a2.063,2.063,0,0,0,1.55-.628A2.276,2.276,0,0,0-11.033-1.6a2.276,2.276,0,0,0-.608-1.652,2.063,2.063,0,0,0-1.55-.628A2.2,2.2,0,0,0-14.3-3.6a2.023,2.023,0,0,0-.778.8,2.444,2.444,0,0,0-.287,1.2,2.444,2.444,0,0,0,.287,1.2A2.023,2.023,0,0,0-14.3.4,2.2,2.2,0,0,0-13.191.684Zm6.2-5.926h1.707V2.049H-6.991Zm.86-1.2a1.1,1.1,0,0,1-.778-.294.959.959,0,0,1-.314-.731A.959.959,0,0,1-6.91-8.2a1.1,1.1,0,0,1,.778-.294,1.127,1.127,0,0,1,.778.28.9.9,0,0,1,.314.7,1.03,1.03,0,0,1-.307.758A1.063,1.063,0,0,1-6.131-6.444Zm3.769-1.639H-.656V2.049H-2.362Zm4.629,2.84H3.973V2.049H2.266Zm.86-1.2a1.1,1.1,0,0,1-.778-.294.959.959,0,0,1-.314-.731A.959.959,0,0,1,2.348-8.2a1.1,1.1,0,0,1,.778-.294,1.127,1.127,0,0,1,.778.28.9.9,0,0,1,.314.7,1.03,1.03,0,0,1-.307.758A1.063,1.063,0,0,1,3.127-6.444ZM9.148,2.145a6.528,6.528,0,0,1-1.734-.232,4.363,4.363,0,0,1-1.352-.587l.655-1.3A4.214,4.214,0,0,0,7.9.554a4.907,4.907,0,0,0,1.359.2q1.529,0,1.529-.806A.538.538,0,0,0,10.4-.586,6.719,6.719,0,0,0,9.148-.873a10.137,10.137,0,0,1-1.468-.314A2.253,2.253,0,0,1,6.7-1.808a1.735,1.735,0,0,1-.416-1.236A1.943,1.943,0,0,1,7.148-4.7,3.946,3.946,0,0,1,9.49-5.324a6.758,6.758,0,0,1,1.5.171,4.211,4.211,0,0,1,1.229.457l-.655,1.3a4.043,4.043,0,0,0-2.089-.546,2.316,2.316,0,0,0-1.14.225.672.672,0,0,0-.389.594.593.593,0,0,0,.416.58,6.618,6.618,0,0,0,1.29.321,9.957,9.957,0,0,1,1.434.314,2.244,2.244,0,0,1,.963.6,1.675,1.675,0,0,1,.4,1.2,1.9,1.9,0,0,1-.888,1.639A4.185,4.185,0,0,1,9.148,2.145Zm9.845-.492a2.009,2.009,0,0,1-.731.369,3.29,3.29,0,0,1-.908.123A2.577,2.577,0,0,1,15.5,1.517a2.417,2.417,0,0,1-.655-1.83V-3.822h-1.2V-5.188h1.2V-6.853h1.707v1.666H18.5v1.365H16.549V-.354a1.154,1.154,0,0,0,.259.812.974.974,0,0,0,.751.28,1.5,1.5,0,0,0,.956-.3Zm2.089-6.9h1.707V2.049H21.083Zm.86-1.2a1.1,1.1,0,0,1-.778-.294.959.959,0,0,1-.314-.731.959.959,0,0,1,.314-.731,1.1,1.1,0,0,1,.778-.294,1.127,1.127,0,0,1,.778.28.9.9,0,0,1,.314.7,1.03,1.03,0,0,1-.307.758A1.063,1.063,0,0,1,21.943-6.444Zm7.114,8.589a4.275,4.275,0,0,1-2.035-.478A3.509,3.509,0,0,1,25.616.336,3.72,3.72,0,0,1,25.111-1.6a3.684,3.684,0,0,1,.505-1.925,3.535,3.535,0,0,1,1.4-1.325,4.264,4.264,0,0,1,2.041-.478,3.933,3.933,0,0,1,1.891.437A2.835,2.835,0,0,1,32.17-3.631l-1.311.765a2.082,2.082,0,0,0-.785-.758,2.147,2.147,0,0,0-1.031-.253,2.16,2.16,0,0,0-1.584.621A2.229,2.229,0,0,0,26.831-1.6,2.242,2.242,0,0,0,27.453.063a2.154,2.154,0,0,0,1.591.621A2.147,2.147,0,0,0,30.074.431a2.082,2.082,0,0,0,.785-.758L32.17.438A2.955,2.955,0,0,1,30.935,1.7,3.854,3.854,0,0,1,29.057,2.145ZM47.682-7.509,43.517,2.049H41.77L37.591-7.509h1.925L42.7-.135l3.209-7.374Zm1.6,2.267h1.707V2.049H49.28Zm.86-1.2a1.1,1.1,0,0,1-.778-.294.959.959,0,0,1-.314-.731.959.959,0,0,1,.314-.731,1.1,1.1,0,0,1,.778-.294,1.127,1.127,0,0,1,.778.28.9.9,0,0,1,.314.7,1.03,1.03,0,0,1-.307.758A1.063,1.063,0,0,1,50.14-6.444Zm5.394,2.267a2.844,2.844,0,0,1,2.594-1.147V-3.7a2.167,2.167,0,0,0-.4-.041,2.062,2.062,0,0,0-1.557.58,2.314,2.314,0,0,0-.56,1.673V2.049H53.909V-5.242h1.625Zm9.381,5.831a2.009,2.009,0,0,1-.731.369,3.29,3.29,0,0,1-.908.123,2.577,2.577,0,0,1-1.857-.628,2.417,2.417,0,0,1-.655-1.83V-3.822h-1.2V-5.188h1.2V-6.853H62.47v1.666h1.953v1.365H62.47V-.354a1.154,1.154,0,0,0,.259.812.974.974,0,0,0,.751.28,1.5,1.5,0,0,0,.956-.3Zm9.149-6.9V2.049H72.438V1.121a2.716,2.716,0,0,1-1.024.758,3.3,3.3,0,0,1-1.325.266,3.169,3.169,0,0,1-2.3-.812,3.206,3.206,0,0,1-.84-2.41V-5.242h1.707V-1.31A2.113,2.113,0,0,0,69.1.158a1.626,1.626,0,0,0,1.263.485A1.913,1.913,0,0,0,71.817.076a2.276,2.276,0,0,0,.539-1.632V-5.242Zm5.708-.082a3.555,3.555,0,0,1,2.465.771,2.982,2.982,0,0,1,.853,2.328V2.049H81.477V1.162a1.986,1.986,0,0,1-.894.731,3.5,3.5,0,0,1-1.4.253,3.429,3.429,0,0,1-1.434-.28,2.215,2.215,0,0,1-.949-.778A1.975,1.975,0,0,1,76.466-.04,1.931,1.931,0,0,1,77.2-1.617a3.628,3.628,0,0,1,2.3-.594h1.884V-2.32a1.494,1.494,0,0,0-.457-1.174,1.979,1.979,0,0,0-1.359-.41,3.922,3.922,0,0,0-1.208.191,2.969,2.969,0,0,0-1,.533l-.669-1.243a4.143,4.143,0,0,1,1.379-.669A6.136,6.136,0,0,1,79.771-5.324ZM79.538.9a2.2,2.2,0,0,0,1.14-.294,1.6,1.6,0,0,0,.7-.84v-.847H79.62q-1.475,0-1.475.969a.87.87,0,0,0,.369.737A1.69,1.69,0,0,0,79.538.9Zm6.418-8.985h1.707V2.049H85.956ZM103.98,2.049l-.014-6.336L100.826.957h-.792L96.894-4.2V2.049H95.2V-7.509h1.461l3.8,6.336,3.728-6.336h1.461l.014,9.558Zm7.565-7.374a3.555,3.555,0,0,1,2.465.771,2.982,2.982,0,0,1,.853,2.328V2.049h-1.611V1.162a1.986,1.986,0,0,1-.894.731,3.5,3.5,0,0,1-1.4.253,3.429,3.429,0,0,1-1.434-.28,2.215,2.215,0,0,1-.949-.778,1.975,1.975,0,0,1-.335-1.127,1.931,1.931,0,0,1,.731-1.577,3.628,3.628,0,0,1,2.3-.594h1.884V-2.32a1.494,1.494,0,0,0-.457-1.174,1.979,1.979,0,0,0-1.359-.41,3.922,3.922,0,0,0-1.208.191,2.969,2.969,0,0,0-1,.533l-.669-1.243a4.143,4.143,0,0,1,1.379-.669A6.136,6.136,0,0,1,111.545-5.324ZM111.313.9a2.2,2.2,0,0,0,1.14-.294,1.6,1.6,0,0,0,.7-.84v-.847h-1.761q-1.475,0-1.475.969a.87.87,0,0,0,.369.737A1.69,1.69,0,0,0,111.313.9Zm9.831,1.243a4.275,4.275,0,0,1-2.035-.478A3.509,3.509,0,0,1,117.7.336,3.72,3.72,0,0,1,117.2-1.6a3.684,3.684,0,0,1,.505-1.925,3.535,3.535,0,0,1,1.4-1.325,4.264,4.264,0,0,1,2.041-.478,3.933,3.933,0,0,1,1.891.437,2.835,2.835,0,0,1,1.222,1.256l-1.311.765a2.082,2.082,0,0,0-.785-.758,2.147,2.147,0,0,0-1.031-.253,2.16,2.16,0,0,0-1.584.621,2.229,2.229,0,0,0-.628,1.659A2.242,2.242,0,0,0,119.54.063a2.154,2.154,0,0,0,1.591.621,2.147,2.147,0,0,0,1.031-.253,2.082,2.082,0,0,0,.785-.758l1.311.765A2.955,2.955,0,0,1,123.022,1.7,3.854,3.854,0,0,1,121.144,2.145Zm9.34-7.469a3.047,3.047,0,0,1,2.212.806,3.178,3.178,0,0,1,.833,2.39V2.049h-1.707V-1.91a2.047,2.047,0,0,0-.451-1.441,1.666,1.666,0,0,0-1.284-.485,1.97,1.97,0,0,0-1.488.567,2.259,2.259,0,0,0-.546,1.632V2.049h-1.707V-8.082h1.707V-4.4a2.776,2.776,0,0,1,1.045-.69A3.834,3.834,0,0,1,130.484-5.324Zm5.9.082h1.707V2.049h-1.707Zm.86-1.2a1.1,1.1,0,0,1-.778-.294.959.959,0,0,1-.314-.731.959.959,0,0,1,.314-.731,1.1,1.1,0,0,1,.778-.294,1.127,1.127,0,0,1,.778.28.9.9,0,0,1,.314.7,1.03,1.03,0,0,1-.307.758A1.063,1.063,0,0,1,137.243-6.444Zm7.906,1.12a3.047,3.047,0,0,1,2.212.806,3.178,3.178,0,0,1,.833,2.39V2.049h-1.707V-1.91a2.047,2.047,0,0,0-.451-1.441,1.666,1.666,0,0,0-1.284-.485,1.97,1.97,0,0,0-1.488.567,2.259,2.259,0,0,0-.546,1.632V2.049h-1.707V-5.242h1.625V-4.3a2.668,2.668,0,0,1,1.065-.765A3.833,3.833,0,0,1,145.149-5.324Zm12.822,3.769q0,.178-.027.505h-5.721a1.983,1.983,0,0,0,.785,1.277A2.574,2.574,0,0,0,154.585.7a2.658,2.658,0,0,0,1.98-.792l.915,1.051a3.083,3.083,0,0,1-1.243.888,4.526,4.526,0,0,1-1.693.3,4.506,4.506,0,0,1-2.116-.478A3.442,3.442,0,0,1,151.014.336a3.76,3.76,0,0,1-.5-1.932A3.815,3.815,0,0,1,151-3.515a3.438,3.438,0,0,1,1.345-1.331,3.924,3.924,0,0,1,1.939-.478,3.826,3.826,0,0,1,1.9.471A3.336,3.336,0,0,1,157.5-3.529,4.016,4.016,0,0,1,157.971-1.555Zm-3.687-2.4a2.059,2.059,0,0,0-1.386.485,2.039,2.039,0,0,0-.69,1.29h4.137a2.012,2.012,0,0,0-.669-1.284A2.035,2.035,0,0,0,154.284-3.959Z" transform="translate(766.316 421.549)" fill="#003232"/>
      <g id="p3" transform="translate(696 -177)">
        <path id="路径_520" data-name="路径 520" d="M-2.245.063a.719.719,0,0,1-.522-.211.718.718,0,0,1-.216-.535.722.722,0,0,1,.212-.54.723.723,0,0,1,.526-.207.723.723,0,0,1,.526.207.722.722,0,0,1,.211.54.718.718,0,0,1-.216.535A.719.719,0,0,1-2.245.063ZM0,.063A.719.719,0,0,1-.526-.148.718.718,0,0,1-.742-.684a.722.722,0,0,1,.211-.54A.723.723,0,0,1,0-1.431a.723.723,0,0,1,.527.207.722.722,0,0,1,.211.54.718.718,0,0,1-.216.535A.719.719,0,0,1,0,.063Zm2.25,0a.719.719,0,0,1-.522-.211.718.718,0,0,1-.216-.535.722.722,0,0,1,.212-.54.723.723,0,0,1,.526-.207.723.723,0,0,1,.527.207.722.722,0,0,1,.212.54.718.718,0,0,1-.216.535A.719.719,0,0,1,2.245.063Z" transform="translate(340.983 493)" fill="#003232"/>
        <path id="路径_519" data-name="路径 519" d="M-14.256-3.529h1.016v2.3a3.23,3.23,0,0,1-1.041.545A3.993,3.993,0,0,1-15.5-.49,3.3,3.3,0,0,1-17.1-.874a2.853,2.853,0,0,1-1.115-1.061,2.921,2.921,0,0,1-.4-1.528,2.921,2.921,0,0,1,.4-1.528,2.846,2.846,0,0,1,1.119-1.061,3.338,3.338,0,0,1,1.606-.384,3.507,3.507,0,0,1,1.321.239,2.593,2.593,0,0,1,1,.7l-.677.661a2.172,2.172,0,0,0-1.594-.661,2.252,2.252,0,0,0-1.086.256,1.867,1.867,0,0,0-.743.718,2.067,2.067,0,0,0-.268,1.057,2.035,2.035,0,0,0,.268,1.041,1.924,1.924,0,0,0,.743.727,2.178,2.178,0,0,0,1.078.264,2.325,2.325,0,0,0,1.189-.3Zm4.427-1.5a2.15,2.15,0,0,1,1.491.467,1.8,1.8,0,0,1,.516,1.408V-.572H-8.8v-.537a1.2,1.2,0,0,1-.541.442,2.114,2.114,0,0,1-.846.153,2.074,2.074,0,0,1-.867-.169,1.34,1.34,0,0,1-.574-.471,1.2,1.2,0,0,1-.2-.681,1.168,1.168,0,0,1,.442-.954,2.194,2.194,0,0,1,1.392-.359h1.14v-.066a.9.9,0,0,0-.277-.71,1.2,1.2,0,0,0-.822-.248,2.372,2.372,0,0,0-.731.116,1.8,1.8,0,0,0-.607.322l-.4-.752a2.506,2.506,0,0,1,.834-.4A3.711,3.711,0,0,1-9.83-5.032Zm-.14,3.766a1.333,1.333,0,0,0,.69-.178.966.966,0,0,0,.425-.508v-.512H-9.92q-.892,0-.892.586a.526.526,0,0,0,.223.446A1.022,1.022,0,0,0-9.97-1.266ZM-.522-5.032A1.794,1.794,0,0,1,.8-4.549,1.958,1.958,0,0,1,1.286-3.1V-.572H.254V-2.967A1.291,1.291,0,0,0,0-3.839a.923.923,0,0,0-.735-.293,1.076,1.076,0,0,0-.834.343,1.4,1.4,0,0,0-.314.979V-.572H-2.917V-2.967a1.291,1.291,0,0,0-.256-.871.923.923,0,0,0-.735-.293,1.08,1.08,0,0,0-.838.339,1.408,1.408,0,0,0-.31.983V-.572H-6.088v-4.41h.983v.562a1.605,1.605,0,0,1,.619-.454,2.1,2.1,0,0,1,.826-.157,2,2,0,0,1,.88.186,1.428,1.428,0,0,1,.607.549,1.838,1.838,0,0,1,.7-.541A2.28,2.28,0,0,1-.522-5.032Zm7.73,2.279q0,.107-.017.306H3.731a1.2,1.2,0,0,0,.475.772,1.557,1.557,0,0,0,.954.285,1.607,1.607,0,0,0,1.2-.479l.553.636A1.864,1.864,0,0,1,6.159-.7a2.737,2.737,0,0,1-1.024.182A2.725,2.725,0,0,1,3.855-.8,2.082,2.082,0,0,1,3-1.609a2.274,2.274,0,0,1-.3-1.169,2.308,2.308,0,0,1,.293-1.16,2.08,2.08,0,0,1,.813-.805,2.373,2.373,0,0,1,1.173-.289,2.314,2.314,0,0,1,1.152.285,2.018,2.018,0,0,1,.793.8A2.429,2.429,0,0,1,7.208-2.753ZM4.978-4.206a1.245,1.245,0,0,0-.838.293,1.233,1.233,0,0,0-.417.78h2.5a1.217,1.217,0,0,0-.4-.776A1.231,1.231,0,0,0,4.978-4.206ZM9.784-5.453v1.759h2.791v.908H9.784V-.572H8.711V-6.353h4.22v.9Zm4.418.471h1.032v4.41H14.2Zm.52-.727a.663.663,0,0,1-.471-.178.58.58,0,0,1-.19-.442.58.58,0,0,1,.19-.442.663.663,0,0,1,.471-.178.682.682,0,0,1,.471.169.546.546,0,0,1,.19.425A.623.623,0,0,1,15.2-5.9.643.643,0,0,1,14.723-5.709Z" transform="translate(342.616 477)" fill="#003232"/>
        <path id="icon_GameFi" d="M6.234,26a3.825,3.825,0,0,1-2.925-1.237,4.341,4.341,0,0,1-1.209-2.9q0-.225.028-.506a3.556,3.556,0,0,1,.084-.506L4.575,11.4A4.482,4.482,0,0,1,6.192,8.956,4.341,4.341,0,0,1,8.934,8H19.9a4.341,4.341,0,0,1,2.742.956A4.482,4.482,0,0,1,24.263,11.4l2.362,9.45q.056.253.1.52a3.334,3.334,0,0,1,.042.52A4.106,4.106,0,0,1,22.6,26a4.131,4.131,0,0,1-2.194-.619,3.89,3.89,0,0,1-1.519-1.688L18.1,22.062a.846.846,0,0,0-.408-.436,1.4,1.4,0,0,0-.6-.127H11.747a1.4,1.4,0,0,0-.6.127.846.846,0,0,0-.408.436l-.787,1.631a3.89,3.89,0,0,1-1.519,1.688A4.131,4.131,0,0,1,6.234,26Zm.084-1.688a2.365,2.365,0,0,0,2.138-1.35l.787-1.6a2.736,2.736,0,0,1,2.5-1.547h5.344a2.708,2.708,0,0,1,1.462.422,3.078,3.078,0,0,1,1.069,1.125l.788,1.6a2.365,2.365,0,0,0,2.137,1.35,2.544,2.544,0,0,0,1.716-.661,2.268,2.268,0,0,0,.788-1.73q0-.141-.014-.323a1.462,1.462,0,0,0-.07-.352L22.6,11.825a2.733,2.733,0,0,0-2.7-2.138H8.934a2.733,2.733,0,0,0-2.7,2.138L3.872,21.247q-.028.112-.084.647a2.19,2.19,0,0,0,.788,1.744,2.617,2.617,0,0,0,1.744.675Zm9.788-8.719a.809.809,0,0,1-.591-.253.842.842,0,0,1-.253-.619.764.764,0,0,1,.253-.577.868.868,0,0,1,.619-.239.786.786,0,0,1,.577.239.82.82,0,0,1,.239.6.833.833,0,0,1-.239.591A.8.8,0,0,1,16.106,15.594Zm2.25-2.25a.809.809,0,0,1-.591-.253.842.842,0,0,1-.253-.619.764.764,0,0,1,.253-.577.868.868,0,0,1,.619-.239.786.786,0,0,1,.577.239.82.82,0,0,1,.239.6.833.833,0,0,1-.239.591A.8.8,0,0,1,18.356,13.344Zm0,4.5a.809.809,0,0,1-.591-.253.842.842,0,0,1-.253-.619.764.764,0,0,1,.253-.577.868.868,0,0,1,.619-.239.786.786,0,0,1,.577.239.82.82,0,0,1,.239.6.833.833,0,0,1-.239.591A.8.8,0,0,1,18.356,17.844Zm2.25-2.25a.809.809,0,0,1-.591-.253.842.842,0,0,1-.253-.619.764.764,0,0,1,.253-.577.868.868,0,0,1,.619-.239.786.786,0,0,1,.577.239.82.82,0,0,1,.239.6.833.833,0,0,1-.239.591A.8.8,0,0,1,20.606,15.594ZM10.481,17.422a.721.721,0,0,1-.7-.7V15.453H8.513a.7.7,0,0,1,0-1.406H9.778V12.781a.7.7,0,0,1,1.406,0v1.266H12.45a.7.7,0,0,1,0,1.406H11.184v1.266a.721.721,0,0,1-.7.7Z" transform="translate(326.9 438)" fill="#7d7d7d"/>
        <path id="路径_518" data-name="路径 518" d="M-3.4-6.3V-.172h-.937l-3.379-4.15v4.15H-8.847V-6.3h.937l3.379,4.15V-6.3Zm3.222.954v1.865H2.779v.963H-.18V-.172H-1.318V-6.3H3.156v.954Zm6.163.009H3.953V-6.3h5.2v.963H7.122V-.172H5.984Z" transform="translate(340.847 424)" fill="#003232"/>
        <path id="icon_NFT" d="M13,22a8.708,8.708,0,0,1-3.487-.709,9.068,9.068,0,0,1-4.8-4.8A9.035,9.035,0,0,1,4.72,9.445,8.965,8.965,0,0,1,6.689,6.588a9.081,9.081,0,0,1,2.925-1.9A9.379,9.379,0,0,1,13.2,4a9.572,9.572,0,0,1,3.375.6,8.929,8.929,0,0,1,2.8,1.654,7.947,7.947,0,0,1,1.913,2.509A7.157,7.157,0,0,1,22,11.943a5.16,5.16,0,0,1-1.417,3.836,5.1,5.1,0,0,1-3.758,1.406H15.138a.92.92,0,0,0-.7.315,1,1,0,0,0-.293.7,1.656,1.656,0,0,0,.326,1.035,1.587,1.587,0,0,1,.326.99,1.756,1.756,0,0,1-.472,1.316A1.821,1.821,0,0,1,13,22ZM13,13Zm-5.242.585a1.153,1.153,0,1,0-.788-.338A1.079,1.079,0,0,0,7.758,13.585ZM10.593,9.76a1.114,1.114,0,0,0,.788-1.913A1.114,1.114,0,1,0,9.805,9.422,1.079,1.079,0,0,0,10.593,9.76Zm4.815,0a1.114,1.114,0,0,0,.787-1.913A1.114,1.114,0,1,0,14.62,9.422,1.079,1.079,0,0,0,15.408,9.76Zm2.947,3.825a1.153,1.153,0,1,0-.788-.338A1.079,1.079,0,0,0,18.355,13.585ZM13,20.65a.484.484,0,0,0,.349-.1.447.447,0,0,0,.1-.326.764.764,0,0,0-.326-.585,1.561,1.561,0,0,1-.326-1.193,2.717,2.717,0,0,1,.675-1.823,2.155,2.155,0,0,1,1.71-.788h1.642a3.86,3.86,0,0,0,2.768-1,3.792,3.792,0,0,0,1.057-2.891A5.836,5.836,0,0,0,18.4,7.161,8.051,8.051,0,0,0,13.2,5.35,7.7,7.7,0,0,0,7.634,7.566,7.278,7.278,0,0,0,5.35,13a7.372,7.372,0,0,0,2.239,5.411A7.372,7.372,0,0,0,13,20.65Z" transform="translate(328 390)" fill="#7d7d7d"/>
        <path id="路径_517" data-name="路径 517" d="M-10.467-6.331h2.624a3.765,3.765,0,0,1,1.706.373A2.76,2.76,0,0,1-4.98-4.9,2.984,2.984,0,0,1-4.568-3.33,2.984,2.984,0,0,1-4.98-1.757,2.76,2.76,0,0,1-6.137-.7a3.765,3.765,0,0,1-1.706.373h-2.624Zm2.572,5.059a2.547,2.547,0,0,0,1.162-.253,1.81,1.81,0,0,0,.772-.72,2.128,2.128,0,0,0,.27-1.085,2.128,2.128,0,0,0-.27-1.085,1.81,1.81,0,0,0-.772-.72,2.547,2.547,0,0,0-1.162-.253H-9.352v4.115Zm9.14-1.32q0,.111-.017.317H-2.365a1.245,1.245,0,0,0,.493.8,1.616,1.616,0,0,0,.99.3,1.669,1.669,0,0,0,1.243-.5l.574.66a1.936,1.936,0,0,1-.78.557A2.842,2.842,0,0,1-.907-.269a2.829,2.829,0,0,1-1.329-.3,2.161,2.161,0,0,1-.887-.836,2.361,2.361,0,0,1-.313-1.213,2.4,2.4,0,0,1,.3-1.2,2.159,2.159,0,0,1,.845-.836,2.464,2.464,0,0,1,1.217-.3,2.4,2.4,0,0,1,1.2.3,2.1,2.1,0,0,1,.823.832A2.522,2.522,0,0,1,1.245-2.592ZM-1.07-4.1a1.293,1.293,0,0,0-.87.3,1.28,1.28,0,0,0-.433.81h2.6A1.263,1.263,0,0,0-.2-3.793,1.278,1.278,0,0,0-1.07-4.1ZM3.92-5.4V-3.57h2.9v.943H3.92v2.3H2.805v-6H7.187V-5.4Zm4.587.489H9.579V-.329H8.507Zm.54-.754a.688.688,0,0,1-.489-.184.6.6,0,0,1-.2-.459.6.6,0,0,1,.2-.459.688.688,0,0,1,.489-.184.708.708,0,0,1,.489.176.567.567,0,0,1,.2.442.647.647,0,0,1-.193.476A.668.668,0,0,1,9.047-5.662Z" transform="translate(341.467 370)" fill="#003232"/>
        <path id="icon_DeiFi" d="M6.97,17.25V9.622H8.32V17.25Zm5.445,0V9.622h1.35V17.25ZM4,19.95V18.6H22v1.35Zm13.68-2.7V9.622h1.35V17.25ZM4,8.273V7.08l9-5.13,9,5.13V8.273Zm3.015-1.35h0Zm0,0h11.97L13,3.5Z" transform="translate(328 338.05)" fill="#7d7d7d"/>
      </g>
      <g id="p2" transform="translate(340 114)">
        <path id="about_arrow_icon" d="M541.289,150l.155.155-5.81,5.8-.645-.645,4.887-4.879H476v-.922h63.87l-4.911-4.9.652-.651,5.862,5.858Z" transform="translate(116.182 -24.129)" fill="#01d9ca" fill-rule="evenodd"/>
        <path id="路径_516" data-name="路径 516" d="M-20.245-.981V0h-4.244V-6.3h4.13v.981h-3.08v1.638h2.732v.963h-2.732V-.981ZM-15.169,0l-1.536-2.394L-18.225,0h-1.2l2.1-3.213L-19.308-6.3h1.188l1.447,2.241L-15.242-6.3h1.14l-1.98,3.042L-13.957,0Zm5.933-3.636v.972l-3.726,1.611v-.936l2.789-1.161-2.789-1.161v-.936ZM-7.79-4.689h3.726v.9H-7.79Zm0,2.178h3.726v.9H-7.79ZM1.861-.981V0H-2.382V-6.3h4.13v.981h-3.08v1.638H1.4v.963H-1.331V-.981ZM4.488-5.319V-3.4H7.22v.99H4.488V0H3.437V-6.3h4.13v.981ZM9.9,1.746a6.9,6.9,0,0,1-.732-1.9A10.061,10.061,0,0,1,8.91-2.466a10.119,10.119,0,0,1,.255-2.317A6.76,6.76,0,0,1,9.9-6.678h.962a8.524,8.524,0,0,0-.723,2,10.114,10.114,0,0,0-.23,2.21,10.114,10.114,0,0,0,.23,2.209,8.524,8.524,0,0,0,.723,2ZM15.764,0,14.228-2.394,12.709,0h-1.2l2.1-3.213L11.625-6.3h1.188l1.447,2.241L15.691-6.3h1.14l-1.98,3.042L16.976,0Zm1.859,1.746A8.643,8.643,0,0,0,18.35-.261a9.964,9.964,0,0,0,.234-2.2,9.964,9.964,0,0,0-.234-2.205,8.643,8.643,0,0,0-.727-2.007h.962a6.627,6.627,0,0,1,.732,1.885,10.161,10.161,0,0,1,.255,2.327,10.044,10.044,0,0,1-.255,2.317,6.907,6.907,0,0,1-.732,1.895Z" transform="translate(550 239)" fill="#01d9ca"/>
        <path id="路径_515" data-name="路径 515" d="M-25.791-5.319V-3.4h2.816v.99h-2.816V0h-1.083V-6.3h4.257v.981Zm8.722.513V0h-.991V-.612a1.673,1.673,0,0,1-.625.5,1.882,1.882,0,0,1-.808.176,1.851,1.851,0,0,1-1.4-.535,2.215,2.215,0,0,1-.512-1.589V-4.806h1.041v2.592a1.469,1.469,0,0,0,.271.967.954.954,0,0,0,.771.32,1.123,1.123,0,0,0,.887-.374,1.578,1.578,0,0,0,.329-1.075v-2.43Zm4.307-.054a1.781,1.781,0,0,1,1.35.531A2.2,2.2,0,0,1-10.9-2.754V0h-1.041V-2.61a1.422,1.422,0,0,0-.275-.95A.977.977,0,0,0-13-3.879a1.155,1.155,0,0,0-.908.374,1.564,1.564,0,0,0-.333,1.075V0h-1.041V-4.806h.991v.621a1.639,1.639,0,0,1,.65-.5A2.185,2.185,0,0,1-12.762-4.86ZM-7.081.063A2.452,2.452,0,0,1-8.322-.252a2.221,2.221,0,0,1-.858-.877A2.606,2.606,0,0,1-9.488-2.4,2.58,2.58,0,0,1-9.18-3.672a2.238,2.238,0,0,1,.854-.873A2.446,2.446,0,0,1-7.081-4.86a2.255,2.255,0,0,1,1.154.288,1.811,1.811,0,0,1,.746.828l-.8.5a1.32,1.32,0,0,0-.479-.5,1.233,1.233,0,0,0-.629-.167,1.267,1.267,0,0,0-.966.409A1.536,1.536,0,0,0-8.439-2.4a1.546,1.546,0,0,0,.379,1.093A1.264,1.264,0,0,0-7.089-.9a1.233,1.233,0,0,0,.629-.167,1.32,1.32,0,0,0,.479-.5l.8.5a1.886,1.886,0,0,1-.754.833A2.211,2.211,0,0,1-7.081.063Zm5.948-.324a1.2,1.2,0,0,1-.446.243,1.868,1.868,0,0,1-.554.081A1.5,1.5,0,0,1-3.265-.351a1.669,1.669,0,0,1-.4-1.206V-3.87H-4.4v-.9h.733v-1.1h1.041v1.1h1.191v.9H-2.624v2.286a.8.8,0,0,0,.158.536.571.571,0,0,0,.458.184.87.87,0,0,0,.583-.2ZM.142-4.806H1.183V0H.142ZM.667-5.6a.642.642,0,0,1-.475-.194A.657.657,0,0,1,0-6.273a.657.657,0,0,1,.192-.482.642.642,0,0,1,.475-.193.658.658,0,0,1,.475.184.617.617,0,0,1,.192.464.708.708,0,0,1-.187.5A.624.624,0,0,1,.667-5.6ZM4.965.063A2.374,2.374,0,0,1,3.749-.252,2.209,2.209,0,0,1,2.9-1.129,2.635,2.635,0,0,1,2.6-2.4a2.609,2.609,0,0,1,.3-1.269,2.217,2.217,0,0,1,.846-.873A2.374,2.374,0,0,1,4.965-4.86a2.39,2.39,0,0,1,1.225.315,2.217,2.217,0,0,1,.846.873A2.609,2.609,0,0,1,7.34-2.4a2.635,2.635,0,0,1-.3,1.273,2.209,2.209,0,0,1-.846.877A2.39,2.39,0,0,1,4.965.063Zm0-.963a1.225,1.225,0,0,0,.95-.414A1.56,1.56,0,0,0,6.29-2.4a1.56,1.56,0,0,0-.375-1.089,1.225,1.225,0,0,0-.95-.414,1.213,1.213,0,0,0-.946.414A1.571,1.571,0,0,0,3.649-2.4,1.571,1.571,0,0,0,4.02-1.314,1.213,1.213,0,0,0,4.965-.9ZM11.28-4.86a1.781,1.781,0,0,1,1.35.531,2.2,2.2,0,0,1,.508,1.575V0H12.1V-2.61a1.422,1.422,0,0,0-.275-.95.977.977,0,0,0-.783-.319,1.155,1.155,0,0,0-.908.374A1.564,1.564,0,0,0,9.8-2.43V0H8.756V-4.806h.991v.621a1.639,1.639,0,0,1,.65-.5A2.185,2.185,0,0,1,11.28-4.86Zm11.6-1.44V0h-.891L18.769-4.266V0H17.694V-6.3h.891L21.8-2.034V-6.3Z" transform="translate(550 217)" fill="#003232"/>
        <path id="icon_Function" d="M6.246,11.374l2.363,1q.4-.8.858-1.583t.97-1.493L8.676,8.944Zm3.433,1.805,2.964,2.964a17.521,17.521,0,0,0,2.385-1.315A11.59,11.59,0,0,0,16.834,13.4a12.541,12.541,0,0,0,2.652-3.7,11.159,11.159,0,0,0,.914-4.28,11.159,11.159,0,0,0-4.28.914,12.541,12.541,0,0,0-3.7,2.652,11.59,11.59,0,0,0-1.427,1.805,17.521,17.521,0,0,0-1.315,2.385Zm5.1-2.14a1.588,1.588,0,1,1,1.1.446A1.5,1.5,0,0,1,14.783,11.039Zm-.334,8.537,2.43-2.43-.357-1.761q-.713.513-1.493.97t-1.583.858ZM21.715,4.107a12.887,12.887,0,0,1-.758,5.528,13.549,13.549,0,0,1-3.165,4.7l-.045.045-.045.045.49,2.452a1.267,1.267,0,0,1-.033.646,1.377,1.377,0,0,1-.345.557L14,21.917,12.109,17.5,8.319,13.714,3.906,11.819,7.74,8.008A1.377,1.377,0,0,1,8.3,7.662a1.267,1.267,0,0,1,.646-.033l2.452.49a.175.175,0,0,1,.045-.033.175.175,0,0,0,.045-.033,13.69,13.69,0,0,1,4.7-3.176A12.774,12.774,0,0,1,21.715,4.107ZM5.4,16.411a2.632,2.632,0,0,1,1.906-.791A2.627,2.627,0,0,1,9.98,18.294,2.632,2.632,0,0,1,9.189,20.2a4.349,4.349,0,0,1-1.794.958,24.289,24.289,0,0,1-3.644.713,26.028,26.028,0,0,1,.7-3.655A4.266,4.266,0,0,1,5.4,16.411Zm.936.958a2.953,2.953,0,0,0-.557,1.048,11.21,11.21,0,0,0-.423,1.828,11.209,11.209,0,0,0,1.828-.424,2.953,2.953,0,0,0,1.048-.557,1.254,1.254,0,0,0,.435-.947,1.335,1.335,0,0,0-1.382-1.382,1.254,1.254,0,0,0-.947.435Z" transform="translate(535.25 182.927)" fill="#7d7d7d"/>
        <path id="路径_514" data-name="路径 514" d="M-2.245.063a.719.719,0,0,1-.522-.211.718.718,0,0,1-.216-.535.722.722,0,0,1,.212-.54.723.723,0,0,1,.526-.207.723.723,0,0,1,.526.207.722.722,0,0,1,.211.54.718.718,0,0,1-.216.535A.719.719,0,0,1-2.245.063ZM0,.063A.719.719,0,0,1-.526-.148.718.718,0,0,1-.742-.684a.722.722,0,0,1,.211-.54A.723.723,0,0,1,0-1.431a.723.723,0,0,1,.527.207.722.722,0,0,1,.211.54.718.718,0,0,1-.216.535A.719.719,0,0,1,0,.063Zm2.25,0a.719.719,0,0,1-.522-.211.718.718,0,0,1-.216-.535.722.722,0,0,1,.212-.54.723.723,0,0,1,.526-.207.723.723,0,0,1,.527.207.722.722,0,0,1,.212.54.718.718,0,0,1-.216.535A.719.719,0,0,1,2.245.063Z" transform="translate(548 172)" fill="#003232"/>
        <path id="路径_513" data-name="路径 513" d="M-25.418-5.319V-3.4H-22.6v.99h-2.815V0H-26.5V-6.3h4.256v.981Zm8.72.513V0h-.991V-.612a1.673,1.673,0,0,1-.625.5,1.881,1.881,0,0,1-.808.176,1.85,1.85,0,0,1-1.4-.535,2.216,2.216,0,0,1-.512-1.589V-4.806H-20v2.592a1.469,1.469,0,0,0,.271.967.954.954,0,0,0,.77.32,1.122,1.122,0,0,0,.887-.374,1.578,1.578,0,0,0,.329-1.075v-2.43Zm4.306-.054a1.781,1.781,0,0,1,1.349.531,2.2,2.2,0,0,1,.508,1.575V0h-1.041V-2.61a1.422,1.422,0,0,0-.275-.95.976.976,0,0,0-.783-.319,1.155,1.155,0,0,0-.908.374,1.565,1.565,0,0,0-.333,1.075V0h-1.041V-4.806h.991v.621a1.638,1.638,0,0,1,.65-.5A2.184,2.184,0,0,1-12.392-4.86ZM-6.712.063A2.451,2.451,0,0,1-7.953-.252a2.221,2.221,0,0,1-.858-.877A2.607,2.607,0,0,1-9.119-2.4a2.581,2.581,0,0,1,.308-1.269,2.237,2.237,0,0,1,.854-.873A2.444,2.444,0,0,1-6.712-4.86a2.254,2.254,0,0,1,1.153.288,1.811,1.811,0,0,1,.745.828l-.8.5a1.32,1.32,0,0,0-.479-.5,1.232,1.232,0,0,0-.629-.167,1.267,1.267,0,0,0-.966.409A1.536,1.536,0,0,0-8.07-2.4a1.546,1.546,0,0,0,.379,1.093,1.263,1.263,0,0,0,.97.409,1.232,1.232,0,0,0,.629-.167,1.32,1.32,0,0,0,.479-.5l.8.5a1.886,1.886,0,0,1-.754.833A2.21,2.21,0,0,1-6.712.063ZM-.766-.261a1.194,1.194,0,0,1-.446.243,1.867,1.867,0,0,1-.554.081A1.5,1.5,0,0,1-2.9-.351a1.669,1.669,0,0,1-.4-1.206V-3.87h-.733v-.9H-3.3v-1.1h1.041v1.1h1.191v.9H-2.257v2.286a.8.8,0,0,0,.158.536.57.57,0,0,0,.458.184.869.869,0,0,0,.583-.2ZM.508-4.806H1.549V0H.508ZM1.033-5.6a.641.641,0,0,1-.475-.194.657.657,0,0,1-.192-.482.657.657,0,0,1,.192-.482.641.641,0,0,1,.475-.193.658.658,0,0,1,.475.184A.617.617,0,0,1,1.7-6.3a.708.708,0,0,1-.187.5A.624.624,0,0,1,1.033-5.6ZM5.33.063A2.373,2.373,0,0,1,4.114-.252a2.209,2.209,0,0,1-.845-.877,2.635,2.635,0,0,1-.3-1.273,2.609,2.609,0,0,1,.3-1.269,2.217,2.217,0,0,1,.845-.873A2.373,2.373,0,0,1,5.33-4.86a2.389,2.389,0,0,1,1.224.315,2.217,2.217,0,0,1,.845.873A2.609,2.609,0,0,1,7.7-2.4a2.635,2.635,0,0,1-.3,1.273,2.209,2.209,0,0,1-.845.877A2.389,2.389,0,0,1,5.33.063Zm0-.963a1.225,1.225,0,0,0,.949-.414A1.56,1.56,0,0,0,6.654-2.4,1.56,1.56,0,0,0,6.28-3.492a1.225,1.225,0,0,0-.949-.414,1.212,1.212,0,0,0-.945.414A1.571,1.571,0,0,0,4.014-2.4a1.571,1.571,0,0,0,.371,1.089A1.212,1.212,0,0,0,5.33-.9Zm6.313-3.96a1.781,1.781,0,0,1,1.349.531A2.2,2.2,0,0,1,13.5-2.754V0H12.459V-2.61a1.422,1.422,0,0,0-.275-.95.976.976,0,0,0-.783-.319,1.155,1.155,0,0,0-.908.374,1.565,1.565,0,0,0-.333,1.075V0H9.12V-4.806h.991v.621a1.638,1.638,0,0,1,.65-.5A2.184,2.184,0,0,1,11.643-4.86ZM20.754.09a3.089,3.089,0,0,1-1.595-.418,2.967,2.967,0,0,1-1.116-1.157,3.41,3.41,0,0,1-.4-1.665,3.382,3.382,0,0,1,.408-1.665,3,3,0,0,1,1.12-1.156,3.089,3.089,0,0,1,1.595-.418,3.111,3.111,0,0,1,1.308.27,2.687,2.687,0,0,1,1,.783l-.7.711a1.974,1.974,0,0,0-1.557-.738,2.055,2.055,0,0,0-1.074.284A1.969,1.969,0,0,0,19-4.293,2.407,2.407,0,0,0,18.73-3.15,2.407,2.407,0,0,0,19-2.007a1.969,1.969,0,0,0,.741.788,2.055,2.055,0,0,0,1.074.283,1.965,1.965,0,0,0,1.557-.747l.7.72a2.678,2.678,0,0,1-1,.783A3.139,3.139,0,0,1,20.754.09Z" transform="translate(550 156)" fill="#003232"/>
        <path id="icon_Function-2" data-name="icon_Function" d="M6.246,11.374l2.363,1q.4-.8.858-1.583t.97-1.493L8.676,8.944Zm3.433,1.805,2.964,2.964a17.521,17.521,0,0,0,2.385-1.315A11.59,11.59,0,0,0,16.834,13.4a12.541,12.541,0,0,0,2.652-3.7,11.159,11.159,0,0,0,.914-4.28,11.159,11.159,0,0,0-4.28.914,12.541,12.541,0,0,0-3.7,2.652,11.59,11.59,0,0,0-1.427,1.805,17.521,17.521,0,0,0-1.315,2.385Zm5.1-2.14a1.588,1.588,0,1,1,1.1.446A1.5,1.5,0,0,1,14.783,11.039Zm-.334,8.537,2.43-2.43-.357-1.761q-.713.513-1.493.97t-1.583.858ZM21.715,4.107a12.887,12.887,0,0,1-.758,5.528,13.549,13.549,0,0,1-3.165,4.7l-.045.045-.045.045.49,2.452a1.267,1.267,0,0,1-.033.646,1.377,1.377,0,0,1-.345.557L14,21.917,12.109,17.5,8.319,13.714,3.906,11.819,7.74,8.008A1.377,1.377,0,0,1,8.3,7.662a1.267,1.267,0,0,1,.646-.033l2.452.49a.175.175,0,0,1,.045-.033.175.175,0,0,0,.045-.033,13.69,13.69,0,0,1,4.7-3.176A12.774,12.774,0,0,1,21.715,4.107ZM5.4,16.411a2.632,2.632,0,0,1,1.906-.791A2.627,2.627,0,0,1,9.98,18.294,2.632,2.632,0,0,1,9.189,20.2a4.349,4.349,0,0,1-1.794.958,24.289,24.289,0,0,1-3.644.713,26.028,26.028,0,0,1,.7-3.655A4.266,4.266,0,0,1,5.4,16.411Zm.936.958a2.953,2.953,0,0,0-.557,1.048,11.21,11.21,0,0,0-.423,1.828,11.209,11.209,0,0,0,1.828-.424,2.953,2.953,0,0,0,1.048-.557,1.254,1.254,0,0,0,.435-.947,1.335,1.335,0,0,0-1.382-1.382,1.254,1.254,0,0,0-.947.435Z" transform="translate(535.25 121.927)" fill="#7d7d7d"/>
        <path id="路径_512" data-name="路径 512" d="M-25.571-5.319V-3.4h2.816v.99h-2.816V0h-1.083V-6.3H-22.4v.981Zm8.722.513V0h-.991V-.612a1.673,1.673,0,0,1-.625.5,1.882,1.882,0,0,1-.808.176,1.851,1.851,0,0,1-1.4-.535,2.215,2.215,0,0,1-.512-1.589V-4.806h1.041v2.592a1.469,1.469,0,0,0,.271.967.954.954,0,0,0,.771.32,1.123,1.123,0,0,0,.887-.374,1.578,1.578,0,0,0,.329-1.075v-2.43Zm4.307-.054a1.781,1.781,0,0,1,1.35.531,2.2,2.2,0,0,1,.508,1.575V0h-1.041V-2.61A1.422,1.422,0,0,0-12-3.559a.977.977,0,0,0-.783-.319,1.155,1.155,0,0,0-.908.374,1.564,1.564,0,0,0-.333,1.075V0h-1.041V-4.806h.991v.621a1.639,1.639,0,0,1,.65-.5A2.185,2.185,0,0,1-12.542-4.86ZM-6.86.063A2.452,2.452,0,0,1-8.1-.252a2.221,2.221,0,0,1-.858-.877A2.606,2.606,0,0,1-9.268-2.4a2.58,2.58,0,0,1,.308-1.269,2.238,2.238,0,0,1,.854-.873A2.446,2.446,0,0,1-6.86-4.86a2.255,2.255,0,0,1,1.154.288,1.811,1.811,0,0,1,.746.828l-.8.5a1.32,1.32,0,0,0-.479-.5,1.233,1.233,0,0,0-.629-.167,1.267,1.267,0,0,0-.966.409A1.536,1.536,0,0,0-8.218-2.4a1.546,1.546,0,0,0,.379,1.093A1.264,1.264,0,0,0-6.868-.9a1.233,1.233,0,0,0,.629-.167,1.32,1.32,0,0,0,.479-.5l.8.5a1.886,1.886,0,0,1-.754.833A2.211,2.211,0,0,1-6.86.063ZM-.912-.261a1.2,1.2,0,0,1-.446.243,1.868,1.868,0,0,1-.554.081A1.5,1.5,0,0,1-3.045-.351a1.669,1.669,0,0,1-.4-1.206V-3.87h-.733v-.9h.733v-1.1H-2.4v1.1h1.191v.9H-2.4v2.286a.8.8,0,0,0,.158.536.571.571,0,0,0,.458.184.87.87,0,0,0,.583-.2ZM.362-4.806H1.4V0H.362ZM.887-5.6a.642.642,0,0,1-.475-.194.657.657,0,0,1-.192-.482.657.657,0,0,1,.192-.482.642.642,0,0,1,.475-.193.658.658,0,0,1,.475.184.617.617,0,0,1,.192.464.708.708,0,0,1-.187.5A.624.624,0,0,1,.887-5.6ZM5.186.063A2.374,2.374,0,0,1,3.97-.252a2.209,2.209,0,0,1-.846-.877A2.635,2.635,0,0,1,2.82-2.4a2.609,2.609,0,0,1,.3-1.269,2.217,2.217,0,0,1,.846-.873A2.374,2.374,0,0,1,5.186-4.86a2.39,2.39,0,0,1,1.225.315,2.217,2.217,0,0,1,.846.873A2.609,2.609,0,0,1,7.56-2.4a2.635,2.635,0,0,1-.3,1.273,2.209,2.209,0,0,1-.846.877A2.39,2.39,0,0,1,5.186.063Zm0-.963a1.225,1.225,0,0,0,.95-.414A1.56,1.56,0,0,0,6.51-2.4a1.56,1.56,0,0,0-.375-1.089,1.225,1.225,0,0,0-.95-.414,1.213,1.213,0,0,0-.946.414A1.571,1.571,0,0,0,3.87-2.4,1.571,1.571,0,0,0,4.24-1.314,1.213,1.213,0,0,0,5.186-.9ZM11.5-4.86a1.781,1.781,0,0,1,1.35.531,2.2,2.2,0,0,1,.508,1.575V0H12.317V-2.61a1.422,1.422,0,0,0-.275-.95.977.977,0,0,0-.783-.319,1.155,1.155,0,0,0-.908.374,1.564,1.564,0,0,0-.333,1.075V0H8.976V-4.806h.991v.621a1.639,1.639,0,0,1,.65-.5A2.185,2.185,0,0,1,11.5-4.86ZM22.047-3.276a1.543,1.543,0,0,1,.766.572,1.679,1.679,0,0,1,.283.994,1.5,1.5,0,0,1-.583,1.265,2.763,2.763,0,0,1-1.7.445h-2.9V-6.3h2.732a2.533,2.533,0,0,1,1.591.437,1.441,1.441,0,0,1,.558,1.2,1.677,1.677,0,0,1-.2.828A1.419,1.419,0,0,1,22.047-3.276ZM19-5.382v1.737h1.533a1.467,1.467,0,0,0,.871-.221.745.745,0,0,0,.3-.643.754.754,0,0,0-.3-.653,1.467,1.467,0,0,0-.871-.22ZM20.747-.918q1.258,0,1.258-.909t-1.258-.909H19V-.918Z" transform="translate(550 110)" fill="#003232"/>
        <path id="icon_Function-3" data-name="icon_Function" d="M6.246,11.374l2.363,1q.4-.8.858-1.583t.97-1.493L8.676,8.944Zm3.433,1.805,2.964,2.964a17.521,17.521,0,0,0,2.385-1.315A11.59,11.59,0,0,0,16.834,13.4a12.541,12.541,0,0,0,2.652-3.7,11.159,11.159,0,0,0,.914-4.28,11.159,11.159,0,0,0-4.28.914,12.541,12.541,0,0,0-3.7,2.652,11.59,11.59,0,0,0-1.427,1.805,17.521,17.521,0,0,0-1.315,2.385Zm5.1-2.14a1.588,1.588,0,1,1,1.1.446A1.5,1.5,0,0,1,14.783,11.039Zm-.334,8.537,2.43-2.43-.357-1.761q-.713.513-1.493.97t-1.583.858ZM21.715,4.107a12.887,12.887,0,0,1-.758,5.528,13.549,13.549,0,0,1-3.165,4.7l-.045.045-.045.045.49,2.452a1.267,1.267,0,0,1-.033.646,1.377,1.377,0,0,1-.345.557L14,21.917,12.109,17.5,8.319,13.714,3.906,11.819,7.74,8.008A1.377,1.377,0,0,1,8.3,7.662a1.267,1.267,0,0,1,.646-.033l2.452.49a.175.175,0,0,1,.045-.033.175.175,0,0,0,.045-.033,13.69,13.69,0,0,1,4.7-3.176A12.774,12.774,0,0,1,21.715,4.107ZM5.4,16.411a2.632,2.632,0,0,1,1.906-.791A2.627,2.627,0,0,1,9.98,18.294,2.632,2.632,0,0,1,9.189,20.2a4.349,4.349,0,0,1-1.794.958,24.289,24.289,0,0,1-3.644.713,26.028,26.028,0,0,1,.7-3.655A4.266,4.266,0,0,1,5.4,16.411Zm.936.958a2.953,2.953,0,0,0-.557,1.048,11.21,11.21,0,0,0-.423,1.828,11.209,11.209,0,0,0,1.828-.424,2.953,2.953,0,0,0,1.048-.557,1.254,1.254,0,0,0,.435-.947,1.335,1.335,0,0,0-1.382-1.382,1.254,1.254,0,0,0-.947.435Z" transform="translate(535.25 75.927)" fill="#7d7d7d"/>
        <path id="路径_511" data-name="路径 511" d="M-25.538-5.319V-3.4h2.761v.99h-2.761V0H-26.6V-6.3h4.174v.981Zm8.552.513V0h-.972V-.612a1.647,1.647,0,0,1-.613.5,1.815,1.815,0,0,1-.792.176,1.8,1.8,0,0,1-1.376-.535,2.244,2.244,0,0,1-.5-1.589V-4.806h1.021v2.592a1.49,1.49,0,0,0,.265.967.927.927,0,0,0,.756.32,1.091,1.091,0,0,0,.87-.374,1.6,1.6,0,0,0,.323-1.075v-2.43Zm4.223-.054a1.729,1.729,0,0,1,1.323.531,2.224,2.224,0,0,1,.5,1.575V0h-1.021V-2.61a1.441,1.441,0,0,0-.27-.95A.949.949,0,0,0-13-3.879a1.122,1.122,0,0,0-.89.374,1.585,1.585,0,0,0-.327,1.075V0h-1.021V-4.806h.972v.621a1.611,1.611,0,0,1,.637-.5A2.106,2.106,0,0,1-12.763-4.86ZM-7.192.063A2.367,2.367,0,0,1-8.409-.252a2.2,2.2,0,0,1-.841-.877,2.648,2.648,0,0,1-.3-1.273,2.622,2.622,0,0,1,.3-1.269,2.218,2.218,0,0,1,.837-.873A2.361,2.361,0,0,1-7.192-4.86a2.177,2.177,0,0,1,1.131.288,1.8,1.8,0,0,1,.731.828l-.784.5a1.309,1.309,0,0,0-.47-.5A1.19,1.19,0,0,0-7.2-3.906a1.231,1.231,0,0,0-.947.409A1.554,1.554,0,0,0-8.524-2.4a1.565,1.565,0,0,0,.372,1.093A1.227,1.227,0,0,0-7.2-.9a1.19,1.19,0,0,0,.617-.167,1.309,1.309,0,0,0,.47-.5l.784.5a1.873,1.873,0,0,1-.739.833A2.135,2.135,0,0,1-7.192.063ZM-1.36-.261A1.165,1.165,0,0,1-1.8-.018,1.8,1.8,0,0,1-2.34.063,1.457,1.457,0,0,1-3.451-.351a1.69,1.69,0,0,1-.392-1.206V-3.87h-.719v-.9h.719v-1.1h1.021v1.1h1.168v.9H-2.822v2.286a.812.812,0,0,0,.155.536.554.554,0,0,0,.449.184.842.842,0,0,0,.572-.2Zm1.25-4.545H.911V0H-.111ZM.4-5.6a.623.623,0,0,1-.466-.194.664.664,0,0,1-.188-.482.664.664,0,0,1,.188-.482A.623.623,0,0,1,.4-6.948a.638.638,0,0,1,.466.184.623.623,0,0,1,.188.464.716.716,0,0,1-.184.5A.606.606,0,0,1,.4-5.6ZM4.619.063A2.292,2.292,0,0,1,3.426-.252,2.191,2.191,0,0,1,2.6-1.129,2.677,2.677,0,0,1,2.3-2.4a2.651,2.651,0,0,1,.3-1.269,2.2,2.2,0,0,1,.829-.873A2.292,2.292,0,0,1,4.619-4.86a2.308,2.308,0,0,1,1.2.315,2.2,2.2,0,0,1,.829.873,2.651,2.651,0,0,1,.3,1.269,2.677,2.677,0,0,1-.3,1.273,2.191,2.191,0,0,1-.829.877A2.308,2.308,0,0,1,4.619.063Zm0-.963a1.191,1.191,0,0,0,.931-.414A1.579,1.579,0,0,0,5.918-2.4,1.579,1.579,0,0,0,5.55-3.492a1.191,1.191,0,0,0-.931-.414,1.179,1.179,0,0,0-.927.414A1.591,1.591,0,0,0,3.328-2.4a1.591,1.591,0,0,0,.363,1.089A1.179,1.179,0,0,0,4.619-.9ZM10.81-4.86a1.729,1.729,0,0,1,1.323.531,2.224,2.224,0,0,1,.5,1.575V0H11.611V-2.61a1.441,1.441,0,0,0-.27-.95.949.949,0,0,0-.768-.319,1.122,1.122,0,0,0-.89.374A1.585,1.585,0,0,0,9.356-2.43V0H8.335V-4.806h.972v.621a1.611,1.611,0,0,1,.637-.5A2.106,2.106,0,0,1,10.81-4.86Zm10,3.4H17.949L17.385,0H16.291l2.573-6.3h1.046L22.491,0H21.38Zm-.351-.918L19.378-5.13l-1.07,2.754Z" transform="translate(551 65)" fill="#003232"/>
        <path id="icon_Function-4" data-name="icon_Function" d="M6.246,11.374l2.363,1q.4-.8.858-1.583t.97-1.493L8.676,8.944Zm3.433,1.805,2.964,2.964a17.521,17.521,0,0,0,2.385-1.315A11.59,11.59,0,0,0,16.834,13.4a12.541,12.541,0,0,0,2.652-3.7,11.159,11.159,0,0,0,.914-4.28,11.159,11.159,0,0,0-4.28.914,12.541,12.541,0,0,0-3.7,2.652,11.59,11.59,0,0,0-1.427,1.805,17.521,17.521,0,0,0-1.315,2.385Zm5.1-2.14a1.588,1.588,0,1,1,1.1.446A1.5,1.5,0,0,1,14.783,11.039Zm-.334,8.537,2.43-2.43-.357-1.761q-.713.513-1.493.97t-1.583.858ZM21.715,4.107a12.887,12.887,0,0,1-.758,5.528,13.549,13.549,0,0,1-3.165,4.7l-.045.045-.045.045.49,2.452a1.267,1.267,0,0,1-.033.646,1.377,1.377,0,0,1-.345.557L14,21.917,12.109,17.5,8.319,13.714,3.906,11.819,7.74,8.008A1.377,1.377,0,0,1,8.3,7.662a1.267,1.267,0,0,1,.646-.033l2.452.49a.175.175,0,0,1,.045-.033.175.175,0,0,0,.045-.033,13.69,13.69,0,0,1,4.7-3.176A12.774,12.774,0,0,1,21.715,4.107ZM5.4,16.411a2.632,2.632,0,0,1,1.906-.791A2.627,2.627,0,0,1,9.98,18.294,2.632,2.632,0,0,1,9.189,20.2a4.349,4.349,0,0,1-1.794.958,24.289,24.289,0,0,1-3.644.713,26.028,26.028,0,0,1,.7-3.655A4.266,4.266,0,0,1,5.4,16.411Zm.936.958a2.953,2.953,0,0,0-.557,1.048,11.21,11.21,0,0,0-.423,1.828,11.209,11.209,0,0,0,1.828-.424,2.953,2.953,0,0,0,1.048-.557,1.254,1.254,0,0,0,.435-.947,1.335,1.335,0,0,0-1.382-1.382,1.254,1.254,0,0,0-.947.435Z" transform="translate(535.25 29.927)" fill="#7d7d7d"/>
      </g>
      <g id="p1">
        <path id="about_arrow_icon-2" data-name="about_arrow_icon" d="M541.289,150l.155.155-5.81,5.8-.645-.645,4.887-4.879H476v-.922h63.87l-4.911-4.9.652-.651,5.862,5.858Z" transform="translate(304.182 89.871)" fill="#01d9ca" fill-rule="evenodd"/>
        <path id="路径_510" data-name="路径 510" d="M-43.547-6.3a3.145,3.145,0,0,1,1.349.27,1.993,1.993,0,0,1,.881.774,2.259,2.259,0,0,1,.306,1.2,2.265,2.265,0,0,1-.306,1.192,1.984,1.984,0,0,1-.881.779,3.145,3.145,0,0,1-1.349.27h-1.345V0H-46V-6.3ZM-43.6-2.808a1.635,1.635,0,0,0,1.1-.324,1.159,1.159,0,0,0,.375-.927,1.159,1.159,0,0,0-.375-.927,1.635,1.635,0,0,0-1.1-.324h-1.294v2.5Zm4.989-1.3a1.738,1.738,0,0,1,1.618-.756v1.071a1.281,1.281,0,0,0-.247-.027,1.248,1.248,0,0,0-.971.382,1.58,1.58,0,0,0-.349,1.1V0h-1.064V-4.806h1.013ZM-33.662.063a2.468,2.468,0,0,1-1.243-.315,2.232,2.232,0,0,1-.864-.877A2.589,2.589,0,0,1-36.08-2.4a2.564,2.564,0,0,1,.311-1.269,2.24,2.24,0,0,1,.864-.873,2.468,2.468,0,0,1,1.243-.315,2.485,2.485,0,0,1,1.252.315,2.24,2.24,0,0,1,.864.873A2.564,2.564,0,0,1-31.236-2.4a2.589,2.589,0,0,1-.311,1.273,2.232,2.232,0,0,1-.864.877A2.485,2.485,0,0,1-33.662.063Zm0-.963a1.265,1.265,0,0,0,.971-.414A1.54,1.54,0,0,0-32.309-2.4a1.54,1.54,0,0,0-.383-1.089,1.265,1.265,0,0,0-.971-.414,1.252,1.252,0,0,0-.966.414A1.55,1.55,0,0,0-35.008-2.4a1.55,1.55,0,0,0,.379,1.089A1.252,1.252,0,0,0-33.662-.9Zm6.394-3.96a2.31,2.31,0,0,1,1.188.306,2.15,2.15,0,0,1,.822.864,2.691,2.691,0,0,1,.3,1.287,2.717,2.717,0,0,1-.3,1.291,2.143,2.143,0,0,1-.822.869,2.31,2.31,0,0,1-1.188.306,2.1,2.1,0,0,1-.856-.171,1.657,1.657,0,0,1-.651-.513V0h-1.013V-6.678h1.064v2.457a1.79,1.79,0,0,1,.643-.477A2.007,2.007,0,0,1-27.269-4.86ZM-27.388-.9a1.252,1.252,0,0,0,.966-.414A1.55,1.55,0,0,0-26.043-2.4a1.55,1.55,0,0,0-.379-1.089,1.252,1.252,0,0,0-.966-.414,1.311,1.311,0,0,0-.69.184,1.3,1.3,0,0,0-.485.527,1.685,1.685,0,0,0-.179.792,1.685,1.685,0,0,0,.179.792,1.3,1.3,0,0,0,.485.527A1.311,1.311,0,0,0-27.388-.9Zm5.543-3.96a2.139,2.139,0,0,1,1.537.509,2.029,2.029,0,0,1,.532,1.535V0h-1V-.585a1.256,1.256,0,0,1-.558.481,2.077,2.077,0,0,1-.873.167,2.039,2.039,0,0,1-.894-.185A1.4,1.4,0,0,1-23.7-.635a1.356,1.356,0,0,1-.209-.742,1.3,1.3,0,0,1,.455-1.04,2.172,2.172,0,0,1,1.435-.391h1.175V-2.88a1.015,1.015,0,0,0-.285-.774,1.19,1.19,0,0,0-.847-.27,2.325,2.325,0,0,0-.753.126,1.821,1.821,0,0,0-.626.351l-.417-.819a2.528,2.528,0,0,1,.86-.441A3.633,3.633,0,0,1-21.845-4.86Zm-.145,4.1a1.317,1.317,0,0,0,.711-.193,1.041,1.041,0,0,0,.438-.554v-.558h-1.1q-.919,0-.919.639a.585.585,0,0,0,.23.486A1.012,1.012,0,0,0-21.99-.756Zm6.522-4.1a2.31,2.31,0,0,1,1.188.306,2.15,2.15,0,0,1,.822.864,2.691,2.691,0,0,1,.3,1.287,2.717,2.717,0,0,1-.3,1.291,2.143,2.143,0,0,1-.822.869,2.31,2.31,0,0,1-1.188.306,2.1,2.1,0,0,1-.856-.171,1.657,1.657,0,0,1-.651-.513V0h-1.013V-6.678h1.064v2.457a1.79,1.79,0,0,1,.643-.477A2.007,2.007,0,0,1-15.468-4.86ZM-15.588-.9a1.252,1.252,0,0,0,.966-.414A1.55,1.55,0,0,0-14.242-2.4a1.55,1.55,0,0,0-.379-1.089,1.252,1.252,0,0,0-.966-.414,1.311,1.311,0,0,0-.69.184,1.3,1.3,0,0,0-.485.527,1.685,1.685,0,0,0-.179.792,1.685,1.685,0,0,0,.179.792,1.3,1.3,0,0,0,.485.527A1.311,1.311,0,0,0-15.588-.9Zm3.865-3.906h1.064V0h-1.064Zm.536-.792a.663.663,0,0,1-.485-.194.65.65,0,0,1-.2-.482.65.65,0,0,1,.2-.482.663.663,0,0,1,.485-.193.681.681,0,0,1,.485.184.61.61,0,0,1,.2.464.7.7,0,0,1-.192.5A.644.644,0,0,1-11.186-5.6Zm2.35-1.08h1.064V0H-8.836ZM-5.95-4.806h1.064V0H-5.95Zm.536-.792A.663.663,0,0,1-5.9-5.791a.65.65,0,0,1-.2-.482.65.65,0,0,1,.2-.482.663.663,0,0,1,.485-.193.681.681,0,0,1,.485.184.61.61,0,0,1,.2.464.7.7,0,0,1-.192.5A.644.644,0,0,1-5.414-5.6ZM-1.659.063A3.865,3.865,0,0,1-2.74-.09a2.649,2.649,0,0,1-.843-.387l.409-.855a2.56,2.56,0,0,0,.736.347,2.906,2.906,0,0,0,.847.13q.954,0,.954-.531A.353.353,0,0,0-.88-1.737a4,4,0,0,0-.779-.189,6.027,6.027,0,0,1-.915-.207,1.4,1.4,0,0,1-.613-.409,1.185,1.185,0,0,1-.26-.814,1.3,1.3,0,0,1,.541-1.094,2.362,2.362,0,0,1,1.46-.41,4,4,0,0,1,.937.113,2.54,2.54,0,0,1,.766.3l-.409.855a2.416,2.416,0,0,0-1.3-.36,1.378,1.378,0,0,0-.711.148.445.445,0,0,0-.243.392.39.39,0,0,0,.26.383,3.947,3.947,0,0,0,.8.211A5.922,5.922,0,0,1-.45-2.61a1.391,1.391,0,0,1,.6.4A1.144,1.144,0,0,1,.4-1.422,1.273,1.273,0,0,1-.152-.342,2.5,2.5,0,0,1-1.659.063ZM4.48-.261a1.229,1.229,0,0,1-.455.243,1.948,1.948,0,0,1-.566.081A1.554,1.554,0,0,1,2.3-.351a1.647,1.647,0,0,1-.409-1.206V-3.87H1.142v-.9h.749v-1.1H2.956v1.1H4.173v.9H2.956v2.286a.789.789,0,0,0,.162.536.589.589,0,0,0,.468.184.9.9,0,0,0,.6-.2Zm1.3-4.545H6.846V0H5.782ZM6.319-5.6a.663.663,0,0,1-.485-.194.65.65,0,0,1-.2-.482.65.65,0,0,1,.2-.482.663.663,0,0,1,.485-.193.681.681,0,0,1,.485.184A.61.61,0,0,1,7-6.3a.7.7,0,0,1-.192.5A.644.644,0,0,1,6.319-5.6ZM10.754.063A2.549,2.549,0,0,1,9.486-.252a2.245,2.245,0,0,1-.877-.877A2.561,2.561,0,0,1,8.294-2.4a2.536,2.536,0,0,1,.315-1.269,2.261,2.261,0,0,1,.873-.873,2.543,2.543,0,0,1,1.273-.315,2.345,2.345,0,0,1,1.179.288,1.825,1.825,0,0,1,.762.828l-.817.5a1.333,1.333,0,0,0-.49-.5,1.281,1.281,0,0,0-.643-.167,1.309,1.309,0,0,0-.988.409A1.516,1.516,0,0,0,9.367-2.4a1.526,1.526,0,0,0,.387,1.093,1.305,1.305,0,0,0,.992.409,1.281,1.281,0,0,0,.643-.167,1.333,1.333,0,0,0,.49-.5l.817.5a1.9,1.9,0,0,1-.771.833A2.3,2.3,0,0,1,10.754.063ZM20.784-1.458H17.8L17.216,0H16.075l2.682-6.3h1.09L22.537,0H21.38Zm-.366-.918L19.294-5.13,18.178-2.376ZM24.981.063A3.865,3.865,0,0,1,23.9-.09a2.649,2.649,0,0,1-.843-.387l.409-.855a2.56,2.56,0,0,0,.736.347,2.906,2.906,0,0,0,.847.13Q26-.855,26-1.386a.353.353,0,0,0-.243-.351,4,4,0,0,0-.779-.189,6.027,6.027,0,0,1-.915-.207,1.4,1.4,0,0,1-.613-.409,1.185,1.185,0,0,1-.26-.814,1.3,1.3,0,0,1,.541-1.094,2.362,2.362,0,0,1,1.46-.41,4,4,0,0,1,.937.113,2.54,2.54,0,0,1,.766.3l-.409.855a2.416,2.416,0,0,0-1.3-.36,1.378,1.378,0,0,0-.711.148.445.445,0,0,0-.243.392.39.39,0,0,0,.26.383,3.947,3.947,0,0,0,.8.211,5.922,5.922,0,0,1,.894.207,1.391,1.391,0,0,1,.6.4,1.144,1.144,0,0,1,.251.792,1.273,1.273,0,0,1-.553,1.08A2.5,2.5,0,0,1,24.981.063Zm4.81,0A3.865,3.865,0,0,1,28.71-.09a2.649,2.649,0,0,1-.843-.387l.409-.855a2.56,2.56,0,0,0,.736.347,2.906,2.906,0,0,0,.847.13q.954,0,.954-.531a.353.353,0,0,0-.243-.351,4,4,0,0,0-.779-.189,6.027,6.027,0,0,1-.915-.207,1.4,1.4,0,0,1-.613-.409A1.185,1.185,0,0,1,28-3.357a1.3,1.3,0,0,1,.541-1.094A2.362,2.362,0,0,1,30-4.86a4,4,0,0,1,.937.113,2.54,2.54,0,0,1,.766.3l-.409.855a2.416,2.416,0,0,0-1.3-.36,1.378,1.378,0,0,0-.711.148.445.445,0,0,0-.243.392.39.39,0,0,0,.26.383,3.946,3.946,0,0,0,.8.211A5.922,5.922,0,0,1,31-2.61a1.39,1.39,0,0,1,.6.4,1.144,1.144,0,0,1,.251.792A1.273,1.273,0,0,1,31.3-.342,2.5,2.5,0,0,1,29.791.063Zm7.679-2.439q0,.117-.017.333H33.886a1.32,1.32,0,0,0,.49.842,1.545,1.545,0,0,0,.983.31,1.612,1.612,0,0,0,1.235-.522l.57.693a1.929,1.929,0,0,1-.775.585,2.687,2.687,0,0,1-1.056.2,2.685,2.685,0,0,1-1.32-.315,2.2,2.2,0,0,1-.881-.877A2.589,2.589,0,0,1,32.822-2.4a2.629,2.629,0,0,1,.3-1.265,2.207,2.207,0,0,1,.839-.878,2.342,2.342,0,0,1,1.209-.315,2.284,2.284,0,0,1,1.188.311,2.145,2.145,0,0,1,.817.873A2.77,2.77,0,0,1,37.471-2.376Zm-2.3-1.584a1.242,1.242,0,0,0-.864.319,1.368,1.368,0,0,0-.43.851h2.58a1.352,1.352,0,0,0-.417-.846A1.228,1.228,0,0,0,35.172-3.96Zm6.479,3.7a1.229,1.229,0,0,1-.455.243,1.948,1.948,0,0,1-.566.081,1.554,1.554,0,0,1-1.158-.414,1.647,1.647,0,0,1-.409-1.206V-3.87h-.749v-.9h.749v-1.1h1.064v1.1h1.217v.9H40.127v2.286a.789.789,0,0,0,.162.536.589.589,0,0,0,.468.184.9.9,0,0,0,.6-.2Z" transform="translate(743 255)" fill="#003232"/>
        <path id="icon_Probabilistic" d="M12.348,19.458h1.237v-1.17a3.76,3.76,0,0,0,2.138-.844,2.342,2.342,0,0,0,.765-1.834,2.674,2.674,0,0,0-.653-1.867,6.274,6.274,0,0,0-2.2-1.373,9.656,9.656,0,0,1-1.89-.967,1.35,1.35,0,0,1-.585-1.147,1.336,1.336,0,0,1,.506-1.1,2.156,2.156,0,0,1,1.384-.4,2.133,2.133,0,0,1,1.17.315,2.464,2.464,0,0,1,.832.945l1.08-.518a3.2,3.2,0,0,0-1.012-1.238,3.056,3.056,0,0,0-1.485-.54V6.565H12.392V7.713a3,3,0,0,0-1.811.844,2.348,2.348,0,0,0-.664,1.7,2.328,2.328,0,0,0,.675,1.755,6.54,6.54,0,0,0,2.025,1.215,7.814,7.814,0,0,1,2.07,1.136,1.614,1.614,0,0,1,.563,1.249,1.371,1.371,0,0,1-.6,1.159,2.457,2.457,0,0,1-1.5.439,2.606,2.606,0,0,1-1.564-.495,2.566,2.566,0,0,1-.956-1.35l-1.148.382a4.711,4.711,0,0,0,1.159,1.631,4.192,4.192,0,0,0,1.7.866ZM13,22a8.708,8.708,0,0,1-3.487-.709,9.068,9.068,0,0,1-4.8-4.8,8.99,8.99,0,0,1,0-7A8.994,8.994,0,0,1,6.644,6.633,9.226,9.226,0,0,1,9.512,4.709a8.99,8.99,0,0,1,7,0A8.986,8.986,0,0,1,21.291,9.49a8.99,8.99,0,0,1,0,7,9.226,9.226,0,0,1-1.924,2.869,8.994,8.994,0,0,1-2.858,1.935A8.764,8.764,0,0,1,13,22Zm0-1.35a7.361,7.361,0,0,0,5.423-2.239A7.391,7.391,0,0,0,20.65,13a7.38,7.38,0,0,0-2.227-5.422A7.38,7.38,0,0,0,13,5.35,7.391,7.391,0,0,0,7.589,7.577,7.361,7.361,0,0,0,5.35,13a7.372,7.372,0,0,0,2.239,5.411A7.372,7.372,0,0,0,13,20.65ZM13,13Z" transform="translate(727 221)" fill="#7d7d7d"/>
        <path id="路径_509" data-name="路径 509" d="M-9.184.09A3.333,3.333,0,0,1-10.85-.329,3.031,3.031,0,0,1-12.015-1.49a3.3,3.3,0,0,1-.423-1.66,3.3,3.3,0,0,1,.423-1.661A3.031,3.031,0,0,1-10.85-5.971,3.333,3.333,0,0,1-9.184-6.39a3.333,3.333,0,0,1,1.666.418A3.04,3.04,0,0,1-6.352-4.815,3.288,3.288,0,0,1-5.929-3.15a3.288,3.288,0,0,1-.423,1.665A3.04,3.04,0,0,1-7.517-.329,3.333,3.333,0,0,1-9.184.09Zm0-1.026A2.11,2.11,0,0,0-8.1-1.219a2.011,2.011,0,0,0,.76-.792A2.346,2.346,0,0,0-7.06-3.15a2.346,2.346,0,0,0-.276-1.138A2.011,2.011,0,0,0-8.1-5.08a2.11,2.11,0,0,0-1.088-.284,2.11,2.11,0,0,0-1.088.284,2.011,2.011,0,0,0-.76.792,2.346,2.346,0,0,0-.276,1.138,2.346,2.346,0,0,0,.276,1.138,2.011,2.011,0,0,0,.76.792A2.11,2.11,0,0,0-9.184-.936ZM1.245,0,1.236-4.176-.75-.72h-.5l-1.985-3.4V0h-1.07V-6.3h.924l2.4,4.176L1.374-6.3H2.3L2.306,0ZM9.92,0,9.912-4.176,7.926-.72h-.5L5.44-4.122V0H4.369V-6.3h.924l2.4,4.176L10.05-6.3h.924L10.982,0Z" transform="translate(667 231)" fill="#01d9ca"/>
        <path id="about_arrow_icon-3" data-name="about_arrow_icon" d="M541.289,150l.155.155-5.81,5.8-.645-.645,4.887-4.879H476v-.922h63.87l-4.911-4.9.652-.651,5.862,5.858Z" transform="translate(157.182 89.871)" fill="#01d9ca" fill-rule="evenodd"/>
        <path id="路径_508" data-name="路径 508" d="M-68.494.09a4.3,4.3,0,0,1-1.33-.207,2.723,2.723,0,0,1-1.015-.549l.382-.909a2.959,2.959,0,0,0,.9.5,3.1,3.1,0,0,0,1.066.194,1.759,1.759,0,0,0,.99-.225.69.69,0,0,0,.327-.594.591.591,0,0,0-.183-.446,1.265,1.265,0,0,0-.463-.274q-.28-.1-.765-.225a8.539,8.539,0,0,1-1.1-.342,1.814,1.814,0,0,1-.722-.536,1.5,1.5,0,0,1-.3-.985,1.753,1.753,0,0,1,.268-.95,1.834,1.834,0,0,1,.807-.679,3.109,3.109,0,0,1,1.321-.252,4.041,4.041,0,0,1,1.07.144,2.876,2.876,0,0,1,.909.414l-.348.909a3.337,3.337,0,0,0-.816-.369,2.892,2.892,0,0,0-.824-.126,1.645,1.645,0,0,0-.973.234.734.734,0,0,0-.319.621.577.577,0,0,0,.183.441,1.3,1.3,0,0,0,.463.27q.28.1.765.225a7.708,7.708,0,0,1,1.087.337,1.865,1.865,0,0,1,.726.536,1.466,1.466,0,0,1,.3.972,1.731,1.731,0,0,1-.268.945,1.842,1.842,0,0,1-.811.675A3.138,3.138,0,0,1-68.494.09Zm6.55-.351a1.226,1.226,0,0,1-.455.243,1.94,1.94,0,0,1-.565.081,1.549,1.549,0,0,1-1.155-.414,1.649,1.649,0,0,1-.408-1.206V-3.87h-.748v-.9h.748v-1.1h1.062v1.1h1.215v.9h-1.215v2.286a.79.79,0,0,0,.161.536.588.588,0,0,0,.467.184.9.9,0,0,0,.595-.2Zm3.186.324A2.458,2.458,0,0,1-60-.252a2.229,2.229,0,0,1-.862-.877,2.594,2.594,0,0,1-.31-1.273,2.568,2.568,0,0,1,.31-1.269A2.238,2.238,0,0,1-60-4.545a2.458,2.458,0,0,1,1.24-.315,2.475,2.475,0,0,1,1.249.315,2.238,2.238,0,0,1,.862.873,2.568,2.568,0,0,1,.31,1.269,2.593,2.593,0,0,1-.31,1.273,2.229,2.229,0,0,1-.862.877A2.475,2.475,0,0,1-58.758.063Zm0-.963a1.261,1.261,0,0,0,.968-.414A1.542,1.542,0,0,0-57.408-2.4a1.542,1.542,0,0,0-.382-1.089,1.261,1.261,0,0,0-.968-.414,1.248,1.248,0,0,0-.964.414A1.552,1.552,0,0,0-60.1-2.4a1.552,1.552,0,0,0,.378,1.089A1.248,1.248,0,0,0-58.758-.9Zm5.947.963a2.539,2.539,0,0,1-1.266-.315,2.243,2.243,0,0,1-.875-.877A2.566,2.566,0,0,1-55.267-2.4a2.54,2.54,0,0,1,.314-1.269,2.259,2.259,0,0,1,.871-.873,2.533,2.533,0,0,1,1.27-.315,2.336,2.336,0,0,1,1.177.288,1.824,1.824,0,0,1,.76.828l-.816.5a1.332,1.332,0,0,0-.488-.5,1.276,1.276,0,0,0-.641-.167,1.3,1.3,0,0,0-.985.409A1.518,1.518,0,0,0-54.2-2.4a1.528,1.528,0,0,0,.387,1.093,1.3,1.3,0,0,0,.99.409,1.276,1.276,0,0,0,.641-.167,1.332,1.332,0,0,0,.488-.5l.816.5a1.9,1.9,0,0,1-.769.833A2.29,2.29,0,0,1-52.811.063ZM-47-4.86a1.836,1.836,0,0,1,1.376.531,2.169,2.169,0,0,1,.518,1.575V0h-1.062V-2.61a1.4,1.4,0,0,0-.28-.95,1.006,1.006,0,0,0-.8-.319,1.189,1.189,0,0,0-.926.374,1.544,1.544,0,0,0-.34,1.075V0h-1.062V-6.678h1.062v2.43a1.723,1.723,0,0,1,.65-.454A2.266,2.266,0,0,1-47-4.86Zm5.4,0a2.132,2.132,0,0,1,1.533.509,2.032,2.032,0,0,1,.531,1.535V0h-1V-.585a1.254,1.254,0,0,1-.556.481,2.068,2.068,0,0,1-.871.167,2.03,2.03,0,0,1-.892-.185,1.4,1.4,0,0,1-.59-.513,1.358,1.358,0,0,1-.208-.742,1.3,1.3,0,0,1,.455-1.04,2.164,2.164,0,0,1,1.431-.391h1.172V-2.88a1.016,1.016,0,0,0-.285-.774,1.185,1.185,0,0,0-.845-.27,2.315,2.315,0,0,0-.752.126,1.816,1.816,0,0,0-.624.351l-.416-.819a2.521,2.521,0,0,1,.858-.441A3.618,3.618,0,0,1-41.6-4.86Zm-.144,4.1a1.312,1.312,0,0,0,.709-.193,1.04,1.04,0,0,0,.438-.554v-.558h-1.1q-.918,0-.918.639a.585.585,0,0,0,.229.486A1.008,1.008,0,0,0-41.742-.756Zm5.395.819A3.849,3.849,0,0,1-37.426-.09a2.641,2.641,0,0,1-.841-.387l.408-.855a2.552,2.552,0,0,0,.735.347,2.894,2.894,0,0,0,.845.13q.952,0,.951-.531a.353.353,0,0,0-.242-.351,3.985,3.985,0,0,0-.777-.189,6,6,0,0,1-.913-.207,1.394,1.394,0,0,1-.612-.409,1.186,1.186,0,0,1-.259-.814,1.3,1.3,0,0,1,.539-1.094,2.353,2.353,0,0,1,1.457-.41,3.98,3.98,0,0,1,.935.113,2.531,2.531,0,0,1,.765.3l-.408.855a2.407,2.407,0,0,0-1.3-.36,1.373,1.373,0,0,0-.709.148.445.445,0,0,0-.242.392.39.39,0,0,0,.259.383,3.932,3.932,0,0,0,.8.211,5.9,5.9,0,0,1,.892.207,1.387,1.387,0,0,1,.6.4,1.145,1.145,0,0,1,.251.792,1.274,1.274,0,0,1-.552,1.08A2.493,2.493,0,0,1-36.347.063Zm6.125-.324a1.225,1.225,0,0,1-.455.243,1.94,1.94,0,0,1-.565.081A1.549,1.549,0,0,1-32.4-.351,1.649,1.649,0,0,1-32.8-1.557V-3.87h-.748v-.9h.748v-1.1h1.062v1.1h1.215v.9h-1.215v2.286a.79.79,0,0,0,.161.536.588.588,0,0,0,.467.184.9.9,0,0,0,.595-.2Zm1.3-4.545h1.062V0h-1.062Zm.535-.792a.661.661,0,0,1-.484-.194.65.65,0,0,1-.2-.482.65.65,0,0,1,.2-.482.661.661,0,0,1,.484-.193.678.678,0,0,1,.484.184.611.611,0,0,1,.2.464.7.7,0,0,1-.191.5A.642.642,0,0,1-28.387-5.6ZM-23.961.063a2.539,2.539,0,0,1-1.266-.315,2.242,2.242,0,0,1-.875-.877A2.566,2.566,0,0,1-26.416-2.4,2.54,2.54,0,0,1-26.1-3.672a2.259,2.259,0,0,1,.871-.873,2.533,2.533,0,0,1,1.27-.315,2.336,2.336,0,0,1,1.177.288,1.824,1.824,0,0,1,.76.828l-.816.5a1.332,1.332,0,0,0-.488-.5,1.276,1.276,0,0,0-.641-.167,1.3,1.3,0,0,0-.985.409A1.518,1.518,0,0,0-25.345-2.4a1.528,1.528,0,0,0,.387,1.093,1.3,1.3,0,0,0,.99.409,1.276,1.276,0,0,0,.641-.167,1.332,1.332,0,0,0,.488-.5l.816.5a1.9,1.9,0,0,1-.769.833A2.29,2.29,0,0,1-23.961.063ZM-17.81-6.3h1.1V0h-1.1ZM-12.2-4.86a1.836,1.836,0,0,1,1.376.531,2.169,2.169,0,0,1,.518,1.575V0H-11.37V-2.61a1.4,1.4,0,0,0-.28-.95,1.006,1.006,0,0,0-.8-.319,1.19,1.19,0,0,0-.926.374,1.544,1.544,0,0,0-.34,1.075V0h-1.062V-4.806h1.011v.621a1.667,1.667,0,0,1,.663-.5A2.267,2.267,0,0,1-12.2-4.86Zm5.514-.972q-.671,0-.671.774v.288h1.249v.9H-7.326V0H-8.388V-3.87h-.748v-.9h.748v-.306A1.7,1.7,0,0,1-7.964-6.3a1.576,1.576,0,0,1,1.2-.445,1.569,1.569,0,0,1,.96.261l-.3.846A.976.976,0,0,0-6.689-5.832ZM-3,.063a2.458,2.458,0,0,1-1.24-.315A2.229,2.229,0,0,1-5.1-1.129,2.594,2.594,0,0,1-5.415-2.4,2.568,2.568,0,0,1-5.1-3.672a2.238,2.238,0,0,1,.862-.873A2.458,2.458,0,0,1-3-4.86a2.475,2.475,0,0,1,1.249.315,2.238,2.238,0,0,1,.862.873A2.568,2.568,0,0,1-.581-2.4a2.594,2.594,0,0,1-.31,1.273,2.229,2.229,0,0,1-.862.877A2.475,2.475,0,0,1-3,.063ZM-3-.9a1.261,1.261,0,0,0,.968-.414A1.542,1.542,0,0,0-1.651-2.4a1.542,1.542,0,0,0-.382-1.089A1.261,1.261,0,0,0-3-3.906a1.248,1.248,0,0,0-.964.414A1.552,1.552,0,0,0-4.344-2.4a1.552,1.552,0,0,0,.378,1.089A1.248,1.248,0,0,0-3-.9ZM1.874-4.1A1.733,1.733,0,0,1,3.488-4.86v1.071a1.275,1.275,0,0,0-.246-.027,1.244,1.244,0,0,0-.968.382,1.582,1.582,0,0,0-.348,1.1V0H.863V-4.806H1.874ZM10.54-4.86a1.788,1.788,0,0,1,1.359.527,2.213,2.213,0,0,1,.5,1.579V0H11.338V-2.61a1.465,1.465,0,0,0-.263-.95.924.924,0,0,0-.756-.319,1.078,1.078,0,0,0-.858.374,1.583,1.583,0,0,0-.323,1.066V0H8.076V-2.61a1.465,1.465,0,0,0-.263-.95.924.924,0,0,0-.756-.319,1.081,1.081,0,0,0-.862.369,1.594,1.594,0,0,0-.319,1.071V0H4.814V-4.806H5.825v.612a1.661,1.661,0,0,1,.637-.5,2.058,2.058,0,0,1,.85-.171,1.956,1.956,0,0,1,.9.2,1.5,1.5,0,0,1,.624.6,1.909,1.909,0,0,1,.722-.589A2.233,2.233,0,0,1,10.54-4.86Zm5.378,0a2.132,2.132,0,0,1,1.533.509,2.032,2.032,0,0,1,.531,1.535V0h-1V-.585a1.254,1.254,0,0,1-.556.481,2.068,2.068,0,0,1-.871.167,2.031,2.031,0,0,1-.892-.185,1.4,1.4,0,0,1-.59-.513,1.358,1.358,0,0,1-.208-.742,1.3,1.3,0,0,1,.455-1.04,2.164,2.164,0,0,1,1.431-.391H16.92V-2.88a1.016,1.016,0,0,0-.285-.774,1.185,1.185,0,0,0-.845-.27,2.315,2.315,0,0,0-.752.126,1.816,1.816,0,0,0-.624.351L14-4.266a2.521,2.521,0,0,1,.858-.441A3.618,3.618,0,0,1,15.917-4.86Zm-.144,4.1a1.312,1.312,0,0,0,.709-.193A1.04,1.04,0,0,0,16.92-1.5v-.558h-1.1q-.918,0-.918.639a.585.585,0,0,0,.229.486A1.008,1.008,0,0,0,15.773-.756Zm6.72.5a1.225,1.225,0,0,1-.455.243,1.94,1.94,0,0,1-.565.081,1.549,1.549,0,0,1-1.155-.414,1.649,1.649,0,0,1-.408-1.206V-3.87h-.748v-.9h.748v-1.1h1.062v1.1h1.215v.9H20.972v2.286a.79.79,0,0,0,.161.536.588.588,0,0,0,.467.184.9.9,0,0,0,.595-.2Zm1.3-4.545h1.062V0H23.793Zm.535-.792a.661.661,0,0,1-.484-.194.65.65,0,0,1-.2-.482.65.65,0,0,1,.2-.482.661.661,0,0,1,.484-.193.678.678,0,0,1,.484.184.611.611,0,0,1,.2.464.7.7,0,0,1-.191.5A.642.642,0,0,1,24.328-5.6ZM28.712.063a2.458,2.458,0,0,1-1.24-.315,2.229,2.229,0,0,1-.862-.877A2.594,2.594,0,0,1,26.3-2.4a2.568,2.568,0,0,1,.31-1.269,2.238,2.238,0,0,1,.862-.873,2.458,2.458,0,0,1,1.24-.315,2.475,2.475,0,0,1,1.249.315,2.238,2.238,0,0,1,.862.873,2.568,2.568,0,0,1,.31,1.269,2.593,2.593,0,0,1-.31,1.273,2.229,2.229,0,0,1-.862.877A2.475,2.475,0,0,1,28.712.063Zm0-.963a1.261,1.261,0,0,0,.968-.414A1.542,1.542,0,0,0,30.062-2.4a1.542,1.542,0,0,0-.382-1.089,1.261,1.261,0,0,0-.968-.414,1.248,1.248,0,0,0-.964.414A1.552,1.552,0,0,0,27.369-2.4a1.552,1.552,0,0,0,.378,1.089A1.248,1.248,0,0,0,28.712-.9Zm6.44-3.96a1.836,1.836,0,0,1,1.376.531,2.169,2.169,0,0,1,.518,1.575V0H35.984V-2.61a1.4,1.4,0,0,0-.28-.95,1.006,1.006,0,0,0-.8-.319,1.19,1.19,0,0,0-.926.374,1.544,1.544,0,0,0-.34,1.075V0H32.577V-4.806h1.011v.621a1.667,1.667,0,0,1,.663-.5A2.267,2.267,0,0,1,35.151-4.86ZM42.8-5.319V-3.4h2.871v.99H42.8V0h-1.1V-6.3h4.341v.981Zm4.63-1.359h1.062V0H47.427ZM52.346.063a2.458,2.458,0,0,1-1.24-.315,2.229,2.229,0,0,1-.862-.877,2.594,2.594,0,0,1-.31-1.273,2.568,2.568,0,0,1,.31-1.269,2.238,2.238,0,0,1,.862-.873,2.458,2.458,0,0,1,1.24-.315,2.475,2.475,0,0,1,1.249.315,2.238,2.238,0,0,1,.862.873,2.568,2.568,0,0,1,.31,1.269,2.594,2.594,0,0,1-.31,1.273,2.229,2.229,0,0,1-.862.877A2.475,2.475,0,0,1,52.346.063Zm0-.963a1.261,1.261,0,0,0,.968-.414A1.542,1.542,0,0,0,53.7-2.4a1.542,1.542,0,0,0-.382-1.089,1.261,1.261,0,0,0-.968-.414,1.248,1.248,0,0,0-.964.414A1.552,1.552,0,0,0,51-2.4a1.552,1.552,0,0,0,.378,1.089A1.248,1.248,0,0,0,52.346-.9ZM63.161-4.806,61.487,0H60.468L59.3-3.312,58.106,0H57.087L55.422-4.806h1l1.2,3.546,1.249-3.546h.892l1.223,3.564,1.232-3.564Z" transform="translate(594 255)" fill="#003232"/>
        <path id="icon_Information" d="M11.478,17.781h7.044V16.469H11.478Zm0-3.719h7.044V12.75H11.478ZM9.313,21.5A1.346,1.346,0,0,1,8,20.188V5.313A1.346,1.346,0,0,1,9.313,4h7.9L22,8.791v11.4A1.346,1.346,0,0,1,20.687,21.5ZM16.553,9.381V5.313H9.313V20.188H20.687V9.381ZM9.313,5.313v0Z" transform="translate(575 221)" fill="#7d7d7d"/>
      </g>
    </g>
  </g>
</svg>
