<svg xmlns="http://www.w3.org/2000/svg" width="375" height="370" viewBox="0 0 375 370">
  <g id="Phone_flowchart_1" transform="translate(-11 -518)">
    <rect id="矩形_85" data-name="矩形 85" width="375" height="370" transform="translate(11 518)" fill="none"/>
    <g id="Phone_flowchart_1-2" data-name="Phone_flowchart_1" transform="translate(-173 448)">
      <path id="路径_521" data-name="路径 521" d="M-99.187-7.7V0h-1.177l-4.246-5.214V0h-1.419V-7.7h1.177l4.246,5.214V-7.7Zm8.393,6.5V0h-5.775V-7.7h5.621v1.2h-4.191v2h3.718v1.177h-3.718V-1.2ZM-86.262.11a5.874,5.874,0,0,1-1.721-.253A3.593,3.593,0,0,1-89.3-.814l.495-1.111a3.9,3.9,0,0,0,1.16.61,4.22,4.22,0,0,0,1.381.237,2.386,2.386,0,0,0,1.282-.275.833.833,0,0,0,.424-.726.7.7,0,0,0-.236-.544,1.66,1.66,0,0,0-.6-.336q-.363-.121-.99-.275a11.54,11.54,0,0,1-1.424-.418,2.344,2.344,0,0,1-.935-.655,1.763,1.763,0,0,1-.39-1.2,2.055,2.055,0,0,1,.346-1.161,2.344,2.344,0,0,1,1.045-.83,4.234,4.234,0,0,1,1.711-.308,5.525,5.525,0,0,1,1.386.176,3.831,3.831,0,0,1,1.177.506l-.451,1.111a4.449,4.449,0,0,0-1.056-.451,3.95,3.95,0,0,0-1.067-.154,2.229,2.229,0,0,0-1.259.286.882.882,0,0,0-.412.759.686.686,0,0,0,.236.539,1.709,1.709,0,0,0,.6.33q.363.121.99.275a10.418,10.418,0,0,1,1.408.412,2.411,2.411,0,0,1,.94.655,1.725,1.725,0,0,1,.39,1.188A2.029,2.029,0,0,1-83.5-1.023a2.357,2.357,0,0,1-1.05.825A4.274,4.274,0,0,1-86.262.11Zm6.534-6.6H-82.28V-7.7h6.534v1.21H-78.3V0h-1.43ZM-67.364-7.7a4.263,4.263,0,0,1,1.743.33,2.535,2.535,0,0,1,1.138.946,2.647,2.647,0,0,1,.4,1.463,2.654,2.654,0,0,1-.4,1.457,2.523,2.523,0,0,1-1.138.952,4.263,4.263,0,0,1-1.743.33H-69.1V0h-1.43V-7.7Zm-.066,4.268a2.2,2.2,0,0,0,1.419-.4,1.38,1.38,0,0,0,.484-1.133,1.38,1.38,0,0,0-.484-1.133,2.2,2.2,0,0,0-1.419-.4H-69.1v3.058Zm6.446-1.584a2.291,2.291,0,0,1,2.09-.924v1.309a1.746,1.746,0,0,0-.319-.033,1.661,1.661,0,0,0-1.254.468,1.864,1.864,0,0,0-.451,1.347V0h-1.375V-5.874h1.309ZM-54.593.077A3.333,3.333,0,0,1-56.2-.308,2.807,2.807,0,0,1-57.315-1.38a3.029,3.029,0,0,1-.4-1.556,3,3,0,0,1,.4-1.551A2.819,2.819,0,0,1-56.2-5.555a3.333,3.333,0,0,1,1.606-.385,3.356,3.356,0,0,1,1.617.385,2.819,2.819,0,0,1,1.117,1.067,3,3,0,0,1,.4,1.551,3.029,3.029,0,0,1-.4,1.556A2.807,2.807,0,0,1-52.976-.308,3.356,3.356,0,0,1-54.593.077Zm0-1.177a1.68,1.68,0,0,0,1.254-.506,1.822,1.822,0,0,0,.495-1.331,1.822,1.822,0,0,0-.495-1.331,1.68,1.68,0,0,0-1.254-.506,1.662,1.662,0,0,0-1.249.506,1.833,1.833,0,0,0-.489,1.331,1.833,1.833,0,0,0,.489,1.331A1.662,1.662,0,0,0-54.593-1.1Zm8.261-4.84a3.118,3.118,0,0,1,1.535.374A2.7,2.7,0,0,1-43.736-4.51a3.145,3.145,0,0,1,.385,1.573,3.175,3.175,0,0,1-.385,1.578A2.687,2.687,0,0,1-44.8-.3a3.118,3.118,0,0,1-1.535.374,2.842,2.842,0,0,1-1.105-.209,2.127,2.127,0,0,1-.842-.627V0h-1.309V-8.162h1.375v3a2.309,2.309,0,0,1,.831-.583A2.721,2.721,0,0,1-46.332-5.94Zm-.154,4.84a1.662,1.662,0,0,0,1.248-.506,1.833,1.833,0,0,0,.49-1.331,1.833,1.833,0,0,0-.49-1.331,1.662,1.662,0,0,0-1.248-.506,1.768,1.768,0,0,0-.891.225A1.63,1.63,0,0,0-48-3.9a1.969,1.969,0,0,0-.231.968A1.969,1.969,0,0,0-48-1.969a1.63,1.63,0,0,0,.627.644A1.768,1.768,0,0,0-46.486-1.1Zm7.161-4.84a2.864,2.864,0,0,1,1.986.622,2.4,2.4,0,0,1,.688,1.876V0h-1.3V-.715a1.6,1.6,0,0,1-.721.588,2.816,2.816,0,0,1-1.127.2,2.762,2.762,0,0,1-1.155-.226,1.785,1.785,0,0,1-.764-.627,1.591,1.591,0,0,1-.27-.907A1.555,1.555,0,0,1-41.4-2.954a2.923,2.923,0,0,1,1.854-.479h1.518V-3.52a1.2,1.2,0,0,0-.368-.946A1.594,1.594,0,0,0-39.49-4.8a3.159,3.159,0,0,0-.973.154,2.391,2.391,0,0,0-.808.429l-.539-1A3.338,3.338,0,0,1-40.7-5.753,4.943,4.943,0,0,1-39.325-5.94Zm-.187,5.016a1.775,1.775,0,0,0,.918-.236,1.287,1.287,0,0,0,.567-.676v-.682h-1.419q-1.188,0-1.188.781a.7.7,0,0,0,.3.594A1.362,1.362,0,0,0-39.512-.924Zm8.426-5.016a3.118,3.118,0,0,1,1.534.374A2.7,2.7,0,0,1-28.49-4.51,3.145,3.145,0,0,1-28.1-2.937a3.175,3.175,0,0,1-.385,1.578A2.687,2.687,0,0,1-29.551-.3a3.118,3.118,0,0,1-1.534.374,2.842,2.842,0,0,1-1.105-.209,2.127,2.127,0,0,1-.842-.627V0h-1.309V-8.162h1.375v3a2.309,2.309,0,0,1,.83-.583A2.721,2.721,0,0,1-31.086-5.94ZM-31.24-1.1a1.662,1.662,0,0,0,1.249-.506,1.833,1.833,0,0,0,.49-1.331,1.833,1.833,0,0,0-.49-1.331,1.662,1.662,0,0,0-1.249-.506,1.768,1.768,0,0,0-.891.225,1.63,1.63,0,0,0-.627.644,1.969,1.969,0,0,0-.231.968,1.969,1.969,0,0,0,.231.968,1.63,1.63,0,0,0,.627.644A1.768,1.768,0,0,0-31.24-1.1Zm4.994-4.774h1.375V0h-1.375Zm.693-.968a.883.883,0,0,1-.627-.236.773.773,0,0,1-.253-.589.773.773,0,0,1,.253-.588.883.883,0,0,1,.627-.237.908.908,0,0,1,.627.226.727.727,0,0,1,.253.567.83.83,0,0,1-.247.61A.857.857,0,0,1-25.553-6.842Zm3.036-1.32h1.375V0h-1.375Zm3.729,2.288h1.375V0h-1.375Zm.693-.968a.883.883,0,0,1-.627-.236.773.773,0,0,1-.253-.589.773.773,0,0,1,.253-.588.883.883,0,0,1,.627-.237.908.908,0,0,1,.627.226.727.727,0,0,1,.253.567.83.83,0,0,1-.247.61A.857.857,0,0,1-18.095-6.842ZM-13.244.077a5.259,5.259,0,0,1-1.4-.187A3.515,3.515,0,0,1-15.73-.583l.528-1.045a3.4,3.4,0,0,0,.951.424,3.953,3.953,0,0,0,1.095.16q1.232,0,1.232-.649a.434.434,0,0,0-.314-.429,5.413,5.413,0,0,0-1.007-.231,8.166,8.166,0,0,1-1.182-.253,1.815,1.815,0,0,1-.792-.5,1.4,1.4,0,0,1-.336-1,1.565,1.565,0,0,1,.7-1.337,3.179,3.179,0,0,1,1.887-.5,5.444,5.444,0,0,1,1.21.138,3.392,3.392,0,0,1,.99.368L-11.3-4.389a3.257,3.257,0,0,0-1.683-.44,1.865,1.865,0,0,0-.918.181.541.541,0,0,0-.314.478.478.478,0,0,0,.336.468,5.332,5.332,0,0,0,1.04.259,8.021,8.021,0,0,1,1.155.253,1.808,1.808,0,0,1,.776.484,1.349,1.349,0,0,1,.324.968A1.532,1.532,0,0,1-11.3-.418,3.371,3.371,0,0,1-13.244.077Zm7.931-.4a1.619,1.619,0,0,1-.589.3,2.65,2.65,0,0,1-.732.1,2.076,2.076,0,0,1-1.5-.506A1.947,1.947,0,0,1-8.657-1.9V-4.73h-.968v-1.1h.968V-7.172h1.375V-5.83h1.573v1.1H-7.282v2.794a.929.929,0,0,0,.209.655.784.784,0,0,0,.6.225A1.208,1.208,0,0,0-5.7-1.3ZM-3.63-5.874h1.375V0H-3.63Zm.693-.968a.883.883,0,0,1-.627-.236.773.773,0,0,1-.253-.589.773.773,0,0,1,.253-.588.883.883,0,0,1,.627-.237.908.908,0,0,1,.627.226.727.727,0,0,1,.253.567.83.83,0,0,1-.247.61A.857.857,0,0,1-2.937-6.842ZM2.794.077A3.444,3.444,0,0,1,1.155-.308,2.827,2.827,0,0,1,.022-1.38,3,3,0,0,1-.385-2.937,2.968,2.968,0,0,1,.022-4.488,2.848,2.848,0,0,1,1.15-5.555,3.435,3.435,0,0,1,2.794-5.94a3.168,3.168,0,0,1,1.524.352A2.284,2.284,0,0,1,5.3-4.576L4.246-3.96a1.677,1.677,0,0,0-.632-.61,1.73,1.73,0,0,0-.831-.2,1.74,1.74,0,0,0-1.276.5A1.8,1.8,0,0,0,1-2.937,1.806,1.806,0,0,0,1.5-1.6a1.735,1.735,0,0,0,1.281.5,1.73,1.73,0,0,0,.831-.2,1.677,1.677,0,0,0,.632-.61L5.3-1.3a2.38,2.38,0,0,1-1,1.017A3.1,3.1,0,0,1,2.794.077ZM17.8-7.7,14.443,0H13.035L9.669-7.7H11.22l2.563,5.94L16.368-7.7Zm1.287,1.826H20.46V0H19.085Zm.693-.968a.883.883,0,0,1-.627-.236.773.773,0,0,1-.253-.589.773.773,0,0,1,.253-.588.883.883,0,0,1,.627-.237.908.908,0,0,1,.627.226.727.727,0,0,1,.253.567.83.83,0,0,1-.247.61A.857.857,0,0,1,19.778-6.842Zm4.345,1.826a2.291,2.291,0,0,1,2.09-.924v1.309a1.746,1.746,0,0,0-.319-.033A1.661,1.661,0,0,0,24.64-4.2a1.864,1.864,0,0,0-.451,1.347V0H22.814V-5.874h1.309Zm7.557,4.7a1.619,1.619,0,0,1-.589.3,2.65,2.65,0,0,1-.732.1,2.076,2.076,0,0,1-1.5-.506A1.947,1.947,0,0,1,28.336-1.9V-4.73h-.968v-1.1h.968V-7.172h1.375V-5.83h1.573v1.1H29.711v2.794a.929.929,0,0,0,.209.655.784.784,0,0,0,.6.225A1.208,1.208,0,0,0,31.3-1.3Zm7.37-5.555V0H37.741V-.748a2.188,2.188,0,0,1-.825.611,2.654,2.654,0,0,1-1.067.215A2.553,2.553,0,0,1,34-.577a2.582,2.582,0,0,1-.676-1.942V-5.874h1.375v3.168a1.7,1.7,0,0,0,.357,1.183,1.31,1.31,0,0,0,1.018.391,1.541,1.541,0,0,0,1.171-.457A1.834,1.834,0,0,0,37.675-2.9v-2.97Zm4.6-.066a2.864,2.864,0,0,1,1.986.622,2.4,2.4,0,0,1,.688,1.876V0h-1.3V-.715a1.6,1.6,0,0,1-.721.588,2.816,2.816,0,0,1-1.127.2A2.762,2.762,0,0,1,42.02-.149a1.785,1.785,0,0,1-.764-.627,1.591,1.591,0,0,1-.27-.907,1.555,1.555,0,0,1,.588-1.271,2.923,2.923,0,0,1,1.854-.479h1.518V-3.52a1.2,1.2,0,0,0-.368-.946,1.594,1.594,0,0,0-1.095-.33,3.159,3.159,0,0,0-.973.154,2.391,2.391,0,0,0-.808.429l-.539-1a3.338,3.338,0,0,1,1.111-.539A4.943,4.943,0,0,1,43.648-5.94ZM43.461-.924a1.775,1.775,0,0,0,.918-.236,1.287,1.287,0,0,0,.567-.676v-.682H43.527q-1.188,0-1.188.781a.7.7,0,0,0,.3.594A1.362,1.362,0,0,0,43.461-.924Zm5.17-7.238h1.375V0H48.631ZM63.151,0,63.14-5.1,60.61-.88h-.638l-2.53-4.158V0H56.078V-7.7h1.177l3.058,5.1,3-5.1h1.177L64.5,0Zm6.094-5.94a2.864,2.864,0,0,1,1.985.622,2.4,2.4,0,0,1,.688,1.876V0h-1.3V-.715a1.6,1.6,0,0,1-.721.588,2.816,2.816,0,0,1-1.128.2,2.762,2.762,0,0,1-1.155-.226,1.785,1.785,0,0,1-.764-.627,1.591,1.591,0,0,1-.27-.907,1.555,1.555,0,0,1,.589-1.271,2.923,2.923,0,0,1,1.854-.479h1.518V-3.52a1.2,1.2,0,0,0-.368-.946A1.594,1.594,0,0,0,69.08-4.8a3.159,3.159,0,0,0-.974.154,2.391,2.391,0,0,0-.809.429l-.539-1a3.338,3.338,0,0,1,1.111-.539A4.943,4.943,0,0,1,69.245-5.94ZM69.058-.924a1.775,1.775,0,0,0,.919-.236,1.287,1.287,0,0,0,.566-.676v-.682H69.124q-1.188,0-1.188.781a.7.7,0,0,0,.3.594A1.362,1.362,0,0,0,69.058-.924Zm7.92,1a3.444,3.444,0,0,1-1.639-.385A2.827,2.827,0,0,1,74.206-1.38,3,3,0,0,1,73.8-2.937a2.968,2.968,0,0,1,.407-1.551,2.848,2.848,0,0,1,1.128-1.067,3.435,3.435,0,0,1,1.645-.385,3.168,3.168,0,0,1,1.523.352,2.284,2.284,0,0,1,.985,1.012L78.43-3.96a1.677,1.677,0,0,0-.633-.61,1.73,1.73,0,0,0-.83-.2,1.74,1.74,0,0,0-1.276.5,1.8,1.8,0,0,0-.506,1.337,1.806,1.806,0,0,0,.5,1.336,1.735,1.735,0,0,0,1.282.5,1.73,1.73,0,0,0,.83-.2,1.677,1.677,0,0,0,.633-.61l1.056.616a2.38,2.38,0,0,1-1,1.017A3.1,3.1,0,0,1,76.978.077ZM84.5-5.94a2.455,2.455,0,0,1,1.782.649,2.56,2.56,0,0,1,.671,1.925V0H85.58V-3.19a1.649,1.649,0,0,0-.363-1.161,1.342,1.342,0,0,0-1.034-.391,1.587,1.587,0,0,0-1.2.457,1.82,1.82,0,0,0-.44,1.315V0H81.169V-8.162h1.375v2.97a2.237,2.237,0,0,1,.841-.556A3.088,3.088,0,0,1,84.5-5.94Zm4.752.066h1.375V0H89.254Zm.693-.968a.883.883,0,0,1-.627-.236.773.773,0,0,1-.253-.589.773.773,0,0,1,.253-.588.883.883,0,0,1,.627-.237.908.908,0,0,1,.627.226.727.727,0,0,1,.253.567.83.83,0,0,1-.247.61A.857.857,0,0,1,89.947-6.842Zm6.369.9a2.455,2.455,0,0,1,1.782.649,2.56,2.56,0,0,1,.671,1.925V0H97.394V-3.19a1.649,1.649,0,0,0-.363-1.161A1.342,1.342,0,0,0,96-4.741a1.587,1.587,0,0,0-1.2.457,1.82,1.82,0,0,0-.44,1.315V0H92.983V-5.874h1.309v.759a2.15,2.15,0,0,1,.858-.616A3.088,3.088,0,0,1,96.316-5.94ZM106.645-2.9q0,.143-.022.407h-4.609a1.6,1.6,0,0,0,.632,1.029,2.073,2.073,0,0,0,1.271.379,2.141,2.141,0,0,0,1.6-.638l.737.847a2.483,2.483,0,0,1-1,.715,3.646,3.646,0,0,1-1.364.242,3.63,3.63,0,0,1-1.705-.385,2.773,2.773,0,0,1-1.138-1.072,3.029,3.029,0,0,1-.4-1.556,3.074,3.074,0,0,1,.391-1.546,2.77,2.77,0,0,1,1.083-1.072,3.161,3.161,0,0,1,1.562-.385,3.082,3.082,0,0,1,1.535.379,2.688,2.688,0,0,1,1.056,1.067A3.235,3.235,0,0,1,106.645-2.9Zm-2.97-1.936a1.659,1.659,0,0,0-1.117.391A1.643,1.643,0,0,0,102-3.41h3.333a1.621,1.621,0,0,0-.539-1.034A1.639,1.639,0,0,0,103.675-4.84Z" transform="translate(372 408)" fill="#003232"/>
      <g id="p3" transform="translate(66 93)">
        <path id="路径_520" data-name="路径 520" d="M-2.245.063a.719.719,0,0,1-.522-.211.718.718,0,0,1-.216-.535.722.722,0,0,1,.212-.54.723.723,0,0,1,.526-.207.723.723,0,0,1,.526.207.722.722,0,0,1,.211.54.718.718,0,0,1-.216.535A.719.719,0,0,1-2.245.063ZM0,.063A.719.719,0,0,1-.526-.148.718.718,0,0,1-.742-.684a.722.722,0,0,1,.211-.54A.723.723,0,0,1,0-1.431a.723.723,0,0,1,.527.207.722.722,0,0,1,.211.54.718.718,0,0,1-.216.535A.719.719,0,0,1,0,.063Zm2.25,0a.719.719,0,0,1-.522-.211.718.718,0,0,1-.216-.535.722.722,0,0,1,.212-.54.723.723,0,0,1,.526-.207.723.723,0,0,1,.527.207.722.722,0,0,1,.212.54.718.718,0,0,1-.216.535A.719.719,0,0,1,2.245.063Z" transform="translate(365 271)" fill="#003232"/>
        <path id="路径_519" data-name="路径 519" d="M-13.865-3.222h1.107V-.711a3.52,3.52,0,0,1-1.134.594A4.351,4.351,0,0,1-15.224.09a3.593,3.593,0,0,1-1.737-.418,3.109,3.109,0,0,1-1.215-1.157,3.183,3.183,0,0,1-.441-1.665,3.183,3.183,0,0,1,.441-1.665,3.1,3.1,0,0,1,1.219-1.156,3.638,3.638,0,0,1,1.751-.418,3.822,3.822,0,0,1,1.44.261,2.826,2.826,0,0,1,1.089.765l-.738.72a2.367,2.367,0,0,0-1.737-.72,2.454,2.454,0,0,0-1.184.279,2.034,2.034,0,0,0-.81.783,2.253,2.253,0,0,0-.292,1.152,2.218,2.218,0,0,0,.292,1.134,2.1,2.1,0,0,0,.81.792,2.374,2.374,0,0,0,1.175.288,2.534,2.534,0,0,0,1.3-.324ZM-9.041-4.86a2.343,2.343,0,0,1,1.624.509,1.966,1.966,0,0,1,.562,1.535V0H-7.916V-.585a1.309,1.309,0,0,1-.59.481,2.3,2.3,0,0,1-.922.167,2.26,2.26,0,0,1-.945-.185A1.46,1.46,0,0,1-11-.635a1.3,1.3,0,0,1-.22-.742,1.273,1.273,0,0,1,.481-1.04,2.391,2.391,0,0,1,1.517-.391h1.242V-2.88a.985.985,0,0,0-.3-.774,1.3,1.3,0,0,0-.9-.27,2.585,2.585,0,0,0-.8.126,1.957,1.957,0,0,0-.661.351l-.441-.819a2.731,2.731,0,0,1,.909-.441A4.045,4.045,0,0,1-9.041-4.86Zm-.153,4.1a1.453,1.453,0,0,0,.751-.193A1.053,1.053,0,0,0-7.979-1.5v-.558H-9.14q-.972,0-.972.639a.574.574,0,0,0,.243.486A1.114,1.114,0,0,0-9.194-.756ZM1.1-4.86a1.955,1.955,0,0,1,1.44.527,2.134,2.134,0,0,1,.531,1.579V0H1.948V-2.61a1.407,1.407,0,0,0-.279-.95,1.006,1.006,0,0,0-.8-.319,1.173,1.173,0,0,0-.909.374A1.524,1.524,0,0,0-.383-2.439V0H-1.508V-2.61a1.407,1.407,0,0,0-.279-.95,1.006,1.006,0,0,0-.8-.319A1.177,1.177,0,0,0-3.5-3.51a1.534,1.534,0,0,0-.338,1.071V0H-4.964V-4.806h1.071v.612a1.749,1.749,0,0,1,.675-.5,2.292,2.292,0,0,1,.9-.171,2.174,2.174,0,0,1,.958.2,1.556,1.556,0,0,1,.661.6,2,2,0,0,1,.765-.589A2.484,2.484,0,0,1,1.1-4.86ZM9.526-2.376q0,.117-.018.333H5.737a1.307,1.307,0,0,0,.517.842,1.7,1.7,0,0,0,1.04.31A1.752,1.752,0,0,0,8.6-1.413l.6.693a2.032,2.032,0,0,1-.819.585,2.983,2.983,0,0,1-1.116.2A2.97,2.97,0,0,1,5.872-.252a2.269,2.269,0,0,1-.932-.877A2.478,2.478,0,0,1,4.612-2.4a2.515,2.515,0,0,1,.319-1.265,2.266,2.266,0,0,1,.887-.878A2.587,2.587,0,0,1,7.1-4.86a2.522,2.522,0,0,1,1.255.311,2.2,2.2,0,0,1,.864.873A2.647,2.647,0,0,1,9.526-2.376ZM7.1-3.96a1.357,1.357,0,0,0-.914.319,1.344,1.344,0,0,0-.454.851H8.455a1.326,1.326,0,0,0-.441-.846A1.341,1.341,0,0,0,7.1-3.96Zm5.238-1.359V-3.4h3.042v.99H12.334V0h-1.17V-6.3h4.6v.981Zm4.815.513h1.125V0H17.149Zm.567-.792a.723.723,0,0,1-.513-.194A.632.632,0,0,1,17-6.273a.632.632,0,0,1,.207-.482.723.723,0,0,1,.513-.193.743.743,0,0,1,.513.184.6.6,0,0,1,.207.464.679.679,0,0,1-.2.5A.7.7,0,0,1,17.716-5.6Z" transform="translate(329 285)" fill="#003232"/>
        <path id="icon_GameFi" d="M4.782,19.676a2.481,2.481,0,0,1-1.9-.8A2.816,2.816,0,0,1,2.1,16.994q0-.146.018-.328a2.307,2.307,0,0,1,.055-.328l1.532-6.13A2.907,2.907,0,0,1,4.755,8.62,2.816,2.816,0,0,1,6.533,8h7.115a2.816,2.816,0,0,1,1.779.62,2.907,2.907,0,0,1,1.049,1.587l1.532,6.13q.036.164.064.338a2.163,2.163,0,0,1,.027.338,2.663,2.663,0,0,1-2.7,2.664,2.679,2.679,0,0,1-1.423-.4,2.523,2.523,0,0,1-.985-1.095l-.511-1.058a.549.549,0,0,0-.265-.283.905.905,0,0,0-.392-.082H8.358a.905.905,0,0,0-.392.082.549.549,0,0,0-.265.283L7.19,18.18A2.523,2.523,0,0,1,6.2,19.275a2.679,2.679,0,0,1-1.423.4Zm.055-1.095a1.534,1.534,0,0,0,1.387-.876l.511-1.04a1.775,1.775,0,0,1,1.624-1h3.466a1.757,1.757,0,0,1,.949.274,2,2,0,0,1,.693.73l.511,1.04a1.534,1.534,0,0,0,1.387.876,1.65,1.65,0,0,0,1.113-.429,1.471,1.471,0,0,0,.511-1.122q0-.091-.009-.21a.948.948,0,0,0-.046-.228L15.4,10.481a1.773,1.773,0,0,0-1.751-1.387H6.533a1.773,1.773,0,0,0-1.751,1.387L3.249,16.593q-.018.073-.055.42a1.421,1.421,0,0,0,.511,1.131,1.7,1.7,0,0,0,1.131.438Zm6.349-5.656a.525.525,0,0,1-.383-.164.546.546,0,0,1-.164-.4.5.5,0,0,1,.164-.374.563.563,0,0,1,.4-.155.51.51,0,0,1,.374.155.532.532,0,0,1,.155.392.54.54,0,0,1-.155.383A.516.516,0,0,1,11.186,12.926Zm1.46-1.46a.525.525,0,0,1-.383-.164.546.546,0,0,1-.164-.4.5.5,0,0,1,.164-.374.563.563,0,0,1,.4-.155.51.51,0,0,1,.374.155.532.532,0,0,1,.155.392.54.54,0,0,1-.155.383A.516.516,0,0,1,12.645,11.466Zm0,2.919a.525.525,0,0,1-.383-.164.546.546,0,0,1-.164-.4.5.5,0,0,1,.164-.374.563.563,0,0,1,.4-.155.51.51,0,0,1,.374.155.532.532,0,0,1,.155.392.54.54,0,0,1-.155.383A.516.516,0,0,1,12.645,14.385Zm1.46-1.46a.525.525,0,0,1-.383-.164.546.546,0,0,1-.164-.4.5.5,0,0,1,.164-.374.563.563,0,0,1,.4-.155.51.51,0,0,1,.374.155.532.532,0,0,1,.155.392.54.54,0,0,1-.155.383A.516.516,0,0,1,14.1,12.926ZM7.537,14.112a.468.468,0,0,1-.456-.456v-.821H6.26a.456.456,0,0,1,0-.912h.821V11.1a.456.456,0,0,1,.912,0v.821h.821a.456.456,0,0,1,0,.912H7.993v.821a.468.468,0,0,1-.456.456Z" transform="translate(318.9 252)" fill="#7d7d7d"/>
        <path id="路径_518" data-name="路径 518" d="M-3.249-6.3V0h-.963L-7.686-4.266V0H-8.847V-6.3h.963L-4.41-2.034V-6.3Zm3.312.981V-3.4H3.1v.99H.063V0h-1.17V-6.3h4.6v.981ZM6.4-5.31H4.311V-6.3H9.657v.99H7.569V0H6.4Z" transform="translate(288 285)" fill="#003232"/>
        <path id="icon_NFT" d="M10,16a5.806,5.806,0,0,1-2.325-.472,6.045,6.045,0,0,1-3.2-3.2,6.024,6.024,0,0,1,.008-4.7,5.977,5.977,0,0,1,1.313-1.9,6.054,6.054,0,0,1,1.95-1.268A6.253,6.253,0,0,1,10.135,4a6.382,6.382,0,0,1,2.25.4,5.953,5.953,0,0,1,1.867,1.1,5.3,5.3,0,0,1,1.275,1.672A4.771,4.771,0,0,1,16,9.3a3.44,3.44,0,0,1-.945,2.557,3.4,3.4,0,0,1-2.505.938H11.425a.613.613,0,0,0-.465.21.669.669,0,0,0-.2.465,1.1,1.1,0,0,0,.218.69,1.058,1.058,0,0,1,.217.66,1.171,1.171,0,0,1-.315.877A1.214,1.214,0,0,1,10,16ZM10,10Zm-3.495.39a.769.769,0,1,0-.525-.225A.72.72,0,0,0,6.505,10.39ZM8.4,7.84a.769.769,0,1,0-.525-.225A.72.72,0,0,0,8.4,7.84Zm3.21,0a.769.769,0,1,0-.525-.225A.72.72,0,0,0,11.605,7.84Zm1.965,2.55a.769.769,0,1,0-.525-.225A.72.72,0,0,0,13.57,10.39ZM10,15.1a.323.323,0,0,0,.233-.067.3.3,0,0,0,.068-.217.509.509,0,0,0-.217-.39,1.04,1.04,0,0,1-.218-.8,1.811,1.811,0,0,1,.45-1.215,1.437,1.437,0,0,1,1.14-.525h1.1a2.573,2.573,0,0,0,1.845-.667A2.528,2.528,0,0,0,15.1,9.3a3.891,3.891,0,0,0-1.5-3.187A5.367,5.367,0,0,0,10.135,4.9,5.131,5.131,0,0,0,6.423,6.378,4.852,4.852,0,0,0,4.9,10a4.915,4.915,0,0,0,1.492,3.608A4.915,4.915,0,0,0,10,15.1Z" transform="translate(278 256)" fill="#7d7d7d"/>
        <path id="路径_517" data-name="路径 517" d="M-10.467-6.3h2.754a3.952,3.952,0,0,1,1.791.391A2.9,2.9,0,0,1-4.707-4.8,3.132,3.132,0,0,1-4.275-3.15,3.132,3.132,0,0,1-4.707-1.5,2.9,2.9,0,0,1-5.922-.391,3.952,3.952,0,0,1-7.713,0h-2.754Zm2.7,5.31a2.674,2.674,0,0,0,1.22-.266,1.9,1.9,0,0,0,.81-.756A2.234,2.234,0,0,0-5.454-3.15a2.234,2.234,0,0,0-.284-1.138,1.9,1.9,0,0,0-.81-.756,2.674,2.674,0,0,0-1.22-.265H-9.3V-.99ZM1.827-2.376q0,.117-.018.333H-1.962a1.307,1.307,0,0,0,.518.842A1.7,1.7,0,0,0-.4-.891,1.752,1.752,0,0,0,.9-1.413l.6.693a2.032,2.032,0,0,1-.819.585,2.983,2.983,0,0,1-1.116.2A2.97,2.97,0,0,1-1.827-.252a2.269,2.269,0,0,1-.931-.877A2.478,2.478,0,0,1-3.087-2.4a2.515,2.515,0,0,1,.319-1.265,2.266,2.266,0,0,1,.887-.878A2.587,2.587,0,0,1-.6-4.86a2.522,2.522,0,0,1,1.255.311,2.2,2.2,0,0,1,.864.873A2.647,2.647,0,0,1,1.827-2.376ZM-.6-3.96a1.357,1.357,0,0,0-.914.319,1.344,1.344,0,0,0-.455.851H.756a1.326,1.326,0,0,0-.441-.846A1.341,1.341,0,0,0-.6-3.96ZM4.635-5.319V-3.4H7.677v.99H4.635V0H3.465V-6.3h4.6v.981Zm4.815.513h1.125V0H9.45Zm.567-.792A.723.723,0,0,1,9.5-5.791.632.632,0,0,1,9.3-6.273.632.632,0,0,1,9.5-6.755a.723.723,0,0,1,.513-.193.743.743,0,0,1,.513.184.6.6,0,0,1,.207.464.679.679,0,0,1-.2.5A.7.7,0,0,1,10.017-5.6Z" transform="translate(256 285)" fill="#003232"/>
        <path id="icon_DeiFi" d="M5.98,12.15V7.065h.9V12.15Zm3.63,0V7.065h.9V12.15ZM4,13.95v-.9H16v.9Zm9.12-1.8V7.065h.9V12.15ZM4,6.165v-.8l6-3.42,6,3.42v.8Zm2.01-.9h0Zm0,0h7.98L10,2.985Z" transform="translate(246 258.05)" fill="#7d7d7d"/>
      </g>
      <g id="p2" transform="translate(0 94)">
        <path id="about_arrow_icon" d="M519.526,147.988l.1.1-3.873,3.869-.43-.43,3.258-3.253H481v-.615h37.58l-3.274-3.268.435-.434,3.908,3.906Z" transform="translate(519.966 -267.994) rotate(90)" fill="#01d9ca" fill-rule="evenodd"/>
        <path id="路径_516" data-name="路径 516" d="M-19.764-.981V0h-4.725V-6.3h4.6v.981h-3.429v1.638h3.042v.963h-3.042V-.981ZM-14.112,0l-1.71-2.394L-17.514,0h-1.332l2.34-3.213L-18.72-6.3H-17.4l1.611,2.241L-14.193-6.3h1.269l-2.2,3.042L-12.762,0Zm6.606-3.636v.972l-4.149,1.611v-.936l3.1-1.161-3.1-1.161v-.936Zm1.611-1.053h4.149v.9H-5.895Zm0,2.178h4.149v.9H-5.895ZM4.851-.981V0H.126V-6.3h4.6v.981H1.3v1.638H4.338v.963H1.3V-.981ZM7.776-5.319V-3.4h3.042v.99H7.776V0H6.606V-6.3h4.6v.981ZM13.8,1.746a6.5,6.5,0,0,1-.814-1.9A9.082,9.082,0,0,1,12.7-2.466a9.135,9.135,0,0,1,.284-2.317A6.365,6.365,0,0,1,13.8-6.678h1.071a7.98,7.98,0,0,0-.806,2,9.126,9.126,0,0,0-.257,2.21,9.126,9.126,0,0,0,.257,2.209,7.98,7.98,0,0,0,.806,2ZM20.331,0l-1.71-2.394L16.929,0H15.6l2.34-3.213L15.723-6.3h1.323l1.611,2.241L20.25-6.3h1.269l-2.2,3.042L21.681,0ZM22.4,1.746a8.093,8.093,0,0,0,.81-2.007,8.991,8.991,0,0,0,.261-2.2,8.991,8.991,0,0,0-.261-2.205,8.093,8.093,0,0,0-.81-2.007h1.071a6.243,6.243,0,0,1,.814,1.885,9.172,9.172,0,0,1,.284,2.327,9.067,9.067,0,0,1-.284,2.317,6.5,6.5,0,0,1-.814,1.895Z" transform="translate(372 204)" fill="#01d9ca"/>
        <path id="路径_515" data-name="路径 515" d="M-25.7-5.319V-3.4h3.042v.99H-25.7V0h-1.17V-6.3h4.6v.981Zm9.423.513V0h-1.071V-.612a1.79,1.79,0,0,1-.675.5A2.172,2.172,0,0,1-18.9.063a2.089,2.089,0,0,1-1.516-.535,2.113,2.113,0,0,1-.554-1.589V-4.806h1.125v2.592a1.392,1.392,0,0,0,.292.967,1.072,1.072,0,0,0,.833.32,1.261,1.261,0,0,0,.958-.374,1.5,1.5,0,0,0,.356-1.075v-2.43Zm4.653-.054a2.008,2.008,0,0,1,1.458.531,2.094,2.094,0,0,1,.549,1.575V0h-1.125V-2.61a1.349,1.349,0,0,0-.3-.95,1.1,1.1,0,0,0-.846-.319,1.3,1.3,0,0,0-.981.374,1.489,1.489,0,0,0-.36,1.075V0h-1.125V-4.806h1.071v.621a1.759,1.759,0,0,1,.7-.5A2.526,2.526,0,0,1-11.628-4.86ZM-5.49.063A2.818,2.818,0,0,1-6.831-.252a2.313,2.313,0,0,1-.927-.877A2.452,2.452,0,0,1-8.091-2.4a2.428,2.428,0,0,1,.333-1.269,2.33,2.33,0,0,1,.922-.873A2.81,2.81,0,0,1-5.49-4.86a2.592,2.592,0,0,1,1.247.288,1.869,1.869,0,0,1,.806.828l-.864.5a1.372,1.372,0,0,0-.518-.5A1.415,1.415,0,0,0-5.5-3.906,1.424,1.424,0,0,0-6.543-3.5,1.469,1.469,0,0,0-6.957-2.4a1.478,1.478,0,0,0,.41,1.093A1.42,1.42,0,0,0-5.5-.9a1.415,1.415,0,0,0,.679-.167,1.372,1.372,0,0,0,.518-.5l.864.5a1.947,1.947,0,0,1-.814.833A2.54,2.54,0,0,1-5.49.063ZM.936-.261a1.324,1.324,0,0,1-.481.243,2.168,2.168,0,0,1-.6.081A1.7,1.7,0,0,1-1.368-.351,1.593,1.593,0,0,1-1.8-1.557V-3.87h-.792v-.9H-1.8v-1.1H-.675v1.1H.612v.9H-.675v2.286A.76.76,0,0,0-.5-1.048a.642.642,0,0,0,.5.184.988.988,0,0,0,.63-.2ZM2.313-4.806H3.438V0H2.313ZM2.88-5.6a.723.723,0,0,1-.513-.194.632.632,0,0,1-.207-.482.632.632,0,0,1,.207-.482.723.723,0,0,1,.513-.193.743.743,0,0,1,.513.184A.6.6,0,0,1,3.6-6.3a.679.679,0,0,1-.2.5A.7.7,0,0,1,2.88-5.6ZM7.524.063A2.727,2.727,0,0,1,6.21-.252,2.3,2.3,0,0,1,5.3-1.129,2.478,2.478,0,0,1,4.968-2.4,2.454,2.454,0,0,1,5.3-3.672a2.306,2.306,0,0,1,.914-.873A2.727,2.727,0,0,1,7.524-4.86a2.746,2.746,0,0,1,1.323.315,2.306,2.306,0,0,1,.913.873A2.454,2.454,0,0,1,10.089-2.4,2.478,2.478,0,0,1,9.76-1.129a2.3,2.3,0,0,1-.913.877A2.746,2.746,0,0,1,7.524.063Zm0-.963A1.375,1.375,0,0,0,8.55-1.314,1.491,1.491,0,0,0,8.955-2.4,1.491,1.491,0,0,0,8.55-3.492a1.375,1.375,0,0,0-1.026-.414A1.36,1.36,0,0,0,6.5-3.492,1.5,1.5,0,0,0,6.1-2.4a1.5,1.5,0,0,0,.4,1.089A1.36,1.36,0,0,0,7.524-.9Zm6.822-3.96a2.008,2.008,0,0,1,1.458.531,2.1,2.1,0,0,1,.549,1.575V0H15.228V-2.61a1.349,1.349,0,0,0-.3-.95,1.1,1.1,0,0,0-.846-.319,1.3,1.3,0,0,0-.981.374,1.489,1.489,0,0,0-.36,1.075V0H11.619V-4.806H12.69v.621a1.759,1.759,0,0,1,.7-.5A2.526,2.526,0,0,1,14.346-4.86ZM26.874-6.3V0h-.963L22.437-4.266V0H21.276V-6.3h.963l3.474,4.266V-6.3Z" transform="translate(472 191)" fill="#003232"/>
        <path id="icon_Function" d="M5.276,8.534l1.444.613q.245-.49.524-.967t.593-.913L6.76,7.05Zm2.1,1.1,1.812,1.812a10.707,10.707,0,0,0,1.457-.8,7.083,7.083,0,0,0,1.1-.872,7.664,7.664,0,0,0,1.621-2.261A6.819,6.819,0,0,0,13.925,4.9a6.819,6.819,0,0,0-2.615.558A7.664,7.664,0,0,0,9.049,7.077a7.083,7.083,0,0,0-.872,1.1,10.707,10.707,0,0,0-.8,1.457ZM10.493,8.33a.971.971,0,1,1,.674.272A.916.916,0,0,1,10.493,8.33Zm-.2,5.217,1.485-1.485-.218-1.076q-.436.313-.913.593t-.967.524Zm4.441-9.453a7.875,7.875,0,0,1-.463,3.378,8.28,8.28,0,0,1-1.934,2.874l-.027.027-.027.027.3,1.5a.774.774,0,0,1-.02.4.841.841,0,0,1-.211.341l-2.329,2.343-1.158-2.7L6.542,9.965l-2.7-1.158L6.188,6.478a.841.841,0,0,1,.341-.211.774.774,0,0,1,.4-.02l1.5.3a.107.107,0,0,1,.027-.02.107.107,0,0,0,.027-.02,8.366,8.366,0,0,1,2.874-1.941,7.806,7.806,0,0,1,3.378-.47ZM4.758,11.613a1.608,1.608,0,0,1,1.165-.484,1.605,1.605,0,0,1,1.635,1.635,1.608,1.608,0,0,1-.484,1.165,2.658,2.658,0,0,1-1.1.586,14.844,14.844,0,0,1-2.227.436,15.906,15.906,0,0,1,.429-2.234A2.607,2.607,0,0,1,4.758,11.613Zm.572.586a1.8,1.8,0,0,0-.341.64,6.85,6.85,0,0,0-.259,1.117A6.85,6.85,0,0,0,5.848,13.7a1.8,1.8,0,0,0,.64-.341.766.766,0,0,0,.266-.579.816.816,0,0,0-.845-.845.766.766,0,0,0-.579.266Z" transform="translate(463.25 161.927)" fill="#7d7d7d"/>
        <path id="路径_514" data-name="路径 514" d="M-2.245.063a.719.719,0,0,1-.522-.211.718.718,0,0,1-.216-.535.722.722,0,0,1,.212-.54.723.723,0,0,1,.526-.207.723.723,0,0,1,.526.207.722.722,0,0,1,.211.54.718.718,0,0,1-.216.535A.719.719,0,0,1-2.245.063ZM0,.063A.719.719,0,0,1-.526-.148.718.718,0,0,1-.742-.684a.722.722,0,0,1,.211-.54A.723.723,0,0,1,0-1.431a.723.723,0,0,1,.527.207.722.722,0,0,1,.211.54.718.718,0,0,1-.216.535A.719.719,0,0,1,0,.063Zm2.25,0a.719.719,0,0,1-.522-.211.718.718,0,0,1-.216-.535.722.722,0,0,1,.212-.54.723.723,0,0,1,.526-.207.723.723,0,0,1,.527.207.722.722,0,0,1,.212.54.718.718,0,0,1-.216.535A.719.719,0,0,1,2.245.063Z" transform="translate(431 179)" fill="#003232"/>
        <path id="路径_513" data-name="路径 513" d="M-25.33-5.319V-3.4h3.042v.99H-25.33V0H-26.5V-6.3h4.6v.981Zm9.423.513V0h-1.071V-.612a1.79,1.79,0,0,1-.675.5,2.172,2.172,0,0,1-.873.176,2.089,2.089,0,0,1-1.516-.535A2.113,2.113,0,0,1-20.6-2.061V-4.806h1.125v2.592a1.392,1.392,0,0,0,.292.967,1.072,1.072,0,0,0,.833.32,1.261,1.261,0,0,0,.958-.374,1.5,1.5,0,0,0,.356-1.075v-2.43Zm4.653-.054A2.008,2.008,0,0,1-9.8-4.329a2.094,2.094,0,0,1,.549,1.575V0h-1.125V-2.61a1.349,1.349,0,0,0-.3-.95,1.1,1.1,0,0,0-.846-.319,1.3,1.3,0,0,0-.981.374,1.489,1.489,0,0,0-.36,1.075V0h-1.125V-4.806h1.071v.621a1.759,1.759,0,0,1,.7-.5A2.526,2.526,0,0,1-11.255-4.86ZM-5.116.063A2.818,2.818,0,0,1-6.457-.252a2.313,2.313,0,0,1-.927-.877A2.452,2.452,0,0,1-7.717-2.4a2.428,2.428,0,0,1,.333-1.269,2.33,2.33,0,0,1,.922-.873A2.81,2.81,0,0,1-5.116-4.86a2.592,2.592,0,0,1,1.247.288,1.869,1.869,0,0,1,.806.828l-.864.5a1.372,1.372,0,0,0-.518-.5,1.415,1.415,0,0,0-.679-.167A1.424,1.424,0,0,0-6.169-3.5,1.469,1.469,0,0,0-6.583-2.4a1.478,1.478,0,0,0,.41,1.093A1.42,1.42,0,0,0-5.125-.9a1.415,1.415,0,0,0,.679-.167,1.372,1.372,0,0,0,.518-.5l.864.5a1.947,1.947,0,0,1-.814.833A2.54,2.54,0,0,1-5.116.063ZM1.309-.261a1.324,1.324,0,0,1-.481.243,2.168,2.168,0,0,1-.6.081A1.7,1.7,0,0,1-.995-.351a1.593,1.593,0,0,1-.432-1.206V-3.87h-.792v-.9h.792v-1.1H-.3v1.1H.985v.9H-.3v2.286a.76.76,0,0,0,.171.536.642.642,0,0,0,.5.184.988.988,0,0,0,.63-.2ZM2.686-4.806H3.811V0H2.686ZM3.253-5.6a.723.723,0,0,1-.513-.194.632.632,0,0,1-.207-.482.632.632,0,0,1,.207-.482.723.723,0,0,1,.513-.193.743.743,0,0,1,.513.184.6.6,0,0,1,.207.464.679.679,0,0,1-.2.5A.7.7,0,0,1,3.253-5.6ZM7.9.063A2.727,2.727,0,0,1,6.584-.252a2.3,2.3,0,0,1-.914-.877A2.478,2.478,0,0,1,5.342-2.4,2.454,2.454,0,0,1,5.67-3.672a2.306,2.306,0,0,1,.914-.873A2.727,2.727,0,0,1,7.9-4.86a2.746,2.746,0,0,1,1.323.315,2.306,2.306,0,0,1,.913.873A2.454,2.454,0,0,1,10.462-2.4a2.478,2.478,0,0,1-.328,1.273,2.3,2.3,0,0,1-.913.877A2.746,2.746,0,0,1,7.9.063ZM7.9-.9a1.375,1.375,0,0,0,1.026-.414A1.491,1.491,0,0,0,9.329-2.4a1.491,1.491,0,0,0-.405-1.089A1.375,1.375,0,0,0,7.9-3.906a1.36,1.36,0,0,0-1.021.414,1.5,1.5,0,0,0-.4,1.089,1.5,1.5,0,0,0,.4,1.089A1.36,1.36,0,0,0,7.9-.9ZM14.72-4.86a2.008,2.008,0,0,1,1.458.531,2.1,2.1,0,0,1,.549,1.575V0H15.6V-2.61a1.349,1.349,0,0,0-.3-.95,1.1,1.1,0,0,0-.846-.319,1.3,1.3,0,0,0-.981.374,1.489,1.489,0,0,0-.36,1.075V0H11.993V-4.806h1.071v.621a1.759,1.759,0,0,1,.7-.5A2.526,2.526,0,0,1,14.72-4.86ZM24.566.09a3.548,3.548,0,0,1-1.724-.418,3.085,3.085,0,0,1-1.206-1.157A3.208,3.208,0,0,1,21.2-3.15a3.183,3.183,0,0,1,.441-1.665,3.117,3.117,0,0,1,1.211-1.156,3.548,3.548,0,0,1,1.723-.418,3.6,3.6,0,0,1,1.413.27,2.882,2.882,0,0,1,1.08.783l-.756.711a2.2,2.2,0,0,0-1.683-.738,2.36,2.36,0,0,0-1.161.284,2.042,2.042,0,0,0-.8.787,2.262,2.262,0,0,0-.288,1.143,2.262,2.262,0,0,0,.288,1.143,2.042,2.042,0,0,0,.8.788,2.36,2.36,0,0,0,1.161.283,2.193,2.193,0,0,0,1.683-.747l.756.72a2.874,2.874,0,0,1-1.084.783A3.628,3.628,0,0,1,24.566.09Z" transform="translate(388 191)" fill="#003232"/>
        <path id="icon_Function-2" data-name="icon_Function" d="M5.276,8.534l1.444.613q.245-.49.524-.967t.593-.913L6.76,7.05Zm2.1,1.1,1.812,1.812a10.707,10.707,0,0,0,1.457-.8,7.083,7.083,0,0,0,1.1-.872,7.664,7.664,0,0,0,1.621-2.261A6.819,6.819,0,0,0,13.925,4.9a6.819,6.819,0,0,0-2.615.558A7.664,7.664,0,0,0,9.049,7.077a7.083,7.083,0,0,0-.872,1.1,10.707,10.707,0,0,0-.8,1.457ZM10.493,8.33a.971.971,0,1,1,.674.272A.916.916,0,0,1,10.493,8.33Zm-.2,5.217,1.485-1.485-.218-1.076q-.436.313-.913.593t-.967.524Zm4.441-9.453a7.875,7.875,0,0,1-.463,3.378,8.28,8.28,0,0,1-1.934,2.874l-.027.027-.027.027.3,1.5a.774.774,0,0,1-.02.4.841.841,0,0,1-.211.341l-2.329,2.343-1.158-2.7L6.542,9.965l-2.7-1.158L6.188,6.478a.841.841,0,0,1,.341-.211.774.774,0,0,1,.4-.02l1.5.3a.107.107,0,0,1,.027-.02.107.107,0,0,0,.027-.02,8.366,8.366,0,0,1,2.874-1.941,7.806,7.806,0,0,1,3.378-.47ZM4.758,11.613a1.608,1.608,0,0,1,1.165-.484,1.605,1.605,0,0,1,1.635,1.635,1.608,1.608,0,0,1-.484,1.165,2.658,2.658,0,0,1-1.1.586,14.844,14.844,0,0,1-2.227.436,15.906,15.906,0,0,1,.429-2.234A2.607,2.607,0,0,1,4.758,11.613Zm.572.586a1.8,1.8,0,0,0-.341.64,6.85,6.85,0,0,0-.259,1.117A6.85,6.85,0,0,0,5.848,13.7a1.8,1.8,0,0,0,.64-.341.766.766,0,0,0,.266-.579.816.816,0,0,0-.845-.845.766.766,0,0,0-.579.266Z" transform="translate(379.25 161.927)" fill="#7d7d7d"/>
        <path id="路径_512" data-name="路径 512" d="M-25.483-5.319V-3.4h3.042v.99h-3.042V0h-1.17V-6.3h4.6v.981Zm9.423.513V0h-1.071V-.612a1.79,1.79,0,0,1-.675.5,2.172,2.172,0,0,1-.873.176A2.089,2.089,0,0,1-20.2-.472a2.113,2.113,0,0,1-.554-1.589V-4.806h1.125v2.592a1.392,1.392,0,0,0,.292.967,1.072,1.072,0,0,0,.833.32,1.261,1.261,0,0,0,.958-.374,1.5,1.5,0,0,0,.356-1.075v-2.43Zm4.653-.054a2.008,2.008,0,0,1,1.458.531A2.094,2.094,0,0,1-9.4-2.754V0h-1.125V-2.61a1.349,1.349,0,0,0-.3-.95,1.1,1.1,0,0,0-.846-.319,1.3,1.3,0,0,0-.981.374,1.489,1.489,0,0,0-.36,1.075V0h-1.125V-4.806h1.071v.621a1.759,1.759,0,0,1,.7-.5A2.526,2.526,0,0,1-11.408-4.86ZM-5.269.063A2.818,2.818,0,0,1-6.61-.252a2.313,2.313,0,0,1-.927-.877A2.452,2.452,0,0,1-7.87-2.4a2.428,2.428,0,0,1,.333-1.269,2.33,2.33,0,0,1,.922-.873A2.81,2.81,0,0,1-5.269-4.86a2.592,2.592,0,0,1,1.247.288,1.869,1.869,0,0,1,.806.828l-.864.5a1.372,1.372,0,0,0-.518-.5,1.415,1.415,0,0,0-.679-.167A1.424,1.424,0,0,0-6.322-3.5,1.469,1.469,0,0,0-6.736-2.4a1.478,1.478,0,0,0,.41,1.093A1.42,1.42,0,0,0-5.278-.9,1.415,1.415,0,0,0-4.6-1.067a1.372,1.372,0,0,0,.518-.5l.864.5a1.947,1.947,0,0,1-.814.833A2.54,2.54,0,0,1-5.269.063ZM1.156-.261a1.324,1.324,0,0,1-.481.243,2.168,2.168,0,0,1-.6.081A1.7,1.7,0,0,1-1.148-.351,1.593,1.593,0,0,1-1.58-1.557V-3.87h-.792v-.9h.792v-1.1H-.455v1.1H.832v.9H-.455v2.286a.76.76,0,0,0,.171.536.642.642,0,0,0,.5.184.988.988,0,0,0,.63-.2ZM2.533-4.806H3.658V0H2.533ZM3.1-5.6a.723.723,0,0,1-.513-.194.632.632,0,0,1-.207-.482.632.632,0,0,1,.207-.482A.723.723,0,0,1,3.1-6.948a.743.743,0,0,1,.513.184A.6.6,0,0,1,3.82-6.3a.679.679,0,0,1-.2.5A.7.7,0,0,1,3.1-5.6ZM7.745.063A2.727,2.727,0,0,1,6.431-.252a2.3,2.3,0,0,1-.914-.877A2.478,2.478,0,0,1,5.189-2.4a2.454,2.454,0,0,1,.328-1.269,2.306,2.306,0,0,1,.914-.873A2.727,2.727,0,0,1,7.745-4.86a2.746,2.746,0,0,1,1.323.315,2.306,2.306,0,0,1,.913.873A2.454,2.454,0,0,1,10.309-2.4a2.478,2.478,0,0,1-.328,1.273,2.3,2.3,0,0,1-.913.877A2.746,2.746,0,0,1,7.745.063Zm0-.963a1.375,1.375,0,0,0,1.026-.414A1.491,1.491,0,0,0,9.176-2.4a1.491,1.491,0,0,0-.405-1.089,1.375,1.375,0,0,0-1.026-.414,1.36,1.36,0,0,0-1.021.414,1.5,1.5,0,0,0-.4,1.089,1.5,1.5,0,0,0,.4,1.089A1.36,1.36,0,0,0,7.745-.9Zm6.822-3.96a2.008,2.008,0,0,1,1.458.531,2.1,2.1,0,0,1,.549,1.575V0H15.449V-2.61a1.349,1.349,0,0,0-.3-.95,1.1,1.1,0,0,0-.846-.319,1.3,1.3,0,0,0-.981.374,1.489,1.489,0,0,0-.36,1.075V0H11.84V-4.806h1.071v.621a1.759,1.759,0,0,1,.7-.5A2.526,2.526,0,0,1,14.567-4.86ZM25.961-3.276a1.662,1.662,0,0,1,.828.572,1.59,1.59,0,0,1,.306.994,1.457,1.457,0,0,1-.63,1.265A3.166,3.166,0,0,1,24.629,0H21.5V-6.3h2.952a2.9,2.9,0,0,1,1.719.437,1.4,1.4,0,0,1,.6,1.2,1.578,1.578,0,0,1-.216.828A1.479,1.479,0,0,1,25.961-3.276ZM22.667-5.382v1.737h1.656a1.683,1.683,0,0,0,.94-.221.726.726,0,0,0,.329-.643.735.735,0,0,0-.329-.653,1.683,1.683,0,0,0-.94-.22Zm1.89,4.464q1.359,0,1.359-.909t-1.359-.909h-1.89V-.918Z" transform="translate(322 191)" fill="#003232"/>
        <path id="icon_Function-3" data-name="icon_Function" d="M5.276,8.534l1.444.613q.245-.49.524-.967t.593-.913L6.76,7.05Zm2.1,1.1,1.812,1.812a10.707,10.707,0,0,0,1.457-.8,7.083,7.083,0,0,0,1.1-.872,7.664,7.664,0,0,0,1.621-2.261A6.819,6.819,0,0,0,13.925,4.9a6.819,6.819,0,0,0-2.615.558A7.664,7.664,0,0,0,9.049,7.077a7.083,7.083,0,0,0-.872,1.1,10.707,10.707,0,0,0-.8,1.457ZM10.493,8.33a.971.971,0,1,1,.674.272A.916.916,0,0,1,10.493,8.33Zm-.2,5.217,1.485-1.485-.218-1.076q-.436.313-.913.593t-.967.524Zm4.441-9.453a7.875,7.875,0,0,1-.463,3.378,8.28,8.28,0,0,1-1.934,2.874l-.027.027-.027.027.3,1.5a.774.774,0,0,1-.02.4.841.841,0,0,1-.211.341l-2.329,2.343-1.158-2.7L6.542,9.965l-2.7-1.158L6.188,6.478a.841.841,0,0,1,.341-.211.774.774,0,0,1,.4-.02l1.5.3a.107.107,0,0,1,.027-.02.107.107,0,0,0,.027-.02,8.366,8.366,0,0,1,2.874-1.941,7.806,7.806,0,0,1,3.378-.47ZM4.758,11.613a1.608,1.608,0,0,1,1.165-.484,1.605,1.605,0,0,1,1.635,1.635,1.608,1.608,0,0,1-.484,1.165,2.658,2.658,0,0,1-1.1.586,14.844,14.844,0,0,1-2.227.436,15.906,15.906,0,0,1,.429-2.234A2.607,2.607,0,0,1,4.758,11.613Zm.572.586a1.8,1.8,0,0,0-.341.64,6.85,6.85,0,0,0-.259,1.117A6.85,6.85,0,0,0,5.848,13.7a1.8,1.8,0,0,0,.64-.341.766.766,0,0,0,.266-.579.816.816,0,0,0-.845-.845.766.766,0,0,0-.579.266Z" transform="translate(313.25 161.927)" fill="#7d7d7d"/>
        <path id="路径_511" data-name="路径 511" d="M-25.43-5.319V-3.4h3.042v.99H-25.43V0H-26.6V-6.3H-22v.981Zm9.423.513V0h-1.071V-.612a1.79,1.79,0,0,1-.675.5,2.172,2.172,0,0,1-.873.176,2.089,2.089,0,0,1-1.516-.535A2.113,2.113,0,0,1-20.7-2.061V-4.806h1.125v2.592a1.392,1.392,0,0,0,.292.967,1.072,1.072,0,0,0,.833.32,1.261,1.261,0,0,0,.958-.374,1.5,1.5,0,0,0,.356-1.075v-2.43Zm4.653-.054A2.008,2.008,0,0,1-9.9-4.329a2.094,2.094,0,0,1,.549,1.575V0h-1.125V-2.61a1.349,1.349,0,0,0-.3-.95,1.1,1.1,0,0,0-.846-.319,1.3,1.3,0,0,0-.981.374,1.489,1.489,0,0,0-.36,1.075V0h-1.125V-4.806h1.071v.621a1.759,1.759,0,0,1,.7-.5A2.526,2.526,0,0,1-11.354-4.86ZM-5.216.063A2.818,2.818,0,0,1-6.557-.252a2.313,2.313,0,0,1-.927-.877A2.452,2.452,0,0,1-7.817-2.4a2.428,2.428,0,0,1,.333-1.269,2.33,2.33,0,0,1,.922-.873A2.81,2.81,0,0,1-5.216-4.86a2.592,2.592,0,0,1,1.247.288,1.869,1.869,0,0,1,.806.828l-.864.5a1.372,1.372,0,0,0-.518-.5,1.415,1.415,0,0,0-.679-.167A1.424,1.424,0,0,0-6.269-3.5,1.469,1.469,0,0,0-6.683-2.4a1.478,1.478,0,0,0,.41,1.093A1.42,1.42,0,0,0-5.225-.9a1.415,1.415,0,0,0,.679-.167,1.372,1.372,0,0,0,.518-.5l.864.5a1.947,1.947,0,0,1-.814.833A2.54,2.54,0,0,1-5.216.063ZM1.21-.261a1.324,1.324,0,0,1-.481.243,2.168,2.168,0,0,1-.6.081A1.7,1.7,0,0,1-1.094-.351a1.593,1.593,0,0,1-.432-1.206V-3.87h-.792v-.9h.792v-1.1H-.4v1.1H.886v.9H-.4v2.286a.76.76,0,0,0,.171.536.642.642,0,0,0,.5.184.988.988,0,0,0,.63-.2ZM2.587-4.806H3.712V0H2.587ZM3.154-5.6a.723.723,0,0,1-.513-.194.632.632,0,0,1-.207-.482.632.632,0,0,1,.207-.482.723.723,0,0,1,.513-.193.743.743,0,0,1,.513.184.6.6,0,0,1,.207.464.679.679,0,0,1-.2.5A.7.7,0,0,1,3.154-5.6ZM7.8.063A2.727,2.727,0,0,1,6.484-.252a2.3,2.3,0,0,1-.914-.877A2.478,2.478,0,0,1,5.242-2.4a2.454,2.454,0,0,1,.328-1.269,2.306,2.306,0,0,1,.914-.873A2.727,2.727,0,0,1,7.8-4.86a2.746,2.746,0,0,1,1.323.315,2.306,2.306,0,0,1,.913.873A2.454,2.454,0,0,1,10.363-2.4a2.478,2.478,0,0,1-.328,1.273,2.3,2.3,0,0,1-.913.877A2.746,2.746,0,0,1,7.8.063ZM7.8-.9a1.375,1.375,0,0,0,1.026-.414A1.491,1.491,0,0,0,9.229-2.4a1.491,1.491,0,0,0-.405-1.089A1.375,1.375,0,0,0,7.8-3.906a1.36,1.36,0,0,0-1.021.414,1.5,1.5,0,0,0-.4,1.089,1.5,1.5,0,0,0,.4,1.089A1.36,1.36,0,0,0,7.8-.9Zm6.822-3.96a2.008,2.008,0,0,1,1.458.531,2.1,2.1,0,0,1,.549,1.575V0H15.5V-2.61a1.349,1.349,0,0,0-.3-.95,1.1,1.1,0,0,0-.846-.319,1.3,1.3,0,0,0-.981.374,1.489,1.489,0,0,0-.36,1.075V0H11.894V-4.806h1.071v.621a1.759,1.759,0,0,1,.7-.5A2.526,2.526,0,0,1,14.621-4.86Zm11.016,3.4h-3.15L21.865,0H20.66l2.835-6.3h1.152L27.491,0H26.267Zm-.387-.918L24.062-5.13,22.882-2.376Z" transform="translate(256 191)" fill="#003232"/>
        <path id="icon_Function-4" data-name="icon_Function" d="M5.276,8.534l1.444.613q.245-.49.524-.967t.593-.913L6.76,7.05Zm2.1,1.1,1.812,1.812a10.707,10.707,0,0,0,1.457-.8,7.083,7.083,0,0,0,1.1-.872,7.664,7.664,0,0,0,1.621-2.261A6.819,6.819,0,0,0,13.925,4.9a6.819,6.819,0,0,0-2.615.558A7.664,7.664,0,0,0,9.049,7.077a7.083,7.083,0,0,0-.872,1.1,10.707,10.707,0,0,0-.8,1.457ZM10.493,8.33a.971.971,0,1,1,.674.272A.916.916,0,0,1,10.493,8.33Zm-.2,5.217,1.485-1.485-.218-1.076q-.436.313-.913.593t-.967.524Zm4.441-9.453a7.875,7.875,0,0,1-.463,3.378,8.28,8.28,0,0,1-1.934,2.874l-.027.027-.027.027.3,1.5a.774.774,0,0,1-.02.4.841.841,0,0,1-.211.341l-2.329,2.343-1.158-2.7L6.542,9.965l-2.7-1.158L6.188,6.478a.841.841,0,0,1,.341-.211.774.774,0,0,1,.4-.02l1.5.3a.107.107,0,0,1,.027-.02.107.107,0,0,0,.027-.02,8.366,8.366,0,0,1,2.874-1.941,7.806,7.806,0,0,1,3.378-.47ZM4.758,11.613a1.608,1.608,0,0,1,1.165-.484,1.605,1.605,0,0,1,1.635,1.635,1.608,1.608,0,0,1-.484,1.165,2.658,2.658,0,0,1-1.1.586,14.844,14.844,0,0,1-2.227.436,15.906,15.906,0,0,1,.429-2.234A2.607,2.607,0,0,1,4.758,11.613Zm.572.586a1.8,1.8,0,0,0-.341.64,6.85,6.85,0,0,0-.259,1.117A6.85,6.85,0,0,0,5.848,13.7a1.8,1.8,0,0,0,.64-.341.766.766,0,0,0,.266-.579.816.816,0,0,0-.845-.845.766.766,0,0,0-.579.266Z" transform="translate(247.25 161.927)" fill="#7d7d7d"/>
      </g>
      <g id="p1">
        <path id="about_arrow_icon-2" data-name="about_arrow_icon" d="M519.526,147.988l.1.1-3.873,3.869-.43-.43,3.258-3.253H481v-.615h37.58l-3.274-3.268.435-.434,3.908,3.906Z" transform="translate(519.966 -267.994) rotate(90)" fill="#01d9ca" fill-rule="evenodd"/>
        <path id="路径_510" data-name="路径 510" d="M-43.407-6.3a3.488,3.488,0,0,1,1.427.27,2.074,2.074,0,0,1,.931.774,2.165,2.165,0,0,1,.324,1.2,2.171,2.171,0,0,1-.324,1.192,2.064,2.064,0,0,1-.931.779,3.488,3.488,0,0,1-1.427.27h-1.422V0H-46V-6.3Zm-.054,3.492A1.8,1.8,0,0,0-42.3-3.132a1.129,1.129,0,0,0,.4-.927,1.129,1.129,0,0,0-.4-.927,1.8,1.8,0,0,0-1.161-.324h-1.368v2.5Zm5.274-1.3a1.875,1.875,0,0,1,1.71-.756v1.071a1.428,1.428,0,0,0-.261-.027,1.359,1.359,0,0,0-1.026.382,1.525,1.525,0,0,0-.369,1.1V0h-1.125V-4.806h1.071ZM-32.958.063a2.727,2.727,0,0,1-1.314-.315,2.3,2.3,0,0,1-.913-.877A2.478,2.478,0,0,1-35.514-2.4a2.454,2.454,0,0,1,.329-1.269,2.306,2.306,0,0,1,.913-.873,2.727,2.727,0,0,1,1.314-.315,2.746,2.746,0,0,1,1.323.315,2.306,2.306,0,0,1,.913.873A2.454,2.454,0,0,1-30.393-2.4a2.478,2.478,0,0,1-.328,1.273,2.3,2.3,0,0,1-.913.877A2.746,2.746,0,0,1-32.958.063Zm0-.963a1.375,1.375,0,0,0,1.026-.414A1.491,1.491,0,0,0-31.527-2.4a1.491,1.491,0,0,0-.405-1.089,1.375,1.375,0,0,0-1.026-.414,1.36,1.36,0,0,0-1.021.414,1.5,1.5,0,0,0-.4,1.089,1.5,1.5,0,0,0,.4,1.089A1.36,1.36,0,0,0-32.958-.9ZM-26.2-4.86a2.551,2.551,0,0,1,1.255.306,2.207,2.207,0,0,1,.869.864A2.573,2.573,0,0,1-23.76-2.4a2.6,2.6,0,0,1-.315,1.291,2.2,2.2,0,0,1-.869.869A2.551,2.551,0,0,1-26.2.063a2.325,2.325,0,0,1-.9-.171,1.741,1.741,0,0,1-.688-.513V0h-1.071V-6.678h1.125v2.457a1.889,1.889,0,0,1,.679-.477A2.226,2.226,0,0,1-26.2-4.86ZM-26.325-.9A1.36,1.36,0,0,0-25.3-1.314,1.5,1.5,0,0,0-24.9-2.4a1.5,1.5,0,0,0-.4-1.089,1.36,1.36,0,0,0-1.021-.414,1.447,1.447,0,0,0-.729.184,1.333,1.333,0,0,0-.513.527,1.611,1.611,0,0,0-.189.792,1.611,1.611,0,0,0,.189.792,1.333,1.333,0,0,0,.513.527A1.447,1.447,0,0,0-26.325-.9Zm5.859-3.96a2.343,2.343,0,0,1,1.625.509,1.966,1.966,0,0,1,.563,1.535V0h-1.062V-.585a1.309,1.309,0,0,1-.589.481,2.3,2.3,0,0,1-.923.167A2.26,2.26,0,0,1-21.8-.122a1.46,1.46,0,0,1-.625-.513,1.3,1.3,0,0,1-.221-.742,1.273,1.273,0,0,1,.482-1.04,2.391,2.391,0,0,1,1.517-.391H-19.4V-2.88a.985.985,0,0,0-.3-.774,1.3,1.3,0,0,0-.9-.27,2.585,2.585,0,0,0-.8.126,1.957,1.957,0,0,0-.662.351l-.441-.819a2.731,2.731,0,0,1,.909-.441A4.045,4.045,0,0,1-20.466-4.86Zm-.153,4.1a1.453,1.453,0,0,0,.752-.193A1.053,1.053,0,0,0-19.4-1.5v-.558h-1.161q-.972,0-.972.639a.574.574,0,0,0,.243.486A1.114,1.114,0,0,0-20.619-.756Zm6.894-4.1a2.551,2.551,0,0,1,1.255.306,2.207,2.207,0,0,1,.869.864A2.573,2.573,0,0,1-11.286-2.4,2.6,2.6,0,0,1-11.6-1.112a2.2,2.2,0,0,1-.869.869,2.551,2.551,0,0,1-1.255.306,2.325,2.325,0,0,1-.9-.171,1.741,1.741,0,0,1-.688-.513V0h-1.071V-6.678h1.125v2.457a1.889,1.889,0,0,1,.679-.477A2.226,2.226,0,0,1-13.725-4.86ZM-13.851-.9a1.36,1.36,0,0,0,1.022-.414,1.5,1.5,0,0,0,.4-1.089,1.5,1.5,0,0,0-.4-1.089,1.36,1.36,0,0,0-1.022-.414,1.447,1.447,0,0,0-.729.184,1.333,1.333,0,0,0-.513.527,1.611,1.611,0,0,0-.189.792,1.611,1.611,0,0,0,.189.792,1.333,1.333,0,0,0,.513.527A1.447,1.447,0,0,0-13.851-.9Zm4.086-3.906H-8.64V0H-9.765ZM-9.2-5.6a.723.723,0,0,1-.513-.194.632.632,0,0,1-.207-.482.632.632,0,0,1,.207-.482A.723.723,0,0,1-9.2-6.948a.743.743,0,0,1,.513.184.6.6,0,0,1,.207.464.679.679,0,0,1-.2.5A.7.7,0,0,1-9.2-5.6Zm2.484-1.08h1.125V0H-6.714Zm3.051,1.872h1.125V0H-3.663ZM-3.1-5.6a.723.723,0,0,1-.513-.194.632.632,0,0,1-.207-.482.632.632,0,0,1,.207-.482A.723.723,0,0,1-3.1-6.948a.743.743,0,0,1,.513.184.6.6,0,0,1,.207.464.679.679,0,0,1-.2.5A.7.7,0,0,1-3.1-5.6ZM.873.063A4.3,4.3,0,0,1-.27-.09a2.876,2.876,0,0,1-.891-.387l.432-.855a2.777,2.777,0,0,0,.778.347,3.234,3.234,0,0,0,.9.13q1.008,0,1.008-.531A.355.355,0,0,0,1.7-1.737a4.429,4.429,0,0,0-.823-.189,6.681,6.681,0,0,1-.967-.207,1.485,1.485,0,0,1-.648-.409,1.144,1.144,0,0,1-.275-.814A1.28,1.28,0,0,1-.446-4.451,2.6,2.6,0,0,1,1.1-4.86a4.454,4.454,0,0,1,.99.113,2.776,2.776,0,0,1,.81.3l-.432.855a2.665,2.665,0,0,0-1.377-.36A1.526,1.526,0,0,0,.337-3.8a.443.443,0,0,0-.257.392.391.391,0,0,0,.275.383,4.362,4.362,0,0,0,.85.211,6.562,6.562,0,0,1,.945.207,1.479,1.479,0,0,1,.635.4,1.1,1.1,0,0,1,.266.792,1.253,1.253,0,0,1-.585,1.08A2.758,2.758,0,0,1,.873.063ZM7.362-.261a1.324,1.324,0,0,1-.481.243,2.169,2.169,0,0,1-.6.081A1.7,1.7,0,0,1,5.058-.351a1.593,1.593,0,0,1-.432-1.206V-3.87H3.834v-.9h.792v-1.1H5.751v1.1H7.038v.9H5.751v2.286a.76.76,0,0,0,.171.536.642.642,0,0,0,.495.184.988.988,0,0,0,.63-.2ZM8.739-4.806H9.864V0H8.739ZM9.306-5.6a.723.723,0,0,1-.513-.194.632.632,0,0,1-.207-.482.632.632,0,0,1,.207-.482.723.723,0,0,1,.513-.193.743.743,0,0,1,.513.184.6.6,0,0,1,.207.464.679.679,0,0,1-.2.5A.7.7,0,0,1,9.306-5.6ZM13.995.063a2.818,2.818,0,0,1-1.341-.315,2.313,2.313,0,0,1-.927-.877A2.452,2.452,0,0,1,11.394-2.4a2.428,2.428,0,0,1,.333-1.269,2.33,2.33,0,0,1,.922-.873,2.81,2.81,0,0,1,1.345-.315,2.592,2.592,0,0,1,1.247.288,1.869,1.869,0,0,1,.805.828l-.864.5a1.372,1.372,0,0,0-.518-.5,1.415,1.415,0,0,0-.679-.167,1.424,1.424,0,0,0-1.044.409A1.469,1.469,0,0,0,12.528-2.4a1.478,1.478,0,0,0,.41,1.093A1.42,1.42,0,0,0,13.986-.9a1.415,1.415,0,0,0,.679-.167,1.372,1.372,0,0,0,.518-.5l.864.5a1.947,1.947,0,0,1-.814.833A2.54,2.54,0,0,1,13.995.063ZM24.6-1.458h-3.15L20.826,0H19.62l2.835-6.3h1.152L26.451,0H25.227Zm-.387-.918L23.022-5.13,21.843-2.376ZM29.034.063A4.3,4.3,0,0,1,27.891-.09,2.876,2.876,0,0,1,27-.477l.432-.855a2.777,2.777,0,0,0,.778.347,3.234,3.234,0,0,0,.9.13q1.008,0,1.008-.531a.355.355,0,0,0-.257-.351,4.429,4.429,0,0,0-.823-.189,6.681,6.681,0,0,1-.967-.207,1.485,1.485,0,0,1-.648-.409,1.144,1.144,0,0,1-.274-.814,1.28,1.28,0,0,1,.571-1.094,2.6,2.6,0,0,1,1.544-.41,4.454,4.454,0,0,1,.99.113,2.776,2.776,0,0,1,.81.3l-.432.855a2.665,2.665,0,0,0-1.377-.36A1.526,1.526,0,0,0,28.5-3.8a.443.443,0,0,0-.257.392.391.391,0,0,0,.274.383,4.362,4.362,0,0,0,.851.211,6.562,6.562,0,0,1,.945.207,1.479,1.479,0,0,1,.635.4,1.1,1.1,0,0,1,.266.792,1.253,1.253,0,0,1-.585,1.08A2.758,2.758,0,0,1,29.034.063Zm5.085,0A4.3,4.3,0,0,1,32.976-.09a2.876,2.876,0,0,1-.891-.387l.432-.855a2.777,2.777,0,0,0,.778.347,3.234,3.234,0,0,0,.9.13q1.008,0,1.008-.531a.355.355,0,0,0-.257-.351,4.429,4.429,0,0,0-.824-.189,6.681,6.681,0,0,1-.967-.207,1.485,1.485,0,0,1-.648-.409,1.144,1.144,0,0,1-.274-.814A1.28,1.28,0,0,1,32.8-4.451a2.6,2.6,0,0,1,1.544-.41,4.454,4.454,0,0,1,.99.113,2.776,2.776,0,0,1,.81.3l-.432.855a2.665,2.665,0,0,0-1.377-.36,1.526,1.526,0,0,0-.751.148.443.443,0,0,0-.257.392.391.391,0,0,0,.275.383,4.362,4.362,0,0,0,.85.211,6.562,6.562,0,0,1,.945.207,1.479,1.479,0,0,1,.634.4,1.1,1.1,0,0,1,.266.792,1.253,1.253,0,0,1-.585,1.08A2.758,2.758,0,0,1,34.119.063Zm8.118-2.439q0,.117-.018.333H38.448a1.307,1.307,0,0,0,.518.842A1.7,1.7,0,0,0,40-.891a1.752,1.752,0,0,0,1.305-.522l.6.693a2.032,2.032,0,0,1-.819.585,2.983,2.983,0,0,1-1.116.2,2.97,2.97,0,0,1-1.4-.315,2.269,2.269,0,0,1-.931-.877A2.478,2.478,0,0,1,37.323-2.4a2.515,2.515,0,0,1,.319-1.265,2.266,2.266,0,0,1,.887-.878,2.587,2.587,0,0,1,1.278-.315,2.522,2.522,0,0,1,1.256.311,2.2,2.2,0,0,1,.864.873A2.647,2.647,0,0,1,42.237-2.376ZM39.807-3.96a1.357,1.357,0,0,0-.914.319,1.344,1.344,0,0,0-.454.851h2.727a1.326,1.326,0,0,0-.441-.846A1.341,1.341,0,0,0,39.807-3.96Zm6.849,3.7a1.324,1.324,0,0,1-.481.243,2.168,2.168,0,0,1-.6.081,1.7,1.7,0,0,1-1.224-.414,1.593,1.593,0,0,1-.432-1.206V-3.87h-.792v-.9h.792v-1.1h1.125v1.1h1.287v.9H45.045v2.286a.76.76,0,0,0,.171.536.642.642,0,0,0,.495.184.988.988,0,0,0,.63-.2Z" transform="translate(372 206)" fill="#003232"/>
        <path id="icon_Probabilistic" d="M9.565,14.3h.825v-.78a2.507,2.507,0,0,0,1.425-.562,1.561,1.561,0,0,0,.51-1.223,1.783,1.783,0,0,0-.435-1.245,4.183,4.183,0,0,0-1.47-.915,6.437,6.437,0,0,1-1.26-.645.9.9,0,0,1-.39-.765.891.891,0,0,1,.338-.735,1.437,1.437,0,0,1,.922-.27,1.422,1.422,0,0,1,.78.21,1.643,1.643,0,0,1,.555.63l.72-.345a2.134,2.134,0,0,0-.675-.825,2.038,2.038,0,0,0-.99-.36V5.71H9.595v.765a2,2,0,0,0-1.207.562A1.566,1.566,0,0,0,7.945,8.17,1.552,1.552,0,0,0,8.4,9.34a4.36,4.36,0,0,0,1.35.81,5.209,5.209,0,0,1,1.38.757,1.076,1.076,0,0,1,.375.832.914.914,0,0,1-.4.773,1.638,1.638,0,0,1-1,.292,1.737,1.737,0,0,1-1.042-.33,1.711,1.711,0,0,1-.638-.9l-.765.255a3.141,3.141,0,0,0,.772,1.088,2.8,2.8,0,0,0,1.133.578ZM10,16a5.806,5.806,0,0,1-2.325-.472,6.045,6.045,0,0,1-3.2-3.2,5.993,5.993,0,0,1,0-4.665,6,6,0,0,1,1.29-1.905A6.151,6.151,0,0,1,7.675,4.472a5.993,5.993,0,0,1,4.665,0A5.991,5.991,0,0,1,15.528,7.66a5.993,5.993,0,0,1,0,4.665,6.151,6.151,0,0,1-1.283,1.912,6,6,0,0,1-1.905,1.29A5.843,5.843,0,0,1,10,16Zm0-.9a4.908,4.908,0,0,0,3.615-1.492A4.927,4.927,0,0,0,15.1,10,5.07,5.07,0,0,0,10,4.9,4.927,4.927,0,0,0,6.392,6.385,4.908,4.908,0,0,0,4.9,10a4.915,4.915,0,0,0,1.493,3.608A4.915,4.915,0,0,0,10,15.1ZM10,10Z" transform="translate(362 177)" fill="#7d7d7d"/>
        <path id="路径_509" data-name="路径 509" d="M-9.045.09a3.593,3.593,0,0,1-1.737-.418A3.1,3.1,0,0,1-12-1.49a3.19,3.19,0,0,1-.441-1.66A3.19,3.19,0,0,1-12-4.811a3.1,3.1,0,0,1,1.215-1.161A3.593,3.593,0,0,1-9.045-6.39a3.593,3.593,0,0,1,1.737.418A3.109,3.109,0,0,1-6.093-4.815,3.183,3.183,0,0,1-5.652-3.15a3.183,3.183,0,0,1-.441,1.665A3.109,3.109,0,0,1-7.308-.329,3.593,3.593,0,0,1-9.045.09Zm0-1.026a2.273,2.273,0,0,0,1.134-.283,2.05,2.05,0,0,0,.792-.792A2.269,2.269,0,0,0-6.831-3.15a2.269,2.269,0,0,0-.288-1.138,2.05,2.05,0,0,0-.792-.792,2.273,2.273,0,0,0-1.134-.284,2.273,2.273,0,0,0-1.134.284,2.05,2.05,0,0,0-.792.792,2.269,2.269,0,0,0-.288,1.138,2.269,2.269,0,0,0,.288,1.138,2.051,2.051,0,0,0,.792.792A2.273,2.273,0,0,0-9.045-.936ZM1.827,0,1.818-4.176-.252-.72H-.774l-2.07-3.4V0H-3.96V-6.3H-3l2.5,4.176L1.962-6.3h.963L2.934,0Zm9.045,0-.009-4.176L8.793-.72H8.271L6.2-4.122V0H5.085V-6.3h.963l2.5,4.176L11.007-6.3h.963L11.979,0Z" transform="translate(392 153)" fill="#01d9ca"/>
        <path id="about_arrow_icon-3" data-name="about_arrow_icon" d="M519.526,147.988l.1.1-3.873,3.869-.43-.43,3.258-3.253H476v-.615h42.58l-3.274-3.268.435-.434,3.908,3.906Z" transform="translate(519.966 -344.994) rotate(90)" fill="#01d9ca" fill-rule="evenodd"/>
        <path id="路径_508" data-name="路径 508" d="M-68.355.09a4.806,4.806,0,0,1-1.409-.207,2.94,2.94,0,0,1-1.076-.549l.4-.909a3.19,3.19,0,0,0,.95.5,3.453,3.453,0,0,0,1.13.194,1.952,1.952,0,0,0,1.049-.225A.682.682,0,0,0-66.96-1.7a.575.575,0,0,0-.193-.446,1.359,1.359,0,0,0-.491-.274q-.3-.1-.81-.225a9.442,9.442,0,0,1-1.165-.342,1.918,1.918,0,0,1-.765-.536,1.442,1.442,0,0,1-.32-.985,1.681,1.681,0,0,1,.284-.95,1.918,1.918,0,0,1,.855-.679,3.464,3.464,0,0,1,1.4-.252,4.52,4.52,0,0,1,1.134.144,3.134,3.134,0,0,1,.963.414l-.369.909a3.64,3.64,0,0,0-.864-.369,3.232,3.232,0,0,0-.873-.126,1.824,1.824,0,0,0-1.03.234.722.722,0,0,0-.338.621.561.561,0,0,0,.193.441,1.4,1.4,0,0,0,.491.27q.3.1.81.225a8.523,8.523,0,0,1,1.152.337,1.973,1.973,0,0,1,.77.536,1.411,1.411,0,0,1,.32.972,1.66,1.66,0,0,1-.284.945,1.928,1.928,0,0,1-.859.675A3.5,3.5,0,0,1-68.355.09Zm6.939-.351a1.324,1.324,0,0,1-.481.243,2.168,2.168,0,0,1-.6.081A1.7,1.7,0,0,1-63.72-.351a1.593,1.593,0,0,1-.432-1.206V-3.87h-.792v-.9h.792v-1.1h1.125v1.1h1.287v.9h-1.287v2.286a.76.76,0,0,0,.171.536.642.642,0,0,0,.495.184.988.988,0,0,0,.63-.2Zm3.375.324a2.727,2.727,0,0,1-1.314-.315,2.3,2.3,0,0,1-.913-.877A2.478,2.478,0,0,1-60.6-2.4a2.454,2.454,0,0,1,.329-1.269,2.306,2.306,0,0,1,.913-.873,2.727,2.727,0,0,1,1.314-.315,2.746,2.746,0,0,1,1.323.315,2.306,2.306,0,0,1,.913.873A2.454,2.454,0,0,1-55.476-2.4,2.478,2.478,0,0,1-55.8-1.129a2.3,2.3,0,0,1-.913.877A2.746,2.746,0,0,1-58.041.063Zm0-.963a1.375,1.375,0,0,0,1.026-.414,1.491,1.491,0,0,0,.4-1.089,1.491,1.491,0,0,0-.4-1.089,1.375,1.375,0,0,0-1.026-.414,1.36,1.36,0,0,0-1.021.414,1.5,1.5,0,0,0-.4,1.089,1.5,1.5,0,0,0,.4,1.089A1.36,1.36,0,0,0-58.041-.9Zm6.3.963a2.818,2.818,0,0,1-1.341-.315,2.313,2.313,0,0,1-.927-.877A2.452,2.452,0,0,1-54.342-2.4a2.428,2.428,0,0,1,.333-1.269,2.33,2.33,0,0,1,.923-.873,2.81,2.81,0,0,1,1.346-.315,2.592,2.592,0,0,1,1.246.288,1.869,1.869,0,0,1,.806.828l-.864.5a1.372,1.372,0,0,0-.518-.5,1.415,1.415,0,0,0-.68-.167,1.424,1.424,0,0,0-1.044.409A1.469,1.469,0,0,0-53.208-2.4,1.478,1.478,0,0,0-52.8-1.309,1.42,1.42,0,0,0-51.75-.9a1.415,1.415,0,0,0,.68-.167,1.372,1.372,0,0,0,.518-.5l.864.5a1.947,1.947,0,0,1-.814.833A2.54,2.54,0,0,1-51.741.063Zm6.156-4.923a2.008,2.008,0,0,1,1.458.531,2.094,2.094,0,0,1,.549,1.575V0H-44.7V-2.61a1.349,1.349,0,0,0-.3-.95,1.1,1.1,0,0,0-.846-.319,1.3,1.3,0,0,0-.981.374,1.489,1.489,0,0,0-.36,1.075V0h-1.125V-6.678h1.125v2.43A1.83,1.83,0,0,1-46.5-4.7,2.527,2.527,0,0,1-45.585-4.86Zm5.724,0a2.343,2.343,0,0,1,1.625.509,1.966,1.966,0,0,1,.563,1.535V0h-1.062V-.585a1.309,1.309,0,0,1-.59.481,2.3,2.3,0,0,1-.923.167,2.26,2.26,0,0,1-.945-.185,1.46,1.46,0,0,1-.625-.513,1.3,1.3,0,0,1-.221-.742,1.273,1.273,0,0,1,.481-1.04,2.391,2.391,0,0,1,1.517-.391H-38.8V-2.88a.985.985,0,0,0-.3-.774,1.3,1.3,0,0,0-.9-.27,2.585,2.585,0,0,0-.8.126,1.957,1.957,0,0,0-.662.351l-.441-.819a2.731,2.731,0,0,1,.909-.441A4.045,4.045,0,0,1-39.861-4.86Zm-.153,4.1a1.453,1.453,0,0,0,.751-.193A1.053,1.053,0,0,0-38.8-1.5v-.558H-39.96q-.972,0-.972.639a.574.574,0,0,0,.243.486A1.114,1.114,0,0,0-40.014-.756ZM-34.3.063A4.3,4.3,0,0,1-35.442-.09a2.876,2.876,0,0,1-.891-.387l.432-.855a2.777,2.777,0,0,0,.779.347,3.234,3.234,0,0,0,.9.13q1.008,0,1.008-.531a.355.355,0,0,0-.257-.351,4.429,4.429,0,0,0-.824-.189,6.681,6.681,0,0,1-.967-.207,1.485,1.485,0,0,1-.648-.409,1.144,1.144,0,0,1-.274-.814,1.28,1.28,0,0,1,.571-1.094,2.6,2.6,0,0,1,1.544-.41,4.454,4.454,0,0,1,.99.113,2.776,2.776,0,0,1,.81.3l-.432.855a2.665,2.665,0,0,0-1.377-.36,1.526,1.526,0,0,0-.751.148.443.443,0,0,0-.257.392.391.391,0,0,0,.275.383,4.362,4.362,0,0,0,.85.211,6.562,6.562,0,0,1,.945.207,1.479,1.479,0,0,1,.635.4,1.1,1.1,0,0,1,.265.792,1.253,1.253,0,0,1-.585,1.08A2.758,2.758,0,0,1-34.3.063Zm6.489-.324a1.324,1.324,0,0,1-.481.243,2.169,2.169,0,0,1-.6.081,1.7,1.7,0,0,1-1.224-.414,1.593,1.593,0,0,1-.432-1.206V-3.87h-.792v-.9h.792v-1.1h1.125v1.1h1.287v.9h-1.287v2.286a.76.76,0,0,0,.171.536.642.642,0,0,0,.495.184.988.988,0,0,0,.63-.2Zm1.377-4.545h1.125V0h-1.125Zm.567-.792a.723.723,0,0,1-.513-.194.632.632,0,0,1-.207-.482.632.632,0,0,1,.207-.482.723.723,0,0,1,.513-.193.743.743,0,0,1,.513.184.6.6,0,0,1,.207.464.679.679,0,0,1-.2.5A.7.7,0,0,1-25.866-5.6ZM-21.177.063a2.818,2.818,0,0,1-1.341-.315,2.313,2.313,0,0,1-.927-.877A2.452,2.452,0,0,1-23.778-2.4a2.428,2.428,0,0,1,.333-1.269,2.33,2.33,0,0,1,.923-.873,2.81,2.81,0,0,1,1.346-.315,2.592,2.592,0,0,1,1.246.288,1.869,1.869,0,0,1,.806.828l-.864.5a1.372,1.372,0,0,0-.517-.5,1.415,1.415,0,0,0-.68-.167A1.424,1.424,0,0,0-22.23-3.5,1.469,1.469,0,0,0-22.644-2.4a1.478,1.478,0,0,0,.41,1.093A1.42,1.42,0,0,0-21.186-.9a1.415,1.415,0,0,0,.68-.167,1.372,1.372,0,0,0,.517-.5l.864.5a1.947,1.947,0,0,1-.814.833A2.54,2.54,0,0,1-21.177.063ZM-14.661-6.3h1.17V0h-1.17Zm5.94,1.44a2.008,2.008,0,0,1,1.458.531,2.1,2.1,0,0,1,.549,1.575V0H-7.839V-2.61a1.349,1.349,0,0,0-.3-.95,1.1,1.1,0,0,0-.846-.319,1.3,1.3,0,0,0-.981.374,1.489,1.489,0,0,0-.36,1.075V0h-1.125V-4.806h1.071v.621a1.759,1.759,0,0,1,.7-.5A2.526,2.526,0,0,1-8.721-4.86Zm5.841-.972q-.711,0-.711.774v.288h1.323v.9H-3.555V0H-4.68V-3.87h-.792v-.9h.792v-.306A1.639,1.639,0,0,1-4.23-6.3a1.726,1.726,0,0,1,1.269-.445,1.736,1.736,0,0,1,1.017.261l-.315.846A1.075,1.075,0,0,0-2.88-5.832ZM1.026.063A2.727,2.727,0,0,1-.288-.252,2.3,2.3,0,0,1-1.2-1.129,2.478,2.478,0,0,1-1.53-2.4,2.454,2.454,0,0,1-1.2-3.672a2.306,2.306,0,0,1,.913-.873A2.727,2.727,0,0,1,1.026-4.86a2.746,2.746,0,0,1,1.323.315,2.306,2.306,0,0,1,.913.873A2.454,2.454,0,0,1,3.591-2.4a2.478,2.478,0,0,1-.328,1.273,2.3,2.3,0,0,1-.913.877A2.746,2.746,0,0,1,1.026.063Zm0-.963a1.375,1.375,0,0,0,1.026-.414A1.491,1.491,0,0,0,2.457-2.4a1.491,1.491,0,0,0-.405-1.089,1.375,1.375,0,0,0-1.026-.414A1.36,1.36,0,0,0,0-3.492,1.5,1.5,0,0,0-.4-2.4,1.5,1.5,0,0,0,0-1.314,1.36,1.36,0,0,0,1.026-.9ZM6.192-4.1A1.875,1.875,0,0,1,7.9-4.86v1.071a1.428,1.428,0,0,0-.261-.027,1.359,1.359,0,0,0-1.026.382,1.525,1.525,0,0,0-.369,1.1V0H5.121V-4.806H6.192Zm9.18-.756a1.955,1.955,0,0,1,1.44.527,2.134,2.134,0,0,1,.531,1.579V0H16.218V-2.61a1.407,1.407,0,0,0-.279-.95,1.006,1.006,0,0,0-.8-.319,1.173,1.173,0,0,0-.909.374,1.524,1.524,0,0,0-.342,1.066V0H12.762V-2.61a1.407,1.407,0,0,0-.279-.95,1.006,1.006,0,0,0-.8-.319,1.177,1.177,0,0,0-.913.369,1.534,1.534,0,0,0-.338,1.071V0H9.306V-4.806h1.071v.612a1.749,1.749,0,0,1,.675-.5,2.292,2.292,0,0,1,.9-.171,2.174,2.174,0,0,1,.958.2,1.556,1.556,0,0,1,.661.6,2,2,0,0,1,.765-.589A2.484,2.484,0,0,1,15.372-4.86Zm5.7,0a2.343,2.343,0,0,1,1.625.509,1.966,1.966,0,0,1,.563,1.535V0H22.194V-.585A1.309,1.309,0,0,1,21.6-.1a2.3,2.3,0,0,1-.923.167,2.26,2.26,0,0,1-.945-.185,1.46,1.46,0,0,1-.625-.513,1.3,1.3,0,0,1-.221-.742,1.273,1.273,0,0,1,.482-1.04,2.391,2.391,0,0,1,1.517-.391h1.242V-2.88a.985.985,0,0,0-.3-.774,1.3,1.3,0,0,0-.9-.27,2.585,2.585,0,0,0-.8.126,1.957,1.957,0,0,0-.662.351l-.441-.819a2.731,2.731,0,0,1,.909-.441A4.045,4.045,0,0,1,21.069-4.86Zm-.153,4.1a1.453,1.453,0,0,0,.752-.193,1.053,1.053,0,0,0,.463-.554v-.558H20.97q-.972,0-.972.639a.574.574,0,0,0,.243.486A1.114,1.114,0,0,0,20.916-.756Zm7.119.5a1.324,1.324,0,0,1-.481.243,2.169,2.169,0,0,1-.6.081,1.7,1.7,0,0,1-1.224-.414A1.593,1.593,0,0,1,25.3-1.557V-3.87h-.792v-.9H25.3v-1.1h1.125v1.1h1.287v.9H26.424v2.286a.76.76,0,0,0,.171.536.642.642,0,0,0,.495.184.988.988,0,0,0,.63-.2Zm1.377-4.545h1.125V0H29.412Zm.567-.792a.723.723,0,0,1-.513-.194.632.632,0,0,1-.207-.482.632.632,0,0,1,.207-.482.723.723,0,0,1,.513-.193.743.743,0,0,1,.513.184A.6.6,0,0,1,30.7-6.3a.679.679,0,0,1-.2.5A.7.7,0,0,1,29.979-5.6ZM34.623.063a2.727,2.727,0,0,1-1.314-.315,2.3,2.3,0,0,1-.913-.877A2.478,2.478,0,0,1,32.067-2.4,2.454,2.454,0,0,1,32.4-3.672a2.306,2.306,0,0,1,.913-.873,2.727,2.727,0,0,1,1.314-.315,2.746,2.746,0,0,1,1.323.315,2.306,2.306,0,0,1,.913.873A2.454,2.454,0,0,1,37.188-2.4a2.478,2.478,0,0,1-.329,1.273,2.3,2.3,0,0,1-.913.877A2.746,2.746,0,0,1,34.623.063Zm0-.963a1.375,1.375,0,0,0,1.026-.414,1.491,1.491,0,0,0,.4-1.089,1.491,1.491,0,0,0-.4-1.089,1.375,1.375,0,0,0-1.026-.414,1.36,1.36,0,0,0-1.021.414A1.5,1.5,0,0,0,33.2-2.4a1.5,1.5,0,0,0,.4,1.089A1.36,1.36,0,0,0,34.623-.9Zm6.822-3.96a2.008,2.008,0,0,1,1.458.531,2.094,2.094,0,0,1,.549,1.575V0H42.327V-2.61a1.349,1.349,0,0,0-.3-.95,1.1,1.1,0,0,0-.846-.319,1.3,1.3,0,0,0-.981.374,1.489,1.489,0,0,0-.36,1.075V0H38.718V-4.806h1.071v.621a1.759,1.759,0,0,1,.7-.5A2.526,2.526,0,0,1,41.445-4.86Zm8.1-.459V-3.4h3.042v.99H49.545V0h-1.17V-6.3h4.6v.981Zm4.9-1.359h1.125V0H54.45ZM59.661.063a2.727,2.727,0,0,1-1.314-.315,2.3,2.3,0,0,1-.913-.877A2.478,2.478,0,0,1,57.1-2.4a2.454,2.454,0,0,1,.329-1.269,2.306,2.306,0,0,1,.913-.873,2.727,2.727,0,0,1,1.314-.315,2.746,2.746,0,0,1,1.323.315,2.306,2.306,0,0,1,.913.873A2.454,2.454,0,0,1,62.226-2.4,2.478,2.478,0,0,1,61.9-1.129a2.3,2.3,0,0,1-.913.877A2.746,2.746,0,0,1,59.661.063Zm0-.963a1.375,1.375,0,0,0,1.026-.414,1.491,1.491,0,0,0,.4-1.089,1.491,1.491,0,0,0-.4-1.089,1.375,1.375,0,0,0-1.026-.414,1.36,1.36,0,0,0-1.021.414,1.5,1.5,0,0,0-.4,1.089,1.5,1.5,0,0,0,.4,1.089A1.36,1.36,0,0,0,59.661-.9ZM71.118-4.806,69.345,0h-1.08L67.023-3.312,65.763,0h-1.08L62.919-4.806h1.062L65.25-1.26l1.323-3.546h.945l1.3,3.564,1.305-3.564Z" transform="translate(372 127)" fill="#003232"/>
        <path id="icon_Information" d="M10.484,13.844h5.031v-.937H10.484Zm0-2.656h5.031V10.25H10.484ZM8.938,16.5A.961.961,0,0,1,8,15.563V4.938A.961.961,0,0,1,8.938,4h5.641L18,7.422v8.141a.961.961,0,0,1-.937.938Zm5.172-8.656V4.938H8.938V15.563h8.125V7.844ZM8.938,4.938v0Z" transform="translate(359 97)" fill="#7d7d7d"/>
      </g>
    </g>
  </g>
</svg>
