<svg xmlns="http://www.w3.org/2000/svg" width="375" height="370" viewBox="0 0 375 370"><path fill="none" d="M0 0h375v370H0z" data-name="矩形 85"/><g data-name="Phone_flowchart_1"><path fill="#003232" d="M88.813 330.3v7.7h-1.177l-4.246-5.214V338h-1.419v-7.7h1.177l4.246 5.214V330.3Zm8.393 6.5v1.2h-5.775v-7.7h5.621v1.2h-4.191v2h3.718v1.177h-3.718v2.123Zm4.532 1.31a5.874 5.874 0 0 1-1.721-.253 3.593 3.593 0 0 1-1.317-.671l.495-1.111a3.9 3.9 0 0 0 1.16.61 4.22 4.22 0 0 0 1.381.237 2.386 2.386 0 0 0 1.282-.275.833.833 0 0 0 .424-.726.7.7 0 0 0-.236-.544 1.66 1.66 0 0 0-.6-.336q-.363-.121-.99-.275a11.54 11.54 0 0 1-1.424-.418 2.344 2.344 0 0 1-.935-.655 1.763 1.763 0 0 1-.39-1.2 2.055 2.055 0 0 1 .346-1.161 2.344 2.344 0 0 1 1.045-.83 4.234 4.234 0 0 1 1.711-.308 5.525 5.525 0 0 1 1.386.176 3.831 3.831 0 0 1 1.177.506l-.451 1.111a4.449 4.449 0 0 0-1.056-.451 3.95 3.95 0 0 0-1.067-.154 2.229 2.229 0 0 0-1.259.286.882.882 0 0 0-.412.759.686.686 0 0 0 .236.539 1.709 1.709 0 0 0 .6.33q.363.121.99.275a10.418 10.418 0 0 1 1.408.412 2.411 2.411 0 0 1 .94.655 1.725 1.725 0 0 1 .39 1.188 2.029 2.029 0 0 1-.351 1.151 2.357 2.357 0 0 1-1.05.825 4.274 4.274 0 0 1-1.712.308Zm6.534-6.6h-2.552v-1.21h6.534v1.21H109.7V338h-1.43Zm12.364-1.21a4.263 4.263 0 0 1 1.743.33 2.535 2.535 0 0 1 1.138.946 2.647 2.647 0 0 1 .4 1.463 2.654 2.654 0 0 1-.4 1.457 2.523 2.523 0 0 1-1.138.952 4.263 4.263 0 0 1-1.743.33H118.9V338h-1.43v-7.7Zm-.066 4.268a2.2 2.2 0 0 0 1.419-.4 1.38 1.38 0 0 0 .484-1.133 1.38 1.38 0 0 0-.484-1.133 2.2 2.2 0 0 0-1.419-.4h-1.67v3.058Zm6.446-1.584a2.291 2.291 0 0 1 2.09-.924v1.309a1.746 1.746 0 0 0-.319-.033 1.661 1.661 0 0 0-1.254.468 1.864 1.864 0 0 0-.451 1.347V338h-1.375v-5.874h1.309Zm6.391 5.093a3.333 3.333 0 0 1-1.607-.385 2.807 2.807 0 0 1-1.115-1.072 3.029 3.029 0 0 1-.4-1.556 3 3 0 0 1 .4-1.551 2.819 2.819 0 0 1 1.115-1.068 3.333 3.333 0 0 1 1.606-.385 3.356 3.356 0 0 1 1.617.385 2.819 2.819 0 0 1 1.117 1.067 3 3 0 0 1 .4 1.551 3.029 3.029 0 0 1-.4 1.556 2.807 2.807 0 0 1-1.116 1.073 3.356 3.356 0 0 1-1.617.385Zm0-1.177a1.68 1.68 0 0 0 1.254-.506 1.822 1.822 0 0 0 .495-1.331 1.822 1.822 0 0 0-.495-1.331 1.68 1.68 0 0 0-1.254-.506 1.662 1.662 0 0 0-1.249.506 1.833 1.833 0 0 0-.489 1.331 1.833 1.833 0 0 0 .489 1.331 1.662 1.662 0 0 0 1.249.506Zm8.261-4.84a3.118 3.118 0 0 1 1.535.374 2.7 2.7 0 0 1 1.061 1.056 3.145 3.145 0 0 1 .385 1.573 3.175 3.175 0 0 1-.385 1.578 2.687 2.687 0 0 1-1.064 1.059 3.118 3.118 0 0 1-1.535.374 2.842 2.842 0 0 1-1.105-.209 2.127 2.127 0 0 1-.842-.627V338h-1.309v-8.162h1.375v3a2.309 2.309 0 0 1 .831-.583 2.721 2.721 0 0 1 1.053-.195Zm-.154 4.84a1.662 1.662 0 0 0 1.248-.506 1.833 1.833 0 0 0 .49-1.331 1.833 1.833 0 0 0-.49-1.331 1.662 1.662 0 0 0-1.248-.506 1.768 1.768 0 0 0-.891.225 1.63 1.63 0 0 0-.623.649 1.969 1.969 0 0 0-.231.968 1.969 1.969 0 0 0 .231.963 1.63 1.63 0 0 0 .627.644 1.768 1.768 0 0 0 .887.225Zm7.161-4.84a2.864 2.864 0 0 1 1.986.622 2.4 2.4 0 0 1 .688 1.876V338h-1.3v-.715a1.6 1.6 0 0 1-.721.588 2.816 2.816 0 0 1-1.127.2 2.762 2.762 0 0 1-1.155-.226 1.785 1.785 0 0 1-.764-.627 1.591 1.591 0 0 1-.27-.907 1.555 1.555 0 0 1 .588-1.267 2.923 2.923 0 0 1 1.854-.479h1.518v-.087a1.2 1.2 0 0 0-.368-.946 1.594 1.594 0 0 0-1.094-.334 3.159 3.159 0 0 0-.973.154 2.391 2.391 0 0 0-.808.429l-.539-1a3.338 3.338 0 0 1 1.11-.536 4.943 4.943 0 0 1 1.375-.187Zm-.187 5.016a1.775 1.775 0 0 0 .918-.236 1.287 1.287 0 0 0 .567-.676v-.682h-1.419q-1.188 0-1.188.781a.7.7 0 0 0 .3.594 1.362 1.362 0 0 0 .822.219Zm8.426-5.016a3.118 3.118 0 0 1 1.534.374 2.7 2.7 0 0 1 1.062 1.056 3.145 3.145 0 0 1 .39 1.573 3.175 3.175 0 0 1-.385 1.578 2.687 2.687 0 0 1-1.066 1.059 3.118 3.118 0 0 1-1.534.374 2.842 2.842 0 0 1-1.105-.209 2.127 2.127 0 0 1-.842-.627V338h-1.309v-8.162h1.375v3a2.309 2.309 0 0 1 .83-.583 2.721 2.721 0 0 1 1.05-.195Zm-.154 4.84a1.662 1.662 0 0 0 1.249-.506 1.833 1.833 0 0 0 .49-1.331 1.833 1.833 0 0 0-.49-1.331 1.662 1.662 0 0 0-1.249-.506 1.768 1.768 0 0 0-.891.225 1.63 1.63 0 0 0-.627.644 1.969 1.969 0 0 0-.231.968 1.969 1.969 0 0 0 .231.968 1.63 1.63 0 0 0 .627.644 1.768 1.768 0 0 0 .891.225Zm4.994-4.774h1.375V338h-1.375Zm.693-.968a.883.883 0 0 1-.627-.236.773.773 0 0 1-.253-.589.773.773 0 0 1 .253-.588.883.883 0 0 1 .627-.237.908.908 0 0 1 .627.226.727.727 0 0 1 .253.567.83.83 0 0 1-.247.61.857.857 0 0 1-.633.247Zm3.036-1.32h1.375V338h-1.375Zm3.729 2.288h1.375V338h-1.375Zm.693-.968a.883.883 0 0 1-.627-.236.773.773 0 0 1-.253-.589.773.773 0 0 1 .253-.588.883.883 0 0 1 .627-.237.908.908 0 0 1 .627.226.727.727 0 0 1 .253.567.83.83 0 0 1-.247.61.857.857 0 0 1-.633.247Zm4.851 6.919a5.259 5.259 0 0 1-1.4-.187 3.515 3.515 0 0 1-1.086-.473l.528-1.045a3.4 3.4 0 0 0 .951.424 3.953 3.953 0 0 0 1.095.16q1.232 0 1.232-.649a.434.434 0 0 0-.314-.429 5.413 5.413 0 0 0-1.007-.231 8.166 8.166 0 0 1-1.182-.253 1.815 1.815 0 0 1-.792-.5 1.4 1.4 0 0 1-.336-1 1.565 1.565 0 0 1 .7-1.337 3.179 3.179 0 0 1 1.887-.5 5.444 5.444 0 0 1 1.21.138 3.392 3.392 0 0 1 .99.368l-.532 1.048a3.257 3.257 0 0 0-1.683-.44 1.865 1.865 0 0 0-.918.181.541.541 0 0 0-.314.478.478.478 0 0 0 .336.468 5.332 5.332 0 0 0 1.04.259 8.021 8.021 0 0 1 1.155.253 1.808 1.808 0 0 1 .776.484 1.349 1.349 0 0 1 .324.968 1.532 1.532 0 0 1-.716 1.32 3.371 3.371 0 0 1-1.944.495Zm7.931-.4a1.619 1.619 0 0 1-.589.3 2.65 2.65 0 0 1-.732.1 2.076 2.076 0 0 1-1.5-.506 1.947 1.947 0 0 1-.523-1.471v-2.83h-.968v-1.1h.968v-1.342h1.375v1.342h1.573v1.1h-1.573v2.794a.929.929 0 0 0 .209.655.784.784 0 0 0 .6.225 1.208 1.208 0 0 0 .773-.244Zm1.683-5.551h1.375V338h-1.375Zm.693-.968a.883.883 0 0 1-.627-.236.773.773 0 0 1-.253-.589.773.773 0 0 1 .253-.588.883.883 0 0 1 .627-.237.908.908 0 0 1 .627.226.727.727 0 0 1 .253.567.83.83 0 0 1-.247.61.857.857 0 0 1-.633.247Zm5.731 6.919a3.444 3.444 0 0 1-1.639-.385 2.827 2.827 0 0 1-1.133-1.072 3 3 0 0 1-.407-1.557 2.968 2.968 0 0 1 .407-1.551 2.848 2.848 0 0 1 1.128-1.067 3.435 3.435 0 0 1 1.644-.385 3.168 3.168 0 0 1 1.524.352 2.284 2.284 0 0 1 .982 1.012l-1.054.616a1.677 1.677 0 0 0-.632-.61 1.73 1.73 0 0 0-.831-.2 1.74 1.74 0 0 0-1.276.5 1.8 1.8 0 0 0-.507 1.333 1.806 1.806 0 0 0 .5 1.337 1.735 1.735 0 0 0 1.281.5 1.73 1.73 0 0 0 .831-.2 1.677 1.677 0 0 0 .632-.61l1.056.61a2.38 2.38 0 0 1-1 1.017 3.1 3.1 0 0 1-1.506.36ZM205.8 330.3l-3.357 7.7h-1.408l-3.366-7.7h1.551l2.563 5.94 2.585-5.94Zm1.287 1.826h1.373V338h-1.375Zm.693-.968a.883.883 0 0 1-.627-.236.773.773 0 0 1-.253-.589.773.773 0 0 1 .253-.588.883.883 0 0 1 .627-.237.908.908 0 0 1 .627.226.727.727 0 0 1 .253.567.83.83 0 0 1-.247.61.857.857 0 0 1-.635.247Zm4.345 1.826a2.291 2.291 0 0 1 2.09-.924v1.309a1.746 1.746 0 0 0-.319-.033 1.661 1.661 0 0 0-1.256.464 1.864 1.864 0 0 0-.451 1.347V338h-1.375v-5.874h1.309Zm7.557 4.7a1.619 1.619 0 0 1-.589.3 2.65 2.65 0 0 1-.732.1 2.076 2.076 0 0 1-1.5-.506 1.947 1.947 0 0 1-.525-1.478v-2.83h-.968v-1.1h.968v-1.342h1.375v1.342h1.573v1.1h-1.573v2.794a.929.929 0 0 0 .209.655.784.784 0 0 0 .6.225 1.208 1.208 0 0 0 .78-.244Zm7.37-5.555V338h-1.311v-.748a2.188 2.188 0 0 1-.825.611 2.654 2.654 0 0 1-1.067.215 2.553 2.553 0 0 1-1.849-.655 2.582 2.582 0 0 1-.676-1.942v-3.355h1.375v3.168a1.7 1.7 0 0 0 .357 1.183 1.31 1.31 0 0 0 1.018.391 1.541 1.541 0 0 0 1.171-.457 1.834 1.834 0 0 0 .43-1.311v-2.97Zm4.6-.066a2.864 2.864 0 0 1 1.986.622 2.4 2.4 0 0 1 .688 1.876V338h-1.3v-.715a1.6 1.6 0 0 1-.721.588 2.816 2.816 0 0 1-1.127.2 2.762 2.762 0 0 1-1.158-.222 1.785 1.785 0 0 1-.764-.627 1.591 1.591 0 0 1-.27-.907 1.555 1.555 0 0 1 .588-1.271 2.923 2.923 0 0 1 1.854-.479h1.518v-.087a1.2 1.2 0 0 0-.368-.946 1.594 1.594 0 0 0-1.095-.33 3.159 3.159 0 0 0-.973.154 2.391 2.391 0 0 0-.808.429l-.539-1a3.338 3.338 0 0 1 1.111-.539 4.943 4.943 0 0 1 1.374-.188Zm-.191 5.013a1.775 1.775 0 0 0 .918-.236 1.287 1.287 0 0 0 .567-.676v-.682h-1.419q-1.188 0-1.188.781a.7.7 0 0 0 .3.594 1.362 1.362 0 0 0 .822.219Zm5.17-7.238h1.375V338h-1.375Zm14.52 8.162-.011-5.1-2.53 4.22h-.638l-2.53-4.158V338h-1.364v-7.7h1.177l3.058 5.1 3-5.1h1.177l.01 7.7Zm6.094-5.94a2.864 2.864 0 0 1 1.985.622 2.4 2.4 0 0 1 .688 1.876V338h-1.3v-.715a1.6 1.6 0 0 1-.721.588 2.816 2.816 0 0 1-1.128.2 2.762 2.762 0 0 1-1.155-.226 1.785 1.785 0 0 1-.764-.627 1.591 1.591 0 0 1-.27-.907 1.555 1.555 0 0 1 .589-1.271 2.923 2.923 0 0 1 1.854-.479h1.518v-.083a1.2 1.2 0 0 0-.368-.946 1.594 1.594 0 0 0-1.093-.334 3.159 3.159 0 0 0-.974.154 2.391 2.391 0 0 0-.809.429l-.539-1a3.338 3.338 0 0 1 1.111-.539 4.943 4.943 0 0 1 1.376-.184Zm-.187 5.016a1.775 1.775 0 0 0 .919-.236 1.287 1.287 0 0 0 .566-.676v-.682h-1.419q-1.188 0-1.188.781a.7.7 0 0 0 .3.594 1.362 1.362 0 0 0 .822.219Zm7.92 1a3.444 3.444 0 0 1-1.639-.385 2.827 2.827 0 0 1-1.133-1.071 3 3 0 0 1-.406-1.557 2.968 2.968 0 0 1 .407-1.551 2.848 2.848 0 0 1 1.128-1.067 3.435 3.435 0 0 1 1.645-.385 3.168 3.168 0 0 1 1.523.352 2.284 2.284 0 0 1 .985 1.012l-1.058.616a1.677 1.677 0 0 0-.633-.61 1.73 1.73 0 0 0-.83-.2 1.74 1.74 0 0 0-1.276.5 1.8 1.8 0 0 0-.506 1.337 1.806 1.806 0 0 0 .5 1.336 1.735 1.735 0 0 0 1.282.5 1.73 1.73 0 0 0 .83-.2 1.677 1.677 0 0 0 .633-.61l1.056.616a2.38 2.38 0 0 1-1 1.017 3.1 3.1 0 0 1-1.508.351Zm7.522-6.016a2.455 2.455 0 0 1 1.782.649 2.56 2.56 0 0 1 .671 1.925V338h-1.373v-3.19a1.649 1.649 0 0 0-.363-1.161 1.342 1.342 0 0 0-1.034-.391 1.587 1.587 0 0 0-1.2.457 1.82 1.82 0 0 0-.44 1.315V338h-1.374v-8.162h1.375v2.97a2.237 2.237 0 0 1 .841-.556 3.088 3.088 0 0 1 1.115-.192Zm4.752.066h1.375V338h-1.373Zm.693-.968a.883.883 0 0 1-.627-.236.773.773 0 0 1-.253-.589.773.773 0 0 1 .253-.588.883.883 0 0 1 .627-.237.908.908 0 0 1 .627.226.727.727 0 0 1 .253.567.83.83 0 0 1-.247.61.857.857 0 0 1-.631.247Zm6.369.9a2.455 2.455 0 0 1 1.782.649 2.56 2.56 0 0 1 .671 1.925V338h-1.373v-3.19a1.649 1.649 0 0 0-.363-1.161 1.342 1.342 0 0 0-1.031-.39 1.587 1.587 0 0 0-1.2.457 1.82 1.82 0 0 0-.44 1.315V338h-1.377v-5.874h1.309v.759a2.15 2.15 0 0 1 .858-.616 3.088 3.088 0 0 1 1.166-.209Zm10.331 3.042q0 .143-.022.407h-4.609a1.6 1.6 0 0 0 .632 1.029 2.073 2.073 0 0 0 1.271.379 2.141 2.141 0 0 0 1.6-.638l.737.847a2.483 2.483 0 0 1-1 .715 3.646 3.646 0 0 1-1.364.242 3.63 3.63 0 0 1-1.705-.385 2.773 2.773 0 0 1-1.138-1.072 3.029 3.029 0 0 1-.4-1.556 3.074 3.074 0 0 1 .391-1.546 2.77 2.77 0 0 1 1.083-1.072 3.161 3.161 0 0 1 1.562-.385 3.082 3.082 0 0 1 1.535.379 2.688 2.688 0 0 1 1.056 1.067 3.235 3.235 0 0 1 .371 1.589Zm-2.97-1.936a1.659 1.659 0 0 0-1.117.391 1.643 1.643 0 0 0-.558 1.035h3.333a1.621 1.621 0 0 0-.539-1.034 1.639 1.639 0 0 0-1.119-.396Z" data-name="路径 521"/><path fill="#003232" d="M244.755 294.063a.719.719 0 0 1-.522-.211.718.718 0 0 1-.216-.535.722.722 0 0 1 .212-.54.723.723 0 0 1 .526-.207.723.723 0 0 1 .526.207.722.722 0 0 1 .211.54.718.718 0 0 1-.216.535.719.719 0 0 1-.521.211Zm2.245 0a.719.719 0 0 1-.526-.211.718.718 0 0 1-.216-.536.722.722 0 0 1 .211-.54.723.723 0 0 1 .531-.207.723.723 0 0 1 .527.207.722.722 0 0 1 .211.54.718.718 0 0 1-.216.535.719.719 0 0 1-.522.212Zm2.25 0a.719.719 0 0 1-.522-.211.718.718 0 0 1-.216-.535.722.722 0 0 1 .212-.54.723.723 0 0 1 .526-.207.723.723 0 0 1 .527.207.722.722 0 0 1 .212.54.718.718 0 0 1-.216.535.719.719 0 0 1-.528.211Z" data-name="路径 520"/><path fill="#003232" d="M197.135 304.778h1.107v2.511a3.52 3.52 0 0 1-1.134.594 4.351 4.351 0 0 1-1.332.207 3.593 3.593 0 0 1-1.737-.418 3.109 3.109 0 0 1-1.215-1.157 3.183 3.183 0 0 1-.441-1.665 3.183 3.183 0 0 1 .441-1.665 3.1 3.1 0 0 1 1.219-1.156 3.638 3.638 0 0 1 1.751-.418 3.822 3.822 0 0 1 1.44.261 2.826 2.826 0 0 1 1.089.765l-.738.72a2.367 2.367 0 0 0-1.737-.72 2.454 2.454 0 0 0-1.184.279 2.034 2.034 0 0 0-.81.783 2.253 2.253 0 0 0-.292 1.152 2.218 2.218 0 0 0 .292 1.134 2.1 2.1 0 0 0 .81.792 2.374 2.374 0 0 0 1.175.288 2.534 2.534 0 0 0 1.3-.324Zm4.824-1.638a2.343 2.343 0 0 1 1.624.509 1.966 1.966 0 0 1 .562 1.535V308h-1.061v-.585a1.309 1.309 0 0 1-.59.481 2.3 2.3 0 0 1-.922.167 2.26 2.26 0 0 1-.945-.185 1.46 1.46 0 0 1-.627-.513 1.3 1.3 0 0 1-.22-.742 1.273 1.273 0 0 1 .481-1.04 2.391 2.391 0 0 1 1.517-.391h1.242v-.072a.985.985 0 0 0-.3-.774 1.3 1.3 0 0 0-.9-.27 2.585 2.585 0 0 0-.8.126 1.957 1.957 0 0 0-.661.351l-.441-.819a2.731 2.731 0 0 1 .909-.441 4.045 4.045 0 0 1 1.132-.153Zm-.153 4.1a1.453 1.453 0 0 0 .751-.193 1.053 1.053 0 0 0 .464-.547v-.558h-1.161q-.972 0-.972.639a.574.574 0 0 0 .243.486 1.114 1.114 0 0 0 .675.177Zm10.294-4.1a1.955 1.955 0 0 1 1.44.527 2.134 2.134 0 0 1 .531 1.579V308h-1.123v-2.61a1.407 1.407 0 0 0-.279-.95 1.006 1.006 0 0 0-.8-.319 1.173 1.173 0 0 0-.909.374 1.524 1.524 0 0 0-.343 1.066V308h-1.125v-2.61a1.407 1.407 0 0 0-.279-.95 1.006 1.006 0 0 0-.8-.319 1.177 1.177 0 0 0-.913.369 1.534 1.534 0 0 0-.338 1.071V308h-1.126v-4.806h1.071v.612a1.749 1.749 0 0 1 .675-.5 2.292 2.292 0 0 1 .9-.171 2.174 2.174 0 0 1 .958.2 1.556 1.556 0 0 1 .661.6 2 2 0 0 1 .765-.589 2.484 2.484 0 0 1 1.034-.206Zm8.426 2.484q0 .117-.018.333h-3.771a1.307 1.307 0 0 0 .517.842 1.7 1.7 0 0 0 1.04.31 1.752 1.752 0 0 0 1.306-.522l.6.693a2.032 2.032 0 0 1-.819.585 2.983 2.983 0 0 1-1.116.2 2.97 2.97 0 0 1-1.393-.317 2.269 2.269 0 0 1-.932-.877 2.478 2.478 0 0 1-.328-1.271 2.515 2.515 0 0 1 .319-1.265 2.266 2.266 0 0 1 .887-.878 2.587 2.587 0 0 1 1.282-.317 2.522 2.522 0 0 1 1.255.311 2.2 2.2 0 0 1 .864.873 2.647 2.647 0 0 1 .307 1.3Zm-2.426-1.584a1.357 1.357 0 0 0-.914.319 1.344 1.344 0 0 0-.454.851h2.723a1.326 1.326 0 0 0-.441-.846 1.341 1.341 0 0 0-.914-.324Zm5.238-1.359v1.919h3.042v.99h-3.046V308h-1.17v-6.3h4.6v.981Zm4.815.513h1.125V308h-1.129Zm.567-.792a.723.723 0 0 1-.513-.194.632.632 0 0 1-.207-.481.632.632 0 0 1 .207-.482.723.723 0 0 1 .513-.193.743.743 0 0 1 .513.184.6.6 0 0 1 .207.464.679.679 0 0 1-.2.5.7.7 0 0 1-.524.2Z" data-name="路径 519"/><path fill="#7d7d7d" d="M205.682 294.676a2.481 2.481 0 0 1-1.9-.8 2.816 2.816 0 0 1-.782-1.882q0-.146.018-.328a2.307 2.307 0 0 1 .055-.328l1.532-6.13a2.907 2.907 0 0 1 1.05-1.588 2.816 2.816 0 0 1 1.778-.62h7.115a2.816 2.816 0 0 1 1.779.62 2.907 2.907 0 0 1 1.049 1.587l1.532 6.13q.036.164.064.338a2.163 2.163 0 0 1 .027.338 2.663 2.663 0 0 1-2.7 2.664 2.679 2.679 0 0 1-1.423-.4 2.523 2.523 0 0 1-.985-1.095l-.511-1.058a.549.549 0 0 0-.265-.283.905.905 0 0 0-.392-.082h-3.465a.905.905 0 0 0-.392.082.549.549 0 0 0-.265.283l-.511 1.056a2.523 2.523 0 0 1-.99 1.095 2.679 2.679 0 0 1-1.423.4Zm.055-1.095a1.534 1.534 0 0 0 1.387-.876l.511-1.04a1.775 1.775 0 0 1 1.624-1h3.466a1.757 1.757 0 0 1 .949.274 2 2 0 0 1 .693.73l.511 1.04a1.534 1.534 0 0 0 1.387.876 1.65 1.65 0 0 0 1.113-.429 1.471 1.471 0 0 0 .511-1.122q0-.091-.009-.21a.948.948 0 0 0-.046-.228l-1.534-6.115a1.773 1.773 0 0 0-1.751-1.387h-7.116a1.773 1.773 0 0 0-1.751 1.387l-1.533 6.112q-.018.073-.055.42a1.421 1.421 0 0 0 .511 1.131 1.7 1.7 0 0 0 1.131.438Zm6.349-5.656a.525.525 0 0 1-.383-.164.546.546 0 0 1-.164-.4.5.5 0 0 1 .164-.374.563.563 0 0 1 .4-.155.51.51 0 0 1 .374.155.532.532 0 0 1 .155.392.54.54 0 0 1-.155.383.516.516 0 0 1-.391.164Zm1.46-1.46a.525.525 0 0 1-.383-.164.546.546 0 0 1-.164-.4.5.5 0 0 1 .164-.374.563.563 0 0 1 .4-.155.51.51 0 0 1 .374.155.532.532 0 0 1 .155.392.54.54 0 0 1-.155.383.516.516 0 0 1-.392.164Zm0 2.919a.525.525 0 0 1-.383-.164.546.546 0 0 1-.164-.4.5.5 0 0 1 .164-.374.563.563 0 0 1 .4-.155.51.51 0 0 1 .374.155.532.532 0 0 1 .155.392.54.54 0 0 1-.155.383.516.516 0 0 1-.392.164Zm1.46-1.46a.525.525 0 0 1-.383-.164.546.546 0 0 1-.164-.4.5.5 0 0 1 .164-.374.563.563 0 0 1 .4-.155.51.51 0 0 1 .374.155.532.532 0 0 1 .155.392.54.54 0 0 1-.155.383.516.516 0 0 1-.397.165Zm-6.569 1.188a.468.468 0 0 1-.456-.456v-.821h-.821a.456.456 0 0 1 0-.912h.821v-.823a.456.456 0 0 1 .912 0v.821h.821a.456.456 0 0 1 0 .912h-.821v.821a.468.468 0 0 1-.456.456Z"/><path fill="#003232" d="M166.751 301.7v6.3h-.963l-3.474-4.266V308h-1.161v-6.3h.963l3.474 4.266V301.7Zm3.312.981v1.919h3.037v.99h-3.037V308h-1.17v-6.3h4.6v.981Zm6.337.009h-2.089v-.99h5.346v.99h-2.088V308H176.4Z" data-name="路径 518"/><path fill="#7d7d7d" d="M170 295a5.806 5.806 0 0 1-2.325-.472 6.045 6.045 0 0 1-3.2-3.2 6.024 6.024 0 0 1 .008-4.7 5.977 5.977 0 0 1 1.313-1.9 6.054 6.054 0 0 1 1.95-1.268 6.253 6.253 0 0 1 2.389-.46 6.382 6.382 0 0 1 2.25.4 5.953 5.953 0 0 1 1.867 1.1 5.3 5.3 0 0 1 1.275 1.672A4.771 4.771 0 0 1 176 288.3a3.44 3.44 0 0 1-.945 2.557 3.4 3.4 0 0 1-2.505.938h-1.125a.613.613 0 0 0-.465.21.669.669 0 0 0-.2.465 1.1 1.1 0 0 0 .218.69 1.058 1.058 0 0 1 .217.66 1.171 1.171 0 0 1-.315.877 1.214 1.214 0 0 1-.88.303Zm0-6Zm-3.495.39a.769.769 0 1 0-.525-.225.72.72 0 0 0 .525.225Zm1.895-2.55a.769.769 0 1 0-.525-.225.72.72 0 0 0 .525.225Zm3.21 0a.769.769 0 1 0-.525-.225.72.72 0 0 0 .52.225Zm1.965 2.55a.769.769 0 1 0-.525-.225.72.72 0 0 0 .52.225ZM170 294.1a.323.323 0 0 0 .233-.067.3.3 0 0 0 .068-.217.509.509 0 0 0-.217-.39 1.04 1.04 0 0 1-.218-.8 1.811 1.811 0 0 1 .45-1.215 1.437 1.437 0 0 1 1.14-.525h1.1a2.573 2.573 0 0 0 1.845-.667 2.528 2.528 0 0 0 .699-1.919 3.891 3.891 0 0 0-1.5-3.187 5.367 5.367 0 0 0-3.465-1.213 5.131 5.131 0 0 0-3.712 1.478A4.852 4.852 0 0 0 164.9 289a4.915 4.915 0 0 0 1.492 3.608A4.915 4.915 0 0 0 170 294.1Z"/><path fill="#003232" d="M127.533 301.7h2.754a3.952 3.952 0 0 1 1.791.391 2.9 2.9 0 0 1 1.215 1.109 3.132 3.132 0 0 1 .432 1.65 3.132 3.132 0 0 1-.432 1.65 2.9 2.9 0 0 1-1.215 1.109 3.952 3.952 0 0 1-1.791.391h-2.754Zm2.7 5.31a2.674 2.674 0 0 0 1.22-.266 1.9 1.9 0 0 0 .81-.756 2.234 2.234 0 0 0 .283-1.138 2.234 2.234 0 0 0-.284-1.138 1.9 1.9 0 0 0-.81-.756 2.674 2.674 0 0 0-1.22-.265H128.7v4.319Zm9.594-1.386q0 .117-.018.333h-3.771a1.307 1.307 0 0 0 .518.842 1.7 1.7 0 0 0 1.044.31 1.752 1.752 0 0 0 1.3-.522l.6.693a2.032 2.032 0 0 1-.819.585 2.983 2.983 0 0 1-1.116.2 2.97 2.97 0 0 1-1.392-.317 2.269 2.269 0 0 1-.931-.877 2.478 2.478 0 0 1-.329-1.271 2.515 2.515 0 0 1 .319-1.265 2.266 2.266 0 0 1 .887-.878 2.587 2.587 0 0 1 1.281-.317 2.522 2.522 0 0 1 1.255.311 2.2 2.2 0 0 1 .864.873 2.647 2.647 0 0 1 .308 1.3Zm-2.427-1.584a1.357 1.357 0 0 0-.914.319 1.344 1.344 0 0 0-.455.851h2.725a1.326 1.326 0 0 0-.441-.846 1.341 1.341 0 0 0-.915-.324Zm5.235-1.359v1.919h3.042v.99h-3.042V308h-1.17v-6.3h4.6v.981Zm4.815.513h1.125V308h-1.125Zm.567-.792a.723.723 0 0 1-.517-.193.632.632 0 0 1-.2-.482.632.632 0 0 1 .2-.482.723.723 0 0 1 .513-.193.743.743 0 0 1 .513.184.6.6 0 0 1 .207.464.679.679 0 0 1-.2.5.7.7 0 0 1-.516.2Z" data-name="路径 517"/><path fill="#7d7d7d" d="M133.98 293.2v-5.085h.9v5.085Zm3.63 0v-5.085h.9v5.085ZM132 295v-.9h12v.9Zm9.12-1.8v-5.085h.9v5.085Zm-9.12-5.985v-.8l6-3.42 6 3.42v.8Zm2.01-.9Zm0 0h7.98l-3.99-2.28Z"/><path fill="#01d9ca" fill-rule="evenodd" d="m187.978 275.532-.1.1-3.869-3.873.43-.43 3.253 3.258v-37.581h.615v37.58l3.268-3.274.434.435-3.906 3.908Z"/><path fill="#01d9ca" d="M168.236 227.019V228h-4.725v-6.3h4.6v.981h-3.429v1.638h3.042v.963h-3.042v1.737Zm5.652.981-1.71-2.394-1.692 2.394h-1.332l2.34-3.213-2.214-3.087h1.32l1.611 2.241 1.596-2.241h1.269l-2.2 3.042 2.362 3.258Zm6.606-3.636v.972l-4.149 1.611v-.936l3.1-1.161-3.1-1.161v-.936Zm1.611-1.053h4.149v.9h-4.149Zm0 2.178h4.149v.9h-4.149Zm10.746 1.53V228h-4.725v-6.3h4.6v.981H189.3v1.638h3.038v.963H189.3v1.737Zm2.925-4.338v1.919h3.042v.99h-3.042V228h-1.17v-6.3h4.6v.981Zm6.024 7.065a6.5 6.5 0 0 1-.814-1.9 9.082 9.082 0 0 1-.286-2.312 9.135 9.135 0 0 1 .284-2.317 6.365 6.365 0 0 1 .816-1.895h1.071a7.98 7.98 0 0 0-.806 2 9.126 9.126 0 0 0-.257 2.21 9.126 9.126 0 0 0 .257 2.209 7.98 7.98 0 0 0 .806 2Zm6.531-1.746-1.71-2.394-1.692 2.394H203.6l2.34-3.213-2.217-3.087h1.323l1.611 2.241 1.593-2.241h1.269l-2.2 3.042 2.362 3.258Zm2.069 1.746a8.093 8.093 0 0 0 .81-2.007 8.991 8.991 0 0 0 .261-2.2 8.991 8.991 0 0 0-.261-2.205 8.093 8.093 0 0 0-.81-2.007h1.071a6.243 6.243 0 0 1 .814 1.885 9.172 9.172 0 0 1 .284 2.327 9.067 9.067 0 0 1-.284 2.317 6.5 6.5 0 0 1-.814 1.895Z" data-name="路径 516"/><path fill="#003232" d="M262.3 209.681v1.919h3.042v.99H262.3V215h-1.17v-6.3h4.6v.981Zm9.423.513V215h-1.071v-.612a1.79 1.79 0 0 1-.675.5 2.172 2.172 0 0 1-.877.175 2.089 2.089 0 0 1-1.516-.535 2.113 2.113 0 0 1-.554-1.589v-2.745h1.125v2.592a1.392 1.392 0 0 0 .292.967 1.072 1.072 0 0 0 .833.32 1.261 1.261 0 0 0 .958-.374 1.5 1.5 0 0 0 .356-1.075v-2.43Zm4.653-.054a2.008 2.008 0 0 1 1.458.531 2.094 2.094 0 0 1 .549 1.575V215h-1.125v-2.61a1.349 1.349 0 0 0-.3-.95 1.1 1.1 0 0 0-.846-.319 1.3 1.3 0 0 0-.981.374 1.489 1.489 0 0 0-.36 1.075V215h-1.125v-4.806h1.071v.621a1.759 1.759 0 0 1 .7-.5 2.526 2.526 0 0 1 .955-.175Zm6.134 4.923a2.818 2.818 0 0 1-1.341-.315 2.313 2.313 0 0 1-.927-.877 2.452 2.452 0 0 1-.333-1.271 2.428 2.428 0 0 1 .333-1.269 2.33 2.33 0 0 1 .922-.873 2.81 2.81 0 0 1 1.346-.318 2.592 2.592 0 0 1 1.247.288 1.869 1.869 0 0 1 .806.828l-.864.5a1.372 1.372 0 0 0-.518-.5 1.415 1.415 0 0 0-.681-.162 1.424 1.424 0 0 0-1.043.406 1.469 1.469 0 0 0-.414 1.1 1.478 1.478 0 0 0 .41 1.093 1.42 1.42 0 0 0 1.047.407 1.415 1.415 0 0 0 .679-.167 1.372 1.372 0 0 0 .518-.5l.864.5a1.947 1.947 0 0 1-.814.833 2.54 2.54 0 0 1-1.237.297Zm6.426-.324a1.324 1.324 0 0 1-.481.243 2.168 2.168 0 0 1-.6.081 1.7 1.7 0 0 1-1.223-.414 1.593 1.593 0 0 1-.432-1.206v-2.313h-.792v-.9h.792v-1.1h1.125v1.1h1.287v.9h-1.287v2.286a.76.76 0 0 0 .175.536.642.642 0 0 0 .5.184.988.988 0 0 0 .63-.2Zm1.377-4.545h1.125V215h-1.125Zm.567-.794a.723.723 0 0 1-.513-.194.632.632 0 0 1-.207-.482.632.632 0 0 1 .207-.482.723.723 0 0 1 .513-.193.743.743 0 0 1 .513.184.6.6 0 0 1 .207.467.679.679 0 0 1-.2.5.7.7 0 0 1-.52.2Zm4.644 5.663a2.727 2.727 0 0 1-1.314-.315 2.3 2.3 0 0 1-.91-.877 2.478 2.478 0 0 1-.332-1.271 2.454 2.454 0 0 1 .332-1.272 2.306 2.306 0 0 1 .914-.873 2.727 2.727 0 0 1 1.31-.315 2.746 2.746 0 0 1 1.323.315 2.306 2.306 0 0 1 .913.873 2.454 2.454 0 0 1 .329 1.272 2.478 2.478 0 0 1-.329 1.271 2.3 2.3 0 0 1-.913.877 2.746 2.746 0 0 1-1.323.315Zm0-.963a1.375 1.375 0 0 0 1.026-.414 1.491 1.491 0 0 0 .405-1.086 1.491 1.491 0 0 0-.405-1.092 1.375 1.375 0 0 0-1.026-.414 1.36 1.36 0 0 0-1.024.414 1.5 1.5 0 0 0-.4 1.092 1.5 1.5 0 0 0 .4 1.089 1.36 1.36 0 0 0 1.024.411Zm6.822-3.96a2.008 2.008 0 0 1 1.458.531 2.1 2.1 0 0 1 .549 1.575V215h-1.125v-2.61a1.349 1.349 0 0 0-.3-.95 1.1 1.1 0 0 0-.846-.319 1.3 1.3 0 0 0-.981.374 1.489 1.489 0 0 0-.36 1.075V215h-1.122v-4.806h1.071v.621a1.759 1.759 0 0 1 .7-.5 2.526 2.526 0 0 1 .956-.175Zm12.528-1.44v6.3h-.963l-3.474-4.266V215h-1.161v-6.3h.963l3.474 4.266V208.7Z" data-name="路径 515"/><path fill="#7d7d7d" d="m284.526 194.461 1.444.613q.245-.49.524-.967t.593-.913l-1.077-.217Zm2.1 1.1 1.812 1.812a10.707 10.707 0 0 0 1.457-.8 7.083 7.083 0 0 0 1.1-.872 7.664 7.664 0 0 0 1.621-2.261 6.819 6.819 0 0 0 .559-2.613 6.819 6.819 0 0 0-2.615.558 7.664 7.664 0 0 0-2.261 1.619 7.083 7.083 0 0 0-.872 1.1 10.707 10.707 0 0 0-.8 1.457Zm3.117-1.304a.971.971 0 1 1 .674.272.916.916 0 0 1-.674-.272Zm-.2 5.217 1.485-1.485-.218-1.076q-.436.313-.913.593t-.967.524Zm4.441-9.453a7.875 7.875 0 0 1-.463 3.378 8.28 8.28 0 0 1-1.934 2.874l-.027.027-.027.027.3 1.5a.774.774 0 0 1-.02.4.841.841 0 0 1-.211.341l-2.329 2.343-1.158-2.7-2.323-2.319-2.7-1.158 2.346-2.329a.841.841 0 0 1 .341-.211.774.774 0 0 1 .4-.02l1.5.3a.107.107 0 0 1 .027-.02.107.107 0 0 0 .027-.02 8.366 8.366 0 0 1 2.874-1.941 7.806 7.806 0 0 1 3.378-.47Zm-9.976 7.519a1.608 1.608 0 0 1 1.165-.484 1.605 1.605 0 0 1 1.635 1.635 1.608 1.608 0 0 1-.484 1.165 2.658 2.658 0 0 1-1.1.586 14.844 14.844 0 0 1-2.227.436 15.906 15.906 0 0 1 .429-2.234 2.607 2.607 0 0 1 .582-1.104Zm.572.586a1.8 1.8 0 0 0-.341.64 6.85 6.85 0 0 0-.259 1.117 6.85 6.85 0 0 0 1.118-.256 1.8 1.8 0 0 0 .64-.341.766.766 0 0 0 .266-.579.816.816 0 0 0-.845-.845.766.766 0 0 0-.579.266Z"/><path fill="#003232" d="M244.755 203.063a.719.719 0 0 1-.522-.211.718.718 0 0 1-.216-.535.722.722 0 0 1 .212-.54.723.723 0 0 1 .526-.207.723.723 0 0 1 .526.207.722.722 0 0 1 .211.54.718.718 0 0 1-.216.535.719.719 0 0 1-.521.211Zm2.245 0a.719.719 0 0 1-.526-.211.718.718 0 0 1-.216-.536.722.722 0 0 1 .211-.54.723.723 0 0 1 .531-.207.723.723 0 0 1 .527.207.722.722 0 0 1 .211.54.718.718 0 0 1-.216.535.719.719 0 0 1-.522.212Zm2.25 0a.719.719 0 0 1-.522-.211.718.718 0 0 1-.216-.535.722.722 0 0 1 .212-.54.723.723 0 0 1 .526-.207.723.723 0 0 1 .527.207.722.722 0 0 1 .212.54.718.718 0 0 1-.216.535.719.719 0 0 1-.528.211Z" data-name="路径 514"/><path fill="#003232" d="M178.67 209.681v1.919h3.042v.99h-3.042V215h-1.17v-6.3h4.6v.981Zm9.423.513V215h-1.071v-.612a1.79 1.79 0 0 1-.675.5 2.172 2.172 0 0 1-.873.176 2.089 2.089 0 0 1-1.516-.535 2.113 2.113 0 0 1-.558-1.59v-2.745h1.125v2.592a1.392 1.392 0 0 0 .292.967 1.072 1.072 0 0 0 .833.32 1.261 1.261 0 0 0 .958-.374 1.5 1.5 0 0 0 .356-1.075v-2.43Zm4.653-.054a2.008 2.008 0 0 1 1.454.531 2.094 2.094 0 0 1 .549 1.575V215h-1.125v-2.61a1.349 1.349 0 0 0-.3-.95 1.1 1.1 0 0 0-.846-.319 1.3 1.3 0 0 0-.981.374 1.489 1.489 0 0 0-.36 1.075V215h-1.125v-4.806h1.071v.621a1.759 1.759 0 0 1 .7-.5 2.526 2.526 0 0 1 .962-.175Zm6.138 4.923a2.818 2.818 0 0 1-1.341-.315 2.313 2.313 0 0 1-.927-.877 2.452 2.452 0 0 1-.333-1.271 2.428 2.428 0 0 1 .333-1.269 2.33 2.33 0 0 1 .922-.873 2.81 2.81 0 0 1 1.346-.318 2.592 2.592 0 0 1 1.247.288 1.869 1.869 0 0 1 .806.828l-.864.5a1.372 1.372 0 0 0-.518-.5 1.415 1.415 0 0 0-.679-.167 1.424 1.424 0 0 0-1.045.411 1.469 1.469 0 0 0-.414 1.1 1.478 1.478 0 0 0 .41 1.093 1.42 1.42 0 0 0 1.048.407 1.415 1.415 0 0 0 .679-.167 1.372 1.372 0 0 0 .518-.5l.864.5a1.947 1.947 0 0 1-.814.833 2.54 2.54 0 0 1-1.238.297Zm6.425-.324a1.324 1.324 0 0 1-.481.243 2.168 2.168 0 0 1-.6.081 1.7 1.7 0 0 1-1.223-.414 1.593 1.593 0 0 1-.432-1.206v-2.313h-.792v-.9h.792v-1.1h1.127v1.1h1.285v.9H203.7v2.286a.76.76 0 0 0 .171.536.642.642 0 0 0 .5.184.988.988 0 0 0 .63-.2Zm1.377-4.545h1.125V215h-1.125Zm.567-.794a.723.723 0 0 1-.513-.194.632.632 0 0 1-.207-.482.632.632 0 0 1 .207-.482.723.723 0 0 1 .513-.193.743.743 0 0 1 .513.184.6.6 0 0 1 .207.464.679.679 0 0 1-.2.5.7.7 0 0 1-.52.203Zm4.647 5.663a2.727 2.727 0 0 1-1.316-.315 2.3 2.3 0 0 1-.914-.877 2.478 2.478 0 0 1-.328-1.271 2.454 2.454 0 0 1 .328-1.272 2.306 2.306 0 0 1 .914-.873 2.727 2.727 0 0 1 1.316-.315 2.746 2.746 0 0 1 1.323.315 2.306 2.306 0 0 1 .913.873 2.454 2.454 0 0 1 .326 1.272 2.478 2.478 0 0 1-.328 1.273 2.3 2.3 0 0 1-.913.877 2.746 2.746 0 0 1-1.321.313Zm0-.963a1.375 1.375 0 0 0 1.026-.414 1.491 1.491 0 0 0 .403-1.086 1.491 1.491 0 0 0-.405-1.089 1.375 1.375 0 0 0-1.024-.417 1.36 1.36 0 0 0-1.021.414 1.5 1.5 0 0 0-.4 1.089 1.5 1.5 0 0 0 .4 1.089 1.36 1.36 0 0 0 1.021.414Zm6.82-3.96a2.008 2.008 0 0 1 1.458.531 2.1 2.1 0 0 1 .549 1.575V215H219.6v-2.61a1.349 1.349 0 0 0-.3-.95 1.1 1.1 0 0 0-.846-.319 1.3 1.3 0 0 0-.981.374 1.489 1.489 0 0 0-.36 1.075V215h-1.12v-4.806h1.071v.621a1.759 1.759 0 0 1 .7-.5 2.526 2.526 0 0 1 .956-.175Zm9.846 4.95a3.548 3.548 0 0 1-1.724-.418 3.085 3.085 0 0 1-1.206-1.157 3.208 3.208 0 0 1-.436-1.665 3.183 3.183 0 0 1 .441-1.665 3.117 3.117 0 0 1 1.211-1.156 3.548 3.548 0 0 1 1.723-.418 3.6 3.6 0 0 1 1.413.27 2.882 2.882 0 0 1 1.08.783l-.756.711a2.2 2.2 0 0 0-1.683-.738 2.36 2.36 0 0 0-1.161.284 2.042 2.042 0 0 0-.8.787 2.262 2.262 0 0 0-.288 1.143 2.262 2.262 0 0 0 .288 1.143 2.042 2.042 0 0 0 .8.788 2.36 2.36 0 0 0 1.161.283 2.193 2.193 0 0 0 1.683-.747l.756.72a2.874 2.874 0 0 1-1.084.783 3.628 3.628 0 0 1-1.418.269Z" data-name="路径 513"/><path fill="#7d7d7d" d="m200.526 194.461 1.444.613q.245-.49.524-.967t.593-.913l-1.077-.217Zm2.1 1.1 1.812 1.812a10.707 10.707 0 0 0 1.457-.8 7.083 7.083 0 0 0 1.1-.872 7.664 7.664 0 0 0 1.621-2.261 6.819 6.819 0 0 0 .559-2.613 6.819 6.819 0 0 0-2.615.558 7.664 7.664 0 0 0-2.261 1.619 7.083 7.083 0 0 0-.872 1.1 10.707 10.707 0 0 0-.8 1.457Zm3.117-1.304a.971.971 0 1 1 .674.272.916.916 0 0 1-.674-.272Zm-.2 5.217 1.485-1.485-.218-1.076q-.436.313-.913.593t-.967.524Zm4.441-9.453a7.875 7.875 0 0 1-.463 3.378 8.28 8.28 0 0 1-1.934 2.874l-.027.027-.027.027.3 1.5a.774.774 0 0 1-.02.4.841.841 0 0 1-.211.341l-2.329 2.343-1.158-2.7-2.323-2.319-2.7-1.158 2.346-2.329a.841.841 0 0 1 .341-.211.774.774 0 0 1 .4-.02l1.5.3a.107.107 0 0 1 .027-.02.107.107 0 0 0 .027-.02 8.366 8.366 0 0 1 2.874-1.941 7.806 7.806 0 0 1 3.378-.47Zm-9.976 7.519a1.608 1.608 0 0 1 1.165-.484 1.605 1.605 0 0 1 1.635 1.635 1.608 1.608 0 0 1-.484 1.165 2.658 2.658 0 0 1-1.1.586 14.844 14.844 0 0 1-2.227.436 15.906 15.906 0 0 1 .429-2.234 2.607 2.607 0 0 1 .582-1.104Zm.572.586a1.8 1.8 0 0 0-.341.64 6.85 6.85 0 0 0-.259 1.117 6.85 6.85 0 0 0 1.118-.256 1.8 1.8 0 0 0 .64-.341.766.766 0 0 0 .266-.579.816.816 0 0 0-.845-.845.766.766 0 0 0-.579.266Z" data-name="icon_Function"/><path fill="#003232" d="M112.517 209.681v1.919h3.042v.99h-3.042V215h-1.17v-6.3h4.6v.981Zm9.423.513V215h-1.071v-.612a1.79 1.79 0 0 1-.675.5 2.172 2.172 0 0 1-.873.176 2.089 2.089 0 0 1-1.521-.536 2.113 2.113 0 0 1-.554-1.589v-2.745h1.125v2.592a1.392 1.392 0 0 0 .292.967 1.072 1.072 0 0 0 .833.32 1.261 1.261 0 0 0 .958-.374 1.5 1.5 0 0 0 .356-1.075v-2.43Zm4.653-.054a2.008 2.008 0 0 1 1.458.531 2.094 2.094 0 0 1 .549 1.575V215h-1.125v-2.61a1.349 1.349 0 0 0-.3-.95 1.1 1.1 0 0 0-.846-.319 1.3 1.3 0 0 0-.981.374 1.489 1.489 0 0 0-.36 1.075V215h-1.125v-4.806h1.071v.621a1.759 1.759 0 0 1 .7-.5 2.526 2.526 0 0 1 .958-.175Zm6.138 4.923a2.818 2.818 0 0 1-1.341-.315 2.313 2.313 0 0 1-.927-.877 2.452 2.452 0 0 1-.333-1.271 2.428 2.428 0 0 1 .333-1.269 2.33 2.33 0 0 1 .922-.873 2.81 2.81 0 0 1 1.346-.318 2.592 2.592 0 0 1 1.247.288 1.869 1.869 0 0 1 .806.828l-.864.5a1.372 1.372 0 0 0-.518-.5 1.415 1.415 0 0 0-.679-.167 1.424 1.424 0 0 0-1.045.411 1.469 1.469 0 0 0-.414 1.1 1.478 1.478 0 0 0 .41 1.093 1.42 1.42 0 0 0 1.048.407 1.415 1.415 0 0 0 .678-.167 1.372 1.372 0 0 0 .518-.5l.864.5a1.947 1.947 0 0 1-.814.833 2.54 2.54 0 0 1-1.237.297Zm6.425-.324a1.324 1.324 0 0 1-.481.243 2.168 2.168 0 0 1-.6.081 1.7 1.7 0 0 1-1.223-.414 1.593 1.593 0 0 1-.432-1.206v-2.313h-.792v-.9h.792v-1.1h1.125v1.1h1.287v.9h-1.287v2.286a.76.76 0 0 0 .171.536.642.642 0 0 0 .5.184.988.988 0 0 0 .63-.2Zm1.377-4.545h1.125V215h-1.125Zm.567-.794a.723.723 0 0 1-.513-.194.632.632 0 0 1-.207-.482.632.632 0 0 1 .207-.482.723.723 0 0 1 .513-.19.743.743 0 0 1 .513.184.6.6 0 0 1 .207.464.679.679 0 0 1-.2.5.7.7 0 0 1-.52.2Zm4.645 5.663a2.727 2.727 0 0 1-1.314-.315 2.3 2.3 0 0 1-.914-.877 2.478 2.478 0 0 1-.328-1.271 2.454 2.454 0 0 1 .328-1.269 2.306 2.306 0 0 1 .914-.873 2.727 2.727 0 0 1 1.314-.318 2.746 2.746 0 0 1 1.323.315 2.306 2.306 0 0 1 .913.873 2.454 2.454 0 0 1 .328 1.272 2.478 2.478 0 0 1-.328 1.273 2.3 2.3 0 0 1-.913.877 2.746 2.746 0 0 1-1.323.313Zm0-.963a1.375 1.375 0 0 0 1.026-.414 1.491 1.491 0 0 0 .405-1.086 1.491 1.491 0 0 0-.405-1.089 1.375 1.375 0 0 0-1.026-.414 1.36 1.36 0 0 0-1.021.414 1.5 1.5 0 0 0-.4 1.089 1.5 1.5 0 0 0 .4 1.089 1.36 1.36 0 0 0 1.021.411Zm6.822-3.96a2.008 2.008 0 0 1 1.458.531 2.1 2.1 0 0 1 .549 1.575V215h-1.125v-2.61a1.349 1.349 0 0 0-.3-.95 1.1 1.1 0 0 0-.846-.319 1.3 1.3 0 0 0-.981.374 1.489 1.489 0 0 0-.36 1.075V215h-1.122v-4.806h1.071v.621a1.759 1.759 0 0 1 .7-.5 2.526 2.526 0 0 1 .956-.175Zm11.394 1.584a1.662 1.662 0 0 1 .828.572 1.59 1.59 0 0 1 .306.994 1.457 1.457 0 0 1-.63 1.265 3.166 3.166 0 0 1-1.836.445H159.5v-6.3h2.952a2.9 2.9 0 0 1 1.719.437 1.4 1.4 0 0 1 .6 1.2 1.578 1.578 0 0 1-.216.828 1.479 1.479 0 0 1-.594.559Zm-3.294-2.106v1.737h1.656a1.683 1.683 0 0 0 .94-.221.726.726 0 0 0 .329-.643.735.735 0 0 0-.329-.653 1.683 1.683 0 0 0-.94-.22Zm1.89 4.464q1.359 0 1.359-.909t-1.359-.909h-1.89v1.818Z" data-name="路径 512"/><path fill="#7d7d7d" d="m134.526 194.461 1.444.613q.245-.49.524-.967t.593-.913l-1.077-.217Zm2.1 1.1 1.812 1.812a10.707 10.707 0 0 0 1.457-.8 7.083 7.083 0 0 0 1.1-.872 7.664 7.664 0 0 0 1.621-2.261 6.819 6.819 0 0 0 .559-2.613 6.819 6.819 0 0 0-2.615.558 7.664 7.664 0 0 0-2.261 1.619 7.083 7.083 0 0 0-.872 1.1 10.707 10.707 0 0 0-.8 1.457Zm3.117-1.304a.971.971 0 1 1 .674.272.916.916 0 0 1-.674-.272Zm-.2 5.217 1.485-1.485-.218-1.076q-.436.313-.913.593t-.967.524Zm4.441-9.453a7.875 7.875 0 0 1-.463 3.378 8.28 8.28 0 0 1-1.934 2.874l-.027.027-.027.027.3 1.5a.774.774 0 0 1-.02.4.841.841 0 0 1-.211.341l-2.329 2.343-1.158-2.7-2.323-2.319-2.7-1.158 2.346-2.329a.841.841 0 0 1 .341-.211.774.774 0 0 1 .4-.02l1.5.3a.107.107 0 0 1 .027-.02.107.107 0 0 0 .027-.02 8.366 8.366 0 0 1 2.874-1.941 7.806 7.806 0 0 1 3.378-.47Zm-9.976 7.519a1.608 1.608 0 0 1 1.165-.484 1.605 1.605 0 0 1 1.635 1.635 1.608 1.608 0 0 1-.484 1.165 2.658 2.658 0 0 1-1.1.586 14.844 14.844 0 0 1-2.227.436 15.906 15.906 0 0 1 .429-2.234 2.607 2.607 0 0 1 .582-1.104Zm.572.586a1.8 1.8 0 0 0-.341.64 6.85 6.85 0 0 0-.259 1.117 6.85 6.85 0 0 0 1.118-.256 1.8 1.8 0 0 0 .64-.341.766.766 0 0 0 .266-.579.816.816 0 0 0-.845-.845.766.766 0 0 0-.579.266Z" data-name="icon_Function"/><path fill="#003232" d="M46.57 209.681v1.919h3.042v.99H46.57V215H45.4v-6.3H50v.981Zm9.423.513V215h-1.071v-.612a1.79 1.79 0 0 1-.675.5 2.172 2.172 0 0 1-.873.176 2.089 2.089 0 0 1-1.516-.535 2.113 2.113 0 0 1-.558-1.59v-2.745h1.125v2.592a1.392 1.392 0 0 0 .292.967 1.072 1.072 0 0 0 .833.32 1.261 1.261 0 0 0 .958-.374 1.5 1.5 0 0 0 .356-1.075v-2.43Zm4.653-.054a2.008 2.008 0 0 1 1.454.531 2.094 2.094 0 0 1 .549 1.575V215h-1.125v-2.61a1.349 1.349 0 0 0-.3-.95 1.1 1.1 0 0 0-.846-.319 1.3 1.3 0 0 0-.981.374 1.489 1.489 0 0 0-.36 1.075V215h-1.125v-4.806h1.071v.621a1.759 1.759 0 0 1 .7-.5 2.526 2.526 0 0 1 .963-.175Zm6.138 4.923a2.818 2.818 0 0 1-1.341-.315 2.313 2.313 0 0 1-.927-.877 2.452 2.452 0 0 1-.333-1.271 2.428 2.428 0 0 1 .333-1.269 2.33 2.33 0 0 1 .922-.873 2.81 2.81 0 0 1 1.346-.318 2.592 2.592 0 0 1 1.247.288 1.869 1.869 0 0 1 .806.828l-.864.5a1.372 1.372 0 0 0-.518-.5 1.415 1.415 0 0 0-.679-.167 1.424 1.424 0 0 0-1.045.411 1.469 1.469 0 0 0-.414 1.1 1.478 1.478 0 0 0 .41 1.093 1.42 1.42 0 0 0 1.048.407 1.415 1.415 0 0 0 .679-.167 1.372 1.372 0 0 0 .518-.5l.864.5a1.947 1.947 0 0 1-.814.833 2.54 2.54 0 0 1-1.238.297Zm6.426-.324a1.324 1.324 0 0 1-.481.243 2.168 2.168 0 0 1-.6.081 1.7 1.7 0 0 1-1.223-.414 1.593 1.593 0 0 1-.432-1.206v-2.313h-.792v-.9h.792v-1.1H71.6v1.1h1.286v.9H71.6v2.286a.76.76 0 0 0 .171.536.642.642 0 0 0 .5.184.988.988 0 0 0 .63-.2Zm1.377-4.545h1.125V215h-1.125Zm.567-.794a.723.723 0 0 1-.513-.194.632.632 0 0 1-.207-.482.632.632 0 0 1 .207-.482.723.723 0 0 1 .513-.193.743.743 0 0 1 .513.184.6.6 0 0 1 .207.464.679.679 0 0 1-.2.5.7.7 0 0 1-.52.203Zm4.646 5.663a2.727 2.727 0 0 1-1.316-.315 2.3 2.3 0 0 1-.914-.877 2.478 2.478 0 0 1-.328-1.271 2.454 2.454 0 0 1 .328-1.269 2.306 2.306 0 0 1 .914-.873 2.727 2.727 0 0 1 1.316-.318 2.746 2.746 0 0 1 1.323.315 2.306 2.306 0 0 1 .913.873 2.454 2.454 0 0 1 .327 1.272 2.478 2.478 0 0 1-.328 1.273 2.3 2.3 0 0 1-.913.877 2.746 2.746 0 0 1-1.322.313Zm0-.963a1.375 1.375 0 0 0 1.026-.414 1.491 1.491 0 0 0 .403-1.086 1.491 1.491 0 0 0-.405-1.089 1.375 1.375 0 0 0-1.024-.417 1.36 1.36 0 0 0-1.021.414 1.5 1.5 0 0 0-.4 1.089 1.5 1.5 0 0 0 .4 1.089 1.36 1.36 0 0 0 1.021.414Zm6.822-3.96a2.008 2.008 0 0 1 1.458.531 2.1 2.1 0 0 1 .549 1.575V215H87.5v-2.61a1.349 1.349 0 0 0-.3-.95 1.1 1.1 0 0 0-.846-.319 1.3 1.3 0 0 0-.981.374 1.489 1.489 0 0 0-.36 1.075V215h-1.119v-4.806h1.071v.621a1.759 1.759 0 0 1 .7-.5 2.526 2.526 0 0 1 .956-.175Zm11.016 3.4h-3.15l-.623 1.46H92.66l2.835-6.3h1.152l2.844 6.3h-1.224Zm-.387-.918-1.189-2.752-1.18 2.754Z" data-name="路径 511"/><path fill="#7d7d7d" d="m68.526 194.461 1.444.613q.245-.49.524-.967t.593-.913l-1.077-.217Zm2.1 1.1 1.812 1.812a10.707 10.707 0 0 0 1.457-.8 7.083 7.083 0 0 0 1.1-.872 7.664 7.664 0 0 0 1.621-2.261 6.819 6.819 0 0 0 .559-2.613 6.819 6.819 0 0 0-2.615.558 7.664 7.664 0 0 0-2.261 1.619 7.083 7.083 0 0 0-.872 1.1 10.707 10.707 0 0 0-.8 1.457Zm3.117-1.304a.971.971 0 1 1 .674.272.916.916 0 0 1-.674-.272Zm-.2 5.217 1.485-1.485-.218-1.076q-.436.313-.913.593t-.967.524Zm4.441-9.453a7.875 7.875 0 0 1-.463 3.378 8.28 8.28 0 0 1-1.934 2.874l-.027.027-.027.027.3 1.5a.774.774 0 0 1-.02.4.841.841 0 0 1-.211.341l-2.329 2.343-1.158-2.7-2.323-2.319-2.7-1.158 2.346-2.329a.841.841 0 0 1 .341-.211.774.774 0 0 1 .4-.02l1.5.3a.107.107 0 0 1 .027-.02.107.107 0 0 0 .027-.02 8.366 8.366 0 0 1 2.874-1.941 7.806 7.806 0 0 1 3.378-.47Zm-9.976 7.519a1.608 1.608 0 0 1 1.165-.484 1.605 1.605 0 0 1 1.635 1.635 1.608 1.608 0 0 1-.484 1.165 2.658 2.658 0 0 1-1.1.586 14.844 14.844 0 0 1-2.227.436 15.906 15.906 0 0 1 .429-2.234 2.607 2.607 0 0 1 .582-1.104Zm.572.586a1.8 1.8 0 0 0-.341.64 6.85 6.85 0 0 0-.259 1.117 6.85 6.85 0 0 0 1.118-.256 1.8 1.8 0 0 0 .64-.341.766.766 0 0 0 .266-.579.816.816 0 0 0-.845-.845.766.766 0 0 0-.579.266Z" data-name="icon_Function"/><path fill="#01d9ca" fill-rule="evenodd" d="m187.978 181.532-.1.1-3.869-3.873.43-.43 3.253 3.258v-37.581h.615v37.58l3.268-3.274.434.435-3.906 3.908Z" data-name="about_arrow_icon"/><path fill="#003232" d="M144.593 129.7a3.488 3.488 0 0 1 1.427.27 2.074 2.074 0 0 1 .931.774 2.165 2.165 0 0 1 .324 1.2 2.171 2.171 0 0 1-.324 1.192 2.064 2.064 0 0 1-.931.779 3.488 3.488 0 0 1-1.427.27h-1.422V136H142v-6.3Zm-.054 3.492a1.8 1.8 0 0 0 1.161-.324 1.129 1.129 0 0 0 .4-.927 1.129 1.129 0 0 0-.4-.927 1.8 1.8 0 0 0-1.161-.324h-1.368v2.5Zm5.274-1.3a1.875 1.875 0 0 1 1.71-.756v1.071a1.428 1.428 0 0 0-.261-.027 1.359 1.359 0 0 0-1.026.382 1.525 1.525 0 0 0-.369 1.1V136h-1.125v-4.806h1.071Zm5.229 4.171a2.727 2.727 0 0 1-1.314-.315 2.3 2.3 0 0 1-.913-.877 2.478 2.478 0 0 1-.329-1.271 2.454 2.454 0 0 1 .329-1.269 2.306 2.306 0 0 1 .913-.873 2.727 2.727 0 0 1 1.314-.315 2.746 2.746 0 0 1 1.323.315 2.306 2.306 0 0 1 .913.873 2.454 2.454 0 0 1 .329 1.269 2.478 2.478 0 0 1-.328 1.273 2.3 2.3 0 0 1-.913.877 2.746 2.746 0 0 1-1.324.313Zm0-.963a1.375 1.375 0 0 0 1.026-.414 1.491 1.491 0 0 0 .405-1.086 1.491 1.491 0 0 0-.405-1.089 1.375 1.375 0 0 0-1.026-.414 1.36 1.36 0 0 0-1.021.414 1.5 1.5 0 0 0-.4 1.089 1.5 1.5 0 0 0 .4 1.089 1.36 1.36 0 0 0 1.021.411Zm6.758-3.96a2.551 2.551 0 0 1 1.255.306 2.207 2.207 0 0 1 .869.864 2.573 2.573 0 0 1 .316 1.29 2.6 2.6 0 0 1-.315 1.291 2.2 2.2 0 0 1-.869.869 2.551 2.551 0 0 1-1.256.303 2.325 2.325 0 0 1-.9-.171 1.741 1.741 0 0 1-.688-.513V136h-1.071v-6.678h1.125v2.457a1.889 1.889 0 0 1 .679-.477 2.226 2.226 0 0 1 .855-.162Zm-.125 3.96a1.36 1.36 0 0 0 1.025-.414 1.5 1.5 0 0 0 .4-1.086 1.5 1.5 0 0 0-.4-1.089 1.36 1.36 0 0 0-1.021-.414 1.447 1.447 0 0 0-.729.184 1.333 1.333 0 0 0-.513.527 1.611 1.611 0 0 0-.189.792 1.611 1.611 0 0 0 .189.792 1.333 1.333 0 0 0 .513.527 1.447 1.447 0 0 0 .725.181Zm5.859-3.96a2.343 2.343 0 0 1 1.625.509 1.966 1.966 0 0 1 .563 1.535V136h-1.062v-.585a1.309 1.309 0 0 1-.589.481 2.3 2.3 0 0 1-.923.167 2.26 2.26 0 0 1-.948-.185 1.46 1.46 0 0 1-.625-.513 1.3 1.3 0 0 1-.221-.742 1.273 1.273 0 0 1 .482-1.04 2.391 2.391 0 0 1 1.517-.391h1.247v-.072a.985.985 0 0 0-.3-.774 1.3 1.3 0 0 0-.9-.27 2.585 2.585 0 0 0-.8.126 1.957 1.957 0 0 0-.662.351l-.441-.819a2.731 2.731 0 0 1 .909-.441 4.045 4.045 0 0 1 1.128-.153Zm-.153 4.1a1.453 1.453 0 0 0 .752-.193 1.053 1.053 0 0 0 .467-.547v-.558h-1.161q-.972 0-.972.639a.574.574 0 0 0 .243.486 1.114 1.114 0 0 0 .671.177Zm6.894-4.1a2.551 2.551 0 0 1 1.255.306 2.207 2.207 0 0 1 .869.864 2.573 2.573 0 0 1 .315 1.29 2.6 2.6 0 0 1-.314 1.288 2.2 2.2 0 0 1-.869.869 2.551 2.551 0 0 1-1.255.306 2.325 2.325 0 0 1-.9-.171 1.741 1.741 0 0 1-.688-.513V136h-1.071v-6.678h1.125v2.457a1.889 1.889 0 0 1 .679-.477 2.226 2.226 0 0 1 .854-.162Zm-.126 3.96a1.36 1.36 0 0 0 1.022-.414 1.5 1.5 0 0 0 .4-1.089 1.5 1.5 0 0 0-.4-1.089 1.36 1.36 0 0 0-1.022-.414 1.447 1.447 0 0 0-.729.184 1.333 1.333 0 0 0-.513.527 1.611 1.611 0 0 0-.189.792 1.611 1.611 0 0 0 .189.792 1.333 1.333 0 0 0 .513.527 1.447 1.447 0 0 0 .729.184Zm4.086-3.906h1.125V136h-1.125Zm.565-.794a.723.723 0 0 1-.513-.194.632.632 0 0 1-.207-.482.632.632 0 0 1 .207-.482.723.723 0 0 1 .513-.19.743.743 0 0 1 .513.184.6.6 0 0 1 .207.464.679.679 0 0 1-.2.5.7.7 0 0 1-.52.2Zm2.484-1.08h1.125V136h-1.123Zm3.051 1.872h1.125V136h-1.123Zm.565-.792a.723.723 0 0 1-.513-.194.632.632 0 0 1-.207-.482.632.632 0 0 1 .207-.482.723.723 0 0 1 .513-.19.743.743 0 0 1 .513.184.6.6 0 0 1 .207.464.679.679 0 0 1-.2.5.7.7 0 0 1-.52.2Zm3.973 5.663a4.3 4.3 0 0 1-1.143-.153 2.876 2.876 0 0 1-.891-.387l.432-.855a2.777 2.777 0 0 0 .778.347 3.234 3.234 0 0 0 .9.13q1.008 0 1.008-.531a.355.355 0 0 0-.257-.351 4.429 4.429 0 0 0-.823-.189 6.681 6.681 0 0 1-.967-.207 1.485 1.485 0 0 1-.648-.409 1.144 1.144 0 0 1-.275-.814 1.28 1.28 0 0 1 .567-1.095 2.6 2.6 0 0 1 1.546-.409 4.454 4.454 0 0 1 .99.113 2.776 2.776 0 0 1 .81.3l-.432.855a2.665 2.665 0 0 0-1.377-.36 1.526 1.526 0 0 0-.754.152.443.443 0 0 0-.257.392.391.391 0 0 0 .275.383 4.362 4.362 0 0 0 .85.211 6.562 6.562 0 0 1 .945.207 1.479 1.479 0 0 1 .635.4 1.1 1.1 0 0 1 .266.792 1.253 1.253 0 0 1-.585 1.08 2.758 2.758 0 0 1-1.593.398Zm6.489-.324a1.324 1.324 0 0 1-.481.243 2.169 2.169 0 0 1-.6.081 1.7 1.7 0 0 1-1.223-.414 1.593 1.593 0 0 1-.432-1.206v-2.313h-.792v-.9h.792v-1.1h1.125v1.1h1.287v.9h-1.287v2.286a.76.76 0 0 0 .171.536.642.642 0 0 0 .495.184.988.988 0 0 0 .63-.2Zm1.377-4.545h1.125V136h-1.125Zm.567-.794a.723.723 0 0 1-.513-.194.632.632 0 0 1-.207-.482.632.632 0 0 1 .207-.482.723.723 0 0 1 .513-.193.743.743 0 0 1 .513.184.6.6 0 0 1 .207.464.679.679 0 0 1-.2.5.7.7 0 0 1-.52.203Zm4.689 5.663a2.818 2.818 0 0 1-1.341-.315 2.313 2.313 0 0 1-.927-.877 2.452 2.452 0 0 1-.333-1.271 2.428 2.428 0 0 1 .333-1.269 2.33 2.33 0 0 1 .922-.873 2.81 2.81 0 0 1 1.345-.315 2.592 2.592 0 0 1 1.247.288 1.869 1.869 0 0 1 .805.828l-.864.5a1.372 1.372 0 0 0-.518-.5 1.415 1.415 0 0 0-.679-.167 1.424 1.424 0 0 0-1.044.409 1.469 1.469 0 0 0-.413 1.099 1.478 1.478 0 0 0 .41 1.093 1.42 1.42 0 0 0 1.048.407 1.415 1.415 0 0 0 .679-.167 1.372 1.372 0 0 0 .518-.5l.864.5a1.947 1.947 0 0 1-.814.833 2.54 2.54 0 0 1-1.238.297Zm10.605-1.521h-3.15l-.624 1.458h-1.206l2.835-6.3h1.152l2.844 6.3h-1.224Zm-.387-.918-1.191-2.754-1.179 2.754Zm4.821 2.439a4.3 4.3 0 0 1-1.143-.153 2.876 2.876 0 0 1-.891-.387l.432-.855a2.777 2.777 0 0 0 .778.347 3.234 3.234 0 0 0 .9.13q1.008 0 1.008-.531a.355.355 0 0 0-.257-.351 4.429 4.429 0 0 0-.823-.189 6.681 6.681 0 0 1-.967-.207 1.485 1.485 0 0 1-.648-.409 1.144 1.144 0 0 1-.274-.814 1.28 1.28 0 0 1 .571-1.094 2.6 2.6 0 0 1 1.544-.41 4.454 4.454 0 0 1 .99.113 2.776 2.776 0 0 1 .81.3l-.432.855a2.665 2.665 0 0 0-1.377-.36 1.526 1.526 0 0 0-.755.152.443.443 0 0 0-.257.392.391.391 0 0 0 .274.383 4.362 4.362 0 0 0 .851.211 6.562 6.562 0 0 1 .945.207 1.479 1.479 0 0 1 .635.4 1.1 1.1 0 0 1 .266.792 1.253 1.253 0 0 1-.585 1.08 2.758 2.758 0 0 1-1.595.398Zm5.085 0a4.3 4.3 0 0 1-1.143-.153 2.876 2.876 0 0 1-.891-.387l.432-.855a2.777 2.777 0 0 0 .778.347 3.234 3.234 0 0 0 .9.13q1.008 0 1.008-.531a.355.355 0 0 0-.257-.351 4.429 4.429 0 0 0-.824-.189 6.681 6.681 0 0 1-.967-.207 1.485 1.485 0 0 1-.648-.409 1.144 1.144 0 0 1-.274-.814 1.28 1.28 0 0 1 .567-1.095 2.6 2.6 0 0 1 1.544-.41 4.454 4.454 0 0 1 .99.113 2.776 2.776 0 0 1 .81.3l-.432.855a2.665 2.665 0 0 0-1.377-.36 1.526 1.526 0 0 0-.751.148.443.443 0 0 0-.257.392.391.391 0 0 0 .275.383 4.362 4.362 0 0 0 .85.211 6.562 6.562 0 0 1 .945.207 1.479 1.479 0 0 1 .634.4 1.1 1.1 0 0 1 .266.792 1.253 1.253 0 0 1-.585 1.08 2.758 2.758 0 0 1-1.593.403Zm8.118-2.439q0 .117-.018.333h-3.771a1.307 1.307 0 0 0 .518.842 1.7 1.7 0 0 0 1.034.31 1.752 1.752 0 0 0 1.305-.522l.6.693a2.032 2.032 0 0 1-.819.585 2.983 2.983 0 0 1-1.116.2 2.97 2.97 0 0 1-1.4-.315 2.269 2.269 0 0 1-.931-.877 2.478 2.478 0 0 1-.316-1.273 2.515 2.515 0 0 1 .319-1.265 2.266 2.266 0 0 1 .887-.878 2.587 2.587 0 0 1 1.278-.315 2.522 2.522 0 0 1 1.256.311 2.2 2.2 0 0 1 .864.873 2.647 2.647 0 0 1 .31 1.298Zm-2.43-1.584a1.357 1.357 0 0 0-.914.319 1.344 1.344 0 0 0-.454.851h2.727a1.326 1.326 0 0 0-.441-.846 1.341 1.341 0 0 0-.918-.324Zm6.849 3.7a1.324 1.324 0 0 1-.481.243 2.168 2.168 0 0 1-.6.081 1.7 1.7 0 0 1-1.224-.414 1.593 1.593 0 0 1-.432-1.206v-2.314h-.792v-.9h.792v-1.1h1.125v1.1h1.287v.9h-1.286v2.286a.76.76 0 0 0 .171.536.642.642 0 0 0 .495.184.988.988 0 0 0 .63-.2Z" data-name="路径 510"/><path fill="#7d7d7d" d="M187.565 121.3h.825v-.78a2.507 2.507 0 0 0 1.425-.562 1.561 1.561 0 0 0 .51-1.223 1.783 1.783 0 0 0-.435-1.245 4.183 4.183 0 0 0-1.47-.915 6.437 6.437 0 0 1-1.26-.645.9.9 0 0 1-.39-.765.891.891 0 0 1 .338-.735 1.437 1.437 0 0 1 .922-.27 1.422 1.422 0 0 1 .78.21 1.643 1.643 0 0 1 .555.63l.72-.345a2.134 2.134 0 0 0-.675-.825 2.038 2.038 0 0 0-.99-.36v-.76h-.825v.765a2 2 0 0 0-1.207.562 1.566 1.566 0 0 0-.443 1.133 1.552 1.552 0 0 0 .455 1.17 4.36 4.36 0 0 0 1.35.81 5.209 5.209 0 0 1 1.38.757 1.076 1.076 0 0 1 .375.832.914.914 0 0 1-.4.773 1.638 1.638 0 0 1-1 .292 1.737 1.737 0 0 1-1.042-.33 1.711 1.711 0 0 1-.638-.9l-.765.255a3.141 3.141 0 0 0 .772 1.088 2.8 2.8 0 0 0 1.133.578ZM188 123a5.806 5.806 0 0 1-2.325-.472 6.045 6.045 0 0 1-3.2-3.2 5.993 5.993 0 0 1 0-4.665 6 6 0 0 1 1.29-1.905 6.151 6.151 0 0 1 1.91-1.286 5.993 5.993 0 0 1 4.665 0 5.991 5.991 0 0 1 3.188 3.188 5.993 5.993 0 0 1 0 4.665 6.151 6.151 0 0 1-1.283 1.912 6 6 0 0 1-1.905 1.29A5.843 5.843 0 0 1 188 123Zm0-.9a4.908 4.908 0 0 0 3.615-1.492A4.927 4.927 0 0 0 193.1 117a5.07 5.07 0 0 0-5.1-5.1 4.927 4.927 0 0 0-3.608 1.485A4.908 4.908 0 0 0 182.9 117a4.915 4.915 0 0 0 1.493 3.608A4.915 4.915 0 0 0 188 122.1Zm0-5.1Z"/><path fill="#01d9ca" d="M198.955 83.09a3.593 3.593 0 0 1-1.737-.418A3.1 3.1 0 0 1 196 81.51a3.19 3.19 0 0 1-.441-1.66 3.19 3.19 0 0 1 .441-1.661 3.1 3.1 0 0 1 1.215-1.161 3.593 3.593 0 0 1 1.74-.418 3.593 3.593 0 0 1 1.737.418 3.109 3.109 0 0 1 1.215 1.157 3.183 3.183 0 0 1 .441 1.665 3.183 3.183 0 0 1-.441 1.665 3.109 3.109 0 0 1-1.215 1.156 3.593 3.593 0 0 1-1.737.419Zm0-1.026a2.273 2.273 0 0 0 1.134-.283 2.05 2.05 0 0 0 .792-.792 2.269 2.269 0 0 0 .288-1.139 2.269 2.269 0 0 0-.288-1.138 2.05 2.05 0 0 0-.792-.792 2.273 2.273 0 0 0-1.134-.284 2.273 2.273 0 0 0-1.134.284 2.05 2.05 0 0 0-.792.792 2.269 2.269 0 0 0-.288 1.138 2.269 2.269 0 0 0 .288 1.138 2.051 2.051 0 0 0 .792.792 2.273 2.273 0 0 0 1.134.284Zm10.872.936-.009-4.176-2.07 3.456h-.522l-2.07-3.4V83h-1.116v-6.3h.96l2.5 4.176 2.462-4.176h.963l.009 6.3Zm9.045 0-.009-4.176-2.07 3.456h-.522l-2.071-3.402V83h-1.115v-6.3h.963l2.5 4.176 2.459-4.176h.963l.009 6.3Z" data-name="路径 509"/><path fill="#01d9ca" fill-rule="evenodd" d="m187.978 104.532-.1.1-3.869-3.873.43-.43 3.253 3.258V61.006h.615v42.58l3.268-3.274.434.435-3.906 3.908Z" data-name="about_arrow_icon"/><path fill="#003232" d="M119.645 57.09a4.806 4.806 0 0 1-1.409-.207 2.94 2.94 0 0 1-1.076-.549l.4-.909a3.19 3.19 0 0 0 .95.5 3.453 3.453 0 0 0 1.13.194 1.952 1.952 0 0 0 1.049-.225.682.682 0 0 0 .351-.594.575.575 0 0 0-.193-.446 1.359 1.359 0 0 0-.491-.274q-.3-.1-.81-.225a9.442 9.442 0 0 1-1.165-.342 1.918 1.918 0 0 1-.765-.536 1.442 1.442 0 0 1-.32-.985 1.681 1.681 0 0 1 .284-.95 1.918 1.918 0 0 1 .855-.679 3.464 3.464 0 0 1 1.4-.252 4.52 4.52 0 0 1 1.134.144 3.134 3.134 0 0 1 .963.414l-.369.909a3.64 3.64 0 0 0-.864-.369 3.232 3.232 0 0 0-.873-.126 1.824 1.824 0 0 0-1.03.234.722.722 0 0 0-.338.621.561.561 0 0 0 .193.441 1.4 1.4 0 0 0 .491.27q.3.1.81.225a8.523 8.523 0 0 1 1.152.337 1.973 1.973 0 0 1 .77.536 1.411 1.411 0 0 1 .32.972 1.66 1.66 0 0 1-.284.945 1.928 1.928 0 0 1-.859.675 3.5 3.5 0 0 1-1.406.251Zm6.939-.351a1.324 1.324 0 0 1-.481.243 2.168 2.168 0 0 1-.6.081 1.7 1.7 0 0 1-1.223-.414 1.593 1.593 0 0 1-.432-1.206V53.13h-.792v-.9h.792v-1.1h1.125v1.1h1.287v.9h-1.287v2.286a.76.76 0 0 0 .171.536.642.642 0 0 0 .495.184.988.988 0 0 0 .63-.2Zm3.375.324a2.727 2.727 0 0 1-1.314-.315 2.3 2.3 0 0 1-.913-.877 2.478 2.478 0 0 1-.332-1.271 2.454 2.454 0 0 1 .329-1.269 2.306 2.306 0 0 1 .913-.873 2.727 2.727 0 0 1 1.314-.315 2.746 2.746 0 0 1 1.323.315 2.306 2.306 0 0 1 .913.873 2.454 2.454 0 0 1 .332 1.269 2.478 2.478 0 0 1-.324 1.271 2.3 2.3 0 0 1-.913.877 2.746 2.746 0 0 1-1.328.315Zm0-.963a1.375 1.375 0 0 0 1.026-.414 1.491 1.491 0 0 0 .4-1.089 1.491 1.491 0 0 0-.4-1.089 1.375 1.375 0 0 0-1.026-.414 1.36 1.36 0 0 0-1.021.414 1.5 1.5 0 0 0-.4 1.089 1.5 1.5 0 0 0 .4 1.089 1.36 1.36 0 0 0 1.021.414Zm6.3.963a2.818 2.818 0 0 1-1.341-.315 2.313 2.313 0 0 1-.927-.877 2.452 2.452 0 0 1-.333-1.271 2.428 2.428 0 0 1 .333-1.269 2.33 2.33 0 0 1 .923-.873 2.81 2.81 0 0 1 1.346-.315 2.592 2.592 0 0 1 1.246.288 1.869 1.869 0 0 1 .806.828l-.864.5a1.372 1.372 0 0 0-.518-.5 1.415 1.415 0 0 0-.68-.167 1.424 1.424 0 0 0-1.044.409 1.469 1.469 0 0 0-.414 1.099 1.478 1.478 0 0 0 .408 1.091 1.42 1.42 0 0 0 1.05.409 1.415 1.415 0 0 0 .68-.167 1.372 1.372 0 0 0 .518-.5l.864.5a1.947 1.947 0 0 1-.814.833 2.54 2.54 0 0 1-1.239.297Zm6.156-4.923a2.008 2.008 0 0 1 1.458.531 2.094 2.094 0 0 1 .549 1.575V57H143.3v-2.61a1.349 1.349 0 0 0-.3-.95 1.1 1.1 0 0 0-.846-.319 1.3 1.3 0 0 0-.981.374 1.489 1.489 0 0 0-.36 1.075V57h-1.125v-6.678h1.125v2.43a1.83 1.83 0 0 1 .687-.452 2.527 2.527 0 0 1 .915-.16Zm5.724 0a2.343 2.343 0 0 1 1.625.509 1.966 1.966 0 0 1 .563 1.535V57h-1.062v-.585a1.309 1.309 0 0 1-.59.481 2.3 2.3 0 0 1-.923.167 2.26 2.26 0 0 1-.945-.185 1.46 1.46 0 0 1-.625-.513 1.3 1.3 0 0 1-.221-.742 1.273 1.273 0 0 1 .481-1.04 2.391 2.391 0 0 1 1.517-.391h1.241v-.072a.985.985 0 0 0-.3-.774 1.3 1.3 0 0 0-.9-.27 2.585 2.585 0 0 0-.8.126 1.957 1.957 0 0 0-.662.351l-.441-.819a2.731 2.731 0 0 1 .909-.441 4.045 4.045 0 0 1 1.133-.153Zm-.153 4.1a1.453 1.453 0 0 0 .751-.193 1.053 1.053 0 0 0 .463-.547v-.558h-1.16q-.972 0-.972.639a.574.574 0 0 0 .243.486 1.114 1.114 0 0 0 .675.177Zm5.714.823a4.3 4.3 0 0 1-1.142-.153 2.876 2.876 0 0 1-.891-.387l.432-.855a2.777 2.777 0 0 0 .779.347 3.234 3.234 0 0 0 .9.13q1.008 0 1.008-.531a.355.355 0 0 0-.257-.351 4.429 4.429 0 0 0-.824-.189 6.681 6.681 0 0 1-.967-.207 1.485 1.485 0 0 1-.648-.409 1.144 1.144 0 0 1-.274-.814 1.28 1.28 0 0 1 .571-1.094 2.6 2.6 0 0 1 1.544-.41 4.454 4.454 0 0 1 .99.113 2.776 2.776 0 0 1 .81.3l-.432.855a2.665 2.665 0 0 0-1.377-.36 1.526 1.526 0 0 0-.751.148.443.443 0 0 0-.257.392.391.391 0 0 0 .275.383 4.362 4.362 0 0 0 .85.211 6.562 6.562 0 0 1 .945.207 1.479 1.479 0 0 1 .635.4 1.1 1.1 0 0 1 .265.792 1.253 1.253 0 0 1-.585 1.08 2.758 2.758 0 0 1-1.599.402Zm6.489-.324a1.324 1.324 0 0 1-.481.243 2.169 2.169 0 0 1-.6.081 1.7 1.7 0 0 1-1.224-.414 1.593 1.593 0 0 1-.432-1.206V53.13h-.792v-.9h.792v-1.1h1.125v1.1h1.287v.9h-1.287v2.286a.76.76 0 0 0 .171.536.642.642 0 0 0 .495.184.988.988 0 0 0 .63-.2Zm1.377-4.545h1.125V57h-1.125Zm.567-.792a.723.723 0 0 1-.513-.194.632.632 0 0 1-.207-.482.632.632 0 0 1 .207-.482.723.723 0 0 1 .513-.193.743.743 0 0 1 .513.184.6.6 0 0 1 .207.464.679.679 0 0 1-.2.5.7.7 0 0 1-.519.201Zm4.69 5.661a2.818 2.818 0 0 1-1.341-.315 2.313 2.313 0 0 1-.927-.877 2.452 2.452 0 0 1-.333-1.271 2.428 2.428 0 0 1 .333-1.269 2.33 2.33 0 0 1 .923-.873 2.81 2.81 0 0 1 1.346-.315 2.592 2.592 0 0 1 1.246.288 1.869 1.869 0 0 1 .806.828l-.864.5a1.372 1.372 0 0 0-.517-.5 1.415 1.415 0 0 0-.68-.167 1.424 1.424 0 0 0-1.045.408 1.469 1.469 0 0 0-.414 1.1 1.478 1.478 0 0 0 .41 1.093 1.42 1.42 0 0 0 1.048.407 1.415 1.415 0 0 0 .68-.167 1.372 1.372 0 0 0 .517-.5l.864.5a1.947 1.947 0 0 1-.814.833 2.54 2.54 0 0 1-1.238.297Zm6.516-6.363h1.17V57h-1.17Zm5.94 1.44a2.008 2.008 0 0 1 1.458.531 2.1 2.1 0 0 1 .549 1.575V57h-1.125v-2.61a1.349 1.349 0 0 0-.3-.95 1.1 1.1 0 0 0-.846-.319 1.3 1.3 0 0 0-.981.374 1.489 1.489 0 0 0-.36 1.075V57h-1.125v-4.806h1.071v.621a1.759 1.759 0 0 1 .7-.5 2.526 2.526 0 0 1 .959-.175Zm5.841-.972q-.711 0-.711.774v.288h1.323v.9h-1.287V57h-1.125v-3.87h-.792v-.9h.792v-.306a1.639 1.639 0 0 1 .45-1.224 1.726 1.726 0 0 1 1.269-.445 1.736 1.736 0 0 1 1.017.261l-.315.846a1.075 1.075 0 0 0-.621-.194Zm3.906 5.895a2.727 2.727 0 0 1-1.314-.315 2.3 2.3 0 0 1-.912-.877 2.478 2.478 0 0 1-.33-1.271 2.454 2.454 0 0 1 .33-1.272 2.306 2.306 0 0 1 .913-.873 2.727 2.727 0 0 1 1.313-.315 2.746 2.746 0 0 1 1.323.315 2.306 2.306 0 0 1 .913.873 2.454 2.454 0 0 1 .329 1.272 2.478 2.478 0 0 1-.328 1.273 2.3 2.3 0 0 1-.913.877 2.746 2.746 0 0 1-1.324.313Zm0-.963a1.375 1.375 0 0 0 1.026-.414 1.491 1.491 0 0 0 .405-1.086 1.491 1.491 0 0 0-.405-1.089 1.375 1.375 0 0 0-1.026-.414 1.36 1.36 0 0 0-1.026.411 1.5 1.5 0 0 0-.4 1.092 1.5 1.5 0 0 0 .4 1.086 1.36 1.36 0 0 0 1.026.414Zm5.166-3.2a1.875 1.875 0 0 1 1.708-.76v1.071a1.428 1.428 0 0 0-.261-.027 1.359 1.359 0 0 0-1.026.382 1.525 1.525 0 0 0-.369 1.1V57h-1.123v-4.806h1.071Zm9.18-.756a1.955 1.955 0 0 1 1.44.527 2.134 2.134 0 0 1 .531 1.579V57h-1.125v-2.61a1.407 1.407 0 0 0-.279-.95 1.006 1.006 0 0 0-.8-.319 1.173 1.173 0 0 0-.909.374 1.524 1.524 0 0 0-.342 1.066V57h-1.126v-2.61a1.407 1.407 0 0 0-.279-.95 1.006 1.006 0 0 0-.8-.319 1.177 1.177 0 0 0-.913.369 1.534 1.534 0 0 0-.338 1.071V57h-1.126v-4.806h1.071v.612a1.749 1.749 0 0 1 .675-.5 2.292 2.292 0 0 1 .9-.171 2.174 2.174 0 0 1 .958.2 1.556 1.556 0 0 1 .661.6 2 2 0 0 1 .765-.589 2.484 2.484 0 0 1 1.036-.206Zm5.7 0a2.343 2.343 0 0 1 1.625.509 1.966 1.966 0 0 1 .563 1.535V57h-1.066v-.585a1.309 1.309 0 0 1-.594.485 2.3 2.3 0 0 1-.923.167 2.26 2.26 0 0 1-.945-.185 1.46 1.46 0 0 1-.625-.513 1.3 1.3 0 0 1-.221-.742 1.273 1.273 0 0 1 .482-1.04 2.391 2.391 0 0 1 1.517-.391h1.242v-.076a.985.985 0 0 0-.3-.774 1.3 1.3 0 0 0-.9-.27 2.585 2.585 0 0 0-.8.126 1.957 1.957 0 0 0-.662.351l-.441-.819a2.731 2.731 0 0 1 .909-.441 4.045 4.045 0 0 1 1.136-.153Zm-.153 4.1a1.453 1.453 0 0 0 .752-.193 1.053 1.053 0 0 0 .463-.554v-.558h-1.164q-.972 0-.972.639a.574.574 0 0 0 .243.486 1.114 1.114 0 0 0 .675.18Zm7.119.5a1.324 1.324 0 0 1-.481.243 2.169 2.169 0 0 1-.6.081 1.7 1.7 0 0 1-1.224-.414 1.593 1.593 0 0 1-.433-1.211V53.13h-.792v-.9h.792v-1.1h1.125v1.1h1.287v.9h-1.288v2.286a.76.76 0 0 0 .171.536.642.642 0 0 0 .495.184.988.988 0 0 0 .63-.2Zm1.377-4.545h1.125V57h-1.128Zm.567-.792a.723.723 0 0 1-.513-.194.632.632 0 0 1-.207-.482.632.632 0 0 1 .207-.482.723.723 0 0 1 .513-.193.743.743 0 0 1 .513.184.6.6 0 0 1 .205.46.679.679 0 0 1-.2.5.7.7 0 0 1-.521.2Zm4.641 5.656a2.727 2.727 0 0 1-1.314-.315 2.3 2.3 0 0 1-.913-.877 2.478 2.478 0 0 1-.329-1.271 2.454 2.454 0 0 1 .333-1.272 2.306 2.306 0 0 1 .913-.873 2.727 2.727 0 0 1 1.314-.315 2.746 2.746 0 0 1 1.323.315 2.306 2.306 0 0 1 .913.873 2.454 2.454 0 0 1 .325 1.272 2.478 2.478 0 0 1-.329 1.273 2.3 2.3 0 0 1-.913.877 2.746 2.746 0 0 1-1.323.313Zm0-.963a1.375 1.375 0 0 0 1.026-.414 1.491 1.491 0 0 0 .4-1.089 1.491 1.491 0 0 0-.4-1.089 1.375 1.375 0 0 0-1.026-.414 1.36 1.36 0 0 0-1.021.414 1.5 1.5 0 0 0-.402 1.092 1.5 1.5 0 0 0 .4 1.089 1.36 1.36 0 0 0 1.023.411Zm6.822-3.96a2.008 2.008 0 0 1 1.458.531 2.094 2.094 0 0 1 .549 1.575V57h-1.125v-2.61a1.349 1.349 0 0 0-.3-.95 1.1 1.1 0 0 0-.846-.319 1.3 1.3 0 0 0-.981.374 1.489 1.489 0 0 0-.36 1.075V57h-1.122v-4.806h1.071v.621a1.759 1.759 0 0 1 .7-.5 2.526 2.526 0 0 1 .956-.175Zm8.1-.459V53.6h3.042v.99h-3.042V57h-1.17v-6.3h4.6v.981Zm4.9-1.359h1.125V57h-1.12Zm5.216 6.741a2.727 2.727 0 0 1-1.314-.315 2.3 2.3 0 0 1-.913-.877 2.478 2.478 0 0 1-.334-1.271 2.454 2.454 0 0 1 .329-1.269 2.306 2.306 0 0 1 .913-.873 2.727 2.727 0 0 1 1.314-.315 2.746 2.746 0 0 1 1.323.315 2.306 2.306 0 0 1 .913.873 2.454 2.454 0 0 1 .334 1.269 2.478 2.478 0 0 1-.326 1.271 2.3 2.3 0 0 1-.913.877 2.746 2.746 0 0 1-1.326.315Zm0-.963a1.375 1.375 0 0 0 1.026-.414 1.491 1.491 0 0 0 .4-1.089 1.491 1.491 0 0 0-.4-1.089 1.375 1.375 0 0 0-1.026-.414 1.36 1.36 0 0 0-1.021.414 1.5 1.5 0 0 0-.4 1.089 1.5 1.5 0 0 0 .4 1.089 1.36 1.36 0 0 0 1.021.414Zm11.457-3.906L257.345 57h-1.08l-1.242-3.312-1.26 3.312h-1.08l-1.764-4.806h1.062l1.269 3.546 1.323-3.546h.945l1.3 3.564 1.305-3.564Z" data-name="路径 508"/><path fill="#7d7d7d" d="M185.484 40.844h5.031v-.937h-5.031Zm0-2.656h5.031v-.938h-5.031Zm-1.546 5.312a.961.961 0 0 1-.938-.937V31.938a.961.961 0 0 1 .938-.938h5.641L193 34.422v8.141a.961.961 0 0 1-.937.938Zm5.172-8.656v-2.906h-5.172v10.625h8.125v-7.719Zm-5.172-2.906Z"/></g></svg>