<svg xmlns="http://www.w3.org/2000/svg" width="139.175" height="24" viewBox="0 0 139.175 24">
  <defs>
    <style>
      .cls-1 {
        fill: #878787;
      }
    </style>
  </defs>
  <g id="_7_O_Clock" data-name="7 O&apos;Clock" transform="translate(-0.218 -0.834)">
    <g id="组_2" data-name="组 2" transform="translate(30.018 6.957)">
      <path id="路径_33" data-name="路径 33" class="cls-1" d="M435.208,107.013h7.02v1.835l-3.787,8.666h-2.694l3.976-8.462h-4.515Z" transform="translate(-435.208 -105.862)"/>
      <path id="路径_34" data-name="路径 34" class="cls-1" d="M618.07,117.913a5.39,5.39,0,0,1,0-7.508,5.423,5.423,0,0,1,7.442,0,5.419,5.419,0,0,1-.007,7.508,5.394,5.394,0,0,1-7.435,0Zm5.68-1.617a3.484,3.484,0,0,0,0-4.282,2.813,2.813,0,0,0-3.932,0,3.484,3.484,0,0,0,0,4.282,2.813,2.813,0,0,0,3.932,0Z" transform="translate(-604.125 -107.645)"/>
      <path id="路径_35" data-name="路径 35" class="cls-1" d="M785.537,93.437l-.189-3.219H787.4l-.189,3.219Z" transform="translate(-761.361 -90.218)"/>
      <path id="路径_36" data-name="路径 36" class="cls-1" d="M832.576,117.906a5.381,5.381,0,0,1,0-7.5,5.139,5.139,0,0,1,3.721-1.478,5.253,5.253,0,0,1,3.029.9,4.708,4.708,0,0,1,1.85,2.505H838.2a1.956,1.956,0,0,0-1.864-1.121,2.6,2.6,0,0,0-2.017.8,3.484,3.484,0,0,0,0,4.282,2.6,2.6,0,0,0,2.017.8,1.956,1.956,0,0,0,1.864-1.121h2.971a4.706,4.706,0,0,1-1.85,2.5,5.251,5.251,0,0,1-3.029.9A5.138,5.138,0,0,1,832.576,117.906Z" transform="translate(-803.936 -107.645)"/>
      <path id="路径_37" data-name="路径 37" class="cls-1" d="M1002.191,113.751V102.974h2.49v10.777Z" transform="translate(-963.349 -102.1)"/>
      <path id="路径_38" data-name="路径 38" class="cls-1" d="M1063.162,147.556a3.953,3.953,0,0,1-1.231-3.029,3.9,3.9,0,0,1,1.223-3.007,4.62,4.62,0,0,1,6.051,0,3.907,3.907,0,0,1,1.216,3.007,3.989,3.989,0,0,1-1.209,3.029,4.2,4.2,0,0,1-3.015,1.151A4.278,4.278,0,0,1,1063.162,147.556Zm4.231-1.5a2.125,2.125,0,0,0,.5-1.515,2.061,2.061,0,0,0-.51-1.507,1.641,1.641,0,0,0-1.209-.517,1.618,1.618,0,0,0-1.2.517,2.495,2.495,0,0,0,.015,3.022,1.653,1.653,0,0,0,1.216.524A1.584,1.584,0,0,0,1067.393,146.055Z" transform="translate(-1018.997 -136.953)"/>
      <path id="路径_39" data-name="路径 39" class="cls-1" d="M1201.672,147.571a4.62,4.62,0,0,1,0-6.051,3.952,3.952,0,0,1,2.92-1.129,4.235,4.235,0,0,1,2.52.735,3.5,3.5,0,0,1,1.369,2.1h-2.694a1.184,1.184,0,0,0-1.143-.728,1.334,1.334,0,0,0-1.18.561,3.024,3.024,0,0,0,0,2.956,1.283,1.283,0,0,0,1.129.561,1.4,1.4,0,0,0,.728-.16,1.347,1.347,0,0,0,.466-.568h2.694a3.614,3.614,0,0,1-1.384,2.083,4.108,4.108,0,0,1-2.505.772A3.937,3.937,0,0,1,1201.672,147.571Z" transform="translate(-1148.113 -136.954)"/>
      <path id="路径_40" data-name="路径 40" class="cls-1" d="M1339.3,113.751h-2.49V102.974h2.49v6.044l2.52-3.393h3.35l-3.481,4.151,3.481,3.976h-3.306L1339.3,110.5v3.248Z" transform="translate(-1275.048 -102.1)"/>
      <path id="路径_41" data-name="路径 41" class="cls-1" d="M1539.415,111.052h2.49v8.331h3.1v1.893h-5.593Z" transform="translate(-1463.77 -109.625)"/>
      <path id="路径_42" data-name="路径 42" class="cls-1" d="M1633.607,147.542a4.684,4.684,0,0,1,0-5.979,3.437,3.437,0,0,1,2.629-1.172,2.759,2.759,0,0,1,2.381,1.151v-1.063h2.49v8.127h-2.49v-1.18a2.816,2.816,0,0,1-2.418,1.282A3.407,3.407,0,0,1,1633.607,147.542Zm4.471-1.515a1.978,1.978,0,0,0,.539-1.486,1.953,1.953,0,0,0-.539-1.478,1.732,1.732,0,0,0-2.476.007,1.977,1.977,0,0,0-.539,1.486,1.952,1.952,0,0,0,.539,1.478,1.732,1.732,0,0,0,2.476-.007Z" transform="translate(-1550.505 -136.954)"/>
      <path id="路径_43" data-name="路径 43" class="cls-1" d="M1792.126,106.687a2.758,2.758,0,0,1,2.381-1.151,3.437,3.437,0,0,1,2.629,1.172,4.684,4.684,0,0,1,0,5.979,3.422,3.422,0,0,1-2.607,1.165,2.757,2.757,0,0,1-2.4-1.282v1.18h-2.49V102.973h2.49Zm3.015,4.493a1.953,1.953,0,0,0,.539-1.478,1.978,1.978,0,0,0-.539-1.486,1.732,1.732,0,0,0-2.476-.007,1.952,1.952,0,0,0-.539,1.478,1.977,1.977,0,0,0,.539,1.486,1.732,1.732,0,0,0,2.476.007Z" transform="translate(-1696.849 -102.099)"/>
      <path id="路径_44" data-name="路径 44" class="cls-1" d="M1929.751,142.924a2.222,2.222,0,0,1,.917-1.806,3.887,3.887,0,0,1,2.483-.728,4.137,4.137,0,0,1,2.527.714,2.455,2.455,0,0,1,1.02,1.952h-2.549a.715.715,0,0,0-.291-.575,1.439,1.439,0,0,0-.743-.153q-.976,0-.976.6,0,.539,1.194.743a9.726,9.726,0,0,1,2.2.626,1.906,1.906,0,0,1,1.194,1.835,2.214,2.214,0,0,1-.976,1.857,4.031,4.031,0,0,1-2.461.721,4.287,4.287,0,0,1-2.476-.677,2.481,2.481,0,0,1-1.078-2h2.549q.1.743,1.049.743a1.2,1.2,0,0,0,.721-.2.62.62,0,0,0,.284-.524q0-.32-.473-.51a6.45,6.45,0,0,0-1.143-.32q-.67-.131-1.347-.328a2.569,2.569,0,0,1-1.151-.685A1.752,1.752,0,0,1,1929.751,142.924Z" transform="translate(-1827.352 -136.953)"/>
    </g>
    <g id="组_5" data-name="组 5" transform="translate(0.218 0.834)">
      <path id="路径_45" data-name="路径 45" class="cls-1" d="M8.111,20.912a9.059,9.059,0,1,1,6.234.737l-1.622,3.185A12,12,0,0,0,20.712,4.35a12.006,12.006,0,1,0-11.149,20.2" transform="translate(-0.218 -0.834)"/>
      <g id="组_4" data-name="组 4" transform="translate(6.549 7.557)">
        <g id="组_3" data-name="组 3">
          <path id="路径_46" data-name="路径 46" class="cls-1" d="M95.815,126.292q.384.2.784.365a11.924,11.924,0,0,0,2.013.649l8.229-16.158H96.363v2.944h5.674l-4.878,9.577" transform="translate(-95.815 -111.148)"/>
        </g>
      </g>
      <path id="路径_47" data-name="路径 47" class="cls-1" d="M191.3,176.075a9.077,9.077,0,0,1-6.94,8.81l-1.622,3.185a12,12,0,0,0,11.506-11.995" transform="translate(-170.237 -164.07)"/>
    </g>
  </g>
</svg>
