<svg xmlns="http://www.w3.org/2000/svg" width="48" height="48" viewBox="0 0 48 48">
  <defs>
    <style>
      .cls-1, .cls-2 {
        fill: #eaaa00;
      }

      .cls-1 {
        stroke: #000;
        opacity: 0.2;
      }

      .cls-3 {
        stroke: none;
      }

      .cls-4 {
        fill: none;
      }
    </style>
  </defs>
  <g id="ACCURACY_icon" transform="translate(-243 -289)">
    <g id="椭圆_8" data-name="椭圆 8" class="cls-1" transform="translate(243 289)">
      <circle class="cls-3" cx="24" cy="24" r="24"/>
      <circle class="cls-4" cx="24" cy="24" r="23.5"/>
    </g>
    <path id="路径_25" data-name="路径 25" class="cls-2" d="M-1178.9-221.9a14.005,14.005,0,0,1-14-14,14.007,14.007,0,0,1,14-14,14,14,0,0,1,14,14,13.994,13.994,0,0,1-13.995,14Zm-7.962-14.411v.807a.392.392,0,0,0,.115.281.4.4,0,0,0,.28.115h1.244a6.392,6.392,0,0,0,5.544,5.543v1.244a.4.4,0,0,0,.115.281.394.394,0,0,0,.282.115h.807a.4.4,0,0,0,.28-.115.4.4,0,0,0,.115-.281v-1.245a6.394,6.394,0,0,0,5.544-5.544h1.244a.391.391,0,0,0,.28-.114.394.394,0,0,0,.117-.28v-.805a.4.4,0,0,0-.4-.394h-1.244a6.394,6.394,0,0,0-5.544-5.544v-1.245a.4.4,0,0,0-.4-.4h-.807a.394.394,0,0,0-.394.4v1.244a6.391,6.391,0,0,0-5.545,5.54h-1.246A.4.4,0,0,0-1186.86-236.309Zm4.253,4.123a5.244,5.244,0,0,1-1.537-3.711,5.246,5.246,0,0,1,1.535-3.712,5.243,5.243,0,0,1,3.712-1.536,5.244,5.244,0,0,1,3.711,1.535,5.247,5.247,0,0,1,1.536,3.712,5.245,5.245,0,0,1-5.246,5.246h-.007A5.241,5.241,0,0,1-1182.607-232.186Zm1.448-5.972a3.2,3.2,0,0,0-.934,2.262,3.2,3.2,0,0,0,.936,2.26,3.194,3.194,0,0,0,2.26.934v0a3.191,3.191,0,0,0,2.26-.935,3.194,3.194,0,0,0,.934-2.26,3.191,3.191,0,0,0-.935-2.26,3.187,3.187,0,0,0-2.26-.935h0A3.191,3.191,0,0,0-1181.159-238.158Z" transform="translate(1445.897 548.898)"/>
  </g>
</svg>
