<svg xmlns="http://www.w3.org/2000/svg" width="48" height="48" viewBox="0 0 48 48">
  <defs>
    <style>
      .cls-1, .cls-2 {
        fill: #eaaa00;
      }

      .cls-1 {
        stroke: #000;
        opacity: 0.2;
      }

      .cls-3 {
        stroke: none;
      }

      .cls-4 {
        fill: none;
      }
    </style>
  </defs>
  <g id="ANTI-ATTACK_icon" transform="translate(-243 -289)">
    <g id="椭圆_8" data-name="椭圆 8" class="cls-1" transform="translate(243 289)">
      <circle class="cls-3" cx="24" cy="24" r="24"/>
      <circle class="cls-4" cx="24" cy="24" r="23.5"/>
    </g>
    <path id="路径_27" data-name="路径 27" class="cls-2" d="M-1074.642,75a1.376,1.376,0,0,1-.975-.4,1.3,1.3,0,0,1-.382-.963l.018-.171,1.484-8.813a1.34,1.34,0,0,1,1.142-1.094l.2-.014h1.809A1.342,1.342,0,0,1-1070,64.774a1.331,1.331,0,0,1-1.169,1.4l-.185.012h-.658l-1.037,6.169h22.073l-1.106-6.169h-.85a1.347,1.347,0,0,1-1.345-1.142l-.013-.18a1.334,1.334,0,0,1,1.173-1.31l.185-.012h1.993a1.353,1.353,0,0,1,1.29.909l.048.185,1.578,8.813a1.294,1.294,0,0,1-.242,1.01,1.367,1.367,0,0,1-.916.53l-.177.011Zm4.133-17.956-.514-4.9a14.445,14.445,0,0,0,8.856-3.021l.159-.124.356.266a14.607,14.607,0,0,0,8.725,2.877l-.6,5.016a17.621,17.621,0,0,1-8.483,12.993A17.367,17.367,0,0,1-1070.51,57.043Z" transform="translate(1329 251)"/>
  </g>
</svg>
