<svg xmlns="http://www.w3.org/2000/svg" width="71.144" height="24" viewBox="0 0 71.144 24">
  <defs>
    <style>
      .cls-1 {
        fill: #878787;
      }
    </style>
  </defs>
  <g id="AU21" transform="translate(-0.025 -0.6)">
    <g id="组_6" data-name="组 6" transform="translate(25.067 0.6)">
      <path id="路径_48" data-name="路径 48" class="cls-1" d="M231.76,9.472h-5l-.876,2.033a3.321,3.321,0,0,0-.326,1.123.627.627,0,0,0,.281.517,2.515,2.515,0,0,0,1.213.292v.348H223v-.348a2.069,2.069,0,0,0,1.044-.371,5.748,5.748,0,0,0,1.078-1.853L229.66.6H230l4.492,10.725A4.57,4.57,0,0,0,235.477,13a2.012,2.012,0,0,0,1.235.438v.348h-5.087v-.348a1.88,1.88,0,0,0,1.044-.258.665.665,0,0,0,.27-.528,3.869,3.869,0,0,0-.382-1.325Zm-.258-.708-2.19-5.211-2.246,5.211Z" transform="translate(-223 -0.6)"/>
      <path id="路径_49" data-name="路径 49" class="cls-1" d="M357.175,3.548V3.2h4.56v.348h-.483a1.3,1.3,0,0,0-1.168.64,2.891,2.891,0,0,0-.2,1.37v5.234a9.2,9.2,0,0,1-.382,3.01,3.734,3.734,0,0,1-1.516,1.831,5.431,5.431,0,0,1-3.066.764,5.817,5.817,0,0,1-3.2-.73,3.943,3.943,0,0,1-1.55-1.965,10.984,10.984,0,0,1-.3-3.178V5.48a2.562,2.562,0,0,0-.326-1.561,1.339,1.339,0,0,0-1.056-.371H348V3.2h5.57v.348h-.494a1.3,1.3,0,0,0-1.146.505,2.835,2.835,0,0,0-.236,1.426V11.1a12.493,12.493,0,0,0,.135,1.718,3.756,3.756,0,0,0,.494,1.516,2.586,2.586,0,0,0,1.044.9,3.583,3.583,0,0,0,1.673.348,4.615,4.615,0,0,0,2.269-.55,3.019,3.019,0,0,0,1.37-1.415,8.115,8.115,0,0,0,.371-2.92V5.48a2.642,2.642,0,0,0-.27-1.516,1.391,1.391,0,0,0-1.1-.416Z" transform="translate(-333.962 -2.908)"/>
      <path id="路径_50" data-name="路径 50" class="cls-1" d="M484.5,11.48l-.9,2.482H476v-.348a34.606,34.606,0,0,0,4.728-5,6.331,6.331,0,0,0,1.37-3.549,2.8,2.8,0,0,0-.752-2.022,2.394,2.394,0,0,0-1.8-.786,2.829,2.829,0,0,0-1.707.562,3.247,3.247,0,0,0-1.123,1.628h-.348a4.416,4.416,0,0,1,1.224-2.707A3.4,3.4,0,0,1,480.054.8a3.619,3.619,0,0,1,2.617,1.011,3.207,3.207,0,0,1,1.056,2.381,4.6,4.6,0,0,1-.46,1.954,13.213,13.213,0,0,1-2.28,3.257c-1.584,1.73-2.561,2.763-2.954,3.122H481.4a8.384,8.384,0,0,0,1.438-.079,1.832,1.832,0,0,0,.741-.314,2,2,0,0,0,.584-.663h.337Z" transform="translate(-447.586 -0.778)"/>
      <path id="路径_51" data-name="路径 51" class="cls-1" d="M579.2,2.427,582.333.9h.314V11.794a6.056,6.056,0,0,0,.09,1.348.689.689,0,0,0,.371.4,3.294,3.294,0,0,0,1.157.157v.348h-4.852V13.7a3.3,3.3,0,0,0,1.179-.157.743.743,0,0,0,.371-.371,5.207,5.207,0,0,0,.1-1.393V4.82a11.282,11.282,0,0,0-.09-1.808.763.763,0,0,0-.247-.449.676.676,0,0,0-.427-.146,2.589,2.589,0,0,0-.977.292Z" transform="translate(-539.196 -0.866)"/>
    </g>
    <g id="组_7" data-name="组 7" transform="translate(25.1 16.783)">
      <path id="路径_52" data-name="路径 52" class="cls-1" d="M229.69,144.722l.168,2.538h-.168a3.139,3.139,0,0,0-.977-1.64,2.373,2.373,0,0,0-1.516-.505,2.446,2.446,0,0,0-1.348.382,2.421,2.421,0,0,0-.943,1.2,5.449,5.449,0,0,0-.348,2.055,4.394,4.394,0,0,0,.326,1.752,2.365,2.365,0,0,0,.977,1.134,2.776,2.776,0,0,0,1.494.393,2.517,2.517,0,0,0,1.28-.314,4.21,4.21,0,0,0,1.224-1.235l.168.112a3.908,3.908,0,0,1-1.314,1.46,3.338,3.338,0,0,1-1.774.46,3.373,3.373,0,0,1-2.875-1.381,3.945,3.945,0,0,1-.764-2.415,4.284,4.284,0,0,1,.505-2.055,3.583,3.583,0,0,1,1.381-1.449,3.677,3.677,0,0,1,1.92-.517,3.593,3.593,0,0,1,1.595.393,1.008,1.008,0,0,0,.326.124.375.375,0,0,0,.258-.1.85.85,0,0,0,.2-.416h.2v.022Z" transform="translate(-223.3 -144.7)"/>
      <path id="路径_53" data-name="路径 53" class="cls-1" d="M292.665,150.132h-2.886l-.505,1.179a1.924,1.924,0,0,0-.191.651.406.406,0,0,0,.157.3,1.349,1.349,0,0,0,.708.168v.2H287.6v-.2a1.247,1.247,0,0,0,.606-.213,3.34,3.34,0,0,0,.618-1.078L291.452,145h.191l2.594,6.211a3.135,3.135,0,0,0,.573.977,1.055,1.055,0,0,0,.708.247v.2h-2.942v-.2a1.183,1.183,0,0,0,.606-.146.406.406,0,0,0,.157-.3,2.359,2.359,0,0,0-.225-.764Zm-.157-.416-1.269-3.01-1.3,3.01Z" transform="translate(-280.379 -144.966)"/>
      <path id="路径_54" data-name="路径 54" class="cls-1" d="M362.934,150.553v2.179a1.526,1.526,0,0,0,.157.876.794.794,0,0,0,.629.247H364v.2h-3.2v-.2h.281a.749.749,0,0,0,.674-.3,1.72,1.72,0,0,0,.112-.809v-4.818a1.556,1.556,0,0,0-.146-.876.837.837,0,0,0-.64-.247H360.8v-.2h2.74a5.025,5.025,0,0,1,1.584.2,2.216,2.216,0,0,1,.977.7,1.762,1.762,0,0,1,.393,1.157,1.947,1.947,0,0,1-.606,1.482,2.377,2.377,0,0,1-1.707.573,5.561,5.561,0,0,1-.584-.034C363.394,150.643,363.17,150.6,362.934,150.553Zm0-.314c.191.034.371.067.517.079a2.449,2.449,0,0,0,.382.022,1.322,1.322,0,0,0,.988-.438,1.58,1.58,0,0,0,.416-1.146,2.026,2.026,0,0,0-.2-.9,1.314,1.314,0,0,0-.562-.618,1.686,1.686,0,0,0-.831-.2,3.3,3.3,0,0,0-.719.1l.011,3.1Z" transform="translate(-345.358 -146.387)"/>
      <path id="路径_55" data-name="路径 55" class="cls-1" d="M420.8,153.755v.2h-3.2v-.2h.27a.817.817,0,0,0,.674-.27,1.634,1.634,0,0,0,.135-.842v-4.818a2.644,2.644,0,0,0-.067-.752.5.5,0,0,0-.225-.236,1,1,0,0,0-.505-.135h-.27v-.2h3.2v.2h-.27a.779.779,0,0,0-.663.27,1.657,1.657,0,0,0-.135.854v4.818a2.644,2.644,0,0,0,.067.752.477.477,0,0,0,.236.236,1,1,0,0,0,.505.135h.247v-.011Z" transform="translate(-395.779 -146.298)"/>
    </g>
    <g id="组_8" data-name="组 8" transform="translate(50.729 16.974)">
      <path id="路径_56" data-name="路径 56" class="cls-1" d="M457.688,146.4l.079,1.752h-.213a2.4,2.4,0,0,0-.168-.663,1.142,1.142,0,0,0-.449-.472,1.584,1.584,0,0,0-.741-.146H455.15v5.705a1.487,1.487,0,0,0,.146.854.815.815,0,0,0,.64.236h.258v.2h-3.167v-.2h.27a.764.764,0,0,0,.674-.281,1.675,1.675,0,0,0,.124-.809v-5.705h-.9a2.323,2.323,0,0,0-.741.079,1,1,0,0,0-.494.4,1.764,1.764,0,0,0-.247.809H451.5l.09-1.752h6.1V146.4Z" transform="translate(-451.5 -146.4)"/>
    </g>
    <g id="组_9" data-name="组 9" transform="translate(56.468 16.817)">
      <path id="路径_57" data-name="路径 57" class="cls-1" d="M507.676,150.132h-2.9l-.505,1.179a1.924,1.924,0,0,0-.191.651.406.406,0,0,0,.157.3,1.349,1.349,0,0,0,.708.168v.2H502.6v-.2a1.247,1.247,0,0,0,.606-.213,3.339,3.339,0,0,0,.618-1.078L506.452,145h.191l2.594,6.211a3.135,3.135,0,0,0,.573.977,1.055,1.055,0,0,0,.708.247v.2h-2.931v-.2a1.183,1.183,0,0,0,.606-.146.358.358,0,0,0,.157-.3,2.359,2.359,0,0,0-.225-.764Zm-.157-.416L506.25,146.7l-1.292,3.021Z" transform="translate(-502.6 -145)"/>
      <path id="路径_58" data-name="路径 58" class="cls-1" d="M582.455,151.713l.18.034-.64,2.022h-5.784v-.2h.281a.749.749,0,0,0,.674-.3,1.779,1.779,0,0,0,.112-.82v-4.818a1.526,1.526,0,0,0-.157-.876.836.836,0,0,0-.64-.247H576.2v-.2h3.38v.2a2.078,2.078,0,0,0-.831.112.7.7,0,0,0-.326.292,2.411,2.411,0,0,0-.09.842v4.694a1.572,1.572,0,0,0,.09.629.377.377,0,0,0,.2.168,3.711,3.711,0,0,0,.854.056h.55a4.11,4.11,0,0,0,1.2-.124,1.594,1.594,0,0,0,.629-.449A2.909,2.909,0,0,0,582.455,151.713Z" transform="translate(-567.934 -146.154)"/>
    </g>
    <path id="路径_59" data-name="路径 59" class="cls-1" d="M6.5,137.63l8.827-8.827a.766.766,0,0,1,1.089,0l8.827,8.827" transform="translate(-5.748 -113.603)"/>
    <g id="组_10" data-name="组 10" transform="translate(0.025 9.644)">
      <path id="路径_60" data-name="路径 60" class="cls-1" d="M19.485,91.949a.713.713,0,0,1-.517-.213l-8.85-8.85-8.85,8.85a.739.739,0,0,1-1.033,0,.739.739,0,0,1,0-1.033L9.6,81.336a.739.739,0,0,1,1.033,0L20,90.7a.739.739,0,0,1,0,1.033A.713.713,0,0,1,19.485,91.949Z" transform="translate(-0.025 -81.125)"/>
    </g>
    <g id="组_11" data-name="组 11" transform="translate(0.025 5.193)">
      <path id="路径_61" data-name="路径 61" class="cls-1" d="M19.485,52.326a.713.713,0,0,1-.517-.213l-8.85-8.85-8.85,8.85a.739.739,0,0,1-1.033,0,.739.739,0,0,1,0-1.033L9.6,41.713a.732.732,0,0,1,1.033,0L20,51.08a.739.739,0,0,1,0,1.033A.713.713,0,0,1,19.485,52.326Z" transform="translate(-0.025 -41.5)"/>
    </g>
    <g id="组_12" data-name="组 12" transform="translate(0.025 0.749)">
      <path id="路径_62" data-name="路径 62" class="cls-1" d="M19.485,12.749a.713.713,0,0,1-.517-.213l-8.85-8.85-8.85,8.85a.739.739,0,0,1-1.033,0,.739.739,0,0,1,0-1.033L9.6,2.136a.739.739,0,0,1,1.033,0L20,11.5a.739.739,0,0,1,0,1.033A.713.713,0,0,1,19.485,12.749Z" transform="translate(-0.025 -1.925)"/>
    </g>
  </g>
</svg>
