<svg xmlns="http://www.w3.org/2000/svg" width="48" height="48" viewBox="0 0 48 48">
  <defs>
    <style>
      .cls-1, .cls-2 {
        fill: #eaaa00;
      }

      .cls-1 {
        stroke: #000;
        opacity: 0.2;
      }

      .cls-3 {
        stroke: none;
      }

      .cls-4 {
        fill: none;
      }
    </style>
  </defs>
  <g id="award3_icon" transform="translate(-243 -289)">
    <g id="椭圆_8" data-name="椭圆 8" class="cls-1" transform="translate(243 289)">
      <circle class="cls-3" cx="24" cy="24" r="24"/>
      <circle class="cls-4" cx="24" cy="24" r="23.5"/>
    </g>
    <path id="路径_14" data-name="路径 14" class="cls-2" d="M-356.726,149h0l-.121,0-.161-.023-.138-.037-.132-.053-.1-.051L-363,145.584l-5.625,3.248-.076.04-.112.049-.1.031-.172.037-.109.009-.169,0a1.229,1.229,0,0,1-.188-.032l-.131-.039-.118-.05-.127-.073-.084-.058-.1-.086-.116-.125-.072-.1-.076-.132-.049-.116-.048-.157-.022-.133-.009-.085,0-.168.837-9.572a11.123,11.123,0,0,0,6.638,2.181h.042a11.119,11.119,0,0,0,6.637-2.181l.842,9.657,0,.127-.012.091-.016.085-.031.112-.051.131-.054.1-.048.075-.1.133-.142.137-.147.1-.122.065-.127.05-.137.037-.148.022ZM-363,139a10.011,10.011,0,0,1-10-10,10.011,10.011,0,0,1,10-10,10.011,10.011,0,0,1,10,10A10.011,10.011,0,0,1-363,139Zm.033-6.648h0l2.2,1.156a1.217,1.217,0,0,0,.553.161.508.508,0,0,0,.4-.174.941.941,0,0,0,.125-.773l-.42-2.449,1.781-1.735a.832.832,0,0,0,.333-.809c-.078-.239-.343-.4-.746-.462l-2.462-.357-1.1-2.228c-.181-.365-.418-.567-.668-.567s-.489.2-.67.567l-1.1,2.228-2.461.357c-.4.059-.669.222-.746.46a.833.833,0,0,0,.332.811l1.781,1.735-.42,2.449a.942.942,0,0,0,.124.773.51.51,0,0,0,.406.174,1.217,1.217,0,0,0,.553-.16l2.2-1.156Z" transform="translate(630 179)"/>
  </g>
</svg>
