<svg xmlns="http://www.w3.org/2000/svg" width="48" height="48" viewBox="0 0 48 48">
  <defs>
    <style>
      .cls-1, .cls-2 {
        fill: #eaaa00;
      }

      .cls-1 {
        stroke: #000;
        opacity: 0.2;
      }

      .cls-3 {
        stroke: none;
      }

      .cls-4 {
        fill: none;
      }
    </style>
  </defs>
  <g id="award1_icon" transform="translate(-249 -328)">
    <g id="椭圆_6" data-name="椭圆 6" class="cls-1" transform="translate(249 328)">
      <circle class="cls-3" cx="24" cy="24" r="24"/>
      <circle class="cls-4" cx="24" cy="24" r="23.5"/>
    </g>
    <path id="路径_13" data-name="路径 13" class="cls-2" d="M-211.527,184.485h-10.94a.208.208,0,0,1-.175-.081c-.043-.071-.026-.181.049-.327.25-.471.589-1.21.6-1.241a1.037,1.037,0,0,1,.656-.577h2.732v-4.27a9.181,9.181,0,0,1-3.726-2.244,11.845,11.845,0,0,1-2.842-4.258c-.092.008-.159.011-.229.011a5.6,5.6,0,0,1-5.573-5.617c0-.37-.008-.7-.015-.986v-.012c-.03-1.059-.049-1.758.442-2.261.612-.63,1.672-.662,4.646-.662l.023-.13v-2.391a1.422,1.422,0,0,1,.416-1.014,1.422,1.422,0,0,1,1.012-.422h14.917a1.422,1.422,0,0,1,1.012.422,1.422,1.422,0,0,1,.416,1.014v2.521h.005c2.663,0,4,0,4.642.663.492.5.473,1.2.443,2.255v.012c-.007.257-.015.6-.015.991a5.558,5.558,0,0,1-1.624,3.963,5.559,5.559,0,0,1-3.95,1.653c-.073,0-.152,0-.229-.01a12.019,12.019,0,0,1-2.841,4.259,9.209,9.209,0,0,1-3.726,2.245v4.27h2.739a1.037,1.037,0,0,1,.655.577c.014.031.352.767.6,1.241.076.147.092.257.049.327A.209.209,0,0,1-211.527,184.485Zm-5.44-15.134h0l2.2,1.156a1.217,1.217,0,0,0,.553.161.509.509,0,0,0,.4-.174.94.94,0,0,0,.125-.773l-.42-2.449,1.78-1.734a.834.834,0,0,0,.333-.81c-.078-.239-.343-.4-.746-.461l-2.461-.357-1.1-2.228c-.18-.365-.417-.567-.668-.567s-.489.2-.67.567l-1.1,2.228-2.462.357c-.4.059-.669.222-.746.46a.834.834,0,0,0,.333.811l1.78,1.734-.42,2.449a.942.942,0,0,0,.124.773.51.51,0,0,0,.406.174,1.217,1.217,0,0,0,.553-.16l2.2-1.156Zm10.646-5.219c-.092,0-.186,0-.279.008l-.344,0-.422,0-.707,0,.007,5.04a3.189,3.189,0,0,0,2.834-3.219c0-.241.007-.485.013-.721l0-.085a3.5,3.5,0,0,0-.03-.911A4.824,4.824,0,0,0-206.321,164.132Zm-21.712,0a2.49,2.49,0,0,0-.721.107,3.9,3.9,0,0,0-.059,1.022c.007.17.007.361.007.562a3.478,3.478,0,0,0,2.871,3.353V164.17c-.385,0-.7-.007-1-.013-.316-.009-.586-.009-.824-.009A2.487,2.487,0,0,0-228.033,164.133Z" transform="translate(490 181)"/>
  </g>
</svg>
