<svg xmlns="http://www.w3.org/2000/svg" width="48" height="48" viewBox="0 0 48 48">
  <defs>
    <style>
      .cls-1, .cls-2 {
        fill: #eaaa00;
      }

      .cls-1 {
        stroke: #000;
        opacity: 0.2;
      }

      .cls-3 {
        stroke: none;
      }

      .cls-4 {
        fill: none;
      }
    </style>
  </defs>
  <g id="award2_icon" transform="translate(-243 -289)">
    <g id="椭圆_7" data-name="椭圆 7" class="cls-1" transform="translate(243 289)">
      <circle class="cls-3" cx="24" cy="24" r="24"/>
      <circle class="cls-4" cx="24" cy="24" r="23.5"/>
    </g>
    <path id="路径_12" data-name="路径 12" class="cls-2" d="M-285.293,145h-6.245a.715.715,0,0,1-.687-.548l-1.925-3.792c.041,0,4.164-.289,6.557-2.591l2.875,5.8a.7.7,0,0,1,.147.412A.722.722,0,0,1-285.293,145Zm-12.74,0h-6.245a.722.722,0,0,1-.722-.721.7.7,0,0,1,.146-.413l2.875-5.8c2.406,2.315,6.516,2.589,6.557,2.591l-1.926,3.792A.714.714,0,0,1-298.033,145Zm3.3-5.818a10.107,10.107,0,0,1-10.1-10.091A10.108,10.108,0,0,1-294.735,119a10.108,10.108,0,0,1,10.1,10.092A10.107,10.107,0,0,1-294.735,139.182Zm-.031-6.831h0l2.2,1.156a1.217,1.217,0,0,0,.553.161.508.508,0,0,0,.4-.174.941.941,0,0,0,.124-.773l-.42-2.449,1.781-1.735a.833.833,0,0,0,.333-.81c-.078-.239-.343-.4-.746-.461L-293,126.91l-1.1-2.228c-.181-.365-.418-.567-.668-.567s-.489.2-.67.567l-1.1,2.228-2.461.357c-.4.059-.669.222-.746.46a.834.834,0,0,0,.332.811l1.781,1.735-.42,2.449a.942.942,0,0,0,.124.773.51.51,0,0,0,.406.174,1.217,1.217,0,0,0,.553-.161l2.2-1.156Z" transform="translate(561.8 181)"/>
  </g>
</svg>
