<svg xmlns="http://www.w3.org/2000/svg" width="90.154" height="24" viewBox="0 0 90.154 24">
  <defs>
    <style>
      .cls-1 {
        fill: #878787;
      }
    </style>
  </defs>
  <g id="BSC" transform="translate(-0.05)">
    <path id="路径_63" data-name="路径 63" class="cls-1" d="M143.648,22.929h-4.419v-9.3h4.324c1.9,0,3.067.952,3.067,2.4v.019a2.139,2.139,0,0,1-1.219,2,2.277,2.277,0,0,1,1.733,2.286v.019C147.134,22.09,145.762,22.929,143.648,22.929Zm.934-6.552c0-.61-.476-.952-1.333-.952h-2.019v1.962h1.886c.9,0,1.467-.286,1.467-.99Zm.514,3.733c0-.629-.457-1.01-1.5-1.01h-2.362v2.038h2.438c.9,0,1.447-.324,1.447-1.01V20.11Zm4.286,2.819v-9.3h2.038v9.3Zm11.3,0-4.5-5.9v5.9h-2.019v-9.3h1.886l4.362,5.733V13.633h2.019v9.3Zm10.933,0-.857-2.076h-3.924l-.857,2.076H163.9l3.981-9.371h1.886l3.981,9.371Zm-2.819-6.9-1.238,3.01h2.476Zm12.972,6.9-4.5-5.9v5.9h-2.019v-9.3h1.886l4.362,5.733V13.633h2.019v9.3Zm8.476.171a4.685,4.685,0,0,1-4.762-4.781V18.3a4.723,4.723,0,0,1,4.857-4.8,4.808,4.808,0,0,1,3.657,1.429l-1.3,1.5a3.457,3.457,0,0,0-2.381-1.048,2.761,2.761,0,0,0-2.7,2.9V18.3a2.754,2.754,0,0,0,2.7,2.914,3.312,3.312,0,0,0,2.438-1.086l1.3,1.314A4.756,4.756,0,0,1,190.239,23.1Zm5.466-.171v-9.3h7.01v1.829h-4.972v1.886h4.381v1.829h-4.381v1.962h5.048v1.829h-7.086v-.038Z" transform="translate(-112.669 -10.929)"/>
    <path id="路径_64" data-name="路径 64" class="cls-1" d="M137.381,79.685c0-.43.384-.768,1.042-.768a2.907,2.907,0,0,1,1.737.658l.6-.85a3.547,3.547,0,0,0-2.322-.8,1.953,1.953,0,0,0-2.185,1.865c0,1.189.768,1.591,2.13,1.92,1.189.274,1.445.521,1.445.987,0,.494-.439.814-1.134.814a2.947,2.947,0,0,1-2.021-.832l-.677.8a3.942,3.942,0,0,0,2.67,1.024c1.344,0,2.286-.713,2.286-1.92,0-1.07-.7-1.554-2.057-1.883C137.673,80.407,137.381,80.187,137.381,79.685Z" transform="translate(-110.055 -63.078)"/>
    <path id="路径_65" data-name="路径 65" class="cls-1" d="M173.165,80.21V84.8h1.125V78.4h-1.2l-1.947,3.026L169.2,78.4H168v6.4h1.106V80.229l2,3h.037Z" transform="translate(-135.959 -63.467)"/>
    <path id="路径_66" data-name="路径 66" class="cls-1" d="M209.689,78.16h-1.042l-2.816,6.446h1.152l.658-1.545h3.026l.649,1.545h1.189Zm.567,3.9h-2.2l1.1-2.56Z" transform="translate(-166.585 -63.272)"/>
    <path id="路径_67" data-name="路径 67" class="cls-1" d="M251.1,84.8l-1.728-2.423A1.916,1.916,0,0,0,250.9,80.43c0-1.253-.905-2.03-2.377-2.03h-2.853v6.4H246.8V82.569h1.408l1.573,2.231Zm-1.344-4.306c0,.658-.512,1.079-1.317,1.079H246.8V79.424h1.637C249.266,79.424,249.76,79.79,249.76,80.494Z" transform="translate(-198.838 -63.467)"/>
    <path id="路径_68" data-name="路径 68" class="cls-1" d="M280.023,79.442h2.03V78.4H276.86v1.042h2.03V84.8h1.134Z" transform="translate(-224.084 -63.467)"/>
    <path id="路径_69" data-name="路径 69" class="cls-1" d="M327.218,83.31l-.722-.731a2.509,2.509,0,0,1-1.838.832,2.283,2.283,0,0,1,0-4.553,2.545,2.545,0,0,1,1.792.8l.722-.832a3.336,3.336,0,0,0-2.505-1,3.31,3.31,0,0,0-.046,6.619A3.3,3.3,0,0,0,327.218,83.31Z" transform="translate(-260.114 -63)"/>
    <path id="路径_70" data-name="路径 70" class="cls-1" d="M361.511,82.1v2.7h1.125V78.4h-1.125v2.661h-3.054V78.4h-1.125v6.4h1.125V82.1Z" transform="translate(-289.229 -63.467)"/>
    <path id="路径_71" data-name="路径 71" class="cls-1" d="M393.82,78.16h-1.042l-2.816,6.446h1.152l.658-1.545H394.8l.649,1.545h1.189Zm.567,3.9h-2.2l1.1-2.56Z" transform="translate(-315.643 -63.272)"/>
    <path id="路径_72" data-name="路径 72" class="cls-1" d="M430.139,78.4v6.4h1.125V78.4Z" transform="translate(-348.167 -63.467)"/>
    <path id="路径_73" data-name="路径 73" class="cls-1" d="M448.549,82.825,445.12,78.4h-1.042v6.4h1.106V80.247l3.529,4.553h.942V78.4h-1.106Z" transform="translate(-359.451 -63.467)"/>
    <path id="路径_74" data-name="路径 74" class="cls-1" d="M27.35,2.7,23.331,5.029,20.95,3.676,27.331,0l6.381,3.676L31.369,5.029Z" transform="translate(-16.919)"/>
    <path id="路径_75" data-name="路径 75" class="cls-1" d="M31.631,36.6l2.343,1.352v2.7l-4.019,2.324v4.648l-2.343,1.352-2.343-1.352V42.981L21.25,40.657v-2.7L23.593,36.6l4.019,2.324Z" transform="translate(-17.162 -29.629)"/>
    <path id="路径_76" data-name="路径 76" class="cls-1" d="M78.093,68.1v2.7L75.75,72.157v-2.7Z" transform="translate(-61.281 -55.129)"/>
    <path id="路径_77" data-name="路径 77" class="cls-1" d="M75.75,64.224,79.769,61.9h.019V57.252L82.131,55.9v7.352L75.75,66.929Z" transform="translate(-61.281 -45.252)"/>
    <path id="路径_78" data-name="路径 78" class="cls-1" d="M86.893,27.1,84.55,25.752,86.893,24.4l2.343,1.352v2.7L86.893,29.81Z" transform="translate(-68.405 -19.752)"/>
    <path id="路径_79" data-name="路径 79" class="cls-1" d="M42.25,107.4v-2.7l2.343,1.352,2.343-1.352v2.7l-2.343,1.352Z" transform="translate(-34.162 -84.757)"/>
    <path id="路径_80" data-name="路径 80" class="cls-1" d="M23.493,72.157,21.15,70.8V68.1l2.343,1.352Z" transform="translate(-17.081 -55.129)"/>
    <path id="路径_81" data-name="路径 81" class="cls-1" d="M44.593,27.1,42.25,25.752,44.593,24.4l2.343,1.352Z" transform="translate(-34.162 -19.752)"/>
    <path id="路径_82" data-name="路径 82" class="cls-1" d="M4.736,25.752,2.393,27.1v2.7L.05,28.457v-2.7L2.393,24.4Z" transform="translate(0 -19.752)"/>
    <path id="路径_83" data-name="路径 83" class="cls-1" d="M.05,55.9l2.343,1.352h.019V61.9l4.019,2.324v2.7L.05,63.252Z" transform="translate(0 -45.252)"/>
  </g>
</svg>
