<svg xmlns="http://www.w3.org/2000/svg" width="240" height="80" viewBox="0 0 240 80">
  <g id="BNB_chain" data-name="BNB chain" transform="translate(3 -57)">
    <rect id="矩形_19" data-name="矩形 19" width="240" height="80" transform="translate(-3 57)" fill="none"/>
    <g id="logo_BNB_Chain" transform="translate(27 81)">
      <path id="路径_303" data-name="路径 303" d="M5.275,4.843,13.664,0l8.39,4.843L18.97,6.632,13.664,3.578,8.359,6.632Zm16.78,6.107L18.97,9.161l-5.305,3.054L8.359,9.161,5.275,10.95v3.578l5.305,3.054v6.107l3.085,1.789,3.085-1.789V17.582l5.305-3.054Zm0,9.685V17.057L18.97,18.846v3.578Zm2.19,1.265-5.305,3.054v3.578l8.39-4.843V14l-3.085,1.789ZM21.16,7.9l3.084,1.789v3.578l3.085-1.789V7.9L24.244,6.107ZM10.58,26.249v3.578l3.085,1.789,3.085-1.789V26.249l-3.085,1.789ZM5.275,20.635l3.085,1.789V18.846L5.275,17.057ZM10.58,7.9l3.085,1.789L16.749,7.9,13.664,6.107Zm-7.5,1.789L6.169,7.9,3.084,6.107,0,7.9v3.578l3.084,1.789Zm0,6.107L0,14v9.685l8.39,4.843V24.954L3.084,21.9Z" fill="#878787"/>
      <path id="路径_304" data-name="路径 304" d="M42.808,18.138v-.05c0-2.363-1.257-3.544-3.293-4.323a4.092,4.092,0,0,0,2.313-3.8v-.05c0-2.765-2.212-4.55-5.806-4.55H27.852v17.6h8.37C40.194,22.964,42.808,21.355,42.808,18.138Zm-4.826-7.516c0,1.307-1.081,1.86-2.79,1.86H31.622V8.762h3.821c1.634,0,2.539.654,2.539,1.81Zm.98,7.038c0,1.307-1.031,1.91-2.74,1.91h-4.6V15.7H36.1c1.986,0,2.865.729,2.865,1.91Z" transform="translate(8.838 1.704)" fill="#878787"/>
      <path id="路径_305" data-name="路径 305" d="M57.448,22.964V5.368H53.627V16.2L45.382,5.368H41.813v17.6h3.821V11.778l8.521,11.186Z" transform="translate(13.269 1.704)" fill="#878787"/>
      <path id="路径_306" data-name="路径 306" d="M72.034,18.138v-.05c0-2.363-1.257-3.544-3.293-4.323a4.092,4.092,0,0,0,2.313-3.8v-.05c0-2.765-2.212-4.55-5.806-4.55H57.079v17.6h8.37C69.42,22.964,72.034,21.355,72.034,18.138Zm-4.826-7.516c0,1.307-1.081,1.86-2.79,1.86H60.849V8.762H64.67c1.634,0,2.539.654,2.539,1.81Zm.98,7.038c0,1.307-1.031,1.91-2.74,1.91h-4.6V15.7h4.474c1.986,0,2.866.729,2.866,1.91Z" transform="translate(18.113 1.704)" fill="#878787"/>
      <path id="路径_307" data-name="路径 307" d="M90.017,20l-1.986-2.011a6.9,6.9,0,0,1-5.052,2.287c-3.368,0-5.806-2.815-5.806-6.284a5.914,5.914,0,0,1,5.806-6.234,7,7,0,0,1,4.927,2.187l1.986-2.287A9.172,9.172,0,0,0,83,4.917a8.91,8.91,0,0,0-9.074,9.124,8.855,8.855,0,0,0,8.948,9.074A9.079,9.079,0,0,0,90.017,20Z" transform="translate(23.461 1.56)" fill="#878787"/>
      <path id="路径_308" data-name="路径 308" d="M100.286,15.326v7.415h3.092V5.146h-3.092v7.315h-8.4V5.146H88.8v17.6h3.092V15.326Z" transform="translate(28.179 1.633)" fill="#878787"/>
      <path id="路径_309" data-name="路径 309" d="M112.949,5.051h-2.865l-7.742,17.721h3.167l1.81-4.248h8.32l1.785,4.248h3.267Zm1.558,10.733h-6.057l3.015-7.038Z" transform="translate(32.477 1.603)" fill="#878787"/>
      <path id="路径_310" data-name="路径 310" d="M118.886,5.146v17.6h3.092V5.146Z" transform="translate(37.727 1.633)" fill="#878787"/>
      <path id="路径_311" data-name="路径 311" d="M137.291,17.312,127.864,5.146H125v17.6h3.042V10.223l9.7,12.518h2.59V5.146h-3.042Z" transform="translate(39.667 1.633)" fill="#878787"/>
    </g>
  </g>
</svg>
