<svg id="logo_BNB_Chain" xmlns="http://www.w3.org/2000/svg" width="136.639" height="24" viewBox="0 0 136.639 24">
    <defs>
        <style>
            .cls-1 {
            fill: #878787;
            }
        </style>
    </defs>
    <path id="路径_303" data-name="路径 303" class="cls-1" d="M4,3.676,10.373,0l6.369,3.676L14.4,5.034,10.373,2.716,6.345,5.034ZM16.742,8.312,14.4,6.954,10.373,9.272,6.345,6.954,4,8.312v2.716l4.027,2.318v4.636l2.341,1.358,2.342-1.358V13.346l4.027-2.318Zm0,7.352V12.948L14.4,14.306v2.716Zm1.662.96-4.027,2.318v2.716l6.369-3.676V10.63L18.4,11.988ZM16.063,5.994,18.4,7.352v2.716L20.745,8.71V5.994L18.4,4.636ZM8.031,19.926v2.716L10.373,24l2.342-1.358V19.926l-2.342,1.358ZM4,15.664l2.341,1.358V14.306L4,12.948Zm4.027-9.67,2.341,1.358,2.342-1.358L10.373,4.636ZM2.341,7.352,4.683,5.994,2.341,4.636,0,5.994V8.71l2.341,1.358Zm0,4.636L0,10.63v7.352l6.369,3.676V18.942L2.341,16.624Z"/>
    <path id="路径_304" data-name="路径 304" class="cls-1" d="M39.2,15.061v-.038c0-1.794-.954-2.69-2.5-3.282A3.107,3.107,0,0,0,38.461,8.86V8.822c0-2.1-1.679-3.454-4.408-3.454h-6.2V18.725h6.354C37.221,18.725,39.2,17.5,39.2,15.061ZM35.541,9.356c0,.992-.82,1.412-2.118,1.412h-2.71V7.944h2.9c1.24,0,1.927.5,1.927,1.374Zm.744,5.343c0,.992-.782,1.45-2.08,1.45H30.714V13.211h3.4c1.507,0,2.175.553,2.175,1.45Z"/>
    <path id="路径_305" data-name="路径 305" class="cls-1" d="M53.681,18.725V5.368h-2.9v8.224L44.522,5.368H41.813V18.725h2.9V10.234l6.469,8.491Z"/>
    <path id="路径_306" data-name="路径 306" class="cls-1" d="M68.432,15.061v-.038c0-1.794-.954-2.69-2.5-3.282A3.107,3.107,0,0,0,67.688,8.86V8.822c0-2.1-1.679-3.454-4.408-3.454h-6.2V18.725h6.354C66.447,18.725,68.432,17.5,68.432,15.061ZM64.768,9.356c0,.992-.82,1.412-2.118,1.412H59.941V7.944h2.9c1.24,0,1.927.5,1.927,1.374Zm.744,5.343c0,.992-.782,1.45-2.08,1.45H59.941V13.211h3.4c1.507,0,2.175.553,2.175,1.45Z"/>
    <path id="路径_307" data-name="路径 307" class="cls-1" d="M86.141,16.366l-1.507-1.527A5.236,5.236,0,0,1,80.8,16.576a4.522,4.522,0,0,1-4.408-4.77A4.489,4.489,0,0,1,80.8,7.073a5.312,5.312,0,0,1,3.74,1.66L86.046,7a6.962,6.962,0,0,0-5.228-2.08,6.763,6.763,0,0,0-6.888,6.926,6.722,6.722,0,0,0,6.793,6.888A6.892,6.892,0,0,0,86.141,16.366Z"/>
    <path id="路径_308" data-name="路径 308" class="cls-1" d="M97.519,12.874V18.5h2.347V5.146H97.519V10.7H91.146V5.146H88.8V18.5h2.347V12.874Z"/>
    <path id="路径_309" data-name="路径 309" class="cls-1" d="M110.394,5.051h-2.175L102.342,18.5h2.4l1.374-3.225h6.316l1.355,3.225h2.48Zm1.183,8.148h-4.6l2.289-5.343Z"/>
    <path id="路径_310" data-name="路径 310" class="cls-1" d="M118.886,5.146V18.5h2.347V5.146Z"/>
    <path id="路径_311" data-name="路径 311" class="cls-1" d="M134.33,14.381l-7.156-9.235H125V18.5h2.309V9l7.365,9.5h1.966V5.146H134.33Z"/>
</svg>
