<svg xmlns="http://www.w3.org/2000/svg" width="84.618" height="24" viewBox="0 0 84.618 24">
  <defs>
    <style>
      .cls-1 {
        fill: #878787;
        fill-rule: evenodd;
      }
    </style>
  </defs>
  <g id="Catchervc" transform="translate(-0.964 -0.463)">
    <path id="路径_84" data-name="路径 84" class="cls-1" d="M1035.947,182.153a1.369,1.369,0,0,0-.842-.217h-1.268v1.752h1.3a1.2,1.2,0,0,0,.781-.245.858.858,0,0,0,.024-1.289Z" transform="translate(-976.417 -171.554)"/>
    <path id="路径_85" data-name="路径 85" class="cls-1" d="M.964.463v24H85.582v-24ZM14.415,16.69a3.594,3.594,0,0,1-2.55.91,3.853,3.853,0,0,1-3-1.235,4.762,4.762,0,0,1-1.119-3.323,5.138,5.138,0,0,1,1.1-3.5,3.828,3.828,0,0,1,3.037-1.257,3.562,3.562,0,0,1,2.6.962,3.968,3.968,0,0,1,1.1,2.671L13,12.059A2.387,2.387,0,0,0,12.7,10.8a.9.9,0,0,0-.792-.454,1.072,1.072,0,0,0-1.018.645,4.739,4.739,0,0,0-.325,2.028,4.243,4.243,0,0,0,.312,1.881,1.042,1.042,0,0,0,.992.6.988.988,0,0,0,.818-.368,2.174,2.174,0,0,0,.368-1.132l2.535.17A3.947,3.947,0,0,1,14.415,16.69Zm6.657.74-.53-1.8H18.128l-.5,1.8H15.416l2.755-8.96h2.914l2.817,8.96Zm8.286-6.872H27.587v6.872H24.839V10.559H23.067V8.471h6.291ZM32.645,14.9a1.043,1.043,0,0,0,.992.6.988.988,0,0,0,.818-.368,2.173,2.173,0,0,0,.368-1.132l2.535.17a3.948,3.948,0,0,1-1.171,2.527,3.6,3.6,0,0,1-2.55.91,3.853,3.853,0,0,1-3-1.235,4.761,4.761,0,0,1-1.119-3.323,5.139,5.139,0,0,1,1.1-3.5A3.828,3.828,0,0,1,33.65,8.288a3.562,3.562,0,0,1,2.6.962,3.967,3.967,0,0,1,1.1,2.671l-2.585.138a2.387,2.387,0,0,0-.306-1.261.9.9,0,0,0-.792-.454,1.072,1.072,0,0,0-1.018.645,4.74,4.74,0,0,0-.325,2.028A4.243,4.243,0,0,0,32.645,14.9Zm13.068-3.11v5.643H42.965V13.882H40.871v3.549H38.122V8.471h2.748v3.317h2.094V8.471h2.748Zm8.024,5.643h-6.8V8.471h6.754v2.088h-4.13v1.317h3.392v1.941H49.557v1.519h4.18Zm5.953,0-1.33-3.4h-.938v3.4H54.7V8.471h4.375a4.4,4.4,0,0,1,2.636.652,2.3,2.3,0,0,1,.876,1.965,2.786,2.786,0,0,1-.4,1.532,2.212,2.212,0,0,1-1.164.9l1.614,3.915Zm5.992,0-2.826-8.96h2.863l1.588,6.015,1.679-6.015h2.3l-2.869,8.96Zm12.225-.74a3.594,3.594,0,0,1-2.55.91,3.853,3.853,0,0,1-3-1.235,4.762,4.762,0,0,1-1.119-3.323,5.138,5.138,0,0,1,1.1-3.5,3.828,3.828,0,0,1,3.037-1.257,3.562,3.562,0,0,1,2.6.962,3.97,3.97,0,0,1,1.1,2.671l-2.585.138a2.387,2.387,0,0,0-.306-1.261.9.9,0,0,0-.792-.454,1.072,1.072,0,0,0-1.018.645,4.735,4.735,0,0,0-.325,2.028,4.248,4.248,0,0,0,.312,1.881,1.043,1.043,0,0,0,.992.6.988.988,0,0,0,.818-.368,2.176,2.176,0,0,0,.368-1.132l2.535.17A3.947,3.947,0,0,1,77.907,16.69Z"/>
    <path id="路径_86" data-name="路径 86" class="cls-1" d="M324.189,197.46h1.451l-.725-2.611Z" transform="translate(-305.557 -183.761)"/>
  </g>
</svg>
