<svg xmlns="http://www.w3.org/2000/svg" width="168.518" height="24" viewBox="0 0 168.518 24">
  <defs>
    <style>
      .cls-1, .cls-2 {
        fill: #878787;
      }

      .cls-1 {
        fill-rule: evenodd;
      }
    </style>
  </defs>
  <g id="Ceras_ventures" data-name="Ceras ventures" transform="translate(-1.015 -1)">
    <g id="组_13" data-name="组 13" transform="translate(1.015 1)">
      <path id="路径_87" data-name="路径 87" class="cls-1" d="M30.213,7a11.97,11.97,0,0,0-9.836-6H12.641A12.178,12.178,0,0,0,7,2.619,12,12,0,0,0,13.54,24.99h6.837a11.5,11.5,0,0,0,5.458-1.619,11.933,11.933,0,0,0,5.578-7.257.575.575,0,0,0-.12-.54.585.585,0,0,0-.54-.24H23.976a.654.654,0,0,0-.66.6,10.939,10.939,0,0,1-4.978,6.417,13.8,13.8,0,0,1-1.919.9A10.716,10.716,0,0,1,14.44,3.819a13.8,13.8,0,0,1,1.919-.9,10.7,10.7,0,0,1,5.877,4.8.63.63,0,0,0,.54.3h6.777a.761.761,0,0,0,.36-.06A.729.729,0,0,0,30.213,7ZM19,2.619A11.867,11.867,0,0,1,23.2,6.7h1.859A10.506,10.506,0,0,0,19,2.619ZM26.615,6.7h1.859a10.7,10.7,0,0,0-6.057-4.078A11.867,11.867,0,0,1,26.615,6.7ZM19,23.37a9.256,9.256,0,0,0,2.759-1.14,10.736,10.736,0,0,0,4.738-5.7H24.456A12.048,12.048,0,0,1,19,23.37Zm-8.576,0a12.249,12.249,0,0,1-4.378-4.378A11.911,11.911,0,0,1,10.422,2.619h0a9.256,9.256,0,0,0-2.759,1.14A10.643,10.643,0,0,0,3.7,18.332,10.785,10.785,0,0,0,10.422,23.37ZM11.081,3.7a9.952,9.952,0,0,1,2.759-1.14h0A12.066,12.066,0,0,0,9.4,18.992,11.791,11.791,0,0,0,13.78,23.37a10.52,10.52,0,0,1-6.657-5.038A10.727,10.727,0,0,1,11.081,3.7ZM25.175,22.291a9.952,9.952,0,0,1-2.759,1.14h0a12.12,12.12,0,0,0,5.458-6.777h2.039A11.065,11.065,0,0,1,25.175,22.291Z" transform="translate(-1.015 -1)"/>
    </g>
    <g id="组_14" data-name="组 14" transform="translate(38.19 5.198)">
      <path id="路径_88" data-name="路径 88" class="cls-2" d="M73.915,18.256a5.221,5.221,0,0,1-1.679,3.538,5.342,5.342,0,0,1-3.718,1.2,5.229,5.229,0,0,1-2.879-.84,5.112,5.112,0,0,1-1.919-2.279A8.917,8.917,0,0,1,63,16.456V14.6a8.991,8.991,0,0,1,.66-3.478A5.08,5.08,0,0,1,65.639,8.78a6.193,6.193,0,0,1,3-.78,5.269,5.269,0,0,1,3.718,1.259,5.232,5.232,0,0,1,1.559,3.478H72.656c-.3-2.459-1.679-3.718-4.018-3.718a3.788,3.788,0,0,0-3.179,1.5,6.471,6.471,0,0,0-1.2,4.078v1.8a6.279,6.279,0,0,0,1.14,4.018,3.678,3.678,0,0,0,3.119,1.5,4.2,4.2,0,0,0,2.939-.9,4.249,4.249,0,0,0,1.2-2.819h1.259Z" transform="translate(-63 -8)"/>
    </g>
    <g id="组_15" data-name="组 15" transform="translate(51.144 8.917)">
      <path id="路径_89" data-name="路径 89" class="cls-2" d="M89.458,25.475a5.259,5.259,0,0,1-2.519-.66A4.906,4.906,0,0,1,85.2,22.9a6.006,6.006,0,0,1-.6-2.759v-.42a6.259,6.259,0,0,1,.6-2.819,4.95,4.95,0,0,1,1.679-1.979,4.135,4.135,0,0,1,2.339-.72,3.916,3.916,0,0,1,3.119,1.379,5.35,5.35,0,0,1,1.14,3.658v.66H85.8v.24a4.331,4.331,0,0,0,1.08,3.059,3.354,3.354,0,0,0,2.7,1.2,3.651,3.651,0,0,0,1.679-.36,3.369,3.369,0,0,0,1.319-1.14l.78.6A4.321,4.321,0,0,1,89.458,25.475Zm-.18-10.2A3,3,0,0,0,87,16.3a4.65,4.65,0,0,0-1.14,2.7H92.4v-.12a4.448,4.448,0,0,0-.9-2.579A2.7,2.7,0,0,0,89.278,15.28Z" transform="translate(-84.6 -14.2)"/>
    </g>
    <g id="组_16" data-name="组 16" transform="translate(62.419 8.977)">
      <path id="路径_90" data-name="路径 90" class="cls-2" d="M108.438,15.5a3.688,3.688,0,0,0-.84-.06,3.1,3.1,0,0,0-1.919.66,3.06,3.06,0,0,0-1.08,1.8v7.437h-1.2V14.48h1.2v1.739a3.27,3.27,0,0,1,3.059-1.919,2.35,2.35,0,0,1,.78.12Z" transform="translate(-103.4 -14.3)"/>
    </g>
    <g id="组_17" data-name="组 17" transform="translate(68.477 8.977)">
      <path id="路径_91" data-name="路径 91" class="cls-2" d="M120.877,25.335a7.086,7.086,0,0,1-.24-1.5,4.229,4.229,0,0,1-1.619,1.259,4.782,4.782,0,0,1-2.039.42,3.5,3.5,0,0,1-2.519-.9,3.056,3.056,0,0,1,.36-4.738,6.473,6.473,0,0,1,3.658-.9h2.159V17.719a2.263,2.263,0,0,0-.72-1.8,3.139,3.139,0,0,0-2.1-.66,3.373,3.373,0,0,0-2.1.66,1.967,1.967,0,0,0-.84,1.559h-1.2a2.8,2.8,0,0,1,1.2-2.219,4.446,4.446,0,0,1,2.939-.96,4.353,4.353,0,0,1,2.879.9,3.1,3.1,0,0,1,1.08,2.519v5.158a5.575,5.575,0,0,0,.36,2.339v.12ZM117.1,24.5a3.915,3.915,0,0,0,2.159-.6,3.173,3.173,0,0,0,1.379-1.559v-2.4h-2.159a5.29,5.29,0,0,0-2.819.66,2.014,2.014,0,0,0-1.02,1.739,1.949,1.949,0,0,0,.66,1.5A2.655,2.655,0,0,0,117.1,24.5Z" transform="translate(-113.5 -14.3)"/>
    </g>
    <g id="组_18" data-name="组 18" transform="translate(79.512 8.977)">
      <path id="路径_92" data-name="路径 92" class="cls-2" d="M138.917,22.576a1.71,1.71,0,0,0-.72-1.439,5.223,5.223,0,0,0-2.159-.84,7.85,7.85,0,0,1-2.279-.72,3.266,3.266,0,0,1-1.2-.96,2.485,2.485,0,0,1-.36-1.379,2.535,2.535,0,0,1,1.08-2.1,4.444,4.444,0,0,1,2.759-.84,4.639,4.639,0,0,1,2.939.9,2.9,2.9,0,0,1,1.08,2.339h-1.2a1.827,1.827,0,0,0-.78-1.559,3.474,3.474,0,0,0-3.9-.12,1.6,1.6,0,0,0-.72,1.379,1.435,1.435,0,0,0,.6,1.259,8,8,0,0,0,2.159.84,12.449,12.449,0,0,1,2.4.78,3.386,3.386,0,0,1,1.2,1.02,2.849,2.849,0,0,1,.36,1.439,2.578,2.578,0,0,1-1.14,2.219,4.69,4.69,0,0,1-2.879.84,4.879,4.879,0,0,1-3.059-.9,2.845,2.845,0,0,1-1.2-2.339h1.2a2.035,2.035,0,0,0,.9,1.619,3.836,3.836,0,0,0,2.159.6,3.556,3.556,0,0,0,2.039-.54A1.738,1.738,0,0,0,138.917,22.576Z" transform="translate(-131.9 -14.3)"/>
    </g>
    <g id="组_19" data-name="组 19" transform="translate(37.89 4.838)">
      <path id="路径_93" data-name="路径 93" class="cls-2" d="M68.317,23.113a5.388,5.388,0,0,1-3.059-.9,5.457,5.457,0,0,1-2.039-2.459,9.447,9.447,0,0,1-.72-3.538V14.357a9.855,9.855,0,0,1,.66-3.6,5.24,5.24,0,0,1,2.1-2.519,7,7,0,0,1,3.179-.84A5.572,5.572,0,0,1,72.4,8.779,5.536,5.536,0,0,1,74.075,12.5l.06.36H72.156l-.06-.3c-.3-2.279-1.5-3.419-3.658-3.419a3.37,3.37,0,0,0-2.879,1.379,6.082,6.082,0,0,0-1.14,3.838v1.8a5.681,5.681,0,0,0,1.08,3.778,3.261,3.261,0,0,0,2.819,1.379,3.922,3.922,0,0,0,2.7-.78,3.956,3.956,0,0,0,1.08-2.579l.06-.3h1.919v.48a5.655,5.655,0,0,1-1.8,3.778A6.227,6.227,0,0,1,68.317,23.113Zm.12-14.993a6.15,6.15,0,0,0-2.819.72A4.664,4.664,0,0,0,63.819,11a8.495,8.495,0,0,0-.6,3.3v1.859a9.042,9.042,0,0,0,.66,3.239,5.289,5.289,0,0,0,1.8,2.159,4.734,4.734,0,0,0,2.7.78,4.87,4.87,0,0,0,3.478-1.14,4.5,4.5,0,0,0,1.5-2.939h-.54a4.394,4.394,0,0,1-1.259,2.7,4.594,4.594,0,0,1-3.179,1.02,4.1,4.1,0,0,1-3.419-1.619,6.671,6.671,0,0,1-1.2-4.258V14.3a6.964,6.964,0,0,1,1.259-4.318A4.138,4.138,0,0,1,68.437,8.42a3.954,3.954,0,0,1,4.318,3.718h.54a5.014,5.014,0,0,0-1.379-2.879A5.157,5.157,0,0,0,68.437,8.12Z" transform="translate(-62.5 -7.4)"/>
    </g>
    <g id="组_20" data-name="组 20" transform="translate(50.724 8.497)">
      <path id="路径_94" data-name="路径 94" class="cls-2" d="M89.178,25.555a5.69,5.69,0,0,1-2.7-.72,5.315,5.315,0,0,1-1.919-2.1A6.435,6.435,0,0,1,83.9,19.8v-.42a6.7,6.7,0,0,1,.66-3,5.67,5.67,0,0,1,1.8-2.1A4.569,4.569,0,0,1,92.3,15a5.624,5.624,0,0,1,1.2,3.9v1.02H85.879a4,4,0,0,0,.96,2.7A3.058,3.058,0,0,0,89.3,23.7a3.7,3.7,0,0,0,1.5-.3,3.3,3.3,0,0,0,1.2-1.02l.24-.3,1.319,1.02-.18.3A4.641,4.641,0,0,1,89.178,25.555Zm-.24-11.275a3.974,3.974,0,0,0-2.159.66A4.4,4.4,0,0,0,85.219,16.8a5.916,5.916,0,0,0-.54,2.639v.42a5.65,5.65,0,0,0,.54,2.579,5.1,5.1,0,0,0,1.619,1.8,4.535,4.535,0,0,0,2.339.6A3.909,3.909,0,0,0,92.6,23.276l-.24-.18a3.852,3.852,0,0,1-1.2.96,4.467,4.467,0,0,1-1.859.42,3.709,3.709,0,0,1-3-1.319,4.6,4.6,0,0,1-1.14-3.3v-.6h7.677v-.3a4.973,4.973,0,0,0-1.08-3.419A3.48,3.48,0,0,0,88.938,14.28Zm3.538,4.8H85.159l.06-.42a4.715,4.715,0,0,1,1.259-2.879A3.415,3.415,0,0,1,89,14.64a3.128,3.128,0,0,1,2.519,1.14,4.639,4.639,0,0,1,.96,2.759ZM86,18.358h5.758a3.857,3.857,0,0,0-.78-2.1,2.443,2.443,0,0,0-1.919-.9,2.686,2.686,0,0,0-2.039.9A3.662,3.662,0,0,0,86,18.358Z" transform="translate(-83.9 -13.5)"/>
    </g>
    <g id="组_21" data-name="组 21" transform="translate(62.059 8.617)">
      <path id="路径_95" data-name="路径 95" class="cls-2" d="M104.719,25.455H102.8V13.88h1.919v.96a3.494,3.494,0,0,1,2.7-1.14,2.922,2.922,0,0,1,.9.12l.24.06v1.8l-.42-.12a2.931,2.931,0,0,0-.78-.06,2.514,2.514,0,0,0-1.679.6,2.782,2.782,0,0,0-.96,1.559Zm-1.2-.72H104V17.6a3.952,3.952,0,0,1,.66-1.439l-.66-.18V14.6h-.48Zm3.9-10.316a2.906,2.906,0,0,0-2.7,1.619,1.825,1.825,0,0,1,.48-.48,3.468,3.468,0,0,1,2.159-.72h.48v-.36A.889.889,0,0,0,107.418,14.42Z" transform="translate(-102.8 -13.7)"/>
    </g>
    <g id="组_22" data-name="组 22" transform="translate(68.117 8.617)">
      <path id="路径_96" data-name="路径 96" class="cls-2" d="M116.738,25.635a3.809,3.809,0,0,1-2.759-1.02,3.373,3.373,0,0,1,.42-5.278,6.621,6.621,0,0,1,3.838-.96h1.8v-.9a1.749,1.749,0,0,0-.6-1.5,2.872,2.872,0,0,0-1.859-.6,2.773,2.773,0,0,0-1.859.6,1.556,1.556,0,0,0-.72,1.259v.36H113.08v-.36A3.215,3.215,0,0,1,114.4,14.72a4.811,4.811,0,0,1,3.179-1.02,5.082,5.082,0,0,1,3.119.96,3.536,3.536,0,0,1,1.2,2.819v5.158a5.9,5.9,0,0,0,.3,2.159l.06.06v.54H120.4l-.06-.24c-.06-.24-.12-.48-.18-.78a5.913,5.913,0,0,1-1.2.78A4.626,4.626,0,0,1,116.738,25.635Zm1.5-6.537a6.339,6.339,0,0,0-3.478.84,2.509,2.509,0,0,0-1.14,2.219,2.427,2.427,0,0,0,.84,1.979,3.1,3.1,0,0,0,2.279.78,4.972,4.972,0,0,0,1.919-.36,4.735,4.735,0,0,0,1.5-1.14l.54-.72.06.9a5.656,5.656,0,0,0,.18,1.2h.48a6.72,6.72,0,0,1-.24-2.1V17.478a2.59,2.59,0,0,0-.96-2.219,4.089,4.089,0,0,0-2.639-.84,3.861,3.861,0,0,0-2.7.9,2.457,2.457,0,0,0-1.02,1.559h.48a2.6,2.6,0,0,1,.96-1.5,3.747,3.747,0,0,1,2.339-.72,3.518,3.518,0,0,1,2.339.72,2.707,2.707,0,0,1,.84,2.1V19.1Zm-1.379,5.518a3.138,3.138,0,0,1-2.039-.72,2.394,2.394,0,0,1-.78-1.8,2.342,2.342,0,0,1,1.2-2.039,5.549,5.549,0,0,1,3-.72h2.519v2.819l-.06.06a3.419,3.419,0,0,1-1.559,1.739A3.936,3.936,0,0,1,116.858,24.615Zm1.379-4.558a4.917,4.917,0,0,0-2.639.6,1.685,1.685,0,0,0-.84,1.439,1.43,1.43,0,0,0,.54,1.2,2.4,2.4,0,0,0,1.559.6,3.775,3.775,0,0,0,1.979-.54,2.864,2.864,0,0,0,1.2-1.319V20.057Z" transform="translate(-112.9 -13.7)"/>
    </g>
    <g id="组_23" data-name="组 23" transform="translate(79.152 8.617)">
      <path id="路径_97" data-name="路径 97" class="cls-2" d="M135.918,25.755a5.252,5.252,0,0,1-3.3-.96,3.11,3.11,0,0,1-1.319-2.639V21.8h1.919v.3a1.845,1.845,0,0,0,.72,1.379,3.488,3.488,0,0,0,1.979.54,3.41,3.41,0,0,0,1.859-.48,1.385,1.385,0,0,0,.54-1.2,1.3,1.3,0,0,0-.6-1.14,4.993,4.993,0,0,0-2.039-.78,7.033,7.033,0,0,1-2.4-.78,3.365,3.365,0,0,1-1.319-1.02A2.715,2.715,0,0,1,131.54,17a2.955,2.955,0,0,1,1.2-2.4,4.817,4.817,0,0,1,3-.9,5.128,5.128,0,0,1,3.179.96,3.161,3.161,0,0,1,1.2,2.639v.36H138.2V17.3a1.419,1.419,0,0,0-.66-1.259,2.9,2.9,0,0,0-1.739-.6,2.667,2.667,0,0,0-1.679.48,1.2,1.2,0,0,0-.6,1.08,1.118,1.118,0,0,0,.42.96,8.459,8.459,0,0,0,2.039.78,16.768,16.768,0,0,1,2.459.78,3.572,3.572,0,0,1,1.319,1.14,2.971,2.971,0,0,1,.42,1.619,2.835,2.835,0,0,1-1.319,2.519A4.041,4.041,0,0,1,135.918,25.755Zm-3.9-3.239a2.418,2.418,0,0,0,1.02,1.679,4.628,4.628,0,0,0,2.819.84,4.067,4.067,0,0,0,2.639-.78,2.236,2.236,0,0,0,1.02-1.919,2.788,2.788,0,0,0-.3-1.259,2.782,2.782,0,0,0-1.08-.9,12.671,12.671,0,0,0-2.279-.72,9.212,9.212,0,0,1-2.279-.9A1.9,1.9,0,0,1,132.8,17a2.1,2.1,0,0,1,.84-1.679,3.417,3.417,0,0,1,2.159-.6,3.639,3.639,0,0,1,2.219.72,2.114,2.114,0,0,1,.9,1.5h.48a2.231,2.231,0,0,0-.96-1.679,4.386,4.386,0,0,0-2.7-.84,3.833,3.833,0,0,0-2.519.78,2.278,2.278,0,0,0-.96,1.8,2.362,2.362,0,0,0,.3,1.2,2.942,2.942,0,0,0,1.02.84,7.392,7.392,0,0,0,2.219.72,5.963,5.963,0,0,1,2.339.9,1.98,1.98,0,0,1,.84,1.739,2,2,0,0,1-.9,1.8,3.721,3.721,0,0,1-2.219.6,4.135,4.135,0,0,1-2.339-.66,2.341,2.341,0,0,1-1.02-1.559h-.48Z" transform="translate(-131.3 -13.7)"/>
    </g>
    <g id="组_24" data-name="组 24" transform="translate(92.046 5.378)">
      <path id="路径_98" data-name="路径 98" class="cls-2" d="M158.258,21.494l.3.9.3-.9L163.775,8.3h.6l-5.458,14.634h-.66L152.8,8.3h.6Z" transform="translate(-152.8 -8.3)"/>
    </g>
    <g id="组_25" data-name="组 25" transform="translate(104.401 8.857)">
      <path id="路径_99" data-name="路径 99" class="cls-2" d="M178.138,25.435a4.185,4.185,0,0,1-2.4-.72A5.358,5.358,0,0,1,174,22.8a6.005,6.005,0,0,1-.6-2.759v-.48A6.005,6.005,0,0,1,174,16.8a4.95,4.95,0,0,1,1.679-1.979,3.949,3.949,0,0,1,2.279-.72,3.791,3.791,0,0,1,3,1.319,4.812,4.812,0,0,1,1.139,3.419v.6H173.94v.6a5.671,5.671,0,0,0,.54,2.459,4.375,4.375,0,0,0,1.559,1.739,3.974,3.974,0,0,0,2.159.66,4.471,4.471,0,0,0,1.859-.36,3.521,3.521,0,0,0,1.379-1.14l.36.3A4.119,4.119,0,0,1,178.138,25.435Zm-.18-10.675a3.547,3.547,0,0,0-2.7,1.2,5.512,5.512,0,0,0-1.319,3H181.5v-.12a4.639,4.639,0,0,0-.48-2.039,3.462,3.462,0,0,0-1.259-1.5A3.173,3.173,0,0,0,177.958,14.76Z" transform="translate(-173.4 -14.1)"/>
    </g>
    <g id="组_26" data-name="组 26" transform="translate(115.556 8.977)">
      <path id="路径_100" data-name="路径 100" class="cls-2" d="M192.6,17a4.7,4.7,0,0,1,1.559-1.979,3.949,3.949,0,0,1,2.279-.72,3.21,3.21,0,0,1,2.579,1.02,4.7,4.7,0,0,1,.84,3V25.4h-.54V18.258a3.893,3.893,0,0,0-.72-2.579,2.8,2.8,0,0,0-2.219-.84,3.5,3.5,0,0,0-2.459,1.02,5.115,5.115,0,0,0-1.379,2.579V25.4H192V14.48h.54L192.6,17Z" transform="translate(-192 -14.3)"/>
    </g>
    <g id="组_27" data-name="组 27" transform="translate(125.572 6.218)">
      <path id="路径_101" data-name="路径 101" class="cls-2" d="M211.219,9.7v2.939h2.459v.54h-2.459v7.737a3.036,3.036,0,0,0,.36,1.679,1.4,1.4,0,0,0,1.259.54,8.427,8.427,0,0,0,1.08-.12l.12.54a4.65,4.65,0,0,1-1.14.12,2,2,0,0,1-1.679-.66,3.264,3.264,0,0,1-.54-2.1v-7.8H208.7v-.54h1.979V9.7Z" transform="translate(-208.7 -9.7)"/>
    </g>
    <g id="组_28" data-name="组 28" transform="translate(133.308 9.156)">
      <path id="路径_102" data-name="路径 102" class="cls-2" d="M228.917,25.455V23.716a3.535,3.535,0,0,1-1.379,1.439,4.5,4.5,0,0,1-2.339.54,3.48,3.48,0,0,1-2.7-1.02,4.542,4.542,0,0,1-.9-3.059V14.6h.54v7.017a4.189,4.189,0,0,0,.78,2.639,2.723,2.723,0,0,0,2.219.9,4.174,4.174,0,0,0,2.519-.72,3.289,3.289,0,0,0,1.259-2.159V14.6h.54V25.455Z" transform="translate(-221.6 -14.6)"/>
    </g>
    <g id="组_29" data-name="组 29" transform="translate(144.644 8.977)">
      <path id="路径_103" data-name="路径 103" class="cls-2" d="M245.3,14.84l-.72-.06a3.362,3.362,0,0,0-2.339.9,4.523,4.523,0,0,0-1.2,2.519v7.137h-.54V14.48h.54v2.279a3.564,3.564,0,0,1,3.538-2.459,3.039,3.039,0,0,1,.78.12Z" transform="translate(-240.5 -14.3)"/>
    </g>
    <g id="组_30" data-name="组 30" transform="translate(150.521 8.857)">
      <path id="路径_104" data-name="路径 104" class="cls-2" d="M255.038,25.435a4.185,4.185,0,0,1-2.4-.72A5.358,5.358,0,0,1,250.9,22.8a6.006,6.006,0,0,1-.6-2.759v-.48a6.006,6.006,0,0,1,.6-2.759,4.95,4.95,0,0,1,1.679-1.979,4.09,4.09,0,0,1,2.279-.72,3.791,3.791,0,0,1,3,1.319A4.812,4.812,0,0,1,259,18.838v.6H250.84v.6a5.671,5.671,0,0,0,.54,2.459,4.374,4.374,0,0,0,1.559,1.739,3.974,3.974,0,0,0,2.159.66,4.471,4.471,0,0,0,1.859-.36,3.521,3.521,0,0,0,1.379-1.14l.36.3A4.258,4.258,0,0,1,255.038,25.435ZM254.8,14.76a3.547,3.547,0,0,0-2.7,1.2,5.512,5.512,0,0,0-1.319,3h7.557v-.12a4.639,4.639,0,0,0-.48-2.039,3.462,3.462,0,0,0-1.259-1.5A2.914,2.914,0,0,0,254.8,14.76Z" transform="translate(-250.3 -14.1)"/>
    </g>
    <g id="组_31" data-name="组 31" transform="translate(161.136 8.977)">
      <path id="路径_105" data-name="路径 105" class="cls-2" d="M275.257,22.7c0-1.319-1.139-2.219-3.359-2.7a7.2,7.2,0,0,1-2.819-1.08,2.321,2.321,0,0,1-.78-1.859,2.5,2.5,0,0,1,1.02-1.979,4.067,4.067,0,0,1,2.639-.78,4.5,4.5,0,0,1,2.819.84,2.708,2.708,0,0,1,1.079,2.279h-.54a2.215,2.215,0,0,0-.9-1.8,4.485,4.485,0,0,0-4.678-.12,2.016,2.016,0,0,0-.54,2.7,2.4,2.4,0,0,0,1.02.78,11.641,11.641,0,0,0,2.039.66,10.033,10.033,0,0,1,2.159.72,2.39,2.39,0,0,1,1.139,1.02,2.484,2.484,0,0,1,.36,1.379,2.357,2.357,0,0,1-1.079,2.039,4.424,4.424,0,0,1-2.759.78,4.879,4.879,0,0,1-2.939-.84A2.62,2.62,0,0,1,268,22.576h.54a2.17,2.17,0,0,0,1.02,1.8,4.338,4.338,0,0,0,2.519.66,4,4,0,0,0,2.339-.66A2.285,2.285,0,0,0,275.257,22.7Z" transform="translate(-268 -14.3)"/>
    </g>
    <g id="组_32" data-name="组 32" transform="translate(91.507 5.018)">
      <path id="路径_106" data-name="路径 106" class="cls-2" d="M158.2,23.293l-.06-.24h-.48L151.9,7.7h1.379l.12.24,4.8,13.074L163.175,7.7h1.379L158.8,23.053h-.54Z" transform="translate(-151.9 -7.7)"/>
    </g>
    <g id="组_33" data-name="组 33" transform="translate(104.041 8.497)">
      <path id="路径_107" data-name="路径 107" class="cls-2" d="M177.9,25.555a4.361,4.361,0,0,1-2.579-.78,5.512,5.512,0,0,1-1.859-2.039,6.435,6.435,0,0,1-.66-2.939v-.48a6.051,6.051,0,0,1,.66-2.939,5.67,5.67,0,0,1,1.8-2.1,4.13,4.13,0,0,1,2.459-.78,4.23,4.23,0,0,1,3.3,1.439,5.089,5.089,0,0,1,1.2,3.658v.96h-8.156v.24a5.741,5.741,0,0,0,.48,2.279,3.622,3.622,0,0,0,1.439,1.559,3.478,3.478,0,0,0,1.979.6,5.282,5.282,0,0,0,1.739-.3,3.269,3.269,0,0,0,1.259-1.02l.24-.3.9.72-.18.3A4.614,4.614,0,0,1,177.9,25.555Zm-3.778-7.2H180.9a4.965,4.965,0,0,0-.42-1.619,3.222,3.222,0,0,0-1.139-1.379,3.016,3.016,0,0,0-1.619-.48,3.23,3.23,0,0,0-2.459,1.08A5.592,5.592,0,0,0,174.119,18.358Z" transform="translate(-172.8 -13.5)"/>
    </g>
    <g id="组_34" data-name="组 34" transform="translate(115.196 8.617)">
      <path id="路径_108" data-name="路径 108" class="cls-2" d="M199.976,25.515h-1.259v-7.5a3.913,3.913,0,0,0-.6-2.339,2.5,2.5,0,0,0-1.979-.72,3.29,3.29,0,0,0-2.219.9,4.91,4.91,0,0,0-1.259,2.339v7.257H191.4V13.88h1.259V15.5a5.468,5.468,0,0,1,1.02-1.02,4.442,4.442,0,0,1,2.519-.78,3.741,3.741,0,0,1,2.879,1.14,5.08,5.08,0,0,1,.9,3.239Zm-7.857-8.4v.36a.852.852,0,0,0,.12-.36Z" transform="translate(-191.4 -13.7)"/>
    </g>
    <g id="组_35" data-name="组 35" transform="translate(125.212 5.858)">
      <path id="路径_109" data-name="路径 109" class="cls-2" d="M212.658,23.794a2.291,2.291,0,0,1-1.979-.84,3.453,3.453,0,0,1-.6-2.279V13.238H208.1V11.979h1.979V9.1h1.259v2.939H213.8V13.3h-2.459v7.377a2.961,2.961,0,0,0,.3,1.5c.24.36.78.42,1.8.3l.54-.06.24,1.2-.36.06A6.186,6.186,0,0,1,212.658,23.794Z" transform="translate(-208.1 -9.1)"/>
    </g>
    <g id="组_36" data-name="组 36" transform="translate(132.949 8.797)">
      <path id="路径_110" data-name="路径 110" class="cls-2" d="M224.958,25.815a3.672,3.672,0,0,1-2.939-1.14,5.041,5.041,0,0,1-1.02-3.3V14h1.259v7.377a3.582,3.582,0,0,0,.72,2.4,2.475,2.475,0,0,0,1.919.78,3.678,3.678,0,0,0,2.279-.66,2.843,2.843,0,0,0,1.14-1.919V14h1.259V25.575h-1.259v-1.02a4.529,4.529,0,0,1-.84.66A4.614,4.614,0,0,1,224.958,25.815Zm3.658-2.459.24.06v-.66A6.218,6.218,0,0,1,228.617,23.356Z" transform="translate(-221 -14)"/>
    </g>
    <g id="组_37" data-name="组 37" transform="translate(144.284 8.617)">
      <path id="路径_111" data-name="路径 111" class="cls-2" d="M241.159,25.455H239.9V13.88h1.259v1.259a2.936,2.936,0,0,1,.78-.72,4.185,4.185,0,0,1,2.4-.72,3.126,3.126,0,0,1,.84.12l.3.06-.18,1.08-1.08-.06a2.8,2.8,0,0,0-2.039.78,4.263,4.263,0,0,0-1.08,2.339Zm-.54-8.876v.6l.18-.54Z" transform="translate(-239.9 -13.7)"/>
    </g>
    <g id="组_38" data-name="组 38" transform="translate(150.161 8.497)">
      <path id="路径_112" data-name="路径 112" class="cls-2" d="M254.8,25.555a4.361,4.361,0,0,1-2.579-.78,5.512,5.512,0,0,1-1.859-2.039,6.435,6.435,0,0,1-.66-2.939v-.48a6.051,6.051,0,0,1,.66-2.939,5.67,5.67,0,0,1,1.8-2.1,4.4,4.4,0,0,1,5.757.66,5.089,5.089,0,0,1,1.2,3.658v.96h-8.156v.24a5.741,5.741,0,0,0,.48,2.279,3.622,3.622,0,0,0,1.439,1.559,3.478,3.478,0,0,0,1.979.6,5.282,5.282,0,0,0,1.739-.3,3.269,3.269,0,0,0,1.259-1.02l.24-.3.9.78-.18.3A4.867,4.867,0,0,1,254.8,25.555Zm-3.838-7.2h6.777a4.964,4.964,0,0,0-.42-1.619,3.222,3.222,0,0,0-1.139-1.379,2.729,2.729,0,0,0-1.619-.48,3.23,3.23,0,0,0-2.459,1.08A5.592,5.592,0,0,0,250.959,18.358Zm5.4-3.718c.06.06.18.12.24.18a4,4,0,0,1,1.379,1.619,3.467,3.467,0,0,1,.3.84,4.244,4.244,0,0,0-.9-1.8A2.637,2.637,0,0,0,256.357,14.64Z" transform="translate(-249.7 -13.5)"/>
    </g>
    <g id="组_39" data-name="组 39" transform="translate(160.777 8.617)">
      <path id="路径_113" data-name="路径 113" class="cls-2" d="M271.838,25.695a5.376,5.376,0,0,1-3.179-.9,3.041,3.041,0,0,1-1.259-2.459v-.36h1.259v.36a1.691,1.691,0,0,0,.84,1.5,3.99,3.99,0,0,0,2.339.6,3.654,3.654,0,0,0,2.159-.6,1.889,1.889,0,0,0,.66-1.379q0-1.709-3.059-2.339a7.271,7.271,0,0,1-2.939-1.14,2.762,2.762,0,0,1-.9-2.159,2.837,2.837,0,0,1,1.14-2.279,4.333,4.333,0,0,1,2.879-.84,5.124,5.124,0,0,1,3.059.9,3.134,3.134,0,0,1,1.2,2.579v.36h-1.259v-.36a1.8,1.8,0,0,0-.78-1.5,3.431,3.431,0,0,0-2.159-.66,3.629,3.629,0,0,0-2.1.54,1.653,1.653,0,0,0-.66,1.259,1.339,1.339,0,0,0,.24.9c.12.24.42.42.9.66a12.58,12.58,0,0,0,1.979.66,12.068,12.068,0,0,1,2.219.72,3.058,3.058,0,0,1,1.319,1.14,3.166,3.166,0,0,1,.42,1.559A2.683,2.683,0,0,1,274.9,24.8,5,5,0,0,1,271.838,25.695Z" transform="translate(-267.4 -13.7)"/>
    </g>
  </g>
</svg>
