<svg xmlns="http://www.w3.org/2000/svg" width="100" height="24" viewBox="0 0 100 24">
    <g id="cofix" transform="translate(0 0)">
        <path id="路径_29" data-name="路径 29"
              d="M-2755.256-40.08l3.88,1.32,7.8,7.76Zm-4.2,1.32,3.88-1.32L-2767.256-31Zm8.281-.2-1.321-3.88,9.08,11.68Zm-7.16-3.88-1.321,3.88-7.76,7.8Zm25.72,3.84v-4.356l3.68-3.644h9.919v1.664h-9.2l-2.72,2.693v1.98h11.92V-39Zm15.48-.04v-4.316l3.68-3.644h10.76v7.96Zm1.64-3.6v2.02h11.16v-4.713h-8.44Zm40.959.4.36-.752-.36-.753,6.4-3.168.72,1.506-4.92,2.416,4.92,2.416-.72,1.5Zm-7.64,1.664,4.921-2.416-4.921-2.416.72-1.506,6.4,3.168-.36.753.36.752-6.4,3.168Zm-73.2.223,2.6-2.6,1.279,3.88Zm-2.68-2.6,2.6,2.6-3.881,1.281Zm72.64,3.841v-7.762h1.64v7.762Zm-15.48,0v-4.237l3.68-3.644h9.92v1.664h-9.2l-1.561,1.5h10.761v1.664h-11.921v3.049Zm-54.48-6.522,3.88-1.28-1.279,3.88Zm-3.96-1.28,3.881,1.28-2.6,2.6Zm8.161-.12,7.759-7.8-9.08,11.68Zm-16.24-7.8,7.76,7.8,1.321,3.88Zm23.84-.16-7.8,7.759-3.88,1.32Zm-15.88,7.759-7.8-7.759,11.679,9.08Z"
              transform="translate(2767.416 55)"/>
    </g>
</svg>
