<svg id="coinbase" xmlns="http://www.w3.org/2000/svg" width="134.363" height="30" viewBox="0 0 134.363 30">
  <defs>
    <style>
      .cls-1 {
        fill: #878787;
      }
    </style>
  </defs>
  <path id="路径_32" data-name="路径 32" class="cls-1" d="M27.113,6.712a8.535,8.535,0,0,0-8.7,8.663A8.437,8.437,0,0,0,27.113,24a8.552,8.552,0,0,0,8.775-8.662A8.478,8.478,0,0,0,27.113,6.712Zm.038,13.725a4.8,4.8,0,0,1-4.8-5.062,4.827,4.827,0,1,1,9.638,0A4.812,4.812,0,0,1,27.15,20.438Zm9.787-9.975h2.438v13.2h3.863V7.013h-6.3ZM8.663,10.275a4.434,4.434,0,0,1,4.275,3.113h4.088A8.143,8.143,0,0,0,8.7,6.675a8.566,8.566,0,0,0-8.7,8.7A8.415,8.415,0,0,0,8.7,24a8.2,8.2,0,0,0,8.325-6.75H12.938A4.388,4.388,0,0,1,8.7,20.4a4.782,4.782,0,0,1-4.8-5.063A4.753,4.753,0,0,1,8.663,10.275Zm101.962,3.488-2.85-.413c-1.35-.187-2.325-.637-2.325-1.725,0-1.163,1.275-1.725,2.962-1.725,1.875,0,3.075.788,3.337,2.137h3.75c-.412-3.337-3-5.325-6.975-5.325-4.088,0-6.825,2.1-6.825,5.063,0,2.85,1.763,4.463,5.362,4.988l2.85.412c1.388.188,2.175.75,2.175,1.763,0,1.313-1.35,1.875-3.225,1.875-2.288,0-3.6-.937-3.788-2.362H101.25c.375,3.263,2.925,5.55,7.575,5.55,4.237,0,7.05-1.95,7.05-5.25C115.875,15.787,113.813,14.25,110.625,13.763ZM41.287.15a2.374,2.374,0,0,0-2.475,2.438,2.475,2.475,0,0,0,4.95,0A2.374,2.374,0,0,0,41.287.15ZM98.212,12.713c0-3.6-2.212-6.038-6.862-6.038-4.388,0-6.863,2.213-7.35,5.625h3.863c.188-1.312,1.238-2.4,3.412-2.4,1.988,0,2.925.862,2.925,1.95,0,1.388-1.762,1.725-3.975,1.95-2.963.338-6.675,1.35-6.675,5.212,0,3,2.213,4.913,5.775,4.913,2.775,0,4.537-1.163,5.4-3a2.854,2.854,0,0,0,3.075,2.7h2.25V20.25H98.137l.075-7.537Zm-3.825,4.2a4.066,4.066,0,0,1-4.312,3.863c-1.462,0-2.7-.6-2.7-1.913,0-1.65,1.988-2.1,3.788-2.287,1.762-.15,2.7-.562,3.188-1.275v1.612ZM73.8,6.712a6.712,6.712,0,0,0-5.25,2.4V0H64.688V23.662h3.825V21.487A6.727,6.727,0,0,0,73.837,24c4.65,0,8.175-3.675,8.175-8.625S78.413,6.712,73.8,6.712Zm-.562,13.725a4.8,4.8,0,0,1-4.8-5.062,4.866,4.866,0,0,1,4.837-5.1,4.793,4.793,0,0,1,4.8,5.1A4.856,4.856,0,0,1,73.238,20.438ZM55.387,6.712A5.787,5.787,0,0,0,50.25,9.188V7.013H46.387v16.65H50.25V14.625c0-2.55,1.613-4.35,4.012-4.35A3.547,3.547,0,0,1,57.9,14.138v9.525h3.862V13.838C61.8,9.675,59.625,6.712,55.387,6.712Zm78.975,8.1a7.859,7.859,0,0,0-8.175-8.1,8.428,8.428,0,0,0-8.625,8.663,8.413,8.413,0,0,0,8.7,8.625c4.05,0,7.2-2.4,8.025-5.775h-4.05a3.863,3.863,0,0,1-3.9,2.325,4.69,4.69,0,0,1-4.8-4.237h12.825v-1.5Zm-12.6-1.275a4.325,4.325,0,0,1,4.35-3.45,4.062,4.062,0,0,1,4.275,3.45Z"/>
</svg>
