<svg xmlns="http://www.w3.org/2000/svg" width="240" height="80" viewBox="0 0 240 80">
  <g id="cointelegraph" transform="translate(-140 -152)">
    <rect id="矩形_19" data-name="矩形 19" width="240" height="80" transform="translate(140 152)" fill="none"/>
    <g id="cointelegraph_logo" transform="translate(175 172)">
      <path id="路径_485" data-name="路径 485" d="M24.695,28.7,17.566,31.76v-.318a24.475,24.475,0,0,1-4.328.636c-6.619-.064-11.966-3.5-12.029-7.638V22.913C3.373,26.1,7.892,28.2,13.238,28.132a17.7,17.7,0,0,0,5.283-.636l.636-1.528a18.157,18.157,0,0,1-5.855.891c-6.683,0-11.966-3.437-12.029-7.638V18.012c2.164,2.928,6.683,5.028,12.029,4.9a16.021,16.021,0,0,0,6.81-1.209l.318-1.528A14.9,14.9,0,0,1,13.3,21.7c-6.683.064-12.029-3.373-12.093-7.638V12.857c2.164,2.991,6.683,5.092,12.029,5.219a18.6,18.6,0,0,0,8.338-2.164l.318-1.846A15.884,15.884,0,0,1,13.238,16.8C6.619,16.675,1.273,13.175,1.209,8.847,1.273,4.71,6.619,1.273,13.3,1.209A14.512,14.512,0,0,1,23.167,4.9l.191.382h1.528L24.631,4.9C22.531,1.973,18.139,0,13.3,0,5.919,0,0,4.01,0,8.847V24.759c.255,4.71,6.046,8.529,13.3,8.529C18.076,33.287,22.4,31.441,24.695,28.7Z" fill="#003232"/>
      <path id="路径_486" data-name="路径 486" d="M21.831,39.461l2.482-10.5-7.192,3.055,4.392-18.2h-8.4L15.275,4.9h26.8l-2.164,8.911h-8.72l-1.846,4.964,9.674-4.01ZM26.222,26.8l-1.273,6.174,10.311-15.4-8.4,3.691,3.691-8.592h8.4l1.591-6.492H16.23l-1.591,6.492h8.4L19.03,29.914,26.222,26.8ZM60.592,10.82a3.257,3.257,0,0,1-1.146,2.419,4.1,4.1,0,0,1-2.673.891,3.531,3.531,0,0,1-2.864-1.209,4.787,4.787,0,0,1-1.082-3.373V8.974a5.864,5.864,0,0,1,.509-2.419,3.418,3.418,0,0,1,1.4-1.591,3.7,3.7,0,0,1,2.1-.573,4.1,4.1,0,0,1,2.673.891,3.289,3.289,0,0,1,1.146,2.482H58.682a1.861,1.861,0,0,0-.509-1.337,2.1,2.1,0,0,0-1.337-.446,1.726,1.726,0,0,0-1.464.7,3.868,3.868,0,0,0-.509,2.164v.7a4.027,4.027,0,0,0,.446,2.228,1.726,1.726,0,0,0,1.464.7,1.7,1.7,0,0,0,1.337-.446,1.814,1.814,0,0,0,.509-1.273C58.618,10.82,60.592,10.82,60.592,10.82Zm10.12-1.337a5.948,5.948,0,0,1-.509,2.482,3.989,3.989,0,0,1-1.4,1.655,4.137,4.137,0,0,1-4.2,0,3.942,3.942,0,0,1-1.464-1.591,5,5,0,0,1-.509-2.419V9.165a5.948,5.948,0,0,1,.509-2.482,3.989,3.989,0,0,1,1.4-1.655,4.137,4.137,0,0,1,4.2,0,3.576,3.576,0,0,1,1.4,1.655,5.948,5.948,0,0,1,.509,2.482C70.711,9.038,70.711,9.483,70.711,9.483Zm-2.037-.446a4.361,4.361,0,0,0-.509-2.291,1.909,1.909,0,0,0-3.055,0A3.733,3.733,0,0,0,64.6,8.974V9.42a4.269,4.269,0,0,0,.509,2.228,1.875,1.875,0,0,0,1.528.827,1.815,1.815,0,0,0,1.528-.764,3.733,3.733,0,0,0,.509-2.228ZM75.23,14H73.257V4.519H75.23ZM85.8,14H83.823L80,7.765V14H78.031V4.519H80l3.819,6.237V4.519H85.8ZM95.47,6.11H92.542V14H90.569V6.11H87.7V4.519H95.47ZM103.3,9.865H99.543v2.546h4.392V14H97.57V4.519h6.365V6.11H99.543V8.4H103.3V9.865Zm4.773,2.546h4.137V14H106.1V4.519h1.973v7.892ZM120.1,9.865h-3.755v2.546h4.392V14h-6.365V4.519h6.365V6.11h-4.392V8.4H120.1V9.865Zm10.311,2.928a2.953,2.953,0,0,1-1.464.955,5.74,5.74,0,0,1-2.164.318,4.72,4.72,0,0,1-2.164-.509,3.942,3.942,0,0,1-1.464-1.591,5.648,5.648,0,0,1-.509-2.419V8.911a5.948,5.948,0,0,1,.509-2.482,3.418,3.418,0,0,1,1.4-1.591,4.454,4.454,0,0,1,4.773.255,3.472,3.472,0,0,1,1.146,2.355h-1.909a1.683,1.683,0,0,0-.573-1.209,1.835,1.835,0,0,0-1.209-.382,1.815,1.815,0,0,0-1.528.764,4.269,4.269,0,0,0-.509,2.228v.636a3.587,3.587,0,0,0,.573,2.228,1.969,1.969,0,0,0,1.655.764,2.166,2.166,0,0,0,1.591-.446V10.374h-1.782V8.911h3.755l-.127,3.882Zm6.174-2.291h-1.528V14h-2.037V4.519h3.5a3.986,3.986,0,0,1,2.61.764,2.5,2.5,0,0,1,.891,2.1,2.485,2.485,0,0,1-.446,1.591A3.466,3.466,0,0,1,138.3,9.993l2.037,3.882V14h-2.1l-1.655-3.5Zm-1.591-1.591h1.591a1.556,1.556,0,0,0,1.146-.382,1.344,1.344,0,0,0,.382-1.018,1.5,1.5,0,0,0-.382-1.082,1.556,1.556,0,0,0-1.146-.382h-1.591V8.911Zm12.984,3.119h-3.437L143.9,14h-2.1l3.564-9.483h1.846L150.779,14h-2.1l-.7-1.973Zm-2.928-1.591h2.355L146.2,6.874l-1.146,3.564Zm9.483.191V14h-1.973V4.519h3.691a4.65,4.65,0,0,1,1.909.382,3.053,3.053,0,0,1,1.273,1.082,2.939,2.939,0,0,1,.446,1.655,2.8,2.8,0,0,1-.955,2.228,4.186,4.186,0,0,1-2.673.827h-1.718Zm0-1.591h1.718a1.835,1.835,0,0,0,1.209-.382,1.344,1.344,0,0,0,.382-1.018,1.777,1.777,0,0,0-.382-1.146,1.579,1.579,0,0,0-1.146-.446h-1.782ZM170,14h-1.973V9.929h-3.819V14h-1.973V4.519h1.973V8.4h3.819V4.519H170ZM0,0" fill="#003232"/>
    </g>
  </g>
</svg>
