<svg xmlns="http://www.w3.org/2000/svg" width="137.079" height="24" viewBox="0 0 137.079 24">
  <defs>
    <style>
      .cls-1 {
        fill: #878787;
      }
    </style>
  </defs>
  <g id="coinone" transform="translate(-0.595 -0.1)">
    <path id="路径_212" data-name="路径 212" class="cls-1" d="M98.762,4.757a8,8,0,1,1-8,8h0A8.022,8.022,0,0,1,98.762,4.757Zm-41.562,0a8,8,0,1,1-8,8A8,8,0,0,1,57.2,4.757ZM41.384,4.669a7.733,7.733,0,0,1,6.458,3.137l.132.2L46.041,9.941a5.273,5.273,0,0,0-4.569-2.548,5.158,5.158,0,0,0-5.185,5.13c0,.047,0,.095,0,.142a5.106,5.106,0,0,0,4.935,5.27c.083,0,.166,0,.25,0a5.587,5.587,0,0,0,4.464-2.3l.105-.158,1.933,1.845a7.908,7.908,0,0,1-6.59,3.339,8.1,8.1,0,0,1-8.084-8A8.1,8.1,0,0,1,41.384,4.669Zm92.262.088a7.97,7.97,0,0,1,8,7.943v.053a6.657,6.657,0,0,0,0,1.23h0l-12.89-.088v.088a4.938,4.938,0,0,0,5.008,4.042,6.576,6.576,0,0,0,4.921-2.2l.062-.062,1.845,1.845a9.155,9.155,0,0,1-6.942,3.075,8.084,8.084,0,0,1-8-8,7.909,7.909,0,0,1,7.907-7.909h.089Zm-63.089.527V20.222H67.744V5.284ZM81.8,4.757c3.708,0,6.4,2.539,6.5,7.284v8.181H85.494V12.314c0-3.427-1.582-4.921-4.042-4.921s-4.393,1.924-4.481,4.789V20.09H74.159V5.2h2.812V7.129A6.15,6.15,0,0,1,81.8,4.757Zm34.972,0c3.708,0,6.4,2.539,6.5,7.284v8.181h-2.812V12.314c0-3.427-1.582-4.921-4.042-4.921s-4.393,1.924-4.481,4.789V20.09H109.13V5.2h2.812V7.129A6.15,6.15,0,0,1,116.775,4.757ZM98.762,7.393a5.272,5.272,0,0,0-5.184,5.358v0a5.184,5.184,0,0,0,10.368,0,5.272,5.272,0,0,0-5.182-5.36Zm-41.562,0a5.272,5.272,0,0,0-5.184,5.358v0a5.272,5.272,0,0,0,5.182,5.36h0a5.352,5.352,0,0,0,5.184-5.36A5.272,5.272,0,0,0,57.2,7.393Zm84.441,6.59Zm-8-6.678a5.1,5.1,0,0,0-5.07,4.06v.158h10.193A4.947,4.947,0,0,0,133.646,7.305ZM69.15.1A1.757,1.757,0,0,1,70.82,1.769,1.669,1.669,0,1,1,69.15.1Z" transform="translate(-3.968)"/>
    <path id="路径_213" data-name="路径 213" class="cls-1" d="M20.563,12.373s-1.511,2.285-2.715,3.734a6.807,6.807,0,0,1-5.492,2.856,6.432,6.432,0,0,1-6.469-6.4c0-.065,0-.13,0-.2a6.422,6.422,0,0,1,6.262-6.58c.075,0,.148,0,.222,0a6.728,6.728,0,0,1,5.492,2.847c1.186,1.45,2.7,3.734,2.7,3.734l2.9-4.007a11.783,11.783,0,1,0,0,8.014Z" transform="translate(0 -0.059)"/>
  </g>
</svg>
