<svg xmlns="http://www.w3.org/2000/svg" width="48" height="48" viewBox="0 0 48 48">
  <defs>
    <style>
      .cls-1, .cls-2 {
        fill: #eaaa00;
      }

      .cls-1 {
        stroke: #000;
        opacity: 0.2;
      }

      .cls-3 {
        stroke: none;
      }

      .cls-4 {
        fill: none;
      }
    </style>
  </defs>
  <g id="coming_soon_icon" data-name="coming soon_icon" transform="translate(-243 -289)">
    <g id="椭圆_8" data-name="椭圆 8" class="cls-1" transform="translate(243 289)">
      <circle class="cls-3" cx="24" cy="24" r="24"/>
      <circle class="cls-4" cx="24" cy="24" r="23.5"/>
    </g>
    <path id="路径_22" data-name="路径 22" class="cls-2" d="M17.034,54.686c.98,1.872,2.6,5.568,4.032,6.074.169-.135.333-.272.5-.41.216-3.384,5.38-4.618,6.3-.137.943,4.575-3.281,2.832-5.188,4.2,1.055,2.08,2.179,4.347,3.234,6.43-1.52.809-3.994,2.9-5.8,3.208-.338-.059-.321-.433-.439-.584.6-3.823-1.993-6.71-5.676-2.821-3.044,3.218,3.14,4.838,2.8,5.746-1.82,1.122-3.689,2.172-5.5,3.29-1.255-2-2.531-4.09-3.783-6.091l-.753.339c-.769,2.724-4.824,5.575-6.478.572-1.349-4.088,2.47-3.9,4.7-4.131q.215-.18.427-.365C4.3,67.888,3.075,65.727,1.961,63.6c1.923-1.111,3.9-2.332,5.821-3.446,1.529,1.6-.826,5.39,3.145,5.3,2.514-.055,4.813-3.312,3.061-5.572-.969-.553-2.35-.489-2.664-1.222s.08-.483.115-.727c1.89-1.055,3.708-2.2,5.6-3.251" transform="matrix(0.966, -0.259, 0.259, 0.966, 236.083, 252.228)"/>
  </g>
</svg>
