<svg xmlns="http://www.w3.org/2000/svg" width="89.229" height="24" viewBox="0 0 89.229 24">
  <defs>
    <style>
      .cls-1 {
        fill: #878787;
      }
    </style>
  </defs>
  <g id="deepchain" transform="translate(-10.662 -4.039)">
    <g id="XMLID_29_" transform="translate(10.662 4.039)">
      <path id="XMLID_26_" class="cls-1" d="M51.126,44.5H34.059V27.437H51.126Zm-16.771-.3H50.83V27.733H34.355Z" transform="translate(-30.593 -23.971)"/>
      <circle id="XMLID_25_" class="cls-1" cx="0.723" cy="0.723" r="0.723" transform="translate(2.892 2.892)"/>
      <circle id="XMLID_24_" class="cls-1" cx="0.723" cy="0.723" r="0.723" transform="translate(11.277 0)"/>
      <circle id="XMLID_23_" class="cls-1" cx="0.723" cy="0.723" r="0.723" transform="translate(19.663 2.892)"/>
      <circle id="XMLID_22_" class="cls-1" cx="0.723" cy="0.723" r="0.723" transform="translate(2.892 19.663)"/>
      <circle id="XMLID_21_" class="cls-1" cx="0.723" cy="0.723" r="0.723" transform="translate(19.663 19.663)"/>
      <rect id="XMLID_20_" class="cls-1" width="8.87" height="0.296" transform="translate(3.566 3.475) rotate(-19.038)"/>
      <circle id="XMLID_19_" class="cls-1" cx="0.723" cy="0.723" r="0.723" transform="translate(11.277 22.554)"/>
      <circle id="XMLID_18_" class="cls-1" cx="0.723" cy="0.723" r="0.723" transform="translate(22.551 11.132)"/>
      <rect id="XMLID_17_" class="cls-1" width="0.296" height="8.87" transform="translate(20.243 3.518) rotate(-19.026)"/>
      <rect id="XMLID_16_" class="cls-1" width="8.87" height="0.296" transform="translate(20.241 20.193) rotate(-70.962)"/>
      <circle id="XMLID_15_" class="cls-1" cx="0.723" cy="0.723" r="0.723" transform="translate(0 11.132)"/>
      <rect id="XMLID_14_" class="cls-1" width="8.87" height="0.296" transform="translate(0.582 11.807) rotate(-70.962)"/>
      <rect id="XMLID_13_" class="cls-1" width="0.296" height="8.87" transform="translate(0.583 11.904) rotate(-19.026)"/>
      <g id="XMLID_8_" transform="translate(4.17 4.172)">
        <path id="XMLID_12_" class="cls-1" d="M71.028,55.558l-5.257,5.319.481.475a1.089,1.089,0,0,0,.841.4,1.5,1.5,0,0,0,.867-.509l3.467-3.509a1.55,1.55,0,0,0,.483-.837,1.044,1.044,0,0,0-.4-.862Z" transform="translate(-61.777 -52.098)"/>
        <path id="XMLID_9_" class="cls-1" d="M46.639,32.2a7.828,7.828,0,1,0,7.828,7.828A7.828,7.828,0,0,0,46.639,32.2Zm4.513,9.119a2.477,2.477,0,0,1-.528.774l-.378.383-.976-.965.321-.325a1.112,1.112,0,0,0,.329-.658.741.741,0,0,0-.232-.645.7.7,0,0,0-.705-.253,1.649,1.649,0,0,0-.637.409l-2.207,2.233c-.022.022-.043.04-.065.061l-1.216,1.231a1.268,1.268,0,0,0-.363.625.716.716,0,0,0,.265.66.991.991,0,0,0,.239.17.864.864,0,0,0,.315.093.817.817,0,0,0,.352-.069,1.2,1.2,0,0,0,.388-.278l.331-.335.976.965-.416.421a2.133,2.133,0,0,1-.711.48,2.332,2.332,0,0,1-.827.176,2.236,2.236,0,0,1-.838-.138,2.028,2.028,0,0,1-.735-.471,3.074,3.074,0,0,1-.489-.635,1.875,1.875,0,0,1-.252-.779,2.079,2.079,0,0,1,.109-.866,1.884,1.884,0,0,1,.213-.429,3.329,3.329,0,0,1-1.171-.788l-1.453-1.435,7.2-7.284,1.545,1.527a2.523,2.523,0,0,1,.88,1.841A2.419,2.419,0,0,1,49.9,38.4a2.375,2.375,0,0,1,.758.516,2.081,2.081,0,0,1,.675,1.556A2.249,2.249,0,0,1,51.152,41.32Z" transform="translate(-38.811 -32.201)"/>
      </g>
      <g id="XMLID_5_" transform="translate(3.51 3.51)">
        <path id="XMLID_7_" class="cls-1" d="M38.756,31.924,34.561,27.73l-.209.209,3.985,3.984Z" transform="translate(-34.352 -27.73)"/>
        <path id="XMLID_6_" class="cls-1" d="M95.382,110.614v.211h-.208l4.323,4.323-8.162,2.814.1.28,8.609-2.969Z" transform="translate(-82.894 -98.335)"/>
      </g>
      <g id="XMLID_2_" transform="translate(3.342 0.583)">
        <path id="XMLID_4_" class="cls-1" d="M95.679,14.886v.419l4.363-4.363L91.433,7.973l-.1.28L99.5,11.067Z" transform="translate(-82.727 -7.973)"/>
        <path id="XMLID_3_" class="cls-1" d="M37.2,115.993h-.063v-.356l-3.915,3.915,8.609,2.969.1-.28-8.162-2.814Z" transform="translate(-33.222 -99.687)"/>
      </g>
    </g>
    <g id="XMLID_1_" transform="translate(37.338 8.407)">
      <path id="路径_214" data-name="路径 214" class="cls-1" d="M197.591,44.706a2.514,2.514,0,0,1-.722,1.906,2.7,2.7,0,0,1-1.946.691h-4.2V33.525h4.2a2.676,2.676,0,0,1,1.946.7,2.543,2.543,0,0,1,.722,1.915Zm-2.069-.343V36.448q0-1.153-1.206-1.153h-1.532V45.534h1.479Q195.522,45.534,195.522,44.363Z" transform="translate(-190.724 -33.525)"/>
      <path id="路径_215" data-name="路径 215" class="cls-1" d="M252.869,74.3a.989.989,0,0,1-1.136,1.1h-3.478a.989.989,0,0,1-1.136-1.1V67.608a.989.989,0,0,1,1.136-1.1h3.478a.989.989,0,0,1,1.136,1.1v3.266l-.555.555h-3.266V73.92h1.893V72.441h1.928Zm-1.928-4.182V67.986h-1.893v2.131Z" transform="translate(-238.765 -61.621)"/>
      <path id="路径_216" data-name="路径 216" class="cls-1" d="M301.54,74.3a.989.989,0,0,1-1.136,1.1h-3.478a.989.989,0,0,1-1.136-1.1V67.608a.989.989,0,0,1,1.136-1.1H300.4a.989.989,0,0,1,1.136,1.1v3.266l-.555.555h-3.266V73.92h1.893V72.441h1.928V74.3Zm-1.928-4.182V67.986h-1.893v2.131Z" transform="translate(-280.226 -61.621)"/>
      <path id="路径_217" data-name="路径 217" class="cls-1" d="M350.4,73.411a1.585,1.585,0,0,1-.775,1.514,3.677,3.677,0,0,1-1.708.308q-.264,0-.744-.017t-.691-.018v3.249h-2.016V66.306h2.016v.326q.7-.106,1.409-.22a9.546,9.546,0,0,1,1.409-.141.965.965,0,0,1,1.1,1.083v6.057Zm-2.025-.555V67.988l-1.893.035v5.5h1.25Q348.374,73.525,348.374,72.856Z" transform="translate(-321.689 -61.42)"/>
      <path id="路径_218" data-name="路径 218" class="cls-1" d="M401.638,46.044a1.113,1.113,0,0,1-1.259,1.259h-4.3a1.1,1.1,0,0,1-1.224-1.259V34.792q0-1.268,1.224-1.268h4.3a1.117,1.117,0,0,1,1.259,1.268v3.222h-2.051v-2.72h-2.668V45.533h2.668v-2.9h2.051Z" transform="translate(-364.617 -33.524)"/>
      <path id="路径_219" data-name="路径 219" class="cls-1" d="M456.775,47.3H454.75V40.093l-1.893.035V47.3h-2.016V33.525h2.016v5.212q.7-.106,1.409-.22a9.546,9.546,0,0,1,1.409-.141.965.965,0,0,1,1.1,1.083V47.3Z" transform="translate(-412.305 -33.525)"/>
      <path id="路径_220" data-name="路径 220" class="cls-1" d="M506.169,75.4h-1.928v-.308l-1.373.211a10.2,10.2,0,0,1-1.365.132.965.965,0,0,1-1.1-1.083v-3.2a.989.989,0,0,1,1.136-1.1h2.72V68H502.33v1.268h-1.823V67.608a.989.989,0,0,1,1.136-1.1h3.407a.981.981,0,0,1,1.118,1.1V75.4Zm-1.911-1.6V71.411H502.33v2.456Z" transform="translate(-454.524 -61.621)"/>
      <path id="路径_221" data-name="路径 221" class="cls-1" d="M551.329,45.943h-2.016V43.865h2.016Zm-.018,10.169h-1.981V47.22h1.981Z" transform="translate(-496.189 -42.333)"/>
      <path id="路径_222" data-name="路径 222" class="cls-1" d="M578.84,75.2h-2.025V67.988l-1.893.035V75.2h-2.016V66.306h2.016v.326q.7-.114,1.4-.22a9.156,9.156,0,0,1,1.417-.141.965.965,0,0,1,1.1,1.083Z" transform="translate(-516.287 -61.42)"/>
    </g>
  </g>
</svg>
