<svg id="difilive_logo" xmlns="http://www.w3.org/2000/svg" width="33.628" height="24" viewBox="0 0 33.628 24">
  <defs>
    <style>
      .cls-1 {
        fill: #878787;
      }
    </style>
  </defs>
  <path id="路径_223" data-name="路径 223" class="cls-1" d="M590.066,60.3h1.745v4.72a2.767,2.767,0,0,1-2.766,2.766H587.3v-4.72a2.771,2.771,0,0,1,2.766-2.766Z" transform="translate(-558.184 -57.311)"/>
  <g id="组_49" data-name="组 49" transform="translate(0.02)">
    <path id="路径_224" data-name="路径 224" class="cls-1" d="M7.785,2.635A3.025,3.025,0,0,1,8.846,3.915a3.537,3.537,0,0,1,.312,1.4V9.17a4.078,4.078,0,0,1-.079.649,3.32,3.32,0,0,1-.327.917,2.9,2.9,0,0,1-1.165,1.215,3.548,3.548,0,0,1-1.765.421H2.5V2.1H5.827A3.3,3.3,0,0,1,7.785,2.635Zm.045,2.682A2.7,2.7,0,0,0,7.706,4.6a1.777,1.777,0,0,0-.565-.823,1.932,1.932,0,0,0-1.319-.4H3.829v7.7H5.822a2,2,0,0,0,1.3-.372,1.732,1.732,0,0,0,.58-.8,2.694,2.694,0,0,0,.134-.739V5.318Z" transform="translate(-2.396 -1.996)"/>
    <path id="路径_225" data-name="路径 225" class="cls-1" d="M3.826,10.48H.4V0H3.831A3.425,3.425,0,0,1,5.853.555h0a3.142,3.142,0,0,1,1.1,1.319,3.741,3.741,0,0,1,.322,1.443V7.169a4.259,4.259,0,0,1-.084.669,3.43,3.43,0,0,1-.337.947,2.941,2.941,0,0,1-1.2,1.254A3.662,3.662,0,0,1,3.826,10.48ZM.608,10.272H3.831a3.458,3.458,0,0,0,1.715-.411,2.743,2.743,0,0,0,1.12-1.17A3.374,3.374,0,0,0,6.989,7.8a3.9,3.9,0,0,0,.079-.635V3.317a3.52,3.52,0,0,0-.307-1.363A2.955,2.955,0,0,0,5.734.719h0A3.29,3.29,0,0,0,3.826.208H.6V10.272ZM3.826,9.2h-2.1V1.284h2.1a2.038,2.038,0,0,1,1.388.421,1.941,1.941,0,0,1,.595.873,2.85,2.85,0,0,1,.129.739V7.174a2.7,2.7,0,0,1-.139.773,1.857,1.857,0,0,1-.61.853A2.088,2.088,0,0,1,3.826,9.2ZM1.937,8.988H3.826a1.874,1.874,0,0,0,1.229-.352A1.609,1.609,0,0,0,5.6,7.883a2.517,2.517,0,0,0,.129-.714V3.322a2.677,2.677,0,0,0-.119-.684,1.727,1.727,0,0,0-.535-.778,1.818,1.818,0,0,0-1.249-.372H1.937Z" transform="translate(-0.4)"/>
  </g>
  <g id="组_50" data-name="组 50" transform="translate(8.14 3.044)">
    <path id="路径_226" data-name="路径 226" class="cls-1" d="M172.8,68.428a5.21,5.21,0,0,1-.248.62,2.939,2.939,0,0,1-1.165,1.244,3.54,3.54,0,0,1-1.765.436,3.472,3.472,0,0,1-1.76-.436,2.9,2.9,0,0,1-1.17-1.244,3.24,3.24,0,0,1-.322-.922,4.447,4.447,0,0,1-.074-.679v-.664a3.857,3.857,0,0,1,.084-.674,3.7,3.7,0,0,1,.317-.932,2.922,2.922,0,0,1,1.17-1.244,3.817,3.817,0,0,1,3.525,0,2.941,2.941,0,0,1,1.165,1.244,3.417,3.417,0,0,1,.327.932,3.852,3.852,0,0,1,.079.674v.664h-5.334a3.035,3.035,0,0,0,.05.426,1.958,1.958,0,0,0,.228.615,2.059,2.059,0,0,0,3.455-.025l.015-.03H172.8Zm-5.052-2.3h3.763l-.159-.407a1.6,1.6,0,0,0-.674-.684,2.248,2.248,0,0,0-1.056-.228,1.773,1.773,0,0,0-1.73.942A1.444,1.444,0,0,0,167.753,66.133Z" transform="translate(-166.196 -63.396)"/>
    <path id="路径_227" data-name="路径 227" class="cls-1" d="M167.631,68.836a3.6,3.6,0,0,1-1.81-.446,2.991,2.991,0,0,1-1.215-1.289,3.394,3.394,0,0,1-.332-.952,4.072,4.072,0,0,1-.074-.694v-.669a4.654,4.654,0,0,1,.084-.694,3.819,3.819,0,0,1,.322-.957,3.018,3.018,0,0,1,1.215-1.289,3.9,3.9,0,0,1,3.624,0,2.994,2.994,0,0,1,1.2,1.289,3.493,3.493,0,0,1,.337.957,4.591,4.591,0,0,1,.084.689v.773h-5.32c.01.1.02.2.04.3a1.857,1.857,0,0,0,.213.58,1.652,1.652,0,0,0,1.621.873,1.672,1.672,0,0,0,1.651-.9l.045-.084h1.631l-.045.139a5.285,5.285,0,0,1-.253.635,3.007,3.007,0,0,1-1.21,1.289A3.631,3.631,0,0,1,167.631,68.836Zm0-7.228a3.36,3.36,0,0,0-1.705.421,2.781,2.781,0,0,0-1.13,1.2,3.628,3.628,0,0,0-.307.907,3.686,3.686,0,0,0-.079.654v.659a4.253,4.253,0,0,0,.069.659,3.217,3.217,0,0,0,.312.9,2.754,2.754,0,0,0,1.13,1.2,3.672,3.672,0,0,0,3.416,0,2.787,2.787,0,0,0,1.12-1.2,4.932,4.932,0,0,0,.193-.471h-1.21a2.168,2.168,0,0,1-3.629,0,2.1,2.1,0,0,1-.238-.644,2.615,2.615,0,0,1-.05-.441l0-.1h5.339v-.56a4.149,4.149,0,0,0-.079-.649,3.215,3.215,0,0,0-.322-.9,2.8,2.8,0,0,0-1.125-1.2A3.33,3.33,0,0,0,167.631,61.608Zm2.043,2.633h-4.055l.03-.129a1.653,1.653,0,0,1,.159-.4,1.874,1.874,0,0,1,1.819-1,2.337,2.337,0,0,1,1.106.238,1.768,1.768,0,0,1,.719.734l0,.01Zm-3.778-.213h3.465l-.1-.258a1.507,1.507,0,0,0-.63-.64,2.115,2.115,0,0,0-1.006-.213,1.664,1.664,0,0,0-1.636.882C165.955,63.879,165.92,63.953,165.9,64.028Z" transform="translate(-164.2 -61.4)"/>
  </g>
  <g id="组_51" data-name="组 51" transform="translate(16.856)">
    <path id="路径_228" data-name="路径 228" class="cls-1" d="M343.434,3.384V6.6h4.66V7.886h-4.66v4.487H342.1V2.1h6.663V3.384Z" transform="translate(-341.996 -1.996)"/>
    <path id="路径_229" data-name="路径 229" class="cls-1" d="M341.542,10.48H340V0h6.871V1.492h-5.329V4.5h4.66V5.994h-4.66Zm-1.334-.208h1.125V5.786h4.66V4.71h-4.66V1.284h5.329V.208h-6.455Z" transform="translate(-340)"/>
  </g>
  <g id="组_52" data-name="组 52" transform="translate(25.205)">
    <path id="路径_230" data-name="路径 230" class="cls-1" d="M511.819,2.1V3.384H510.5V2.1Zm0,3.044h0v5.91a1.318,1.318,0,0,1-1.319,1.319h0V6.463a1.318,1.318,0,0,1,1.319-1.319Z" transform="translate(-510.396 -1.996)"/>
    <path id="路径_231" data-name="路径 231" class="cls-1" d="M508.4,10.48V4.467a1.426,1.426,0,0,1,1.423-1.423h.1V9.058A1.426,1.426,0,0,1,508.5,10.48Zm1.319-7.223a1.214,1.214,0,0,0-1.106,1.21v5.8a1.214,1.214,0,0,0,1.106-1.21Zm.208-1.765H508.4V0h1.527Zm-1.319-.208h1.111V.213h-1.106V1.284Z" transform="translate(-508.4)"/>
  </g>
  <g id="组_53" data-name="组 53" transform="translate(0 13.534)">
    <path id="路径_232" data-name="路径 232" class="cls-1" d="M8.763,283.973v1.279H2.1V275H3.434v8.973Z" transform="translate(-1.996 -274.901)"/>
    <path id="路径_233" data-name="路径 233" class="cls-1" d="M6.871,283.456H0V273H1.542v8.973H6.871Zm-6.663-.208H6.663v-1.071H1.334V273.2H.208Z" transform="translate(0 -273)"/>
  </g>
  <g id="组_54" data-name="组 54" transform="translate(8.849 13.529)">
    <path id="路径_234" data-name="路径 234" class="cls-1" d="M181.919,275v1.279H180.6V275Zm0,2.994h0v5.939a1.318,1.318,0,0,1-1.319,1.319h0v-5.939a1.328,1.328,0,0,1,1.319-1.319Z" transform="translate(-180.496 -274.896)"/>
    <path id="路径_235" data-name="路径 235" class="cls-1" d="M178.5,283.361v-6.043a1.426,1.426,0,0,1,1.423-1.423h.1v6.043a1.426,1.426,0,0,1-1.423,1.423Zm1.319-7.248a1.213,1.213,0,0,0-1.106,1.2v5.83a1.214,1.214,0,0,0,1.106-1.21Zm.213-1.72H178.5V272.9h1.527Zm-1.319-.208h1.106v-1.071h-1.106Z" transform="translate(-178.5 -272.9)"/>
  </g>
  <g id="组_55" data-name="组 55" transform="translate(12.027 16.524)">
    <path id="路径_236" data-name="路径 236" class="cls-1" d="M252.616,335.5l-2.751,7.253h-1.423L245.7,335.5h1.423l2.038,5.369L251.2,335.5Z" transform="translate(-245.546 -335.391)"/>
    <path id="路径_237" data-name="路径 237" class="cls-1" d="M246.988,340.766h-1.567L242.6,333.3h1.646l1.963,5.176,1.963-5.176h1.646Zm-1.418-.208h1.274l2.672-7.045h-1.195l-2.107,5.563-2.107-5.562h-1.195Z" transform="translate(-242.6 -333.3)"/>
  </g>
  <g id="组_56" data-name="组 56" transform="translate(19.806 16.459)">
    <path id="路径_238" data-name="路径 238" class="cls-1" d="M408,339.092a5.717,5.717,0,0,1-.248.63,2.918,2.918,0,0,1-1.165,1.259,3.74,3.74,0,0,1-3.525,0,2.929,2.929,0,0,1-1.17-1.259,3.279,3.279,0,0,1-.322-.937,4.578,4.578,0,0,1-.074-.689v-.674a4.455,4.455,0,0,1,.079-.679,3.7,3.7,0,0,1,.317-.942,2.959,2.959,0,0,1,1.17-1.259,3.74,3.74,0,0,1,3.525,0,2.945,2.945,0,0,1,1.165,1.259,3.542,3.542,0,0,1,.327.942,3.906,3.906,0,0,1,.079.679v.674h-5.325a2.557,2.557,0,0,0,.05.431,2.014,2.014,0,0,0,.228.625,1.759,1.759,0,0,0,1.715.937,1.779,1.779,0,0,0,1.745-.967l.015-.03Zm-5.052-2.33h3.763l-.159-.411a1.626,1.626,0,0,0-.674-.694,2.25,2.25,0,0,0-1.056-.223,1.772,1.772,0,0,0-1.73.952,1.736,1.736,0,0,0-.144.377Z" transform="translate(-401.401 -333.996)"/>
    <path id="路径_239" data-name="路径 239" class="cls-1" d="M402.931,339.531a3.6,3.6,0,0,1-1.81-.451,3.025,3.025,0,0,1-1.215-1.3,3.435,3.435,0,0,1-.332-.967,4.19,4.19,0,0,1-.074-.7v-.679a4.2,4.2,0,0,1,.084-.7,3.96,3.96,0,0,1,.322-.967,3,3,0,0,1,1.215-1.3,3.552,3.552,0,0,1,1.81-.451h0a3.553,3.553,0,0,1,1.819.456,3.03,3.03,0,0,1,1.2,1.3,3.5,3.5,0,0,1,.337.967,4.722,4.722,0,0,1,.084.7v.783h-5.329c.01.1.02.2.04.307a1.923,1.923,0,0,0,.218.59,1.651,1.651,0,0,0,1.621.882h0a1.659,1.659,0,0,0,1.646-.907l.045-.089h1.631l-.045.139a4.764,4.764,0,0,1-.253.64,3.056,3.056,0,0,1-1.21,1.309A3.514,3.514,0,0,1,402.931,339.531Zm0-7.318a3.344,3.344,0,0,0-1.7.426,2.817,2.817,0,0,0-1.13,1.215,3.769,3.769,0,0,0-.307.917,4.261,4.261,0,0,0-.079.664v.669a4.38,4.38,0,0,0,.069.669,3.225,3.225,0,0,0,.312.907,2.79,2.79,0,0,0,1.13,1.215,3.634,3.634,0,0,0,3.416,0,2.821,2.821,0,0,0,1.12-1.215,5.021,5.021,0,0,0,.193-.476h-1.2a1.886,1.886,0,0,1-1.824,1h0a1.861,1.861,0,0,1-1.8-1,2.129,2.129,0,0,1-.238-.649,2.729,2.729,0,0,1-.05-.446l0-.109h5.334v-.57a4.274,4.274,0,0,0-.079-.659,3.5,3.5,0,0,0-.317-.912,2.805,2.805,0,0,0-1.125-1.215,3.283,3.283,0,0,0-1.71-.431Zm-1.978,3.456v-1.006h.025a1.7,1.7,0,0,1,.134-.322,1.865,1.865,0,0,1,1.819-1.006,2.337,2.337,0,0,1,1.106.238,1.723,1.723,0,0,1,.719.739l0,.01.218.555h-3.837Zm.248-1.006h3.465l-.1-.263a1.518,1.518,0,0,0-.63-.645,2.154,2.154,0,0,0-1-.213,1.663,1.663,0,0,0-1.636.892A1.833,1.833,0,0,0,401.2,334.662Z" transform="translate(-399.5 -332)"/>
  </g>
  <path id="路径_240" data-name="路径 240" class="cls-1" d="M590.066,333.1h1.745v4.72a2.767,2.767,0,0,1-2.766,2.766H587.3v-4.72a2.768,2.768,0,0,1,2.766-2.766Z" transform="translate(-558.184 -316.586)"/>
</svg>
