<svg xmlns="http://www.w3.org/2000/svg" width="48" height="48" viewBox="0 0 48 48">
  <defs>
    <style>
      .cls-1, .cls-2 {
        fill: #eaaa00;
      }

      .cls-1 {
        stroke: #000;
        opacity: 0.2;
      }

      .cls-3 {
        stroke: none;
      }

      .cls-4 {
        fill: none;
      }
    </style>
  </defs>
  <g id="ecosystem_icon" transform="translate(-243 -289)">
    <g id="椭圆_8" data-name="椭圆 8" class="cls-1" transform="translate(243 289)">
      <circle class="cls-3" cx="24" cy="24" r="24"/>
      <circle class="cls-4" cx="24" cy="24" r="23.5"/>
    </g>
    <path id="路径_17" data-name="路径 17" class="cls-2" d="M-515.555,74a4.01,4.01,0,0,1,.117-.964l-4.05-2.956A5.984,5.984,0,0,1-524,72.125a6,6,0,0,1-6-6,6,6,0,0,1,6-6,6.016,6.016,0,0,1,1.411.167l1.333-2.989A4,4,0,0,1-523,54a4,4,0,0,1,4-4,4,4,0,0,1,4,4,4,4,0,0,1-4,4q-.186,0-.367-.017l-1.383,3.1a6.027,6.027,0,0,1,1.983,2.107l8.825-3.5a4.029,4.029,0,0,1-.058-.682,4,4,0,0,1,4-4,4,4,0,0,1,4,4,4,4,0,0,1-4,4,3.993,3.993,0,0,1-3.119-1.495l-8.974,3.56A6.04,6.04,0,0,1-518,66.125a5.985,5.985,0,0,1-.435,2.247l3.962,2.892A3.988,3.988,0,0,1-511.556,70a4,4,0,0,1,4,4,4,4,0,0,1-4,4A4,4,0,0,1-515.555,74Z" transform="translate(783 249.001)"/>
  </g>
</svg>
