<svg xmlns="http://www.w3.org/2000/svg" width="48" height="48" viewBox="0 0 48 48">
  <defs>
    <style>
      .cls-1, .cls-2 {
        fill: #eaaa00;
      }

      .cls-1 {
        stroke: #000;
        opacity: 0.2;
      }

      .cls-3 {
        stroke: none;
      }

      .cls-4 {
        fill: none;
      }
    </style>
  </defs>
  <g id="FLEXIBILITY_icon" transform="translate(-243 -289)">
    <g id="椭圆_8" data-name="椭圆 8" class="cls-1" transform="translate(243 289)">
      <circle class="cls-3" cx="24" cy="24" r="24"/>
      <circle class="cls-4" cx="24" cy="24" r="23.5"/>
    </g>
    <path id="路径_26" data-name="路径 26" class="cls-2" d="M24.207,85.57l5.9,7.85c.48.81-.317.915-.727.915-.077,0-.14,0-.179-.009H26.477c-.252,1.826-1.9,9.96-8.94,9.96a.4.4,0,0,1-.169-.782h0c.155-.066,2.909-1.246,3.454-5.587a33.435,33.435,0,0,0,.2-3.59H18.3c-1.236,0-1.55-.368-.907-1.359l5.447-7.4a.889.889,0,0,1,.681-.236.859.859,0,0,1,.681.237ZM12.172,99.723h3.516c1.6,0,2,.471,1.172,1.751l-7.035,9.555a1.137,1.137,0,0,1-.877.3,1.114,1.114,0,0,1-.88-.3L.449,100.893c-.619-1.047.412-1.18.94-1.18.077,0,.156,0,.234.01H5.139c.327-2.356,2.45-12.859,11.542-12.859a.521.521,0,0,1,.217,1.01c-.152.064-3.754,1.571-4.464,7.213a43.385,43.385,0,0,0-.261,4.637Z" transform="translate(251.743 214.667)"/>
  </g>
</svg>
