<svg xmlns="http://www.w3.org/2000/svg" width="104.514" height="24" viewBox="0 0 104.514 24">
  <defs>
    <style>
      .cls-1 {
        fill: #878787;
      }
    </style>
  </defs>
  <g id="FORT" transform="translate(-96 36.6)">
    <path id="路径_30" data-name="路径 30" class="cls-1" d="M-2418.162-122.945l-4.645-7.613h-5.871v7.613h-4.452v-24h10s9.548,0,9.548,8.194a7.434,7.434,0,0,1-5.161,7.354l5.161,8.452Zm-10.516-12h5.548s4.774,0,4.774-3.742-4.774-3.742-4.774-3.742h-5.548Zm-62.322,12v-24h18.774v4.452h-14.323v6.839H-2473v4.452h-13.548v8.258Zm36.064-.258a11.9,11.9,0,0,1-6.129-3.29,11.906,11.906,0,0,1-3.291-6.129,12.06,12.06,0,0,1,.709-6.9,11.911,11.911,0,0,1,4.387-5.355,12.168,12.168,0,0,1,6.645-2,12.072,12.072,0,0,1,8.452,3.484,11.691,11.691,0,0,1,3.483,8.451,12.01,12.01,0,0,1-2,6.645,11.508,11.508,0,0,1-5.354,4.387,12.181,12.181,0,0,1-4.641.927A11.844,11.844,0,0,1-2454.936-123.2Zm-1.935-18.129a7.954,7.954,0,0,0-2.839,3.355,7.284,7.284,0,0,0-.452,4.387,6.917,6.917,0,0,0,2.065,3.871,6.916,6.916,0,0,0,3.871,2.065,7.846,7.846,0,0,0,4.387-.387,7.978,7.978,0,0,0,3.419-2.774,7.478,7.478,0,0,0,1.29-4.193,7.565,7.565,0,0,0-2.194-5.355,8.154,8.154,0,0,0-5.354-2.194A7.418,7.418,0,0,0-2456.871-141.332Zm58.386,18.323v-19.484h-7.548v-4.452h19.548v4.452h-7.548v19.484Z" transform="translate(2587 110.344)"/>
  </g>
</svg>
