<svg xmlns="http://www.w3.org/2000/svg" width="65" height="24" viewBox="0 0 129.333 48">
  <defs>
    <style>
      .cls-1 {
      fill: #0047bb;
      }
    </style>
  </defs>
  <g id="FORT_Blue_2022" transform="translate(-20 -20)">
    <path id="路径_353" data-name="路径 353" class="cls-1" d="M20,44,44,68V44H68L44,20Z" transform="translate(0 0)"/>
    <path id="路径_354" data-name="路径 354" class="cls-1" d="M62.7,67.233H73.233L77.767,62.7H62.7Z" transform="translate(-14.233 -14.233)"/>
    <path id="路径_355" data-name="路径 355" class="cls-1" d="M62.7,82.267,68.767,76.2H62.7Z" transform="translate(-14.233 -18.733)"/>
    <path id="路径_356" data-name="路径 356" class="cls-1" d="M163.533,64.2C163.533,56,154,56,154,56H144V80h4.467V72.467h4.4l5,7.533H163.6l-5.467-8.267A7.594,7.594,0,0,0,163.533,64.2ZM154,68h-5.6V60.467H154s4.8,0,4.8,3.8C158.8,68,154,68,154,68Z" transform="translate(-41.333 -12)"/>
    <path id="路径_357" data-name="路径 357" class="cls-1" d="M184.7,56v4.467h7.533V80H196.7V60.467h7.533V56Z" transform="translate(-54.9 -12)"/>
    <path id="路径_358" data-name="路径 358" class="cls-1" d="M108.7,56a12,12,0,1,0,12,12h0A11.992,11.992,0,0,0,108.7,56Zm7.467,12.067a7.6,7.6,0,1,1-7.533-7.667h0a7.64,7.64,0,0,1,7.533,7.667Z" transform="translate(-25.567 -12)"/>
  </g>
</svg>
