<svg xmlns="http://www.w3.org/2000/svg" width="240" height="80" viewBox="0 0 240 80">
  <g id="FORT" transform="translate(3 -57)">
    <rect id="矩形_19" data-name="矩形 19" width="240" height="80" transform="translate(-3 57)" fill="none"/>
    <path id="路径_350" data-name="路径 350" d="M-2414.339-121.685l-4.889-8.012h-6.179v8.012h-4.686v-25.26h10.525s10.05,0,10.05,8.624a7.824,7.824,0,0,1-5.432,7.74l5.432,8.9Zm-11.068-12.63h5.839s5.025,0,5.025-3.938-5.025-3.939-5.025-3.939h-5.839ZM-2491-121.685v-25.26h19.76v4.685h-15.074v7.2h14.259v4.685h-14.259v8.691Zm37.957-.272a12.525,12.525,0,0,1-6.45-3.463,12.531,12.531,0,0,1-3.463-6.451,12.693,12.693,0,0,1,.747-7.266,12.538,12.538,0,0,1,4.618-5.636,12.807,12.807,0,0,1,6.993-2.1,12.7,12.7,0,0,1,8.9,3.667,12.3,12.3,0,0,1,3.666,8.895,12.639,12.639,0,0,1-2.1,6.994,12.111,12.111,0,0,1-5.635,4.617,12.82,12.82,0,0,1-4.885.976A12.464,12.464,0,0,1-2453.043-121.957Zm-2.037-19.08a8.369,8.369,0,0,0-2.988,3.531,7.667,7.667,0,0,0-.476,4.617,7.282,7.282,0,0,0,2.173,4.074,7.278,7.278,0,0,0,4.074,2.173,8.258,8.258,0,0,0,4.617-.408,8.4,8.4,0,0,0,3.6-2.92,7.871,7.871,0,0,0,1.358-4.413,7.961,7.961,0,0,0-2.309-5.636,8.582,8.582,0,0,0-5.635-2.309A7.807,7.807,0,0,0-2455.08-141.037Zm61.451,19.284v-20.506h-7.945v-4.685H-2381v4.685h-7.945v20.506Z" transform="translate(2553 230.945)" fill="#878787"/>
  </g>
</svg>
