<svg xmlns="http://www.w3.org/2000/svg" width="100.568" height="24" viewBox="0 0 100.568 24">
  <defs>
    <style>
      .cls-1 {
        fill: #878787;
      }
    </style>
  </defs>
  <g id="Fortube" transform="translate(0 0.109)">
    <g id="图层_1-2" transform="translate(0 -0.11)">
      <path id="路径_114" data-name="路径 114" class="cls-1" d="M22.855,24.3A7.215,7.215,0,1,1,29.6,16.643v.911A7.253,7.253,0,0,1,22.855,24.3Zm0-11.211a4.036,4.036,0,1,0,3.555,4.466v-.911a4.157,4.157,0,0,0-3.555-3.555Z" transform="translate(-1.344 -0.775)"/>
      <path id="路径_115" data-name="路径 115" class="cls-1" d="M35.841,24.412h0A1.634,1.634,0,0,1,34.2,22.771V17.029a7.138,7.138,0,0,1,5.013-6.836,1.652,1.652,0,0,1,2.005,1.094c0,.182.091.273.091.456v.091a1.562,1.562,0,0,1-1.185,1.549,3.92,3.92,0,0,0-2.643,3.646v5.742a1.579,1.579,0,0,1-1.641,1.641Z" transform="translate(-3.028 -0.796)"/>
      <path id="路径_116" data-name="路径 116" class="cls-1" d="M82.034,8.923A7.632,7.632,0,0,0,78.388,10.2V1.631a1.6,1.6,0,1,0-3.19-.273V15.485h0v.365a7.306,7.306,0,1,0,7.747-6.836,3.419,3.419,0,0,0-.911-.091Zm0,11.393a4.127,4.127,0,1,1,.911-8.2,4.163,4.163,0,0,1,3.646,3.646,4.107,4.107,0,0,1-3.646,4.557,1.545,1.545,0,0,1-.911,0Z" transform="translate(-6.657 0.11)"/>
      <path id="路径_117" data-name="路径 117" class="cls-1" d="M68.851,9.891h0A1.536,1.536,0,0,0,67.3,11.441V18a3.4,3.4,0,0,1-.911,2.1,4.46,4.46,0,0,1-3.372,1.094,4.383,4.383,0,0,1-3.1-1,3.57,3.57,0,0,1-.82-2.37v-6.38A1.634,1.634,0,0,0,57.457,9.8,1.54,1.54,0,0,0,56,11.441v6.2a6.621,6.621,0,0,0,1.641,4.648,6.677,6.677,0,0,0,5.378,2.005,7.628,7.628,0,0,0,5.56-2.005A7.009,7.009,0,0,0,70.4,17.912V11.349A1.519,1.519,0,0,0,68.851,9.891Z" transform="translate(-4.957 -0.768)"/>
      <path id="路径_118" data-name="路径 118" class="cls-1" d="M55.657,3.846A1.828,1.828,0,0,0,57.48,2.023h0A1.828,1.828,0,0,0,55.657.2H42.623A1.828,1.828,0,0,0,40.8,2.023h0a1.828,1.828,0,0,0,1.823,1.823h4.831a1.156,1.156,0,0,0-.091.547V21.71a1.823,1.823,0,0,0,3.646,0V4.393a1.156,1.156,0,0,0-.091-.547Z" transform="translate(-3.612 0.082)"/>
      <path id="路径_119" data-name="路径 119" class="cls-1" d="M108.9,15.94h0a5.224,5.224,0,0,0-.365-1.276,7.313,7.313,0,1,0-4.01,9.57,8.932,8.932,0,0,0,2.005-1.185,1.68,1.68,0,0,0,.182-2.279,1.891,1.891,0,0,0-.911-.547h0a1.633,1.633,0,0,0-1.276.365,7.6,7.6,0,0,1-1.094.729,4.105,4.105,0,1,1,1.732-6.2l-3.919,1.641a1.374,1.374,0,0,0-.729,1.823h0a1.374,1.374,0,0,0,1.823.729h0l6.289-2.643A.611.611,0,0,0,108.9,15.94Z" transform="translate(-8.365 -0.801)"/>
      <path id="路径_120" data-name="路径 120" class="cls-1" d="M1.823,23.424h0A1.828,1.828,0,0,1,0,21.6V9.479A9.531,9.531,0,0,1,9.479,0h1.185A1.731,1.731,0,0,1,12.4,1.732v.091h0a1.731,1.731,0,0,1-1.732,1.732H9.479A6.01,6.01,0,0,0,3.464,9.57V21.693A1.654,1.654,0,0,1,1.823,23.424Z" transform="translate(0 0.1)"/>
      <path id="路径_121" data-name="路径 121" class="cls-1" d="M10.932,15.455H2V11.9h8.932a1.731,1.731,0,0,1,1.732,1.732h0a1.752,1.752,0,0,1-1.732,1.823Z" transform="translate(-0.177 -0.954)"/>
    </g>
  </g>
</svg>
