<svg xmlns="http://www.w3.org/2000/svg" width="48" height="48" viewBox="0 0 48 48">
  <defs>
    <style>
      .cls-1, .cls-2 {
        fill: #eaaa00;
      }

      .cls-1 {
        stroke: #000;
        opacity: 0.2;
      }

      .cls-3 {
        stroke: none;
      }

      .cls-4 {
        fill: none;
      }
    </style>
  </defs>
  <g id="github_icon" transform="translate(-252 -328)">
    <g id="椭圆_9" data-name="椭圆 9" class="cls-1" transform="translate(252 328)">
      <circle class="cls-3" cx="24" cy="24" r="24"/>
      <circle class="cls-4" cx="24" cy="24" r="23.5"/>
    </g>
    <path id="Logo_GitHub" data-name="Logo GitHub" class="cls-2" d="M91.965,77.992a13.6,13.6,0,0,1-2.68,8.23,13.749,13.749,0,0,1-6.89,5.06.84.84,0,0,1-.72-.13.71.71,0,0,1-.22-.55v-3.84a3.27,3.27,0,0,0-.95-2.59,13,13,0,0,0,1.86-.32,6.819,6.819,0,0,0,1.71-.72,5.15,5.15,0,0,0,1.47-1.2,5.75,5.75,0,0,0,1-1.92,9.18,9.18,0,0,0,.38-2.75,5.27,5.27,0,0,0-1.45-3.75,4.84,4.84,0,0,0-.14-3.72,2.39,2.39,0,0,0-1.47.2,9.389,9.389,0,0,0-1.68.8l-.69.43a13,13,0,0,0-7,0c-.2-.14-.45-.29-.77-.49a10.19,10.19,0,0,0-1.56-.74,2.59,2.59,0,0,0-1.57-.25,4.9,4.9,0,0,0-.13,3.75,5.43,5.43,0,0,0-1.44,3.77,9,9,0,0,0,.38,2.73,6.14,6.14,0,0,0,1,1.92,4.75,4.75,0,0,0,1.47,1.22,8.369,8.369,0,0,0,1.71.72,12.939,12.939,0,0,0,1.87.32,2.89,2.89,0,0,0-.9,1.88,3.1,3.1,0,0,1-.83.26,5.23,5.23,0,0,1-1,.09,2.16,2.16,0,0,1-1.28-.41,3.42,3.42,0,0,1-1-1.14,3,3,0,0,0-.88-.95,2.52,2.52,0,0,0-.9-.44h-.36a1.3,1.3,0,0,0-.53.08q-.15.09-.09.21a1.38,1.38,0,0,0,.17.25,1.73,1.73,0,0,0,.24.23l.13.08a2.44,2.44,0,0,1,.8.69,4.929,4.929,0,0,1,.57.92l.18.42a2.26,2.26,0,0,0,.8,1.13,3,3,0,0,0,1.21.52,6.13,6.13,0,0,0,1.26.13,5.69,5.69,0,0,0,1-.07l.42-.07V90.6a.72.72,0,0,1-.24.55.87.87,0,0,1-.73.13,13.689,13.689,0,0,1-6.85-5.09,13.369,13.369,0,0,1-2.68-8.2,13.669,13.669,0,0,1,1.88-7,13.859,13.859,0,0,1,5.12-5.12,13.971,13.971,0,0,1,14,0,13.859,13.859,0,0,1,5.12,5.12A13.649,13.649,0,0,1,91.965,77.992Z" transform="translate(198.034 274.008)"/>
  </g>
</svg>
