<svg id="hotbit" xmlns="http://www.w3.org/2000/svg" width="112" height="24" viewBox="0 0 112 24">
  <defs>
    <style>
      .cls-1, .cls-2 {
        fill: #878787;
      }

      .cls-2 {
        fill-rule: evenodd;
      }
    </style>
  </defs>
  <g id="组_57" data-name="组 57" transform="translate(88.9 9.672)">
    <path id="路径_241" data-name="路径 241" class="cls-1" d="M2707,295.268c.039-.069.072-.145.115-.21a.535.535,0,0,1,.44-.279c.857-.007,1.718,0,2.591,0v.644h-2.479v2.933h1.951v-1.268h-1.287v-.647h1.941v2.578h-.177c-.795,0-1.586-.007-2.381,0a.633.633,0,0,1-.713-.463Z" transform="translate(-2707 -294.767)"/>
    <path id="路径_242" data-name="路径 242" class="cls-1" d="M3032.3,296.639c.23.1.25.286.246.493,0,.351,0,.7,0,1.051,0,.489-.177.66-.667.66H3029.3V294.61c.056,0,.115-.01.171-.01h2.381a.621.621,0,0,1,.7.7c0,.305,0,.614,0,.92A.4.4,0,0,1,3032.3,296.639Zm-.42.276h-1.937v1.261h1.938Zm0-1.652h-1.941v.979h1.941Z" transform="translate(-3018.715 -294.598)"/>
    <path id="路径_243" data-name="路径 243" class="cls-1" d="M3146.261,298.761h-.644v-1.915h-1.964v1.915H3143V295.2a.615.615,0,0,1,.67-.677q.961,0,1.921,0a.691.691,0,0,1,.677.667c0,1.149,0,2.3,0,3.448A.371.371,0,0,1,3146.261,298.761Zm-2.6-3.573v.979h1.944v-.979Z" transform="translate(-3128.681 -294.525)"/>
    <path id="路径_244" data-name="路径 244" class="cls-1" d="M2919.3,296.655v1.412c0,.506-.2.7-.706.7h-1.9c-.45,0-.66-.2-.66-.647q-.005-1.468,0-2.936a.635.635,0,0,1,.663-.66q.961,0,1.921,0a.644.644,0,0,1,.69.686C2919.3,295.693,2919.3,296.176,2919.3,296.655Zm-2.621,1.452h1.954v-2.913h-1.954Z" transform="translate(-2909.16 -294.525)"/>
    <path id="路径_245" data-name="路径 245" class="cls-1" d="M3259.2,299.22h-2.6V295h.647v3.57h1.951Z" transform="translate(-3238.551 -294.984)"/>
    <path id="路径_246" data-name="路径 246" class="cls-1" d="M2823.3,294.9h.644v3.576h1.944v.65H2823.3C2823.3,297.721,2823.3,296.319,2823.3,294.9Z" transform="translate(-2819.481 -294.888)"/>
  </g>
  <path id="形状_3" class="cls-2" d="M2646.662,221.247a.889.889,0,0,1,.883.9V229.5a.893.893,0,0,1-.883.9h-23.235a.891.891,0,0,1-.884-.9v-7.353a.893.893,0,0,1,.884-.9h23.235m0-.447h-23.235a1.335,1.335,0,0,0-1.327,1.343V229.5a1.335,1.335,0,0,0,1.327,1.343h23.235a1.335,1.335,0,0,0,1.327-1.343v-7.353a1.339,1.339,0,0,0-1.327-1.343Z" transform="translate(-2535.989 -213.549)"/>
  <path id="形状_2_拷贝" class="cls-2" d="M17.941,10.371l.016-2.913L10.223,2.923,2.489,7.461V9.488l4.772,2.8,3.438-2.03L7.727,8.522,10.22,7.064l10.223,5.98h0L20.45,18,10.223,24,0,18V6L10.223,0,20.447,6l-.059,5.8ZM10.223,21.08l7.737-4.539,0-2.036-4.768-2.788L9.744,13.75,12.7,15.484l-2.486,1.461L2.489,12.407v4.131Z"/>
  <path id="HotBit_拷贝" class="cls-2" d="M820.5,216.892v10h2.072v-4.2h5.182v4.2h2.059v-10h-2.059v3.9h-5.186v-3.9Zm13.856,0a4.78,4.78,0,0,0-1.294.332,3.014,3.014,0,0,0-.88.611,3.059,3.059,0,0,0-.552.992,7.693,7.693,0,0,0-.276,1.383c-.039.5-.062,1.117-.062,1.865a14.117,14.117,0,0,0,.112,1.9,4.392,4.392,0,0,0,.388,1.346,2.718,2.718,0,0,0,.64.864,2.174,2.174,0,0,0,.979.506,6.8,6.8,0,0,0,1.281.253c.44.026.992.053,1.668.053a13.433,13.433,0,0,0,1.744-.1,3.259,3.259,0,0,0,2.072-1.041q.808-.97.8-4.112a7.92,7.92,0,0,0-.463-3.172,2.835,2.835,0,0,0-.6-.9,2.523,2.523,0,0,0-.929-.545,5.444,5.444,0,0,0-1.228-.253,14.875,14.875,0,0,0-1.668-.076A11.386,11.386,0,0,0,834.356,216.892Zm4.555,6.194a4.553,4.553,0,0,1-.125.837,1.372,1.372,0,0,1-.24.611,1.509,1.509,0,0,1-.453.332,1.946,1.946,0,0,1-.69.19c-.276.026-.64.039-1.1.039s-.841,0-1.117-.026a2.632,2.632,0,0,1-.814-.138,1.01,1.01,0,0,1-.828-.864,2.488,2.488,0,0,1-.151-.877c-.026-.305-.026-.723-.026-1.245s0-.939.026-1.245a3.777,3.777,0,0,1,.112-.837,1.606,1.606,0,0,1,.25-.6,1.311,1.311,0,0,1,.453-.342,1.946,1.946,0,0,1,.69-.19c.263-.026.627-.039,1.08-.039.476,0,.841,0,1.1.026a2.851,2.851,0,0,1,.814.128,1.438,1.438,0,0,1,.565.305,1.465,1.465,0,0,1,.276.585,2.675,2.675,0,0,1,.164.864c.013.332.026.749.026,1.271S838.911,222.807,838.911,223.086Zm12.013-4.292v-1.9h-9v1.9h3.465v8.1h2.059v-8.1Zm1.166-1.9v10h6.2a3.326,3.326,0,0,0,1.783-.456,2.459,2.459,0,0,0,.966-2.322c0-1.369-.552-2.184-1.668-2.424a1.876,1.876,0,0,0,.841-.558,1.927,1.927,0,0,0,.4-.749,4.5,4.5,0,0,0,.076-.864,2.407,2.407,0,0,0-1.156-2.424,2.791,2.791,0,0,0-1.192-.2l-6.25,0Zm5.5,1.826a1.215,1.215,0,0,1,.818.2.988.988,0,0,1,.25.811,1.58,1.58,0,0,1-.2.913,1.042,1.042,0,0,1-.88.292h-3.488v-2.22Zm.227,3.974a2.173,2.173,0,0,1,.791.138.692.692,0,0,1,.325.355,2.678,2.678,0,0,1,.1.837,1.056,1.056,0,0,1-.263.8,1.266,1.266,0,0,1-.88.24h-3.8v-2.374l3.727.007Zm4.654-5.8v10h2.082v-10Zm12.6,1.9v-1.9h-9v1.9h3.465v8.1H871.6v-8.1Z" transform="translate(-793.554 -209.68)"/>
</svg>
