<svg xmlns="http://www.w3.org/2000/svg" width="82.549" height="24" viewBox="0 0 82.549 24">
  <defs>
    <style>
      .cls-1 {
        fill: #878787;
      }
    </style>
  </defs>
  <g id="huobi" transform="translate(-0.425 -0.049)">
    <path id="Fill-1" class="cls-1" d="M291.827,77.711v6.972h-6.963v-6.1a.867.867,0,0,0-.87-.872h-2.418V94.464a.867.867,0,0,0,.87.872h2.321V87.492h6.963v6.876a.867.867,0,0,0,.87.872h2.321V78.583a.867.867,0,0,0-.87-.872Z" transform="translate(-260.759 -72.029)"/>
    <path id="Fill-3" class="cls-1" d="M509.6,137.711v8.428a2.078,2.078,0,0,1-1.064,1.841,2.455,2.455,0,0,1-3.772-2.034v-7.363a.867.867,0,0,0-.87-.872h-2.321v8.525a5.06,5.06,0,0,0,5.029,5.038h1.257a5.06,5.06,0,0,0,5.029-5.038v-7.653a.867.867,0,0,0-.87-.872Z" transform="translate(-464.803 -127.678)"/>
    <path id="Fill-5" class="cls-1" d="M1091.446,156.476h2.321V144.581a.867.867,0,0,0-.87-.87h-2.321v11.895a.867.867,0,0,0,.87.87" transform="translate(-1011.083 -133.242)"/>
    <path id="Fill-7" class="cls-1" d="M1089.426,79.41a1.849,1.849,0,1,0-1.849-1.849,1.79,1.79,0,0,0,1.849,1.849" transform="translate(-1008.301 -70.174)"/>
    <path id="Fill-9" class="cls-1" d="M696.781,145.669a2.913,2.913,0,0,1-5.814,0V143.34a2.913,2.913,0,0,1,5.814,0Zm-3-7.958a5.927,5.927,0,0,0-6.2,5.823v1.844a6.214,6.214,0,0,0,12.4,0v-1.844A5.87,5.87,0,0,0,693.777,137.711Z" transform="translate(-637.312 -127.678)"/>
    <path id="Fill-15" class="cls-1" d="M899.588,90.026a2.914,2.914,0,0,1-5.814,0V87.7a2.914,2.914,0,0,1,5.814,0Zm-2.907-7.951a5.848,5.848,0,0,0-2.907.679v-4.17a.869.869,0,0,0-.872-.873h-2.325V89.735a6.214,6.214,0,0,0,12.4,0V87.893A6.069,6.069,0,0,0,896.681,82.075Z" transform="translate(-825.59 -72.029)"/>
    <g id="Group-19" transform="translate(0.425 0.049)">
      <path id="Fill-17" class="cls-1" d="M10.711,7.438c0-3.488-1.644-6.4-3-7.364,0,0-.1-.1-.1.1h0c0,6.686-3.385,8.43-5.319,10.853A8.151,8.151,0,0,0,6.07,23.91c2.321.678-.484-1.163-.87-4.845-.387-4.457,5.512-7.849,5.512-11.628" transform="translate(-0.425 -0.049)"/>
    </g>
    <g id="Group-22" transform="translate(8.497 9.676)">
      <path id="Fill-20" class="cls-1" d="M4.155-.172h0A13.8,13.8,0,0,1,1.931,4.083C-2.034,9.692.287,12.3,1.544,13.754c.774.87,0,0,1.837-.87a7.925,7.925,0,0,0,3.965-6A8.207,8.207,0,0,0,4.155-.172" transform="translate(0.283 0.215)"/>
    </g>
  </g>
</svg>
