<svg xmlns="http://www.w3.org/2000/svg" width="78.379" height="24" viewBox="0 0 78.379 24">
  <defs>
    <style>
      .cls-1 {
        fill: #878787;
        fill-rule: evenodd;
      }
    </style>
  </defs>
  <g id="HUSD" transform="translate(0 -0.268)">
    <path id="路径_122" data-name="路径 122" class="cls-1" d="M12,.268a12,12,0,1,0,12,12A12,12,0,0,0,12,.268Zm2.374,5.2h2.565V9.773a2.565,2.565,0,0,1-2.565-2.565V5.465ZM9.582,19.429H7.017V15.121a2.565,2.565,0,0,1,2.565,2.564v1.744Zm7.446-.176H14.463V14.835a1.282,1.282,0,0,0-1.282-1.282H9.493a2.566,2.566,0,0,1-2.565-2.565v-5.7H9.493V9.706a1.282,1.282,0,0,0,1.282,1.282h3.688a2.565,2.565,0,0,1,2.564,2.565v5.7Z"/>
    <path id="路径_123" data-name="路径 123" class="cls-1" d="M69.076,7.649a5.867,5.867,0,0,1,3.55-1.155,7.268,7.268,0,0,1,3.494.872v2.861c-.015.138-.065.192-.118.192l-.425-.3a5.172,5.172,0,0,0-3.018-.93,2.515,2.515,0,0,0-1.543.44,1.2,1.2,0,0,0-.524,1.03,1.286,1.286,0,0,0,.367.993,7.917,7.917,0,0,0,2.052,1.107,7.365,7.365,0,0,1,2.99,1.872,3.871,3.871,0,0,1,.831,2.511,3.9,3.9,0,0,1-1.569,3.27,6.265,6.265,0,0,1-3.887,1.152,7.36,7.36,0,0,1-3.586-.845.316.316,0,0,1-.16-.2V17.785c0-.26.075-.212.075-.212a7.381,7.381,0,0,0,3.889,1.29c2.027.053,2.264-.846,2.264-1.483a1.3,1.3,0,0,0-.446-1.019,8.523,8.523,0,0,0-2.217-1.155,6.811,6.811,0,0,1-2.886-1.94,4.1,4.1,0,0,1-.7-2.4A3.872,3.872,0,0,1,69.076,7.649ZM49.213,12.527V6.784h1.861A.708.708,0,0,1,51.582,7a.757.757,0,0,1,.21.526V21.274H49.932a.732.732,0,0,1-.719-.737V14.861H43.7v6.413H41.842a.731.731,0,0,1-.718-.737V6.784h1.859a.733.733,0,0,1,.719.745v5ZM79.536,6.784h4.838c3.164,0,6.49,2.2,6.49,6.97,0,4.325-2.741,7.5-6.349,7.5H79.8a1.777,1.777,0,0,0-.265.022V6.784ZM82.3,18.748h1.854c2.279,0,3.891-2,3.891-4.594,0-3.2-1.719-4.97-4.092-4.97H82.3ZM62.334,7.166h1.839a.725.725,0,0,1,.711.737V16.14a5.238,5.238,0,1,1-10.47,0V7.166h1.839a.725.725,0,0,1,.712.737V16.14A2.8,2.8,0,0,0,58.291,18.6a2.6,2.6,0,0,0,2.717,0,2.8,2.8,0,0,0,1.325-2.457V7.166Z" transform="translate(-12.485 -1.89)"/>
  </g>
</svg>
