<svg xmlns="http://www.w3.org/2000/svg" width="71.964" height="24" viewBox="0 0 71.964 24">
  <defs>
    <style>
      .cls-1 {
        fill: #878787;
      }
    </style>
  </defs>
  <g id="KCC" transform="translate(-5 -8.3)">
    <path id="Layer" class="cls-1" d="M92.138,28.46l-.72-1.205h0l-3.94-6.621H87.46l-.126-.234H85.9l-5.6,9.841,5.685,9.787h1.439l.036-.054,4.7-8.042h-2.9l-2.5,4.444L83.2,30.223l3.49-6.153,2.537,4.372Z" transform="translate(-61.753 -9.923)"/>
    <path id="Layer-2" data-name="Layer" class="cls-1" d="M8.49,16.936l2.627-4.48-.882-1.421h0l-.612-1.007-4.5,7.934h0L5,18.177l.72,1.259H17.036l5.7-9.769L21.948,8.3l-7.916.018h-.126L12.646,8.3l.666,1.259h0l.666,1.259,5.181-.018L15.6,16.936Z"/>
    <path id="Layer-3" data-name="Layer" class="cls-1" d="M44.379,27.5a2.014,2.014,0,0,0-.63.108,3.313,3.313,0,0,0-.684.306,2.242,2.242,0,0,0-1.115,1.421.688.688,0,0,0,.144.576h0c.018.036.054.054.072.09.018.018.036.018.054.036l.036.036c.036.018.054.036.09.054h0A1.918,1.918,0,0,0,43.893,30l.018-.018c.054-.018.108-.054.162-.072a.631.631,0,0,0,.144-.09l.162-.108c.054-.036.09-.072.144-.108l.036-.018c.036-.036.072-.054.108-.09l.036-.036c.036-.018.054-.054.072-.072a.248.248,0,0,0,.054-.072c.018-.036.054-.054.072-.09l.036-.036c.018-.036.054-.054.072-.09l.036-.036c.018-.036.036-.054.054-.09v-.018l.018-.036a.451.451,0,0,0,.072-.126c.018-.036.036-.09.054-.126l.018-.018a.063.063,0,0,1,.018-.036h0c0-.018,0-.018.018-.036,0-.036.018-.054.018-.09s.018-.036.018-.054v-.36c0-.036-.018-.054-.036-.09s-.036-.054-.054-.09h0A.9.9,0,0,0,44.379,27.5Z" transform="translate(-30.293 -15.746)"/>
    <path id="Layer-4" data-name="Layer" class="cls-1" d="M48.2,33.9c0,.036-.018.054-.036.09h0c0,.018,0,.018-.018.036h0a.539.539,0,0,1-.072.144h0a3.077,3.077,0,0,1-.918,1.025L47,35.3a.729.729,0,0,1-.162.09h-.018c-.018.018-.036.018-.054.036-.036.018-.054.036-.09.054h-.018c-.018,0-.036.018-.054.018a.256.256,0,0,1-.108.036l-.036.018h-.018c-.018,0-.036.018-.054.018-.036.018-.072.018-.108.036l-.036.018h-.018c-.036.018-.072.018-.108.036-.018,0-.036.018-.072.018h-.018a.779.779,0,0,0-.09.018.108.108,0,0,0-.072.018h-.018a.066.066,0,0,0-.054.018h-.054c-.054,0-.126.018-.18.018h-.234a.228.228,0,0,1-.108-.018.066.066,0,0,1-.054-.018c-.036,0-.072-.018-.108-.018-.018,0-.036-.018-.054-.018l.99,1.6,2.123-.018,1.1-1.943L48.22,33.7a.066.066,0,0,1-.018.054v.036c0,.018-.018.036-.018.072A.056.056,0,0,1,48.2,33.9Z" transform="translate(-32.804 -20.83)"/>
    <path id="Layer-5" data-name="Layer" class="cls-1" d="M116.807,64.835a1.781,1.781,0,0,1,.234.594,3.311,3.311,0,0,1,.09.738,2.21,2.21,0,0,1-.63,1.691.717.717,0,0,1-.576.18h0c-.036,0-.072-.018-.108-.018-.018,0-.036-.018-.054-.018s-.036-.018-.054-.018a.393.393,0,0,1-.09-.054h0a1.907,1.907,0,0,1-.7-1.385v-.018c0-.054-.018-.108-.018-.18v-.36a.5.5,0,0,1,.018-.162v-.036c0-.036.018-.09.018-.126v-.054c0-.036.018-.072.018-.108s.018-.054.018-.09c.018-.036.018-.072.036-.108,0-.018.018-.036.018-.054.018-.036.018-.072.036-.108l.018-.054c.018-.036.036-.054.036-.09v-.018l.018-.036a.782.782,0,0,1,.072-.126c.018-.036.054-.072.072-.108l.018-.018.036-.036h0c.018-.018.018-.018.018-.036l.054-.054.036-.036.036-.036.054-.054.036-.018c.018-.018.054-.036.072-.054.018,0,.018,0,.036-.018a.063.063,0,0,0,.036-.018.018.018,0,0,0,.018-.018h.018c.036,0,.054-.018.09-.018h.108A.956.956,0,0,1,116.807,64.835Z" transform="translate(-90.128 -45.92)"/>
    <path id="Layer-6" data-name="Layer" class="cls-1" d="M102.443,64.326c-.018.018-.036.054-.054.072h0c0,.018-.018.018-.018.036h0c-.036.036-.054.09-.09.126h0a2.816,2.816,0,0,0-.4,1.313v.4h0v.072a.228.228,0,0,0,.018.108v.072c0,.036.018.072.018.108v.054a.066.066,0,0,0,.018.054c0,.036.018.072.018.108l.018.036V66.9a.256.256,0,0,0,.036.108c0,.018.018.036.018.054h0v.018c.018.036.018.054.036.09,0,.018.018.036.036.072v.018c0,.018.018.036.018.054a.056.056,0,0,1,.018.036.729.729,0,0,0,.09.162l.018.018a.762.762,0,0,0,.09.126c0,.018.018.018.018.036l.018.018c.018.036.054.054.072.09.018.018.018.036.036.036a.316.316,0,0,1,.072.09c.018.018.036.018.036.036H100.7l-1.1-1.817,1.079-1.943h1.889l-.036.036-.018.018-.072.072Z" transform="translate(-77.58 -45.843)"/>
    <path id="Layer-7" data-name="Layer" class="cls-1" d="M44.379,109.92a2.014,2.014,0,0,1-.63-.108,3.313,3.313,0,0,1-.684-.306,2.241,2.241,0,0,1-1.115-1.421.688.688,0,0,1,.144-.576h0c.018-.036.054-.054.072-.09.018-.018.036-.018.054-.036l.036-.036c.036-.018.054-.036.09-.054h0a1.918,1.918,0,0,1,1.547.126l.018.018c.054.018.108.054.162.072a.631.631,0,0,1,.144.09l.162.108c.054.036.09.072.144.108l.036.018c.036.036.072.054.108.09l.036.036c.036.018.054.054.072.072a.248.248,0,0,1,.054.072c.018.036.054.054.072.09l.036.036c.018.036.054.054.072.09l.036.036c.018.036.036.054.054.09v.018l.018.036a.451.451,0,0,1,.072.126c.018.036.036.09.054.126l.018.018a.063.063,0,0,0,.018.036h0c0,.018,0,.018.018.036,0,.036.018.054.018.09s.018.036.018.054v.36c0,.036-.018.054-.036.09s-.036.054-.054.09h0A.868.868,0,0,1,44.379,109.92Z" transform="translate(-30.293 -81.092)"/>
    <path id="Layer-8" data-name="Layer" class="cls-1" d="M48.2,99.682c0-.036-.018-.054-.036-.09h0c0-.018,0-.018-.018-.036h0a.538.538,0,0,0-.072-.144h0a3.077,3.077,0,0,0-.918-1.025L47,98.279a.729.729,0,0,0-.162-.09h-.018c-.018-.018-.036-.018-.054-.036-.036-.018-.054-.036-.09-.054h-.018c-.018,0-.036-.018-.054-.018a.256.256,0,0,0-.108-.036l-.036-.018h-.018c-.018,0-.036-.018-.054-.018-.036-.018-.072-.018-.108-.036l-.036-.018h-.018c-.036-.018-.072-.018-.108-.036-.018,0-.036-.018-.072-.018h-.018a.779.779,0,0,1-.09-.018.108.108,0,0,1-.072-.018h-.018a.066.066,0,0,1-.054-.018h-.054c-.054,0-.126-.018-.18-.018h-.234a.228.228,0,0,0-.108.018.066.066,0,0,0-.054.018c-.036,0-.072.018-.108.018-.018,0-.036.018-.054.018l.99-1.6,2.123.018,1.1,1.943-.99,1.619a.066.066,0,0,0-.018-.054V99.79c0-.018-.018-.036-.018-.072A.056.056,0,0,0,48.2,99.682Z" transform="translate(-32.804 -72.168)"/>
    <path id="Layer-9" data-name="Layer" class="cls-1" d="M19.159,88.336l-5.181-.018-.792,1.493-.54,1.025,1.385-.018v.018l7.916.018.792-1.367-5.7-9.769L5.72,79.7,5,80.959l.144.234H5.126l4.5,7.916,1.493-2.429L8.49,82.219H15.6Z" transform="translate(0 -58.554)"/>
    <path id="Layer-10" data-name="Layer" class="cls-1" d="M266.379,40.8c0-.7,0-1.3.036-1.763a8.665,8.665,0,0,1,.108-1.151,2.5,2.5,0,0,1,4.444-1.025,3.217,3.217,0,0,1,.45,1.043.083.083,0,0,0,.09.054h2.789c.036,0,.054-.036.054-.072a5.279,5.279,0,0,0-2.861-4.048,5.85,5.85,0,0,0-2.555-.54,5.386,5.386,0,0,0-3.976,1.619,4.4,4.4,0,0,0-1.205,2.213,20.425,20.425,0,0,0-.252,3.67,20.425,20.425,0,0,0,.252,3.67,4.2,4.2,0,0,0,1.205,2.213,5.415,5.415,0,0,0,3.976,1.619,5.85,5.85,0,0,0,2.555-.54,5.308,5.308,0,0,0,2.861-4.048c0-.036,0-.072-.054-.072h-2.789a.083.083,0,0,0-.09.054,3.659,3.659,0,0,1-.45,1.043,2.5,2.5,0,0,1-4.444-1.025,8.368,8.368,0,0,1-.108-1.151C266.379,42.1,266.379,41.5,266.379,40.8Z" transform="translate(-211.993 -20.502)"/>
    <path id="Layer-11" data-name="Layer" class="cls-1" d="M347.579,40.8c0-.7,0-1.3.036-1.763a8.676,8.676,0,0,1,.108-1.151,2.5,2.5,0,0,1,4.444-1.025,3.217,3.217,0,0,1,.45,1.043.083.083,0,0,0,.09.054h2.789c.036,0,.054-.036.054-.072a5.279,5.279,0,0,0-2.861-4.048,5.85,5.85,0,0,0-2.555-.54,5.386,5.386,0,0,0-3.976,1.619,4.4,4.4,0,0,0-1.205,2.213,20.425,20.425,0,0,0-.252,3.67,20.425,20.425,0,0,0,.252,3.67,4.2,4.2,0,0,0,1.205,2.213,5.415,5.415,0,0,0,3.976,1.619,5.85,5.85,0,0,0,2.555-.54,5.308,5.308,0,0,0,2.861-4.048c0-.036,0-.072-.054-.072h-2.789a.083.083,0,0,0-.09.054,3.659,3.659,0,0,1-.45,1.043,2.5,2.5,0,0,1-4.444-1.025,8.378,8.378,0,0,1-.108-1.151C347.6,42.1,347.579,41.5,347.579,40.8Z" transform="translate(-278.585 -20.502)"/>
    <path id="Layer-12" data-name="Layer" class="cls-1" d="M182.379,34.252a.246.246,0,0,0-.252-.252h-2.375a.246.246,0,0,0-.252.252V48.5a.246.246,0,0,0,.252.252h2.375a.246.246,0,0,0,.252-.252V44.327l1.907-2.285,3.922,6.639a.146.146,0,0,0,.144.072h2.879c.126,0,.162-.09.09-.2l-5.127-8.69,4.7-5.631c.09-.108.054-.216-.09-.216H187.65a.083.083,0,0,0-.09.054L182.4,40.279V34.252Z" transform="translate(-143.106 -21.076)"/>
  </g>
</svg>
