<svg xmlns="http://www.w3.org/2000/svg" width="67.769" height="24" viewBox="0 0 67.769 24">
  <defs>
    <style>
      .cls-1 {
        fill: #878787;
      }
    </style>
  </defs>
  <g id="Kyros" transform="translate(-0.5 -0.245)">
    <path id="路径_124" data-name="路径 124" class="cls-1" d="M24.47.282V24.194c-.218.058-23.578.073-23.97.015V.3C.7.239,24.107.224,24.47.282M22.032,21.843c.058-.464.044-18.964-.015-19.152H2.909a.369.369,0,0,0-.029.1V21.684c0,.044.015.073.015.116,0,.015.015.015.015.029l.029.029,19.094-.015Z"/>
    <path id="路径_125" data-name="路径 125" class="cls-1" d="M220.187,33.139c.073-.1.116-.174.174-.261.595-.972,1.19-1.959,1.77-2.945a.381.381,0,0,1,.392-.218c.479.015.958,0,1.48,0-.073.131-.116.218-.174.3-.885,1.48-1.785,2.96-2.684,4.44a1.01,1.01,0,0,0-.16.537c.014.711,0,1.422,0,2.133,0,.087-.015.189-.015.29H219.2V34.88a.67.67,0,0,0-.1-.377c-.8-1.349-1.611-2.684-2.423-4.019-.029-.058-.073-.1-.131-.189-.885.958-1.77,1.9-2.67,2.858,1.117,1.407,2.234,2.815,3.366,4.251a1.852,1.852,0,0,1-.247.029h-1.582a.468.468,0,0,1-.392-.189c-.682-.856-1.378-1.7-2.075-2.554-.073-.087-.145-.174-.247-.29l-.261.261c-.2.2-.392.421-.609.624a.515.515,0,0,0-.174.464c.014.45,0,.9,0,1.349v.3H209.9V29.758a9.5,9.5,0,0,1,1.756-.029v3.5l.058.029a2.681,2.681,0,0,0,.2-.2c.987-1.045,1.973-2.075,2.96-3.12a.635.635,0,0,1,.522-.232c.813.015,1.611.015,2.423,0a.452.452,0,0,1,.435.247c.58.972,1.161,1.944,1.756,2.916.044.073.1.16.174.276" transform="translate(-179.017 -25.181)"/>
    <path id="路径_126" data-name="路径 126" class="cls-1" d="M369.773,32.734a3.913,3.913,0,0,1-3.236,3.9,4.9,4.9,0,0,1-2.423-.116,3.976,3.976,0,0,1,.566-7.734,4.907,4.907,0,0,1,2.467.2,3.88,3.88,0,0,1,2.626,3.743m-1.814.015a2.393,2.393,0,0,0-2.989-2.438,2.3,2.3,0,0,0-1.843,2.075,2.406,2.406,0,0,0,3.134,2.728,2.309,2.309,0,0,0,1.7-2.365" transform="translate(-308.449 -24.341)"/>
    <path id="路径_127" data-name="路径 127" class="cls-1" d="M310.3,37.5v-7.69a1.577,1.577,0,0,1,.261-.015h3.091a4.288,4.288,0,0,1,1.7.3,2.6,2.6,0,0,1,1.669,2.641,2.5,2.5,0,0,1-1.436,2.234c-.029.015-.073.044-.1.058s-.014.015-.029.044c.551.8,1.117,1.6,1.7,2.423a1.5,1.5,0,0,1-.232.015H315.48a.353.353,0,0,1-.348-.189c-.406-.595-.813-1.161-1.219-1.756a.46.46,0,0,0-.421-.218c-.348.015-.711,0-1.074,0H312.1V37.49l-1.8.015Zm1.8-3.584a.448.448,0,0,0,.116.029c.537,0,1.074.015,1.611-.015a2.339,2.339,0,0,0,.7-.174,1.006,1.006,0,0,0,.638-.8,1.282,1.282,0,0,0-1.016-1.654,1.127,1.127,0,0,0-.232-.029c-.58-.015-1.146-.015-1.727-.029-.029,0-.073.029-.1.029v2.641Z" transform="translate(-264.85 -25.266)"/>
    <path id="路径_128" data-name="路径 128" class="cls-1" d="M429.323,29.3c-.189.464-.363.9-.537,1.32-.435-.16-.827-.319-1.248-.435a3.091,3.091,0,0,0-1.625-.044,1.54,1.54,0,0,0-.493.232.646.646,0,0,0,.058,1.1,4.067,4.067,0,0,0,.827.319c.464.131.929.218,1.393.348a5.139,5.139,0,0,1,.827.319,2.016,2.016,0,0,1,.566,3.192,2.861,2.861,0,0,1-1.407.8,5.933,5.933,0,0,1-3.961-.421,4.024,4.024,0,0,1-.522-.3c.2-.45.406-.885.609-1.349.087.058.16.1.232.145a4.6,4.6,0,0,0,2.5.653,3.725,3.725,0,0,0,.682-.116,1.194,1.194,0,0,0,.363-.174.617.617,0,0,0-.015-1.045,2.214,2.214,0,0,0-.566-.261c-.435-.131-.9-.218-1.335-.348-.377-.116-.754-.232-1.117-.377a2.076,2.076,0,0,1-.435-3.5,3.19,3.19,0,0,1,1.407-.638,5.531,5.531,0,0,1,3.25.3c.189.087.348.189.551.276" transform="translate(-361.368 -24.249)"/>
    <path id="路径_129" data-name="路径 129" class="cls-1" d="M274.3,107.923c.232-.087.334.029.45.174l3,3.83a.814.814,0,0,0,.261.232v-4.251h.363V112.9a.317.317,0,0,1-.435-.145c-1-1.291-2.017-2.568-3.032-3.86a1.07,1.07,0,0,0-.261-.247v4.266H274.3v-4.991Z" transform="translate(-234.073 -92.029)"/>
    <path id="路径_130" data-name="路径 130" class="cls-1" d="M378.5,107.862c.406,0,.784-.015,1.175,0a10.069,10.069,0,0,1,1.32.073,1.523,1.523,0,0,1,1.32,1.306,1.569,1.569,0,0,1-1.016,1.843c-.029.015-.058.029-.131.058l1.219,1.7a.408.408,0,0,1-.551-.189c-.29-.435-.609-.856-.929-1.291a.277.277,0,0,0-.247-.16c-.537.015-1.074.029-1.611.029a.892.892,0,0,0-.189.015v1.6h-.348l-.015-4.977Zm.363.3v2.757c.609,0,1.19.015,1.77-.015a1.992,1.992,0,0,0,.638-.174,1.082,1.082,0,0,0,.609-.7,1.312,1.312,0,0,0-1.1-1.814c-.624-.058-1.262-.044-1.915-.058" transform="translate(-323.154 -91.997)"/>
    <path id="路径_131" data-name="路径 131" class="cls-1" d="M242.1,108h3.323v.3h-2.96c-.029.682-.015,1.32-.015,2H245.1c.014.116.014.2.029.334h-2.626a11.968,11.968,0,0,0-.029,2.075h3.076v.3H242.1V108Z" transform="translate(-206.545 -92.12)"/>
    <path id="路径_132" data-name="路径 132" class="cls-1" d="M413.563,112.787h3.076c0,.116.015.2.015.319H413.2V108.1h3.337c0,.087.015.174.015.261a.869.869,0,0,1-.174.029h-2.815v2h2.655c.015.116.015.2.029.319h-2.684v2.075Z" transform="translate(-352.82 -92.206)"/>
    <path id="路径_133" data-name="路径 133" class="cls-1" d="M339.7,108h.348c0,.1.015.2.015.3v2.423a3.373,3.373,0,0,0,.073.769,1.375,1.375,0,0,0,1.349,1.2,2.963,2.963,0,0,0,.8-.058,1.27,1.27,0,0,0,.972-.929,3.612,3.612,0,0,0,.116-.885c.015-.842,0-1.669,0-2.51V108h.348c0,.087.014.16.014.232,0,.885.015,1.77,0,2.655a3.237,3.237,0,0,1-.131.914,1.7,1.7,0,0,1-1.422,1.219,2.731,2.731,0,0,1-.972-.015,1.758,1.758,0,0,1-1.451-1.553c-.029-.218-.044-.435-.058-.653V108Z" transform="translate(-289.984 -92.12)"/>
    <path id="路径_134" data-name="路径 134" class="cls-1" d="M445.253,108.413c-.058.1-.087.174-.116.232a9.705,9.705,0,0,0-.987-.319,1.956,1.956,0,0,0-1.219.1.906.906,0,0,0-.624.856.713.713,0,0,0,.392.711,3.473,3.473,0,0,0,.638.261c.3.087.609.145.914.247a2.822,2.822,0,0,1,.609.247,1.146,1.146,0,0,1,.218,1.872,1.581,1.581,0,0,1-.551.3,2.859,2.859,0,0,1-2.38-.261c-.116-.073-.232-.174-.348-.261a2.182,2.182,0,0,0,.145-.247c.058.044.116.073.174.116a2.57,2.57,0,0,0,2.191.406,1.161,1.161,0,0,0,.479-.247.822.822,0,0,0-.087-1.349,2.684,2.684,0,0,0-.7-.276c-.29-.087-.595-.145-.885-.232a3.41,3.41,0,0,1-.537-.2,1.189,1.189,0,0,1-.116-2.06,2.274,2.274,0,0,1,1.175-.319,2.734,2.734,0,0,1,1.393.319.417.417,0,0,1,.218.1" transform="translate(-377.27 -92.112)"/>
    <path id="路径_135" data-name="路径 135" class="cls-1" d="M203.8,108h.392c.667,1.494,1.335,2.989,2.031,4.556.7-1.553,1.364-3.061,2.031-4.556h.377c-.754,1.683-1.494,3.352-2.234,5.02h-.377c-.725-1.669-1.465-3.337-2.22-5.02" transform="translate(-173.802 -92.12)"/>
    <path id="路径_136" data-name="路径 136" class="cls-1" d="M310.076,113.106h-.348v-4.7h-1.814c0-.116-.015-.2-.015-.3h3.976v.3h-1.8Z" transform="translate(-262.798 -92.206)"/>
    <path id="路径_137" data-name="路径 137" class="cls-1" d="M78.532,36.5l1.683,1.683-5.078,5.078,5.078,5.078a15.909,15.909,0,0,1-1.64,1.683C76.3,47.759,74.034,45.5,71.8,43.261c2.234-2.22,4.483-4.5,6.732-6.761" transform="translate(-60.955 -30.994)"/>
  </g>
</svg>
