<svg xmlns="http://www.w3.org/2000/svg" width="112.037" height="24" viewBox="0 0 112.037 24">
  <defs>
    <style>
      .cls-1 {
        fill: #878787;
      }
    </style>
  </defs>
  <g id="LD_Capital" data-name="LD Capital" transform="translate(-0.6 -0.6)">
    <path id="路径_138" data-name="路径 138" class="cls-1" d="M14.4,33.565c-.037,0-.112.037-.112.075a.574.574,0,0,0-.093.224,6.764,6.764,0,0,1-.634,1.678,5.894,5.894,0,0,1-.914,1.343,3.672,3.672,0,0,1-1.66,1.026,3.681,3.681,0,0,1-1.1.186c-1.436.019-2.89,0-4.326,0-.056,0-.112-.019-.186-.019V23.029a.1.1,0,0,1,.093-.112H7.891V22.6H.6v.317H3.1v15.2H.619v.3H14.511V33.7c.019-.056-.037-.112-.112-.131Z" transform="translate(0 -17.897)"/>
    <rect id="矩形_1" data-name="矩形 1" class="cls-1" width="0.522" height="24" transform="translate(17.327 0.6)"/>
    <path id="路径_139" data-name="路径 139" class="cls-1" d="M113.541,28.454c-.056-.186-.093-.373-.131-.559a7.751,7.751,0,0,0-1.156-2.406,6.365,6.365,0,0,0-1.082-1.156,9,9,0,0,0-1.193-.821,8.642,8.642,0,0,0-1.473-.653,6.467,6.467,0,0,0-1.343-.354c-.354-.056-.727-.112-1.063-.131-.242-.019-.485-.037-.727-.037-.392-.019-.8-.037-1.193-.037-.242,0-.5.019-.727.037s-.429.019-.653.037c.037.28.037.3.3.3.3,0,.6-.037.9-.037a12.842,12.842,0,0,1,2.07.112c.317.075.634.112.951.205a6.635,6.635,0,0,1,1.138.466,4.778,4.778,0,0,1,1.156.858,5.3,5.3,0,0,1,1.156,1.772,9.518,9.518,0,0,1,.559,2.256c0,.075.019.28.019.28a19.067,19.067,0,0,1,.037,3.1s-.019.112-.019.149c-.056.41-.112.821-.186,1.231a6.977,6.977,0,0,1-.485,1.492c-.149.317-.317.634-.485.951a4.4,4.4,0,0,1-2.872,2.2,11.446,11.446,0,0,1-1.6.224c-.522.037-1.044.019-1.566.019h-.9c-.093.205-.075.242.149.261a3.622,3.622,0,0,0,.448.037c.97.019,1.939.037,2.909-.037A10.885,10.885,0,0,0,107.835,38a6.764,6.764,0,0,0,1.678-.634,12.458,12.458,0,0,0,1.249-.765,6.824,6.824,0,0,0,1.529-1.492,8.191,8.191,0,0,0,.914-1.566,8.869,8.869,0,0,0,.485-1.66.516.516,0,0,0,.019-.168,11.6,11.6,0,0,0-.075-3.114A.23.23,0,0,1,113.541,28.454Z" transform="translate(-83.142 -17.653)"/>
    <g id="组_40" data-name="组 40" transform="translate(36.066 7.423)">
      <path id="路径_140" data-name="路径 140" class="cls-1" d="M197.054,48.6a5.147,5.147,0,0,1,0-10.294,5.094,5.094,0,0,1,3.6,1.473l.783-.8a6.264,6.264,0,1,0,.037,8.914l-.783-.783A5.12,5.12,0,0,1,197.054,48.6Z" transform="translate(-190.786 -37.186)"/>
      <rect id="矩形_2" data-name="矩形 2" class="cls-1" width="1.119" height="12.047" transform="translate(39.704 0.17)"/>
      <path id="路径_141" data-name="路径 141" class="cls-1" d="M425.1,38.619h4.326v11.04h1.119V38.619h4.326V37.5H425.1Z" transform="translate(-381.405 -37.441)"/>
      <path id="路径_142" data-name="路径 142" class="cls-1" d="M559.719,48.8v-11H558.6V49.921h7.981V48.8Z" transform="translate(-490.01 -37.685)"/>
      <path id="路径_143" data-name="路径 143" class="cls-1" d="M339.591,37.5H334.5V49.659h1.119v-3.8h3.972a4.177,4.177,0,0,0,0-8.354Zm0,7.235h-3.972V38.619h3.972a3.058,3.058,0,0,1,0,6.117Z" transform="translate(-307.7 -37.441)"/>
      <path id="路径_144" data-name="路径 144" class="cls-1" d="M260.908,38,255.5,50.121h1.231l1.455-3.263h6.751l1.492,3.263h1.231L262.12,38Zm-2.219,7.739L261.5,39.38l2.909,6.359Z" transform="translate(-243.432 -37.848)"/>
      <path id="路径_145" data-name="路径 145" class="cls-1" d="M483.608,37.8,478.2,49.921h1.231l1.455-3.263h6.751l1.492,3.263h1.231L484.82,37.8Zm-2.219,7.758,2.835-6.359,2.909,6.359Z" transform="translate(-424.603 -37.685)"/>
    </g>
  </g>
</svg>
