<svg xmlns="http://www.w3.org/2000/svg" width="24" height="25.753" viewBox="0 0 24 25.753">
  <defs>
    <style>
      .cls-1 {
        fill: #fff;
      }
    </style>
  </defs>
  <path id="路径_20" data-name="路径 20" class="cls-1" d="M-596.1,74.756a1.158,1.158,0,0,1-.528-.128,1.153,1.153,0,0,1-.627-1v-2.31h-.9A1.855,1.855,0,0,1-600,69.505V56.821a1.028,1.028,0,0,1,.3-.734,1.026,1.026,0,0,1,.731-.3h3.349V50.842A1.845,1.845,0,0,1-593.769,49h15.928A1.842,1.842,0,0,1-576,50.841V63.723a1.846,1.846,0,0,1-1.844,1.84h-.9v2.294a1.152,1.152,0,0,1-.62,1.017,1.163,1.163,0,0,1-.536.132,1.153,1.153,0,0,1-.653-.2l-4.7-3.241h-8.517a1.846,1.846,0,0,1-1.844-1.84V57.857h-2.311V69.244h2.739v2.608l3.79-2.608h8.953a1.034,1.034,0,0,1,.994,1.035,1.034,1.034,0,0,1-.994,1.035h-8.3l-4.7,3.238A1.153,1.153,0,0,1-596.1,74.756Zm4.246-15.021a.858.858,0,0,0-.857.857.859.859,0,0,0,.857.858h12a.858.858,0,0,0,.857-.858.858.858,0,0,0-.857-.857Zm0-3.428a.858.858,0,0,0-.857.857.858.858,0,0,0,.857.857h12a.858.858,0,0,0,.857-.857.858.858,0,0,0-.857-.857Zm0-3.429a.858.858,0,0,0-.857.858.858.858,0,0,0,.857.857h12a.858.858,0,0,0,.857-.857.858.858,0,0,0-.857-.858Z" transform="translate(600 -49.002)"/>
</svg>
