<svg id="nestlabs" xmlns="http://www.w3.org/2000/svg" width="106.354" height="24" viewBox="0 0 106.354 24">
    <defs>
        <style>
            .cls-1, .cls-2 {
            fill: #878787;
            }

            .cls-2 {
            fill-rule: evenodd;
            }
        </style>
    </defs>
    <path id="路径_247" data-name="路径 247" class="cls-1" d="M185.778,26v.567h-5.17V16.4h.57V26Z" transform="translate(-103.205 -9.369)"/>
    <path id="路径_248" data-name="路径 248" class="cls-1" d="M185.778,26v.567h-5.17V16.4h.57V26Z" transform="translate(-103.205 -9.369)"/>
    <path id="路径_249" data-name="路径 249" class="cls-1" d="M200.593,23.182H196.3l-1.218,3.387H194.5l3.719-10.174h.492l3.732,10.174h-.635Zm-.207-.58-1.931-5.39-1.944,5.39Z" transform="translate(-111.145 -9.369)"/>
    <path id="路径_250" data-name="路径 250" class="cls-1" d="M200.593,23.182H196.3l-1.218,3.387H194.5l3.719-10.174h.492l3.732,10.174h-.635Zm-.207-.58-1.931-5.39-1.944,5.39Z" transform="translate(-111.145 -9.369)"/>
    <path id="路径_251" data-name="路径 251" class="cls-1" d="M222.32,23.775a3,3,0,0,1-.35,1.476,2.393,2.393,0,0,1-1,.975,3.036,3.036,0,0,1-1.464.342H216.1V16.4h3.227a2.637,2.637,0,0,1,1.322.33,2.245,2.245,0,0,1,.907.9,2.609,2.609,0,0,1,.324,1.318,2.383,2.383,0,0,1-.414,1.423,2.195,2.195,0,0,1-1.14.817,2.545,2.545,0,0,1,2,2.6Zm-5.65-6.813v3.967h2.7a1.88,1.88,0,0,0,1.425-.54,1.987,1.987,0,0,0,.519-1.437,1.94,1.94,0,0,0-.544-1.463,1.9,1.9,0,0,0-1.4-.527Zm5.08,6.8a2.248,2.248,0,0,0-.6-1.647,2.159,2.159,0,0,0-1.633-.619H216.67V26h2.851a2.185,2.185,0,0,0,1.633-.606A2.23,2.23,0,0,0,221.75,23.762Z" transform="translate(-123.486 -9.369)"/>
    <path id="路径_252" data-name="路径 252" class="cls-1" d="M222.32,23.775a3,3,0,0,1-.35,1.476,2.393,2.393,0,0,1-1,.975,3.036,3.036,0,0,1-1.464.342H216.1V16.4h3.227a2.637,2.637,0,0,1,1.322.33,2.245,2.245,0,0,1,.907.9,2.609,2.609,0,0,1,.324,1.318,2.383,2.383,0,0,1-.414,1.423,2.195,2.195,0,0,1-1.14.817,2.545,2.545,0,0,1,2,2.6Zm-5.65-6.813v3.967h2.7a1.88,1.88,0,0,0,1.425-.54,1.987,1.987,0,0,0,.519-1.437,1.94,1.94,0,0,0-.544-1.463,1.9,1.9,0,0,0-1.4-.527Zm5.08,6.8a2.248,2.248,0,0,0-.6-1.647,2.159,2.159,0,0,0-1.633-.619H216.67V26h2.851a2.185,2.185,0,0,0,1.633-.606A2.23,2.23,0,0,0,221.75,23.762Z" transform="translate(-123.486 -9.369)"/>
    <path id="路径_253" data-name="路径 253" class="cls-1" d="M233.923,18.626a2.385,2.385,0,0,1,.765-1.872,3.045,3.045,0,0,1,2.112-.7,3.163,3.163,0,0,1,1.762.488,2.5,2.5,0,0,1,1.037,1.331l-.531.237a2.1,2.1,0,0,0-2.268-1.489,2.515,2.515,0,0,0-1.71.514,1.86,1.86,0,0,0-.57,1.476,1.9,1.9,0,0,0,.22.962,1.723,1.723,0,0,0,.726.646,6.971,6.971,0,0,0,1.413.5,6.791,6.791,0,0,1,1.723.672,2.377,2.377,0,0,1,.933.923,2.722,2.722,0,0,1,.3,1.331,2.856,2.856,0,0,1-.389,1.5,2.529,2.529,0,0,1-1.088,1,3.531,3.531,0,0,1-1.62.356,3.465,3.465,0,0,1-1.97-.554,3.015,3.015,0,0,1-1.179-1.555l.518-.25a2.588,2.588,0,0,0,.959,1.344,2.889,2.889,0,0,0,1.671.461,2.617,2.617,0,0,0,1.84-.619,2.158,2.158,0,0,0,.687-1.687,2.093,2.093,0,0,0-.246-1.068,1.889,1.889,0,0,0-.777-.738,6.242,6.242,0,0,0-1.5-.54,4.977,4.977,0,0,1-2.164-1A2.231,2.231,0,0,1,233.923,18.626Z" transform="translate(-133.478 -9.175)"/>
    <path id="路径_254" data-name="路径 254" class="cls-1" d="M233.923,18.626a2.385,2.385,0,0,1,.765-1.872,3.045,3.045,0,0,1,2.112-.7,3.163,3.163,0,0,1,1.762.488,2.5,2.5,0,0,1,1.037,1.331l-.531.237a2.1,2.1,0,0,0-2.268-1.489,2.515,2.515,0,0,0-1.71.514,1.86,1.86,0,0,0-.57,1.476,1.9,1.9,0,0,0,.22.962,1.723,1.723,0,0,0,.726.646,6.971,6.971,0,0,0,1.413.5,6.791,6.791,0,0,1,1.723.672,2.377,2.377,0,0,1,.933.923,2.722,2.722,0,0,1,.3,1.331,2.856,2.856,0,0,1-.389,1.5,2.529,2.529,0,0,1-1.088,1,3.531,3.531,0,0,1-1.62.356,3.465,3.465,0,0,1-1.97-.554,3.015,3.015,0,0,1-1.179-1.555l.518-.25a2.588,2.588,0,0,0,.959,1.344,2.889,2.889,0,0,0,1.671.461,2.617,2.617,0,0,0,1.84-.619,2.158,2.158,0,0,0,.687-1.687,2.093,2.093,0,0,0-.246-1.068,1.889,1.889,0,0,0-.777-.738,6.242,6.242,0,0,0-1.5-.54,4.977,4.977,0,0,1-2.164-1A2.231,2.231,0,0,1,233.923,18.626Z" transform="translate(-133.478 -9.175)"/>
    <path id="路径_255" data-name="路径 255" class="cls-1" d="M100.7,15.872V26.626H99.187L93.9,18.613v8.013H92.358V15.872h1.814l4.989,7.591V15.872Z" transform="translate(-52.776 -9.07)"/>
    <path id="路径_256" data-name="路径 256" class="cls-1" d="M100.7,15.872V26.626H99.187L93.9,18.613v8.013H92.358V15.872h1.814l4.989,7.591V15.872Z" transform="translate(-52.776 -9.07)"/>
    <path id="路径_257" data-name="路径 257" class="cls-1" d="M118.21,17.348v2.9h4.328v1.476H118.21v3.44h4.626v1.463h-6.324V15.872h6.324v1.476Z" transform="translate(-66.578 -9.07)"/>
    <path id="路径_258" data-name="路径 258" class="cls-1" d="M118.21,17.348v2.9h4.328v1.476H118.21v3.44h4.626v1.463h-6.324V15.872h6.324v1.476Z" transform="translate(-66.578 -9.07)"/>
    <path id="路径_259" data-name="路径 259" class="cls-1" d="M134.827,18.5a2.994,2.994,0,0,1,.414-1.581,2.855,2.855,0,0,1,1.231-1.068,4.334,4.334,0,0,1,1.879-.382,4.116,4.116,0,0,1,2.242.567,2.9,2.9,0,0,1,1.231,1.621l-1.374.659a2.05,2.05,0,0,0-.738-1.015,2.275,2.275,0,0,0-1.322-.343,2.147,2.147,0,0,0-1.386.382,1.333,1.333,0,0,0-.467,1.094,1.389,1.389,0,0,0,.195.765,1.634,1.634,0,0,0,.661.5,6.3,6.3,0,0,0,1.257.356,4.912,4.912,0,0,1,2.579,1.133,2.94,2.94,0,0,1,.79,2.175,2.982,2.982,0,0,1-.48,1.661,3.133,3.133,0,0,1-1.322,1.134,4.457,4.457,0,0,1-1.944.408,4.563,4.563,0,0,1-2.488-.633,3.117,3.117,0,0,1-1.347-1.806l1.386-.659a2.136,2.136,0,0,0,.868,1.2,2.8,2.8,0,0,0,1.568.408,2.335,2.335,0,0,0,1.516-.435,1.509,1.509,0,0,0,.531-1.239,1.4,1.4,0,0,0-.531-1.16,4.23,4.23,0,0,0-1.814-.7,4.674,4.674,0,0,1-2.384-1.054A2.686,2.686,0,0,1,134.827,18.5Z" transform="translate(-76.822 -8.841)"/>
    <path id="路径_260" data-name="路径 260" class="cls-1" d="M134.827,18.5a2.994,2.994,0,0,1,.414-1.581,2.855,2.855,0,0,1,1.231-1.068,4.334,4.334,0,0,1,1.879-.382,4.116,4.116,0,0,1,2.242.567,2.9,2.9,0,0,1,1.231,1.621l-1.374.659a2.05,2.05,0,0,0-.738-1.015,2.275,2.275,0,0,0-1.322-.343,2.147,2.147,0,0,0-1.386.382,1.333,1.333,0,0,0-.467,1.094,1.389,1.389,0,0,0,.195.765,1.634,1.634,0,0,0,.661.5,6.3,6.3,0,0,0,1.257.356,4.912,4.912,0,0,1,2.579,1.133,2.94,2.94,0,0,1,.79,2.175,2.982,2.982,0,0,1-.48,1.661,3.133,3.133,0,0,1-1.322,1.134,4.457,4.457,0,0,1-1.944.408,4.563,4.563,0,0,1-2.488-.633,3.117,3.117,0,0,1-1.347-1.806l1.386-.659a2.136,2.136,0,0,0,.868,1.2,2.8,2.8,0,0,0,1.568.408,2.335,2.335,0,0,0,1.516-.435,1.509,1.509,0,0,0,.531-1.239,1.4,1.4,0,0,0-.531-1.16,4.23,4.23,0,0,0-1.814-.7,4.674,4.674,0,0,1-2.384-1.054A2.686,2.686,0,0,1,134.827,18.5Z" transform="translate(-76.822 -8.841)"/>
    <path id="路径_261" data-name="路径 261" class="cls-1" d="M161.957,17.348h-2.8v9.278h-1.71V17.348h-2.812V15.872h7.322Z" transform="translate(-88.363 -9.07)"/>
    <path id="路径_262" data-name="路径 262" class="cls-1" d="M161.957,17.348h-2.8v9.278h-1.71V17.348h-2.812V15.872h7.322Z" transform="translate(-88.363 -9.07)"/>
    <g id="组_58" data-name="组 58" transform="translate(0 0)">
        <path id="路径_263" data-name="路径 263" class="cls-1" d="M41.978,33.848a.429.429,0,0,1,.585-.157l.742.429a.429.429,0,0,1,.157.585l-.429.742a.429.429,0,0,1-.585.157l-.742-.429a.429.429,0,0,1-.157-.585Z" transform="translate(-23.71 -19.219)"/>
        <path id="路径_264" data-name="路径 264" class="cls-1" d="M41.978,33.848a.429.429,0,0,1,.585-.157l.742.429a.429.429,0,0,1,.157.585l-.429.742a.429.429,0,0,1-.585.157l-.742-.429a.429.429,0,0,1-.157-.585Z" transform="translate(-23.71 -19.219)"/>
        <path id="路径_265" data-name="路径 265" class="cls-1" d="M34.906,28.116a.429.429,0,0,1,.585-.157l.742.429a.429.429,0,0,1,.157.585L35.1,31.2a.429.429,0,0,1-.585.157l-.742-.429a.429.429,0,0,1-.157-.585Z" transform="translate(-19.179 -15.944)"/>
        <path id="路径_266" data-name="路径 266" class="cls-1" d="M34.906,28.116a.429.429,0,0,1,.585-.157l.742.429a.429.429,0,0,1,.157.585L35.1,31.2a.429.429,0,0,1-.585.157l-.742-.429a.429.429,0,0,1-.157-.585Z" transform="translate(-19.179 -15.944)"/>
        <path id="路径_267" data-name="路径 267" class="cls-1" d="M27.836,22.384a.429.429,0,0,1,.585-.157l.742.429a.429.429,0,0,1,.157.585l-2.143,3.711a.429.429,0,0,1-.585.157l-.742-.429a.429.429,0,0,1-.157-.585Z" transform="translate(-14.649 -12.669)"/>
        <path id="路径_268" data-name="路径 268" class="cls-1" d="M27.836,22.384a.429.429,0,0,1,.585-.157l.742.429a.429.429,0,0,1,.157.585l-2.143,3.711a.429.429,0,0,1-.585.157l-.742-.429a.429.429,0,0,1-.157-.585Z" transform="translate(-14.649 -12.669)"/>
        <path id="路径_269" data-name="路径 269" class="cls-1" d="M21.05,20.116a.429.429,0,0,1,.585-.157l.742.429a.429.429,0,0,1,.157.585L21.249,23.2a.429.429,0,0,1-.585.157l-.742-.429a.429.429,0,0,1-.157-.585Z" transform="translate(-11.261 -11.373)"/>
        <path id="路径_270" data-name="路径 270" class="cls-1" d="M21.05,20.116a.429.429,0,0,1,.585-.157l.742.429a.429.429,0,0,1,.157.585L21.249,23.2a.429.429,0,0,1-.585.157l-.742-.429a.429.429,0,0,1-.157-.585Z" transform="translate(-11.261 -11.373)"/>
        <path id="路径_271" data-name="路径 271" class="cls-1" d="M14.264,17.848a.429.429,0,0,1,.585-.157l.742.429a.429.429,0,0,1,.157.585l-.429.742a.429.429,0,0,1-.585.157l-.742-.429a.429.429,0,0,1-.157-.585Z" transform="translate(-7.873 -10.077)"/>
        <path id="路径_272" data-name="路径 272" class="cls-1" d="M14.264,17.848a.429.429,0,0,1,.585-.157l.742.429a.429.429,0,0,1,.157.585l-.429.742a.429.429,0,0,1-.585.157l-.742-.429a.429.429,0,0,1-.157-.585Z" transform="translate(-7.873 -10.077)"/>
        <path id="路径_273" data-name="路径 273" class="cls-2" d="M30.061,28.348a1.714,1.714,0,0,1-1.693,0l-8.683-4.934a.858.858,0,0,1-.322-1.169l.847-1.491a.857.857,0,0,1,1.169-.322l6.99,3.972a1.714,1.714,0,0,0,1.693,0l2.357-1.338a1.713,1.713,0,0,0,.868-1.491L33.276,8.857A.857.857,0,0,1,34.133,8h1.714a.857.857,0,0,1,.857.857l.011,14.714a1.714,1.714,0,0,1-.868,1.491Z" transform="translate(-11.001 -4.571)"/>
        <path id="路径_274" data-name="路径 274" class="cls-2" d="M30.061,28.348a1.714,1.714,0,0,1-1.693,0l-8.683-4.934a.858.858,0,0,1-.322-1.169l.847-1.491a.857.857,0,0,1,1.169-.322l6.99,3.972a1.714,1.714,0,0,0,1.693,0l2.357-1.338a1.713,1.713,0,0,0,.868-1.491L33.276,8.857A.857.857,0,0,1,34.133,8h1.714a.857.857,0,0,1,.857.857l.011,14.714a1.714,1.714,0,0,1-.868,1.491Z" transform="translate(-11.001 -4.571)"/>
        <path id="路径_275" data-name="路径 275" class="cls-2" d="M6.654.224a1.714,1.714,0,0,1,1.693,0L17.03,5.157a.857.857,0,0,1,.322,1.169l-.847,1.491a.857.857,0,0,1-1.169.322L8.346,4.167a1.714,1.714,0,0,0-1.693,0L4.3,5.505A1.713,1.713,0,0,0,3.429,7V19.714a.857.857,0,0,1-.857.857H.857A.857.857,0,0,1,0,19.714V5A1.714,1.714,0,0,1,.868,3.51Z" transform="translate(0 0)"/>
        <path id="路径_276" data-name="路径 276" class="cls-2" d="M6.654.224a1.714,1.714,0,0,1,1.693,0L17.03,5.157a.857.857,0,0,1,.322,1.169l-.847,1.491a.857.857,0,0,1-1.169.322L8.346,4.167a1.714,1.714,0,0,0-1.693,0L4.3,5.505A1.713,1.713,0,0,0,3.429,7V19.714a.857.857,0,0,1-.857.857H.857A.857.857,0,0,1,0,19.714V5A1.714,1.714,0,0,1,.868,3.51Z" transform="translate(0 0)"/>
    </g>
</svg>
