<svg width="76" height="24" viewBox="0 0 76 24" fill="none" xmlns="http://www.w3.org/2000/svg">
<path d="M20.9 12.7001L18.8 23.2001C18.7 23.4001 18.6 23.6001 18.4 23.6001H15.8C15.5 23.6001 15.3 23.3001 15.4 23.1001L17.5 12.8001C17.6 12.2001 17.7 11.6001 17.7 11.2001C17.7 8.7001 16.2 7.3001 13.2 7.3001C9.39999 7.3001 6.89999 9.3001 6.09999 13.5001L4.09999 23.4001C3.99999 23.6001 3.89999 23.8001 3.69999 23.8001H0.999987C0.699987 23.8001 0.499988 23.5001 0.599988 23.3001L4.19999 4.6001C4.29999 4.4001 4.39999 4.2001 4.59999 4.2001H7.09999C7.39999 4.2001 7.59999 4.5001 7.49999 4.7001L7.29999 5.5001C7.29999 5.9001 7.69999 6.2001 7.99999 6.0001C9.69999 4.7001 11.8 4.1001 14.1 4.1001C18.5 4.1001 21.1 6.4001 21.1 10.5001C21.1 11.1001 21 11.9001 20.9 12.7001Z" fill="white"/>
<path d="M61.0999 6.10014L60.0999 8.10014C59.9999 8.40014 59.6999 8.40014 59.4999 8.30014C57.9999 7.40014 55.9999 7.00014 54.1999 7.00014C50.8999 7.00014 49.2999 8.20015 49.2999 9.90015C49.2999 13.8001 59.9999 11.1001 59.9999 17.5001C59.9999 21.5001 56.3999 23.8001 51.0999 23.8001C47.9999 23.8001 45.0999 22.9001 43.4999 21.8001C43.2999 21.7001 43.2999 21.4001 43.3999 21.2001L44.5999 19.2001C44.6999 19.0001 44.9999 18.9001 45.1999 19.0001C46.6999 20.1001 49.0999 20.7001 51.4999 20.7001C54.8999 20.7001 56.5999 19.6001 56.5999 17.8001C56.5999 14.0001 45.8999 16.7001 45.8999 10.2001C45.8999 6.40015 49.3999 3.90015 54.5999 3.90015C56.9999 3.90015 59.3999 4.50014 60.9999 5.50014C61.1999 5.70015 61.1999 5.90014 61.0999 6.10014Z" fill="white"/>
<path d="M75.5 4.7001L75.1 6.7001C75 6.9001 74.9 7.1001 74.7 7.1001H69.9C69.7 7.1001 69.5 7.3001 69.5 7.5001L67.5 17.4001C67.4 17.8001 67.4 18.1001 67.4 18.4001C67.4 19.9001 68.2 20.8001 69.9 20.8001C70.7 20.8001 71.5 20.6001 72.2 20.2001C72.5 20.0001 72.8 20.2001 72.8 20.5001L73.3 22.3001C73.4 22.5001 73.3 22.7001 73.1 22.8001C71.8 23.6001 70.3 23.9001 68.9 23.9001C65.9 23.9001 63.8 22.1001 63.8 19.1001C63.8 18.6001 63.9 18.1001 64 17.6001L67.4 0.500099C67.5 0.300099 67.6 0.100098 67.8 0.100098H70.4C70.7 0.100098 70.9 0.400098 70.8 0.600098L70.1 3.8001C70 4.1001 70.3 4.3001 70.5 4.3001H75C75.4 4.2001 75.6 4.4001 75.5 4.7001Z" fill="white"/>
<path d="M34.5999 4C28.2999 4 23.7 8.9 23.7 15.3C23.7 20.4 27.2 23.7 33 23.7C35.9 23.7 38.6 22.8 40.5 21.2C40.7 21 40.6999 20.8 40.5999 20.6L39.5 18.8C39.3 18.5 38.9999 18.5 38.7999 18.7C37.4 19.9 35.4 20.6 33.2 20.6C29.7 20.6 27.7999 19.2 27.2999 16.8C27.1999 16.5 27.4 16.3 27.7 16.3L42.9 13.5C43.1 13.4 43.2999 13.3 43.2999 13.1C43.2999 12.9 43.2999 12.7 43.2999 12.5C43.1999 7 39.6999 4 34.5999 4ZM39.5999 11.6L27.7999 13.8C27.4999 13.9 27.1999 13.6 27.2999 13.3C27.9999 9.4 30.7 7 34.5 7C37.5 7 39.6 8.5 40 11.2C40 11.3 39.7999 11.5 39.5999 11.6Z" fill="white"/>
</svg>
