<svg xmlns="http://www.w3.org/2000/svg" width="240" height="80" viewBox="0 0 240 80">
  <g id="nestlabs" transform="translate(3 -57)">
    <rect id="矩形_19" data-name="矩形 19" width="240" height="80" transform="translate(-3 57)" fill="none"/>
    <g id="组_60" data-name="组 60" transform="translate(27 77)">
      <path id="联合_2" data-name="联合 2" d="M32.8,17.709a5.274,5.274,0,0,1-2.28-3.056l2.347-1.115a3.615,3.615,0,0,0,1.469,2.029,4.737,4.737,0,0,0,2.654.691,3.949,3.949,0,0,0,2.566-.736,2.552,2.552,0,0,0,.9-2.1,2.367,2.367,0,0,0-.9-1.963,7.152,7.152,0,0,0-3.07-1.182A7.916,7.916,0,0,1,32.452,8.5,4.549,4.549,0,0,1,31.18,5.131a5.068,5.068,0,0,1,.7-2.677A4.834,4.834,0,0,1,33.966.647,7.336,7.336,0,0,1,37.145,0a6.966,6.966,0,0,1,3.794.959A4.9,4.9,0,0,1,43.023,3.7L40.7,4.818A3.47,3.47,0,0,0,39.448,3.1a3.85,3.85,0,0,0-2.237-.58,3.637,3.637,0,0,0-2.347.647,2.256,2.256,0,0,0-.789,1.851A2.354,2.354,0,0,0,34.4,6.312a2.767,2.767,0,0,0,1.119.847,10.71,10.71,0,0,0,2.127.6,8.313,8.313,0,0,1,4.364,1.918,4.976,4.976,0,0,1,1.337,3.68,5.051,5.051,0,0,1-.811,2.811A5.3,5.3,0,0,1,40.3,18.089a7.544,7.544,0,0,1-3.289.691A7.723,7.723,0,0,1,32.8,17.709Zm17.129.781V2.788H45.172V.29H57.564v2.5H52.827v15.7Zm-32.412,0V.29h10.7v2.5H20.393V7.7h7.326v2.5H20.393v5.821h7.829V18.49Zm-5.962,0L2.61,4.93V18.49H0V.29H3.071l8.444,12.847V.29h2.61v18.2Zm92.875-1.316a5.105,5.105,0,0,1-2-2.633l.877-.423a4.376,4.376,0,0,0,1.623,2.274,4.886,4.886,0,0,0,2.829.781,4.427,4.427,0,0,0,3.115-1.049,3.651,3.651,0,0,0,1.162-2.854,3.543,3.543,0,0,0-.417-1.807,3.2,3.2,0,0,0-1.315-1.249,10.574,10.574,0,0,0-2.545-.915,8.42,8.42,0,0,1-3.662-1.695,3.775,3.775,0,0,1-1.1-2.832A4.036,4.036,0,0,1,104.3,1.606,5.153,5.153,0,0,1,107.877.424a5.352,5.352,0,0,1,2.983.825A4.227,4.227,0,0,1,112.614,3.5l-.9.4q-.79-2.52-3.838-2.521a4.26,4.26,0,0,0-2.9.87,3.147,3.147,0,0,0-.964,2.5,3.221,3.221,0,0,0,.373,1.629,2.911,2.911,0,0,0,1.228,1.093,11.768,11.768,0,0,0,2.391.848,11.511,11.511,0,0,1,2.916,1.137,4.021,4.021,0,0,1,1.579,1.562,4.6,4.6,0,0,1,.505,2.253,4.837,4.837,0,0,1-.659,2.543,4.285,4.285,0,0,1-1.842,1.7,5.975,5.975,0,0,1-2.742.6A5.866,5.866,0,0,1,104.434,17.175Zm-14.679.714V.67h5.461a4.457,4.457,0,0,1,2.237.558,3.793,3.793,0,0,1,1.535,1.517,4.416,4.416,0,0,1,.548,2.23,4.034,4.034,0,0,1-.7,2.409A3.717,3.717,0,0,1,96.9,8.766a4.306,4.306,0,0,1,3.377,4.394,5.076,5.076,0,0,1-.592,2.5A4.048,4.048,0,0,1,98,17.309a5.139,5.139,0,0,1-2.478.579Zm5.789-.959A3.7,3.7,0,0,0,98.308,15.9a3.773,3.773,0,0,0,1.009-2.766,3.8,3.8,0,0,0-1.009-2.788A3.652,3.652,0,0,0,95.544,9.3H90.719v7.628Zm-.263-8.587a3.182,3.182,0,0,0,2.413-.915A3.363,3.363,0,0,0,98.571,5a3.284,3.284,0,0,0-.921-2.476,3.217,3.217,0,0,0-2.369-.892H90.719V8.342Zm-8.822,9.546L84.4,12.156H77.139l-2.061,5.733H74.09L80.384.67h.834l6.316,17.219Zm-2.413-6.714L80.779,2.052l-3.29,9.122ZM64.011,17.888V.67h.964v16.26h7.786v.959Z" transform="translate(66.99 11.222)" fill="#878787"/>
      <path id="联合_1" data-name="联合 1" d="M29.394,40.24,14.7,31.89a1.451,1.451,0,0,1-.545-1.978l1.433-2.523a1.451,1.451,0,0,1,1.978-.545l11.83,6.722a2.9,2.9,0,0,0,2.866,0L36.249,31.3a2.9,2.9,0,0,0,1.469-2.523L37.7,7.253A1.45,1.45,0,0,1,39.151,5.8h2.9A1.45,1.45,0,0,1,43.5,7.253l.018,24.9a2.9,2.9,0,0,1-1.469,2.523L32.26,40.24a2.9,2.9,0,0,1-2.866,0ZM1.451,34.816A1.451,1.451,0,0,1,0,33.366V8.462A2.9,2.9,0,0,1,1.469,5.94L11.261.378a2.9,2.9,0,0,1,2.865,0l14.7,8.35a1.45,1.45,0,0,1,.545,1.978L27.934,13.23a1.451,1.451,0,0,1-1.978.545L14.126,7.052a2.9,2.9,0,0,0-2.867,0L7.271,9.318A2.9,2.9,0,0,0,5.8,11.841V33.366a1.45,1.45,0,0,1-1.451,1.451Zm30.264-7.085-1.256-.725a.725.725,0,0,1-.266-.991l.726-1.256a.725.725,0,0,1,.991-.265l1.256.725a.725.725,0,0,1,.266.991l-.726,1.256a.725.725,0,0,1-.991.266Zm-5.751-1.645-1.256-.726a.725.725,0,0,1-.266-.991L26.618,20.6a.726.726,0,0,1,.991-.266l1.255.726a.725.725,0,0,1,.266.991l-2.176,3.769a.725.725,0,0,1-.991.266Zm-5.749-1.645-1.256-.725a.725.725,0,0,1-.266-.991l3.627-6.281a.725.725,0,0,1,.991-.265l1.256.725a.725.725,0,0,1,.266.991L21.2,24.176a.725.725,0,0,1-.991.265Zm-4.3-4.157-1.256-.726a.725.725,0,0,1-.266-.991L16.567,14.8a.726.726,0,0,1,.991-.266l1.256.726a.725.725,0,0,1,.265.991L16.9,20.018a.725.725,0,0,1-.991.266Zm-4.3-4.158L10.357,15.4a.725.725,0,0,1-.266-.991l.725-1.256a.725.725,0,0,1,.991-.266l1.257.725a.726.726,0,0,1,.266.991L12.6,15.86a.725.725,0,0,1-.991.265Z" transform="translate(0 0)" fill="#878787"/>
    </g>
  </g>
</svg>
