<svg xmlns="http://www.w3.org/2000/svg" width="72.343" height="24" viewBox="0 0 72.343 24">
  <defs>
    <style>
      .cls-1, .cls-2 {
        fill: #878787;
      }

      .cls-2 {
        opacity: 0.5;
      }
    </style>
  </defs>
  <g id="OKEx_Blockdream_Ventures" data-name="OKEx Blockdream Ventures" transform="translate(-0.046 -0.052)">
    <g id="组_42" data-name="组 42" transform="translate(0.046 0.052)">
      <g id="组_41" data-name="组 41" transform="translate(0 0)">
        <path id="路径_146" data-name="路径 146" class="cls-1" d="M142.358,10.761a5.433,5.433,0,0,0,2.584,0,5.439,5.439,0,0,1,3.984-3.984,5.432,5.432,0,1,0-10.552,0A5.439,5.439,0,0,1,142.358,10.761Z" transform="translate(-131.65 -0.053)"/>
        <path id="路径_147" data-name="路径 147" class="cls-1" d="M144.943,276.554a5.433,5.433,0,0,0-2.584,0,5.439,5.439,0,0,1-3.984,3.984,5.432,5.432,0,1,0,10.552,0A5.439,5.439,0,0,1,144.943,276.554Z" transform="translate(-131.651 -263.262)"/>
        <path id="路径_148" data-name="路径 148" class="cls-1" d="M281.823,138.225a5.442,5.442,0,0,0-1.292.156,5.439,5.439,0,0,1-3.984,3.984,5.432,5.432,0,0,0,0,2.584,5.439,5.439,0,0,1,3.984,3.984,5.432,5.432,0,1,0,1.292-10.708Z" transform="translate(-263.255 -131.657)"/>
        <path id="路径_149" data-name="路径 149" class="cls-1" d="M10.754,144.95a5.433,5.433,0,0,0,0-2.584,5.439,5.439,0,0,1-3.984-3.984,5.432,5.432,0,1,0,0,10.552A5.439,5.439,0,0,1,10.754,144.95Z" transform="translate(-0.046 -131.658)"/>
      </g>
      <path id="路径_150" data-name="路径 150" class="cls-2" d="M279.669,145.488a5.439,5.439,0,0,0,3.984-3.984A5.439,5.439,0,0,0,279.669,145.488Z" transform="translate(-266.377 -134.78)"/>
      <path id="路径_151" data-name="路径 151" class="cls-2" d="M279.669,279.676a5.439,5.439,0,0,0,3.984,3.984A5.439,5.439,0,0,0,279.669,279.676Z" transform="translate(-266.377 -266.384)"/>
      <path id="路径_152" data-name="路径 152" class="cls-2" d="M145.481,145.488A5.439,5.439,0,0,0,141.5,141.5,5.439,5.439,0,0,0,145.481,145.488Z" transform="translate(-134.773 -134.78)"/>
      <path id="路径_153" data-name="路径 153" class="cls-2" d="M145.481,279.676a5.439,5.439,0,0,0-3.984,3.984A5.439,5.439,0,0,0,145.481,279.676Z" transform="translate(-134.773 -266.384)"/>
    </g>
    <g id="组_46" data-name="组 46" transform="translate(27.942 0.052)">
      <g id="组_43" data-name="组 43" transform="translate(0 0)">
        <path id="路径_154" data-name="路径 154" class="cls-1" d="M586.9,3.1V3.036A2.9,2.9,0,0,1,589.917.052,2.85,2.85,0,0,1,592.934,3v.066A3.017,3.017,0,0,1,586.9,3.1Zm4.649-.016V3.02c0-1.14-.607-1.919-1.632-1.919s-1.632.746-1.632,1.927v.066a1.7,1.7,0,0,0,1.648,1.935C590.926,5.029,591.549,4.266,591.549,3.086Z" transform="translate(-586.9 -0.052)"/>
        <path id="路径_155" data-name="路径 155" class="cls-1" d="M729.849,1.777h1.072a.128.128,0,0,1,.128.128V4.3l2.011-2.478a.128.128,0,0,1,.1-.047h1.167a.085.085,0,0,1,.065.14l-2.2,2.631L734.515,7.5a.085.085,0,0,1-.067.138h-1.311a.128.128,0,0,1-.1-.05l-1.987-2.582v2.5a.128.128,0,0,1-.128.128h-1.072a.128.128,0,0,1-.128-.128V1.9A.128.128,0,0,1,729.849,1.777Z" transform="translate(-722.932 -1.695)"/>
        <path id="路径_156" data-name="路径 156" class="cls-1" d="M843.862,1.777h3.565a.128.128,0,0,1,.128.128v.777a.128.128,0,0,1-.128.128h-2.287a.085.085,0,0,0-.085.085v1.2a.085.085,0,0,0,.085.085h1.787a.128.128,0,0,1,.128.128v.712a.128.128,0,0,1-.128.128h-1.787a.085.085,0,0,0-.085.085V6.521a.085.085,0,0,0,.085.085h2.419a.128.128,0,0,1,.128.128v.777a.128.128,0,0,1-.128.128h-3.7a.128.128,0,0,1-.128-.128V1.9A.128.128,0,0,1,843.862,1.777Z" transform="translate(-831.526 -1.695)"/>
        <path id="路径_157" data-name="路径 157" class="cls-1" d="M935.55,36.993l-1.262-1.934a.107.107,0,0,1,.089-.165h1.117a.085.085,0,0,1,.072.04l.705,1.13a.085.085,0,0,0,.145,0l.69-1.129a.085.085,0,0,1,.073-.041h.98a.107.107,0,0,1,.088.167L936.993,36.9l1.4,2.114a.107.107,0,0,1-.089.165h-1.123a.085.085,0,0,1-.072-.04l-.805-1.289a.085.085,0,0,0-.144,0l-.829,1.29a.085.085,0,0,1-.072.039h-.975a.107.107,0,0,1-.089-.166Z" transform="translate(-917.668 -33.238)"/>
      </g>
      <g id="组_44" data-name="组 44" transform="translate(0 8.86)">
        <path id="路径_158" data-name="路径 158" class="cls-1" d="M586.9,194.328a.128.128,0,0,1,.128-.128H589.2c1.279,0,1.943.525,1.943,1.525v.033a1.2,1.2,0,0,1-.951,1.254,1.287,1.287,0,0,1,1.172,1.377v.033c0,1.074-.705,1.64-2.058,1.64h-2.282a.128.128,0,0,1-.128-.128Zm2.091,2.283c.64,0,.894-.23.894-.754v-.033c0-.492-.279-.713-.9-.713h-.7a.085.085,0,0,0-.085.085v1.33a.085.085,0,0,0,.085.085Zm.115,2.533c.656,0,.951-.3.951-.828v-.033c0-.541-.3-.82-1.017-.82h-.759a.085.085,0,0,0-.085.085v1.51a.085.085,0,0,0,.085.085h.825Z" transform="translate(-586.9 -193.831)"/>
        <path id="路径_159" data-name="路径 159" class="cls-1" d="M694.833,186.439h.925a.128.128,0,0,1,.128.128v5.975a.128.128,0,0,1-.128.128h-.925a.128.128,0,0,1-.128-.128v-5.975A.128.128,0,0,1,694.833,186.439Z" transform="translate(-689.581 -186.439)"/>
        <path id="路径_160" data-name="路径 160" class="cls-1" d="M732.48,227.535v-.066a2.15,2.15,0,0,1,2.263-2.222,2.129,2.129,0,0,1,2.255,2.2v.066a2.26,2.26,0,0,1-4.518.025Zm3.312-.016v-.057c0-.82-.385-1.312-1.049-1.312s-1.049.476-1.049,1.3v.066c0,.82.377,1.312,1.049,1.312S735.792,228.33,735.792,227.518Z" transform="translate(-725.56 -223.402)"/>
        <path id="路径_161" data-name="路径 161" class="cls-1" d="M834.421,227.544v-.066a2.13,2.13,0,0,1,2.214-2.23,1.794,1.794,0,0,1,2,1.52.128.128,0,0,1-.127.145H837.6a.085.085,0,0,1-.083-.067.781.781,0,0,0-.857-.663c-.615,0-1.025.459-1.025,1.279v.066c0,.861.385,1.3,1.049,1.3a.864.864,0,0,0,.909-.757.085.085,0,0,1,.084-.071h.859a.128.128,0,0,1,.127.143,1.842,1.842,0,0,1-2.036,1.579A2.059,2.059,0,0,1,834.421,227.544Z" transform="translate(-822.655 -223.403)"/>
        <path id="路径_162" data-name="路径 162" class="cls-1" d="M935.452,186.439h.933a.128.128,0,0,1,.128.128V190a.064.064,0,0,0,.115.039l1.237-1.627a.085.085,0,0,1,.068-.034h1.043a.085.085,0,0,1,.067.139l-1.447,1.813,1.584,2.2a.085.085,0,0,1-.069.135h-1.134a.085.085,0,0,1-.07-.036l-1.277-1.823a.064.064,0,0,0-.116.037v1.694a.128.128,0,0,1-.128.128h-.933a.128.128,0,0,1-.128-.128v-5.975A.128.128,0,0,1,935.452,186.439Z" transform="translate(-918.762 -186.439)"/>
        <path id="路径_163" data-name="路径 163" class="cls-1" d="M1017.776,190.588v-.066c0-1.41.812-2.238,1.886-2.238a1.434,1.434,0,0,1,1.314.67.021.021,0,0,0,.039-.011v-2.376a.128.128,0,0,1,.128-.128h.925a.128.128,0,0,1,.128.128v5.975a.128.128,0,0,1-.128.128h-.925a.128.128,0,0,1-.128-.128v-.5a.021.021,0,0,0-.039-.011,1.572,1.572,0,0,1-1.338.732C1018.6,192.76,1017.776,192.014,1017.776,190.588Zm3.271-.041v-.066c0-.853-.377-1.287-1.025-1.287-.664,0-1.033.451-1.033,1.3v.066c0,.853.41,1.271,1,1.271C1020.613,191.834,1021.047,191.416,1021.047,190.547Z" transform="translate(-997.295 -186.439)"/>
        <path id="路径_164" data-name="路径 164" class="cls-1" d="M1128.812,226.108h.933a.128.128,0,0,1,.128.128v.692a1.389,1.389,0,0,1,1.25-.88.128.128,0,0,1,.136.128v.847a.128.128,0,0,1-.125.128c-.8.02-1.26.318-1.26,1.1v2.02a.128.128,0,0,1-.128.128h-.933a.128.128,0,0,1-.128-.128v-4.032A.128.128,0,0,1,1128.812,226.108Z" transform="translate(-1102.931 -224.165)"/>
        <path id="路径_165" data-name="路径 165" class="cls-1" d="M1187.851,227.544v-.066a2.129,2.129,0,0,1,2.205-2.23,1.977,1.977,0,0,1,2.091,2.181v.2a.128.128,0,0,1-.128.128h-2.871a.086.086,0,0,0-.085.094,1.008,1.008,0,0,0,1.059,1.03c.5,0,.773-.2.871-.511a.128.128,0,0,1,.123-.088h.868a.128.128,0,0,1,.125.158c-.2.827-.915,1.285-2.019,1.285A2.081,2.081,0,0,1,1187.851,227.544Zm3.047-.517a.086.086,0,0,0,.085-.1.855.855,0,0,0-.926-.864.96.96,0,0,0-.966.857.086.086,0,0,0,.084.1h1.723Z" transform="translate(-1159.285 -223.403)"/>
        <path id="路径_166" data-name="路径 166" class="cls-1" d="M1285.305,228.445c0-1,.918-1.377,2.23-1.377H1288a.021.021,0,0,0,.021-.021v-.151c0-.508-.156-.787-.7-.787a.639.639,0,0,0-.712.509.127.127,0,0,1-.124.1h-.874a.128.128,0,0,1-.127-.148c.138-.913.913-1.32,1.91-1.32,1.049,0,1.8.426,1.8,1.591v2.668a.128.128,0,0,1-.128.128h-.9a.128.128,0,0,1-.128-.128v-.389a1.458,1.458,0,0,1-1.3.607C1285.961,229.724,1285.305,229.346,1285.305,228.445Zm2.714-.312v-.339a.021.021,0,0,0-.021-.021h-.438c-.689,0-1.091.148-1.091.607,0,.312.189.517.623.517C1287.617,228.9,1288.019,228.609,1288.019,228.133Z" transform="translate(-1252.107 -223.402)"/>
        <path id="路径_167" data-name="路径 167" class="cls-1" d="M1384.266,225.345h.933a.128.128,0,0,1,.128.128v.448a.021.021,0,0,0,.039.011,1.464,1.464,0,0,1,1.273-.686,1.183,1.183,0,0,1,1.182.71.021.021,0,0,0,.037,0,1.706,1.706,0,0,1,1.421-.714c.8,0,1.41.5,1.41,1.64v2.619a.128.128,0,0,1-.128.128h-.925a.128.128,0,0,1-.128-.128v-2.487c0-.549-.246-.8-.672-.8a.8.8,0,0,0-.828.877v2.405a.128.128,0,0,1-.128.128h-.925a.128.128,0,0,1-.128-.128v-2.487c0-.549-.254-.8-.672-.8a.8.8,0,0,0-.828.877v2.405a.128.128,0,0,1-.128.128h-.933a.128.128,0,0,1-.128-.128v-4.032A.128.128,0,0,1,1384.266,225.345Z" transform="translate(-1346.242 -223.402)"/>
      </g>
      <g id="组_45" data-name="组 45" transform="translate(0 18.047)">
        <path id="路径_168" data-name="路径 168" class="cls-1" d="M587.027,379.724h1.13a.128.128,0,0,1,.122.09l1.346,4.345a.021.021,0,0,0,.041,0l1.346-4.345a.128.128,0,0,1,.122-.09h.974a.128.128,0,0,1,.121.168l-1.866,5.606a.128.128,0,0,1-.121.088H588.9a.128.128,0,0,1-.121-.087l-1.874-5.606A.128.128,0,0,1,587.027,379.724Z" transform="translate(-586.899 -379.724)"/>
        <path id="路径_169" data-name="路径 169" class="cls-1" d="M693.316,413.067V413a2.129,2.129,0,0,1,2.205-2.23,1.977,1.977,0,0,1,2.091,2.181v.2a.128.128,0,0,1-.128.128h-2.871a.086.086,0,0,0-.085.094,1.008,1.008,0,0,0,1.059,1.03c.5,0,.773-.2.871-.511a.128.128,0,0,1,.123-.088h.868a.128.128,0,0,1,.125.158c-.2.827-.915,1.285-2.019,1.285A2.081,2.081,0,0,1,693.316,413.067Zm3.047-.517a.086.086,0,0,0,.085-.1.855.855,0,0,0-.926-.864.96.96,0,0,0-.966.857.086.086,0,0,0,.084.1h1.723Z" transform="translate(-688.258 -409.295)"/>
        <path id="路径_170" data-name="路径 170" class="cls-1" d="M795.9,410.869h.933a.128.128,0,0,1,.128.128v.469a.021.021,0,0,0,.039.011,1.5,1.5,0,0,1,1.354-.706c.844,0,1.443.508,1.443,1.656v2.6a.128.128,0,0,1-.128.128h-.933a.128.128,0,0,1-.128-.128V412.6c0-.582-.23-.861-.754-.861a.849.849,0,0,0-.894.943v2.348a.128.128,0,0,1-.128.128H795.9a.128.128,0,0,1-.128-.128V411A.128.128,0,0,1,795.9,410.869Z" transform="translate(-785.844 -409.295)"/>
        <path id="路径_171" data-name="路径 171" class="cls-1" d="M890.327,397.294v-2.151a.021.021,0,0,0-.021-.021h-.4a.128.128,0,0,1-.128-.128V394.4a.128.128,0,0,1,.128-.128h.421v-.8a.128.128,0,0,1,.128-.128h.925a.128.128,0,0,1,.128.128v.8h.774a.128.128,0,0,1,.128.128v.589a.128.128,0,0,1-.128.128h-.753a.021.021,0,0,0-.021.021v2.045c0,.344.172.508.476.508a1.239,1.239,0,0,0,.292-.03.128.128,0,0,1,.159.124v.649a.128.128,0,0,1-.092.123,2.222,2.222,0,0,1-.63.085A1.223,1.223,0,0,1,890.327,397.294Z" transform="translate(-875.381 -392.702)"/>
        <path id="路径_172" data-name="路径 172" class="cls-1" d="M957.566,415.6v-2.635a.128.128,0,0,1,.128-.128h.925a.128.128,0,0,1,.128.128v2.471c0,.582.238.861.746.861a.853.853,0,0,0,.894-.943v-2.389a.128.128,0,0,1,.128-.128h.925a.128.128,0,0,1,.128.128V417a.128.128,0,0,1-.128.128h-.925a.128.128,0,0,1-.128-.128v-.544a1.422,1.422,0,0,1-1.361.762C958.189,417.218,957.566,416.726,957.566,415.6Z" transform="translate(-939.946 -411.266)"/>
        <path id="路径_173" data-name="路径 173" class="cls-1" d="M1059.636,411.632h.933a.128.128,0,0,1,.128.128v.692a1.389,1.389,0,0,1,1.25-.88.128.128,0,0,1,.136.128v.847a.128.128,0,0,1-.125.128c-.8.02-1.26.318-1.26,1.1v2.02a.128.128,0,0,1-.128.128h-.933a.128.128,0,0,1-.128-.128V411.76A.128.128,0,0,1,1059.636,411.632Z" transform="translate(-1037.043 -410.058)"/>
        <path id="路径_174" data-name="路径 174" class="cls-1" d="M1118.674,413.067V413a2.129,2.129,0,0,1,2.205-2.23,1.977,1.977,0,0,1,2.091,2.181v.2a.128.128,0,0,1-.128.128h-2.871a.086.086,0,0,0-.085.094,1.008,1.008,0,0,0,1.059,1.03c.5,0,.773-.2.871-.511a.128.128,0,0,1,.123-.088h.868a.128.128,0,0,1,.125.158c-.2.827-.915,1.285-2.019,1.285A2.081,2.081,0,0,1,1118.674,413.067Zm3.047-.517a.086.086,0,0,0,.085-.1.855.855,0,0,0-.926-.864.96.96,0,0,0-.966.857.086.086,0,0,0,.084.1h1.723Z" transform="translate(-1093.396 -409.295)"/>
        <path id="路径_175" data-name="路径 175" class="cls-1" d="M1215.8,413.814h.86a.127.127,0,0,1,.125.1c.069.324.267.507.738.507s.672-.172.672-.467-.254-.418-.869-.508c-1.14-.172-1.582-.5-1.582-1.336,0-.894.82-1.336,1.7-1.336.9,0,1.587.308,1.749,1.175a.129.129,0,0,1-.126.153h-.841a.127.127,0,0,1-.123-.091c-.082-.29-.278-.425-.651-.425s-.607.18-.607.443.2.377.828.467c1.074.156,1.664.426,1.664,1.345s-.672,1.41-1.8,1.41c-1.094,0-1.755-.455-1.857-1.289A.129.129,0,0,1,1215.8,413.814Z" transform="translate(-1185.781 -409.296)"/>
      </g>
    </g>
  </g>
</svg>
