<svg xmlns="http://www.w3.org/2000/svg" width="240" height="80" viewBox="0 0 240 80">
    <g id="Parasset" transform="translate(3 -57)">
        <rect id="矩形_19" data-name="矩形 19" width="240" height="80" transform="translate(-3 57)" fill="none"/>
        <path id="PARASSET_LOGO" d="M0,13.221l2.922,2.619V32.7L0,30.084Zm2.922.593s-.612-6.3,4.933-9.467a10.2,10.2,0,0,1,11,.426l2.084-2.087A13.287,13.287,0,0,0,6.825,1.562,13.047,13.047,0,0,0,.117,11.274ZM4.19,22.63a13.048,13.048,0,0,0,7.287,3.4,13.188,13.188,0,0,0,9.568-2.7l-2.082-2.079s-2.6,2.373-7.434,1.8S4.19,18,4.19,18ZM19.851,5.576a10.865,10.865,0,0,1,3.284,7.474,10.645,10.645,0,0,1-3.19,7.384L22.007,22.5a12.706,12.706,0,0,0,4.051-9.448,12.922,12.922,0,0,0-4.145-9.538ZM40.826,13.22,37.9,15.839V32.7l2.922-2.619Zm-.116-1.945A12.984,12.984,0,0,0,21.628,1.589L23.986,3.68a10.225,10.225,0,0,1,8.986.666c5.545,3.166,4.933,9.467,4.933,9.467ZM36.636,18s-2.507,4.479-7.339,5.053a10.991,10.991,0,0,1-5.314-.6,21.573,21.573,0,0,1-2.36,2.088,13.79,13.79,0,0,0,7.726,1.485,13.048,13.048,0,0,0,7.287-3.4ZM17.49,5.053a13.139,13.139,0,0,0,0,16.013c1.031-.9,1.264-1.1,2.261-1.936a10.378,10.378,0,0,1-2.06-6.08A10.422,10.422,0,0,1,19.75,7C18.743,6.14,18.3,5.786,17.49,5.053ZM61.342,2.292h.816a2.739,2.739,0,1,1,0,5.478h-.816v2.292h1.467s5.061,0,5.061-5.031S62.808,0,62.808,0H61.342ZM60.073,0,57.152,2.615v12.83l2.921-2.615ZM87.522,2.3h.839s2.873,0,2.873,2.739-2.873,2.739-2.873,2.739h-.839v2.292h1.51s5.209,0,5.209-5.031S89.032,0,89.032,0h-1.51ZM86.254,0,83.332,2.619v12.83l2.922-2.615Zm1.268,10.061,3.5,5.385h3.5L90.438,9.655ZM67.869,15.45h2.978L74.755,2.291l3.89,13.158h3.145L76.635,0h-3.61Zm5.419-3.95H76.2l-.729-2.46H74.019Zm22.79,3.951h2.978l3.909-13.158,3.89,13.158H110L104.844,0h-3.611ZM101.5,11.5h2.917l-.729-2.46h-1.458Zm2.991,8.209-2.922,2.617V32.7l2.922-2.615Zm-8.422-2.457v2.461h13.922V17.252Zm-9.811,0-2.922,2.615V32.7l2.922-2.615Zm1.268,0v2.461h6.994V17.252Zm0,6.133v2.441h5.863V23.384Zm0,6.877V32.7h6.994V30.261Zm-21.757-8.8,2.253-1.065s-.55-3.141-5.1-3.141c-5,0-5.173,4.332-5.173,4.332a3.909,3.909,0,0,0,1.1,2.834,5.342,5.342,0,0,0,2.2,1.211c.815-.816,2.381-2.132,2.381-2.132s-2.848-.373-2.848-1.913c0-.44-.085-1.931,2.343-1.931A2.666,2.666,0,0,1,65.765,21.458Zm-3.44,4.454s3.1.275,3.1,2.332c0,0,.291,2.058-2.649,2.058s-3.317-2.13-3.317-2.13l-2.271,1.065s.663,3.465,5.605,3.465c1.554,0,5.479-.677,5.479-4.53A4.3,4.3,0,0,0,64.7,23.79Zm16.489-4.454,2.253-1.065s-.549-3.141-5.1-3.141c-5,0-5.173,4.332-5.173,4.332a3.909,3.909,0,0,0,1.1,2.834,5.341,5.341,0,0,0,2.2,1.211c.815-.816,2.381-2.132,2.381-2.132s-2.848-.373-2.848-1.913c0-.44-.085-1.931,2.343-1.931A2.667,2.667,0,0,1,78.814,21.458Zm-3.44,4.454s3.1.275,3.1,2.332c0,0,.291,2.058-2.649,2.058s-3.317-2.13-3.317-2.13l-2.271,1.065S70.9,32.7,75.84,32.7c1.554,0,5.479-.677,5.479-4.53a4.3,4.3,0,0,0-3.574-4.382Z" transform="translate(62 81)" fill="#878787"/>
    </g>
</svg>
