<svg xmlns="http://www.w3.org/2000/svg" width="80.727" height="24" viewBox="0 0 80.727 24">
    <g id="parasset" transform="translate(-583.973 -53)">
        <path id="PARASSET_LOGO"
              d="M0,9.7l2.145,1.922V24L0,22.078Zm2.145.435A7.543,7.543,0,0,1,5.765,3.19a7.484,7.484,0,0,1,8.073.313l1.53-1.532A9.751,9.751,0,0,0,5.009,1.146,9.575,9.575,0,0,0,.086,8.274Zm.93,6.47A9.576,9.576,0,0,0,8.423,19.1a9.679,9.679,0,0,0,7.022-1.978L13.917,15.6a7.1,7.1,0,0,1-5.455,1.32,7.844,7.844,0,0,1-5.386-3.708ZM14.569,4.092a7.974,7.974,0,0,1,2.41,5.485A7.812,7.812,0,0,1,14.638,15l1.512,1.514a9.325,9.325,0,0,0,2.973-6.933,9.483,9.483,0,0,0-3.042-7ZM29.962,9.7l-2.145,1.922V24l2.145-1.922Zm-.085-1.428a9.529,9.529,0,0,0-14-7.108L17.6,2.7a7.431,7.431,0,0,1,10.215,7.437Zm-2.99,4.934A7.844,7.844,0,0,1,21.5,16.917a8.066,8.066,0,0,1-3.9-.439,15.832,15.832,0,0,1-1.732,1.532,10.12,10.12,0,0,0,5.67,1.09,9.575,9.575,0,0,0,5.348-2.493Zm-14.051-9.5a9.643,9.643,0,0,0,0,11.751c.757-.662.928-.8,1.659-1.421a7.617,7.617,0,0,1-1.512-4.462,7.649,7.649,0,0,1,1.511-4.443C13.755,4.506,13.431,4.246,12.836,3.708ZM45.018,1.682h.6a2.01,2.01,0,1,1,0,4.02h-.6V7.384h1.077s3.714,0,3.714-3.692S46.094,0,46.094,0H45.018ZM44.087,0,41.943,1.919v9.416l2.144-1.919ZM64.231,1.685h.616a2.036,2.036,0,0,1,2.108,2.01A2.036,2.036,0,0,1,64.847,5.7h-.616V7.387h1.108s3.823,0,3.823-3.692S65.339,0,65.339,0H64.231ZM63.3,0,61.156,1.922v9.416L63.3,9.419Zm.931,7.384L66.8,11.338h2.567L66.371,7.086ZM49.808,11.338h2.186l2.868-9.657,2.855,9.657h2.308L56.241,0h-2.65Zm3.977-2.9h2.141L55.39,6.634H54.321Zm16.725,2.9H72.7l2.869-9.657,2.855,9.657h2.308L76.943,0h-2.65Zm3.977-2.9h2.141l-.535-1.806h-1.07Zm2.195,6.024-2.145,1.92V24l2.144-1.919Zm-6.181-1.8v1.806H80.718V12.661Zm-7.2,0L61.156,14.58V24L63.3,22.077Zm.931,0v1.806h5.133V12.661Zm0,4.5v1.792h4.3V17.161Zm0,5.047V24h5.133V22.208ZM48.264,15.747l1.653-.782s-.4-2.305-3.744-2.305a3.447,3.447,0,0,0-3.8,3.179,2.869,2.869,0,0,0,.807,2.08,3.92,3.92,0,0,0,1.613.889c.6-.6,1.747-1.564,1.747-1.564s-2.09-.274-2.09-1.4c0-.323-.062-1.417,1.72-1.417A1.957,1.957,0,0,1,48.264,15.747ZM45.74,19.016s2.273.2,2.273,1.712c0,0,.213,1.51-1.944,1.51s-2.434-1.563-2.434-1.563l-1.667.782S42.454,24,46.081,24c1.14,0,4.021-.5,4.021-3.325a3.152,3.152,0,0,0-2.623-3.216Zm12.1-3.269,1.653-.782s-.4-2.305-3.743-2.305a3.447,3.447,0,0,0-3.8,3.179,2.869,2.869,0,0,0,.807,2.08,3.92,3.92,0,0,0,1.613.889c.6-.6,1.747-1.564,1.747-1.564s-2.09-.274-2.09-1.4c0-.323-.062-1.417,1.72-1.417A1.957,1.957,0,0,1,57.841,15.747Zm-2.524,3.269s2.273.2,2.273,1.712c0,0,.213,1.51-1.944,1.51s-2.434-1.563-2.434-1.563l-1.667.782S52.031,24,55.658,24c1.141,0,4.021-.5,4.021-3.325a3.152,3.152,0,0,0-2.623-3.216Z"
              transform="translate(583.973 53)"/>
    </g>
</svg>
