<svg id="polynetwork" xmlns="http://www.w3.org/2000/svg" width="83.379" height="24" viewBox="0 0 83.379 24">
  <defs>
    <style>
      .cls-1 {
        fill: #878787;
      }
    </style>
  </defs>
  <path id="路径_277" data-name="路径 277" class="cls-1" d="M42.379,89.381v5.495l-.439-.254-2.32-1.339V87.79Z" transform="translate(-31.987 -70.876)"/>
  <path id="路径_278" data-name="路径 278" class="cls-1" d="M4.757,33.887v12L0,43.139v-12Z" transform="translate(0 -25.14)"/>
  <path id="路径_279" data-name="路径 279" class="cls-1" d="M64.332,31.14v12l-10.392,6V43.648l5.633-3.254V33.887Z" transform="translate(-43.548 -25.14)"/>
  <path id="路径_280" data-name="路径 280" class="cls-1" d="M20.784,6,16.026,8.747,10.392,5.493,4.759,8.747,0,6,10.392,0Z"/>
  <path id="路径_281" data-name="路径 281" class="cls-1" d="M136.76,45.4h2.984a2.369,2.369,0,0,1,1.649.534,2.183,2.183,0,0,1,0,2.984,2.356,2.356,0,0,1-1.649.534H138.2v2.441h-1.437Zm2.8,2.965q1.079,0,1.079-.931a.892.892,0,0,0-.268-.709,1.227,1.227,0,0,0-.811-.229H138.2v1.869Z" transform="translate(-110.411 -36.653)"/>
  <path id="路径_282" data-name="路径 282" class="cls-1" d="M167.873,59.488a2.025,2.025,0,0,1-.838-.821,2.788,2.788,0,0,1,0-2.495,2.01,2.01,0,0,1,.838-.815,2.917,2.917,0,0,1,2.524,0,2,2,0,0,1,.838.815,2.788,2.788,0,0,1,0,2.495,2.014,2.014,0,0,1-.838.821A2.889,2.889,0,0,1,167.873,59.488Zm2.275-2.067a1.519,1.519,0,0,0-.262-.977.911.911,0,0,0-.751-.322q-1.011,0-1.011,1.3t1.011,1.3q1.015,0,1.013-1.3Z" transform="translate(-134.616 -44.46)"/>
  <path id="路径_283" data-name="路径 283" class="cls-1" d="M196.43,51.893V45.4h1.391v6.493H196.43Z" transform="translate(-158.585 -36.653)"/>
  <path id="路径_284" data-name="路径 284" class="cls-1" d="M210.607,55.656h1.364l-2.726,6.165h-1.41l.867-1.907L206.84,55.65h1.447l1.141,2.873Z" transform="translate(-166.99 -44.928)"/>
  <path id="路径_285" data-name="路径 285" class="cls-1" d="M274.758,57.677h-2.946a1.156,1.156,0,0,0,.354.788,1.249,1.249,0,0,0,.825.243,2.24,2.24,0,0,0,.7-.114,2.279,2.279,0,0,0,.63-.328l.368.931a2.5,2.5,0,0,1-.805.4,3.2,3.2,0,0,1-.963.148,2.5,2.5,0,0,1-1.8-.632,2.273,2.273,0,0,1-.657-1.719,2.543,2.543,0,0,1,.295-1.223,2.092,2.092,0,0,1,.792-.834,2.216,2.216,0,0,1,1.156-.3,1.927,1.927,0,0,1,1.5.618,2.407,2.407,0,0,1,.557,1.676ZM272.1,56.253a1.27,1.27,0,0,0-.289.732h1.776a1.19,1.19,0,0,0-.243-.736.771.771,0,0,0-.613-.254A.827.827,0,0,0,272.1,56.253Z" transform="translate(-218.348 -44.435)"/>
  <path id="路径_286" data-name="路径 286" class="cls-1" d="M298.795,53.607l-.073,1.013a3.835,3.835,0,0,1-.534.039,2.131,2.131,0,0,1-1.507-.453,1.8,1.8,0,0,1-.474-1.37V51.1h-.857v-1.04h.857V48.74h1.387v1.327h1.133V51.1h-1.133v1.734q0,.813.755.811A3.514,3.514,0,0,0,298.795,53.607Z" transform="translate(-238.447 -39.35)"/>
  <path id="路径_287" data-name="路径 287" class="cls-1" d="M322,55.63h1.349l-1.828,4.522h-1.179l-1-2.551-.963,2.551h-1.169L315.37,55.63h1.418l1.069,2.865,1.067-2.865h.94l1.077,2.89Z" transform="translate(-254.61 -44.912)"/>
  <path id="路径_288" data-name="路径 288" class="cls-1" d="M359.183,59.488a2.025,2.025,0,0,1-.838-.821,2.788,2.788,0,0,1,0-2.495,2.01,2.01,0,0,1,.838-.815,2.917,2.917,0,0,1,2.524,0,2.01,2.01,0,0,1,.838.815,2.788,2.788,0,0,1,0,2.495,2.025,2.025,0,0,1-.844.821,2.889,2.889,0,0,1-2.524,0Zm2.275-2.067a1.52,1.52,0,0,0-.264-.977.906.906,0,0,0-.749-.322q-1.013,0-1.013,1.3t1.013,1.3c.678,0,1.013-.435,1.013-1.3Z" transform="translate(-289.068 -44.46)"/>
  <path id="路径_289" data-name="路径 289" class="cls-1" d="M390.915,56.156l-.784.083a1.216,1.216,0,0,0-.819.328,1.053,1.053,0,0,0-.241.722v2.354H387.68V55.121h1.337v.771a1.491,1.491,0,0,1,1.408-.857l.4-.035Z" transform="translate(-312.988 -44.404)"/>
  <path id="路径_290" data-name="路径 290" class="cls-1" d="M412.538,51.893h-1.7L409.1,49.876v2.017H407.71V45.4H409.1v3.905l1.667-1.927h1.659l-1.9,2.154Z" transform="translate(-329.159 -36.653)"/>
  <path id="路径_291" data-name="路径 291" class="cls-1" d="M240.923,45.4h1.349v6.493H241.2l-3.237-4.135v4.135H236.63V45.4h1.06l3.233,4.117Z" transform="translate(-191.04 -36.653)"/>
</svg>
