<svg xmlns="http://www.w3.org/2000/svg" width="48" height="48" viewBox="0 0 48 48">
  <g id="Price_icon" transform="translate(-7 -64)">
    <g id="椭圆_15" data-name="椭圆 15" transform="translate(7 64)" fill="#eaaa00" stroke="#000" stroke-width="1" opacity="0.2">
      <circle cx="24" cy="24" r="24" stroke="none"/>
      <circle cx="24" cy="24" r="23.5" fill="none"/>
    </g>
    <path id="路径_302" data-name="路径 302" d="M-2305.418-362.543H-2324.8a.751.751,0,0,1-.751-.75.751.751,0,0,1,.751-.751h19.385a.751.751,0,0,1,.75.751A.751.751,0,0,1-2305.418-362.543Zm-1.223-4.5h-16.94a3.534,3.534,0,0,1-3.53-3.53v-11.295a3.534,3.534,0,0,1,3.53-3.531h16.94a3.535,3.535,0,0,1,3.531,3.531v11.295A3.534,3.534,0,0,1-2306.642-367.043Zm-15.731-8.923a1.123,1.123,0,0,0-.8.341,1.113,1.113,0,0,0,0,1.55l2.322,2.242a1.11,1.11,0,0,0,.775.312h.029a1.12,1.12,0,0,0,.81-.362l3.2-3.559,2.462,2.433a1.114,1.114,0,0,0,.787.32h.052a1.12,1.12,0,0,0,.806-.4l4.965-6a1.121,1.121,0,0,0-.149-1.574,1.124,1.124,0,0,0-.712-.257,1.12,1.12,0,0,0-.863.406l-.677.819h.008l-3.515,4.238-2.422-2.392a1.118,1.118,0,0,0-.787-.327h-.032a1.124,1.124,0,0,0-.8.367l-3.214,3.568-1.478-1.426-.014-.013A1.115,1.115,0,0,0-2322.373-375.966Z" transform="translate(2346.111 462.398)" fill="#eaaa00"/>
  </g>
</svg>
