<svg xmlns="http://www.w3.org/2000/svg" width="52.685" height="24" viewBox="0 0 52.685 24">
  <defs>
    <style>
      .cls-1 {
        fill: #878787;
      }
    </style>
  </defs>
  <g id="Radom" transform="translate(-0.526 -0.799)">
    <rect id="矩形_3" data-name="矩形 3" class="cls-1" width="1.296" height="1.296" transform="translate(46.756 5.933)"/>
    <rect id="矩形_4" data-name="矩形 4" class="cls-1" width="1.296" height="1.296" transform="translate(41.623 0.799)"/>
    <rect id="矩形_5" data-name="矩形 5" class="cls-1" width="1.296" height="1.296" transform="translate(51.89 11.067)"/>
    <path id="路径_176" data-name="路径 176" class="cls-1" d="M300.514,17.313h-2.567v1.3h2.567v2.567h1.3V18.584a1.25,1.25,0,0,0-1.246-1.246h-.05v-.025Z" transform="translate(-251.191 -13.947)"/>
    <path id="路径_177" data-name="路径 177" class="cls-1" d="M315.868,50.342a1.25,1.25,0,0,0-1.246,1.246V54.18h1.3V51.638h2.567v-1.3h-2.617Z" transform="translate(-265.274 -41.842)"/>
    <path id="路径_178" data-name="路径 178" class="cls-1" d="M267.486.8V3.366h-2.567v1.3h2.592a1.25,1.25,0,0,0,1.246-1.246V.8Z" transform="translate(-223.296 0)"/>
    <path id="路径_179" data-name="路径 179" class="cls-1" d="M282.729,36.395V33.828h-1.3V36.42a1.25,1.25,0,0,0,1.246,1.246h2.592v-1.3h-2.542Z" transform="translate(-237.244 -27.895)"/>
    <path id="路径_180" data-name="路径 180" class="cls-1" d="M266.054,38.962V33.828h-1.3v5.159A1.25,1.25,0,0,0,266,40.233h5.159v-1.3h-5.109Z" transform="translate(-223.16 -27.895)"/>
    <path id="路径_181" data-name="路径 181" class="cls-1" d="M303.081.8h-5.134v1.3h5.134V7.229h1.3V2.045A1.25,1.25,0,0,0,303.131.8Z" transform="translate(-251.191)"/>
    <path id="路径_182" data-name="路径 182" class="cls-1" d="M3.392,23.3A2.123,2.123,0,0,0,5.71,21.509c0-1.121-.7-1.744-1.944-1.744H1.6v3.514H3.392ZM.526,18.917H3.541c2.392,0,3.265,1.047,3.265,2.567A2.353,2.353,0,0,1,4.538,23.7a.116.116,0,0,0-.125.125c0,.075.05.1.125.1,1.121.05,1.57.473,1.794,1.1l.847,2.492H5.834l-.523-2.093c-.224-.947-.8-1.246-2.093-1.246H1.6v3.34H.526Z" transform="translate(0 -15.302)"/>
    <path id="路径_183" data-name="路径 183" class="cls-1" d="M49.267,36.836c-.748.125-1.246.4-1.246,1.047,0,.6.473,1.171,1.47,1.072,1.171-.1,2.044-1.022,2.044-2.766C51.186,36.637,50.239,36.687,49.267,36.836Zm-.025-.773c1.146-.1,2.318,0,2.293-.7,0-.5-.249-1.171-1.695-1.171-1.1,0-1.57.573-1.67,1.121h-.947a2.433,2.433,0,0,1,2.717-1.969c1.4,0,2.567.5,2.567,2.791V39.7h-.972V39a1.8,1.8,0,0,1,.125-.7c.025-.1.075-.2-.025-.224-.075-.025-.1.05-.125.1a2.415,2.415,0,0,1-2.417,1.595,1.944,1.944,0,0,1-2.069-1.844C47.049,36.587,48.145,36.138,49.242,36.063Z" transform="translate(-39.27 -27.489)"/>
    <path id="路径_184" data-name="路径 184" class="cls-1" d="M94.262,23.316a2.157,2.157,0,0,0-1.994-2.343c-1.271,0-1.944,1.072-1.944,2.343s.673,2.343,1.944,2.343A2.157,2.157,0,0,0,94.262,23.316Zm.972-5.682v8.822h-.972v-.548a1.728,1.728,0,0,1,.125-.648c.025-.1.075-.2,0-.224a.1.1,0,0,0-.15.075,2.156,2.156,0,0,1-2.118,1.421c-1.62,0-2.766-1.371-2.766-3.24s1.146-3.24,2.766-3.24a2.168,2.168,0,0,1,2.118,1.4c0,.025.05.15.125.125.1-.025.025-.15,0-.249a2.2,2.2,0,0,1-.1-.673V17.634Z" transform="translate(-75.02 -14.218)"/>
    <path id="路径_185" data-name="路径 185" class="cls-1" d="M138.354,36.586a2,2,0,1,0-3.938,0,2,2,0,1,0,3.938,0Zm.972,0a2.955,2.955,0,1,1-5.881,0,2.955,2.955,0,1,1,5.881,0Z" transform="translate(-112.258 -27.488)"/>
    <path id="路径_186" data-name="路径 186" class="cls-1" d="M186.255,35.789V39.7h-.972V35.64a1.289,1.289,0,0,0-1.321-1.47c-.8,0-1.421.872-1.421,1.944V39.7h-.972V35.789c0-.972-.4-1.62-1.2-1.62a1.96,1.96,0,0,0-1.545,2.093v3.464h-.972v-6.28h.972V33.9a1.433,1.433,0,0,1-.125.648c-.025.1-.05.2,0,.224a.1.1,0,0,0,.125-.075,2.071,2.071,0,0,1,1.869-1.346,1.564,1.564,0,0,1,1.57,1.3.114.114,0,0,0,.125.1.115.115,0,0,0,.125-.075,1.921,1.921,0,0,1,1.695-1.3C185.283,33.347,186.255,33.97,186.255,35.789Z" transform="translate(-149.766 -27.489)"/>
    <path id="路径_187" data-name="路径 187" class="cls-1" d="M.526,99.084H2.3l3.963,7.776c.025.025.05.1.1.075.125-.025.075-.125.05-.224a2.131,2.131,0,0,1-.1-.8V99.084H7.38v8.623H5.61L1.647,99.931c-.025-.025-.05-.075-.1-.075-.1.025-.075.1-.025.2a2.8,2.8,0,0,1,.1.8v6.829H.526Z" transform="translate(0 -83.008)"/>
    <path id="路径_188" data-name="路径 188" class="cls-1" d="M52.51,116.23H56.2c-.075-1.146-.723-1.869-1.695-1.869A1.869,1.869,0,0,0,52.51,116.23Zm4.66.773H52.46a2.068,2.068,0,0,0,2.044,2.118,1.541,1.541,0,0,0,1.545-1.271h1.022a2.614,2.614,0,0,1-2.617,2.143,3.257,3.257,0,0,1-.025-6.48,2.744,2.744,0,0,1,2.766,3.041C57.2,116.753,57.17,116.9,57.17,117Z" transform="translate(-43.062 -95.194)"/>
    <path id="路径_189" data-name="路径 189" class="cls-1" d="M91.359,105.523v3.664c0,.723.15.922.822.922H93.1v.822h-.922c-1.3,0-1.819-.374-1.819-1.844v-3.564H89.191V104.7h1.171v-1.769h1V104.7h1.77v.822h-1.77Z" transform="translate(-74.883 -86.257)"/>
    <path id="路径_190" data-name="路径 190" class="cls-1" d="M119.308,114.316l1.421,5.234a1.29,1.29,0,0,1,.05.274c0,.075,0,.15.1.15s.1-.075.1-.15a.637.637,0,0,1,.05-.274l1.321-5.234h1.171l1.321,5.234a1.29,1.29,0,0,1,.05.274c0,.075,0,.15.1.15s.1-.075.1-.15a.637.637,0,0,1,.05-.274l1.421-5.234h1.072l-1.919,6.28h-1.47l-1.171-4.735a2.766,2.766,0,0,1-.05-.473c0-.075,0-.15-.1-.15s-.1.075-.1.15a1.455,1.455,0,0,1-.05.473L121.6,120.6h-1.47l-1.919-6.28Z" transform="translate(-99.392 -95.872)"/>
    <path id="路径_191" data-name="路径 191" class="cls-1" d="M184.987,116.754a2,2,0,1,0-1.969,2.343C184.264,119.121,184.987,118.05,184.987,116.754Zm1,0a2.955,2.955,0,1,1-2.941-3.24A2.977,2.977,0,0,1,185.983,116.754Z" transform="translate(-151.663 -95.195)"/>
    <path id="路径_192" data-name="路径 192" class="cls-1" d="M225.191,115.12c.424-1.022.748-1.445,2.318-1.445v1c-1.819-.125-2.343.523-2.343,2.168v3.19h-.972v-6.255h.972v.5a2,2,0,0,1-.125.723c-.025.1-.075.2.025.224C225.141,115.22,225.166,115.17,225.191,115.12Z" transform="translate(-188.902 -95.331)"/>
    <path id="路径_193" data-name="路径 193" class="cls-1" d="M255.994,106.623l-2.393-3.065-.7.648v2.417h-.972V97.8h.972v4.586a1.073,1.073,0,0,1-.249.773c-.05.05-.1.125-.025.174.05.05.1,0,.15-.05l2.941-2.916h1.3l-2.791,2.617,2.991,3.639h-1.221Z" transform="translate(-212.328 -81.924)"/>
    <rect id="矩形_6" data-name="矩形 6" class="cls-1" width="1.296" height="1.296" transform="translate(46.756 5.933)"/>
    <rect id="矩形_7" data-name="矩形 7" class="cls-1" width="1.296" height="1.296" transform="translate(41.622 0.799)"/>
    <rect id="矩形_8" data-name="矩形 8" class="cls-1" width="1.296" height="1.296" transform="translate(51.89 11.067)"/>
    <path id="路径_194" data-name="路径 194" class="cls-1" d="M300.514,17.473h-2.567v1.271h2.567v2.567h1.3V18.719a1.25,1.25,0,0,0-1.246-1.246h-.05Z" transform="translate(-251.191 -14.082)"/>
    <path id="路径_195" data-name="路径 195" class="cls-1" d="M315.868,50.342a1.25,1.25,0,0,0-1.246,1.246V54.18h1.3V51.638h2.567v-1.3h-2.617Z" transform="translate(-265.274 -41.842)"/>
    <path id="路径_196" data-name="路径 196" class="cls-1" d="M267.486.8V3.366h-2.567v1.3h2.592a1.25,1.25,0,0,0,1.246-1.246V.8Z" transform="translate(-223.296 0)"/>
    <path id="路径_197" data-name="路径 197" class="cls-1" d="M282.729,36.395V33.828h-1.3V36.42a1.25,1.25,0,0,0,1.246,1.246h2.592v-1.3h-2.542Z" transform="translate(-237.244 -27.895)"/>
    <path id="路径_198" data-name="路径 198" class="cls-1" d="M266.214,38.962V33.828h-1.3v5.159a1.25,1.25,0,0,0,1.246,1.246h5.159v-1.3h-5.109Z" transform="translate(-223.296 -27.895)"/>
    <path id="路径_199" data-name="路径 199" class="cls-1" d="M303.081.8h-5.134v1.3h5.134V7.229h1.3V2.045A1.25,1.25,0,0,0,303.131.8Z" transform="translate(-251.191)"/>
  </g>
</svg>
