<svg xmlns="http://www.w3.org/2000/svg" width="48" height="48" viewBox="0 0 48 48">
  <defs>
    <style>
      .cls-1, .cls-2 {
        fill: #eaaa00;
      }

      .cls-1 {
        stroke: #000;
        opacity: 0.2;
      }

      .cls-3 {
        stroke: none;
      }

      .cls-4 {
        fill: none;
      }
    </style>
  </defs>
  <g id="RIGHT_1_icon" transform="translate(-243 -289)">
    <g id="椭圆_8" data-name="椭圆 8" class="cls-1" transform="translate(243 289)">
      <circle class="cls-3" cx="24" cy="24" r="24"/>
      <circle class="cls-4" cx="24" cy="24" r="23.5"/>
    </g>
    <path id="路径_28" data-name="路径 28" class="cls-2" d="M-1131.707,70.708a1,1,0,0,1,0-1.413l8.292-8.294H-1143a1,1,0,0,1-1-1,1,1,0,0,1,1-1h19.55l-8.258-8.261a1.018,1.018,0,0,1,0-1.44,1.018,1.018,0,0,1,1.44,0l9.97,9.974a1.015,1.015,0,0,1,.3.72s0,0,0,0,0,0,0,0a1,1,0,0,1-.351.762l-9.944,9.946A1,1,0,0,1-1131,71,1,1,0,0,1-1131.707,70.708Z" transform="translate(1399 253.003)"/>
  </g>
</svg>
