<svg xmlns="http://www.w3.org/2000/svg" width="48" height="48" viewBox="0 0 48 48">
  <defs>
    <style>
      .cls-1, .cls-2 {
        fill: #eaaa00;
      }

      .cls-1 {
        stroke: #000;
        opacity: 0.2;
      }

      .cls-3 {
        stroke: none;
      }

      .cls-4 {
        fill: none;
      }
    </style>
  </defs>
  <g id="rocket_icon" transform="translate(-243 -289)">
    <g id="椭圆_8" data-name="椭圆 8" class="cls-1" transform="translate(243 289)">
      <circle class="cls-3" cx="24" cy="24" r="24"/>
      <circle class="cls-4" cx="24" cy="24" r="23.5"/>
    </g>
    <path id="路径_16" data-name="路径 16" class="cls-2" d="M262.407,73.113c-.446-.781-.422-1.282-3.113-3.711.015-8.782-6.024-14.871-6.4-15.239v-.018l-.009.009-.009-.009s0,.006,0,.018c-.372.37-6.384,6.487-6.329,15.269-2.68,2.441-2.654,2.942-3.1,3.726-.807,1.43-.6,7.15.163,8.448s2.023.356,2.455-.006,2.34-2.749,2.81-2.642a1.519,1.519,0,0,1,1.229.5,5.188,5.188,0,0,0,2.819,1.254.017.017,0,0,1,0,0l.018,0,.018,0a.023.023,0,0,1,0,0,5.187,5.187,0,0,0,2.813-1.267A1.52,1.52,0,0,1,257,78.939c.469-.109,2.388,2.269,2.822,2.629s1.7,1.3,2.455-.006.939-7.022.125-8.449Zm-9.485-3.372a3.033,3.033,0,1,1,3.026-3.04,3.032,3.032,0,0,1-3.026,3.04ZM255.17,81.9a3.7,3.7,0,0,1-4.477.01c-.687-.489-1.3-.423-1.625,0a6.087,6.087,0,0,0,.189,3.569c.4.556.866-.362,1.551-.4s1.256,1.34,1.516,2.125c.133.4.34.768.621.795.281-.027.487-.4.617-.8.257-.786.82-2.163,1.506-2.132s1.158.947,1.553.389a6.086,6.086,0,0,0,.172-3.569c-.326-.425-.94-.489-1.625,0Z" transform="translate(138.532 84.077) rotate(45)"/>
  </g>
</svg>
