<svg xmlns="http://www.w3.org/2000/svg" width="48" height="48" viewBox="0 0 48 48">
  <defs>
    <style>
      .cls-1, .cls-2 {
        fill: #eaaa00;
      }

      .cls-1 {
        stroke: #000;
        opacity: 0.2;
      }

      .cls-3 {
        stroke: none;
      }

      .cls-4 {
        fill: none;
      }
    </style>
  </defs>
  <g id="security_icon" transform="translate(-252 -328)">
    <g id="椭圆_5" data-name="椭圆 5" class="cls-1" transform="translate(252 328)">
      <circle class="cls-3" cx="24" cy="24" r="24"/>
      <circle class="cls-4" cx="24" cy="24" r="23.5"/>
    </g>
    <path id="路径_6" data-name="路径 6" class="cls-2" d="M223.227,102.148c.083-.785,0-12.773,0-12.773-9.279.4-11.938-3.48-11.938-3.48-2.558,3.72-11.917,3.477-11.917,3.477s-.243,4.852,0,13.666S211.3,114.6,211.3,114.6C223.773,110.942,223.126,103.1,223.227,102.148Zm-13.019,3.639-5.9-5.38,1.536-1.251,3.194,2.426s4.326-4.609,8.612-6.712l.647.728S212.634,100.288,210.208,105.787Z" transform="translate(64.736 252.106)"/>
  </g>
</svg>
