<svg xmlns="http://www.w3.org/2000/svg" width="48" height="48" viewBox="0 0 48 48">
  <defs>
    <style>
      .cls-1, .cls-2 {
        fill: #eaaa00;
      }

      .cls-1 {
        stroke: #000;
        opacity: 0.2;
      }

      .cls-3 {
        stroke: none;
      }

      .cls-4 {
        fill: none;
      }
    </style>
  </defs>
  <g id="SENSITIVITY_icon" transform="translate(-243 -289)">
    <g id="椭圆_8" data-name="椭圆 8" class="cls-1" transform="translate(243 289)">
      <circle class="cls-3" cx="24" cy="24" r="24"/>
      <circle class="cls-4" cx="24" cy="24" r="23.5"/>
    </g>
    <path id="路径_24" data-name="路径 24" class="cls-2" d="M300.515,204.8h-7.636a2.7,2.7,0,0,0-2.53,1.775L285.6,219.23a1.393,1.393,0,0,0,1.265,1.915h7.772l-2.892,10.461a.887.887,0,0,0,1.536.841l11.884-14.57a1.42,1.42,0,0,0-1.039-2.335h-5.874l5.151-8.593a1.417,1.417,0,0,0-1.175-2.148Z" transform="translate(-28.505 95.2)"/>
  </g>
</svg>
