<svg xmlns="http://www.w3.org/2000/svg" width="24" height="24" viewBox="0 0 24 24">
  <defs>
    <style>
      .cls-1 {
        fill: #fff;
      }
    </style>
  </defs>
  <path id="路径_23" data-name="路径 23" class="cls-1" d="M-801.367,73H-783a3,3,0,0,0,3-3V51.142A2.143,2.143,0,0,0-782.143,49h-14.571a2.143,2.143,0,0,0-2.143,2.143V69.571a3.434,3.434,0,0,1-2.526,3.308.061.061,0,0,0-.046.059.061.061,0,0,0,.018.044.061.061,0,0,0,.043.018Zm17.7-5.734a.857.857,0,0,1,.236.633.874.874,0,0,1-.88.816h-10.262a.857.857,0,0,1-.62-.266.857.857,0,0,1-.236-.633.874.874,0,0,1,.88-.816h10.262A.857.857,0,0,1-783.665,67.265Zm0-3.429a.857.857,0,0,1,.236.633.874.874,0,0,1-.88.816h-10.262a.857.857,0,0,1-.62-.266.857.857,0,0,1-.236-.633.874.874,0,0,1,.88-.816h10.262A.857.857,0,0,1-783.665,63.837Zm0-3.429a.857.857,0,0,1,.236.633.874.874,0,0,1-.88.816h-10.262a.857.857,0,0,1-.62-.266.857.857,0,0,1-.236-.633.874.874,0,0,1,.88-.816h10.262A.857.857,0,0,1-783.665,60.408Zm-6.857-3.429a.857.857,0,0,1,.236.633.874.874,0,0,1-.88.816h-3.4a.857.857,0,0,1-.62-.266.857.857,0,0,1-.236-.633.874.874,0,0,1,.88-.816h3.4A.857.857,0,0,1-790.522,56.98Zm7.094-2.837v3.429a.857.857,0,0,1-.857.857h-3.429a.857.857,0,0,1-.857-.857V54.142a.857.857,0,0,1,.857-.857h3.429A.857.857,0,0,1-783.428,54.142Zm-7.094-.591a.857.857,0,0,1,.236.633.874.874,0,0,1-.88.816h-3.4a.857.857,0,0,1-.62-.266.857.857,0,0,1-.236-.633.874.874,0,0,1,.88-.816h3.4A.857.857,0,0,1-790.522,53.551Zm-10.049,16.02V53.29a0,0,0,0,0,0,0h-1.276A2.148,2.148,0,0,0-804,55.433V69.571a1.714,1.714,0,0,0,1.714,1.714A1.714,1.714,0,0,0-800.571,69.571Z" transform="translate(804 -49)"/>
</svg>
