<svg xmlns="http://www.w3.org/2000/svg" width="122.801" height="24" viewBox="0 0 122.801 24">
  <defs>
    <style>
      .cls-1 {
        fill: #878787;
      }
    </style>
  </defs>
  <g id="WhatsCoin" transform="translate(-0.165)">
    <g id="组_47" data-name="组 47" transform="translate(30.532 4.8)">
      <path id="路径_200" data-name="路径 200" class="cls-1" d="M135.059,27.94,132.3,36.582l-2.621-8.642h-2.986l3.936,12.154h3.1l2.345-7.841,2.431,7.841h3.122l3.9-12.154h-2.954l-2.618,8.6-2.791-8.6Z" transform="translate(-126.695 -26.034)"/>
      <path id="路径_201" data-name="路径 201" class="cls-1" d="M215.519,30.218a3.476,3.476,0,0,0-2.782,1.426l-.29.451V27.94h-2.712V40.094h2.743V34.538a1.958,1.958,0,0,1,1.949-1.915c1.543,0,1.721,1.01,1.721,1.769v5.7h2.81V33.381A3.275,3.275,0,0,0,215.519,30.218Z" transform="translate(-189.805 -26.034)"/>
      <path id="路径_202" data-name="路径 202" class="cls-1" d="M254.025,42.513c0,3.058,1.778,5.035,4.531,5.035a4.087,4.087,0,0,0,2.878-1.169l.276-.31V47.3h2.729V37.627H261.76v1.224l-.264-.24a3.726,3.726,0,0,0-2.774-1.181A4.907,4.907,0,0,0,254.025,42.513Zm7.831.034a2.558,2.558,0,0,1-2.633,2.6,2.485,2.485,0,0,1-2.438-2.681,2.459,2.459,0,0,1,2.534-2.551A2.5,2.5,0,0,1,261.856,42.547Z" transform="translate(-223.466 -33.247)"/>
      <path id="路径_203" data-name="路径 203" class="cls-1" d="M306.445,27.94h-2.729v2.474h-.991v2.434h.991v7.246h2.729V32.865h1.61v-2.45h-1.61Z" transform="translate(-260.478 -26.034)"/>
      <path id="路径_204" data-name="路径 204" class="cls-1" d="M329.149,40.293c0-.468.367-.761.955-.761a1.543,1.543,0,0,1,1.306.737l2.016-.888a3.354,3.354,0,0,0-3.06-1.961c-2.16,0-3.667,1.274-3.667,3.1,0,2.093,1.644,2.618,2.966,3.043.809.259,1.51.485,1.51,1.058,0,.557-.636.857-1.231.857a1.863,1.863,0,0,1-1.454-.833l-2.054,1.034a3.636,3.636,0,0,0,3.478,1.858c1.853,0,3.847-.989,3.847-3.163,0-2.059-1.723-2.621-3.108-3.072C329.809,41.032,329.149,40.816,329.149,40.293Z" transform="translate(-278.497 -33.239)"/>
      <path id="路径_205" data-name="路径 205" class="cls-1" d="M326.24,49.42c0,.029,0,.058,0,.086h0Z" transform="translate(-278.345 -42.359)"/>
      <path id="路径_206" data-name="路径 206" class="cls-1" d="M360.775,33a6.19,6.19,0,0,0,6.37,6.288,6.621,6.621,0,0,0,2.983-.775V35.632a5.007,5.007,0,0,1-2.772.893,3.437,3.437,0,0,1-3.61-3.494c0-2.321,1.354-3.821,3.446-3.821a4.534,4.534,0,0,1,2.966.922V27.168a5.914,5.914,0,0,0-3.13-.718A6.2,6.2,0,0,0,360.775,33Z" transform="translate(-304.596 -24.902)"/>
      <path id="路径_207" data-name="路径 207" class="cls-1" d="M409.6,37.43a5.087,5.087,0,0,0-5.311,5.083,5.261,5.261,0,0,0,5.246,5.134A5.111,5.111,0,1,0,409.6,37.43Zm-.031,7.668a2.567,2.567,0,1,1,.014-5.134,2.567,2.567,0,0,1-.014,5.134Z" transform="translate(-337.663 -33.247)"/>
      <path id="路径_208" data-name="路径 208" class="cls-1" d="M454.391,20a1.675,1.675,0,0,0-1.666,1.682,1.632,1.632,0,0,0,1.632,1.666,1.706,1.706,0,0,0,1.714-1.7A1.665,1.665,0,0,0,454.391,20Z" transform="translate(-374.478 -20)"/>
      <rect id="矩形_9" data-name="矩形 9" class="cls-1" width="2.712" height="9.679" transform="translate(78.54 4.38)"/>
      <path id="路径_209" data-name="路径 209" class="cls-1" d="M479.189,37.43a3.46,3.46,0,0,0-2.782,1.426l-.29.454V37.627h-2.712v9.679h2.743V41.75a1.958,1.958,0,0,1,1.949-1.915c1.543,0,1.721,1.01,1.721,1.769v5.7h2.81V40.593A3.275,3.275,0,0,0,479.189,37.43Z" transform="translate(-390.195 -33.247)"/>
    </g>
    <g id="组_48" data-name="组 48" transform="translate(0.165 0)">
      <path id="路径_210" data-name="路径 210" class="cls-1" d="M19.031,19.414a10.106,10.106,0,1,1,0-14.827A.948.948,0,1,0,20.32,3.2a12,12,0,1,0,0,17.606.948.948,0,0,0-1.289-1.39Z" transform="translate(-0.165 0)"/>
      <path id="路径_211" data-name="路径 211" class="cls-1" d="M38.656,29.392a.947.947,0,0,0-1.339,0l-5.294,5.294L28.9,31.559a.947.947,0,0,0-1.339,0l-5.3,5.294-3.125-3.125A.947.947,0,0,0,17.8,35.068l3.8,3.8a.944.944,0,0,0,1.339,0l5.294-5.294L31.355,36.7a.944.944,0,0,0,1.339,0l5.964-5.964A.948.948,0,0,0,38.656,29.392Z" transform="translate(-13.355 -22.127)"/>
    </g>
  </g>
</svg>
