<svg xmlns="http://www.w3.org/2000/svg" width="119.068" height="24" viewBox="0 0 119.068 24">
  <defs>
    <style>
      .cls-1, .cls-2 {
        fill: #878787;
      }

      .cls-1 {
        fill-rule: evenodd;
      }
    </style>
  </defs>
  <g id="winkrypto" transform="translate(-14.733 -19.745)">
    <path id="路径_292" data-name="路径 292" class="cls-1" d="M64.683,20.586l2.008-.777a1.051,1.051,0,0,1,1.35.627l.159.437,5.577,15.383A1.051,1.051,0,0,1,73.15,37.6l-2.01.778a1.051,1.051,0,0,1-1.348-.627l-.161-.439L64.054,21.934A1.053,1.053,0,0,1,64.683,20.586Z" transform="translate(-40.064)"/>
    <path id="路径_293" data-name="路径 293" class="cls-1" d="M15.423,20.586l2.01-.777a1.051,1.051,0,0,1,1.35.627l.159.437,5.577,15.383A1.051,1.051,0,0,1,23.89,37.6l-2.014.778a1.053,1.053,0,0,1-1.35-.627l-.144-.439L14.8,21.934a1.055,1.055,0,0,1,.627-1.348Z" transform="translate(0 0)"/>
    <path id="路径_294" data-name="路径 294" class="cls-2" d="M131.126,20.22a2.518,2.518,0,0,0-2.526,2.511v.019a2.52,2.52,0,1,0,5.04.013v-.019A2.518,2.518,0,0,0,131.126,20.22Z" transform="translate(-92.613 -0.386)"/>
    <rect id="矩形_10" data-name="矩形 10" class="cls-2" width="3.937" height="11.071" rx="1.968" transform="translate(36.534 27.03)"/>
    <path id="路径_295" data-name="路径 295" class="cls-2" d="M178.882,58.9a4,4,0,0,0-1.4-1.062,4.831,4.831,0,0,0-1.992-.373,5.066,5.066,0,0,0-1.919.334,4.209,4.209,0,0,0-1.607,1.307l-.2.243V58.279a.575.575,0,0,0-.575-.575h-2.552a.637.637,0,0,0-.635.637V68.2a.575.575,0,0,0,.577.575h2.613a.575.575,0,0,0,.575-.575V62.857a2.652,2.652,0,0,1,.56-1.805,2.091,2.091,0,0,1,1.637-.644,2.3,2.3,0,0,1,.747.118,1.6,1.6,0,0,1,.637.4,1.783,1.783,0,0,1,.459.879,6.161,6.161,0,0,1,.125,1.381V68.2a.575.575,0,0,0,.575.575h2.613a.575.575,0,0,0,.575-.575v-6.49a6.533,6.533,0,0,0-.174-1.581A3.018,3.018,0,0,0,178.882,58.9Z" transform="translate(-124.658 -30.676)"/>
    <path id="路径_296" data-name="路径 296" class="cls-2" d="M259.6,28.333h-5.129l-4.344,4.23V21.525a.175.175,0,0,0-.175-.175h-3.412a.175.175,0,0,0-.175.175V39.234a.175.175,0,0,0,.175.175h3.412a.175.175,0,0,0,.175-.175v-4.6l4.543,4.771h5.281l-5.885-5.973Z" transform="translate(-188.391 -1.305)"/>
    <path id="路径_297" data-name="路径 297" class="cls-2" d="M336.666,57.456h-.345a4.127,4.127,0,0,0-2.1.525,4.465,4.465,0,0,0-1.527,1.516l-.207.329V58.274a.577.577,0,0,0-.577-.575h-2.613a.575.575,0,0,0-.575.575V68.2a.575.575,0,0,0,.575.575h2.613a.577.577,0,0,0,.579-.575V64.041a3.787,3.787,0,0,1,.721-2.484,2.691,2.691,0,0,1,2.167-.866,4,4,0,0,1,1.282.205.248.248,0,0,0,.226-.032.237.237,0,0,0,.1-.187V57.771A.315.315,0,0,0,336.666,57.456Z" transform="translate(-255.378 -30.671)"/>
    <path id="路径_298" data-name="路径 298" class="cls-2" d="M466.161,58.6a5.641,5.641,0,0,0-1.783-1.264,5.314,5.314,0,0,0-2.212-.465,4.118,4.118,0,0,0-3.394,1.566l-.194.252V57.8a.575.575,0,0,0-.575-.575h-2.557a.637.637,0,0,0-.637.637v15.5a.579.579,0,0,0,.577.577H458a.577.577,0,0,0,.575-.577v-6.33l.187.2a4.622,4.622,0,0,0,3.444,1.419,5.346,5.346,0,0,0,3.959-1.7,5.9,5.9,0,0,0,1.168-1.867,6.173,6.173,0,0,0,.422-2.294,6.347,6.347,0,0,0-.422-2.316A5.722,5.722,0,0,0,466.161,58.6ZM463.6,63.809a2.976,2.976,0,0,1-.573.847,2.58,2.58,0,0,1-.84.575,2.613,2.613,0,0,1-1.036.207,2.568,2.568,0,0,1-1.047-.218,2.955,2.955,0,0,1-.859-.573,2.584,2.584,0,0,1-.577-.84,2.64,2.64,0,0,1-.207-1.036,2.6,2.6,0,0,1,.218-1.047,2.955,2.955,0,0,1,.573-.859,2.593,2.593,0,0,1,.842-.577,2.722,2.722,0,0,1,2.1.011,2.825,2.825,0,0,1,.859.586,2.544,2.544,0,0,1,.56.861,2.84,2.84,0,0,1,.187,1.043A2.442,2.442,0,0,1,463.6,63.809Z" transform="translate(-357.932 -30.194)"/>
    <path id="路径_299" data-name="路径 299" class="cls-2" d="M540.539,43.974h-1.695V41.157a.577.577,0,0,0-.575-.577h-2.613a.577.577,0,0,0-.575.577v2.817h-.747a.575.575,0,0,0-.575.575V46.5a.575.575,0,0,0,.575.575h.747v7.4a.575.575,0,0,0,.575.575h2.613a.575.575,0,0,0,.575-.575v-7.4h1.693a.577.577,0,0,0,.577-.575V44.548a.577.577,0,0,0-.575-.575Z" transform="translate(-422.144 -16.946)"/>
    <path id="路径_300" data-name="路径 300" class="cls-2" d="M593.94,60.077a5.546,5.546,0,0,0-1.394-1.88,6.627,6.627,0,0,0-2.122-1.234,7.784,7.784,0,0,0-2.66-.444,7.678,7.678,0,0,0-2.682.463,6.645,6.645,0,0,0-2.113,1.245,5.68,5.68,0,0,0-1.383,1.867,5.433,5.433,0,0,0-.5,2.3,6.027,6.027,0,0,0,.5,2.477,5.717,5.717,0,0,0,1.372,1.911,6.1,6.1,0,0,0,2.087,1.213,7.887,7.887,0,0,0,2.651.435,8.245,8.245,0,0,0,2.708-.435,6.29,6.29,0,0,0,2.132-1.223,5.748,5.748,0,0,0,1.394-1.88,5.68,5.68,0,0,0,.508-2.41A5.787,5.787,0,0,0,593.94,60.077Zm-3.707,3.438a2.906,2.906,0,0,1-.573.859,2.522,2.522,0,0,1-.851.575,2.746,2.746,0,0,1-2.092,0,2.531,2.531,0,0,1-.851-.575,2.932,2.932,0,0,1-.573-.859,2.691,2.691,0,0,1-.218-1.092,2.493,2.493,0,0,1,.218-1.038,2.962,2.962,0,0,1,.573-.857,2.535,2.535,0,0,1,.851-.56,2.763,2.763,0,0,1,2.093,0,2.554,2.554,0,0,1,.849.56,2.918,2.918,0,0,1,.573.859,2.57,2.57,0,0,1,.218,1.047A2.638,2.638,0,0,1,590.232,63.515Z" transform="translate(-460.638 -29.909)"/>
    <path id="路径_301" data-name="路径 301" class="cls-2" d="M393.1,58.76h-2.72a.6.6,0,0,0-.56.4l-2.167,6.012-2.182-6.014a.6.6,0,0,0-.56-.394h-2.7a.56.56,0,0,0-.47.245.573.573,0,0,0-.071.528l3.819,10.528-.013.039L383.8,74.7a.577.577,0,0,0,.541.771h3.1a.6.6,0,0,0,.56-.394l5.647-15.549a.575.575,0,0,0-.541-.773Z" transform="translate(-298.414 -31.732)"/>
  </g>
</svg>
