<?xml version="1.0" encoding="utf-8"?>
<!-- Generator: Adobe Illustrator 23.0.2, SVG Export Plug-In . SVG Version: 6.00 Build 0)  -->
<svg version="1.1" id="图层_1" xmlns="http://www.w3.org/2000/svg" xmlns:xlink="http://www.w3.org/1999/xlink" x="0px" y="0px"
	 viewBox="0 0 2032 352" style="enable-background:new 0 0 2032 352;" xml:space="preserve">
<style type="text/css">
	.st0{fill:#FFFFFF;}
</style>
<g>
	<g>
		<path class="st0" d="M435.208,107.013h102.47V133.8l-55.275,126.494h-39.33l58.039-123.518h-65.904V107.013z"/>
		<path class="st0" d="M638.764,240.098c-14.812-14.457-22.216-32.74-22.216-54.85s7.404-40.357,22.216-54.743
			c14.809-14.383,32.953-21.578,54.424-21.578c21.472,0,39.543,7.195,54.212,21.578c14.669,14.387,22.004,32.633,22.004,54.743
			s-7.372,40.393-22.11,54.85c-14.742,14.457-32.813,21.685-54.211,21.685C671.68,261.782,653.573,254.554,638.764,240.098z
			 M721.676,216.499c7.156-7.793,10.736-18.21,10.736-31.251c0-13.038-3.581-23.455-10.736-31.252
			c-7.159-7.793-16.725-11.693-28.7-11.693c-11.979,0-21.545,3.9-28.7,11.693c-7.159,7.796-10.736,18.214-10.736,31.252
			c0,13.041,3.578,23.459,10.736,31.251c7.155,7.796,16.721,11.693,28.7,11.693C704.951,228.192,714.518,224.296,721.676,216.499z"
			/>
		<path class="st0" d="M788.112,137.202l-2.764-46.984h29.976l-2.764,46.984H788.112z"/>
		<path class="st0" d="M853.27,239.991c-14.812-14.383-22.216-32.633-22.216-54.743s7.404-40.357,22.216-54.743
			c14.809-14.383,32.916-21.578,54.318-21.578c16.582,0,31.321,4.395,44.22,13.181c12.896,8.79,21.897,20.977,27,36.566h-43.37
			c-5.67-10.912-14.742-16.37-27.212-16.37c-12.473,0-22.289,3.9-29.444,11.693c-7.159,7.796-10.736,18.214-10.736,31.252
			c0,13.041,3.578,23.459,10.736,31.251c7.155,7.796,16.971,11.693,29.444,11.693c12.47,0,21.542-5.454,27.212-16.37h43.37
			c-5.102,15.593-14.104,27.78-27,36.566c-12.899,8.79-27.637,13.181-44.22,13.181C886.186,261.569,868.079,254.378,853.27,239.991z
			"/>
		<path class="st0" d="M1002.191,260.294v-157.32h36.354v157.32H1002.191z"/>
		<path class="st0" d="M1079.895,244.987c-11.979-11.195-17.964-25.937-17.964-44.22s5.953-32.916,17.858-43.901
			c11.905-10.982,26.644-16.476,44.22-16.476c17.573,0,32.278,5.494,44.114,16.476c11.832,10.985,17.751,25.618,17.751,43.901
			s-5.883,33.025-17.645,44.22c-11.766,11.198-26.435,16.795-44.007,16.795C1106.646,261.782,1091.87,256.185,1079.895,244.987z
			 M1141.654,223.09c4.816-5.102,7.228-12.47,7.228-22.11c0-9.637-2.481-16.971-7.44-22.004c-4.963-5.029-10.843-7.547-17.646-7.547
			s-12.65,2.518-17.539,7.547c-4.889,5.032-7.334,12.367-7.334,22.004c0,9.64,2.514,17.007,7.547,22.11
			c5.029,5.102,10.949,7.654,17.752,7.654C1131.024,230.743,1136.834,228.192,1141.654,223.09z"/>
		<path class="st0" d="M1217.019,245.2c-10.985-11.055-16.476-25.794-16.476-44.22c0-18.423,5.491-33.128,16.476-44.113
			c10.982-10.982,25.192-16.476,42.626-16.476c14.456,0,26.714,3.581,36.779,10.736c10.062,7.159,16.722,17.4,19.984,30.72h-39.33
			c-3.402-7.085-8.965-10.63-16.689-10.63c-7.727,0-13.467,2.73-17.22,8.185c-3.757,5.458-5.634,12.649-5.634,21.578
			s1.877,16.124,5.634,21.578c3.754,5.458,9.248,8.185,16.476,8.185c4.534,0,8.078-0.777,10.629-2.339
			c2.552-1.558,4.817-4.322,6.803-8.291h39.33c-3.262,12.756-9.992,22.89-20.197,30.401c-10.205,7.514-22.396,11.268-36.566,11.268
			C1242.211,261.782,1228.001,256.255,1217.019,245.2z"/>
		<path class="st0" d="M1373.168,260.294h-36.354v-157.32h36.354v88.227l36.779-49.535h48.897l-50.81,60.589l50.81,58.039h-48.259
			l-37.416-47.409L1373.168,260.294L1373.168,260.294z"/>
		<path class="st0" d="M1539.415,111.052h36.354v121.604h45.282v27.637h-81.636V111.052z"/>
		<path class="st0" d="M1648.261,244.775c-10.49-11.337-15.732-25.864-15.732-43.582c0-17.715,5.242-32.278,15.732-43.688
			c10.487-11.407,23.279-17.114,38.373-17.114c15.095,0,26.681,5.601,34.76,16.795v-15.519h36.354v118.628h-36.354v-17.22
			c-8.79,12.473-20.552,18.708-35.291,18.708C1671.361,261.782,1658.748,256.115,1648.261,244.775z M1713.528,222.665
			c5.242-5.102,7.866-12.33,7.866-21.685c0-9.354-2.625-16.546-7.866-21.578c-5.245-5.029-11.267-7.547-18.07-7.547
			s-12.829,2.551-18.071,7.653c-5.245,5.102-7.866,12.331-7.866,21.685s2.621,16.549,7.866,21.578
			c5.242,5.032,11.268,7.547,18.071,7.547C1702.26,230.318,1708.283,227.767,1713.528,222.665z"/>
		<path class="st0" d="M1825.99,157.185c8.078-11.195,19.665-16.795,34.759-16.795s27.883,5.707,38.374,17.114
			c10.487,11.41,15.732,25.973,15.732,43.688c0,17.718-5.245,32.245-15.732,43.582c-10.491,11.341-23.173,17.007-38.055,17.007
			c-14.881,0-26.574-6.235-35.078-18.708v17.22h-36.354v-157.32h36.354V157.185z M1869.997,222.771
			c5.242-5.029,7.866-12.224,7.866-21.578s-2.624-16.582-7.866-21.685c-5.245-5.102-11.268-7.653-18.07-7.653
			c-6.803,0-12.829,2.518-18.071,7.547c-5.245,5.032-7.866,12.224-7.866,21.578s2.621,16.582,7.866,21.685
			c5.242,5.102,11.267,7.654,18.071,7.654C1858.73,230.318,1864.752,227.803,1869.997,222.771z"/>
		<path class="st0" d="M1929.949,177.382c0-10.487,4.464-19.273,13.393-26.362c8.929-7.086,21.01-10.63,36.248-10.63
			c15.234,0,27.531,3.475,36.885,10.417c9.354,6.946,14.314,16.443,14.882,28.488h-37.204c-0.425-4.109-1.844-6.909-4.252-8.397
			c-2.411-1.488-6.026-2.232-10.842-2.232c-9.497,0-14.244,2.906-14.244,8.716c0,5.245,5.81,8.859,17.433,10.842
			c11.763,1.987,22.462,5.033,32.102,9.142c4.959,1.987,9.105,5.282,12.437,9.886c3.328,4.607,4.996,10.241,4.996,16.901
			c0,11.055-4.75,20.09-14.244,27.106c-9.497,7.016-21.472,10.523-35.929,10.523s-26.505-3.295-36.141-9.886
			c-9.64-6.59-14.882-16.333-15.732-29.232h37.205c0.99,7.228,6.092,10.843,15.306,10.843c4.252,0,7.76-0.99,10.523-2.976
			c2.764-1.983,4.146-4.534,4.146-7.654c0-3.116-2.306-5.597-6.91-7.441c-4.607-1.84-10.171-3.402-16.689-4.677
			c-6.521-1.276-13.074-2.87-19.665-4.784c-6.59-1.913-12.191-5.242-16.795-9.992
			C1932.251,191.237,1929.949,185.035,1929.949,177.382z"/>
	</g>
	<g>
		<path class="st0" d="M115.429,293.915c-42.84-21.913-72.235-66.507-72.235-117.839c0-72.931,59.334-132.265,132.265-132.265
			s132.265,59.334,132.265,132.265c0,62.271-43.259,114.62-101.301,128.596l-23.683,46.495c21.079-0.855,41.545-5.428,60.937-13.63
			c20.87-8.827,39.609-21.46,55.696-37.547c16.087-16.087,28.72-34.826,37.547-55.696c9.144-21.618,13.78-44.57,13.78-68.218
			s-4.636-46.6-13.78-68.219c-8.827-20.87-21.46-39.609-37.547-55.696s-34.826-28.72-55.696-37.547
			c-21.619-9.144-44.57-13.78-68.218-13.78s-46.6,4.636-68.218,13.78c-20.87,8.827-39.609,21.46-55.696,37.547
			s-28.719,34.826-37.547,55.696c-9.144,21.619-13.78,44.571-13.78,68.219s4.636,46.6,13.78,68.218
			c8.827,20.87,21.46,39.609,37.547,55.696s34.826,28.72,55.696,37.547c9.554,4.041,19.369,7.2,29.389,9.469"/>
		<g>
			<g>
				<path class="st0" d="M95.815,332.207c3.738,1.907,7.553,3.684,11.442,5.329c9.554,4.041,19.369,7.2,29.389,9.469L256.77,111.148
					H103.82v42.976h82.829l-71.204,139.791"/>
			</g>
		</g>
		<path class="st0" d="M307.725,176.075c0,62.271-43.259,114.62-101.301,128.596l-23.683,46.495
			c21.079-0.855,41.545-5.428,60.937-13.63c20.87-8.827,39.609-21.46,55.696-37.547s28.72-34.826,37.547-55.696
			c9.144-21.618,13.78-44.57,13.78-68.218"/>
	</g>
</g>
</svg>
