<?xml version="1.0" encoding="utf-8"?>
<!-- Generator: Adobe Illustrator 23.0.2, SVG Export Plug-In . SVG Version: 6.00 Build 0)  -->
<svg version="1.1" id="图层_1" xmlns="http://www.w3.org/2000/svg" xmlns:xlink="http://www.w3.org/1999/xlink" x="0px" y="0px"
	 viewBox="0 0 640 215" style="enable-background:new 0 0 640 215;" xml:space="preserve">
<style type="text/css">
	.st0{enable-background:new    ;}
	.st1{fill:#FFFFFF;}
</style>
<g class="st0">
	<path class="st1" d="M301,79.6h-44.5l-7.8,18.1c-1.9,4.5-2.9,7.8-2.9,10c0,1.8,0.8,3.3,2.5,4.6c1.7,1.3,5.3,2.2,10.8,2.6v3.1H223
		v-3.1c4.8-0.8,7.9-1.9,9.3-3.3c2.9-2.7,6.1-8.2,9.6-16.5l40.4-94.5h3l40,95.5c3.2,7.7,6.1,12.7,8.8,14.9c2.6,2.3,6.3,3.6,11,3.9
		v3.1h-45.3v-3.1c4.6-0.2,7.7-1,9.3-2.3c1.6-1.3,2.4-2.9,2.4-4.7c0-2.5-1.1-6.4-3.4-11.8L301,79.6z M298.7,73.3l-19.5-46.4l-20,46.4
		H298.7z"/>
	<path class="st1" d="M429.7,6.3V3.2h40.6v3.1H466c-4.5,0-8,1.9-10.4,5.7c-1.2,1.8-1.8,5.8-1.8,12.2v46.6c0,11.5-1.1,20.5-3.4,26.8
		c-2.3,6.4-6.8,11.8-13.5,16.3s-15.8,6.8-27.3,6.8c-12.5,0-22-2.2-28.5-6.5S370,104,367.3,96.7c-1.8-5-2.7-14.5-2.7-28.3V23.5
		c0-7.1-1-11.7-2.9-13.9s-5.1-3.3-9.4-3.3H348V3.2h49.6v3.1h-4.4c-4.7,0-8.1,1.5-10.2,4.5c-1.4,2-2.1,6.3-2.1,12.7v50
		c0,4.5,0.4,9.6,1.2,15.3c0.8,5.8,2.3,10.2,4.4,13.5s5.2,5.9,9.3,8c4,2.1,9,3.1,14.9,3.1c7.5,0,14.2-1.6,20.2-4.9
		c5.9-3.3,10-7.5,12.2-12.6s3.3-13.8,3.3-26V23.5c0-7.2-0.8-11.7-2.4-13.5c-2.2-2.5-5.5-3.7-9.8-3.7H429.7z"/>
	<path class="st1" d="M551.7,95.9l-8,22.1H476v-3.1c19.9-18.2,34-33,42.1-44.5s12.2-22,12.2-31.6c0-7.3-2.2-13.3-6.7-18s-9.8-7-16-7
		c-5.6,0-10.7,1.7-15.2,5s-7.8,8.1-10,14.5h-3.1c1.4-10.4,5-18.5,10.9-24.1c5.8-5.6,13.1-8.4,21.9-8.4c9.3,0,17.1,3,23.3,9
		s9.4,13,9.4,21.2c0,5.8-1.4,11.6-4.1,17.4c-4.2,9.1-11,18.8-20.3,29c-14.1,15.4-22.8,24.6-26.3,27.8h30c6.1,0,10.4-0.2,12.8-0.7
		c2.5-0.5,4.7-1.4,6.6-2.8c2-1.4,3.7-3.3,5.2-5.9h3V95.9z"/>
	<path class="st1" d="M579.2,14.5l27.9-13.6h2.8v97c0,6.4,0.3,10.4,0.8,12s1.7,2.8,3.3,3.6c1.7,0.8,5.1,1.3,10.3,1.4v3.1h-43.2v-3.1
		c5.4-0.1,8.9-0.6,10.5-1.4s2.7-1.9,3.3-3.3s0.9-5.5,0.9-12.4v-62c0-8.4-0.3-13.7-0.8-16.1c-0.4-1.8-1.1-3.1-2.2-4
		c-1-0.8-2.3-1.3-3.8-1.3c-2.1,0-5,0.9-8.7,2.6L579.2,14.5z"/>
</g>
<g class="st0">
	<path class="st1" d="M280.2,144.9l1.5,22.6h-1.5c-2-6.8-4.9-11.6-8.7-14.6c-3.8-3-8.3-4.5-13.5-4.5c-4.4,0-8.4,1.1-12,3.4
		c-3.6,2.2-6.4,5.8-8.4,10.7s-3.1,11-3.1,18.3c0,6,1,11.2,2.9,15.6c1.9,4.4,4.8,7.8,8.7,10.1c3.9,2.4,8.3,3.5,13.3,3.5
		c4.3,0,8.1-0.9,11.4-2.8c3.3-1.8,6.9-5.5,10.9-11l1.5,1c-3.3,5.9-7.2,10.2-11.7,13c-4.4,2.7-9.7,4.1-15.8,4.1
		c-11,0-19.5-4.1-25.6-12.3c-4.5-6.1-6.8-13.2-6.8-21.5c0-6.6,1.5-12.7,4.5-18.3s7.1-9.9,12.3-12.9c5.2-3.1,10.9-4.6,17.1-4.6
		c4.8,0,9.5,1.2,14.2,3.5c1.4,0.7,2.4,1.1,2.9,1.1c0.9,0,1.6-0.3,2.3-0.9c0.8-0.9,1.5-2.1,1.8-3.7h1.8L280.2,144.9L280.2,144.9z"/>
	<path class="st1" d="M332.7,190.7H307l-4.5,10.5c-1.1,2.6-1.7,4.5-1.7,5.8c0,1,0.5,1.9,1.4,2.7c1,0.8,3,1.3,6.3,1.5v1.8h-20.9v-1.8
		c2.8-0.5,4.6-1.1,5.4-1.9c1.7-1.6,3.5-4.8,5.5-9.6l23.4-54.7h1.7l23.1,55.3c1.9,4.4,3.6,7.3,5.1,8.7s3.6,2.1,6.3,2.2v1.8h-26.2
		v-1.8c2.6-0.1,4.4-0.6,5.4-1.3c0.9-0.8,1.4-1.7,1.4-2.7c0-1.4-0.7-3.7-2-6.8L332.7,190.7z M331.3,187L320,160.2L308.4,187H331.3z"
		/>
	<path class="st1" d="M379.8,181.8v19.4c0,4.2,0.5,6.8,1.4,7.8c1.2,1.4,3.1,2.2,5.6,2.2h2.5v1.8h-28.5v-1.8h2.5c2.8,0,4.8-0.9,6-2.7
		c0.7-1,1-3.4,1-7.2v-42.9c0-4.2-0.4-6.8-1.3-7.8c-1.3-1.4-3.2-2.2-5.7-2.2h-2.5v-1.8h24.4c5.9,0,10.6,0.6,14.1,1.8
		c3.4,1.2,6.3,3.3,8.7,6.2s3.5,6.4,3.5,10.3c0,5.4-1.8,9.8-5.4,13.2s-8.6,5.1-15.2,5.1c-1.6,0-3.3-0.1-5.2-0.3
		C383.9,182.6,381.9,182.2,379.8,181.8z M379.8,179c1.7,0.3,3.3,0.6,4.6,0.7c1.3,0.2,2.5,0.2,3.4,0.2c3.4,0,6.3-1.3,8.8-3.9
		c2.5-2.6,3.7-6,3.7-10.2c0-2.9-0.6-5.5-1.8-8s-2.8-4.3-5-5.5s-4.6-1.8-7.4-1.8c-1.7,0-3.8,0.3-6.4,0.9L379.8,179L379.8,179z"/>
	<path class="st1" d="M446.1,211.1v1.8h-28.5v-1.8h2.4c2.7,0,4.7-0.8,6-2.4c0.8-1,1.2-3.6,1.2-7.5v-42.9c0-3.4-0.2-5.6-0.6-6.7
		c-0.3-0.8-1-1.5-2-2.1c-1.4-0.8-2.9-1.2-4.5-1.2h-2.4v-1.8h28.5v1.8h-2.4c-2.7,0-4.7,0.8-5.9,2.4c-0.8,1-1.2,3.6-1.2,7.6v42.9
		c0,3.4,0.2,5.6,0.6,6.7c0.3,0.8,1,1.5,2.1,2.1c1.4,0.8,2.9,1.2,4.5,1.2h2.2L446.1,211.1L446.1,211.1z"/>
</g>
<g class="st0">
	<path class="st1" d="M506.6,146.4l0.7,15.6h-1.9c-0.4-2.7-0.9-4.7-1.5-5.9c-1-1.9-2.4-3.3-4-4.2c-1.7-0.9-3.9-1.3-6.6-1.3H484v50.8
		c0,4.1,0.4,6.6,1.3,7.6c1.2,1.4,3.2,2.1,5.7,2.1h2.3v1.8h-28.2v-1.8h2.4c2.8,0,4.8-0.8,6-2.5c0.7-1,1.1-3.4,1.1-7.2v-50.8h-8
		c-3.1,0-5.3,0.2-6.6,0.7c-1.7,0.6-3.2,1.8-4.4,3.6c-1.2,1.8-1.9,4.2-2.2,7.2h-1.9l0.8-15.6h54.3L506.6,146.4L506.6,146.4z"/>
</g>
<g class="st0">
	<path class="st1" d="M547.8,190.7H522l-4.5,10.5c-1.1,2.6-1.7,4.5-1.7,5.8c0,1,0.5,1.9,1.4,2.7c1,0.8,3,1.3,6.3,1.5v1.8h-20.9v-1.8
		c2.8-0.5,4.6-1.1,5.4-1.9c1.7-1.6,3.5-4.8,5.5-9.6l23.4-54.7h1.7l23.1,55.3c1.9,4.4,3.6,7.3,5.1,8.7s3.6,2.1,6.3,2.2v1.8H547v-1.8
		c2.6-0.1,4.4-0.6,5.4-1.3s1.4-1.7,1.4-2.7c0-1.4-0.7-3.7-2-6.8L547.8,190.7z M546.4,187l-11.3-26.9L523.6,187H546.4z"/>
	<path class="st1" d="M631.9,194.5l1.6,0.3l-5.7,18h-51.5V211h2.5c2.8,0,4.8-0.9,6-2.7c0.7-1,1-3.5,1-7.3v-42.9
		c0-4.2-0.5-6.8-1.4-7.8c-1.3-1.4-3.2-2.2-5.7-2.2h-2.5v-1.8h30.1v1.8c-3.5,0-6,0.3-7.4,1s-2.4,1.6-2.9,2.6s-0.8,3.5-0.8,7.5V201
		c0,2.7,0.3,4.6,0.8,5.6c0.4,0.7,1,1.2,1.8,1.5s3.4,0.5,7.6,0.5h4.9c5.1,0,8.7-0.4,10.7-1.1c2.1-0.8,3.9-2.1,5.6-4
		C628.5,201.7,630.2,198.7,631.9,194.5z"/>
</g>
<path class="st1" d="M6.5,209.2l78.6-78.6c2.7-2.7,7-2.7,9.7,0l78.6,78.6"/>
<g>
	<path class="st1" d="M173.3,177.5c-1.7,0-3.3-0.6-4.6-1.9L89.9,96.8l-78.8,78.8c-2.5,2.5-6.7,2.5-9.2,0c-2.5-2.5-2.5-6.7,0-9.2
		L85.3,83c2.5-2.5,6.7-2.5,9.2,0l83.4,83.4c2.5,2.5,2.5,6.7,0,9.2C176.6,176.9,175,177.5,173.3,177.5z"/>
</g>
<g>
	<path class="st1" d="M173.3,137.9c-1.7,0-3.3-0.6-4.6-1.9L89.9,57.2L11.1,136c-2.5,2.5-6.7,2.5-9.2,0c-2.5-2.5-2.5-6.7,0-9.2
		l83.4-83.4c1.2-1.2,2.9-1.9,4.6-1.9s3.4,0.7,4.6,1.9l83.4,83.4c2.5,2.5,2.5,6.7,0,9.2C176.6,137.3,175,137.9,173.3,137.9z"/>
</g>
<g>
	<path class="st1" d="M173.3,98.3c-1.7,0-3.3-0.6-4.6-1.9L89.9,17.6L11.1,96.4c-2.5,2.5-6.7,2.5-9.2,0c-2.5-2.5-2.5-6.7,0-9.2
		L85.3,3.8c2.5-2.5,6.7-2.5,9.2,0l83.4,83.4c2.5,2.5,2.5,6.7,0,9.2C176.6,97.7,175,98.3,173.3,98.3z"/>
</g>
</svg>
