<?xml version="1.0" encoding="utf-8"?>
<!-- Generator: Adobe Illustrator 23.0.2, SVG Export Plug-In . SVG Version: 6.00 Build 0)  -->
<svg version="1.1" id="图层_1" xmlns="http://www.w3.org/2000/svg" xmlns:xlink="http://www.w3.org/1999/xlink" x="0px" y="0px"
	 viewBox="0 0 474 126" style="enable-background:new 0 0 474 126;" xml:space="preserve">
<style type="text/css">
	.st0{fill:#FFFFFF;}
</style>
<path class="st0" d="M162.429,63h-23.2V14.2h22.7c10,0,16.101,5,16.101,12.6v0.1c0,5.5-2.901,8.6-6.401,10.5c5.6,2.2,9.1,5.4,9.1,12
	v0.1C180.729,58.6,173.529,63,162.429,63z M167.33,28.6c0-3.2-2.5-5-7-5h-10.601v10.3h9.9c4.7,0,7.701-1.5,7.701-5.2V28.6z
	 M170.03,48.2c0-3.3-2.401-5.3-7.901-5.3h-12.4v10.7h12.801c4.7,0,7.599-1.7,7.599-5.3v-0.1H170.03z M192.53,63V14.2h10.699V63
	H192.53z M251.83,63l-23.601-31v31h-10.6V14.2h9.901l22.899,30.1V14.2h10.601V63H251.83z M309.229,63l-4.5-10.9h-20.6l-4.5,10.9
	h-10.9l20.9-49.2h9.901L320.429,63H309.229z M294.429,26.8l-6.5,15.8h13L294.429,26.8z M362.53,63l-23.601-31v31H328.33V14.2h9.899
	l22.9,30.1V14.2h10.6V63H362.53z M407.03,63.9c-14.4,0-25-11.1-25-25.1v-0.1c0-13.9,10.5-25.2,25.5-25.2
	c9.2,0,14.699,3.1,19.199,7.5l-6.8,7.9c-3.8-3.4-7.6-5.5-12.5-5.5c-8.2,0-14.2,6.8-14.2,15.2v0.1c0,8.4,5.8,15.3,14.2,15.3
	c5.6,0,9.001-2.2,12.8-5.7l6.801,6.9C422.03,60.5,416.53,63.9,407.03,63.9z M435.729,63V14.2h36.801v9.6h-26.101v9.9h23v9.6h-23
	v10.3h26.5v9.6h-37.2V63z"/>
<path class="st0" d="M143.248,87.184c0-2.256,2.016-4.032,5.472-4.032c3.072,0,6.096,1.2,9.12,3.456l3.168-4.464
	c-3.408-2.736-7.296-4.224-12.192-4.224c-6.672,0-11.472,3.936-11.472,9.792c0,6.24,4.032,8.352,11.184,10.08
	c6.24,1.44,7.584,2.736,7.584,5.184c0,2.592-2.304,4.272-5.952,4.272c-4.176,0-7.392-1.584-10.608-4.368L136,107.104
	c4.032,3.6,8.88,5.376,14.016,5.376c7.056,0,12-3.744,12-10.08c0-5.616-3.696-8.16-10.8-9.888
	C144.784,90.976,143.248,89.824,143.248,87.184z"/>
<path class="st0" d="M195.119,87.904V112h5.904V78.4h-6.288l-10.224,15.888L174.287,78.4h-6.288V112h5.808V88l10.512,15.744h0.192
	L195.119,87.904z"/>
<path class="st0" d="M226.087,78.16h-5.472L205.831,112h6.048l3.456-8.112h15.888l3.408,8.112h6.24L226.087,78.16z M229.063,98.656
	h-11.568l5.76-13.44L229.063,98.656z"/>
<path class="st0" d="M274.185,112l-9.072-12.72c4.704-1.296,8.016-4.656,8.016-10.224c0-6.576-4.752-10.656-12.48-10.656h-14.976
	V112h5.904v-11.712h7.392L267.225,112H274.185z M267.129,89.392c0,3.456-2.688,5.664-6.912,5.664h-8.64v-11.28h8.592
	C264.537,83.776,267.129,85.696,267.129,89.392z"/>
<path class="st0" d="M293.468,83.872h10.656V78.4H276.86v5.472h10.656V112h5.952V83.872z"/>
<path class="st0" d="M352.087,106.624l-3.792-3.84c-2.88,2.688-5.52,4.368-9.648,4.368c-6.432,0-11.088-5.376-11.088-12
	c0-6.624,4.656-11.904,11.088-11.904c3.84,0,6.72,1.68,9.408,4.176l3.792-4.368c-3.216-3.072-6.96-5.232-13.152-5.232
	c-10.176,0-17.328,7.824-17.328,17.424c0,9.696,7.296,17.328,17.088,17.328C344.743,112.576,348.583,110.272,352.087,106.624z"/>
<path class="st0" d="M379.269,97.84V112h5.904V78.4h-5.904v13.968h-16.032V78.4h-5.904V112h5.904V97.84H379.269z"/>
<path class="st0" d="M410.218,78.16h-5.472L389.962,112h6.048l3.456-8.112h15.888l3.408,8.112h6.24L410.218,78.16z M413.194,98.656
	h-11.568l5.76-13.44L413.194,98.656z"/>
<path class="st0" d="M430.139,78.4V112h5.904V78.4H430.139z"/>
<path class="st0" d="M467.55,101.632l-18-23.232h-5.472V112h5.808V88.096L468.414,112h4.944V78.4h-5.808V101.632z"/>
<path class="st0" d="M54.55,14.2l-21.1,12.2l-12.5-7.1L54.45,0l33.5,19.3l-12.3,7.1L54.55,14.2z"/>
<path class="st0" d="M75.75,36.6l12.3,7.1v14.2l-21.1,12.2v24.4l-12.3,7.1l-12.3-7.1V70.1l-21.1-12.2V43.7l12.3-7.1l21.1,12.2
	L75.75,36.6z"/>
<path class="st0" d="M88.05,68.1v14.2l-12.3,7.1V75.2L88.05,68.1z"/>
<path class="st0" d="M75.75,99.6l21.1-12.2h0.1V63l12.3-7.1v38.6l-33.5,19.3V99.6z"/>
<path class="st0" d="M96.85,38.6l-12.3-7.1l12.3-7.1l12.3,7.1v14.2l-12.3,7.1V38.6z"/>
<path class="st0" d="M42.25,118.9v-14.2l12.3,7.1l12.3-7.1v14.2l-12.3,7.1L42.25,118.9z"/>
<path class="st0" d="M33.45,89.4l-12.3-7.1V68.1l12.3,7.1V89.4z"/>
<path class="st0" d="M54.55,38.6l-12.3-7.1l12.3-7.1l12.3,7.1L54.55,38.6z"/>
<path class="st0" d="M24.65,31.5l-12.3,7.1v14.2l-12.3-7.1V31.5l12.3-7.1L24.65,31.5z"/>
<path class="st0" d="M0.05,55.9l12.3,7.1h0.1v24.4l21.1,12.2v14.2L0.05,94.5V55.9z"/>
</svg>
