<?xml version="1.0" encoding="utf-8"?>
<!-- Generator: Adobe Illustrator 23.0.2, SVG Export Plug-In . SVG Version: 6.00 Build 0)  -->
<svg version="1.1" id="图层_1" xmlns="http://www.w3.org/2000/svg" xmlns:xlink="http://www.w3.org/1999/xlink" x="0px" y="0px"
	 viewBox="0 0 1550 440" style="enable-background:new 0 0 1550 440;" xml:space="preserve">
<style type="text/css">
	.st0{fill-rule:evenodd;clip-rule:evenodd;fill:#FFFFFF;}
</style>
<g>
	<path class="st0" d="M1072.427,185.914c-3.427-2.641-8.587-3.978-15.397-3.978h-23.192v32.052h23.858
		c5.866,0,10.632-1.494,14.297-4.488c3.7-2.994,5.548-6.851,5.548-11.536C1077.541,192.568,1075.85,188.554,1072.427,185.914z"/>
	<path class="st0" d="M0.964,0.463v439.074h1548.072V0.463H0.964z M247.05,297.34c-11.93,11.101-27.483,16.655-46.657,16.655
		c-22.995,0-41.301-7.522-54.966-22.602c-13.661-15.079-20.476-35.354-20.476-60.792c0-27.286,6.694-48.625,20.123-63.982
		c13.424-15.312,31.931-22.995,55.557-22.995c19.764,0,35.672,5.871,47.641,17.604c12.01,11.732,18.739,27.993,20.198,48.863
		l-47.287,2.518c-0.157-9.844-2.009-17.523-5.589-23.076c-3.585-5.548-8.431-8.305-14.494-8.305
		c-8.466,0-14.645,3.938-18.623,11.808c-3.973,7.876-5.947,20.239-5.947,37.095c0,15.67,1.893,27.165,5.714,34.41
		c3.817,7.284,9.844,10.904,18.149,10.904c6.376,0,11.379-2.241,14.958-6.729c3.549-4.529,5.831-11.419,6.735-20.714l46.384,3.115
		C266.148,270.8,259.02,286.198,247.05,297.34z M368.836,310.885l-9.688-32.875h-44.173l-9.138,32.875h-40.476l50.403-163.914h53.31
		l51.538,163.914H368.836z M520.428,185.167h-32.4v125.718h-50.282V185.167h-32.405v-38.196h115.087V185.167z M580.559,264.541
		c3.817,7.284,9.844,10.904,18.154,10.904c6.376,0,11.379-2.241,14.958-6.729c3.544-4.529,5.831-11.419,6.729-20.714l46.384,3.115
		c-2.322,19.683-9.45,35.081-21.415,46.223c-11.934,11.101-27.483,16.655-46.657,16.655c-23,0-41.305-7.522-54.966-22.602
		c-13.665-15.079-20.476-35.354-20.476-60.792c0-27.286,6.694-48.625,20.118-63.982c13.428-15.312,31.93-22.995,55.557-22.995
		c19.764,0,35.671,5.871,47.641,17.604c12.01,11.732,18.744,27.993,20.198,48.863l-47.283,2.518
		c-0.161-9.844-2.009-17.523-5.593-23.076c-3.585-5.548-8.426-8.305-14.489-8.305c-8.466,0-14.65,3.938-18.628,11.808
		c-3.973,7.876-5.942,20.239-5.942,37.095C574.849,245.801,576.737,257.296,580.559,264.541z M819.638,207.647v12.035v91.203
		h-50.282v-64.927h-38.307v64.927h-50.281v-91.203v-12.035v-60.676h50.281v60.676h38.307v-60.676h50.282V207.647z M966.428,310.885
		H841.966V146.971h123.558v38.196h-75.563v24.095h62.054v35.515h-62.054v27.796h76.467V310.885z M1075.341,310.886l-24.333-62.17
		h-17.169v62.17h-49.848v-0.001V146.971h80.047c21.461,0,37.524,3.978,48.232,11.929c10.672,7.956,16.028,19.966,16.028,35.949
		c0,11.066-2.443,20.395-7.325,28.034c-4.882,7.603-11.97,13.075-21.299,16.382l29.528,71.621H1075.341z M1184.97,310.885
		l-51.7-163.914h52.371l29.054,110.048l30.714-110.048h42.088l-52.483,163.914H1184.97z M1408.616,297.34
		c-11.93,11.101-27.484,16.655-46.657,16.655c-22.995,0-41.306-7.522-54.967-22.602c-13.66-15.079-20.476-35.354-20.476-60.792
		c0-27.286,6.694-48.625,20.123-63.982c13.424-15.312,31.93-22.995,55.552-22.995c19.769,0,35.676,5.871,47.646,17.604
		c12.005,11.732,18.739,27.993,20.198,48.863l-47.286,2.518c-0.161-9.844-2.009-17.523-5.593-23.076
		c-3.584-5.548-8.426-8.305-14.489-8.305c-8.466,0-14.645,3.938-18.624,11.808c-3.978,7.876-5.947,20.239-5.947,37.095
		c0,15.67,1.894,27.165,5.71,34.41c3.822,7.284,9.844,10.904,18.154,10.904c6.376,0,11.379-2.241,14.958-6.729
		c3.544-4.529,5.831-11.419,6.734-20.714l46.384,3.115C1427.714,270.8,1420.586,286.198,1408.616,297.34z"/>
	<polygon class="st0" points="324.189,242.612 350.728,242.612 337.456,194.849 	"/>
</g>
</svg>
