<?xml version="1.0" encoding="utf-8"?>
<!-- Generator: Adobe Illustrator 23.0.2, SVG Export Plug-In . SVG Version: 6.00 Build 0)  -->
<svg version="1.1" id="图层_1" xmlns="http://www.w3.org/2000/svg" xmlns:xlink="http://www.w3.org/1999/xlink" x="0px" y="0px"
	 viewBox="0 0 1550 440" style="enable-background:new 0 0 1550 440;" xml:space="preserve">
<style type="text/css">
	.st0{fill-rule:evenodd;clip-rule:evenodd;fill:#E85C21;}
	.st1{fill-rule:evenodd;clip-rule:evenodd;fill:#FFFFFF;}
</style>
<g>
	<rect x="0.964" y="0.463" class="st0" width="1548.072" height="439.074"/>
	<g>
		<path class="st1" d="M1382.749,212.609c-0.161-9.844-2.009-17.523-5.593-23.076c-3.584-5.548-8.426-8.305-14.489-8.305
			c-8.466,0-14.645,3.938-18.624,11.808c-3.978,7.876-5.947,20.239-5.947,37.095c0,15.67,1.894,27.165,5.71,34.41
			c3.822,7.284,9.844,10.904,18.154,10.904c6.376,0,11.379-2.241,14.958-6.729c3.544-4.529,5.831-11.419,6.734-20.714l46.384,3.115
			c-2.322,19.683-9.45,35.081-21.42,46.223c-11.93,11.101-27.484,16.655-46.657,16.655c-22.995,0-41.306-7.522-54.967-22.602
			c-13.66-15.079-20.476-35.354-20.476-60.792c0-27.286,6.694-48.625,20.123-63.982c13.424-15.312,31.93-22.995,55.552-22.995
			c19.769,0,35.676,5.871,47.646,17.604c12.005,11.732,18.739,27.993,20.198,48.863L1382.749,212.609z"/>
		<polygon class="st1" points="1184.97,310.885 1133.27,146.971 1185.641,146.971 1214.695,257.019 1245.409,146.971 
			1287.497,146.971 1235.014,310.885 		"/>
		<path class="st1" d="M1057.03,181.936h-23.192v32.052h23.858c5.866,0,10.632-1.494,14.297-4.488
			c3.7-2.994,5.548-6.851,5.548-11.536c0-5.396-1.691-9.41-5.114-12.05C1069,183.273,1063.84,181.936,1057.03,181.936
			L1057.03,181.936z M983.991,310.885V146.971h80.047c21.461,0,37.524,3.978,48.232,11.929
			c10.672,7.956,16.028,19.966,16.028,35.949c0,11.066-2.443,20.395-7.325,28.034c-4.882,7.603-11.97,13.075-21.299,16.382
			l29.528,71.621h-53.861l-24.333-62.17h-17.169v62.17L983.991,310.885L983.991,310.885z"/>
		<polygon class="st1" points="841.966,310.885 841.966,146.971 965.524,146.971 965.524,185.167 889.961,185.167 889.961,209.262 
			952.015,209.262 952.015,244.777 889.961,244.777 889.961,272.573 966.428,272.573 966.428,310.885 		"/>
		<rect x="769.356" y="146.971" class="st1" width="50.282" height="72.711"/>
		<rect x="680.768" y="146.971" class="st1" width="50.281" height="72.711"/>
		<polygon class="st1" points="680.768,310.885 680.768,207.647 731.049,207.647 769.356,207.647 819.638,207.647 819.638,310.885 
			769.356,310.885 769.356,245.958 731.049,245.958 731.049,310.885 		"/>
		<path class="st1" d="M619.501,212.609c-0.161-9.844-2.009-17.523-5.593-23.076c-3.585-5.548-8.426-8.305-14.489-8.305
			c-8.466,0-14.65,3.938-18.628,11.808c-3.973,7.876-5.942,20.239-5.942,37.095c0,15.67,1.888,27.165,5.71,34.41
			c3.817,7.284,9.844,10.904,18.154,10.904c6.376,0,11.379-2.241,14.958-6.729c3.544-4.529,5.831-11.419,6.729-20.714l46.384,3.115
			c-2.322,19.683-9.45,35.081-21.415,46.223c-11.934,11.101-27.483,16.655-46.657,16.655c-23,0-41.305-7.522-54.966-22.602
			c-13.665-15.079-20.476-35.354-20.476-60.792c0-27.286,6.694-48.625,20.118-63.982c13.428-15.312,31.93-22.995,55.557-22.995
			c19.764,0,35.671,5.871,47.641,17.604c12.01,11.732,18.744,27.993,20.198,48.863L619.501,212.609z"/>
		<polygon class="st1" points="488.028,185.167 488.028,310.885 437.746,310.885 437.746,185.167 405.341,185.167 405.341,146.971 
			520.428,146.971 520.428,185.167 		"/>
		<path class="st1" d="M324.189,242.612h26.539l-13.272-47.763L324.189,242.612L324.189,242.612z M265.361,310.885l50.403-163.914
			h53.31l51.538,163.914h-51.776l-9.688-32.875h-44.173l-9.138,32.875H265.361z"/>
		<path class="st1" d="M221.183,212.609c-0.157-9.844-2.009-17.523-5.589-23.076c-3.585-5.548-8.431-8.305-14.494-8.305
			c-8.466,0-14.645,3.938-18.623,11.808c-3.973,7.876-5.947,20.239-5.947,37.095c0,15.67,1.893,27.165,5.714,34.41
			c3.817,7.284,9.844,10.904,18.149,10.904c6.376,0,11.379-2.241,14.958-6.729c3.549-4.529,5.831-11.419,6.735-20.714l46.384,3.115
			c-2.322,19.683-9.45,35.081-21.42,46.223c-11.93,11.101-27.483,16.655-46.657,16.655c-22.995,0-41.301-7.522-54.966-22.602
			c-13.661-15.079-20.476-35.354-20.476-60.792c0-27.286,6.694-48.625,20.123-63.982c13.424-15.312,31.931-22.995,55.557-22.995
			c19.764,0,35.672,5.871,47.641,17.604c12.01,11.732,18.739,27.993,20.198,48.863L221.183,212.609z"/>
	</g>
</g>
</svg>
