<?xml version="1.0" encoding="utf-8"?>
<!-- Generator: Adobe Illustrator 23.0.2, SVG Export Plug-In . SVG Version: 6.00 Build 0)  -->
<svg version="1.1" id="图层_1" xmlns="http://www.w3.org/2000/svg" xmlns:xlink="http://www.w3.org/1999/xlink" x="0px" y="0px"
	 viewBox="0 0 282 42" style="enable-background:new 0 0 282 42;" xml:space="preserve">
<style type="text/css">
	.st0{fill-rule:evenodd;clip-rule:evenodd;}
</style>
<path class="st0" d="M49.7,11c-3.5-6.1-9.8-9.7-16.4-10l0,0H20.4l0,0C17.2,1.1,14,2,11,3.7C1.4,9.2-1.8,21.4,3.7,31
	c3.9,6.7,11,10.3,18.2,10h3.9c0.6,0,1.2,0,1.8,0h3.9c0.6,0,1.2,0,1.8,0l0,0l0,0c3.1-0.1,6.2-1,9.1-2.7c4.8-2.8,8-7.2,9.3-12.1
	c0.1-0.3,0-0.7-0.2-0.9c-0.2-0.3-0.5-0.4-0.9-0.4H45l0,0h-5.7l0,0l0,0c-0.6,0-1,0.4-1.1,1c-1.2,4.3-4.1,8.2-8.3,10.7
	c-1.1,0.6-2.1,1.1-3.2,1.5c-4-1.3-7.5-4.1-9.8-8c-4.9-8.5-2-19.5,6.5-24.4c1.1-0.6,2.1-1.1,3.2-1.5c4,1.3,7.5,4.1,9.8,8
	c0.2,0.3,0.5,0.5,0.9,0.5h11.2c0,0,0,0,0.1,0c0.2,0,0.4,0,0.6-0.1C49.8,12.2,50,11.5,49.7,11z M31,3.7c2.8,1.6,5.2,3.9,7,6.8h3.1
	C38.6,7,35,4.7,31,3.7z M43.7,10.5h3.1C44.3,7,40.6,4.7,36.7,3.7C39.5,5.3,41.9,7.6,43.7,10.5z M31,38.3c1.6-0.4,3.2-1,4.6-1.9
	c3.8-2.2,6.5-5.6,7.9-9.5h-3.4C38.6,31.6,35.5,35.7,31,38.3L31,38.3z M16.7,38.3c-2.9-1.7-5.5-4.2-7.3-7.3
	C3.8,21.4,7.1,9.2,16.7,3.7l0,0c-1.6,0.4-3.2,1-4.6,1.9C3.5,10.5,0.6,21.4,5.5,29.9C8.1,34.3,12.2,37.2,16.7,38.3z M17.8,5.5
	c1.5-0.9,3-1.5,4.6-1.9l0,0C12.8,9.2,9.5,21.4,15,31c1.8,3.2,4.4,5.6,7.3,7.3c-4.5-1.1-8.6-4-11.1-8.4C6.3,21.4,9.2,10.5,17.8,5.5z
	 M41.3,36.5c-1.5,0.9-3,1.5-4.6,1.9l0,0c4.5-2.6,7.6-6.7,9.1-11.3h3.4C47.8,30.8,45.1,34.3,41.3,36.5z"/>
<g>
	<path d="M81.2,25.1c-0.3,2.6-1.2,4.5-2.8,5.9c-1.6,1.4-3.6,2-6.2,2c-1.8,0-3.4-0.5-4.8-1.4s-2.5-2.2-3.2-3.8
		c-0.8-1.7-1.1-3.6-1.2-5.7V19c0-2.2,0.4-4.1,1.1-5.8c0.8-1.7,1.8-3,3.3-3.9c1.5-0.8,3.1-1.3,5-1.3c2.6,0,4.7,0.7,6.2,2.1
		s2.4,3.4,2.6,5.8h-2.1c-0.5-4.1-2.8-6.2-6.7-6.2c-2.2,0-4,0.8-5.3,2.5s-2,3.9-2,6.8v3c0,2.8,0.6,5.1,1.9,6.7c1.3,1.7,3,2.5,5.2,2.5
		s3.8-0.5,4.9-1.5s1.8-2.6,2-4.7h2.1V25.1z"/>
	<path d="M72.2,33.6c-1.9,0-3.6-0.5-5.1-1.5c-1.5-1-2.7-2.4-3.4-4.1c-0.7-1.6-1.1-3.4-1.2-5.9l0-3.1c0-2.2,0.4-4.2,1.1-6
		c0.9-2,2-3.3,3.5-4.2c1.8-0.9,3.5-1.4,5.3-1.4c2.8,0,5,0.8,6.6,2.3c1.6,1.5,2.6,3.6,2.8,6.2l0.1,0.6h-3.3L78.5,16
		c-0.5-3.8-2.5-5.7-6.1-5.7c-2.1,0-3.7,0.8-4.8,2.3c-1.3,1.7-1.9,3.8-1.9,6.4v3c0,2.8,0.6,4.9,1.8,6.3c1.2,1.6,2.7,2.3,4.7,2.3
		c2,0,3.5-0.4,4.5-1.3c1-0.9,1.6-2.4,1.8-4.3l0.1-0.5h3.2l0,0.8c-0.3,2.7-1.3,4.8-3,6.3C77.1,32.9,75,33.6,72.2,33.6z M72.4,8.6
		c-1.6,0-3.1,0.4-4.7,1.2c-1.3,0.8-2.2,1.9-3,3.6c-0.7,1.7-1,3.5-1,5.5v3.1c0.1,2.3,0.5,4,1.1,5.4c0.7,1.5,1.7,2.7,3,3.6
		c1.3,0.9,2.9,1.3,4.5,1.3c2.5,0,4.4-0.6,5.8-1.9c1.4-1.2,2.2-2.8,2.5-4.9h-0.9c-0.3,2-1,3.5-2.1,4.5c-1.2,1.1-3,1.7-5.3,1.7
		c-2.4,0-4.3-0.9-5.7-2.7c-1.3-1.6-2-4-2-7.1v-3c0-3,0.7-5.3,2.1-7.2C68,10,70,9.1,72.4,9.1c4.1,0,6.6,2.1,7.2,6.2h0.9
		c-0.3-2-1.1-3.6-2.3-4.8C76.8,9.3,74.9,8.6,72.4,8.6z"/>
</g>
<g>
	<path d="M92.7,33c-1.5,0-2.9-0.4-4.2-1.1c-1.2-0.8-2.2-1.8-2.9-3.2c-0.7-1.4-1-2.9-1-4.6v-0.7c0-1.7,0.3-3.3,1-4.7
		c0.7-1.4,1.6-2.5,2.8-3.3c1.2-0.8,2.5-1.2,3.9-1.2c2.2,0,3.9,0.8,5.2,2.3c1.3,1.5,1.9,3.5,1.9,6.1v1.1H86.6v0.4
		c0,2.1,0.6,3.8,1.8,5.1c1.2,1.4,2.7,2,4.5,2c1.1,0,2-0.2,2.8-0.6s1.6-1,2.2-1.9l1.3,1C97.7,32,95.5,33,92.7,33z M92.4,16
		c-1.5,0-2.8,0.6-3.8,1.7s-1.7,2.6-1.9,4.5h10.9V22c-0.1-1.7-0.6-3.2-1.5-4.3C95.1,16.5,93.9,16,92.4,16z"/>
	<path d="M92.7,33.6c-1.5,0-3-0.4-4.5-1.2c-1.5-1-2.5-2.1-3.2-3.5c-0.7-1.4-1.1-3-1.1-4.9v-0.7c0-1.9,0.4-3.6,1.1-5
		c0.8-1.5,1.8-2.7,3-3.5c1.3-0.9,2.7-1.3,4.2-1.3c2.3,0,4.2,0.8,5.7,2.5c1.4,1.6,2,3.7,2,6.5v1.7H87.2c0,1.9,0.6,3.3,1.6,4.5
		c1.1,1.2,2.3,1.8,4.1,1.8c1,0,1.8-0.2,2.5-0.5c0.8-0.4,1.5-1,2-1.7l0.4-0.5l2.2,1.7L99.7,30C98.2,32.4,95.8,33.6,92.7,33.6z
		 M92.3,14.8c-1.3,0-2.5,0.4-3.6,1.1c-1.1,0.7-1.9,1.7-2.6,3.1c-0.6,1.2-0.9,2.7-0.9,4.4v0.7c0,1.7,0.3,3.1,0.9,4.3
		c0.6,1.2,1.5,2.1,2.7,3c1.2,0.7,2.5,1,3.9,1c2.5,0,4.4-0.8,5.7-2.6L98,29.5c-0.5,0.6-1.2,1.2-2,1.6c-0.9,0.4-1.9,0.7-3.1,0.7
		c-2.1,0-3.7-0.7-5-2.2c-1.3-1.4-1.9-3.2-1.9-5.5v-1h12.8v-0.5c0-2.5-0.6-4.3-1.8-5.7C95.8,15.5,94.3,14.8,92.3,14.8z M98.2,22.8H86
		l0.1-0.7c0.2-1.9,0.9-3.6,2.1-4.8c1.1-1.2,2.6-1.9,4.2-1.9c1.7,0,3.1,0.6,4.2,1.9c1,1.2,1.5,2.8,1.6,4.6L98.2,22.8z M87.4,21.6H97
		c-0.1-1.4-0.6-2.6-1.3-3.5c-0.9-1-1.9-1.5-3.2-1.5c-1.3,0-2.5,0.5-3.4,1.5C88.2,19,87.6,20.2,87.4,21.6z"/>
</g>
<g>
	<path d="M111.8,16.3c-0.4-0.1-0.9-0.1-1.4-0.1c-1.2,0-2.3,0.4-3.2,1.1c-0.9,0.7-1.5,1.7-1.8,3v12.4h-2V14.6h2v2.9
		c1.1-2.1,2.8-3.2,5.1-3.2c0.6,0,1,0.1,1.3,0.2V16.3z"/>
	<path d="M106,33.3h-3.2V14h3.2v1.6c1.2-1.3,2.7-1.9,4.5-1.9c0.7,0,1.2,0.1,1.5,0.2l0.4,0.1v3l-0.7-0.2c-0.3-0.1-0.8-0.1-1.3-0.1
		c-1,0-2,0.3-2.8,1c-0.8,0.6-1.3,1.5-1.6,2.6V33.3z M104,32.1h0.8l0-11.9c0-0.2,0.1-0.4,0.1-0.5l-0.2,0.3v-4.7H104V32.1z
		 M110.5,14.9c-2,0-3.5,0.9-4.5,2.7c0.2-0.3,0.5-0.6,0.8-0.8c1-0.8,2.3-1.2,3.6-1.2c0.3,0,0.5,0,0.8,0V15
		C111,14.9,110.8,14.9,110.5,14.9z"/>
</g>
<g>
	<path d="M125.8,32.7c-0.2-0.6-0.3-1.4-0.4-2.5c-0.7,0.9-1.6,1.6-2.7,2.1c-1.1,0.5-2.2,0.7-3.4,0.7c-1.7,0-3.2-0.5-4.2-1.5
		c-1.1-1-1.6-2.2-1.6-3.7c0-1.8,0.7-3.2,2.2-4.2s3.5-1.5,6.1-1.5h3.6V20c0-1.3-0.4-2.3-1.2-3c-0.8-0.7-2-1.1-3.5-1.1
		c-1.4,0-2.6,0.4-3.5,1.1s-1.4,1.6-1.4,2.6h-2c0-1.4,0.7-2.7,2-3.7c1.3-1.1,3-1.6,4.9-1.6c2,0,3.6,0.5,4.8,1.5
		c1.2,1,1.8,2.4,1.8,4.2v8.6c0,1.8,0.2,3.1,0.6,3.9v0.2H125.8z M119.5,31.3c1.3,0,2.5-0.3,3.6-1c1.1-0.6,1.8-1.5,2.3-2.6v-4h-3.6
		c-2,0-3.6,0.4-4.7,1.1s-1.7,1.7-1.7,2.9c0,1,0.4,1.9,1.1,2.5C117.3,30.9,118.3,31.3,119.5,31.3z"/>
	<path d="M119.3,33.6c-1.9,0-3.5-0.6-4.6-1.7c-1.2-1.1-1.8-2.4-1.8-4.1c0-2,0.8-3.6,2.5-4.7c1.6-1.1,3.7-1.6,6.4-1.6h3V20
		c0-1.1-0.3-2-1-2.5c-0.7-0.6-1.8-1-3.1-1c-1.2,0-2.3,0.3-3.1,1c-0.8,0.6-1.2,1.3-1.2,2.1v0.6h-3.2v-0.6c0-1.6,0.8-3.1,2.2-4.2
		c1.3-1.1,3.1-1.7,5.3-1.7c2.1,0,3.9,0.6,5.2,1.6c1.3,1.1,2,2.7,2,4.7v8.6c0,1.7,0.2,2.9,0.5,3.6l0.1,0.1v0.9h-3.1l-0.1-0.4
		c-0.1-0.4-0.2-0.8-0.3-1.3c-0.6,0.5-1.2,0.9-2,1.3C121.8,33.4,120.7,33.6,119.3,33.6z M121.8,22.7c-2.5,0-4.4,0.5-5.8,1.4
		c-1.3,0.9-1.9,2.1-1.9,3.7c0,1.4,0.4,2.4,1.4,3.3c0.9,0.9,2.2,1.3,3.8,1.3c1.2,0,2.2-0.2,3.2-0.6c1-0.5,1.8-1.1,2.5-1.9l0.9-1.2
		l0.1,1.5c0.1,0.8,0.1,1.5,0.3,2h0.8c-0.3-0.9-0.4-2-0.4-3.5V20c0-1.6-0.5-2.9-1.6-3.7c-1.1-0.9-2.6-1.4-4.4-1.4
		c-1.9,0-3.4,0.5-4.5,1.5c-1,0.8-1.6,1.7-1.7,2.6h0.8c0.2-0.9,0.7-1.8,1.6-2.5c1-0.8,2.4-1.2,3.9-1.2c1.6,0,3,0.4,3.9,1.2
		c0.9,0.8,1.4,2,1.4,3.5v2.7H121.8z M119.5,31.9c-1.3,0-2.4-0.4-3.4-1.2c-0.8-0.7-1.3-1.8-1.3-3c0-1.4,0.7-2.6,2-3.4
		c1.2-0.8,3-1.2,5-1.2h4.2v4.7l-0.1,0.1c-0.6,1.3-1.4,2.3-2.6,2.9C122.3,31.5,121,31.9,119.5,31.9z M121.8,24.3
		c-1.8,0-3.3,0.3-4.4,1c-0.9,0.6-1.4,1.4-1.4,2.4c0,0.8,0.3,1.6,0.9,2c0.7,0.6,1.6,1,2.6,1c1.2,0,2.3-0.3,3.3-0.9
		c0.9-0.5,1.5-1.2,2-2.2v-3.3H121.8z"/>
</g>
<g>
	<path d="M143.6,28.1c0-1-0.4-1.8-1.2-2.4s-2-1.1-3.6-1.4s-2.9-0.7-3.8-1.2c-0.9-0.4-1.5-1-2-1.6c-0.4-0.6-0.6-1.4-0.6-2.3
		c0-1.4,0.6-2.6,1.8-3.5s2.7-1.4,4.6-1.4c2,0,3.6,0.5,4.9,1.5c1.2,1,1.8,2.3,1.8,3.9h-2c0-1.1-0.4-1.9-1.3-2.6
		c-0.9-0.7-2-1.1-3.3-1.1s-2.4,0.3-3.2,0.9s-1.2,1.3-1.2,2.3c0,0.9,0.3,1.6,1,2.1s1.9,0.9,3.6,1.4c1.8,0.4,3.1,0.9,4,1.3
		c0.9,0.5,1.5,1,2,1.7c0.4,0.7,0.6,1.5,0.6,2.4c0,1.5-0.6,2.8-1.9,3.7c-1.2,0.9-2.8,1.4-4.8,1.4c-2.1,0-3.8-0.5-5.1-1.5
		s-2-2.3-2-3.9h2c0.1,1.2,0.6,2.1,1.5,2.7s2.1,1,3.6,1c1.4,0,2.5-0.3,3.4-0.9S143.6,29,143.6,28.1z"/>
	<path d="M139,33.8c-2.2,0-4.1-0.5-5.5-1.6c-1.5-1.1-2.2-2.6-2.2-4.4v-0.6h3.2l0,0.5c0.1,1,0.5,1.8,1.2,2.3c0.9,0.6,2,0.9,3.3,0.9
		c1.3,0,2.3-0.3,3.1-0.8c0.8-0.5,0.9-1.5,0.9-2c0-0.8-0.3-1.4-1-1.9c-0.8-0.6-1.9-1-3.4-1.3c-1.7-0.3-3-0.7-4-1.3
		c-1-0.4-1.7-1.1-2.2-1.7c-0.5-0.7-0.7-1.6-0.7-2.7c0-1.6,0.7-3,2-4c1.3-1,3-1.5,5-1.5c2.1,0,3.8,0.5,5.3,1.6c1.4,1.1,2,2.6,2,4.4
		v0.6h-3.2v-0.6c0-0.9-0.3-1.5-1.1-2.1c-0.8-0.6-1.8-1-2.9-1c-1.2,0-2.2,0.3-2.8,0.8c-0.7,0.5-1,1-1,1.8c0,0.7,0.2,1.2,0.7,1.6
		c0.6,0.4,1.7,0.8,3.4,1.3c1.4,0.3,2.8,0.8,4.1,1.3c1,0.6,1.7,1.1,2.2,1.9c0.5,0.8,0.7,1.7,0.7,2.7c0,1.8-0.7,3.2-2.2,4.2
		C142.8,33.3,141.1,33.8,139,33.8z M132.5,28.4c0.1,1.1,0.7,2,1.7,2.8c1.2,0.9,2.8,1.4,4.7,1.4c1.8,0,3.3-0.4,4.4-1.3
		c1.1-0.8,1.7-1.8,1.7-3.2c0-0.8-0.2-1.5-0.5-2.1c-0.4-0.6-0.9-1-1.8-1.5c-1.2-0.5-2.4-0.9-3.8-1.2c-1.9-0.6-3.1-1-3.8-1.5
		c-0.8-0.6-1.3-1.5-1.3-2.6c0-1.2,0.5-2,1.4-2.8c0.9-0.7,2.1-1,3.6-1c1.4,0,2.6,0.4,3.7,1.2c0.9,0.7,1.4,1.5,1.5,2.5h0.8
		c-0.1-1.1-0.6-2.1-1.6-2.8c-1.2-0.9-2.7-1.4-4.5-1.4c-1.7,0-3.1,0.4-4.2,1.3c-1,0.8-1.6,1.8-1.6,3c0,0.8,0.2,1.5,0.5,2
		c0.4,0.5,0.9,1,1.7,1.4c0.9,0.5,2.1,0.9,3.7,1.2c1.6,0.3,2.9,0.8,3.9,1.5c1,0.7,1.4,1.7,1.4,2.9c0,1.3-0.5,2.4-1.5,3
		c-1,0.7-2.2,1-3.7,1c-1.5,0-2.9-0.4-3.9-1.1c-0.9-0.6-1.5-1.5-1.7-2.6H132.5z"/>
</g>
<g>
	<path d="M81.2,25.1c-0.3,2.6-1.2,4.5-2.8,5.9c-1.6,1.4-3.6,2-6.2,2c-1.8,0-3.4-0.5-4.8-1.4s-2.5-2.2-3.2-3.8
		c-0.8-1.7-1.1-3.6-1.2-5.7V19c0-2.2,0.4-4.1,1.1-5.8c0.8-1.7,1.8-3,3.3-3.9c1.5-0.8,3.1-1.3,5-1.3c2.6,0,4.7,0.7,6.2,2.1
		s2.4,3.4,2.6,5.8h-2.1c-0.5-4.1-2.8-6.2-6.7-6.2c-2.2,0-4,0.8-5.3,2.5s-2,3.9-2,6.8v3c0,2.8,0.6,5.1,1.9,6.7c1.3,1.7,3,2.5,5.2,2.5
		s3.8-0.5,4.9-1.5s1.8-2.6,2-4.7h2.1V25.1z"/>
	<path d="M72.2,33.6c-1.9,0-3.6-0.5-5.1-1.5c-1.5-1-2.7-2.4-3.4-4.1c-0.7-1.6-1.1-3.4-1.2-5.9l0-3.1c0-2.2,0.4-4.2,1.1-6
		c0.9-2,2-3.3,3.5-4.2c1.8-0.9,3.5-1.4,5.3-1.4c2.8,0,5,0.8,6.6,2.3c1.6,1.5,2.6,3.6,2.8,6.2l0.1,0.6h-3.3L78.5,16
		c-0.5-3.8-2.5-5.7-6.1-5.7c-2.1,0-3.7,0.8-4.8,2.3c-1.3,1.7-1.9,3.8-1.9,6.4v3c0,2.8,0.6,4.9,1.8,6.3c1.2,1.6,2.7,2.3,4.7,2.3
		c2,0,3.5-0.4,4.5-1.3c1-0.9,1.6-2.4,1.8-4.3l0.1-0.5h3.2l0,0.8c-0.3,2.7-1.3,4.8-3,6.3C77.1,32.9,75,33.6,72.2,33.6z M72.4,8.6
		c-1.6,0-3.1,0.4-4.7,1.2c-1.3,0.8-2.2,1.9-3,3.6c-0.7,1.7-1,3.5-1,5.5v3.1c0.1,2.3,0.5,4,1.1,5.4c0.7,1.5,1.7,2.7,3,3.6
		c1.3,0.9,2.9,1.3,4.5,1.3c2.5,0,4.4-0.6,5.8-1.9c1.4-1.2,2.2-2.8,2.5-4.9h-0.9c-0.3,2-1,3.5-2.1,4.5c-1.2,1.1-3,1.7-5.3,1.7
		c-2.4,0-4.3-0.9-5.7-2.7c-1.3-1.6-2-4-2-7.1v-3c0-3,0.7-5.3,2.1-7.2C68,10,70,9.1,72.4,9.1c4.1,0,6.6,2.1,7.2,6.2h0.9
		c-0.3-2-1.1-3.6-2.3-4.8C76.8,9.3,74.9,8.6,72.4,8.6z"/>
</g>
<g>
	<path d="M92.7,33c-1.5,0-2.9-0.4-4.2-1.1c-1.2-0.8-2.2-1.8-2.9-3.2c-0.7-1.4-1-2.9-1-4.6v-0.7c0-1.7,0.3-3.3,1-4.7
		c0.7-1.4,1.6-2.5,2.8-3.3c1.2-0.8,2.5-1.2,3.9-1.2c2.2,0,3.9,0.8,5.2,2.3c1.3,1.5,1.9,3.5,1.9,6.1v1.1H86.6v0.4
		c0,2.1,0.6,3.8,1.8,5.1c1.2,1.4,2.7,2,4.5,2c1.1,0,2-0.2,2.8-0.6s1.6-1,2.2-1.9l1.3,1C97.7,32,95.5,33,92.7,33z M92.4,16
		c-1.5,0-2.8,0.6-3.8,1.7s-1.7,2.6-1.9,4.5h10.9V22c-0.1-1.7-0.6-3.2-1.5-4.3C95.1,16.5,93.9,16,92.4,16z"/>
	<path d="M92.7,33.6c-1.5,0-3-0.4-4.5-1.2c-1.5-1-2.5-2.1-3.2-3.5c-0.7-1.4-1.1-3-1.1-4.9v-0.7c0-1.9,0.4-3.6,1.1-5
		c0.8-1.5,1.8-2.7,3-3.5c1.3-0.9,2.7-1.3,4.2-1.3c2.3,0,4.2,0.8,5.7,2.5c1.4,1.6,2,3.7,2,6.5v1.7H87.2c0,1.9,0.6,3.3,1.6,4.5
		c1.1,1.2,2.3,1.8,4.1,1.8c1,0,1.8-0.2,2.5-0.5c0.8-0.4,1.5-1,2-1.7l0.4-0.5l2.2,1.7L99.7,30C98.2,32.4,95.8,33.6,92.7,33.6z
		 M92.3,14.8c-1.3,0-2.5,0.4-3.6,1.1c-1.1,0.7-1.9,1.7-2.6,3.1c-0.6,1.2-0.9,2.7-0.9,4.4v0.7c0,1.7,0.3,3.1,0.9,4.3
		c0.6,1.2,1.5,2.1,2.7,3c1.2,0.7,2.5,1,3.9,1c2.5,0,4.4-0.8,5.7-2.6L98,29.5c-0.5,0.6-1.2,1.2-2,1.6c-0.9,0.4-1.9,0.7-3.1,0.7
		c-2.1,0-3.7-0.7-5-2.2c-1.3-1.4-1.9-3.2-1.9-5.5v-1h12.8v-0.5c0-2.5-0.6-4.3-1.8-5.7C95.8,15.5,94.3,14.8,92.3,14.8z M98.2,22.8H86
		l0.1-0.7c0.2-1.9,0.9-3.6,2.1-4.8c1.1-1.2,2.6-1.9,4.2-1.9c1.7,0,3.1,0.6,4.2,1.9c1,1.2,1.5,2.8,1.6,4.6L98.2,22.8z M87.4,21.6H97
		c-0.1-1.4-0.6-2.6-1.3-3.5c-0.9-1-1.9-1.5-3.2-1.5c-1.3,0-2.5,0.5-3.4,1.5C88.2,19,87.6,20.2,87.4,21.6z"/>
</g>
<g>
	<path d="M111.8,16.3c-0.4-0.1-0.9-0.1-1.4-0.1c-1.2,0-2.3,0.4-3.2,1.1c-0.9,0.7-1.5,1.7-1.8,3v12.4h-2V14.6h2v2.9
		c1.1-2.1,2.8-3.2,5.1-3.2c0.6,0,1,0.1,1.3,0.2V16.3z"/>
	<path d="M106,33.3h-3.2V14h3.2v1.6c1.2-1.3,2.7-1.9,4.5-1.9c0.7,0,1.2,0.1,1.5,0.2l0.4,0.1v3l-0.7-0.2c-0.3-0.1-0.8-0.1-1.3-0.1
		c-1,0-2,0.3-2.8,1c-0.8,0.6-1.3,1.5-1.6,2.6V33.3z M104,32.1h0.8l0-11.9c0-0.2,0.1-0.4,0.1-0.5l-0.2,0.3v-4.7H104V32.1z
		 M110.5,14.9c-2,0-3.5,0.9-4.5,2.7c0.2-0.3,0.5-0.6,0.8-0.8c1-0.8,2.3-1.2,3.6-1.2c0.3,0,0.5,0,0.8,0V15
		C111,14.9,110.8,14.9,110.5,14.9z"/>
</g>
<g>
	<path d="M125.8,32.7c-0.2-0.6-0.3-1.4-0.4-2.5c-0.7,0.9-1.6,1.6-2.7,2.1c-1.1,0.5-2.2,0.7-3.4,0.7c-1.7,0-3.2-0.5-4.2-1.5
		c-1.1-1-1.6-2.2-1.6-3.7c0-1.8,0.7-3.2,2.2-4.2s3.5-1.5,6.1-1.5h3.6V20c0-1.3-0.4-2.3-1.2-3c-0.8-0.7-2-1.1-3.5-1.1
		c-1.4,0-2.6,0.4-3.5,1.1s-1.4,1.6-1.4,2.6h-2c0-1.4,0.7-2.7,2-3.7c1.3-1.1,3-1.6,4.9-1.6c2,0,3.6,0.5,4.8,1.5
		c1.2,1,1.8,2.4,1.8,4.2v8.6c0,1.8,0.2,3.1,0.6,3.9v0.2H125.8z M119.5,31.3c1.3,0,2.5-0.3,3.6-1c1.1-0.6,1.8-1.5,2.3-2.6v-4h-3.6
		c-2,0-3.6,0.4-4.7,1.1s-1.7,1.7-1.7,2.9c0,1,0.4,1.9,1.1,2.5C117.3,30.9,118.3,31.3,119.5,31.3z"/>
	<path d="M119.3,33.6c-1.9,0-3.5-0.6-4.6-1.7c-1.2-1.1-1.8-2.4-1.8-4.1c0-2,0.8-3.6,2.5-4.7c1.6-1.1,3.7-1.6,6.4-1.6h3V20
		c0-1.1-0.3-2-1-2.5c-0.7-0.6-1.8-1-3.1-1c-1.2,0-2.3,0.3-3.1,1c-0.8,0.6-1.2,1.3-1.2,2.1v0.6h-3.2v-0.6c0-1.6,0.8-3.1,2.2-4.2
		c1.3-1.1,3.1-1.7,5.3-1.7c2.1,0,3.9,0.6,5.2,1.6c1.3,1.1,2,2.7,2,4.7v8.6c0,1.7,0.2,2.9,0.5,3.6l0.1,0.1v0.9h-3.1l-0.1-0.4
		c-0.1-0.4-0.2-0.8-0.3-1.3c-0.6,0.5-1.2,0.9-2,1.3C121.8,33.4,120.7,33.6,119.3,33.6z M121.8,22.7c-2.5,0-4.4,0.5-5.8,1.4
		c-1.3,0.9-1.9,2.1-1.9,3.7c0,1.4,0.4,2.4,1.4,3.3c0.9,0.9,2.2,1.3,3.8,1.3c1.2,0,2.2-0.2,3.2-0.6c1-0.5,1.8-1.1,2.5-1.9l0.9-1.2
		l0.1,1.5c0.1,0.8,0.1,1.5,0.3,2h0.8c-0.3-0.9-0.4-2-0.4-3.5V20c0-1.6-0.5-2.9-1.6-3.7c-1.1-0.9-2.6-1.4-4.4-1.4
		c-1.9,0-3.4,0.5-4.5,1.5c-1,0.8-1.6,1.7-1.7,2.6h0.8c0.2-0.9,0.7-1.8,1.6-2.5c1-0.8,2.4-1.2,3.9-1.2c1.6,0,3,0.4,3.9,1.2
		c0.9,0.8,1.4,2,1.4,3.5v2.7H121.8z M119.5,31.9c-1.3,0-2.4-0.4-3.4-1.2c-0.8-0.7-1.3-1.8-1.3-3c0-1.4,0.7-2.6,2-3.4
		c1.2-0.8,3-1.2,5-1.2h4.2v4.7l-0.1,0.1c-0.6,1.3-1.4,2.3-2.6,2.9C122.3,31.5,121,31.9,119.5,31.9z M121.8,24.3
		c-1.8,0-3.3,0.3-4.4,1c-0.9,0.6-1.4,1.4-1.4,2.4c0,0.8,0.3,1.6,0.9,2c0.7,0.6,1.6,1,2.6,1c1.2,0,2.3-0.3,3.3-0.9
		c0.9-0.5,1.5-1.2,2-2.2v-3.3H121.8z"/>
</g>
<g>
	<path d="M143.6,28.1c0-1-0.4-1.8-1.2-2.4s-2-1.1-3.6-1.4s-2.9-0.7-3.8-1.2c-0.9-0.4-1.5-1-2-1.6c-0.4-0.6-0.6-1.4-0.6-2.3
		c0-1.4,0.6-2.6,1.8-3.5s2.7-1.4,4.6-1.4c2,0,3.6,0.5,4.9,1.5c1.2,1,1.8,2.3,1.8,3.9h-2c0-1.1-0.4-1.9-1.3-2.6
		c-0.9-0.7-2-1.1-3.3-1.1s-2.4,0.3-3.2,0.9s-1.2,1.3-1.2,2.3c0,0.9,0.3,1.6,1,2.1s1.9,0.9,3.6,1.4c1.8,0.4,3.1,0.9,4,1.3
		c0.9,0.5,1.5,1,2,1.7c0.4,0.7,0.6,1.5,0.6,2.4c0,1.5-0.6,2.8-1.9,3.7c-1.2,0.9-2.8,1.4-4.8,1.4c-2.1,0-3.8-0.5-5.1-1.5
		s-2-2.3-2-3.9h2c0.1,1.2,0.6,2.1,1.5,2.7s2.1,1,3.6,1c1.4,0,2.5-0.3,3.4-0.9S143.6,29,143.6,28.1z"/>
	<path d="M139,33.8c-2.2,0-4.1-0.5-5.5-1.6c-1.5-1.1-2.2-2.6-2.2-4.4v-0.6h3.2l0,0.5c0.1,1,0.5,1.8,1.2,2.3c0.9,0.6,2,0.9,3.3,0.9
		c1.3,0,2.3-0.3,3.1-0.8c0.8-0.5,0.9-1.5,0.9-2c0-0.8-0.3-1.4-1-1.9c-0.8-0.6-1.9-1-3.4-1.3c-1.7-0.3-3-0.7-4-1.3
		c-1-0.4-1.7-1.1-2.2-1.7c-0.5-0.7-0.7-1.6-0.7-2.7c0-1.6,0.7-3,2-4c1.3-1,3-1.5,5-1.5c2.1,0,3.8,0.5,5.3,1.6c1.4,1.1,2,2.6,2,4.4
		v0.6h-3.2v-0.6c0-0.9-0.3-1.5-1.1-2.1c-0.8-0.6-1.8-1-2.9-1c-1.2,0-2.2,0.3-2.8,0.8c-0.7,0.5-1,1-1,1.8c0,0.7,0.2,1.2,0.7,1.6
		c0.6,0.4,1.7,0.8,3.4,1.3c1.4,0.3,2.8,0.8,4.1,1.3c1,0.6,1.7,1.1,2.2,1.9c0.5,0.8,0.7,1.7,0.7,2.7c0,1.8-0.7,3.2-2.2,4.2
		C142.8,33.3,141.1,33.8,139,33.8z M132.5,28.4c0.1,1.1,0.7,2,1.7,2.8c1.2,0.9,2.8,1.4,4.7,1.4c1.8,0,3.3-0.4,4.4-1.3
		c1.1-0.8,1.7-1.8,1.7-3.2c0-0.8-0.2-1.5-0.5-2.1c-0.4-0.6-0.9-1-1.8-1.5c-1.2-0.5-2.4-0.9-3.8-1.2c-1.9-0.6-3.1-1-3.8-1.5
		c-0.8-0.6-1.3-1.5-1.3-2.6c0-1.2,0.5-2,1.4-2.8c0.9-0.7,2.1-1,3.6-1c1.4,0,2.6,0.4,3.7,1.2c0.9,0.7,1.4,1.5,1.5,2.5h0.8
		c-0.1-1.1-0.6-2.1-1.6-2.8c-1.2-0.9-2.7-1.4-4.5-1.4c-1.7,0-3.1,0.4-4.2,1.3c-1,0.8-1.6,1.8-1.6,3c0,0.8,0.2,1.5,0.5,2
		c0.4,0.5,0.9,1,1.7,1.4c0.9,0.5,2.1,0.9,3.7,1.2c1.6,0.3,2.9,0.8,3.9,1.5c1,0.7,1.4,1.7,1.4,2.9c0,1.3-0.5,2.4-1.5,3
		c-1,0.7-2.2,1-3.7,1c-1.5,0-2.9-0.4-3.9-1.1c-0.9-0.6-1.5-1.5-1.7-2.6H132.5z"/>
</g>
<g>
	<polygon points="162.4,33.4 162.3,33.2 161.6,33.2 161.4,32.9 152.1,7.8 154.1,7.8 162.4,30.2 162.4,30.1 170.8,7.8 172.8,7.8 
		163.3,33.2 162.5,33.2 	"/>
</g>
<g>
	<path d="M181.3,33.5c-1.6,0-3-0.4-4.3-1.3c-1.3-0.8-2.3-2-3.1-3.4c-0.7-1.4-1.1-3-1.1-4.8v-0.8c0-1.8,0.3-3.4,1.1-4.8
		c0.8-1.5,1.7-2.7,3-3.5c1.3-0.9,2.6-1.3,4.1-1.3c2.2,0,4,0.8,5.4,2.4c1.4,1.5,2,3.4,2,6v1.5h-13.6V24c0,1.4,0.3,2.6,0.9,3.9
		c0.5,1.1,1.4,2,2.4,2.7c1.1,0.7,2.2,1,3.3,1c1.1,0,2.1-0.2,2.9-0.6c0.8-0.4,1.4-0.9,2.1-1.8l0.3-0.4l1.4,1.1l-0.3,0.4
		C186.3,32.5,184.2,33.5,181.3,33.5z M187.4,22.5V22V22.5z M181,14.7c1.2,0,2.3,0.3,3.3,1c1,0.7,1.8,1.6,2.3,2.7
		c0.5,1.1,0.8,2.4,0.8,3.6c0-2.3-0.6-4.1-1.8-5.4c-1.2-1.4-2.7-2-4.6-2c-1.3,0-2.4,0.4-3.5,1.1C178.5,15,179.7,14.7,181,14.7z
		 M174.9,21.7h11.5c0-1-0.3-2-0.7-2.9c-0.5-1-1.1-1.7-1.9-2.3c-0.8-0.5-1.7-0.8-2.7-0.8c-1.6,0-3,0.6-4.1,1.8
		C175.9,18.6,175.2,20,174.9,21.7z"/>
</g>
<g>
	<path d="M205.6,33.3h-1.9V20.9c0-1.8-0.4-3.2-1.1-4c-0.7-0.8-1.8-1.2-3.3-1.2c-1.4,0-2.6,0.5-3.8,1.6c-1.1,1.1-1.8,2.4-2.1,4v12
		h-1.9V14.1h1.9l0.1,2.9c0.5-0.7,1.1-1.3,1.8-1.9c1.3-0.9,2.6-1.3,4.1-1.3c2.1,0,3.7,0.7,4.7,1.9c1,1.2,1.5,3,1.5,5.3V33.3z
		 M192.5,18.8v1.9c0-0.1,0-0.1,0-0.2L192.5,18.8z"/>
</g>
<g>
	<path d="M215.7,33.5c-1.5,0-2.6-0.5-3.2-1.3c-0.7-0.8-1-2-1-3.8V15.9h-3.3V14h3.3V9.2h1.9v4.9h4.1V16h-4.1v12.4
		c0,1.2,0.2,2,0.5,2.5c0.4,0.7,1.4,0.8,3.1,0.5l0.8-0.1l0.4,1.8l-0.5,0.1C217.2,33.4,216.5,33.5,215.7,33.5z"/>
</g>
<g>
	<path d="M227.6,33.6c-2.1,0-3.7-0.6-4.9-1.9c-1.1-1.3-1.6-3.1-1.6-5.4V14.1h1.9v12.2c0,1.7,0.4,3.1,1.2,4.1
		c0.7,0.9,1.8,1.3,3.3,1.3c1.6,0,2.9-0.4,3.9-1.1c1-0.7,1.6-1.8,1.9-3.3l0-13.2h1.9v19.1h-1.9v-1.8c-0.4,0.5-0.9,0.9-1.5,1.2
		C230.7,33.3,229.3,33.6,227.6,33.6z M234.2,27.9C234.2,27.9,234.2,27.9,234.2,27.9L234.2,27.9z"/>
</g>
<g>
	<path d="M241.9,33.2H240V14.1h1.9v2.3c0.4-0.6,0.9-1,1.4-1.4c1.1-0.8,2.4-1.2,4-1.2c0.6,0,1,0.1,1.4,0.2l0.4,0.1l-0.2,1.6l-1.7-0.1
		c-1.3,0-2.5,0.5-3.5,1.4c-0.9,0.9-1.6,2.3-1.8,3.9L241.9,33.2z"/>
</g>
<g>
	<path d="M258.2,33.5c-1.6,0-3-0.4-4.3-1.3c-1.3-0.8-2.3-2-3.1-3.4c-0.7-1.4-1.1-3-1.1-4.8v-0.8c0-1.8,0.3-3.4,1.1-4.8
		c0.8-1.5,1.7-2.7,3-3.5c1.3-0.8,2.7-1.3,4.1-1.3c2.2,0,4,0.8,5.4,2.4c1.4,1.5,2,3.4,2,6v1.5h-13.6V24c0,1.4,0.3,2.6,0.9,3.9
		c0.6,1.1,1.4,2,2.4,2.7c1.1,0.7,2.2,1,3.3,1c1.1,0,2.1-0.2,2.9-0.6c0.8-0.4,1.4-0.9,2.1-1.8l0.3-0.4L265,30l-0.3,0.4
		C263.1,32.5,261,33.5,258.2,33.5z M264.2,22.5L264.2,22.5l0.1-0.5c0-2.3-0.6-4.1-1.8-5.4c-1.2-1.4-2.7-2-4.6-2
		c-0.8,0-1.6,0.2-2.3,0.5c0.7-0.3,1.5-0.4,2.2-0.4c1.3,0,2.4,0.3,3.3,1c1,0.7,1.7,1.5,2.3,2.7c0.5,1.1,0.8,2.4,0.8,3.6V22.5z
		 M251.7,21.7h11.5c0-1-0.3-2-0.7-2.9c-0.5-1-1.1-1.7-1.9-2.3c-0.7-0.5-1.6-0.8-2.7-0.8c-1.6,0-3,0.6-4.1,1.8
		C252.7,18.6,252,20,251.7,21.7z"/>
</g>
<g>
	<path d="M274.8,33.6c-2.1,0-3.9-0.5-5.2-1.5c-1.4-1-2.1-2.4-2.1-4v-0.5h1.9l0,0.5c0.1,1.2,0.6,2,1.5,2.6c1,0.7,2.3,1,3.9,1
		c1.4,0,2.7-0.3,3.6-1c0.7-0.7,1.2-1.5,1.2-2.4c0-1.9-1.8-3.3-5.2-4c-2.3-0.5-3.9-1.1-4.9-1.9c-1-0.9-1.5-2-1.5-3.5
		c0-1.4,0.6-2.7,1.9-3.7c1.1-0.9,2.7-1.4,4.7-1.4c2,0,3.7,0.5,5,1.5c1.3,1,2,2.4,2,4.2V20h-1.9v-0.5c0-1-0.4-1.9-1.3-2.6
		c-0.9-0.7-2.2-1.1-3.7-1.1c-1.5,0-2.6,0.3-3.5,0.9c-0.8,0.6-1.2,1.4-1.2,2.2c0,0.8,0.2,1.3,0.4,1.6c0.2,0.4,0.7,0.7,1.5,1.2
		c0.8,0.4,2,0.7,3.3,1.1c1.5,0.3,2.7,0.8,3.7,1.2c0.9,0.4,1.6,1.1,2.1,1.9c0.4,0.6,0.7,1.5,0.7,2.5c0,1.6-0.7,2.9-2,3.8
		C278.4,33.1,276.8,33.6,274.8,33.6z M279,25.1c1.1,0.9,1.6,1.9,1.6,3.2c0,1.1-0.5,2.2-1.5,3.1c1-0.7,1.6-1.7,1.6-3
		c0-0.8-0.2-1.5-0.5-2C279.9,25.8,279.5,25.4,279,25.1z M269,18.9c0,0.1,0,0.3,0,0.4C269,19.2,269,19.1,269,18.9z M269,18.9
		C269,18.9,269,18.9,269,18.9C269,18.9,269,18.9,269,18.9z M269,18.9C269,18.9,269,18.9,269,18.9C269,18.9,269,18.9,269,18.9z
		 M269,18.9C269,18.9,269,18.9,269,18.9C269,18.9,269,18.9,269,18.9z M269,18.9C269,18.9,269,18.9,269,18.9
		C269,18.9,269,18.9,269,18.9z M269,18.5c0,0.1,0,0.3,0,0.4C269,18.8,269,18.6,269,18.5z M279,16.1c0.3,0.2,0.5,0.5,0.8,0.7
		C279.6,16.6,279.3,16.3,279,16.1z M274.6,14.8c-1.5,0-2.7,0.3-3.6,0.9C272,15.1,273.1,14.8,274.6,14.8
		C274.6,14.8,274.6,14.8,274.6,14.8z"/>
</g>
<g>
	<polygon points="162.4,33.7 162.3,33.3 161.5,33.3 151.9,7.7 154.2,7.7 154.4,8.1 162.4,29.9 170.7,7.7 173,7.7 163.4,33.3 
		162.5,33.3 	"/>
</g>
<g>
	<path d="M181.3,33.6c-1.6,0-3-0.4-4.3-1.3c-1.3-0.9-2.4-2-3.1-3.4c-0.7-1.4-1.1-3-1.1-4.9v-0.8c0-1.8,0.3-3.4,1.1-4.9
		c0.8-1.5,1.8-2.7,3-3.5c1.3-0.9,2.6-1.3,4.1-1.3c2.2,0,4.1,0.8,5.5,2.4c1.4,1.5,2,3.5,2,6.1v1.6h-13.6V24c0,1.4,0.3,2.6,0.8,3.8
		c0.5,1.1,1.4,2,2.4,2.6c1,0.7,2.2,1,3.3,1c1.1,0,2-0.2,2.9-0.5c0.8-0.3,1.4-0.9,2.1-1.7l0.4-0.5l1.5,1.2l-0.3,0.5
		C186.4,32.6,184.2,33.6,181.3,33.6z M175,21.6h11.3c-0.1-0.9-0.3-1.9-0.7-2.7c-0.4-1-1.1-1.7-1.9-2.3c-0.8-0.5-1.7-0.8-2.7-0.8
		c-1.6,0-3,0.6-4.1,1.8C176,18.6,175.4,20,175,21.6z"/>
</g>
<g>
	<path d="M205.7,33.4h-2.1V20.9c0-1.8-0.4-3.1-1-3.9c-0.7-0.8-1.8-1.2-3.3-1.2c-1.4,0-2.5,0.5-3.7,1.5c-1,1-1.7,2.3-2.1,3.9v12.1
		h-2.1V14h2.1l0.1,2.7c0.5-0.6,1-1.2,1.7-1.7c1.4-0.9,2.7-1.3,4.2-1.3c2.1,0,3.7,0.7,4.8,1.9c1,1.2,1.5,3.1,1.5,5.4V33.4z
		 M192.6,18.9V20c0.1-0.4,0.3-0.7,0.4-1.1L192.6,18.9z"/>
</g>
<g>
	<path d="M215.7,33.6c-1.5,0-2.7-0.5-3.3-1.4c-0.7-0.8-1-2.1-1-3.8V16h-3.3v-2.1h3.3V9.1h2.1V14h4.1v2.1h-4.1v12.3
		c0,1.2,0.2,2,0.5,2.5c0.4,0.6,1.3,0.7,3,0.5l0.9-0.1l0.4,2l-0.6,0.1C217.2,33.5,216.5,33.6,215.7,33.6z"/>
</g>
<g>
	<path d="M227.6,33.7c-2.1,0-3.8-0.6-4.9-1.9c-1.1-1.4-1.7-3.1-1.7-5.5V14h2.1v12.3c0,1.7,0.4,3.1,1.2,4c0.7,0.8,1.8,1.3,3.2,1.3
		c1.6,0,2.9-0.4,3.8-1.1c1-0.7,1.6-1.7,1.9-3.2V14h2.1v19.3h-2.1v-1.7c-0.4,0.4-0.9,0.8-1.4,1.1C230.7,33.4,229.3,33.7,227.6,33.7z
		 M233.7,29.6l0.4,0.1v-1.1C234,29,233.8,29.3,233.7,29.6z"/>
</g>
<g>
	<path d="M242,33.3h-2.1V14h2.1v2.1c0.4-0.5,0.8-0.9,1.3-1.2c1.2-0.8,2.5-1.2,4-1.2c0.6,0,1,0.1,1.4,0.2l0.5,0.1l-0.3,1.8l-1.8-0.1
		c-1.3,0-2.5,0.4-3.4,1.3c-0.9,0.9-1.5,2.2-1.8,3.9L242,33.3z M241.1,18.5v1c0.1-0.3,0.2-0.6,0.3-0.9L241.1,18.5z"/>
</g>
<g>
	<path d="M258.2,33.6c-1.6,0-3-0.4-4.3-1.3c-1.3-0.9-2.4-2-3.1-3.4c-0.7-1.4-1.1-3-1.1-4.9v-0.8c0-1.8,0.3-3.4,1.1-4.9
		c0.8-1.5,1.8-2.7,3-3.5c1.3-0.9,2.7-1.3,4.1-1.3c2.2,0,4.1,0.8,5.5,2.4c1.4,1.5,2,3.5,2,6.1v1.6h-13.6V24c0,1.4,0.3,2.6,0.8,3.8
		c0.5,1.1,1.4,2,2.4,2.6c1,0.7,2.2,1,3.3,1c1.1,0,2-0.2,2.9-0.5c0.8-0.3,1.4-0.9,2.1-1.7l0.4-0.5l1.5,1.3l-0.3,0.5
		C263.2,32.6,261,33.6,258.2,33.6z M251.8,21.6h11.3c-0.1-0.9-0.3-1.9-0.7-2.7c-0.4-1-1.1-1.7-1.9-2.3c-0.7-0.5-1.6-0.8-2.7-0.8
		c-1.6,0-3,0.6-4.1,1.8C252.8,18.6,252.2,20,251.8,21.6z M260.8,15.4c0.1,0.1,0.3,0.2,0.4,0.3c1,0.7,1.8,1.6,2.3,2.7
		c0.2,0.4,0.4,0.9,0.5,1.4c-0.3-1.2-0.8-2.2-1.5-3C262,16.1,261.4,15.7,260.8,15.4z"/>
</g>
<g>
	<path d="M274.8,33.7c-2.1,0-3.9-0.5-5.3-1.5c-1.4-1.1-2.1-2.5-2.1-4.1v-0.6h2.1l0,0.6c0.1,1.2,0.5,2,1.4,2.5c1,0.7,2.3,1,3.9,1
		c1.4,0,2.6-0.3,3.6-1c0.7-0.6,1.1-1.5,1.1-2.3c0-1.9-1.7-3.2-5.1-3.9c-2.3-0.5-3.9-1.1-4.9-1.9c-1-0.9-1.5-2.1-1.5-3.6
		c0-1.5,0.6-2.7,1.9-3.8c1.2-1,2.8-1.4,4.8-1.4c2,0,3.7,0.5,5.1,1.5c1.3,1,2,2.5,2,4.3v0.6h-2.1v-0.6c0-1-0.4-1.8-1.3-2.5
		c-0.9-0.7-2.1-1.1-3.6-1.1c-1.5,0-2.6,0.3-3.5,0.9c-0.7,0.6-1.1,1.3-1.1,2.1c0,0.8,0.2,1.3,0.4,1.5c0.2,0.4,0.7,0.7,1.5,1.1
		c0.8,0.4,1.9,0.7,3.3,1.1c1.5,0.3,2.7,0.8,3.7,1.2c0.9,0.4,1.7,1.1,2.2,1.9c0.4,0.7,0.7,1.6,0.7,2.6c0,1.6-0.7,3-2.1,3.9
		C278.5,33.2,276.9,33.7,274.8,33.7z"/>
</g>
</svg>
