<svg xmlns="http://www.w3.org/2000/svg" width="134" height="32.045" viewBox="0 0 134 32.045">
  <g id="CoFiX_LOGO_white" transform="translate(-60 -150)">
    <g id="组_4" data-name="组 4" transform="translate(60 150)">
      <path id="路径_34" data-name="路径 34" d="M60,150.4,72.124,166l-1.762-5.181Z" transform="translate(-60 -150.186)" fill="#fff"/>
      <path id="路径_35" data-name="路径 35" d="M70.815,160.361,76,162.124,60.4,150Z" transform="translate(-60.186 -150)" fill="#fff"/>
      <path id="路径_36" data-name="路径 36" d="M85.381,171.909,80.2,170.2l1.709,5.181Z" transform="translate(-69.412 -159.412)" fill="#fff"/>
      <path id="路径_37" data-name="路径 37" d="M60.4,199.424,76,187.3l-5.181,1.762Z" transform="translate(-60.186 -167.379)" fill="#fff"/>
      <path id="路径_38" data-name="路径 38" d="M70.361,185.581l1.762-5.181L60,196Z" transform="translate(-60 -164.164)" fill="#fff"/>
      <path id="路径_39" data-name="路径 39" d="M81.909,180.1,80.2,185.281l5.181-1.709Z" transform="translate(-69.412 -164.024)" fill="#fff"/>
      <path id="路径_40" data-name="路径 40" d="M95.581,160.361,90.4,162.124,106,150Z" transform="translate(-74.164 -150)" fill="#fff"/>
      <path id="路径_41" data-name="路径 41" d="M99.062,160.815,97.3,166l12.124-15.6Z" transform="translate(-77.379 -150.186)" fill="#fff"/>
      <path id="路径_42" data-name="路径 42" d="M93.572,175.381l1.709-5.181L90.1,171.909Z" transform="translate(-74.024 -159.412)" fill="#fff"/>
      <path id="路径_43" data-name="路径 43" d="M109.424,196,97.3,180.4l1.762,5.181Z" transform="translate(-77.379 -164.164)" fill="#fff"/>
      <path id="路径_44" data-name="路径 44" d="M95.581,189.062,90.4,187.3,106,199.424Z" transform="translate(-74.164 -167.379)" fill="#fff"/>
      <path id="路径_45" data-name="路径 45" d="M90.1,183.572l5.181,1.709L93.572,180.1Z" transform="translate(-74.024 -164.024)" fill="#fff"/>
    </g>
    <g id="组_5" data-name="组 5" transform="translate(106.945 160.628)">
      <path id="路径_46" data-name="路径 46" d="M147.9,174.814v5.875h18.159v-2.243H150.143v-2.67l3.632-3.632h12.284V169.9H152.814Z" transform="translate(-147.9 -169.9)" fill="#fff"/>
      <path id="路径_47" data-name="路径 47" d="M186.6,174.814v5.821h19.28V169.9H191.514Zm17.09-2.67V178.5h-14.9v-2.724l3.632-3.632Z" transform="translate(-165.931 -169.9)" fill="#fff"/>
      <path id="路径_48" data-name="路径 48" d="M227.2,174.814v5.715h2.243v-4.112h15.916v-2.243H230.992l2.083-2.029h12.284V169.9H232.114Z" transform="translate(-184.848 -169.9)" fill="#fff"/>
      <rect id="矩形_6" data-name="矩形 6" width="2.19" height="10.468" transform="translate(63.021 0.16)" fill="#fff"/>
      <path id="路径_49" data-name="路径 49" d="M274.961,170.1,274,172.129l6.569,3.258L274,178.645l.961,2.029,8.545-4.273-.481-1.015.481-1.015Z" transform="translate(-206.653 -169.993)" fill="#fff"/>
      <path id="路径_50" data-name="路径 50" d="M302.607,172.129l-.961-2.029-8.545,4.273.481,1.015L293.1,176.4l8.545,4.273.961-2.029-6.569-3.258Z" transform="translate(-215.552 -169.993)" fill="#fff"/>
    </g>
  </g>
</svg>
