<?xml version="1.0" encoding="utf-8"?>
<!-- Generator: Adobe Illustrator 23.0.2, SVG Export Plug-In . SVG Version: 6.00 Build 0)  -->
<svg version="1.1" id="图层_1" xmlns="http://www.w3.org/2000/svg" xmlns:xlink="http://www.w3.org/1999/xlink" x="0px" y="0px"
	 viewBox="0 0 157 28" style="enable-background:new 0 0 157 28;" xml:space="preserve">
<style type="text/css">
	.st0{fill:#FFFFFF;}
</style>
<title>coinone_logo_blue</title>
<path class="st0" d="M107.8,5.4c5.026,0,9.1,4.074,9.1,9.1s-4.074,9.1-9.1,9.1c-5.026,0-9.1-4.074-9.1-9.1c0,0,0,0,0,0
	C98.716,9.481,102.781,5.416,107.8,5.4z M60.5,5.4c5.026,0,9.1,4.074,9.1,9.1s-4.074,9.1-9.1,9.1c-5.026,0-9.1-4.074-9.1-9.1
	C51.416,9.481,55.481,5.416,60.5,5.4z M42.5,5.3c2.887-0.089,5.634,1.246,7.35,3.57L50,9.1l-2.2,2.2
	c-1.098-1.819-3.075-2.922-5.2-2.9c-3.242-0.017-5.884,2.597-5.901,5.838c0,0.054,0,0.108,0.001,0.162
	c-0.105,3.207,2.409,5.892,5.616,5.998c0.095,0.003,0.189,0.004,0.284,0.002c2.012-0.02,3.897-0.992,5.08-2.62l0.12-0.18l2.2,2.1
	c-1.718,2.428-4.526,3.851-7.5,3.8c-5.038-0.011-9.134-4.063-9.2-9.1C33.366,9.363,37.462,5.311,42.5,5.3z M147.5,5.4
	c5.009-0.017,9.083,4.031,9.1,9.04c0,0.02,0,0.04,0,0.06c0,0.61-0.08,1.3,0,1.4l0,0l-14.67-0.1v0.1c0.503,2.731,2.924,4.685,5.7,4.6
	c2.138,0.005,4.176-0.905,5.6-2.5l0.07-0.07l2.1,2.1c-2.003,2.255-4.884,3.532-7.9,3.5c-5.003-0.054-9.046-4.097-9.1-9.1
	c0-4.971,4.029-9,8.999-9.001c0.034,0,0.067,0,0.101,0.001L147.5,5.4z M75.7,6v17h-3.2V6H75.7z M88.5,5.4c4.22,0,7.28,2.89,7.4,8.29
	V23h-3.2v-9c0-3.9-1.8-5.6-4.6-5.6s-5,2.19-5.1,5.45v9h-3.2V5.9H83v2.2C84.321,6.403,86.349,5.407,88.5,5.4z M128.3,5.4
	c4.22,0,7.28,2.89,7.4,8.29V23h-3.2v-9c0-3.9-1.8-5.6-4.6-5.6s-5,2.19-5.1,5.45v9h-3.2V5.9h3.2v2.2
	C124.121,6.403,126.149,5.407,128.3,5.4z M107.8,8.4c-3.313,0.055-5.955,2.785-5.9,6.098c0,0.001,0,0.001,0,0.002
	c0,3.258,2.642,5.9,5.9,5.9s5.9-2.642,5.9-5.9c0.056-3.313-2.585-6.044-5.898-6.1C107.801,8.4,107.801,8.4,107.8,8.4z M60.5,8.4
	c-3.313,0.055-5.955,2.785-5.9,6.098c0,0.001,0,0.001,0,0.002c-0.056,3.313,2.585,6.044,5.898,6.1c0.001,0,0.001,0,0.002,0
	c3.293-0.103,5.907-2.806,5.9-6.1c0.056-3.313-2.585-6.044-5.898-6.1C60.501,8.4,60.501,8.4,60.5,8.4z M156.6,15.9L156.6,15.9z
	 M147.5,8.3c-2.783-0.044-5.204,1.895-5.77,4.62v0.18h11.6C152.907,10.241,150.387,8.166,147.5,8.3z M74.1,0.1
	C75.128,0.15,75.95,0.972,76,2c0,1.049-0.851,1.9-1.9,1.9S72.2,3.049,72.2,2S73.051,0.1,74.1,0.1z"/>
<path class="st0" d="M23.32,14c0,0-1.72,2.6-3.09,4.25c-1.7,2-3.5,3.25-6.25,3.25c-4.043,0.023-7.339-3.235-7.362-7.278
	c0-0.074,0-0.148,0.002-0.222c-0.1-4.036,3.091-7.389,7.127-7.488C13.832,6.51,13.916,6.509,14,6.51c2.75,0,4.55,1.21,6.25,3.24
	C21.6,11.4,23.32,14,23.32,14l3.3-4.56C24.102,2.475,16.414-1.129,9.449,1.389S-1.12,11.595,1.398,18.56s10.206,10.569,17.171,8.051
	c3.746-1.355,6.696-4.305,8.051-8.051L23.32,14z"/>
</svg>
