<?xml version="1.0" encoding="utf-8"?>
<!-- Generator: Adobe Illustrator 23.0.2, SVG Export Plug-In . SVG Version: 6.00 Build 0)  -->
<svg version="1.1" id="图层_1" xmlns="http://www.w3.org/2000/svg" xmlns:xlink="http://www.w3.org/1999/xlink" x="0px" y="0px"
	 viewBox="0 0 623.622 170.079" style="enable-background:new 0 0 623.622 170.079;" xml:space="preserve">
<style type="text/css">
	.st0{fill:#C9152A;}
	.st1{fill:#BE1B2B;}
</style>
<g>
	<g id="XMLID_29_">
		<path id="XMLID_26_" class="st0" d="M149.264,142.642H34.059V27.437h115.205V142.642z M36.059,140.642h111.205V29.437H36.059
			V140.642z"/>
		<circle id="XMLID_25_" class="st0" cx="35.06" cy="28.437" r="4.88"/>
		<circle id="XMLID_24_" class="st0" cx="91.662" cy="8.919" r="4.88"/>
		<circle id="XMLID_23_" class="st0" cx="148.265" cy="28.437" r="4.88"/>
		<circle id="XMLID_22_" class="st0" cx="35.06" cy="141.642" r="4.88"/>
		<circle id="XMLID_21_" class="st0" cx="148.265" cy="141.642" r="4.88"/>
		
			<rect id="XMLID_20_" x="33.424" y="17.678" transform="matrix(0.9453 -0.3262 0.3262 0.9453 -2.627 21.6879)" class="st0" width="59.873" height="2"/>
		<circle id="XMLID_19_" class="st0" cx="91.662" cy="161.16" r="4.88"/>
		<circle id="XMLID_18_" class="st0" cx="167.759" cy="84.063" r="4.88"/>
		
			<rect id="XMLID_17_" x="157" y="25.826" transform="matrix(0.9454 -0.326 0.326 0.9454 -9.547 54.5512)" class="st0" width="2" height="59.873"/>
		
			<rect id="XMLID_16_" x="128.063" y="111.365" transform="matrix(0.3262 -0.9453 0.9453 0.3262 0.2449 225.0737)" class="st0" width="59.873" height="2"/>
		<circle id="XMLID_15_" class="st0" cx="15.542" cy="84.063" r="4.88"/>
		
			<rect id="XMLID_14_" x="-4.636" y="54.763" transform="matrix(0.3262 -0.9453 0.9453 0.3262 -35.6646 61.4913)" class="st0" width="59.873" height="2"/>
		
			<rect id="XMLID_13_" x="24.301" y="82.429" transform="matrix(0.9454 -0.326 0.326 0.9454 -35.247 14.3854)" class="st0" width="2" height="59.873"/>
		<g id="XMLID_8_">
			<path id="XMLID_12_" class="st0" d="M101.254,55.558L65.771,91.464l3.246,3.207c1.979,1.955,3.872,2.849,5.679,2.678
				c1.807-0.17,3.756-1.315,5.849-3.433l23.405-23.685c1.911-1.933,2.997-3.816,3.262-5.648c0.263-1.833-0.641-3.772-2.712-5.819
				L101.254,55.558z"/>
			<path id="XMLID_9_" class="st0" d="M91.65,32.201c-29.182,0-52.839,23.657-52.839,52.839s23.657,52.839,52.839,52.839
				s52.839-23.657,52.839-52.839S120.832,32.201,91.65,32.201z M122.111,93.756c-0.802,1.888-1.991,3.63-3.565,5.223l-2.553,2.584
				l-6.589-6.511l2.17-2.196c1.276-1.292,2.016-2.773,2.221-4.444c0.203-1.671-0.318-3.123-1.567-4.357
				c-1.637-1.618-3.225-2.185-4.762-1.706c-1.437,0.448-2.87,1.382-4.3,2.763L88.27,100.186c-0.146,0.147-0.291,0.272-0.436,0.414
				l-8.209,8.307c-1.319,1.335-2.135,2.742-2.447,4.221c-0.312,1.479,0.285,2.962,1.792,4.452c0.43,0.425,0.967,0.808,1.612,1.146
				c0.644,0.338,1.351,0.549,2.123,0.63c0.728,0.039,1.519-0.115,2.373-0.464c0.854-0.347,1.729-0.973,2.622-1.878l2.234-2.261
				l6.589,6.511l-2.809,2.842c-1.404,1.421-3.004,2.501-4.797,3.239c-1.795,0.738-3.655,1.134-5.58,1.189
				c-1.927,0.055-3.812-0.256-5.657-0.93c-1.845-0.674-3.5-1.735-4.963-3.181c-1.25-1.235-2.349-2.662-3.301-4.283
				c-0.952-1.621-1.519-3.372-1.701-5.256c-0.183-1.882,0.062-3.832,0.736-5.848c0.318-0.955,0.801-1.92,1.436-2.896
				c-2.675-0.983-5.31-2.754-7.906-5.319l-9.805-9.689l48.584-49.165l10.427,10.304c4.05,4.002,6.031,8.144,5.943,12.424
				c-0.066,3.18-1.218,6.297-3.445,9.35c1.83,0.76,3.536,1.919,5.118,3.482c3.101,3.064,4.62,6.566,4.558,10.505
				C123.329,89.96,122.913,91.867,122.111,93.756z"/>
		</g>
		<g id="XMLID_5_">
			<polygon id="XMLID_7_" class="st0" points="64.076,56.039 35.766,27.73 34.352,29.144 61.248,56.039 			"/>
			<polygon id="XMLID_6_" class="st0" points="118.65,110.614 118.65,112.039 117.248,112.039 146.427,141.218 91.336,160.214 
				91.988,162.105 150.102,142.066 			"/>
		</g>
		<g id="XMLID_2_">
			<polygon id="XMLID_4_" class="st0" points="120.65,54.637 120.65,57.465 150.102,28.013 91.988,7.973 91.336,9.864 
				146.427,28.861 			"/>
			<polygon id="XMLID_3_" class="st0" points="60.076,118.039 59.65,118.039 59.65,115.637 33.222,142.066 91.336,162.105 
				91.988,160.214 36.897,141.218 			"/>
		</g>
	</g>
	<g id="XMLID_1_">
		<path class="st1" d="M237.077,108.999c0,5.468-1.625,9.757-4.873,12.866c-3.249,3.11-7.627,4.665-13.133,4.665h-28.347V33.525
			h28.347c5.506,0,9.884,1.575,13.133,4.725c3.248,3.149,4.873,7.458,4.873,12.926V108.999z M223.112,106.681V53.255
			c0-5.19-2.714-7.785-8.142-7.785H204.63v69.115h9.984C220.279,114.585,223.112,111.951,223.112,106.681z"/>
		<path class="st1" d="M285.928,119.101c0,4.953-2.556,7.429-7.667,7.429h-23.474c-5.111,0-7.667-2.476-7.667-7.429V73.936
			c0-4.952,2.556-7.429,7.667-7.429h23.474c5.111,0,7.667,2.477,7.667,7.429v22.048l-3.744,3.744h-22.048v16.817h12.777v-9.983
			h13.015V119.101z M272.913,90.873V76.492h-12.777v14.381H272.913z"/>
		<path class="st1" d="M334.599,119.101c0,4.953-2.557,7.429-7.666,7.429h-23.475c-5.111,0-7.667-2.476-7.667-7.429V73.936
			c0-4.952,2.556-7.429,7.667-7.429h23.475c5.109,0,7.666,2.477,7.666,7.429v22.048l-3.744,3.744h-22.048v16.817h12.777v-9.983
			h13.016V119.101z M321.584,90.873V76.492h-12.777v14.381H321.584z"/>
		<path class="st1" d="M384.518,114.467c0,4.873-1.744,8.28-5.229,10.222c-2.536,1.387-6.38,2.079-11.529,2.079
			c-1.188,0-2.863-0.039-5.021-0.118c-2.16-0.08-3.715-0.119-4.665-0.119v21.929h-13.609V66.508h13.609v2.199
			c3.169-0.476,6.338-0.971,9.508-1.486c4.002-0.633,7.171-0.95,9.509-0.95c4.952,0,7.429,2.437,7.429,7.31V114.467z
			 M370.849,110.722V77.858l-12.776,0.238v37.143h8.438C369.403,115.239,370.849,113.733,370.849,110.722z"/>
		<path class="st1" d="M440.619,118.032c0,5.666-2.833,8.498-8.498,8.498H403.12c-5.507,0-8.261-2.832-8.261-8.498v-75.95
			c0-5.705,2.754-8.558,8.261-8.558h29.001c5.665,0,8.498,2.853,8.498,8.558v21.751h-13.847V45.47h-18.007v69.115h18.007V95.033
			h13.847V118.032z"/>
		<path class="st1" d="M490.895,126.53h-13.669V77.858l-12.776,0.238v48.434h-13.609V33.525h13.609v35.182
			c3.169-0.476,6.338-0.971,9.508-1.486c4.002-0.633,7.171-0.95,9.509-0.95c4.952,0,7.429,2.437,7.429,7.31V126.53z"/>
		<path class="st1" d="M539.328,126.53h-13.015v-2.08c-3.09,0.476-6.181,0.951-9.271,1.427c-4.041,0.594-7.112,0.891-9.212,0.891
			c-4.952,0-7.428-2.437-7.428-7.31V97.826c0-4.952,2.555-7.428,7.666-7.428h18.363V76.61h-13.015v8.558h-12.302V73.936
			c0-4.952,2.556-7.429,7.666-7.429h22.999c5.03,0,7.547,2.477,7.547,7.429V126.53z M526.432,115.715V99.609h-13.015v16.58
			L526.432,115.715z"/>
		<path class="st1" d="M562.922,57.89h-13.609V43.865h13.609V57.89z M562.803,126.53h-13.371V66.508h13.371V126.53z"/>
		<path class="st1" d="M612.96,126.53h-13.669V77.858l-12.776,0.238v48.434h-13.609V66.508h13.609v2.199
			c3.169-0.515,6.318-1.011,9.449-1.486c3.882-0.633,7.071-0.95,9.567-0.95c4.952,0,7.429,2.437,7.429,7.31V126.53z"/>
	</g>
</g>
</svg>
