<?xml version="1.0" encoding="utf-8"?>
<!-- Generator: Adobe Illustrator 23.0.2, SVG Export Plug-In . SVG Version: 6.00 Build 0)  -->
<svg version="1.1" id="图层_1" xmlns="http://www.w3.org/2000/svg" xmlns:xlink="http://www.w3.org/1999/xlink" x="0px" y="0px"
	 viewBox="0 0 678.3 484.1" style="enable-background:new 0 0 678.3 484.1;" xml:space="preserve">
<style type="text/css">
	.st0{fill:#00EF00;}
</style>
<path class="st0" d="M643.1,60.3h35.2l0,0v95.2c0,30.8-25,55.8-55.8,55.8h-35.2l0,0v-95.2C587.3,85.3,612.3,60.4,643.1,60.3
	L643.1,60.3z"/>
<g>
	<path d="M109.1,12.9c10,7.2,17.2,15.8,21.4,25.8s6.4,19.4,6.3,28.3v77.7c-0.2,4.4-0.7,8.8-1.6,13.1c-1.3,6.5-3.5,12.7-6.6,18.5
		c-5.2,10.3-13.4,18.8-23.5,24.5c-10.2,5.7-22,8.5-35.6,8.5H2.5V2.1h67.1C85.8,2.1,99,5.7,109.1,12.9z M110,67
		c-0.2-4.9-1-9.7-2.5-14.4c-1.7-5.8-5.4-11.3-11.4-16.6s-14.8-8-26.6-8H29.3v155.4h40.2c11.4,0,20.1-2.5,26.2-7.5
		c6-5,9.9-10.4,11.7-16.2c1.6-4.8,2.5-9.9,2.7-14.9V67z"/>
	<path d="M69.5,211.4H0.4V0h69.2c16.7,0,30.4,3.8,40.8,11.2l0,0c10.3,7.4,17.8,16.4,22.1,26.6c4.3,10.2,6.5,20,6.5,29.1v77.7
		c-0.2,4.6-0.8,9.1-1.7,13.5c-1.3,6.6-3.6,13.1-6.8,19.1c-5.4,10.7-13.8,19.5-24.3,25.3C95.7,208.4,83.4,211.4,69.5,211.4z
		 M4.6,207.2h65c13.2,0,24.8-2.8,34.6-8.3c9.8-5.5,17.6-13.6,22.6-23.6c3-5.7,5.2-11.7,6.5-18c0.9-4.2,1.4-8.5,1.6-12.8l0-77.6
		c0-8.6-2.1-17.8-6.2-27.5c-4.1-9.6-11-17.9-20.7-24.9l0,0C98.2,7.7,85.3,4.2,69.5,4.2h-65V207.2z M69.5,185.5H27.2V25.9h42.3
		c12.3,0,21.7,2.9,28,8.5c6.2,5.6,10.2,11.5,12,17.6c1.5,4.8,2.4,9.8,2.6,14.9l0,0.1v77.7c-0.2,5.4-1.1,10.6-2.8,15.6
		c-1.9,6.1-6,11.9-12.3,17.2C90.6,182.8,81.4,185.5,69.5,185.5z M31.4,181.3h38.1c10.9,0,19.2-2.4,24.8-7.1c5.7-4.7,9.4-9.9,11-15.2
		c1.6-4.7,2.4-9.5,2.6-14.4l0-77.6c-0.2-4.7-1-9.3-2.4-13.8c-1.6-5.4-5.2-10.7-10.8-15.7c-5.5-5-14-7.5-25.2-7.5H31.4V181.3z"/>
</g>
<g>
	<path d="M297.5,162.9c-1.4,4.3-3.1,8.5-5,12.5c-5.2,10.5-13.3,19.2-23.5,25.1c-10.1,5.8-22,8.7-35.6,8.8c-13.4,0-25.2-2.9-35.5-8.8
		c-10.2-5.8-18.4-14.5-23.6-25.1c-3.1-5.9-5.3-12.1-6.5-18.6c-0.9-4.5-1.3-9.1-1.5-13.7v-13.4c0.2-4.6,0.7-9.1,1.7-13.6
		c1.3-6.5,3.4-12.8,6.4-18.8c5.2-10.5,13.4-19.3,23.6-25.1c10.2-5.8,22.1-8.7,35.5-8.7c13.6,0,25.4,2.9,35.6,8.7
		c10.1,5.8,18.3,14.6,23.5,25.1c3.1,5.9,5.3,12.2,6.6,18.8c0.9,4.5,1.5,9,1.6,13.6v13.4H193.2c0.1,2.9,0.5,5.8,1,8.6
		c0.8,4.4,2.4,8.5,4.6,12.4c6.5,12.4,18,18.7,34.6,18.7c16.9,0,28.6-6.4,35.1-19.2l0.3-0.6H297.5z M195.6,116.6h75.9l-3.2-8.2
		c-3-5.9-7.8-10.7-13.6-13.8c-5.7-3-12.8-4.6-21.3-4.6c-16.7,0-28.4,6.3-34.9,19C197.2,111.4,196.2,113.9,195.6,116.6z"/>
	<path d="M233.4,211.4c-13.7,0-26-3-36.5-9c-10.6-6-19.1-15-24.5-26c-3.2-6-5.4-12.5-6.7-19.2c-0.9-4.6-1.4-9.3-1.5-14l0-13.5
		c0.2-4.7,0.8-9.4,1.7-14c1.3-6.7,3.5-13.2,6.5-19.3c5.4-11,13.9-19.9,24.5-26c10.5-6,22.8-9,36.5-9c13.9,0,26.2,3,36.6,9
		c10.6,6.1,19,15.1,24.3,26c3.2,6.1,5.5,12.6,6.8,19.3c0.9,4.6,1.5,9.2,1.7,13.9l0,15.6H195.5c0.2,2,0.4,4.1,0.8,6.1
		c0.8,4.1,2.2,8.1,4.3,11.7c6.2,11.9,16.9,17.6,32.7,17.6c16.2,0,27.1-5.9,33.3-18.1l0.9-1.7h32.9l-0.9,2.8
		c-1.4,4.3-3.1,8.6-5.1,12.8c-5.4,11-13.8,19.9-24.4,26C259.6,208.3,247.3,211.4,233.4,211.4z M233.4,65.6c-13,0-24.5,2.8-34.4,8.5
		c-9.9,5.6-17.8,14-22.8,24.2c-2.9,5.8-4.9,11.9-6.2,18.3c-0.9,4.4-1.5,8.8-1.6,13.2l0,13.3c0.1,4.4,0.6,8.9,1.4,13.3
		c1.2,6.3,3.3,12.4,6.3,18.1c5,10.3,12.9,18.6,22.8,24.2c9.9,5.6,21.4,8.5,34.4,8.5c13.1,0,24.8-2.9,34.5-8.5
		c9.8-5.6,17.6-14,22.6-24.2c1.4-3.1,2.8-6.2,3.9-9.5h-24.4c-6.9,13.1-19.3,19.8-36.7,19.8c-17.3,0-29.6-6.7-36.5-19.8
		c-2.3-4-3.9-8.4-4.8-13c-0.6-2.9-0.9-5.9-1-8.9L191,141h107.7v-11.3c-0.2-4.3-0.7-8.8-1.6-13.1c-1.3-6.4-3.4-12.5-6.5-18.2
		c-5-10.2-12.9-18.6-22.7-24.2C258.2,68.5,246.6,65.6,233.4,65.6z M274.6,118.7h-81.8l0.6-2.6c0.7-2.8,1.8-5.6,3.2-8.1
		c6.8-13.3,19.2-20.1,36.7-20.1c8.8,0,16.3,1.6,22.3,4.8c6.2,3.4,11.2,8.5,14.5,14.8l0.1,0.2L274.6,118.7z M198.4,114.4h69.9l-2-5.2
		c-2.8-5.5-7.2-9.9-12.7-12.9c-5.4-2.9-12.2-4.3-20.3-4.3c-16,0-26.8,5.8-33,17.8C199.6,111.4,198.9,112.9,198.4,114.4z"/>
</g>
<g>
	<path d="M369,28v64.9h94v25.9h-94v90.5h-26.9V2.1h134.4V28H369z"/>
	<path d="M371.1,211.4H340V0h138.6v30.1H371.1v60.7h94v30.1h-94V211.4z M344.2,207.2h22.7v-90.5h94V95h-94V25.9h107.5V4.2H344.2
		V207.2z"/>
</g>
<g>
	<path d="M537.1,2.1V28h-26.6V2.1H537.1z M537.1,63.5L537.1,63.5v119.2c0,14.7-11.9,26.6-26.6,26.6l0,0V90.1
		C510.5,75.4,522.4,63.5,537.1,63.5C537.1,63.5,537.1,63.5,537.1,63.5z"/>
	<path d="M508.4,211.4V90.1c0-15.8,12.9-28.7,28.7-28.7h2.1l0,2.1v119.2c0,15.8-12.9,28.7-28.7,28.7L508.4,211.4z M535,65.7
		c-12.5,1.1-22.3,11.6-22.3,24.4v117c12.5-1.1,22.3-11.6,22.3-24.4V65.7z M539.2,30.1h-30.8V0h30.8V30.1z M512.6,25.9H535V4.3h-22.3
		V25.9z"/>
</g>
<g>
	<path d="M136.5,456v25.8H2.1V275H29v181H136.5z"/>
	<path d="M138.6,483.9H0V273h31.1v181h107.5V483.9z M4.2,479.7h130.2v-21.6H26.9v-181H4.2V479.7z"/>
</g>
<g>
	<path d="M207.2,275v25.8h-26.6V275H207.2z M207.2,335.4L207.2,335.4v119.8c0,14.7-11.9,26.6-26.6,26.6c0,0,0,0,0,0l0,0V362
		C180.7,347.3,192.6,335.5,207.2,335.4L207.2,335.4z"/>
	<path d="M178.5,483.9l0-2.1V362c0-15.8,12.9-28.7,28.7-28.7l2.1,0v121.9c0,15.8-12.9,28.7-28.7,28.7L178.5,483.9z M205.1,337.7
		c-12.5,1.1-22.3,11.6-22.3,24.3v117.6c12.5-1.1,22.3-11.6,22.3-24.4V337.7z M209.4,303h-30.8v-30.1h30.8V303z M182.8,298.8h22.3
		v-21.6h-22.3V298.8z"/>
</g>
<g>
	<path d="M385.2,335.5l-55.5,146.3H301l-55.3-146.3h28.7l41.1,108.3l41.1-108.3H385.2z"/>
	<path d="M331.1,483.9h-31.6l-56.9-150.6h33.2l39.6,104.4L355,333.3h33.2L331.1,483.9z M302.5,479.7h25.7l53.9-142.1H358
		l-42.5,112.2l-42.5-112.2h-24.1L302.5,479.7z"/>
</g>
<g>
	<path d="M532.7,434.8c-1.4,4.3-3.1,8.6-5,12.7c-5.1,10.6-13.3,19.5-23.5,25.4c-10.2,5.9-22,8.9-35.6,8.9c-13.4,0-25.2-3-35.5-8.9
		c-10.2-5.9-18.5-14.8-23.6-25.4c-3.1-5.9-5.3-12.3-6.5-18.9c-0.9-4.6-1.3-9.2-1.5-13.9v-13.6c0.2-4.6,0.7-9.2,1.6-13.7
		c1.3-6.6,3.4-13,6.4-19c5.2-10.6,13.4-19.5,23.6-25.4c10.2-5.9,22.1-8.9,35.5-8.9c13.6,0,25.5,3,35.6,8.9
		c10.2,6,18.4,14.8,23.5,25.4c3.1,6,5.3,12.4,6.6,19c0.9,4.5,1.5,9.1,1.6,13.7v13.6H428.5c0.1,2.9,0.4,5.8,1,8.7
		c0.8,4.4,2.4,8.7,4.6,12.6c6.5,12.6,18,18.9,34.6,18.9c16.9,0,28.7-6.5,35.2-19.5l0.3-0.6H532.7z M430.8,387.8h75.9l-3.2-8.3
		c-3-5.9-7.7-10.8-13.6-14c-5.7-3-12.8-4.5-21.3-4.5c-16.7,0-28.4,6.4-34.9,19.2C432.4,382.6,431.5,385.2,430.8,387.8L430.8,387.8z"
		/>
	<path d="M468.7,483.9c-13.7,0-26-3.1-36.5-9.1c-10.7-6.1-19.1-15.3-24.5-26.3c-3.2-6.1-5.4-12.6-6.7-19.5
		c-0.9-4.7-1.4-9.4-1.5-14.2l0-13.7c0.2-4.8,0.7-9.5,1.7-14.2c1.3-6.7,3.5-13.3,6.5-19.5c5.4-11.1,13.8-20.2,24.5-26.3
		c10.5-6.1,22.8-9.1,36.5-9.1c0,0,0,0,0,0c13.9,0,26.3,3.1,36.7,9.2c10.6,6.2,19,15.3,24.3,26.3c3.2,6.1,5.5,12.7,6.8,19.5
		c0.9,4.6,1.5,9.4,1.7,14.1l0,15.8H430.7c0.2,2.1,0.4,4.1,0.8,6.2c0.8,4.2,2.3,8.2,4.4,11.9c6.2,12,16.9,17.8,32.7,17.8c0,0,0,0,0,0
		c16.2,0,27.1-6,33.2-18.3l0.9-1.8h32.9l-0.9,2.8c-1.4,4.4-3.1,8.8-5.1,12.9c-5.4,11.1-13.8,20.2-24.4,26.4
		C494.9,480.9,482.5,483.9,468.7,483.9z M468.6,336.3c-12.9,0-24.5,2.9-34.3,8.6c-9.9,5.7-17.8,14.2-22.8,24.5
		c-2.9,5.9-4.9,12.1-6.2,18.5c-0.9,4.4-1.4,8.9-1.6,13.4l0,13.5c0.1,4.5,0.6,9,1.4,13.5c1.2,6.4,3.3,12.6,6.3,18.3
		c5,10.4,12.9,18.8,22.8,24.5c9.9,5.7,21.4,8.6,34.4,8.6c13.1,0,24.7-2.9,34.5-8.6c9.8-5.8,17.7-14.2,22.6-24.5
		c1.4-3.1,2.8-6.3,3.9-9.6h-24.3c-6.9,13.3-19.3,20.1-36.8,20.1c0,0,0,0,0,0c-17.3,0-29.6-6.8-36.4-20.1c-2.3-4-3.9-8.5-4.8-13.1
		c-0.6-3-0.9-6-1-9l-0.1-2.2h107.6v-11.5c-0.2-4.4-0.7-8.9-1.6-13.3c-1.3-6.4-3.4-12.6-6.4-18.4c-5-10.3-12.8-18.8-22.7-24.5
		C493.4,339.2,481.8,336.3,468.6,336.3C468.6,336.3,468.6,336.3,468.6,336.3z M428.7,406v-20.3l0.5,0c0.7-2.3,1.6-4.5,2.7-6.5
		c6.8-13.5,19.2-20.3,36.7-20.3c8.8,0,16.3,1.6,22.3,4.8c6.3,3.4,11.3,8.6,14.5,14.9l0.1,0.2l4.4,11.2h-77.4L428.7,406z
		 M433.7,385.7h69.9l-2.1-5.3c-2.8-5.5-7.2-10-12.7-13c-5.3-2.8-12.2-4.3-20.2-4.3c-16,0-26.8,5.9-33,18
		C434.9,382.6,434.2,384.1,433.7,385.7z"/>
</g>
<path class="st0" d="M643.1,333.1h35.2l0,0v95.2c0,30.8-25,55.8-55.8,55.8h-35.2l0,0v-95.2C587.3,358.1,612.3,333.1,643.1,333.1
	L643.1,333.1z"/>
</svg>
