<?xml version="1.0" encoding="utf-8"?>
<!-- Generator: Adobe Illustrator 23.0.2, SVG Export Plug-In . SVG Version: 6.00 Build 0)  -->
<svg version="1.1" id="图层_1" xmlns="http://www.w3.org/2000/svg" xmlns:xlink="http://www.w3.org/1999/xlink" x="0px" y="0px"
	 viewBox="0 0 110.3 26.1" style="enable-background:new 0 0 110.3 26.1;" xml:space="preserve">
<style type="text/css">
	.st0{fill:#FFFFFF;}
</style>
<title>LOGO-FO</title>
<g>
	<g id="图层_1-2">
		<path class="st0" d="M23.6,25.7c-4.4,0.3-8.1-3.1-8.4-7.4s3.1-8.1,7.4-8.4s8.1,3.1,8.4,7.4c0,0.3,0,0.7,0,1
			C30.7,22.3,27.5,25.5,23.6,25.7z M23.6,13.4c-2.4-0.3-4.6,1.5-4.9,3.9s1.5,4.6,3.9,4.9s4.6-1.5,4.9-3.9c0-0.3,0-0.7,0-1
			C27.2,15.3,25.6,13.6,23.6,13.4L23.6,13.4z"/>
		<path class="st0" d="M36,25.8L36,25.8c-1,0-1.8-0.8-1.8-1.8v-6.3c0-3.4,2.2-6.5,5.5-7.5c0.9-0.3,1.9,0.3,2.2,1.2
			c0,0.2,0.1,0.3,0.1,0.5V12c0,0.8-0.5,1.5-1.3,1.7c-1.7,0.6-2.9,2.2-2.9,4V24C37.8,25,37.1,25.8,36,25.8C36,25.8,36,25.8,36,25.8z"
			/>
		<path class="st0" d="M82.7,9.8c-1.4,0.1-2.8,0.6-4,1.4V1.8c0.1-1-0.6-1.8-1.6-1.9s-1.8,0.6-1.9,1.6c0,0.1,0,0.2,0,0.3v15.2l0,0
			c0,0.1,0,0.2,0,0.4c-0.3,4.4,3.1,8.2,7.5,8.5c4.4,0.3,8.2-3.1,8.5-7.5s-3.1-8.2-7.5-8.5C83.3,9.8,83,9.8,82.7,9.8L82.7,9.8z
			 M82.7,22.3c-2.5-0.3-4.3-2.5-4-5s2.5-4.3,5-4c2.1,0.2,3.7,1.9,4,4c0.3,2.5-1.5,4.7-4,5C83.3,22.4,83,22.4,82.7,22.3L82.7,22.3z"
			/>
		<path class="st0" d="M70.1,9.9L70.1,9.9c-1,0-1.7,0.8-1.7,1.7v7.2c-0.1,0.9-0.4,1.7-1,2.3c-1,0.9-2.3,1.3-3.7,1.2
			c-1.2,0.1-2.4-0.3-3.4-1.1c-0.6-0.7-0.9-1.6-0.9-2.6v-7c0-1-0.8-1.8-1.8-1.8S56,10.7,56,11.6v6.8c-0.1,1.9,0.6,3.7,1.8,5.1
			c1.6,1.6,3.7,2.4,5.9,2.2c2.3,0.1,4.5-0.7,6.1-2.2c1.2-1.3,1.9-3,2-4.8v-7.2C71.8,10.7,71.1,9.9,70.1,9.9z"/>
		<path class="st0" d="M57.1,4.2c1.1,0,2-0.9,2-2l0,0c0-1.1-0.9-2-2-2H42.8c-1.1,0-2,0.9-2,2l0,0c0,1.1,0.9,2,2,2h5.3
			c-0.1,0.2-0.1,0.4-0.1,0.6v19c0,1.1,0.9,2,2,2s2-0.9,2-2v-19c0-0.2,0-0.4-0.1-0.6L57.1,4.2z"/>
		<path class="st0" d="M110.3,16.5L110.3,16.5C110.3,16.5,110.3,16.4,110.3,16.5c-0.1-0.5-0.2-1-0.4-1.4c-1.7-4.1-6.4-6-10.5-4.3
			c-4.1,1.7-6,6.4-4.3,10.5c1.7,4.1,6.4,6,10.4,4.3c0.8-0.3,1.5-0.8,2.2-1.3c0.7-0.6,0.8-1.7,0.2-2.5c-0.3-0.3-0.6-0.5-1-0.6l0,0
			c-0.5-0.1-1,0.1-1.4,0.4c-0.4,0.3-0.8,0.6-1.2,0.8c-2.3,1-4.9-0.1-5.9-2.4s0.1-4.9,2.4-5.9c1.9-0.8,4.2-0.2,5.4,1.5l-4.3,1.8
			c-0.8,0.3-1.1,1.2-0.8,2c0,0,0,0,0,0l0,0c0.3,0.8,1.2,1.1,2,0.8c0,0,0,0,0,0l6.9-2.9C110.3,17.1,110.4,16.8,110.3,16.5z"/>
		<path class="st0" d="M2,25.7L2,25.7c-1.1,0-2-0.9-2-2V10.4C0,4.7,4.7,0,10.4,0h1.3c1.1,0,1.9,0.9,1.9,1.9c0,0,0,0,0,0.1l0,0
			c0,1.1-0.9,1.9-1.9,1.9l0,0h-1.3c-3.6,0-6.6,2.9-6.6,6.6v13.3C3.9,24.8,3,25.7,2,25.7z"/>
		<path class="st0" d="M11.8,15.8H2v-3.9h9.8c1.1,0,1.9,0.9,1.9,1.9l0,0l0,0C13.7,14.9,12.9,15.8,11.8,15.8
			C11.8,15.8,11.8,15.8,11.8,15.8z"/>
	</g>
</g>
</svg>
