<?xml version="1.0" encoding="utf-8"?>
<!-- Generator: Adobe Illustrator 23.0.2, SVG Export Plug-In . SVG Version: 6.00 Build 0)  -->
<svg version="1.1" id="图层_1" xmlns="http://www.w3.org/2000/svg" xmlns:xlink="http://www.w3.org/1999/xlink" x="0px" y="0px"
	 viewBox="0 0 110.35 26.14" style="enable-background:new 0 0 110.35 26.14;" xml:space="preserve">
<style type="text/css">
	.st0{fill:#FFFFFF;}
	.st1{fill:url(#SVGID_1_);}
	.st2{fill:url(#SVGID_2_);}
	.st3{fill:url(#SVGID_3_);}
	.st4{fill:url(#SVGID_4_);}
</style>
<title>LOGO-FO</title>
<g>
	<g id="图层_1-2">
		<path class="st0" d="M23.56,25.72c-4.367,0.255-8.114-3.077-8.369-7.444c-0.255-4.367,3.077-8.114,7.444-8.369
			c4.367-0.255,8.114,3.077,8.369,7.444c0.019,0.329,0.018,0.66-0.004,0.989C30.735,22.324,27.546,25.487,23.56,25.72z M23.56,13.42
			c-2.431-0.273-4.623,1.477-4.896,3.909s1.477,4.623,3.909,4.896s4.623-1.477,4.896-3.909c0.036-0.324,0.037-0.652,0.001-0.976
			c-0.228-2.07-1.868-3.702-3.94-3.92L23.56,13.42z"/>
		<path class="st0" d="M36,25.84L36,25.84c-0.996-0.022-1.787-0.844-1.77-1.84v-6.34c0.001-3.433,2.246-6.461,5.53-7.46
			c0.935-0.265,1.908,0.278,2.173,1.213C41.977,11.568,42,11.729,42,11.89V12c-0.01,0.774-0.519,1.454-1.26,1.68
			c-1.739,0.555-2.918,2.174-2.91,4V24c0.017,0.999-0.78,1.823-1.78,1.84C36.034,25.84,36.017,25.84,36,25.84z"/>
		
			<linearGradient id="SVGID_1_" gradientUnits="userSpaceOnUse" x1="50.1544" y1="26.2115" x2="108.7744" y2="4.7715" gradientTransform="matrix(1 0 0 -1 0 28.315)">
			<stop  offset="0" style="stop-color:#5BFFE2"/>
			<stop  offset="1" style="stop-color:#19D8C9"/>
		</linearGradient>
		<path class="st1" d="M82.68,9.82c-1.433,0.099-2.814,0.579-4,1.39V1.75c0.073-0.964-0.649-1.804-1.613-1.877
			s-1.804,0.649-1.877,1.613c-0.007,0.088-0.007,0.176,0,0.264v15.18l0,0c0,0.12,0,0.24,0,0.37c-0.278,4.409,3.071,8.21,7.48,8.488
			c4.41,0.278,8.21-3.071,8.488-7.48c0.278-4.409-3.07-8.21-7.48-8.488c-0.336-0.021-0.672-0.021-1.008,0L82.68,9.82z M82.68,22.32
			c-2.48-0.281-4.264-2.52-3.983-5c0.281-2.48,2.52-4.264,5-3.983c2.093,0.237,3.745,1.889,3.983,3.983
			c0.267,2.493-1.538,4.73-4.031,4.997c-0.312,0.033-0.627,0.034-0.939,0.003H82.68z"/>
		
			<linearGradient id="SVGID_2_" gradientUnits="userSpaceOnUse" x1="46.9661" y1="17.4842" x2="105.5861" y2="-3.9458" gradientTransform="matrix(1 0 0 -1 0 28.315)">
			<stop  offset="0" style="stop-color:#5BFFE2"/>
			<stop  offset="1" style="stop-color:#19D8C9"/>
		</linearGradient>
		<path class="st2" d="M70.11,9.87L70.11,9.87c-0.961,0-1.74,0.779-1.74,1.74v7.21c-0.058,0.853-0.412,1.659-1,2.28
			c-1.02,0.862-2.339,1.286-3.67,1.18c-1.224,0.111-2.439-0.287-3.36-1.1c-0.597-0.717-0.913-1.627-0.89-2.56v-7
			c0-0.966-0.784-1.75-1.75-1.75s-1.75,0.784-1.75,1.75v6.83c-0.079,1.865,0.566,3.689,1.8,5.09c1.568,1.563,3.731,2.378,5.94,2.24
			c2.26,0.131,4.477-0.664,6.14-2.2c1.236-1.279,1.949-2.973,2-4.75v-7.22C71.83,10.657,71.063,9.881,70.11,9.87z"/>
		
			<linearGradient id="SVGID_3_" gradientUnits="userSpaceOnUse" x1="47.0411" y1="17.7106" x2="105.6711" y2="-3.7294" gradientTransform="matrix(1 0 0 -1 0 28.315)">
			<stop  offset="0" style="stop-color:#5BFFE2"/>
			<stop  offset="1" style="stop-color:#19D8C9"/>
		</linearGradient>
		<path class="st3" d="M57.1,4.18c1.105,0,2-0.895,2-2l0,0c0-1.105-0.895-2-2-2H42.84c-1.105,0-2,0.895-2,2l0,0c0,1.105,0.895,2,2,2
			h5.31c-0.061,0.197-0.092,0.403-0.09,0.61v19c0,1.121,0.909,2.03,2.03,2.03c1.121,0,2.03-0.909,2.03-2.03v-19
			c-0.002-0.207-0.036-0.413-0.1-0.61L57.1,4.18z"/>
		
			<linearGradient id="SVGID_4_" gradientUnits="userSpaceOnUse" x1="51.1584" y1="28.9505" x2="109.7784" y2="7.5205" gradientTransform="matrix(1 0 0 -1 0 28.315)">
			<stop  offset="0" style="stop-color:#5BFFE2"/>
			<stop  offset="1" style="stop-color:#19D8C9"/>
		</linearGradient>
		<path class="st4" d="M110.34,16.48L110.34,16.48c0,0,0-0.06,0-0.09c-0.1-0.455-0.241-0.9-0.42-1.33
			c-1.706-4.076-6.392-5.997-10.468-4.292c-4.076,1.706-5.997,6.392-4.292,10.468c1.701,4.065,6.369,5.989,10.44,4.303
			c0.786-0.331,1.515-0.783,2.16-1.34c0.731-0.632,0.811-1.738,0.178-2.468c-0.268-0.309-0.635-0.515-1.038-0.582l0,0
			c-0.504-0.082-1.019,0.06-1.41,0.39c-0.367,0.324-0.787,0.584-1.24,0.77c-2.306,0.957-4.95-0.137-5.907-2.442
			s0.137-4.95,2.442-5.907c1.94-0.805,4.18-0.167,5.405,1.54l-4.28,1.79c-0.768,0.31-1.14,1.184-0.83,1.952
			c0.006,0.016,0.013,0.032,0.02,0.048l0,0c0.31,0.768,1.184,1.14,1.952,0.83c0.016-0.006,0.032-0.013,0.048-0.02l6.88-2.86
			C110.264,17.103,110.414,16.786,110.34,16.48z"/>
		<path class="st0" d="M2,25.74L2,25.74c-1.085,0-1.973-0.865-2-1.95V10.45C0,4.679,4.679,0,10.45,0h1.3
			C12.821,0,13.69,0.868,13.691,1.939c0,0.02,0,0.041-0.001,0.061l0,0c0,1.071-0.869,1.94-1.94,1.94c0,0,0,0,0,0h-1.3
			c-3.623,0-6.56,2.937-6.56,6.56v13.29C3.865,24.834,3.042,25.683,2,25.74z"/>
		<path class="st0" d="M11.75,15.79H2V11.9h9.8c1.071,0,1.94,0.869,1.94,1.94v0l0,0c0.006,1.071-0.858,1.945-1.929,1.951
			C11.79,15.791,11.77,15.791,11.75,15.79z"/>
	</g>
</g>
</svg>
