<?xml version="1.0" encoding="utf-8"?>
<!-- Generator: Adobe Illustrator 23.0.2, SVG Export Plug-In . SVG Version: 6.00 Build 0)  -->
<svg version="1.1" id="图层_1" xmlns="http://www.w3.org/2000/svg" xmlns:xlink="http://www.w3.org/1999/xlink" x="0px" y="0px"
	 viewBox="0 0 128 20.865" style="enable-background:new 0 0 128 20.865;" xml:space="preserve">
<style type="text/css">
	.st0{fill:#0047BB;}
</style>
<g id="hedge_logo_white" transform="translate(-156 -390)">
	<path id="HEDGE" class="st0" d="M156,390h3.812v9.028h10.433c0.665,0,1.204-0.539,1.204-1.204s-0.539-1.204-1.204-1.204V390h3.812
		v20.665h-3.812v-9.029h-10.433c-0.651-0.012-1.188,0.507-1.2,1.158c0,0.014,0,0.028,0,0.042c-0.082,0.687,0.408,1.31,1.094,1.392
		c0.035,0.004,0.07,0.007,0.106,0.008v6.42H156V390z M184.489,390v20.665h16.853l1.2-2.809l-14.245,0.2
		c-0.665,0-1.204-0.539-1.204-1.204c0-0.665,0.539-1.204,1.204-1.204v-3.811h9.028v-2.608H188.3v-3.812
		c-0.665,0-1.204-0.539-1.204-1.204s0.539-1.204,1.204-1.204l13.041,0.2l-1.203-2.809h-15.649V390z M211.574,390v20.665h3.812
		v-2.609c-0.665,0-1.204-0.539-1.204-1.204c0-0.665,0.539-1.204,1.204-1.204l0,0v-10.432c-0.665,0-1.204-0.539-1.204-1.204
		c0-0.665,0.539-1.204,1.204-1.204V390H211.574z M211.574,392.608h9.026c0,0,6.621,0,6.621,7.824s-6.621,7.825-6.621,7.825h-9.026
		v2.608h9.026c0,0,9.028,0,9.028-10.433S220.6,390,220.6,390h-9.026V392.608z M255.712,396.42c0,0-1.2-6.42-9.028-6.42
		c-1.2,0-9.028,0-9.028,10.433c0,10.433,8.226,10.433,9.028,10.433c6.42,0,7.223-3.812,7.223-3.812l0.4,3.812h1.2v-11.637h-7.82
		l-1.2,2.608h6.413c0,0,0,6.219-6.42,6.219c-1.2,0-6.42,0-6.42-7.624s5.216-7.824,6.42-7.824c5.22,0,6.42,3.812,6.42,3.812H255.712z
		 M265.944,390v20.665H282.8l1.2-2.809l-14.245,0.2c-0.665,0-1.204-0.539-1.204-1.204c0-0.665,0.539-1.204,1.204-1.204v-3.811h9.028
		v-2.608h-9.028v-3.812c-0.665,0-1.204-0.539-1.204-1.204s0.539-1.204,1.204-1.204l13.041,0.2l-1.2-2.809h-15.652V390z"/>
</g>
</svg>
