<svg xmlns="http://www.w3.org/2000/svg" width="128" height="20.865" viewBox="0 0 128 20.865">
  <g id="hedge_logo_white" transform="translate(-156 -390)">
    <path id="HEDGE" d="M.1,7.9H3.912v9.028H14.345a1.2,1.2,0,0,0,0-2.408V7.9h3.812V28.565H14.345V19.536H3.912a1.179,1.179,0,0,0-1.2,1.2,1.252,1.252,0,0,0,1.2,1.4v6.42H.1Zm28.489,0V28.565H45.442l1.2-2.809-14.245.2a1.2,1.2,0,1,1,0-2.408V19.737h9.028V17.129H32.4V13.317a1.2,1.2,0,1,1,0-2.408l13.041.2L44.238,8.3H28.589Zm27.085,0V28.565h3.812V25.956a1.2,1.2,0,1,1,0-2.408V13.116a1.2,1.2,0,1,1,0-2.408V7.9Zm0,2.608H64.7s6.621,0,6.621,7.824S64.7,26.157,64.7,26.157H55.674v2.608H64.7s9.028,0,9.028-10.433S64.7,7.9,64.7,7.9H55.674ZM99.812,14.32s-1.2-6.42-9.028-6.42c-1.2,0-9.028,0-9.028,10.433s8.226,10.433,9.028,10.433c6.42,0,7.223-3.812,7.223-3.812l.4,3.812h1.2V17.129H91.787l-1.2,2.608H97s0,6.219-6.42,6.219c-1.2,0-6.42,0-6.42-7.624s5.216-7.824,6.42-7.824C95.8,10.508,97,14.32,97,14.32ZM110.044,7.9V28.565H126.9l1.2-2.809-14.245.2a1.2,1.2,0,0,1,0-2.408V19.737h9.028V17.129h-9.028V13.317a1.2,1.2,0,0,1,0-2.408l13.041.2-1.2-2.809H110.044V7.9Z" transform="translate(155.9 382.1)" fill="#fff"/>
  </g>
</svg>
