<?xml version="1.0" encoding="utf-8"?>
<!-- Generator: Adobe Illustrator 23.0.2, SVG Export Plug-In . SVG Version: 6.00 Build 0)  -->
<svg version="1.1" id="图层_1" xmlns="http://www.w3.org/2000/svg" xmlns:xlink="http://www.w3.org/1999/xlink" x="0px" y="0px"
	 viewBox="0 0 434 58" style="enable-background:new 0 0 434 58;" xml:space="preserve">
<style type="text/css">
	.st0{fill:#FFFFFF;}
</style>
<g>
	<path class="st0" d="M69.904,15.423V31.51H54.038V17.492c0-1.142-0.927-2.069-2.07-2.069h-5.355v38.335
		c0,1.143,0.926,2.07,2.069,2.07h5.356v-17.83h15.866v15.76c0,1.143,0.927,2.07,2.07,2.07h5.355V17.492
		c0-1.142-0.927-2.069-2.07-2.069H69.904z"/>
	<path class="st0" d="M101.049,24.949v19.146c0,1.74-0.888,3.39-2.394,4.26c-4.204,2.429-8.555-0.605-8.555-4.607v-16.73
		c0-1.143-0.926-2.069-2.07-2.069h-5.376h-0.001v19.482c0,6.268,5.129,11.397,11.397,11.397h3.048
		c6.269,0,11.397-5.129,11.397-11.398V27.018c0-1.143-0.926-2.069-2.069-2.069H101.049z"/>
	<path class="st0" d="M183.211,55.827h5.355V28.713c0-1.143-0.926-2.07-2.069-2.07h-5.355v27.114
		C181.142,54.9,182.068,55.827,183.211,55.827"/>
	<path class="st0" d="M184.854,23.705c2.289,0,4.144-1.855,4.144-4.144c0-2.288-1.855-4.144-4.144-4.144s-4.144,1.856-4.144,4.144
		C180.71,21.85,182.565,23.705,184.854,23.705"/>
	<path class="st0" d="M127.927,24.93L127.927,24.93c-7.788,0-14.161,5.571-14.161,13.359v4.213c0,7.788,6.373,13.326,14.161,13.326
		s14.16-5.538,14.16-13.326v-4.213C142.087,30.501,135.715,24.93,127.927,24.93 M134.624,43.007c0,3.684-3.014,6.136-6.697,6.136
		c-3.684,0-6.698-2.452-6.698-6.136v-5.256c0-3.684,3.014-6.136,6.698-6.136c3.683,0,6.697,2.452,6.697,6.136V43.007z"/>
	<path class="st0" d="M161.629,24.93h-0.001c-2.433,0-4.729,0.544-6.735,1.53v-9.002c0-1.143-0.927-2.07-2.07-2.07h-5.355v27.114
		c0,7.788,6.372,13.326,14.16,13.326h0.001c7.788,0,14.16-5.538,14.16-13.326v-4.213C175.789,30.501,169.417,24.93,161.629,24.93
		 M168.326,43.007c0,3.684-3.014,6.136-6.698,6.136c-3.683,0-6.697-2.452-6.697-6.136v-5.256c0-3.684,3.014-6.136,6.697-6.136
		c3.684,0,6.698,2.452,6.698,6.136V43.007z"/>
	<path class="st0" d="M24.211,18.227c0-8.046-3.919-14.965-6.901-17.218c-0.012-0.007-0.228-0.129-0.21,0.193
		c0.001,0.004-0.003,0.006-0.004,0.01C16.849,16.747,8.912,20.957,4.549,26.629C-5.52,39.718,3.844,54.068,13.38,56.721
		c5.335,1.484-1.232-2.626-2.078-11.307C10.279,34.922,24.211,26.913,24.211,18.227"/>
	<path class="st0" d="M28.786,23.516c-0.061-0.042-0.148-0.07-0.208,0.029c-0.164,1.956-2.162,6.138-4.693,9.98
		c-8.588,13.029-3.694,19.31-0.942,22.683c1.597,1.959,0,0,3.993-2.001c0.313-0.157,7.792-4.352,8.602-13.908
		C36.323,31.044,30.765,25.211,28.786,23.516"/>
	<path class="st0" d="M267.157,33.474c-0.534-1.675-1.37-3.132-2.435-4.346c-1.072-1.223-2.417-2.196-4.001-2.893
		c-1.579-0.694-3.43-1.046-5.5-1.046c-2.411,0-4.539,0.418-6.325,1.244c-1.787,0.827-3.292,1.958-4.473,3.362
		c-1.178,1.4-2.061,3.067-2.626,4.955c-0.558,1.86-0.841,3.887-0.841,6.024c0,2.175,0.293,4.205,0.872,6.034
		c0.589,1.861,1.537,3.497,2.815,4.861c1.281,1.369,2.925,2.441,4.888,3.189c1.937,0.741,5.005,1.183,7.672,0.831
		c4.838-0.638,6.958-2.475,8.394-4.413c2.539-3.428,1.814-4.02,1.814-4.02h-5.564c-0.632,0-1.935,2.601-6.047,2.601
		c-2.817,0-3.912-0.439-5.312-1.727c-1.273-1.168-2.002-3.015-2.172-5.499h18.972c0.528,0,0.657-0.342,0.678-0.858
		C268.057,39.631,268.175,36.676,267.157,33.474 M261.016,37.165H248.44c0.306-1.875,0.953-3.371,1.928-4.454
		c1.077-1.2,2.609-1.783,4.686-1.783c1.034,0,1.93,0.186,2.66,0.55c0.739,0.37,1.353,0.863,1.825,1.468
		c0.486,0.622,0.86,1.364,1.113,2.204C260.845,35.792,260.967,36.467,261.016,37.165"/>
	<path class="st0" d="M406.65,33.474c-0.533-1.675-1.369-3.132-2.434-4.346c-1.072-1.223-2.418-2.196-4.001-2.893
		c-1.579-0.694-3.431-1.046-5.5-1.046c-2.411,0-4.539,0.418-6.326,1.244c-1.786,0.827-3.292,1.958-4.473,3.362
		c-1.177,1.4-2.06,3.067-2.626,4.955c-0.557,1.86-0.841,3.887-0.841,6.024c0,2.175,0.293,4.205,0.872,6.034
		c0.589,1.861,1.537,3.497,2.816,4.861c1.281,1.369,2.925,2.441,4.888,3.189c1.937,0.741,5.005,1.183,7.672,0.831
		c4.838-0.638,6.958-2.475,8.393-4.413c2.54-3.428,1.815-4.02,1.815-4.02h-5.564c-0.633,0-1.935,2.601-6.047,2.601
		c-2.817,0-3.913-0.439-5.312-1.727c-1.274-1.168-2.003-3.015-2.173-5.499h18.973c0.528,0,0.656-0.342,0.678-0.858
		C407.551,39.631,407.669,36.676,406.65,33.474 M400.51,37.165h-12.576c0.305-1.875,0.952-3.371,1.928-4.454
		c1.077-1.2,2.609-1.783,4.685-1.783c1.034,0,1.93,0.186,2.661,0.55c0.739,0.37,1.352,0.863,1.824,1.468
		c0.487,0.622,0.861,1.364,1.113,2.204C400.338,35.792,400.46,36.467,400.51,37.165"/>
	<path class="st0" d="M346.513,24.912v19.16c0,1.741-0.889,3.392-2.396,4.262c-4.208,2.432-8.561-0.605-8.561-4.609V26.983
		c0-1.144-0.928-2.071-2.071-2.071h-5.381v19.496c0,6.273,5.133,11.405,11.405,11.405h3.05c6.273,0,11.405-5.132,11.405-11.405
		V26.983c0-1.144-0.927-2.071-2.07-2.071C351.894,24.912,346.513,24.912,346.513,24.912z"/>
	<path class="st0" d="M431.884,41.369c-1.224-1.374-3.422-2.633-6.714-3.846c-3.047-1.193-4.092-1.877-4.442-2.176
		c-0.474-0.409-0.704-0.988-0.704-1.772c0-0.773,0.316-1.335,1.028-1.823c0.802-0.552,1.893-0.831,3.241-0.831
		c2.415,0,4.603,0.612,6.499,1.822l1.022,0.648l0.099-0.007c0.14-0.01,0.473-0.094,0.538-0.684v-5.232
		c0-0.247-0.232-0.846-0.814-1.089c-2.824-1.183-5.473-1.494-7.212-1.478h-0.003c-3.142,0.057-5.836,0.857-8.003,2.377
		c-2.38,1.672-3.587,3.932-3.587,6.72c0,1.937,0.54,3.621,1.604,5.003c1.052,1.371,3.177,2.679,6.505,4
		c2.445,0.9,4.062,1.664,4.806,2.273c0.597,0.491,0.875,1.068,0.875,1.818c0,0.742-0.197,1.281-0.622,1.696
		c-0.717,0.701-2.087,1.026-4.069,0.982c-4.826-0.114-8.385-2.514-8.439-2.551l-0.213-0.085l-0.152,0.087
		c-0.223,0.129-0.253,0.434-0.253,0.687v5.501l0.014,0.089c0.081,0.262,0.259,0.464,0.505,0.581
		c2.295,1.151,5.004,1.734,8.052,1.734c3.54,0,6.483-0.798,8.75-2.372c2.383-1.654,3.593-3.951,3.593-6.823
		C433.788,44.555,433.148,42.789,431.884,41.369"/>
	<path class="st0" d="M322.655,55.812v-4.685c0-1.108-0.897-2.006-2.007-2.002c-1.122,0.003-2.529,0.007-3.719,0.007
		c-3.031,0-4.77-1.516-4.77-5.445V31.844h10.496v-4.678c0-1.105-0.896-2.002-2.002-2.002h-8.494v-7.778
		c0-1.107-0.898-2.003-2.003-2.003h-5.463v29.203c0,7.072,3.704,11.226,11.338,11.226c0.088,0,0.261,0,0.261,0
		S322.655,55.812,322.655,55.812z"/>
	<path class="st0" d="M370.065,25.187c-7.696,0-10.786,5.583-10.786,11.435v17.067c0,1.173,0.951,2.124,2.124,2.124h5.193v-17.89
		c0-2.854,0.745-4.6,2.134-5.494c1.101-0.864,3.25-1.464,7.404,0.129v-4.931C376.134,26.69,374.563,25.187,370.065,25.187"/>
	<path class="st0" d="M287.205,25.491c-2.802,0-5.912,0.671-6.428,2.113v-0.682c0-1.032-0.836-1.868-1.868-1.868h-5.656v28.891
		c0,1.031,0.836,1.868,1.868,1.868h5.602V39.004c0-5.219,3.021-6.977,5.328-6.977c3.241,0,5.878,1.923,5.878,6.757v15.161
		c0,1.031,0.836,1.868,1.868,1.868h5.548V38.454C299.345,30.05,294.84,25.491,287.205,25.491"/>
	<path class="st0" d="M231.591,15.38l-6.024,18.93c-1.526,4.781-2.965,9.344-3.849,12.628c-0.901-3.688-2.367-8.473-3.681-12.766
		l-5.103-16.749c-0.37-1.214-1.489-2.043-2.759-2.043h-6.435l13.287,40.433h9.097l13.715-40.433
		C239.839,15.38,231.591,15.38,231.591,15.38z"/>
</g>
</svg>
