<?xml version="1.0" encoding="utf-8"?>
<!-- Generator: Adobe Illustrator 23.0.2, SVG Export Plug-In . SVG Version: 6.00 Build 0)  -->
<svg version="1.1" id="图层_1" xmlns="http://www.w3.org/2000/svg" xmlns:xlink="http://www.w3.org/1999/xlink" x="0px" y="0px"
	 viewBox="0 0 1139 331" style="enable-background:new 0 0 1139 331;" xml:space="preserve">
<style type="text/css">
	.st0{fill:#FFFFFF;}
</style>
<g>
	<path id="Fill-1" class="st0" d="M422.909,77.711v96.132h-96V89.728c0-6.676-5.333-12.016-12-12.016h-33.333v230.984
		c0,6.676,5.333,12.016,12,12.016h32V212.563h96v94.797c0,6.676,5.333,12.016,12,12.016h32V89.728c0-6.676-5.333-12.016-12-12.016
		L422.909,77.711L422.909,77.711z"/>
	<path id="Fill-3" class="st0" d="M612.243,137.711v116.207c0,10.686-5.333,20.036-14.667,25.379c-25.333,14.693-52-4.007-52-28.05
		V149.732c0-6.679-5.333-12.021-12-12.021h-32v117.543c0,37.4,30.667,69.457,69.333,69.457h17.333
		c37.333,0,69.333-30.721,69.333-69.457V149.732c0-6.679-5.333-12.021-12-12.021H612.243z"/>
	<path id="Fill-5" class="st0" d="M1102.576,319.711h32v-164c0-6.667-5.333-12-12-12h-32v164
		C1090.576,314.378,1095.909,319.711,1102.576,319.711"/>
	<path id="Fill-7" class="st0" d="M1113.076,126.711c13.421,0,25.5-10.737,25.5-25.5c0-13.421-10.737-25.5-25.5-25.5
		c-13.421,0-25.5,10.737-25.5,25.5S1098.313,126.711,1113.076,126.711"/>
	<path id="Fill-9" class="st0" d="M814.49,247.438c0,22.748-18.703,37.468-40.078,37.468s-40.078-14.719-40.078-37.468v-32.115
		c0-22.748,18.703-37.468,40.078-37.468s40.078,14.719,40.078,37.468V247.438z M773.076,137.711c-46.758,0-85.5,33.453-85.5,80.288
		v25.424c0,46.835,38.742,80.288,85.5,80.288s85.5-33.453,85.5-80.288v-25.424C858.576,171.164,821.17,137.711,773.076,137.711z"/>
	<path id="Fill-15" class="st0" d="M1014.818,247.505c0,22.728-18.703,37.435-40.078,37.435s-40.078-14.707-40.078-37.435v-32.087
		c0-22.728,18.703-37.435,40.078-37.435s40.078,14.707,40.078,37.435V247.505z M974.74,137.874c-14.695,0-28.055,2.674-40.078,9.359
		V89.744c0-6.685-5.344-12.033-12.023-12.033h-32.062v165.783c0,46.793,38.742,80.217,85.5,80.217s85.5-33.424,85.5-80.217v-25.402
		C1060.24,171.298,1021.498,137.874,974.74,137.874z"/>
	<g id="Group-19">
		<path id="Fill-17" class="st0" d="M142.243,101.919c0-48.096-22.667-88.176-41.333-101.536c0,0-1.333-1.336-1.333,1.336l0,0
			c0,92.184-46.667,116.232-73.333,149.632c-60,77.488-4,161.656,52,177.688c32,9.352-6.667-16.032-12-66.8
			C60.909,200.783,142.243,154.023,142.243,101.919"/>
	</g>
	<g id="Group-22" transform="translate(112.000000, 133.000000)">
		<path id="Fill-20" class="st0" d="M60.909,0.378C60.909,0.378,60.909-0.956,60.909,0.378c-1.333,10.667-14.667,36-30.667,58.667
			c-54.667,77.333-22.667,113.333-5.333,133.333c10.667,12,0,0,25.333-12c1.333-1.333,49.333-25.333,54.667-82.667
			C108.909,44.378,74.243,9.711,60.909,0.378"/>
	</g>
</g>
</svg>
