<svg width="113" height="35" viewBox="0 0 113 35" fill="none" xmlns="http://www.w3.org/2000/svg">
<path fill-rule="evenodd" clip-rule="evenodd" d="M17.2316 34.4631C26.7483 34.4631 34.4631 26.7483 34.4631 17.2316C34.4631 7.71483 26.7483 0 17.2316 0C7.71483 0 0 7.71483 0 17.2316C0 26.7483 7.71483 34.4631 17.2316 34.4631Z" fill="#1A61F0"/>
<path fill-rule="evenodd" clip-rule="evenodd" d="M22.2866 15.7214C21.8099 15.505 21.2924 15.3931 20.7689 15.3933H15.473C14.4564 15.3933 13.6322 14.5691 13.6322 13.5525V7.20874H9.94941V15.3933C9.95011 17.4269 11.5986 19.0754 13.6322 19.0761H18.9269C19.4152 19.0761 19.8835 19.2701 20.2287 19.6154C20.574 19.9608 20.7678 20.4292 20.7677 20.9175V27.2606H24.4505V19.0761C24.4507 17.6299 23.6041 16.3176 22.2866 15.7214Z" fill="white"/>
<path fill-rule="evenodd" clip-rule="evenodd" d="M10.0759 21.3274V27.5137H13.7587V25.0096C13.7583 22.9759 12.1096 21.3274 10.0759 21.3274H10.0759Z" fill="white"/>
<path fill-rule="evenodd" clip-rule="evenodd" d="M21.4101 7.46167H20.6412V9.96578C20.6416 11.9996 22.2902 13.6482 24.324 13.6486V7.46167H21.4101Z" fill="white"/>
<path fill-rule="evenodd" clip-rule="evenodd" d="M81.2619 8.15291C82.6507 7.08317 84.3684 6.53418 86.3588 6.49358C88.1044 6.4824 89.8264 6.91198 91.3757 7.74514V11.8529C91.3535 12.0506 91.2819 12.1282 91.2053 12.1282L90.5952 11.701C89.3146 10.8117 87.8034 10.3463 86.2617 10.3665C85.3483 10.3665 84.6019 10.5801 84.0464 10.9985C83.5638 11.3221 83.2785 11.8825 83.2932 12.4777C83.2932 13.1026 83.4653 13.5704 83.8197 13.9041C84.1077 14.1724 84.8524 14.6702 86.7661 15.4928C88.8758 16.3454 90.2646 17.2068 91.0587 18.1812C91.8528 19.1557 92.2516 20.3754 92.2516 21.7876C92.2516 23.7647 91.4933 25.3446 89.9988 26.4832C88.5571 27.5812 86.6792 28.1372 84.4179 28.1372C82.4667 28.1372 80.7336 27.7294 79.2681 26.9227C79.1556 26.8657 79.0719 26.7617 79.038 26.6367V22.7073C79.038 22.3331 79.1454 22.4019 79.1454 22.4019C80.8076 23.5381 82.7395 24.1787 84.7297 24.2537C87.6403 24.3296 87.9811 23.0392 87.9811 22.1248C87.9959 21.5609 87.7596 21.0213 87.3404 20.6614C86.8411 20.213 85.7709 19.6535 84.1571 19.0021C82.027 18.0736 80.674 17.1645 80.0128 16.2165C79.3516 15.2686 79.0108 14.1106 79.0108 12.7761C79.0108 10.859 79.7674 9.30385 81.2619 8.15291ZM52.7388 15.1574V6.91018H55.4108C55.6845 6.91018 55.947 7.02294 56.1404 7.2236C56.3338 7.42427 56.4422 7.69637 56.4418 7.97991V27.7188H53.7715C53.2051 27.7189 52.7444 27.2464 52.7388 26.6597V18.5096H44.8267V27.7188H42.1547C41.5886 27.7189 41.1284 27.2461 41.1237 26.6597V6.91018H43.794C44.3643 6.91018 44.8267 7.38912 44.8267 7.97991V15.1574H52.7388ZM96.2817 6.91018H103.229C107.772 6.91018 112.549 10.0664 112.549 16.9191C112.549 23.1292 108.613 27.6871 103.432 27.6871H96.6618C96.5345 27.688 96.4075 27.6986 96.2817 27.7188V6.91018ZM100.247 24.0913H102.909C106.181 24.0913 108.497 21.2122 108.497 17.4946C108.497 12.9067 106.029 10.3577 102.621 10.3577H100.247V24.0913ZM71.5809 7.45917H74.2223C74.7863 7.46014 75.243 7.93405 75.243 8.51831V20.3454C75.243 24.6458 71.8777 28.1319 67.7263 28.1319C63.5749 28.1319 60.2095 24.6458 60.2095 20.3454V7.45917H62.8509C63.4155 7.45917 63.8733 7.93336 63.8733 8.51831V20.3454C63.844 21.7917 64.572 23.1413 65.7764 23.8733C66.9809 24.6054 68.4734 24.6054 69.6778 23.8733C70.8822 23.1413 71.6103 21.7917 71.5809 20.3454V7.45917Z" fill="black"/>
</svg>
