<?xml version="1.0" encoding="utf-8"?>
<!-- Generator: Adobe Illustrator 23.0.2, SVG Export Plug-In . SVG Version: 6.00 Build 0)  -->
<svg version="1.1" id="图层_1" xmlns="http://www.w3.org/2000/svg" xmlns:xlink="http://www.w3.org/1999/xlink" x="0px" y="0px"
	 viewBox="0 0 113 35" style="enable-background:new 0 0 113 35;" xml:space="preserve">
<style type="text/css">
	.st0{fill-rule:evenodd;clip-rule:evenodd;fill:#FFFFFF;}
</style>
<path class="st0" d="M17.232,0.268C7.715,0.268,0,7.983,0,17.5c0,9.517,7.715,17.231,17.232,17.231
	c9.517,0,17.231-7.715,17.231-17.231C34.463,7.983,26.748,0.268,17.232,0.268z M20.641,7.73h0.769h2.914v6.187
	c-2.034,0-3.682-1.649-3.683-3.683V7.73z M13.759,27.782h-3.683v-6.186c2.034,0,3.682,1.648,3.683,3.682V27.782z M24.451,27.529
	h-3.683v-6.343c0-0.488-0.194-0.957-0.539-1.302c-0.345-0.345-0.813-0.539-1.302-0.539h-5.295c-2.034-0.001-3.682-1.649-3.683-3.683
	V7.477h3.683v6.344c0,1.017,0.824,1.841,1.841,1.841h5.296c0.523,0,1.041,0.112,1.518,0.328c1.318,0.596,2.164,1.909,2.164,3.355
	V27.529z"/>
<path class="st0" d="M81.262,8.153c1.389-1.07,3.106-1.619,5.097-1.659c1.746-0.011,3.468,0.418,5.017,1.252v4.108
	c-0.022,0.198-0.094,0.275-0.17,0.275l-0.61-0.427c-1.281-0.889-2.792-1.355-4.333-1.335c-0.913,0-1.66,0.214-2.215,0.632
	c-0.483,0.324-0.768,0.884-0.753,1.479c0,0.625,0.172,1.093,0.527,1.426c0.288,0.268,1.033,0.766,2.946,1.589
	c2.11,0.853,3.499,1.714,4.293,2.688c0.794,0.975,1.193,2.194,1.193,3.606c0,1.977-0.758,3.557-2.253,4.696
	c-1.442,1.098-3.32,1.654-5.581,1.654c-1.951,0-3.684-0.408-5.15-1.214c-0.112-0.057-0.196-0.161-0.23-0.286v-3.929
	c0-0.374,0.107-0.305,0.107-0.305c1.662,1.136,3.594,1.777,5.584,1.852c2.911,0.076,3.251-1.215,3.251-2.129
	c0.015-0.564-0.222-1.104-0.641-1.463c-0.499-0.448-1.57-1.008-3.183-1.659c-2.13-0.928-3.483-1.838-4.144-2.786
	c-0.661-0.948-1.002-2.106-1.002-3.44C79.011,10.859,79.767,9.304,81.262,8.153z M52.739,15.157V6.91h2.672
	c0.274,0,0.536,0.113,0.73,0.313c0.193,0.201,0.302,0.473,0.301,0.756v19.739h-2.67c-0.566,0-1.027-0.472-1.033-1.059v-8.15h-7.912
	v9.209h-2.672c-0.566,0-1.026-0.473-1.031-1.059V6.91h2.67c0.57,0,1.033,0.479,1.033,1.07v7.177H52.739z M96.282,6.91h6.947
	c4.543,0,9.32,3.156,9.32,10.009c0,6.21-3.936,10.768-9.117,10.768h-6.77c-0.127,0.001-0.254,0.012-0.38,0.032V6.91z
	 M100.247,24.091h2.662c3.272,0,5.588-2.879,5.588-6.597c0-4.588-2.468-7.137-5.876-7.137h-2.374V24.091z M71.581,7.459h2.641
	c0.564,0.001,1.021,0.475,1.021,1.059v11.827c0,4.3-3.365,7.787-7.517,7.787s-7.517-3.486-7.517-7.787V7.459h2.641
	c0.565,0,1.022,0.474,1.022,1.059v11.827c-0.029,1.446,0.699,2.796,1.903,3.528c1.205,0.732,2.697,0.732,3.901,0
	c1.204-0.732,1.932-2.082,1.903-3.528V7.459z"/>
</svg>
