<?xml version="1.0" encoding="utf-8"?>
<!-- Generator: Adobe Illustrator 23.0.2, SVG Export Plug-In . SVG Version: 6.00 Build 0)  -->
<svg version="1.1" id="图层_1" xmlns="http://www.w3.org/2000/svg" xmlns:xlink="http://www.w3.org/1999/xlink" x="0px" y="0px"
	 viewBox="0 0 468 166" style="enable-background:new 0 0 468 166;" xml:space="preserve">
<style type="text/css">
	.st0{fill:#FFFFFF;}
</style>
<path class="st0" d="M165.7,0.5v164.8c-1.5,0.4-162.5,0.5-165.2,0.1V0.6C1.9,0.2,163.2,0.1,165.7,0.5 M148.9,149.1
	c0.4-3.2,0.3-130.7-0.1-132H17.1c-0.1,0.3-0.2,0.5-0.2,0.7c0,43.4,0,86.8,0,130.2c0,0.3,0.1,0.5,0.1,0.8c0,0.1,0.1,0.1,0.1,0.2
	c0,0,0.1,0.1,0.2,0.2L148.9,149.1L148.9,149.1L148.9,149.1z"/>
<path class="st0" d="M280.8,53.4c0.5-0.7,0.8-1.2,1.2-1.8c4.1-6.7,8.2-13.5,12.2-20.3c0.7-1.1,1.4-1.6,2.7-1.5c3.3,0.1,6.6,0,10.2,0
	c-0.5,0.9-0.8,1.5-1.2,2.1c-6.1,10.2-12.3,20.4-18.5,30.6c-0.7,1.2-1.1,2.3-1.1,3.7c0.1,4.9,0,9.8,0,14.7c0,0.6-0.1,1.3-0.1,2H274
	v-2.2c0-5.1,0-10.2,0-15.3c0-0.9-0.2-1.9-0.7-2.6c-5.5-9.3-11.1-18.5-16.7-27.7c-0.2-0.4-0.5-0.7-0.9-1.3
	c-6.1,6.6-12.2,13.1-18.4,19.7c7.7,9.7,15.4,19.4,23.2,29.3c-0.7,0.1-1.2,0.2-1.7,0.2c-3.6,0-7.3,0-10.9,0c-1.2,0-1.9-0.4-2.7-1.3
	c-4.7-5.9-9.5-11.7-14.3-17.6c-0.5-0.6-1-1.2-1.7-2c-0.7,0.7-1.2,1.2-1.8,1.8c-1.4,1.4-2.7,2.9-4.2,4.3c-1,0.9-1.3,1.9-1.2,3.2
	c0.1,3.1,0,6.2,0,9.3v2.1h-12.1V30.1c1.3-0.4,8.7-0.5,12.1-0.2c0,2.7,0,5.4,0,8v8V54l0.4,0.2c0.5-0.5,1-0.9,1.4-1.4
	c6.8-7.2,13.6-14.3,20.4-21.5c1-1.1,2-1.6,3.6-1.6c5.6,0.1,11.1,0.1,16.7,0c1.5,0,2.2,0.5,3,1.7c4,6.7,8,13.4,12.1,20.1
	C279.9,52,280.3,52.6,280.8,53.4"/>
<path class="st0" d="M419.7,56.4c0,13.4-9,24.3-22.3,26.9c-5.6,1.1-11.2,0.9-16.7-0.8c-12-3.7-19.5-14-19.4-26.5
	c0.2-13.7,9.7-24.7,23.3-26.8c5.8-0.9,11.5-0.6,17,1.4C412.9,34.8,419.8,44.6,419.7,56.4 M407.2,56.5c0.2-11.3-9.1-19.1-20.6-16.8
	c-6.9,1.4-11.8,6.8-12.7,14.3c-1.6,13.2,8.9,22.2,21.6,18.8C402.8,70.9,407.2,64.5,407.2,56.5"/>
<path class="st0" d="M310.3,82.9v-53c0.6-0.1,1.2-0.1,1.8-0.1c7.1,0,14.2,0,21.3,0c4,0,7.9,0.5,11.7,2.1c7.7,3.2,11.9,9.9,11.5,18.2
	c-0.4,7-3.6,12.2-9.9,15.4c-0.2,0.1-0.5,0.3-0.7,0.4c-0.1,0-0.1,0.1-0.2,0.3c3.8,5.5,7.7,11,11.7,16.7c-0.7,0.1-1.2,0.1-1.6,0.1
	c-3.3,0-6.6,0-9.9,0c-1.1,0-1.8-0.3-2.4-1.3c-2.8-4.1-5.6-8-8.4-12.1c-0.8-1.1-1.6-1.5-2.9-1.5c-2.4,0.1-4.9,0-7.4,0h-2.2v14.7
	L310.3,82.9L310.3,82.9z M322.7,58.2c0.3,0.1,0.6,0.2,0.8,0.2c3.7,0,7.4,0.1,11.1-0.1c1.6-0.1,3.3-0.6,4.8-1.2c2.4-1,4-2.9,4.4-5.5
	c1-5.6-1-10-7-11.4c-0.5-0.1-1-0.2-1.6-0.2c-4-0.1-7.9-0.1-11.9-0.2c-0.2,0-0.5,0.2-0.7,0.2v18.2C322.6,58.2,322.7,58.2,322.7,58.2z
	"/>
<path class="st0" d="M465.4,33.4c-1.3,3.2-2.5,6.2-3.7,9.1c-3-1.1-5.7-2.2-8.6-3c-3.7-1.1-7.5-1.2-11.2-0.3
	c-1.2,0.3-2.4,0.9-3.4,1.6c-2.7,2.1-2.6,5.9,0.4,7.6c1.7,1,3.8,1.6,5.7,2.2c3.2,0.9,6.4,1.5,9.6,2.4c2,0.6,3.9,1.3,5.7,2.2
	c10,4.8,9,16.7,3.9,22c-2.7,2.8-6,4.6-9.7,5.5c-9.4,2.2-18.5,1.2-27.3-2.9c-1.2-0.5-2.3-1.3-3.6-2.1c1.4-3.1,2.8-6.1,4.2-9.3
	c0.6,0.4,1.1,0.7,1.6,1c5.3,3.1,11.1,4.7,17.2,4.5c1.6-0.1,3.1-0.4,4.7-0.8c0.9-0.2,1.7-0.7,2.5-1.2c2.6-1.9,2.6-5.4-0.1-7.2
	c-1.2-0.8-2.6-1.4-3.9-1.8c-3-0.9-6.2-1.5-9.2-2.4c-2.6-0.8-5.2-1.6-7.7-2.6c-11.1-4.9-9.9-18.5-3-24.1c2.9-2.3,6.1-3.7,9.7-4.4
	c7.7-1.5,15.2-0.9,22.4,2.1C462.9,32.1,464,32.8,465.4,33.4"/>
<path class="st0" d="M274.3,108.1c1.6-0.6,2.3,0.2,3.1,1.2c6.9,8.8,13.8,17.6,20.7,26.4c0.5,0.6,1,1.2,1.8,1.6V108h2.5v34.4
	c-1.4,0.6-2.2,0.1-3-1c-6.9-8.9-13.9-17.7-20.9-26.6c-0.5-0.6-1-1.2-1.8-1.7v29.4h-2.4L274.3,108.1L274.3,108.1z"/>
<path class="st0" d="M378.5,107.9c2.8,0,5.4-0.1,8.1,0c3,0.1,6.1,0,9.1,0.5c5.1,0.9,8.5,4.4,9.1,9c0.9,6.4-1.9,10.8-7,12.7
	c-0.2,0.1-0.4,0.2-0.9,0.4c2.8,3.9,5.6,7.8,8.4,11.7c-1.8,0.6-2.8,0.2-3.8-1.3c-2-3-4.2-5.9-6.4-8.9c-0.4-0.6-0.8-1.1-1.7-1.1
	c-3.7,0.1-7.4,0.2-11.1,0.2c-0.4,0-0.8,0-1.3,0.1v11h-2.4L378.5,107.9L378.5,107.9z M381,110v19c4.2,0,8.2,0.1,12.2-0.1
	c1.5-0.1,3-0.6,4.4-1.2c2.1-0.9,3.5-2.6,4.2-4.8c2-6.1-1.2-11.7-7.6-12.5C389.9,110,385.5,110.1,381,110"/>
<path class="st0" d="M242.1,108H265v2.1h-20.4c-0.2,4.7-0.1,9.1-0.1,13.8h18.3c0.1,0.8,0.1,1.4,0.2,2.3h-18.1
	c-0.4,1.6-0.6,11.1-0.2,14.3h21.2v2.1h-23.8L242.1,108L242.1,108z"/>
<path class="st0" d="M415.7,140.4h21.2c0,0.8,0.1,1.4,0.1,2.2h-23.8v-34.5h23c0,0.6,0.1,1.2,0.1,1.8c-0.5,0.1-0.8,0.2-1.2,0.2
	c-5.2,0-10.5,0-15.7,0c-1.2,0-2.4,0-3.7,0v13.8H434c0.1,0.8,0.1,1.4,0.2,2.2h-18.5V140.4L415.7,140.4z"/>
<path class="st0" d="M339.7,108h2.4c0,0.7,0.1,1.4,0.1,2.1c0,5.6,0,11.1,0,16.7c0,1.8,0.1,3.6,0.5,5.3c1.1,5.1,4.1,7.9,9.3,8.3
	c1.8,0.1,3.7,0,5.5-0.4c3.4-0.8,5.7-3,6.7-6.4c0.5-2,0.8-4,0.8-6.1c0.1-5.8,0-11.5,0-17.3V108h2.4c0,0.6,0.1,1.1,0.1,1.6
	c0,6.1,0.1,12.2,0,18.3c0,2.1-0.3,4.3-0.9,6.3c-1.5,4.8-4.9,7.5-9.8,8.4c-2.3,0.4-4.5,0.3-6.7-0.1c-5.4-1-9.1-4.9-10-10.7
	c-0.2-1.5-0.3-3-0.4-4.5c0-5.8,0-11.5,0-17.3V108z"/>
<path class="st0" d="M465.6,110.9c-0.4,0.7-0.6,1.2-0.8,1.6c-2.4-0.8-4.5-1.7-6.8-2.2c-2.8-0.6-5.7-0.5-8.4,0.7
	c-2.6,1.1-4.2,2.9-4.3,5.9c-0.1,2.2,0.8,3.9,2.7,4.9c1.4,0.8,2.9,1.3,4.4,1.8c2.1,0.6,4.2,1,6.3,1.7c1.5,0.4,2.9,1,4.2,1.7
	c5.6,2.9,5,10,1.5,12.9c-1.1,0.9-2.4,1.7-3.8,2.1c-5.7,1.8-11.2,1.2-16.4-1.8c-0.8-0.5-1.6-1.2-2.4-1.8c0.4-0.6,0.7-1.1,1-1.7
	c0.4,0.3,0.8,0.5,1.2,0.8c4.6,3.3,9.7,4.1,15.1,2.8c1.2-0.3,2.4-0.9,3.3-1.7c3.1-2.5,2.8-7.2-0.6-9.3c-1.4-0.9-3.1-1.4-4.8-1.9
	c-2-0.6-4.1-1-6.1-1.6c-1.3-0.4-2.5-0.8-3.7-1.4c-6.2-2.9-5.6-11.2-0.8-14.2c2.5-1.6,5.3-2.1,8.1-2.2c3.4-0.1,6.6,0.6,9.6,2.2
	C464.6,110.2,465,110.5,465.6,110.9"/>
<path class="st0" d="M203.8,108h2.7c4.6,10.3,9.2,20.6,14,31.4c4.8-10.7,9.4-21.1,14-31.4h2.6c-5.2,11.6-10.3,23.1-15.4,34.6h-2.6
	C214.1,131.1,209,119.6,203.8,108"/>
<path class="st0" d="M322.9,142.6h-2.4v-32.4H308c0-0.8-0.1-1.4-0.1-2.1h27.4v2.1h-12.4V142.6z"/>
<path class="st0" d="M118.2,36.5c3.9,3.9,7.7,7.7,11.6,11.6c-11.5,11.5-23.2,23.2-35,35c11.8,11.8,23.4,23.4,35,35
	c-0.7,1.3-9.1,9.9-11.3,11.6c-15.7-15.6-31.3-31.2-46.7-46.6C87.2,67.8,102.7,52.1,118.2,36.5"/>
</svg>
