<?xml version="1.0" encoding="utf-8"?>
<!-- Generator: Adobe Illustrator 23.0.2, SVG Export Plug-In . SVG Version: 6.00 Build 0)  -->
<svg version="1.1" id="图层_1" xmlns="http://www.w3.org/2000/svg" xmlns:xlink="http://www.w3.org/1999/xlink" x="0px" y="0px"
	 viewBox="0 0 602 130" style="enable-background:new 0 0 602 130;" xml:space="preserve">
<style type="text/css">
	.st0{fill:#FFFFFF;}
</style>
<title>LD-logo新</title>
<g>
	<path class="st0" d="M74.6,81.4c-0.2,0-0.6,0.2-0.6,0.4c-0.3,0.4-0.4,0.8-0.5,1.2c-0.7,3.1-1.9,6.2-3.4,9c-1.3,2.6-2.9,5-4.9,7.2
		c-2.4,2.6-5.5,4.5-8.9,5.5c-1.9,0.6-3.9,1-5.9,1c-7.7,0.1-15.5,0-23.2,0c-0.3,0-0.6-0.1-1-0.1V24.9c0-0.3,0.2-0.6,0.5-0.6h0.1h12.9
		v-1.7H0.6v1.7H14v81.5H0.7v1.6h74.5V82.1C75.3,81.8,75,81.5,74.6,81.4C74.6,81.5,74.6,81.5,74.6,81.4z"/>
	<rect x="90.3" y="0.6" class="st0" width="2.8" height="128.7"/>
	<path class="st0" d="M160.4,55.3c-0.3-1-0.5-2-0.7-3c-1.3-4.6-3.4-9-6.2-12.9c-1.7-2.3-3.6-4.4-5.8-6.2c-2-1.6-4.1-3.1-6.4-4.4
		c-2.5-1.4-5.2-2.6-7.9-3.5c-2.3-0.9-4.7-1.5-7.2-1.9c-1.9-0.3-3.9-0.6-5.7-0.7c-1.3-0.1-2.6-0.2-3.9-0.2c-2.1-0.1-4.3-0.2-6.4-0.2
		c-1.3,0-2.7,0.1-3.9,0.2s-2.3,0.1-3.5,0.2c0.2,1.5,0.2,1.6,1.6,1.6c1.6,0,3.2-0.2,4.8-0.2c3.7-0.1,7.4,0.1,11.1,0.6
		c1.7,0.4,3.4,0.6,5.1,1.1c2.1,0.6,4.1,1.5,6.1,2.5c2.3,1.2,4.4,2.8,6.2,4.6c2.7,2.7,4.8,6,6.2,9.5c1.5,3.9,2.5,8,3,12.1
		c0,0.4,0.1,1.5,0.1,1.5c0.5,5.5,0.6,11.1,0.2,16.6c0,0-0.1,0.6-0.1,0.8c-0.3,2.2-0.6,4.4-1,6.6c-0.6,2.8-1.4,5.4-2.6,8
		c-0.8,1.7-1.7,3.4-2.6,5.1c-3.2,6-8.8,10.2-15.4,11.8c-2.8,0.6-5.7,1-8.6,1.2c-2.8,0.2-5.6,0.1-8.4,0.1h-4.8
		c-0.5,1.1-0.4,1.3,0.8,1.4c0.8,0.1,1.6,0.2,2.4,0.2c5.2,0.1,10.4,0.2,15.6-0.2c2.5-0.2,4.9-0.6,7.3-1.1c3.1-0.7,6.2-1.9,9-3.4
		c2.3-1.2,4.5-2.6,6.7-4.1c3.1-2.2,5.9-4.9,8.2-8c1.9-2.6,3.6-5.4,4.9-8.4c1.2-2.9,2-5.9,2.6-8.9c0.1-0.3,0.1-0.6,0.1-0.9
		c0.6-5.6,0.5-11.2-0.4-16.7C160.7,56,160.5,55.7,160.4,55.3z"/>
	<g>
		<path class="st0" d="M224.4,98.4c-15.2,0-27.6-12.4-27.6-27.6s12.4-27.6,27.6-27.6c7.2,0,14.2,2.8,19.3,7.9l4.2-4.3
			c-13.3-13-34.5-12.8-47.5,0.5s-12.8,34.5,0.5,47.5c13.1,12.9,34.2,12.8,47.2-0.2l-4.2-4.2C238.7,95.6,231.7,98.4,224.4,98.4z"/>
		<rect x="403.7" y="38.1" class="st0" width="6" height="64.6"/>
		<polygon class="st0" points="425.1,43.5 448.3,43.5 448.3,102.7 454.3,102.7 454.3,43.5 477.5,43.5 477.5,37.5 425.1,37.5 		"/>
		<polygon class="st0" points="564.6,96.8 564.6,37.8 558.6,37.8 558.6,102.8 601.4,102.8 601.4,96.8 		"/>
		<path class="st0" d="M361.8,37.5h-27.3v65.2h6V82.3h21.3c12.4,0,22.4-10,22.4-22.4S374.1,37.6,361.8,37.5z M361.8,76.3h-21.3V43.5
			h21.3c9.1,0,16.4,7.3,16.4,16.4S370.8,76.3,361.8,76.3L361.8,76.3z"/>
		<path class="st0" d="M284.5,38l-29,65h6.6l7.8-17.5h36.2l8,17.5h6.6L291,38H284.5z M272.6,79.5l15.1-34.1l15.6,34.1H272.6z"/>
		<path class="st0" d="M507.2,37.8l-29,65h6.6l7.8-17.5h36.2l8,17.5h6.6l-29.7-65L507.2,37.8z M495.3,79.4l15.2-34.1l15.6,34.1
			H495.3z"/>
	</g>
</g>
</svg>
