<?xml version="1.0" encoding="utf-8"?>
<!-- Generator: Adobe Illustrator 23.0.2, SVG Export Plug-In . SVG Version: 6.00 Build 0)  -->
<svg version="1.1" id="图层_1" xmlns="http://www.w3.org/2000/svg" xmlns:xlink="http://www.w3.org/1999/xlink" x="0px" y="0px"
	 viewBox="0 0 602 850" style="enable-background:new 0 0 602 850;" xml:space="preserve">
<style type="text/css">
	.st0{fill-rule:evenodd;clip-rule:evenodd;fill:#FFFFFF;}
	.st1{fill:#FFFFFF;}
</style>
<title>MB--Logo--CombV-Circle--Blue</title>
<g>
	<path class="st0" d="M301,0C135.315,0,1,134.315,1,300s134.315,300,300,300s300-134.315,300-300S466.685,0,301,0z M481,330H181
		v0.001l-12.907,0C181.754,390.677,235.97,436,300.773,436c53.574,0,99.913-30.978,122.082-75.998L481,360.001V444
		c0,19.882-16.118,36-36,36H157c-19.882,0-36-16.118-36-36V230h360V330z M388.327,360.002c-19.092,27.913-51.184,46.23-87.554,46.23
		c-36.37,0-68.462-18.317-87.554-46.23H388.327z M481,200H121v-44c0-19.882,16.118-36,36-36h288c19.882,0,36,16.118,36,36V200z"/>
	<path class="st0" d="M378,284c11.568,0,21.372,7.555,24.746,18.001l30.687,0c-3.882-27.138-27.221-48-55.433-48
		c-28.212,0-51.551,20.862-55.433,48l30.687,0C356.628,291.555,366.432,284,378,284z"/>
	<path class="st0" d="M224,284c11.568,0,21.372,7.555,24.746,18.001l30.687,0c-3.882-27.138-27.221-48-55.433-48
		c-28.212,0-51.551,20.862-55.433,48l30.687,0C202.628,291.555,212.432,284,224,284z"/>
</g>
<path id="形状结合" class="st1" d="M397.857,728c24.482,0,52.291,9.513,53.955,39.953h-34.227
	c-0.713-8.799-8.794-12.842-19.49-12.842c-9.983,0-14.499,3.805-14.499,8.324c0,3.805,2.852,7.372,11.884,9.037l21.63,3.567
	c21.63,4.043,35.891,14.507,35.891,34.959C453,837.634,428.994,850,399.045,850c-30.186,0-54.668-12.604-57.045-43.283l34.227,0.238
	c1.664,9.988,9.983,14.507,22.105,14.507c10.221,0,16.4-3.092,16.4-8.086c0-3.805-3.565-6.897-11.171-8.086l-23.293-4.043
	c-19.966-3.329-33.752-14.507-33.752-34.721C346.516,742.269,367.195,728,397.857,728z M254.103,729
	c12.558,0,22.983,3.32,31.513,8.775v-6.166H324v115.02h-38.384v-6.403c-8.53,5.455-18.955,8.775-31.513,8.775
	C223.063,849,197,823.15,197,789C197,754.613,223.063,729,254.103,729z M29.632,685L87,770.946L144.131,685H174v161h-40.063v-80.737
	l-35.796,55.166v0.237H75.858v-0.237l-36.033-55.64L40.063,846H0V685H29.632z M512.4,678v96.304l40.059-43.065h45.748
	l-43.615,46.851L602,846h-45.985l-27.496-39.752L512.4,823.521V846H474V678H512.4z M261.685,760.304
	c-15.638,0-27.011,12.806-27.011,28.696s11.373,28.458,27.011,28.458c8.53,0,16.823-2.372,23.931-10.672v-35.573
	C278.507,762.913,270.215,760.304,261.685,760.304z"/>
</svg>
