<?xml version="1.0" encoding="utf-8"?>
<!-- Generator: Adobe Illustrator 23.0.2, SVG Export Plug-In . SVG Version: 6.00 Build 0)  -->
<svg version="1.1" id="图层_1" xmlns="http://www.w3.org/2000/svg" xmlns:xlink="http://www.w3.org/1999/xlink" x="0px" y="0px"
	 viewBox="0 0 250 56" style="enable-background:new 0 0 250 56;" xml:space="preserve">
<style type="text/css">
	.st0{fill:#FFFFFF;}
	.st1{fill-rule:evenodd;clip-rule:evenodd;fill:#FFFFFF;}
</style>
<path class="st0" d="M192.672,38.811v1.322h-12.064V16.395h1.33v22.417L192.672,38.811L192.672,38.811z"/>
<path class="st0" d="M192.672,38.811v1.322h-12.064V16.395h1.33v22.417L192.672,38.811L192.672,38.811z"/>
<path class="st0" d="M208.714,32.231h-10.008l-2.842,7.903h-1.361l8.678-23.739h1.149l8.708,23.739h-1.482L208.714,32.231z
	 M208.23,30.878l-4.505-12.577l-4.535,12.577H208.23z"/>
<path class="st0" d="M208.714,32.231h-10.008l-2.842,7.903h-1.361l8.678-23.739h1.149l8.708,23.739h-1.482L208.714,32.231z
	 M208.23,30.878l-4.505-12.577l-4.535,12.577H208.23z"/>
<path class="st0" d="M230.613,33.615c0,1.312-0.272,2.46-0.816,3.444c-0.544,0.984-1.32,1.743-2.328,2.276
	c-0.988,0.533-2.127,0.799-3.417,0.799H216.1V16.395h7.529c1.149,0,2.177,0.256,3.084,0.769c0.907,0.492,1.612,1.189,2.116,2.091
	c0.504,0.882,0.756,1.906,0.756,3.075c0,1.312-0.322,2.419-0.967,3.321c-0.645,0.902-1.532,1.538-2.661,1.906
	c1.411,0.348,2.54,1.056,3.386,2.122C230.19,30.724,230.613,32.036,230.613,33.615z M217.43,17.717v9.256h6.289
	c1.412,0,2.52-0.42,3.326-1.261c0.807-0.84,1.21-1.958,1.21-3.352c0-1.456-0.423-2.593-1.27-3.413
	c-0.826-0.82-1.915-1.23-3.266-1.23C223.719,17.717,217.43,17.717,217.43,17.717z M229.283,33.584c0-1.62-0.464-2.901-1.391-3.844
	c-0.927-0.964-2.197-1.445-3.81-1.445h-6.652v10.517h6.652c1.613,0,2.883-0.472,3.81-1.415S229.283,35.183,229.283,33.584z"/>
<path class="st0" d="M230.613,33.615c0,1.312-0.272,2.46-0.816,3.444c-0.544,0.984-1.32,1.743-2.328,2.276
	c-0.988,0.533-2.127,0.799-3.417,0.799H216.1V16.395h7.529c1.149,0,2.177,0.256,3.084,0.769c0.907,0.492,1.612,1.189,2.116,2.091
	c0.504,0.882,0.756,1.906,0.756,3.075c0,1.312-0.322,2.419-0.967,3.321c-0.645,0.902-1.532,1.538-2.661,1.906
	c1.411,0.348,2.54,1.056,3.386,2.122C230.19,30.724,230.613,32.036,230.613,33.615z M217.43,17.717v9.256h6.289
	c1.412,0,2.52-0.42,3.326-1.261c0.807-0.84,1.21-1.958,1.21-3.352c0-1.456-0.423-2.593-1.27-3.413
	c-0.826-0.82-1.915-1.23-3.266-1.23C223.719,17.717,217.43,17.717,217.43,17.717z M229.283,33.584c0-1.62-0.464-2.901-1.391-3.844
	c-0.927-0.964-2.197-1.445-3.81-1.445h-6.652v10.517h6.652c1.613,0,2.883-0.472,3.81-1.415S229.283,35.183,229.283,33.584z"/>
<path class="st0" d="M234.372,22.053c0-1.845,0.594-3.301,1.784-4.367c1.209-1.086,2.852-1.63,4.928-1.63
	c1.573,0,2.943,0.379,4.112,1.138c1.17,0.758,1.976,1.794,2.419,3.106l-1.239,0.553c-0.726-2.316-2.49-3.475-5.292-3.475
	c-1.753,0-3.084,0.4-3.991,1.199c-0.887,0.779-1.33,1.927-1.33,3.444c0,0.902,0.171,1.65,0.514,2.245
	c0.342,0.594,0.907,1.097,1.693,1.507s1.885,0.8,3.296,1.169c1.693,0.451,3.033,0.974,4.021,1.568
	c1.008,0.594,1.734,1.312,2.177,2.153c0.464,0.84,0.696,1.876,0.696,3.106c0,1.333-0.303,2.501-0.908,3.506
	c-0.584,1.005-1.431,1.784-2.539,2.337c-1.089,0.553-2.349,0.83-3.78,0.83c-1.774,0-3.306-0.431-4.596-1.292
	c-1.27-0.84-2.187-2.05-2.751-3.629l1.209-0.584c0.464,1.373,1.21,2.419,2.238,3.136c1.048,0.718,2.348,1.076,3.9,1.076
	c1.814,0,3.245-0.482,4.294-1.445c1.068-0.964,1.602-2.275,1.602-3.936c0-1.004-0.191-1.835-0.574-2.491
	c-0.363-0.677-0.968-1.25-1.814-1.722c-0.847-0.472-2.016-0.892-3.508-1.261c-2.338-0.595-4.021-1.374-5.049-2.337
	C234.876,24.974,234.372,23.672,234.372,22.053z"/>
<path class="st0" d="M234.372,22.053c0-1.845,0.594-3.301,1.784-4.367c1.209-1.086,2.852-1.63,4.928-1.63
	c1.573,0,2.943,0.379,4.112,1.138c1.17,0.758,1.976,1.794,2.419,3.106l-1.239,0.553c-0.726-2.316-2.49-3.475-5.292-3.475
	c-1.753,0-3.084,0.4-3.991,1.199c-0.887,0.779-1.33,1.927-1.33,3.444c0,0.902,0.171,1.65,0.514,2.245
	c0.342,0.594,0.907,1.097,1.693,1.507s1.885,0.8,3.296,1.169c1.693,0.451,3.033,0.974,4.021,1.568
	c1.008,0.594,1.734,1.312,2.177,2.153c0.464,0.84,0.696,1.876,0.696,3.106c0,1.333-0.303,2.501-0.908,3.506
	c-0.584,1.005-1.431,1.784-2.539,2.337c-1.089,0.553-2.349,0.83-3.78,0.83c-1.774,0-3.306-0.431-4.596-1.292
	c-1.27-0.84-2.187-2.05-2.751-3.629l1.209-0.584c0.464,1.373,1.21,2.419,2.238,3.136c1.048,0.718,2.348,1.076,3.9,1.076
	c1.814,0,3.245-0.482,4.294-1.445c1.068-0.964,1.602-2.275,1.602-3.936c0-1.004-0.191-1.835-0.574-2.491
	c-0.363-0.677-0.968-1.25-1.814-1.722c-0.847-0.472-2.016-0.892-3.508-1.261c-2.338-0.595-4.021-1.374-5.049-2.337
	C234.876,24.974,234.372,23.672,234.372,22.053z"/>
<path class="st0" d="M111.831,15.872v25.092h-3.538L95.956,22.268v18.696h-3.598V15.872h4.233l11.641,17.712V15.872H111.831z"/>
<path class="st0" d="M111.831,15.872v25.092h-3.538L95.956,22.268v18.696h-3.598V15.872h4.233l11.641,17.712V15.872H111.831z"/>
<path class="st0" d="M120.473,19.316v6.765h10.099v3.444h-10.099v8.026h10.794v3.413h-14.755V15.872h14.755v3.444H120.473z"/>
<path class="st0" d="M120.473,19.316v6.765h10.099v3.444h-10.099v8.026h10.794v3.413h-14.755V15.872h14.755v3.444H120.473z"/>
<path class="st0" d="M135.345,22.545c0-1.394,0.322-2.624,0.967-3.69c0.666-1.066,1.623-1.896,2.873-2.491
	c1.25-0.594,2.711-0.892,4.384-0.892c2.096,0,3.84,0.441,5.231,1.322c1.391,0.882,2.348,2.142,2.872,3.782l-3.205,1.538
	c-0.383-1.045-0.957-1.835-1.723-2.368s-1.794-0.8-3.084-0.8c-1.431,0-2.51,0.297-3.235,0.892c-0.726,0.595-1.089,1.445-1.089,2.552
	c0,0.718,0.151,1.312,0.454,1.784c0.322,0.451,0.836,0.84,1.542,1.168c0.705,0.308,1.683,0.584,2.933,0.83
	c2.781,0.533,4.787,1.414,6.017,2.644c1.229,1.23,1.844,2.921,1.844,5.074c0,1.435-0.373,2.727-1.119,3.875
	c-0.725,1.127-1.753,2.009-3.084,2.645c-1.33,0.635-2.842,0.953-4.535,0.953c-2.318,0-4.254-0.492-5.806-1.476
	s-2.6-2.388-3.144-4.213l3.235-1.537c0.383,1.23,1.058,2.163,2.026,2.798c0.967,0.636,2.187,0.953,3.658,0.953
	c1.532,0,2.712-0.338,3.538-1.015c0.827-0.676,1.24-1.64,1.24-2.89c0-1.148-0.413-2.05-1.24-2.706
	c-0.806-0.677-2.217-1.22-4.233-1.63c-2.52-0.492-4.374-1.312-5.563-2.46C135.929,26.019,135.345,24.472,135.345,22.545z"/>
<path class="st0" d="M135.345,22.545c0-1.394,0.322-2.624,0.967-3.69c0.666-1.066,1.623-1.896,2.873-2.491
	c1.25-0.594,2.711-0.892,4.384-0.892c2.096,0,3.84,0.441,5.231,1.322c1.391,0.882,2.348,2.142,2.872,3.782l-3.205,1.538
	c-0.383-1.045-0.957-1.835-1.723-2.368s-1.794-0.8-3.084-0.8c-1.431,0-2.51,0.297-3.235,0.892c-0.726,0.595-1.089,1.445-1.089,2.552
	c0,0.718,0.151,1.312,0.454,1.784c0.322,0.451,0.836,0.84,1.542,1.168c0.705,0.308,1.683,0.584,2.933,0.83
	c2.781,0.533,4.787,1.414,6.017,2.644c1.229,1.23,1.844,2.921,1.844,5.074c0,1.435-0.373,2.727-1.119,3.875
	c-0.725,1.127-1.753,2.009-3.084,2.645c-1.33,0.635-2.842,0.953-4.535,0.953c-2.318,0-4.254-0.492-5.806-1.476
	s-2.6-2.388-3.144-4.213l3.235-1.537c0.383,1.23,1.058,2.163,2.026,2.798c0.967,0.636,2.187,0.953,3.658,0.953
	c1.532,0,2.712-0.338,3.538-1.015c0.827-0.676,1.24-1.64,1.24-2.89c0-1.148-0.413-2.05-1.24-2.706
	c-0.806-0.677-2.217-1.22-4.233-1.63c-2.52-0.492-4.374-1.312-5.563-2.46C135.929,26.019,135.345,24.472,135.345,22.545z"/>
<path class="st0" d="M171.719,19.316h-6.531v21.648h-3.991V19.316h-6.562v-3.444h17.084V19.316z"/>
<path class="st0" d="M171.719,19.316h-6.531v21.648h-3.991V19.316h-6.562v-3.444h17.084V19.316z"/>
<g>
	<path class="st0" d="M42.626,34.134c0.276-0.478,0.888-0.642,1.366-0.366l1.732,1c0.478,0.276,0.642,0.888,0.366,1.366l-1,1.732
		c-0.276,0.478-0.888,0.642-1.366,0.366l-1.732-1c-0.478-0.276-0.642-0.888-0.366-1.366L42.626,34.134z"/>
	<path class="st0" d="M42.626,34.134c0.276-0.478,0.888-0.642,1.366-0.366l1.732,1c0.478,0.276,0.642,0.888,0.366,1.366l-1,1.732
		c-0.276,0.478-0.888,0.642-1.366,0.366l-1.732-1c-0.478-0.276-0.642-0.888-0.366-1.366L42.626,34.134z"/>
	<path class="st0" d="M36.697,28.402c0.276-0.478,0.888-0.642,1.366-0.366l1.732,1c0.478,0.276,0.642,0.888,0.366,1.366l-3,5.196
		c-0.276,0.478-0.888,0.642-1.366,0.366l-1.732-1c-0.478-0.276-0.642-0.888-0.366-1.366L36.697,28.402z"/>
	<path class="st0" d="M36.697,28.402c0.276-0.478,0.888-0.642,1.366-0.366l1.732,1c0.478,0.276,0.642,0.888,0.366,1.366l-3,5.196
		c-0.276,0.478-0.888,0.642-1.366,0.366l-1.732-1c-0.478-0.276-0.642-0.888-0.366-1.366L36.697,28.402z"/>
	<path class="st0" d="M30.77,22.67c0.276-0.478,0.888-0.642,1.366-0.366l1.732,1c0.478,0.276,0.642,0.888,0.366,1.366l-5,8.66
		c-0.276,0.478-0.888,0.642-1.366,0.366l-1.732-1c-0.478-0.276-0.642-0.888-0.366-1.366L30.77,22.67z"/>
	<path class="st0" d="M30.77,22.67c0.276-0.478,0.888-0.642,1.366-0.366l1.732,1c0.478,0.276,0.642,0.888,0.366,1.366l-5,8.66
		c-0.276,0.478-0.888,0.642-1.366,0.366l-1.732-1c-0.478-0.276-0.642-0.888-0.366-1.366L30.77,22.67z"/>
	<path class="st0" d="M22.841,20.402c0.276-0.478,0.888-0.642,1.366-0.366l1.732,1c0.478,0.276,0.642,0.888,0.366,1.366l-3,5.196
		c-0.276,0.478-0.888,0.642-1.366,0.366l-1.732-1c-0.478-0.276-0.642-0.888-0.366-1.366L22.841,20.402z"/>
	<path class="st0" d="M22.841,20.402c0.276-0.478,0.888-0.642,1.366-0.366l1.732,1c0.478,0.276,0.642,0.888,0.366,1.366l-3,5.196
		c-0.276,0.478-0.888,0.642-1.366,0.366l-1.732-1c-0.478-0.276-0.642-0.888-0.366-1.366L22.841,20.402z"/>
	<path class="st0" d="M14.912,18.134c0.276-0.478,0.888-0.642,1.366-0.366l1.732,1c0.478,0.276,0.642,0.888,0.366,1.366l-1,1.732
		c-0.276,0.478-0.888,0.642-1.366,0.366l-1.732-1c-0.478-0.276-0.642-0.888-0.366-1.366L14.912,18.134z"/>
	<path class="st0" d="M14.912,18.134c0.276-0.478,0.888-0.642,1.366-0.366l1.732,1c0.478,0.276,0.642,0.888,0.366,1.366l-1,1.732
		c-0.276,0.478-0.888,0.642-1.366,0.366l-1.732-1c-0.478-0.276-0.642-0.888-0.366-1.366L14.912,18.134z"/>
	<path class="st1" d="M44.475,55.478c-1.225,0.696-2.726,0.696-3.951,0L20.263,43.966c-0.96-0.546-1.296-1.767-0.751-2.727
		l1.976-3.478c0.546-0.96,1.767-1.297,2.727-0.751l16.31,9.267c1.225,0.696,2.726,0.696,3.951,0l5.499-3.123
		C51.227,42.444,52,41.116,52,39.676L51.975,10c0-1.105,0.895-2,2-2h4c1.105,0,2,0.895,2,2L60,44.333
		c0,1.439-0.773,2.768-2.025,3.478L44.475,55.478z"/>
	<path class="st1" d="M44.475,55.478c-1.225,0.696-2.726,0.696-3.951,0L20.263,43.966c-0.96-0.546-1.296-1.767-0.751-2.727
		l1.976-3.478c0.546-0.96,1.767-1.297,2.727-0.751l16.31,9.267c1.225,0.696,2.726,0.696,3.951,0l5.499-3.123
		C51.227,42.444,52,41.116,52,39.676L51.975,10c0-1.105,0.895-2,2-2h4c1.105,0,2,0.895,2,2L60,44.333
		c0,1.439-0.773,2.768-2.025,3.478L44.475,55.478z"/>
	<path class="st1" d="M15.525,0.522c1.225-0.696,2.726-0.696,3.951,0l20.261,11.512c0.96,0.546,1.297,1.767,0.751,2.727
		l-1.976,3.478c-0.546,0.96-1.767,1.297-2.727,0.751l-16.31-9.267c-1.225-0.696-2.726-0.696-3.951,0l-5.499,3.123
		C8.773,13.556,8,14.884,8,16.324V46c0,1.105-0.895,2-2,2H2c-1.105,0-2-0.896-2-2V11.667c0-1.439,0.773-2.768,2.025-3.478
		L15.525,0.522z"/>
	<path class="st1" d="M15.525,0.522c1.225-0.696,2.726-0.696,3.951,0l20.261,11.512c0.96,0.546,1.297,1.767,0.751,2.727
		l-1.976,3.478c-0.546,0.96-1.767,1.297-2.727,0.751l-16.31-9.267c-1.225-0.696-2.726-0.696-3.951,0l-5.499,3.123
		C8.773,13.556,8,14.884,8,16.324V46c0,1.105-0.895,2-2,2H2c-1.105,0-2-0.896-2-2V11.667c0-1.439,0.773-2.768,2.025-3.478
		L15.525,0.522z"/>
</g>
</svg>
