<svg width="250" height="56" viewBox="0 0 250 56" fill="none" xmlns="http://www.w3.org/2000/svg">
<path d="M192.672 38.8114V40.1337H180.608V16.3947H181.938V38.8114H192.672Z" fill="#013564"/>
<path d="M192.672 38.8114V40.1337H180.608V16.3947H181.938V38.8114H192.672Z" fill="url(#paint0_linear_508_336)"/>
<path d="M208.714 32.2309H198.706L195.864 40.1337H194.503L203.181 16.3947H204.33L213.038 40.1337H211.556L208.714 32.2309ZM208.23 30.8779L203.725 18.3012L199.19 30.8779H208.23Z" fill="#013564"/>
<path d="M208.714 32.2309H198.706L195.864 40.1337H194.503L203.181 16.3947H204.33L213.038 40.1337H211.556L208.714 32.2309ZM208.23 30.8779L203.725 18.3012L199.19 30.8779H208.23Z" fill="url(#paint1_linear_508_336)"/>
<path d="M230.613 33.6147C230.613 34.9267 230.341 36.0747 229.797 37.0587C229.253 38.0427 228.477 38.8012 227.469 39.3342C226.481 39.8672 225.342 40.1337 224.052 40.1337H216.1V16.3947H223.629C224.778 16.3947 225.806 16.6509 226.713 17.1634C227.62 17.6554 228.325 18.3524 228.829 19.2544C229.333 20.1359 229.585 21.1609 229.585 22.3294C229.585 23.6414 229.263 24.7484 228.618 25.6504C227.973 26.5524 227.086 27.1879 225.957 27.5569C227.368 27.9054 228.497 28.6127 229.343 29.6787C230.19 30.7242 230.613 32.0362 230.613 33.6147ZM217.43 17.7169V26.9727H223.719C225.131 26.9727 226.239 26.5524 227.045 25.7119C227.852 24.8714 228.255 23.7542 228.255 22.3602C228.255 20.9047 227.832 19.7669 226.985 18.9469C226.159 18.1269 225.07 17.7169 223.719 17.7169H217.43ZM229.283 33.5839C229.283 31.9644 228.819 30.6832 227.892 29.7402C226.965 28.7767 225.695 28.2949 224.082 28.2949H217.43V38.8114H224.082C225.695 38.8114 226.965 38.3399 227.892 37.3969C228.819 36.4539 229.283 35.1829 229.283 33.5839Z" fill="#013564"/>
<path d="M230.613 33.6147C230.613 34.9267 230.341 36.0747 229.797 37.0587C229.253 38.0427 228.477 38.8012 227.469 39.3342C226.481 39.8672 225.342 40.1337 224.052 40.1337H216.1V16.3947H223.629C224.778 16.3947 225.806 16.6509 226.713 17.1634C227.62 17.6554 228.325 18.3524 228.829 19.2544C229.333 20.1359 229.585 21.1609 229.585 22.3294C229.585 23.6414 229.263 24.7484 228.618 25.6504C227.973 26.5524 227.086 27.1879 225.957 27.5569C227.368 27.9054 228.497 28.6127 229.343 29.6787C230.19 30.7242 230.613 32.0362 230.613 33.6147ZM217.43 17.7169V26.9727H223.719C225.131 26.9727 226.239 26.5524 227.045 25.7119C227.852 24.8714 228.255 23.7542 228.255 22.3602C228.255 20.9047 227.832 19.7669 226.985 18.9469C226.159 18.1269 225.07 17.7169 223.719 17.7169H217.43ZM229.283 33.5839C229.283 31.9644 228.819 30.6832 227.892 29.7402C226.965 28.7767 225.695 28.2949 224.082 28.2949H217.43V38.8114H224.082C225.695 38.8114 226.965 38.3399 227.892 37.3969C228.819 36.4539 229.283 35.1829 229.283 33.5839Z" fill="url(#paint2_linear_508_336)"/>
<path d="M234.372 22.0527C234.372 20.2077 234.966 18.7522 236.156 17.6862C237.365 16.5997 239.008 16.0564 241.084 16.0564C242.657 16.0564 244.027 16.4357 245.196 17.1942C246.366 17.9527 247.172 18.9879 247.615 20.2999L246.376 20.8534C245.65 18.5369 243.886 17.3787 241.084 17.3787C239.331 17.3787 238 17.7784 237.093 18.5779C236.206 19.3569 235.763 20.5049 235.763 22.0219C235.763 22.9239 235.934 23.6722 236.277 24.2667C236.619 24.8612 237.184 25.3634 237.97 25.7734C238.756 26.1834 239.855 26.5729 241.266 26.9419C242.959 27.3929 244.299 27.9157 245.287 28.5102C246.295 29.1047 247.021 29.8222 247.464 30.6627C247.928 31.5032 248.16 32.5384 248.16 33.7684C248.16 35.1009 247.857 36.2694 247.252 37.2739C246.668 38.2784 245.821 39.0574 244.713 39.6109C243.624 40.1644 242.364 40.4412 240.933 40.4412C239.159 40.4412 237.627 40.0107 236.337 39.1497C235.067 38.3092 234.15 37.0997 233.586 35.5212L234.795 34.9369C235.259 36.3104 236.005 37.3559 237.033 38.0734C238.081 38.7909 239.381 39.1497 240.933 39.1497C242.747 39.1497 244.178 38.6679 245.227 37.7044C246.295 36.7409 246.829 35.4289 246.829 33.7684C246.829 32.7639 246.638 31.9337 246.255 31.2777C245.892 30.6012 245.287 30.0272 244.441 29.5557C243.594 29.0842 242.425 28.6639 240.933 28.2949C238.595 27.7004 236.912 26.9214 235.884 25.9579C234.876 24.9739 234.372 23.6722 234.372 22.0527Z" fill="#013564"/>
<path d="M234.372 22.0527C234.372 20.2077 234.966 18.7522 236.156 17.6862C237.365 16.5997 239.008 16.0564 241.084 16.0564C242.657 16.0564 244.027 16.4357 245.196 17.1942C246.366 17.9527 247.172 18.9879 247.615 20.2999L246.376 20.8534C245.65 18.5369 243.886 17.3787 241.084 17.3787C239.331 17.3787 238 17.7784 237.093 18.5779C236.206 19.3569 235.763 20.5049 235.763 22.0219C235.763 22.9239 235.934 23.6722 236.277 24.2667C236.619 24.8612 237.184 25.3634 237.97 25.7734C238.756 26.1834 239.855 26.5729 241.266 26.9419C242.959 27.3929 244.299 27.9157 245.287 28.5102C246.295 29.1047 247.021 29.8222 247.464 30.6627C247.928 31.5032 248.16 32.5384 248.16 33.7684C248.16 35.1009 247.857 36.2694 247.252 37.2739C246.668 38.2784 245.821 39.0574 244.713 39.6109C243.624 40.1644 242.364 40.4412 240.933 40.4412C239.159 40.4412 237.627 40.0107 236.337 39.1497C235.067 38.3092 234.15 37.0997 233.586 35.5212L234.795 34.9369C235.259 36.3104 236.005 37.3559 237.033 38.0734C238.081 38.7909 239.381 39.1497 240.933 39.1497C242.747 39.1497 244.178 38.6679 245.227 37.7044C246.295 36.7409 246.829 35.4289 246.829 33.7684C246.829 32.7639 246.638 31.9337 246.255 31.2777C245.892 30.6012 245.287 30.0272 244.441 29.5557C243.594 29.0842 242.425 28.6639 240.933 28.2949C238.595 27.7004 236.912 26.9214 235.884 25.9579C234.876 24.9739 234.372 23.6722 234.372 22.0527Z" fill="url(#paint3_linear_508_336)"/>
<path d="M111.831 15.8719V40.9639H108.293L95.9565 22.2679V40.9639H92.3584V15.8719H96.5915L108.232 33.5839V15.8719H111.831Z" fill="#013564"/>
<path d="M111.831 15.8719V40.9639H108.293L95.9565 22.2679V40.9639H92.3584V15.8719H96.5915L108.232 33.5839V15.8719H111.831Z" fill="url(#paint4_linear_508_336)"/>
<path d="M120.473 19.3159V26.0809H130.572V29.5249H120.473V37.5507H131.267V40.9639H116.512V15.8719H131.267V19.3159H120.473Z" fill="#013564"/>
<path d="M120.473 19.3159V26.0809H130.572V29.5249H120.473V37.5507H131.267V40.9639H116.512V15.8719H131.267V19.3159H120.473Z" fill="url(#paint5_linear_508_336)"/>
<path d="M135.345 22.5447C135.345 21.1507 135.667 19.9207 136.312 18.8547C136.978 17.7887 137.935 16.9584 139.185 16.3639C140.435 15.7694 141.896 15.4722 143.569 15.4722C145.665 15.4722 147.409 15.9129 148.8 16.7944C150.191 17.6759 151.148 18.9367 151.672 20.5767L148.467 22.1142C148.084 21.0687 147.51 20.2794 146.744 19.7464C145.978 19.2134 144.95 18.9469 143.66 18.9469C142.229 18.9469 141.15 19.2442 140.425 19.8387C139.699 20.4332 139.336 21.2839 139.336 22.3909C139.336 23.1084 139.487 23.7029 139.79 24.1744C140.112 24.6254 140.626 25.0149 141.332 25.3429C142.037 25.6504 143.015 25.9272 144.265 26.1732C147.046 26.7062 149.052 27.5877 150.282 28.8177C151.511 30.0477 152.126 31.7389 152.126 33.8914C152.126 35.3264 151.753 36.6179 151.007 37.7659C150.282 38.8934 149.254 39.7749 147.923 40.4104C146.593 41.0459 145.081 41.3637 143.388 41.3637C141.07 41.3637 139.134 40.8717 137.582 39.8877C136.03 38.9037 134.982 37.4994 134.438 35.6749L137.673 34.1374C138.056 35.3674 138.731 36.3002 139.699 36.9357C140.666 37.5712 141.886 37.8889 143.357 37.8889C144.889 37.8889 146.069 37.5507 146.895 36.8742C147.722 36.1977 148.135 35.2342 148.135 33.9837C148.135 32.8357 147.722 31.9337 146.895 31.2777C146.089 30.6012 144.678 30.0579 142.662 29.6479C140.142 29.1559 138.288 28.3359 137.099 27.1879C135.929 26.0194 135.345 24.4717 135.345 22.5447Z" fill="#013564"/>
<path d="M135.345 22.5447C135.345 21.1507 135.667 19.9207 136.312 18.8547C136.978 17.7887 137.935 16.9584 139.185 16.3639C140.435 15.7694 141.896 15.4722 143.569 15.4722C145.665 15.4722 147.409 15.9129 148.8 16.7944C150.191 17.6759 151.148 18.9367 151.672 20.5767L148.467 22.1142C148.084 21.0687 147.51 20.2794 146.744 19.7464C145.978 19.2134 144.95 18.9469 143.66 18.9469C142.229 18.9469 141.15 19.2442 140.425 19.8387C139.699 20.4332 139.336 21.2839 139.336 22.3909C139.336 23.1084 139.487 23.7029 139.79 24.1744C140.112 24.6254 140.626 25.0149 141.332 25.3429C142.037 25.6504 143.015 25.9272 144.265 26.1732C147.046 26.7062 149.052 27.5877 150.282 28.8177C151.511 30.0477 152.126 31.7389 152.126 33.8914C152.126 35.3264 151.753 36.6179 151.007 37.7659C150.282 38.8934 149.254 39.7749 147.923 40.4104C146.593 41.0459 145.081 41.3637 143.388 41.3637C141.07 41.3637 139.134 40.8717 137.582 39.8877C136.03 38.9037 134.982 37.4994 134.438 35.6749L137.673 34.1374C138.056 35.3674 138.731 36.3002 139.699 36.9357C140.666 37.5712 141.886 37.8889 143.357 37.8889C144.889 37.8889 146.069 37.5507 146.895 36.8742C147.722 36.1977 148.135 35.2342 148.135 33.9837C148.135 32.8357 147.722 31.9337 146.895 31.2777C146.089 30.6012 144.678 30.0579 142.662 29.6479C140.142 29.1559 138.288 28.3359 137.099 27.1879C135.929 26.0194 135.345 24.4717 135.345 22.5447Z" fill="url(#paint6_linear_508_336)"/>
<path d="M171.719 19.3159H165.188V40.9639H161.197V19.3159H154.635V15.8719H171.719V19.3159Z" fill="#013564"/>
<path d="M171.719 19.3159H165.188V40.9639H161.197V19.3159H154.635V15.8719H171.719V19.3159Z" fill="url(#paint7_linear_508_336)"/>
<g clip-path="url(#clip0_508_336)">
<path d="M42.626 34.1343C42.9021 33.656 43.5137 33.4922 43.992 33.7683L45.7241 34.7683C46.2023 35.0445 46.3662 35.656 46.0901 36.1343L45.0901 37.8664C44.8139 38.3447 44.2023 38.5086 43.7241 38.2324L41.992 37.2324C41.5137 36.9563 41.3498 36.3447 41.626 35.8664L42.626 34.1343Z" fill="#013564"/>
<path d="M42.626 34.1343C42.9021 33.656 43.5137 33.4922 43.992 33.7683L45.7241 34.7683C46.2023 35.0445 46.3662 35.656 46.0901 36.1343L45.0901 37.8664C44.8139 38.3447 44.2023 38.5086 43.7241 38.2324L41.992 37.2324C41.5137 36.9563 41.3498 36.3447 41.626 35.8664L42.626 34.1343Z" fill="url(#paint8_linear_508_336)"/>
<path d="M36.6973 28.4023C36.9734 27.924 37.585 27.7601 38.0633 28.0363L39.7953 29.0363C40.2736 29.3124 40.4375 29.924 40.1614 30.4023L37.1614 35.5984C36.8852 36.0767 36.2736 36.2406 35.7953 35.9645L34.0633 34.9645C33.585 34.6883 33.4211 34.0767 33.6973 33.5984L36.6973 28.4023Z" fill="#013564"/>
<path d="M36.6973 28.4023C36.9734 27.924 37.585 27.7601 38.0633 28.0363L39.7953 29.0363C40.2736 29.3124 40.4375 29.924 40.1614 30.4023L37.1614 35.5984C36.8852 36.0767 36.2736 36.2406 35.7953 35.9645L34.0633 34.9645C33.585 34.6883 33.4211 34.0767 33.6973 33.5984L36.6973 28.4023Z" fill="url(#paint9_linear_508_336)"/>
<path d="M30.7695 22.6702C31.0457 22.1919 31.6573 22.0281 32.1356 22.3042L33.8676 23.3042C34.3459 23.5803 34.5098 24.1919 34.2336 24.6702L29.2336 33.3305C28.9575 33.8088 28.3459 33.9726 27.8676 33.6965L26.1356 32.6965C25.6573 32.4204 25.4934 31.8088 25.7695 31.3305L30.7695 22.6702Z" fill="#013564"/>
<path d="M30.7695 22.6702C31.0457 22.1919 31.6573 22.0281 32.1356 22.3042L33.8676 23.3042C34.3459 23.5803 34.5098 24.1919 34.2336 24.6702L29.2336 33.3305C28.9575 33.8088 28.3459 33.9726 27.8676 33.6965L26.1356 32.6965C25.6573 32.4204 25.4934 31.8088 25.7695 31.3305L30.7695 22.6702Z" fill="url(#paint10_linear_508_336)"/>
<path d="M22.8408 20.4024C23.117 19.9241 23.7286 19.7602 24.2068 20.0364L25.9389 21.0364C26.4172 21.3125 26.5811 21.9241 26.3049 22.4024L23.3049 27.5986C23.0288 28.0768 22.4172 28.2407 21.9389 27.9646L20.2068 26.9646C19.7286 26.6884 19.5647 26.0768 19.8408 25.5986L22.8408 20.4024Z" fill="#013564"/>
<path d="M22.8408 20.4024C23.117 19.9241 23.7286 19.7602 24.2068 20.0364L25.9389 21.0364C26.4172 21.3125 26.5811 21.9241 26.3049 22.4024L23.3049 27.5986C23.0288 28.0768 22.4172 28.2407 21.9389 27.9646L20.2068 26.9646C19.7286 26.6884 19.5647 26.0768 19.8408 25.5986L22.8408 20.4024Z" fill="url(#paint11_linear_508_336)"/>
<path d="M14.9121 18.1337C15.1883 17.6554 15.7998 17.4916 16.2781 17.7677L18.0102 18.7677C18.4885 19.0438 18.6524 19.6554 18.3762 20.1337L17.3762 21.8658C17.1001 22.3441 16.4885 22.5079 16.0102 22.2318L14.2781 21.2318C13.7998 20.9557 13.636 20.3441 13.9121 19.8658L14.9121 18.1337Z" fill="#013564"/>
<path d="M14.9121 18.1337C15.1883 17.6554 15.7998 17.4916 16.2781 17.7677L18.0102 18.7677C18.4885 19.0438 18.6524 19.6554 18.3762 20.1337L17.3762 21.8658C17.1001 22.3441 16.4885 22.5079 16.0102 22.2318L14.2781 21.2318C13.7998 20.9557 13.636 20.3441 13.9121 19.8658L14.9121 18.1337Z" fill="url(#paint12_linear_508_336)"/>
<path fill-rule="evenodd" clip-rule="evenodd" d="M44.4754 55.4782C43.2501 56.1741 41.7491 56.1739 40.524 55.4778L20.2629 43.9658C19.3026 43.4202 18.9664 42.1993 19.512 41.2389L21.4881 37.7611C22.0338 36.8007 23.2546 36.4645 24.215 37.0102L40.525 46.2772C41.7501 46.9733 43.2511 46.9735 44.4763 46.2776L49.9753 43.1548C51.2268 42.444 52 41.1157 52 39.6764L51.9753 10.0001C51.9753 8.89547 52.8707 8 53.9753 8L57.9753 8C59.0799 8 59.9753 8.8954 59.9753 9.99995L60 44.3333C60 45.7725 59.2268 47.1009 57.9753 47.8116L44.4754 55.4782Z" fill="#013564"/>
<path fill-rule="evenodd" clip-rule="evenodd" d="M44.4754 55.4782C43.2501 56.1741 41.7491 56.1739 40.524 55.4778L20.2629 43.9658C19.3026 43.4202 18.9664 42.1993 19.512 41.2389L21.4881 37.7611C22.0338 36.8007 23.2546 36.4645 24.215 37.0102L40.525 46.2772C41.7501 46.9733 43.2511 46.9735 44.4763 46.2776L49.9753 43.1548C51.2268 42.444 52 41.1157 52 39.6764L51.9753 10.0001C51.9753 8.89547 52.8707 8 53.9753 8L57.9753 8C59.0799 8 59.9753 8.8954 59.9753 9.99995L60 44.3333C60 45.7725 59.2268 47.1009 57.9753 47.8116L44.4754 55.4782Z" fill="url(#paint13_linear_508_336)"/>
<path fill-rule="evenodd" clip-rule="evenodd" d="M15.5246 0.521755C16.7499 -0.174068 18.2509 -0.173908 19.476 0.522174L39.7371 12.0342C40.6974 12.5798 41.0336 13.8007 40.488 14.7611L38.5119 18.2389C37.9663 19.1993 36.7454 19.5355 35.785 18.9898L19.475 9.72277C18.2499 9.02669 16.7489 9.02653 15.5237 9.72235L10.0247 12.8452C8.77317 13.556 7.99996 14.8843 8.00001 16.3236L7.99999 45.9999C8.00003 47.1045 7.10459 48 5.99999 48H2C0.895452 48 2.99132e-05 47.1045 1.47429e-09 46V11.6667C-3.89748e-05 10.2275 0.77316 8.89914 2.0247 8.18839L15.5246 0.521755Z" fill="#013564"/>
<path fill-rule="evenodd" clip-rule="evenodd" d="M15.5246 0.521755C16.7499 -0.174068 18.2509 -0.173908 19.476 0.522174L39.7371 12.0342C40.6974 12.5798 41.0336 13.8007 40.488 14.7611L38.5119 18.2389C37.9663 19.1993 36.7454 19.5355 35.785 18.9898L19.475 9.72277C18.2499 9.02669 16.7489 9.02653 15.5237 9.72235L10.0247 12.8452C8.77317 13.556 7.99996 14.8843 8.00001 16.3236L7.99999 45.9999C8.00003 47.1045 7.10459 48 5.99999 48H2C0.895452 48 2.99132e-05 47.1045 1.47429e-09 46V11.6667C-3.89748e-05 10.2275 0.77316 8.89914 2.0247 8.18839L15.5246 0.521755Z" fill="url(#paint14_linear_508_336)"/>
</g>
<defs>
<linearGradient id="paint0_linear_508_336" x1="92.3533" y1="15.4722" x2="105.085" y2="73.0177" gradientUnits="userSpaceOnUse">
<stop stop-color="#D065F5"/>
<stop offset="1" stop-color="#013564"/>
</linearGradient>
<linearGradient id="paint1_linear_508_336" x1="92.3533" y1="15.4722" x2="105.085" y2="73.0177" gradientUnits="userSpaceOnUse">
<stop stop-color="#D065F5"/>
<stop offset="1" stop-color="#013564"/>
</linearGradient>
<linearGradient id="paint2_linear_508_336" x1="92.3533" y1="15.4722" x2="105.085" y2="73.0177" gradientUnits="userSpaceOnUse">
<stop stop-color="#D065F5"/>
<stop offset="1" stop-color="#013564"/>
</linearGradient>
<linearGradient id="paint3_linear_508_336" x1="92.3533" y1="15.4722" x2="105.085" y2="73.0177" gradientUnits="userSpaceOnUse">
<stop stop-color="#D065F5"/>
<stop offset="1" stop-color="#013564"/>
</linearGradient>
<linearGradient id="paint4_linear_508_336" x1="92.3533" y1="15.4722" x2="105.085" y2="73.0177" gradientUnits="userSpaceOnUse">
<stop stop-color="#D065F5"/>
<stop offset="1" stop-color="#013564"/>
</linearGradient>
<linearGradient id="paint5_linear_508_336" x1="92.3533" y1="15.4722" x2="105.085" y2="73.0177" gradientUnits="userSpaceOnUse">
<stop stop-color="#D065F5"/>
<stop offset="1" stop-color="#013564"/>
</linearGradient>
<linearGradient id="paint6_linear_508_336" x1="92.3533" y1="15.4722" x2="105.085" y2="73.0177" gradientUnits="userSpaceOnUse">
<stop stop-color="#D065F5"/>
<stop offset="1" stop-color="#013564"/>
</linearGradient>
<linearGradient id="paint7_linear_508_336" x1="92.3533" y1="15.4722" x2="105.085" y2="73.0177" gradientUnits="userSpaceOnUse">
<stop stop-color="#D065F5"/>
<stop offset="1" stop-color="#013564"/>
</linearGradient>
<linearGradient id="paint8_linear_508_336" x1="-0.00195226" y1="-1.17484e-06" x2="63.766" y2="51.318" gradientUnits="userSpaceOnUse">
<stop stop-color="#D065F5"/>
<stop offset="1" stop-color="#013564"/>
</linearGradient>
<linearGradient id="paint9_linear_508_336" x1="-0.00195226" y1="-1.17484e-06" x2="63.766" y2="51.318" gradientUnits="userSpaceOnUse">
<stop stop-color="#D065F5"/>
<stop offset="1" stop-color="#013564"/>
</linearGradient>
<linearGradient id="paint10_linear_508_336" x1="-0.00195226" y1="-1.17484e-06" x2="63.766" y2="51.318" gradientUnits="userSpaceOnUse">
<stop stop-color="#D065F5"/>
<stop offset="1" stop-color="#013564"/>
</linearGradient>
<linearGradient id="paint11_linear_508_336" x1="-0.00195226" y1="-1.17484e-06" x2="63.766" y2="51.318" gradientUnits="userSpaceOnUse">
<stop stop-color="#D065F5"/>
<stop offset="1" stop-color="#013564"/>
</linearGradient>
<linearGradient id="paint12_linear_508_336" x1="-0.00195226" y1="-1.17484e-06" x2="63.766" y2="51.318" gradientUnits="userSpaceOnUse">
<stop stop-color="#D065F5"/>
<stop offset="1" stop-color="#013564"/>
</linearGradient>
<linearGradient id="paint13_linear_508_336" x1="-0.00195226" y1="-1.17484e-06" x2="63.766" y2="51.318" gradientUnits="userSpaceOnUse">
<stop stop-color="#D065F5"/>
<stop offset="1" stop-color="#013564"/>
</linearGradient>
<linearGradient id="paint14_linear_508_336" x1="-0.00195226" y1="-1.17484e-06" x2="63.766" y2="51.318" gradientUnits="userSpaceOnUse">
<stop stop-color="#D065F5"/>
<stop offset="1" stop-color="#013564"/>
</linearGradient>
<clipPath id="clip0_508_336">
<rect width="60" height="56" fill="white"/>
</clipPath>
</defs>
</svg>
