<?xml version="1.0" encoding="utf-8"?>
<!-- Generator: Adobe Illustrator 23.0.2, SVG Export Plug-In . SVG Version: 6.00 Build 0)  -->
<svg version="1.1" id="图层_1" xmlns="http://www.w3.org/2000/svg" xmlns:xlink="http://www.w3.org/1999/xlink" x="0px" y="0px"
	 viewBox="0 0 1522 505" style="enable-background:new 0 0 1522 505;" xml:space="preserve">
<style type="text/css">
	.st0{fill:#88BDF3;}
	.st1{fill:#3075EE;}
	.st2{fill:#5795F1;}
	.st3{fill:#205FEC;}
	.st4{fill:#3170F1;}
	.st5{fill:#164BEA;}
	.st6{fill:#134BEF;}
	.st7{fill:#0932E8;}
	.st8{fill:#FFFFFF;}
</style>
<g>
	<g>
		<g>
			<path class="st0" d="M225.317,225.324c8.713,2.126,17.808,3.278,27.176,3.278s18.463-1.152,27.176-3.278
				c10.072-41.275,42.546-73.748,83.82-83.82c2.126-8.713,3.278-17.808,3.278-27.176c0-63.112-51.163-114.275-114.275-114.275
				S138.218,51.215,138.218,114.327c0,9.368,1.152,18.463,3.278,27.176C182.771,151.576,215.245,184.049,225.317,225.324z"/>
			<path class="st1" d="M279.669,279.676c-8.713-2.126-17.808-3.278-27.176-3.278c-9.368,0-18.463,1.152-27.176,3.278
				c-10.072,41.274-42.546,73.748-83.82,83.82c-2.126,8.713-3.278,17.808-3.278,27.176c0,63.112,51.162,114.275,114.275,114.275
				s114.275-51.163,114.275-114.275c0-9.368-1.152-18.463-3.278-27.176C322.215,353.424,289.741,320.95,279.669,279.676z"/>
			<path class="st2" d="M390.665,138.225c-9.368,0-18.463,1.152-27.176,3.278c-10.072,41.274-42.546,73.748-83.82,83.82
				c-2.126,8.713-3.278,17.808-3.278,27.176c0,9.368,1.152,18.463,3.278,27.176c41.275,10.072,73.748,42.546,83.82,83.82
				c8.713,2.126,17.808,3.278,27.176,3.278c63.112,0,114.275-51.162,114.275-114.275S453.778,138.225,390.665,138.225z"/>
			<path class="st3" d="M225.317,279.676c2.126-8.713,3.278-17.808,3.278-27.176c0-9.368-1.152-18.463-3.278-27.176
				c-41.274-10.072-73.748-42.546-83.82-83.82c-8.713-2.126-17.808-3.278-27.176-3.278c-63.112,0-114.275,51.163-114.275,114.275
				s51.163,114.275,114.275,114.275c9.368,0,18.463-1.152,27.176-3.278C151.569,322.222,184.042,289.748,225.317,279.676z"/>
		</g>
		<path class="st4" d="M279.669,225.324c41.275-10.072,73.748-42.546,83.82-83.82C322.215,151.576,289.741,184.049,279.669,225.324z
			"/>
		<path class="st5" d="M279.669,279.676c10.072,41.274,42.546,73.748,83.82,83.82C353.417,322.222,320.944,289.748,279.669,279.676z
			"/>
		<path class="st6" d="M225.317,225.324c-10.072-41.275-42.546-73.748-83.82-83.82C151.569,182.778,184.042,215.251,225.317,225.324
			z"/>
		<path class="st7" d="M225.317,279.676c-41.274,10.072-73.748,42.546-83.82,83.82C182.771,353.424,215.245,320.95,225.317,279.676z
			"/>
	</g>
	<g>
		<g>
			<path class="st8" d="M586.9,64.216v-1.38c0-36.739,26.908-62.784,63.474-62.784c37.084,0,63.474,25.01,63.474,62.094v1.38
				c0,36.739-25.183,63.474-63.647,63.474C611.565,127,586.9,100.265,586.9,64.216z M684.698,63.871v-1.38
				c0-23.975-12.763-40.361-34.324-40.361c-21.388,0-34.325,15.696-34.325,40.533v1.38c0,25.182,14.489,40.706,34.669,40.706
				C671.589,104.75,684.698,88.709,684.698,63.871z"/>
			<path class="st8" d="M732.412,1.777h22.559c1.487,0,2.692,1.205,2.692,2.692v50.433l42.313-52.13
				c0.511-0.63,1.279-0.995,2.09-0.995h24.542c1.523,0,2.354,1.779,1.376,2.947l-46.345,55.353l48.939,62.121
				c0.927,1.177,0.089,2.905-1.41,2.905h-27.576c-0.836,0-1.624-0.388-2.133-1.05l-41.795-54.317v52.676
				c0,1.487-1.205,2.692-2.692,2.692h-22.559c-1.487,0-2.692-1.205-2.692-2.692V4.469C729.72,2.982,730.925,1.777,732.412,1.777z"/>
			<path class="st8" d="M846.426,1.777h74.993c1.487,0,2.692,1.205,2.692,2.692v16.349c0,1.487-1.205,2.692-2.692,2.692h-48.121
				c-0.991,0-1.795,0.803-1.795,1.795V50.52c0,0.991,0.803,1.795,1.795,1.795h37.599c1.487,0,2.692,1.205,2.692,2.692v14.969
				c0,1.487-1.205,2.692-2.692,2.692h-37.599c-0.991,0-1.795,0.803-1.795,1.795v27.113c0,0.991,0.803,1.795,1.795,1.795h50.881
				c1.487,0,2.692,1.205,2.692,2.692v16.349c0,1.487-1.205,2.692-2.692,2.692h-77.753c-1.487,0-2.692-1.205-2.692-2.692V4.469
				C843.734,2.982,844.939,1.777,846.426,1.777z"/>
			<path class="st8" d="M963.092,79.05L936.55,38.363c-0.973-1.492,0.097-3.469,1.879-3.469h23.495c0.619,0,1.195,0.319,1.522,0.844
				l14.838,23.772c0.707,1.132,2.357,1.124,3.053-0.014l14.518-23.743c0.326-0.533,0.906-0.858,1.531-0.858h20.623
				c1.802,0,2.869,2.018,1.854,3.507l-26.415,38.752l29.433,44.469c0.987,1.491-0.082,3.481-1.871,3.481h-23.635
				c-0.619,0-1.194-0.319-1.522-0.843L978.91,97.148c-0.698-1.117-2.32-1.126-3.032-0.018l-17.431,27.148
				c-0.33,0.514-0.899,0.825-1.51,0.825h-20.515c-1.794,0-2.862-2.002-1.863-3.492L963.092,79.05z"/>
		</g>
		<g>
			<path class="st8" d="M586.9,196.892c0-1.487,1.205-2.692,2.692-2.692h45.776c26.907,0,40.879,11.039,40.879,32.082v0.69
				c0,12.936-6.21,22.423-20.008,26.39c16.041,3.277,24.665,12.419,24.665,28.977v0.69c0,22.596-14.834,34.497-43.294,34.497
				h-48.018c-1.487,0-2.692-1.205-2.692-2.692V196.892z M630.883,244.911c13.454,0,18.801-4.83,18.801-15.869v-0.69
				c0-10.349-5.864-15.006-18.973-15.006h-14.764c-0.991,0-1.795,0.803-1.795,1.795v27.975c0,0.991,0.803,1.795,1.795,1.795H630.883
				z M633.298,298.208c13.799,0,20.008-6.21,20.008-17.421v-0.69c0-11.384-6.21-17.248-21.388-17.248h-15.971
				c-0.991,0-1.795,0.803-1.795,1.795v31.77c0,0.991,0.803,1.795,1.795,1.795h17.351V298.208z"/>
			<path class="st8" d="M697.397,186.439h19.454c1.487,0,2.692,1.205,2.692,2.692v125.704c0,1.487-1.205,2.692-2.692,2.692h-19.454
				c-1.487,0-2.692-1.205-2.692-2.692V189.131C694.705,187.644,695.911,186.439,697.397,186.439z"/>
			<path class="st8" d="M732.48,273.37v-1.38c0-28.287,20.526-46.743,47.606-46.743s47.433,18.111,47.433,46.225v1.38
				c0,28.46-20.526,46.571-47.606,46.571C753.006,319.423,732.48,301.485,732.48,273.37z M802.164,273.025v-1.207
				c0-17.248-8.107-27.597-22.078-27.597c-13.799,0-22.078,10.004-22.078,27.252v1.38c0,17.248,7.934,27.597,22.078,27.597
				C794.057,300.45,802.164,290.101,802.164,273.025z"/>
			<path class="st8" d="M834.421,273.543v-1.38c0-29.15,20.87-46.915,46.571-46.915c20.029,0,38.629,8.42,42.078,31.967
				c0.236,1.61-1.043,3.047-2.67,3.047h-19.125c-0.84,0-1.571-0.585-1.748-1.407c-2.05-9.546-8.306-13.944-18.018-13.944
				c-12.936,0-21.56,9.659-21.56,26.907v1.38c0,18.111,8.107,27.425,22.078,27.425c9.566,0,17.397-5.362,19.12-15.935
				c0.14-0.859,0.892-1.486,1.763-1.486h18.062c1.61,0,2.885,1.408,2.676,3.005c-2.588,19.76-17.858,33.217-42.829,33.217
				C854.43,319.423,834.421,303.037,834.421,273.543z"/>
			<path class="st8" d="M938.017,186.439h19.627c1.487,0,2.692,1.205,2.692,2.692v72.311c0,1.289,1.637,1.841,2.417,0.814
				l26.021-34.23c0.339-0.446,0.868-0.709,1.429-0.709h21.944c1.504,0,2.341,1.739,1.402,2.914l-30.446,38.137l33.315,46.315
				c0.854,1.187,0.006,2.842-1.457,2.842h-23.852c-0.585,0-1.134-0.286-1.47-0.765l-26.856-38.343
				c-0.755-1.078-2.448-0.544-2.448,0.772v35.644c0,1.487-1.205,2.692-2.692,2.692h-19.627c-1.487,0-2.692-1.205-2.692-2.692
				V189.131C935.326,187.644,936.531,186.439,938.017,186.439z"/>
			<path class="st8" d="M1017.776,273.715v-1.38c0-29.667,17.076-47.088,39.671-47.088c13.725,0,22.496,5.727,27.635,14.101
				c0.236,0.384,0.825,0.215,0.825-0.235v-49.982c0-1.487,1.205-2.692,2.692-2.692h19.454c1.487,0,2.692,1.205,2.692,2.692v125.704
				c0,1.487-1.205,2.692-2.692,2.692h-19.454c-1.487,0-2.692-1.205-2.692-2.692v-10.587c0-0.456-0.595-0.619-0.829-0.227
				c-5.053,8.475-15.6,15.404-28.148,15.404C1035.024,319.423,1017.776,303.727,1017.776,273.715z M1086.597,272.853v-1.38
				c0-17.938-7.934-27.08-21.56-27.08c-13.971,0-21.733,9.487-21.733,27.425v1.38c0,17.939,8.624,26.735,21.043,26.735
				C1077.455,299.933,1086.597,291.136,1086.597,272.853z"/>
			<path class="st8" d="M1131.377,227.317h19.627c1.487,0,2.692,1.205,2.692,2.692v14.557c5.312-11.269,13.329-17.579,26.295-18.511
				c1.546-0.111,2.854,1.14,2.854,2.69v17.811c0,1.462-1.172,2.65-2.634,2.686c-16.836,0.421-26.516,6.683-26.516,23.093v42.499
				c0,1.487-1.205,2.692-2.692,2.692h-19.627c-1.487,0-2.692-1.205-2.692-2.692v-84.825
				C1128.685,228.522,1129.891,227.317,1131.377,227.317z"/>
			<path class="st8" d="M1187.851,273.543v-1.38c0-28.46,20.18-46.915,46.398-46.915c23.285,0,43.983,13.626,43.983,45.881v4.208
				c0,1.487-1.205,2.692-2.692,2.692h-60.406c-1.059,0-1.89,0.916-1.792,1.97c1.288,13.788,9.268,21.66,22.286,21.66
				c10.594,0,16.259-4.203,18.325-10.749c0.351-1.113,1.421-1.842,2.588-1.842h18.254c1.745,0,3.024,1.636,2.62,3.334
				c-4.138,17.392-19.256,27.023-42.477,27.023C1207.687,319.423,1187.851,302.348,1187.851,273.543z M1251.948,262.676
				c1.074,0,1.909-0.943,1.788-2.01c-1.395-12.261-8.186-18.171-19.486-18.171c-10.563,0-17.911,6.584-20.312,18.02
				c-0.233,1.112,0.627,2.16,1.763,2.16h36.247V262.676z"/>
			<path class="st8" d="M1285.305,292.516c0-21.043,19.318-28.977,46.916-28.977h9.728c0.248,0,0.449-0.201,0.449-0.449v-3.174
				c0-10.694-3.277-16.558-14.661-16.558c-8.938,0-13.456,4.134-14.982,10.717c-0.279,1.205-1.373,2.047-2.61,2.047h-18.38
				c-1.651,0-2.912-1.475-2.665-3.108c2.904-19.202,19.211-27.767,40.189-27.767c22.078,0,37.774,8.969,37.774,33.462v56.125
				c0,1.487-1.205,2.692-2.692,2.692h-18.936c-1.487,0-2.692-1.205-2.692-2.692v-8.174c-5.175,7.244-13.109,12.764-27.253,12.764
				C1299.103,319.423,1285.305,311.489,1285.305,292.516z M1342.396,285.961v-7.141c0-0.248-0.201-0.449-0.449-0.449h-9.21
				c-14.489,0-22.941,3.105-22.941,12.764c0,6.554,3.967,10.866,13.109,10.866C1333.945,302.002,1342.396,295.966,1342.396,285.961z
				"/>
			<path class="st8" d="M1386.832,227.317h19.627c1.487,0,2.692,1.205,2.692,2.692v9.427c0,0.452,0.589,0.62,0.824,0.234
				c4.783-7.834,14.092-14.423,26.773-14.423c11.619,0,20.444,4.768,24.868,14.946c0.141,0.323,0.571,0.368,0.773,0.079
				c7.274-10.394,18.752-15.025,29.898-15.025c16.731,0,29.667,10.522,29.667,34.497v55.09c0,1.487-1.205,2.692-2.692,2.692h-19.454
				c-1.487,0-2.692-1.205-2.692-2.692v-52.33c0-11.556-5.174-16.731-14.143-16.731c-9.659,0-17.421,6.21-17.421,18.456v50.605
				c0,1.487-1.205,2.692-2.692,2.692h-19.454c-1.487,0-2.692-1.205-2.692-2.692v-52.33c0-11.556-5.347-16.731-14.144-16.731
				c-9.659,0-17.421,6.21-17.421,18.456v50.605c0,1.487-1.205,2.692-2.692,2.692h-19.627c-1.487,0-2.692-1.205-2.692-2.692v-84.825
				C1384.14,228.522,1385.345,227.317,1386.832,227.317z"/>
		</g>
		<g>
			<path class="st8" d="M589.593,379.724h23.772c1.18,0,2.222,0.768,2.571,1.896l28.307,91.414c0.13,0.421,0.727,0.421,0.857,0
				l28.307-91.414c0.349-1.127,1.391-1.896,2.571-1.896h20.5c1.837,0,3.134,1.799,2.554,3.542l-39.259,117.942
				c-0.366,1.1-1.395,1.842-2.554,1.842h-28.202c-1.158,0-2.186-0.74-2.553-1.838L587.04,383.269
				C586.458,381.526,587.755,379.724,589.593,379.724z"/>
			<path class="st8" d="M693.316,459.067v-1.38c0-28.46,20.18-46.916,46.398-46.916c23.285,0,43.983,13.626,43.983,45.881v4.208
				c0,1.487-1.205,2.692-2.692,2.692h-60.406c-1.059,0-1.89,0.916-1.792,1.971c1.288,13.788,9.268,21.66,22.286,21.66
				c10.593,0,16.259-4.203,18.325-10.749c0.351-1.113,1.421-1.842,2.588-1.842h18.254c1.745,0,3.024,1.636,2.62,3.334
				c-4.137,17.392-19.256,27.023-42.477,27.023C713.151,504.948,693.316,487.872,693.316,459.067z M757.412,448.2
				c1.074,0,1.909-0.943,1.788-2.01c-1.395-12.261-8.186-18.171-19.486-18.171c-10.563,0-17.911,6.584-20.312,18.02
				c-0.233,1.112,0.627,2.16,1.763,2.16h36.247V448.2z"/>
			<path class="st8" d="M798.465,412.841h19.627c1.487,0,2.692,1.205,2.692,2.692v9.865c0,0.457,0.599,0.62,0.829,0.225
				c4.806-8.265,14.352-14.852,28.494-14.852c17.765,0,30.357,10.694,30.357,34.842v54.745c0,1.487-1.205,2.692-2.692,2.692h-19.627
				c-1.487,0-2.692-1.205-2.692-2.692v-51.123c0-12.246-4.829-18.111-15.868-18.111c-10.694,0-18.801,6.554-18.801,19.836v49.398
				c0,1.487-1.205,2.692-2.692,2.692h-19.627c-1.487,0-2.692-1.205-2.692-2.692v-84.825
				C795.773,414.046,796.978,412.841,798.465,412.841z"/>
			<path class="st8" d="M901.335,476.315v-45.259c0-0.248-0.201-0.449-0.449-0.449h-8.416c-1.487,0-2.692-1.205-2.692-2.692v-12.382
				c0-1.487,1.205-2.692,2.692-2.692h8.865v-16.799c0-1.487,1.205-2.692,2.692-2.692h19.454c1.487,0,2.692,1.205,2.692,2.692v16.799
				h16.281c1.487,0,2.692,1.205,2.692,2.692v12.382c0,1.487-1.205,2.692-2.692,2.692h-15.833c-0.248,0-0.449,0.201-0.449,0.449
				v43.017c0,7.244,3.622,10.694,10.004,10.694c2.347,0,4.298-0.198,6.138-0.635c1.706-0.405,3.348,0.854,3.348,2.607v13.656
				c0,1.197-0.785,2.248-1.933,2.585c-3.301,0.968-7.684,1.794-13.246,1.794C911.512,504.775,901.335,495.116,901.335,476.315z"/>
			<path class="st8" d="M957.566,470.968v-55.435c0-1.487,1.205-2.692,2.692-2.692h19.454c1.487,0,2.692,1.205,2.692,2.692v51.985
				c0,12.246,5.002,18.111,15.696,18.111c10.522,0,18.801-6.555,18.801-19.836v-50.261c0-1.487,1.205-2.692,2.692-2.692h19.454
				c1.487,0,2.692,1.205,2.692,2.692v84.825c0,1.487-1.205,2.692-2.692,2.692h-19.454c-1.487,0-2.692-1.205-2.692-2.692v-11.452
				c-4.657,9.141-13.799,16.041-28.632,16.041C970.675,504.948,957.566,494.598,957.566,470.968z"/>
			<path class="st8" d="M1062.2,412.841h19.627c1.487,0,2.692,1.205,2.692,2.692v14.557c5.312-11.269,13.329-17.579,26.295-18.511
				c1.546-0.111,2.854,1.14,2.854,2.69v17.811c0,1.462-1.172,2.65-2.634,2.686c-16.836,0.421-26.516,6.683-26.516,23.093v42.499
				c0,1.487-1.205,2.692-2.692,2.692H1062.2c-1.487,0-2.692-1.205-2.692-2.692v-84.825
				C1059.508,414.046,1060.713,412.841,1062.2,412.841z"/>
			<path class="st8" d="M1118.674,459.067v-1.38c0-28.46,20.18-46.916,46.398-46.916c23.285,0,43.983,13.626,43.983,45.881v4.208
				c0,1.487-1.205,2.692-2.692,2.692h-60.406c-1.059,0-1.89,0.916-1.792,1.971c1.288,13.788,9.268,21.66,22.286,21.66
				c10.594,0,16.259-4.203,18.325-10.749c0.351-1.113,1.421-1.842,2.588-1.842h18.254c1.745,0,3.024,1.636,2.62,3.334
				c-4.137,17.392-19.256,27.023-42.477,27.023C1138.509,504.948,1118.674,487.872,1118.674,459.067z M1182.77,448.2
				c1.074,0,1.909-0.943,1.788-2.01c-1.395-12.261-8.186-18.171-19.486-18.171c-10.563,0-17.911,6.584-20.312,18.02
				c-0.233,1.112,0.627,2.16,1.763,2.16h36.247V448.2z"/>
			<path class="st8" d="M1218.36,474.763h18.092c1.255,0,2.36,0.866,2.622,2.093c1.449,6.81,5.624,10.671,15.517,10.671
				c9.659,0,14.143-3.622,14.143-9.831s-5.347-8.797-18.283-10.694c-23.975-3.622-33.289-10.522-33.289-28.115
				c0-18.801,17.248-28.115,35.704-28.115c18.932,0,33.386,6.486,36.786,24.72c0.311,1.67-0.944,3.223-2.642,3.223h-17.696
				c-1.189,0-2.253-0.779-2.577-1.923c-1.723-6.092-5.857-8.944-13.698-8.944c-8.107,0-12.764,3.795-12.764,9.314
				c0,5.692,4.312,7.934,17.421,9.832c22.595,3.277,35.014,8.969,35.014,28.287c0,19.491-14.144,29.668-37.946,29.668
				c-23.017,0-36.919-9.578-39.074-27.127C1215.491,476.201,1216.728,474.763,1218.36,474.763z"/>
		</g>
	</g>
</g>
</svg>
