<?xml version="1.0" encoding="utf-8"?>
<!-- Generator: Adobe Illustrator 23.0.2, SVG Export Plug-In . SVG Version: 6.00 Build 0)  -->
<svg version="1.1" id="图层_1" xmlns="http://www.w3.org/2000/svg" xmlns:xlink="http://www.w3.org/1999/xlink" x="0px" y="0px"
	 viewBox="0 0 148 44" style="enable-background:new 0 0 148 44;" xml:space="preserve">
<style type="text/css">
	.st0{fill:#FFFFFF;}
</style>
<g id="Parasset_logo_white" transform="translate(-46 -22)">
	<path id="PARASSET_LOGO" class="st0" d="M46,39.788l3.932,3.524V66L46,62.476V39.788z M49.932,40.588c0,0-0.824-8.477,6.637-12.738
		c4.622-2.717,10.402-2.493,14.8,0.573l2.8-2.808c-5.51-4.115-12.893-4.704-18.986-1.515c-8.562,5.024-9.026,13.069-9.026,13.069
		L49.932,40.588z M51.638,52.448c2.704,2.517,6.134,4.116,9.8,4.57c4.6,0.517,9.22-0.784,12.874-3.626l-2.8-2.8
		c0,0-3.5,3.192-10,2.42c-6.5-0.772-9.875-6.8-9.875-6.8L51.638,52.448z M72.709,29.5c2.724,2.65,4.309,6.257,4.419,10.056
		c-0.076,3.745-1.616,7.312-4.291,9.935l2.772,2.776c3.525-3.28,5.504-7.894,5.451-12.709c0.02-4.87-2.003-9.525-5.577-12.833
		L72.709,29.5z M100.93,39.787L97,43.311V66l3.932-3.524L100.93,39.787z M100.774,37.17c0,0-0.464-8.045-9.026-13.07
		c-5.205-2.778-11.456-2.763-16.648,0.038l3.172,2.814c3.952-1.588,8.417-1.255,12.09,0.9C97.822,32.108,97,40.586,97,40.586
		L100.774,37.17z M95.293,46.216c0,0-3.374,6.026-9.875,6.8c-2.413,0.326-4.868,0.051-7.149-0.8
		c-0.988,1.012-2.05,1.951-3.175,2.809c3.197,1.662,6.809,2.357,10.395,2c3.666-0.454,7.096-2.053,9.8-4.57L95.293,46.216z
		 M69.532,28.8c-4.881,6.352-4.881,15.192,0,21.544c1.388-1.214,1.7-1.475,3.042-2.6c-1.767-2.367-2.739-5.233-2.774-8.187
		c0.047-2.938,1.017-5.787,2.771-8.145C71.218,30.261,70.624,29.785,69.532,28.8z M128.532,25.086h1.1c0,0,3.755,0,3.755,3.685
		s-3.755,3.685-3.755,3.685h-1.1v3.084h1.974c0,0,6.809,0,6.809-6.769S130.506,22,130.506,22h-1.974V25.086z M126.826,22
		l-3.926,3.518v17.263l3.93-3.518L126.826,22z M163.757,25.089h1.129c0,0,3.865,0,3.865,3.685s-3.865,3.685-3.865,3.685h-1.129
		v3.084h2.031c0,0,7.008,0,7.008-6.769s-7.008-6.768-7.008-6.768h-2.031L163.757,25.089z M162.051,22.006l-3.931,3.518v17.262
		l3.931-3.518V22.006z M163.757,35.543l4.7,7.245h4.707l-5.487-7.8L163.757,35.543z M137.314,42.787h4.007l5.258-17.7l5.234,17.7
		h4.232L149.109,22h-4.857L137.314,42.787z M144.605,37.472h3.925l-0.981-3.31h-1.96L144.605,37.472z M175.268,42.787h4.007
		l5.259-17.7l5.234,17.7H194L187.063,22h-4.858L175.268,42.787z M182.559,37.472h3.925l-0.981-3.31h-1.961L182.559,37.472z
		 M186.583,48.517l-3.932,3.521v13.955l3.931-3.518L186.583,48.517z M175.251,45.211v3.312h18.732v-3.312H175.251z M162.051,45.211
		l-3.931,3.519v17.263l3.931-3.518L162.051,45.211z M163.757,45.211v3.312h9.41v-3.312H163.757z M163.757,53.462v3.285h7.888v-3.285
		L163.757,53.462z M163.757,62.715v3.278h9.41v-3.278L163.757,62.715z M134.484,50.87l3.031-1.433c0,0-0.74-4.226-6.863-4.226
		c-6.726,0-6.96,5.828-6.96,5.828c-0.042,1.418,0.492,2.794,1.479,3.813c0.842,0.77,1.856,1.328,2.957,1.629
		c1.1-1.1,3.2-2.868,3.2-2.868s-3.832-0.5-3.832-2.574c0-0.592-0.114-2.6,3.153-2.6C133.916,48.439,134.484,50.87,134.484,50.87z
		 M129.856,56.863c0,0,4.167,0.37,4.167,3.138c0,0,0.391,2.768-3.565,2.768c-3.956,0-4.458-2.869-4.458-2.869l-3.056,1.433
		c0,0,0.888,4.667,7.539,4.667c2.091,0,7.372-0.911,7.372-6.1c0.101-2.894-1.954-5.416-4.809-5.9L129.856,56.863z M152.041,50.87
		l3.031-1.433c0,0-0.739-4.226-6.863-4.226c-6.726,0-6.96,5.828-6.96,5.828c-0.042,1.418,0.492,2.794,1.479,3.813
		c0.842,0.77,1.856,1.328,2.957,1.629c1.1-1.1,3.2-2.868,3.2-2.868s-3.832-0.5-3.832-2.574c0-0.592-0.114-2.6,3.153-2.6
		S152.041,50.87,152.041,50.87z M147.413,56.863c0,0,4.167,0.37,4.167,3.138c0,0,0.391,2.768-3.564,2.768
		c-3.955,0-4.463-2.869-4.463-2.869l-3.053,1.437c0,0,0.889,4.663,7.539,4.663c2.091,0,7.372-0.911,7.372-6.1
		c0.101-2.893-1.954-5.415-4.808-5.9L147.413,56.863z"/>
</g>
</svg>
