<?xml version="1.0" encoding="utf-8"?>
<!-- Generator: Adobe Illustrator 23.0.2, SVG Export Plug-In . SVG Version: 6.00 Build 0)  -->
<svg version="1.1" id="图层_1" xmlns="http://www.w3.org/2000/svg" xmlns:xlink="http://www.w3.org/1999/xlink" x="0px" y="0px"
	 viewBox="0 0 432.77 124.57" style="enable-background:new 0 0 432.77 124.57;" xml:space="preserve">
<style type="text/css">
	.st0{fill:#282BDB;}
	.st1{fill:#3581E6;}
	.st2{fill:#3EC7EB;}
</style>
<g>
	<g id="Layer_1">
		<polygon class="st0" points="53.94,96.05 53.94,124.57 51.66,123.25 39.62,116.3 39.62,87.79 		"/>
		<polygon class="st0" points="24.69,45.4 24.69,107.68 0,93.42 0,31.14 		"/>
		<polygon class="st1" points="107.88,31.14 107.88,93.42 53.94,124.57 53.94,96.06 83.18,79.17 83.18,45.4 		"/>
		<polygon class="st2" points="107.88,31.14 83.18,45.4 53.94,28.51 24.7,45.4 0,31.14 53.94,0 		"/>
		<path d="M136.76,45.4h15.49c3.66,0,6.52,0.92,8.56,2.77c2.107,2.01,3.226,4.843,3.06,7.75c0.164,2.904-0.955,5.733-3.06,7.74
			c-2,1.85-4.9,2.77-8.56,2.77h-8V79.1h-7.46L136.76,45.4z M151.29,60.79c3.733,0,5.6-1.61,5.6-4.83
			c0.107-1.372-0.403-2.721-1.39-3.68c-1.219-0.881-2.71-1.303-4.21-1.19h-7.07v9.7H151.29z"/>
		<path d="M172.62,78c-1.839-0.96-3.352-2.442-4.35-4.26c-2.039-4.076-2.039-8.874,0-12.95c0.999-1.81,2.513-3.282,4.35-4.23
			c4.141-1.987,8.959-1.987,13.1,0c1.839,0.945,3.354,2.418,4.35,4.23c2.039,4.076,2.039,8.874,0,12.95
			c-0.995,1.82-2.509,3.303-4.35,4.26C181.584,80.008,176.756,80.008,172.62,78z M184.43,67.27c0.139-1.796-0.341-3.585-1.36-5.07
			c-0.963-1.141-2.409-1.76-3.9-1.67c-3.5,0-5.25,2.247-5.25,6.74s1.75,6.737,5.25,6.73c3.513,0,5.267-2.25,5.26-6.75V67.27z"/>
		<path d="M196.43,79.1V45.4h7.22v33.7H196.43z"/>
		<path d="M226.39,55.68h7.08l-14.15,32H212l4.5-9.9l-9.66-22.13h7.51l5.92,14.91L226.39,55.68z"/>
		<path d="M292.79,68.73H277.5c0.062,1.55,0.721,3.016,1.84,4.09c1.233,0.913,2.749,1.36,4.28,1.26
			c1.227-0.005,2.445-0.204,3.61-0.59c1.172-0.392,2.275-0.966,3.27-1.7l1.91,4.83c-1.255,0.947-2.671,1.659-4.18,2.1
			c-1.617,0.511-3.304,0.77-5,0.77c-3.947,0-7.063-1.093-9.35-3.28c-2.343-2.36-3.581-5.599-3.41-8.92
			c-0.03-2.211,0.496-4.395,1.53-6.35c0.939-1.799,2.362-3.299,4.11-4.33c1.819-1.059,3.895-1.599,6-1.56
			c2.95-0.135,5.808,1.039,7.81,3.21c1.927,2.133,2.89,5.033,2.89,8.7L292.79,68.73z M279,61.34c-0.89,1.076-1.415,2.406-1.5,3.8
			h9.22c0.018-1.378-0.426-2.723-1.26-3.82c-0.807-0.897-1.975-1.382-3.18-1.32C281.045,59.953,279.849,60.442,279,61.34z"/>
		<path d="M313.23,74l-0.38,5.26c-0.918,0.131-1.843,0.198-2.77,0.2c-3.57,0-6.18-0.79-7.82-2.35s-2.46-3.9-2.46-7.11v-9h-4.45v-5.4
			h4.45v-6.86h7.2v6.89h5.88V61H307v9c0,2.813,1.307,4.217,3.92,4.21C311.694,74.189,312.465,74.119,313.23,74z"/>
		<path d="M349.8,55.63h7l-9.49,23.47h-6.12L336,65.86l-5,13.24h-6.07l-9.56-23.47h7.36l5.55,14.87l5.54-14.87h4.88l5.59,15
			L349.8,55.63z"/>
		<path d="M363.93,78c-1.839-0.96-3.352-2.442-4.35-4.26c-2.039-4.076-2.039-8.874,0-12.95c0.999-1.81,2.513-3.282,4.35-4.23
			c4.141-1.987,8.959-1.987,13.1,0c1.837,0.948,3.351,2.42,4.35,4.23c2.039,4.076,2.039,8.874,0,12.95
			c-1.006,1.822-2.53,3.305-4.38,4.26c-4.136,2.008-8.964,2.008-13.1,0H363.93z M375.74,67.27c0.136-1.797-0.348-3.586-1.37-5.07
			c-0.958-1.142-2.402-1.762-3.89-1.67c-3.507,0-5.26,2.247-5.26,6.74s1.753,6.737,5.26,6.73c3.52,0,5.26-2.26,5.26-6.75V67.27z"/>
		<path d="M404.47,61l-4.07,0.43c-1.579,0.015-3.096,0.621-4.25,1.7c-0.87,1.05-1.316,2.388-1.25,3.75V79.1h-7.22V55.63h6.94v4
			c1.167-2.713,3.603-4.197,7.31-4.45L404,55L404.47,61z"/>
		<path d="M432.77,79.1h-8.84l-9-10.47V79.1h-7.22V45.4h7.22v20.27l8.65-10h8.61l-9.85,11.18L432.77,79.1z"/>
		<path d="M258.91,45.4h7v33.7h-5.54l-16.8-21.46V79.1h-6.94V45.4h5.5l16.78,21.37V45.4z"/>
	</g>
</g>
</svg>
