<?xml version="1.0" encoding="utf-8"?>
<!-- Generator: Adobe Illustrator 23.0.2, SVG Export Plug-In . SVG Version: 6.00 Build 0)  -->
<svg version="1.1" id="图层_1" xmlns="http://www.w3.org/2000/svg" xmlns:xlink="http://www.w3.org/1999/xlink" x="0px" y="0px"
	 viewBox="0 0 340 156" style="enable-background:new 0 0 340 156;" xml:space="preserve">
<style type="text/css">
	.st0{fill:#FFFFFF;}
</style>
<g>
	<rect x="297.947" y="33.828" class="st0" width="8.337" height="8.337"/>
	<rect x="264.919" y="0.799" class="st0" width="8.337" height="8.337"/>
	<rect x="330.976" y="66.857" class="st0" width="8.337" height="8.337"/>
	<path class="st0" d="M314.461,17.313h-16.514v8.337h16.514v16.515h8.337V25.49c0-4.489-3.688-8.017-8.017-8.017h-0.321v-0.16
		H314.461z"/>
	<path class="st0" d="M322.639,50.342c-4.489,0-8.017,3.688-8.017,8.017v0.16v16.514h8.337V58.68h16.514v-8.337h-16.834V50.342z"/>
	<path class="st0" d="M281.433,0.799v16.515h-16.514v8.337h16.675c4.489,0,8.017-3.688,8.017-8.017v-0.16V0.799H281.433z"/>
	<path class="st0" d="M289.77,50.342V33.828h-8.337v16.675c0,4.489,3.688,8.017,8.017,8.017h0.16h16.514v-8.337H289.77V50.342z"/>
	<path class="st0" d="M273.095,66.857V33.828h-8.337v33.189c0,4.489,3.688,8.017,8.017,8.017h0.16h33.029v-8.337h-32.869V66.857z"/>
	<path class="st0" d="M330.976,0.799h-33.029v8.337h33.029v33.029h8.337V8.816c0-4.489-3.688-8.017-8.017-8.017
		C331.296,0.799,330.976,0.799,330.976,0.799z"/>
	<path class="st0" d="M18.965,47.136c7.856,0,14.911-4.97,14.911-11.544c0-7.215-4.489-11.223-12.506-11.223H7.421v22.607h11.544
		V47.136z M0.526,18.917h19.4c15.392,0,21.004,6.734,21.004,16.515c0,8.818-7.536,13.308-14.59,14.27
		c-0.321,0-0.802,0.16-0.802,0.802c0,0.481,0.321,0.641,0.802,0.641c7.215,0.321,10.101,3.046,11.544,7.055l5.451,16.033h-8.658
		L31.31,60.765c-1.443-6.093-5.131-8.017-13.468-8.017H7.421v21.485H0.526V18.917z"/>
	<path class="st0" d="M61.453,55.794c-4.81,0.802-8.017,2.565-8.017,6.734c0,3.848,3.046,7.536,9.46,6.894
		c7.536-0.641,13.147-6.574,13.147-17.797C73.799,54.511,67.707,54.832,61.453,55.794z M61.293,50.823
		c7.375-0.641,14.911,0,14.751-4.489c0-3.207-1.603-7.536-10.903-7.536c-7.055,0-10.101,3.688-10.742,7.215h-6.093
		c1.443-8.979,8.818-12.666,17.477-12.666c8.979,0,16.514,3.207,16.514,17.958v22.928h-6.253v-4.489c0-1.603,0.16-2.726,0.802-4.489
		c0.16-0.641,0.481-1.283-0.16-1.443c-0.481-0.16-0.641,0.321-0.802,0.641c-2.084,6.413-8.177,10.261-15.552,10.261
		c-7.215,0-13.308-4.97-13.308-11.865C47.184,54.19,54.238,51.304,61.293,50.823z"/>
	<path class="st0" d="M120.938,54.19c0-8.177-5.291-15.071-12.827-15.071c-8.177,0-12.506,6.894-12.506,15.071
		s4.329,15.071,12.506,15.071C115.647,69.262,120.938,62.367,120.938,54.19z M127.191,17.634v56.758h-6.253v-3.527
		c0-1.283,0.16-2.405,0.802-4.169c0.16-0.641,0.481-1.283,0-1.443c-0.641-0.321-0.962,0.321-0.962,0.481
		c-1.924,5.612-7.215,9.139-13.628,9.139c-10.422,0-17.797-8.818-17.797-20.844s7.375-20.844,17.797-20.844
		c6.413,0,11.704,3.527,13.628,8.979c0,0.16,0.321,0.962,0.802,0.802c0.641-0.16,0.16-0.962,0-1.603
		c-0.481-1.603-0.641-2.886-0.641-4.329v-19.4H127.191z"/>
	<path class="st0" d="M165.03,54.19c0-8.337-4.65-15.071-12.666-15.071s-12.666,6.734-12.666,15.071s4.65,15.071,12.666,15.071
		S165.03,62.528,165.03,54.19z M171.283,54.19c0,11.384-7.055,20.844-18.919,20.844c-11.865,0-18.919-9.299-18.919-20.844
		c0-11.544,7.055-20.844,18.919-20.844C164.228,33.347,171.283,42.646,171.283,54.19z"/>
	<path class="st0" d="M231.889,49.06v25.173h-6.253V48.098c0-6.253-3.527-9.46-8.498-9.46c-5.131,0-9.139,5.612-9.139,12.506v23.088
		h-6.253V49.06c0-6.253-2.565-10.422-7.696-10.422c-4.489,0-9.941,5.612-9.941,13.468v22.286h-6.253V33.988h6.253v2.886
		c0,1.603-0.16,2.726-0.802,4.169c-0.16,0.641-0.321,1.283,0,1.443c0.481,0.16,0.802-0.321,0.802-0.481
		c2.245-4.97,6.413-8.658,12.025-8.658c4.97,0,8.658,2.886,10.101,8.337c0,0.321,0.321,0.641,0.802,0.641s0.641-0.16,0.802-0.481
		c1.924-4.65,5.932-8.337,10.903-8.337C225.636,33.347,231.889,37.355,231.889,49.06z"/>
	<path class="st0" d="M0.526,99.084H11.91l25.493,50.024c0.16,0.16,0.321,0.641,0.641,0.481c0.802-0.16,0.481-0.802,0.321-1.443
		c-0.641-1.764-0.641-3.207-0.641-5.131V99.084h6.894v55.476H33.235L7.741,104.535c-0.16-0.16-0.321-0.481-0.641-0.481
		c-0.641,0.16-0.481,0.641-0.16,1.283c0.481,1.764,0.641,3.207,0.641,5.131V154.4H0.526V99.084z"/>
	<path class="st0" d="M57.926,130.991h23.73c-0.481-7.375-4.65-12.025-10.903-12.025C62.255,118.966,58.728,124.257,57.926,130.991z
		 M87.909,135.961H57.605c0.321,7.055,4.97,13.628,13.147,13.628c5.772,0,8.658-3.688,9.941-8.177h6.574
		c-1.443,6.734-6.894,13.789-16.835,13.789c-12.346,0-18.919-9.62-18.919-20.844c0-12.346,7.696-20.844,18.759-20.844
		c8.658,0,17.797,5.772,17.797,19.561C88.069,134.358,87.909,135.32,87.909,135.961z"/>
	<path class="st0" d="M103.14,119.607v23.569c0,4.65,0.962,5.932,5.291,5.932h5.932v5.291h-5.932
		c-8.337,0-11.704-2.405-11.704-11.865v-22.928h-7.536v-5.291h7.536v-11.384h6.413v11.384h11.384v5.291H103.14V119.607z"/>
	<path class="st0" d="M125.267,114.316l9.139,33.67c0.16,0.641,0.321,1.283,0.321,1.764s0,0.962,0.641,0.962
		s0.641-0.481,0.641-0.962s0-0.962,0.321-1.764l8.498-33.67h7.536l8.498,33.67c0.16,0.641,0.321,1.283,0.321,1.764
		s0,0.962,0.641,0.962s0.641-0.481,0.641-0.962s0-0.962,0.321-1.764l9.139-33.67h6.894l-12.346,40.404h-9.46l-7.536-30.464
		c-0.16-0.962-0.321-1.924-0.321-3.046c0-0.481,0-0.962-0.641-0.962s-0.641,0.481-0.641,0.962c0,1.122,0,2.084-0.321,3.046
		l-7.536,30.464h-9.46l-12.346-40.404H125.267z"/>
	<path class="st0" d="M211.527,134.358c0-8.337-4.65-15.071-12.666-15.071c-8.017,0-12.666,6.734-12.666,15.071
		s4.65,15.071,12.666,15.071C206.877,149.589,211.527,142.695,211.527,134.358z M217.94,134.358
		c0,11.384-7.055,20.844-18.919,20.844c-11.865,0-18.919-9.299-18.919-20.844c0-11.544,7.055-20.844,18.919-20.844
		C210.725,113.674,217.94,122.974,217.94,134.358z"/>
	<path class="st0" d="M230.607,122.974c2.726-6.574,4.81-9.299,14.911-9.299v6.413c-11.704-0.802-15.071,3.367-15.071,13.949v20.523
		h-6.253v-40.244h6.253v3.207c0,1.443-0.16,2.886-0.802,4.65c-0.16,0.641-0.481,1.283,0.16,1.443
		C230.286,123.615,230.446,123.295,230.607,122.974z"/>
	<path class="st0" d="M278.066,154.56l-15.392-19.721l-4.489,4.169v15.552h-6.253V97.801h6.253v29.502
		c0,2.084-0.321,3.367-1.603,4.97c-0.321,0.321-0.641,0.802-0.16,1.122c0.321,0.321,0.641,0,0.962-0.321l18.919-18.759h8.337
		l-17.958,16.835l19.24,23.409h-7.856V154.56z"/>
	<rect x="297.947" y="33.828" class="st0" width="8.337" height="8.337"/>
	<rect x="264.918" y="0.799" class="st0" width="8.337" height="8.337"/>
	<rect x="330.976" y="66.857" class="st0" width="8.337" height="8.337"/>
	<path class="st0" d="M314.461,17.474h-16.514v8.177h16.514v16.514h8.337V25.49c0-4.489-3.688-8.017-8.017-8.017h-0.32V17.474z"/>
	<path class="st0" d="M322.639,50.342c-4.489,0-8.017,3.688-8.017,8.017v0.16v16.514h8.337V58.68h16.514v-8.337h-16.834V50.342z"/>
	<path class="st0" d="M281.433,0.799v16.515h-16.514v8.337h16.675c4.489,0,8.017-3.688,8.017-8.017v-0.16V0.799H281.433z"/>
	<path class="st0" d="M289.77,50.342V33.828h-8.337v16.675c0,4.489,3.688,8.017,8.017,8.017h0.16h16.514v-8.337H289.77V50.342z"/>
	<path class="st0" d="M273.255,66.857V33.828h-8.337v33.189c0,4.489,3.688,8.017,8.017,8.017h0.16h33.029v-8.337h-32.869V66.857z"/>
	<path class="st0" d="M330.976,0.799h-33.029v8.337h33.029v33.029h8.337V8.816c0-4.489-3.688-8.017-8.017-8.017
		C331.296,0.799,330.976,0.799,330.976,0.799z"/>
</g>
</svg>
