<?xml version="1.0" encoding="utf-8"?>
<!-- Generator: Adobe Illustrator 23.0.2, SVG Export Plug-In . SVG Version: 6.00 Build 0)  -->
<svg version="1.1" id="图层_1" xmlns="http://www.w3.org/2000/svg" xmlns:xlink="http://www.w3.org/1999/xlink" x="0px" y="0px"
	 viewBox="0 0 512 100" style="enable-background:new 0 0 512 100;" xml:space="preserve">
<style type="text/css">
	.st0{fill:#1853EF;}
</style>
<g>
	<g>
		<polygon class="st0" points="161.545,27.94 150.055,63.95 139.135,27.94 126.695,27.94 143.095,78.58 156.025,78.58 
			165.795,45.91 175.925,78.58 188.935,78.58 205.195,27.94 192.885,27.94 181.975,63.79 170.345,27.94 		"/>
		<path class="st0" d="M233.835,37.43c-7.66,0-11.55,5.88-11.59,5.94l-1.21,1.88V27.94h-11.3v50.64h11.43V55.43
			c0-4.33,3.72-7.98,8.12-7.98c6.43,0,7.17,4.21,7.17,7.37v23.76h11.71V50.61C248.165,43.22,241.865,37.43,233.835,37.43z"/>
		<path class="st0" d="M254.025,58.61c0,12.74,7.41,20.98,18.88,20.98c7.55,0,11.95-4.82,11.99-4.87l1.15-1.29v5.14h11.37V38.25
			h-11.16v5.1l-1.1-1c-3.42-3.11-6.41-4.92-11.56-4.92C262.805,37.43,254.025,46.93,254.025,58.61z M286.655,58.75
			c0,6.18-4.72,10.83-10.97,10.83c-5.88,0-10.16-4.7-10.16-11.17c0-6.16,4.44-10.63,10.56-10.63S286.655,52.39,286.655,58.75z"/>
		<polygon class="st0" points="318.225,27.94 306.855,27.94 306.855,38.25 302.725,38.25 302.725,48.39 306.855,48.39 
			306.855,78.58 318.225,78.58 318.225,48.46 324.935,48.46 324.935,38.25 318.225,38.25 		"/>
		<path class="st0" d="M337.745,49.39c0-1.95,1.53-3.17,3.98-3.17c3.09,0,4.78,2.05,5.44,3.07l8.4-3.7
			c-2.51-5.13-7.23-8.17-12.75-8.17c-9,0-15.28,5.31-15.28,12.91c0,8.72,6.85,10.91,12.36,12.68c3.37,1.08,6.29,2.02,6.29,4.41
			c0,2.32-2.65,3.57-5.13,3.57c-3.21,0-5.28-2.38-6.06-3.47l-8.56,4.31c3.04,5.28,7.66,7.74,14.49,7.74
			c7.72,0,16.03-4.12,16.03-13.18c0-8.58-7.18-10.92-12.95-12.8C340.495,52.47,337.745,51.57,337.745,49.39z"/>
		<path class="st0" d="M326.255,49.42c-0.01,0.12-0.01,0.24-0.02,0.36h0.02V49.42z"/>
		<path class="st0" d="M360.775,53.73c0,14.94,11.41,26.2,26.54,26.2c5.12,0,8.37-1.42,12.43-3.23V64.71
			c-3.17,2.01-6.8,3.72-11.55,3.72c-8.71,0-15.04-6.12-15.04-14.56c0-9.67,5.64-15.92,14.36-15.92c5.77,0,9.25,1.51,12.36,3.84
			V29.44c-4.32-2.26-7.55-2.99-13.04-2.99C371.745,26.44,360.775,37.92,360.775,53.73z"/>
		<path class="st0" d="M426.415,37.43c-12.62,0-22.13,9.11-22.13,21.18c0,11.59,10.01,21.39,21.86,21.39
			c12.99,0,22.06-8.88,22.06-21.59C448.215,46.45,438.845,37.43,426.415,37.43z M426.285,69.38c-6.1,0-10.7-4.54-10.7-10.56
			c0-6.28,4.53-10.83,10.76-10.83c6.06,0,10.63,4.39,10.63,10.22C436.985,65.1,432.885,69.38,426.285,69.38z"/>
		<path class="st0" d="M459.665,20c-3.83,0-6.94,3.14-6.94,7.01c0,3.89,2.99,6.94,6.8,6.94c3.94,0,7.14-3.17,7.14-7.07
			C466.675,23.08,463.525,20,459.665,20z"/>
		<rect x="453.945" y="38.25" class="st0" width="11.3" height="40.33"/>
		<path class="st0" d="M497.505,37.43c-7.69,0-11.55,5.88-11.59,5.94l-1.21,1.89v-7.01h-11.3v40.33h11.43V55.43
			c0-4.33,3.72-7.98,8.12-7.98c6.43,0,7.17,4.21,7.17,7.37v23.76h11.71V50.61C511.835,43.22,505.535,37.43,497.505,37.43z"/>
	</g>
	<g>
		<path class="st0" d="M78.775,80.89c-7.81,7.23-17.97,11.22-28.61,11.22c-23.22,0-42.11-18.89-42.11-42.11s18.89-42.11,42.11-42.11
			c10.64,0,20.8,3.98,28.61,11.22c1.6,1.48,4.1,1.39,5.58-0.21s1.39-4.1-0.21-5.58C74.875,4.73,62.805,0,50.165,0
			c-27.57,0-50,22.43-50,50s22.43,50,50,50c12.64,0,24.71-4.73,33.98-13.32c1.6-1.48,1.69-3.98,0.21-5.58
			C82.875,79.5,80.375,79.41,78.775,80.89z"/>
		<path class="st0" d="M105.585,30.27c-1.54-1.54-4.04-1.54-5.58,0l-22.06,22.06L64.925,39.3c-1.54-1.54-4.04-1.54-5.58,0
			l-22.07,22.06l-13.02-13.02c-1.54-1.54-4.04-1.54-5.58,0c-1.54,1.54-1.54,4.04,0,5.58l15.82,15.82c0.77,0.77,1.78,1.16,2.79,1.16
			s2.02-0.39,2.79-1.16l22.06-22.06l13.03,13.03c0.77,0.77,1.78,1.16,2.79,1.16s2.02-0.39,2.79-1.16l24.85-24.85
			C107.135,34.31,107.135,31.81,105.585,30.27z"/>
	</g>
</g>
</svg>
