<svg id="图层_1" data-name="图层 1" xmlns="http://www.w3.org/2000/svg" viewBox="0 0 673.9 165.43"><defs><style>.cls-1,.cls-2{fill:#00203f;}.cls-1{fill-rule:evenodd;}</style></defs><title>Winkrypto Type2</title><path class="cls-1" d="M67.7,24.25l10.76-4.16a5.63,5.63,0,0,1,7.23,3.36l.85,2.34,29.88,82.41a5.63,5.63,0,0,1-3.36,7.21l-10.77,4.17a5.63,5.63,0,0,1-7.22-3.36l-.86-2.35L64.33,31.47A5.64,5.64,0,0,1,67.7,24.25Z"/><path class="cls-1" d="M18.43,24.25,29.2,20.09a5.63,5.63,0,0,1,7.23,3.36l.85,2.34L67.16,108.2a5.63,5.63,0,0,1-3.37,7.21L53,119.58a5.64,5.64,0,0,1-7.23-3.36L45,113.87,15.07,31.47A5.65,5.65,0,0,1,18.43,24.25Z"/><path class="cls-2" d="M142.13,20.22A13.49,13.49,0,0,0,128.6,33.67v.1a13.49,13.49,0,1,0,27,.07v-.1A13.49,13.49,0,0,0,142.13,20.22Z"/><rect class="cls-2" x="131.53" y="58.77" width="21.09" height="59.31" rx="3.07"/><path class="cls-2" d="M226.3,65.16a21.4,21.4,0,0,0-7.52-5.69,25.88,25.88,0,0,0-10.67-2,27.14,27.14,0,0,0-10.28,1.79c-2.88,1.17-5.78,3.51-8.61,7l-1.07,1.3V61.84a3.08,3.08,0,0,0-3.08-3.08H171.4A3.41,3.41,0,0,0,168,62.17V115a3.08,3.08,0,0,0,3.09,3.08h14a3.08,3.08,0,0,0,3.08-3.08V86.37c0-4.15,1-7.4,3-9.67s5-3.45,8.77-3.45a12.31,12.31,0,0,1,4,.63A8.58,8.58,0,0,1,207.35,76a9.55,9.55,0,0,1,2.46,4.71,33,33,0,0,1,.67,7.4V115a3.08,3.08,0,0,0,3.08,3.08h14a3.08,3.08,0,0,0,3.08-3.08V80.23a35,35,0,0,0-.93-8.47A16.17,16.17,0,0,0,226.3,65.16Z"/><path class="cls-2" d="M317.27,58.76H289.79L266.52,81.42V22.29a.94.94,0,0,0-.94-.94H247.3a.94.94,0,0,0-.94.94v94.87a.94.94,0,0,0,.94.94h18.28a.94.94,0,0,0,.94-.94V92.54l24.34,25.56h28.29l-31.53-32Z"/><path class="cls-2" d="M371.29,57.46h-1.85a22.11,22.11,0,0,0-11.26,2.81A23.92,23.92,0,0,0,350,68.39l-1.11,1.76V61.84a3.09,3.09,0,0,0-3.09-3.08h-14a3.08,3.08,0,0,0-3.08,3.08V115a3.08,3.08,0,0,0,3.08,3.08h14A3.09,3.09,0,0,0,348.9,115V92.74c0-5.78,1.3-10.26,3.86-13.31s6.49-4.64,11.61-4.64a21.4,21.4,0,0,1,6.87,1.1,1.33,1.33,0,0,0,1.21-.17,1.27,1.27,0,0,0,.52-1V59.15A1.69,1.69,0,0,0,371.29,57.46Z"/><path class="cls-2" d="M515.62,66.13a30.22,30.22,0,0,0-9.55-6.77,28.47,28.47,0,0,0-11.85-2.49c-7.64,0-13.75,2.82-18.18,8.39L475,66.61V61.84a3.08,3.08,0,0,0-3.08-3.08H458.22a3.41,3.41,0,0,0-3.41,3.41v83.06a3.1,3.1,0,0,0,3.09,3.09h14a3.09,3.09,0,0,0,3.08-3.09V111.32l1,1.07a24.76,24.76,0,0,0,18.45,7.6,28.64,28.64,0,0,0,21.21-9.13,31.62,31.62,0,0,0,6.26-10,33.07,33.07,0,0,0,2.26-12.29,34,34,0,0,0-2.26-12.41A30.65,30.65,0,0,0,515.62,66.13ZM501.91,94.05a15.94,15.94,0,0,1-3.07,4.54,13.82,13.82,0,0,1-4.5,3.08,14,14,0,0,1-5.55,1.11,13.76,13.76,0,0,1-5.61-1.17,15.83,15.83,0,0,1-4.6-3.07,13.84,13.84,0,0,1-3.09-4.5,14.14,14.14,0,0,1-1.11-5.55,13.93,13.93,0,0,1,1.17-5.61,15.83,15.83,0,0,1,3.07-4.6,13.89,13.89,0,0,1,4.51-3.09,14.58,14.58,0,0,1,11.27.06A15.13,15.13,0,0,1,499,78.39,13.63,13.63,0,0,1,502,83a15.21,15.21,0,0,1,1,5.59A13.08,13.08,0,0,1,501.91,94.05Z"/><path class="cls-2" d="M570.08,58.76H561V43.67a3.09,3.09,0,0,0-3.08-3.09h-14a3.09,3.09,0,0,0-3.08,3.09V58.76h-4a3.08,3.08,0,0,0-3.08,3.08V72.3a3.08,3.08,0,0,0,3.08,3.08h4V115a3.08,3.08,0,0,0,3.08,3.08h14A3.08,3.08,0,0,0,561,115V75.38h9.07a3.09,3.09,0,0,0,3.09-3.08V61.84A3.09,3.09,0,0,0,570.08,58.76Z"/><path class="cls-2" d="M649.94,75.58a29.71,29.71,0,0,0-7.47-10.07A35.5,35.5,0,0,0,631.1,58.9a41.7,41.7,0,0,0-14.25-2.38A41.13,41.13,0,0,0,602.48,59a35.6,35.6,0,0,0-11.32,6.67,30.43,30.43,0,0,0-7.41,10,29.11,29.11,0,0,0-2.66,12.32,32.29,32.29,0,0,0,2.67,13.27,30.63,30.63,0,0,0,7.35,10.24A32.66,32.66,0,0,0,602.29,118a42.25,42.25,0,0,0,14.2,2.33A44.17,44.17,0,0,0,631,118a33.7,33.7,0,0,0,11.42-6.55,30.79,30.79,0,0,0,7.47-10.07,30.43,30.43,0,0,0,2.72-12.91A31,31,0,0,0,649.94,75.58ZM630.08,94a15.57,15.57,0,0,1-3.07,4.6,13.51,13.51,0,0,1-4.56,3.08,14.71,14.71,0,0,1-11.21,0,13.56,13.56,0,0,1-4.56-3.08,15.7,15.7,0,0,1-3.07-4.6,14.42,14.42,0,0,1-1.17-5.85,13.36,13.36,0,0,1,1.17-5.56A15.87,15.87,0,0,1,606.68,78,13.58,13.58,0,0,1,611.24,75a14.8,14.8,0,0,1,11.21,0A13.68,13.68,0,0,1,627,78a15.63,15.63,0,0,1,3.07,4.6,13.76,13.76,0,0,1,1.17,5.61A14.13,14.13,0,0,1,630.08,94Z"/><path class="cls-2" d="M443.06,58.76H428.49a3.22,3.22,0,0,0-3,2.12L413.88,93.09,402.19,60.87a3.2,3.2,0,0,0-3-2.11H384.72a3,3,0,0,0-2.52,1.31,3.07,3.07,0,0,0-.38,2.83l20.46,56.4-.07.21-8.95,24.67a3.09,3.09,0,0,0,2.9,4.13h16.59a3.21,3.21,0,0,0,3-2.11L446,62.9a3.08,3.08,0,0,0-2.9-4.14Z"/></svg>